<svg width="356" height="307" viewBox="0 0 356 307" fill="none" xmlns="http://www.w3.org/2000/svg">
<g id="book">
<path id="Vector 33" d="M174.604 3L13.867 35.1475C18.0237 40.4226 29.8284 44.8267 48.7311 52.3532L47.3728 78.6145L15.6781 88.5757L44.6561 102.612C36.3825 113.782 36.1901 119.117 34.6949 128.873H15.6781L31.5254 156.04L26.092 170.529L3.90576 174.604L74.0869 303.647L297.308 285.536C341.681 274.216 334.059 223.954 297.308 193.621L350.284 174.604L323.117 159.662L320.853 131.137L350.284 121.629L302.289 100.348L323.117 91.2924C351.189 71.37 342.133 34.2419 309.08 28.8085C276.027 23.3752 174.604 3 174.604 3Z" fill="#F6FAFF"/>
<g id="group4">
<path id="Vector" d="M88.1228 261.085H103.517M86.3117 274.216L138.834 272.405M43.7502 154.229L95.3673 239.352L280.102 221.241M85.4061 270.594L63.6726 235.73" stroke="url(#paint0_linear_8_12)" stroke-width="6" stroke-linecap="round"/>
<g id="Group 1">
<path id="Vector 22" d="M295.497 194.527C352.547 227.127 321.758 288.252 295.497 285.536" stroke="#242526" stroke-width="6" stroke-linecap="round"/>
<path id="Vector 23" d="M295.497 285.536L73.6338 303.194" stroke="#242526" stroke-width="6" stroke-linecap="round"/>
<path id="Vector 24" d="M73.6338 303.647L3.45264 173.699" stroke="#242526" stroke-width="6" stroke-linecap="round"/>
<path id="Vector 25" d="M3 173.246L26.5446 170.529" stroke="#242526" stroke-width="6" stroke-linecap="round"/>
<path id="Vector 26" d="M34.2419 128.42H15.2251" stroke="#242526" stroke-width="6" stroke-linecap="round"/>
<path id="Vector 27" d="M15.2251 128.42L89.934 251.577" stroke="#242526" stroke-width="6" stroke-linecap="round"/>
<path id="Vector 28" d="M89.9341 251.577C89.9341 251.577 293.686 231.655 306.816 230.749C319.947 229.843 322.664 260.18 303.647 270.594" stroke="#242526" stroke-width="6" stroke-linecap="round"/>
<path id="Vector 29" d="M303.647 270.594L81.3311 287.799" stroke="#242526" stroke-width="6" stroke-linecap="round"/>
<path id="Vector 30" d="M81.3312 287.799L25.1863 184.565" stroke="#242526" stroke-width="6" stroke-linecap="round"/>
<path id="Vector 31" d="M25.1863 184.113L31.5252 157.851" stroke="#242526" stroke-width="6" stroke-linecap="round"/>
<path id="Vector 32" d="M81.3311 286.894L85.6325 269.462L89.9339 252.03" stroke="#242526" stroke-width="6" stroke-linecap="round"/>
</g>
</g>
<g id="Group 3">
<path id="Vector_2" d="M320.4 142.457L299.119 148.343M321.758 159.662L258.369 176.868M163.737 216.713C155.989 202.426 153.686 194.102 159.209 177.774M120.27 191.357C118.457 180.277 117.183 173.889 120.723 166.454M109.403 184.565C106.578 171.543 104.781 164.167 109.403 153.776M58.2391 155.135C55.0823 142.339 52.9803 135.032 57.3336 125.251" stroke="url(#paint1_linear_8_12)" stroke-width="6" stroke-linecap="round"/>
<g id="group 1">
<path id="Vector 15" d="M353 175.057L322.211 157.851" stroke="#242526" stroke-width="6" stroke-linecap="round"/>
<path id="Vector 14" d="M322.663 171.435L320.399 132.948M45.5611 103.517C36.5058 111.668 31.1574 135.082 37.4111 143.362L172.34 222.146C182.352 227.113 188.467 227.584 200.413 223.957L353 175.057" stroke="#242526" stroke-width="6" stroke-linecap="round"/>
<path id="Vector 13" d="M352.548 121.629C352.548 121.629 198.603 170.982 180.944 176.415C163.285 181.849 166.454 220.788 189.546 211.279L322.664 171.435" stroke="#242526" stroke-width="6" stroke-linecap="round"/>
<path id="Vector 12" d="M299.572 102.159L352.547 121.629" stroke="#242526" stroke-width="6" stroke-linecap="round"/>
</g>
</g>
<g id="Group 1_2">
<path id="Vector_3" d="M161.02 110.762L118.912 97.1785M164.19 108.498L215.807 92.6507M165.095 123.893L202.224 111.215M47.3723 39.6753L161.926 78.6145M161.473 78.6145C179.069 74.6543 222.366 62.1011 279.196 46.0142" stroke="url(#paint2_linear_8_12)" stroke-width="6" stroke-linecap="round"/>
<path id="Vector 3" d="M44.6586 79.9728C44.6586 79.9728 17.0389 87.6701 14.775 88.1229C12.5111 88.5757 161.929 157.398 161.929 157.398C161.929 157.398 299.574 101.254 323.572 90.8396C347.569 80.4256 347.569 34.6947 307.724 28.8085C267.88 22.9224 175.06 3.45278 175.06 3.45278L11.1527 35.6003C7.53049 36.053 79.5492 66.8916 161.473 92.6507M295.499 53.7115C305.321 41.9055 318.594 43.2975 323.572 48.7309C328.549 54.1643 332.624 76.8034 312.249 82.2367C308.181 82.5545 305.805 83.119 301.835 82.2367C297.76 81.3312 166.001 136.57 166.001 136.57" stroke="#242526" stroke-width="6" stroke-linecap="round"/>
<path id="Vector 6" d="M161.473 92.6507C161.473 92.6507 247.184 64.4847 295.043 54.1643" stroke="#242526" stroke-width="6" stroke-linecap="round"/>
<path id="Vector 4" d="M166.001 136.57C129.84 122.076 106.189 112.06 48.2778 85.4062" stroke="#242526" stroke-width="6" stroke-linecap="round"/>
<path id="Vector 5" d="M48.2778 85.4062V52.806" stroke="#242526" stroke-width="6" stroke-linecap="round"/>
<path id="Vector 8" d="M161.926 93.1035L163.737 135.212" stroke="#242526" stroke-width="6" stroke-linecap="round"/>
</g>
</g>
<defs>
<linearGradient id="paint0_linear_8_12" x1="105.027" y1="214.684" x2="63.0141" y2="268.611" gradientUnits="userSpaceOnUse">
<stop stop-color="#1B6CE7"/>
<stop offset="0.0001" stop-color="#1A6BE6"/>
<stop offset="1" stop-color="#003FA6"/>
</linearGradient>
<linearGradient id="paint1_linear_8_12" x1="292.327" y1="115.743" x2="89.7082" y2="311.843" gradientUnits="userSpaceOnUse">
<stop stop-color="#1B6CE7"/>
<stop offset="0.0001" stop-color="#1A6BE6"/>
<stop offset="1" stop-color="#003FA6"/>
</linearGradient>
<linearGradient id="paint2_linear_8_12" x1="145.173" y1="61.4088" x2="120.985" y2="121.43" gradientUnits="userSpaceOnUse">
<stop stop-color="#1B6CE7"/>
<stop offset="0.0001" stop-color="#1A6BE6"/>
<stop offset="1" stop-color="#003FA6"/>
</linearGradient>
</defs>
</svg>
