<svg width="356" height="316" viewBox="0 0 356 316" fill="none" xmlns="http://www.w3.org/2000/svg">
<g id="hand">
<g id="coin">
<path id="Vector 64" d="M240.302 68.3757C243.584 31.7266 209.012 0.56722 172.307 3.14988C138.026 5.562 110.143 34.149 113.235 68.3757C116.058 99.6248 141.006 120.655 172.307 122.833C206.245 125.195 237.267 102.26 240.302 68.3757Z" stroke="#242526" stroke-width="6" stroke-linecap="round"/>
<path id="Vector" d="M187.922 42.8765C187.922 42.8765 184.167 41.1679 176.811 41.1201M176.811 41.1201C175.11 41.109 173.216 41.1868 171.132 41.3951C160.035 42.5039 156.317 59.6667 168.91 62.1358C168.91 62.1358 175.577 63.3704 185.206 65.0988C194.836 66.8272 195.083 83.3704 185.206 84.8518C181.618 85.1926 179.198 85.379 176.811 85.3185M176.811 41.1201V33M176.811 85.3185C173.275 85.2289 171.294 84.8444 164.219 83.3704M176.811 85.3185V93" stroke="url(#paint0_linear_17_202)" stroke-width="6" stroke-linecap="round"/>
</g>
<path id="Vector 65" d="M117 109.5L86.5 96.5H84L71.5 115L29 187L50.5 213.5L38 233L40.5 249.5L52.5 254.5L65.5 249.5V268.5L80.5 274L98 264.5L95 277.5L98 290L111.5 294L125.5 284.5L124 296L128.5 309L140 312.5L150 305.5L163 290L202 303.5L215.5 300L224 285.5H239.5L248.5 277.5L251 262H258.5L269 256.5L273.5 237H281L292 233L295 219.5L292 210.5L322 184L271.5 101L258.5 107.5H245L204 96.5L182.5 94L138.5 104.5L130.5 112L117 109.5Z" fill="#F6FAFF"/>
<g id="group 1">
<path id="Vector 61" d="M129.79 112.165C105.823 106.156 96.0523 102.402 84.6162 95.0821" stroke="#242526" stroke-width="6" stroke-linecap="round"/>
<path id="Vector 59" d="M294.54 214.659C253.613 178.356 230.569 160.162 189.009 137.978C177.566 132.402 171.167 131.525 153.326 147.468C135.484 163.412 105.874 176.698 104.356 152.783C105.813 146.695 110.259 139.042 132.447 108.748C142.571 100.078 186.731 91.286 201.916 96.221C244.517 108.496 251.971 109.75 255.82 108.748L271.005 101.156" stroke="#242526" stroke-width="6" stroke-linecap="round"/>
<path id="Vector 60" d="M292.263 211.622L321.113 185.429" stroke="#242526" stroke-width="6" stroke-linecap="round"/>
<path id="Vector 58" d="M163.195 289.442C202.186 308.515 216.72 308.802 224.692 284.441M181.796 264.388C229.199 291.316 251.265 294.377 251.265 261.65M199.258 235.158C246.33 266.666 272.902 274.258 272.902 237.436M218.998 206.687C277.078 249.204 298.716 241.991 294.54 215.039" stroke="#242526" stroke-width="6" stroke-linecap="round"/>
<path id="Vector 53" d="M29.5728 187.327L49.6921 213.52" stroke="#242526" stroke-width="6" stroke-linecap="round"/>
<path id="Vector 56" d="M153.42 248.463C165.129 231.911 140.655 210.815 125.155 227.226C110.828 244.786 104.184 251.359 96.8901 271.149C89.596 290.939 106.92 302.523 120.596 287.56C134.341 273.366 141.711 265.016 153.42 248.463Z" stroke="#242526" stroke-width="6" stroke-linecap="round"/>
<path id="Vector 55" d="M96.967 207.486C81.5191 223.282 78.0671 230.961 68.3429 247.442C55.6412 271.159 77.4304 280.894 90.1517 269.279C102.873 257.663 110.459 246.182 121.502 229.787C137.859 202.375 112.415 191.689 96.967 207.486Z" stroke="#242526" stroke-width="6" stroke-linecap="round"/>
<path id="Vector 57" d="M147.831 257.321C137.284 267.912 132.395 275.635 124.908 291.55C119.492 306.661 137.412 320.228 147.831 307.739C158.251 295.25 161.351 290.757 168.254 276.748C174.923 258.709 160.034 248.231 147.831 257.321Z" stroke="#242526" stroke-width="6" stroke-linecap="round"/>
<path id="Vector 54" d="M64.4999 201.097C53.4326 209.466 47.7803 215.657 39.5859 231.868C33.5274 247.271 50.1263 264.081 64.4999 248.215C78.8736 232.349 77.1627 231.434 83.6645 222.252C100.913 201.097 80.921 191.099 64.4999 201.097Z" stroke="#242526" stroke-width="6" stroke-linecap="round"/>
</g>
<path id="Vector_2" d="M351.102 176.698C335.158 191.123 328.131 196.634 318.456 175.939L267.208 91.286C264.63 85.8633 266.606 82.7917 276.699 77.2405L353 31.6873M3 32.0669L81.5792 78.3793C89.551 83.3142 90.6898 85.2123 84.2364 95.4617L31.0911 183.152C26.5358 190.744 21.2213 190.364 15.5271 185.809L3 176.698" stroke="url(#paint1_linear_17_202)" stroke-width="6" stroke-linecap="round"/>
</g>
<defs>
<linearGradient id="paint0_linear_17_202" x1="259.28" y1="7.79244" x2="-8.03008" y2="190.566" gradientUnits="userSpaceOnUse">
<stop stop-color="#1B6CE7"/>
<stop offset="0.0001" stop-color="#1A6BE6"/>
<stop offset="1" stop-color="#003FA6"/>
</linearGradient>
<linearGradient id="paint1_linear_17_202" x1="303.651" y1="-56.0369" x2="-107.317" y2="224.963" gradientUnits="userSpaceOnUse">
<stop stop-color="#1B6CE7"/>
<stop offset="0.0001" stop-color="#1A6BE6"/>
<stop offset="1" stop-color="#003FA6"/>
</linearGradient>
</defs>
</svg>
