<svg width="356" height="302" viewBox="0 0 356 302" fill="none" xmlns="http://www.w3.org/2000/svg">
<g id="wallet">
<path id="Vector" d="M55.9883 212.973L53.5 206.5M338.482 265.516H199.853M179.224 265.516H161.07M145.804 265.516H120.637M283.196 190.838H265.042M73.6035 219.307C69.8915 212.15 66.7577 210.609 58.7504 213.531C58.7504 213.531 48.1648 218.478 47.1979 224.67C45.9319 232.778 53.4322 239.936 61.6385 239.936C67.8256 239.936 73.3403 235.88 78.5545 239.936C83.1399 243.503 84.6943 248.277 83.5056 253.964C82.3168 259.651 66.1752 265.03 61.6385 263.041L61.5224 262.99C57.9015 261.403 55.8519 260.504 55.0354 254.789M74.0143 261.803L77 269" stroke="url(#paint0_linear_15_55)" stroke-width="6" stroke-linecap="round"/>
<g id="Group 1">
<path id="Vector 50" d="M303.825 81.5027L293.923 46.4328C291.035 36.9434 286.496 34.8804 274.944 37.3559L189.126 60.4608" stroke="#242526" stroke-width="6" stroke-linecap="round"/>
<path id="Vector 51" d="M264.217 40.2441L246.888 8.47488C243.841 3.15313 239.874 1.04833 231.622 5.17419L71.9512 82.3279" stroke="#242526" stroke-width="6" stroke-linecap="round"/>
<path id="Vector 47" d="M3.04963 240.761C1.64083 206.267 30.4161 177.287 64.9376 177.635C99.1225 177.981 126.983 206.603 125.588 240.761C124.248 273.554 97.7557 298.605 64.9376 298.936C31.7691 299.271 4.40322 273.904 3.04963 240.761Z" stroke="#242526" stroke-width="6"/>
<path id="Vector 45" d="M43.4829 180.524C43.4829 180.524 43.483 111.209 43.4829 99.6565C43.4829 88.1041 46.371 82.7405 64.1122 82.7405C64.1122 82.7405 307.126 82.7404 321.566 82.7405C336.007 82.7405 339.308 85.6286 339.308 95.9432V153.705M339.308 228.384C339.308 228.384 339.308 271.705 339.308 282.845C339.308 293.985 331.881 298.936 318.266 298.936H67.4129" stroke="#242526" stroke-width="6"/>
<path id="Vector 46" d="M258.443 154.118H350.037C352.923 154.118 353.182 155.581 352.923 161.544V218.481C352.923 227.146 352.923 228.384 344.259 228.384H258.443C246.476 228.384 240.699 225.495 240.699 206.516C240.699 206.516 240.699 176.81 240.699 168.146C240.7 159.482 246.063 154.118 258.443 154.118Z" stroke="#242526" stroke-width="6"/>
</g>
</g>
<defs>
<linearGradient id="paint0_linear_15_55" x1="255.552" y1="122.349" x2="173.751" y2="405.749" gradientUnits="userSpaceOnUse">
<stop stop-color="#1B6CE7"/>
<stop offset="0.0001" stop-color="#1A6BE6"/>
<stop offset="1" stop-color="#003FA6"/>
</linearGradient>
</defs>
</svg>
