<svg  viewBox="0 0 722 459" fill="none" xmlns="http://www.w3.org/2000/svg">
<g clip-path="url(#clip0_36_2)">
<mask id="mask0_36_2" style="mask-type:luminance" maskUnits="userSpaceOnUse" x="0" y="0" width="722" height="459">
<path d="M722 0.5H0V458.5H722V0.5Z" fill="white"/>
</mask>
<g mask="url(#mask0_36_2)">
<mask id="mask1_36_2" style="mask-type:luminance" maskUnits="userSpaceOnUse" x="0" y="0" width="722" height="459">
<path d="M722 0.5H0V458.5H722V0.5Z" fill="white"/>
</mask>
<g mask="url(#mask1_36_2)">
<g filter="url(#filter0_i_36_2)">
<path d="M697 0.5H25C11.1929 0.5 0 11.6929 0 25.5V433.5C0 447.307 11.1929 458.5 25 458.5H697C710.807 458.5 722 447.307 722 433.5V25.5C722 11.6929 710.807 0.5 697 0.5Z" fill="url(#paint0_linear_36_2)"/>
<path d="M539.424 186.096V182.424H542.688C543.504 182.424 544.24 182.304 544.896 182.064C545.552 181.808 546.112 181.456 546.576 181.008C547.04 180.544 547.392 179.992 547.632 179.352C547.872 178.696 547.992 177.976 547.992 177.192C547.992 176.376 547.872 175.648 547.632 175.008C547.392 174.368 547.04 173.824 546.576 173.376C546.112 172.928 545.552 172.592 544.896 172.368C544.24 172.128 543.504 172.008 542.688 172.008H539.424V168.336H542.472C544.056 168.336 545.44 168.568 546.624 169.032C547.808 169.496 548.8 170.128 549.6 170.928C550.4 171.728 550.992 172.648 551.376 173.688C551.776 174.712 551.976 175.792 551.976 176.928V177.456C551.976 178.512 551.776 179.56 551.376 180.6C550.992 181.624 550.4 182.552 549.6 183.384C548.8 184.2 547.808 184.856 546.624 185.352C545.44 185.848 544.056 186.096 542.472 186.096H539.424ZM535.968 186.096V168.336H539.904V186.096H535.968ZM554.718 186V168.48H558.558V186H554.718ZM558.078 186V182.736H565.734V186H558.078ZM558.078 178.728V175.464H565.182V178.728H558.078ZM558.078 171.744V168.48H565.566V171.744H558.078ZM572.328 186.12V183.048H576.432C577.168 183.048 577.72 182.856 578.088 182.472C578.456 182.088 578.64 181.544 578.64 180.84C578.64 180.136 578.456 179.6 578.088 179.232C577.72 178.848 577.168 178.656 576.432 178.656H572.328V176.28H576.24C577.456 176.28 578.536 176.432 579.48 176.736C580.424 177.024 581.168 177.496 581.712 178.152C582.256 178.808 582.528 179.696 582.528 180.816V181.152C582.528 182.192 582.288 183.088 581.808 183.84C581.328 184.576 580.624 185.144 579.696 185.544C578.768 185.928 577.616 186.12 576.24 186.12H572.328ZM568.968 186.12V168.336H572.808V186.12H568.968ZM572.328 178.032V175.68H575.784C576.536 175.68 577.08 175.488 577.416 175.104C577.752 174.72 577.92 174.208 577.92 173.568C577.92 172.896 577.752 172.368 577.416 171.984C577.08 171.6 576.536 171.408 575.784 171.408H572.328V168.336H575.544C577.56 168.336 579.104 168.76 580.176 169.608C581.264 170.456 581.808 171.664 581.808 173.232V173.592C581.808 174.68 581.528 175.552 580.968 176.208C580.424 176.864 579.68 177.336 578.736 177.624C577.808 177.896 576.744 178.032 575.544 178.032H572.328ZM585.633 186V168.48H589.569V186H585.633ZM597.034 186V171.432H600.97V186H597.034ZM592.114 171.912V168.48H605.914V171.912H592.114ZM621.469 186.456C619.885 186.456 618.525 186.184 617.389 185.64C616.253 185.08 615.325 184.352 614.605 183.456C613.885 182.544 613.349 181.568 612.997 180.528C612.661 179.472 612.493 178.448 612.493 177.456V176.928C612.493 175.84 612.669 174.768 613.021 173.712C613.373 172.64 613.909 171.672 614.629 170.808C615.365 169.944 616.285 169.256 617.389 168.744C618.509 168.216 619.829 167.952 621.349 167.952C622.933 167.952 624.333 168.248 625.549 168.84C626.765 169.432 627.733 170.256 628.453 171.312C629.189 172.352 629.621 173.576 629.749 174.984H625.789C625.677 174.28 625.421 173.68 625.021 173.184C624.621 172.688 624.101 172.304 623.461 172.032C622.837 171.76 622.133 171.624 621.349 171.624C620.565 171.624 619.869 171.76 619.261 172.032C618.653 172.304 618.141 172.688 617.725 173.184C617.325 173.68 617.013 174.272 616.789 174.96C616.581 175.632 616.477 176.384 616.477 177.216C616.477 178.032 616.581 178.784 616.789 179.472C617.013 180.144 617.333 180.736 617.749 181.248C618.181 181.744 618.709 182.128 619.333 182.4C619.957 182.656 620.669 182.784 621.469 182.784C622.685 182.784 623.709 182.488 624.541 181.896C625.389 181.304 625.901 180.488 626.077 179.448H630.013C629.869 180.728 629.437 181.904 628.717 182.976C628.013 184.032 627.045 184.88 625.813 185.52C624.597 186.144 623.149 186.456 621.469 186.456ZM630.781 186L636.565 168.48H642.925L648.925 186H644.845L639.997 171.192L641.245 171.696H638.149L639.445 171.192L634.717 186H630.781ZM635.173 181.656L636.373 178.392H643.237L644.461 181.656H635.173ZM651.21 186V168.336H655.146V186H651.21ZM661.842 186L656.706 178.464H661.026L666.402 186H661.842ZM654.09 180.384V177.288H658.41C658.986 177.288 659.482 177.176 659.898 176.952C660.33 176.712 660.658 176.384 660.882 175.968C661.122 175.536 661.242 175.04 661.242 174.48C661.242 173.92 661.122 173.432 660.882 173.016C660.658 172.584 660.33 172.256 659.898 172.032C659.482 171.792 658.986 171.672 658.41 171.672H654.09V168.336H658.098C659.554 168.336 660.818 168.56 661.89 169.008C662.962 169.44 663.786 170.088 664.362 170.952C664.938 171.816 665.226 172.904 665.226 174.216V174.6C665.226 175.896 664.93 176.976 664.338 177.84C663.762 178.688 662.938 179.328 661.866 179.76C660.81 180.176 659.554 180.384 658.098 180.384H654.09ZM672.197 186.096V182.424H675.461C676.277 182.424 677.013 182.304 677.669 182.064C678.325 181.808 678.885 181.456 679.349 181.008C679.813 180.544 680.165 179.992 680.405 179.352C680.645 178.696 680.765 177.976 680.765 177.192C680.765 176.376 680.645 175.648 680.405 175.008C680.165 174.368 679.813 173.824 679.349 173.376C678.885 172.928 678.325 172.592 677.669 172.368C677.013 172.128 676.277 172.008 675.461 172.008H672.197V168.336H675.245C676.829 168.336 678.213 168.568 679.397 169.032C680.581 169.496 681.573 170.128 682.373 170.928C683.173 171.728 683.765 172.648 684.149 173.688C684.549 174.712 684.749 175.792 684.749 176.928V177.456C684.749 178.512 684.549 179.56 684.149 180.6C683.765 181.624 683.173 182.552 682.373 183.384C681.573 184.2 680.581 184.856 679.397 185.352C678.213 185.848 676.829 186.096 675.245 186.096H672.197ZM668.741 186.096V168.336H672.677V186.096H668.741Z" fill="#F1F7FF"/>
</g>
<path d="M581.889 132.748C607.156 132.748 627.64 112.264 627.64 86.9976C627.64 61.7303 607.156 41.2471 581.889 41.2471C556.622 41.2471 536.139 61.7303 536.139 86.9976C536.139 112.264 556.622 132.748 581.889 132.748Z" fill="#E71924"/>
<path d="M637.647 132.748C662.914 132.748 683.398 112.264 683.398 86.9976C683.398 61.7303 662.914 41.2471 637.647 41.2471C612.38 41.2471 591.896 61.7303 591.896 86.9976C591.896 112.264 612.38 132.748 637.647 132.748Z" fill="#F99F19"/>
<path fill-rule="evenodd" clip-rule="evenodd" d="M609.768 123.095C620.636 114.73 627.64 101.592 627.64 86.8176C627.64 72.0431 620.636 58.9044 609.768 50.54C598.9 58.9044 591.897 72.0431 591.897 86.8176C591.897 101.592 598.9 114.73 609.768 123.095Z" fill="#F26520"/>
<path d="M172.279 156.695H86.4971C83.1413 156.695 80.4209 159.415 80.4209 162.771V219.959C80.4209 223.315 83.1413 226.036 86.4971 226.036H172.279C175.635 226.036 178.356 223.315 178.356 219.959V162.771C178.356 159.415 175.635 156.695 172.279 156.695Z" fill="url(#paint1_linear_36_2)" stroke="#211F21" stroke-width="2.14455"/>
<path d="M80.7783 179.213H110.087" stroke="#211F21" stroke-width="2" stroke-linecap="round"/>
<path d="M80.7783 201.373H109.445" stroke="#211F21" stroke-width="2" stroke-linecap="round"/>
<path d="M149.404 201.373H177.998" stroke="#211F21" stroke-width="2" stroke-linecap="round"/>
<path d="M148.975 179.928H177.998" stroke="#211F21" stroke-width="2" stroke-linecap="round"/>
<path d="M129.388 169.206C130.573 169.206 131.533 168.245 131.533 167.061C131.533 165.877 130.573 164.917 129.388 164.917C128.204 164.917 127.244 165.877 127.244 167.061C127.244 168.245 128.204 169.206 129.388 169.206Z" fill="#211F21"/>
<path d="M231.053 206.324C236.325 193.09 236.926 185.619 231.053 172.145C230.43 170.715 231.053 169.524 231.768 169.286C232.483 169.047 233.589 169.286 234.27 170.715C241.188 185.23 240.767 193.37 234.627 207.887C233.912 209.317 232.575 209.498 231.768 208.96C230.824 208.331 230.608 207.441 231.053 206.324Z" fill="#F1F7FF"/>
<path d="M223.547 173.217C222.832 173.575 222.375 174.93 223.19 176.434C227.999 186.44 227.801 192.162 223.19 202.526C222.686 203.571 222.998 204.726 223.905 205.028C224.977 205.386 225.913 204.625 226.406 203.598C231.701 192.584 231.84 186.256 226.406 174.647C225.905 173.575 224.619 172.681 223.547 173.217Z" fill="#F1F7FF"/>
<path d="M216.399 177.864C215.326 178.221 215.136 179.408 215.684 180.723C218.53 187.563 218.979 191.398 215.684 198.237C215.041 199.429 214.83 200.693 216.041 201.096C217.252 201.5 218.126 200.863 218.543 200.024C222.766 191.649 221.82 186.954 218.543 178.579C218.263 177.864 217.471 177.506 216.399 177.864Z" fill="#F1F7FF"/>
<path d="M208.893 180.723C207.82 181.438 207.668 182.522 208.535 184.297C210.344 188.064 210.303 190.18 208.535 193.948C207.713 195.61 207.463 197.522 208.893 197.88C210.322 198.237 210.957 197.729 211.752 195.735C213.578 190.487 213.756 187.52 211.752 182.153C211.291 180.761 210.322 180.008 208.893 180.723Z" fill="#F1F7FF"/>
<path d="M145.115 171.349C142.372 162.008 137.251 157.41 129.03 157.41C119.023 157.41 116.194 165.03 110.087 178.855C113.998 188.007 114.039 192.937 110.087 201.373C116.494 219.754 121.24 225.415 129.388 225.321C140.111 225.321 143.163 216.233 149.046 201.373C145.952 192.997 145.622 188.375 148.5 180" stroke="#211F21" stroke-width="2" stroke-linecap="round"/>
<path d="M136.762 387.753V339.585C136.762 334.367 139.143 333.163 142.315 333.163C142.315 333.163 158.578 333.163 161.754 333.163C164.929 333.163 168.497 333.564 168.497 337.979C168.497 342.395 168.497 341.19 168.497 343.599C168.497 346.008 166.912 348.416 162.944 348.416C158.975 348.416 153.82 348.416 153.82 348.416C153.82 348.416 153.82 328.21 153.82 324.733C153.82 321.257 155.069 319.114 160.167 319.114C165.264 319.114 163.34 319.114 170.084 319.114C176.828 319.114 185.159 322.1 185.159 329.951C185.159 337.803 185.159 344.803 185.159 344.803C184.365 349.62 182.243 351.55 178.018 353.233C185.954 354.838 189.126 357.648 189.126 362.465C189.126 362.465 189.127 365.274 189.127 377.316C189.127 389.359 177.621 390.964 173.258 390.964C168.894 390.964 170.481 390.964 170.481 390.964C163.34 390.964 139.937 390.964 139.937 390.964C138.35 390.964 136.762 389.359 136.762 387.753ZM154.216 376.514V360.859C154.216 360.859 163.339 360.859 166.911 360.859C170.482 360.859 172.464 363.268 172.464 366.077C172.464 368.887 172.464 372.098 172.464 372.098C172.464 375.711 169.689 377.316 165.721 377.316H154.216V376.514Z" stroke="#F1F7FF" stroke-width="2.4356"/>
<path d="M224.968 362.66V345.14H230.392L234.4 354.98H234.856L238.816 345.14H244.336V362.66H240.448V347.708L241 347.756L236.368 359.108H232.624L227.968 347.756L228.568 347.708V362.66H224.968ZM246.609 362.66L252.393 345.14H258.753L264.753 362.66H260.673L255.825 347.852L257.073 348.356H253.977L255.273 347.852L250.545 362.66H246.609ZM251.001 358.316L252.201 355.052H259.065L260.289 358.316H251.001ZM267.038 362.66V344.996H270.974V362.66H267.038ZM277.67 362.66L272.534 355.124H276.854L282.23 362.66H277.67ZM269.918 357.044V353.948H274.238C274.814 353.948 275.31 353.836 275.726 353.612C276.158 353.372 276.486 353.044 276.71 352.628C276.95 352.196 277.07 351.7 277.07 351.14C277.07 350.58 276.95 350.092 276.71 349.676C276.486 349.244 276.158 348.916 275.726 348.692C275.31 348.452 274.814 348.332 274.238 348.332H269.918V344.996H273.926C275.382 344.996 276.646 345.22 277.718 345.668C278.79 346.1 279.614 346.748 280.19 347.612C280.766 348.476 281.054 349.564 281.054 350.876V351.26C281.054 352.556 280.758 353.636 280.166 354.5C279.59 355.348 278.766 355.988 277.694 356.42C276.638 356.836 275.382 357.044 273.926 357.044H269.918ZM292.399 363.116C290.815 363.116 289.455 362.844 288.319 362.3C287.183 361.74 286.255 361.012 285.535 360.116C284.815 359.204 284.279 358.228 283.927 357.188C283.591 356.132 283.423 355.108 283.423 354.116V353.588C283.423 352.5 283.599 351.428 283.951 350.372C284.303 349.3 284.839 348.332 285.559 347.468C286.295 346.604 287.215 345.916 288.319 345.404C289.439 344.876 290.759 344.612 292.279 344.612C293.863 344.612 295.263 344.908 296.479 345.5C297.695 346.092 298.663 346.916 299.383 347.972C300.119 349.012 300.551 350.236 300.679 351.644H296.719C296.607 350.94 296.351 350.34 295.951 349.844C295.551 349.348 295.031 348.964 294.391 348.692C293.767 348.42 293.063 348.284 292.279 348.284C291.495 348.284 290.799 348.42 290.191 348.692C289.583 348.964 289.071 349.348 288.655 349.844C288.255 350.34 287.943 350.932 287.719 351.62C287.511 352.292 287.407 353.044 287.407 353.876C287.407 354.692 287.511 355.444 287.719 356.132C287.943 356.804 288.263 357.396 288.679 357.908C289.111 358.404 289.639 358.788 290.263 359.06C290.887 359.316 291.599 359.444 292.399 359.444C293.615 359.444 294.639 359.148 295.471 358.556C296.319 357.964 296.831 357.148 297.007 356.108H300.943C300.799 357.388 300.367 358.564 299.647 359.636C298.943 360.692 297.975 361.54 296.743 362.18C295.527 362.804 294.079 363.116 292.399 363.116ZM311.954 363.116C310.37 363.116 308.986 362.844 307.802 362.3C306.634 361.74 305.666 361.012 304.898 360.116C304.13 359.204 303.554 358.22 303.17 357.164C302.802 356.108 302.618 355.092 302.618 354.116V353.588C302.618 352.5 302.81 351.428 303.194 350.372C303.594 349.3 304.186 348.332 304.97 347.468C305.754 346.604 306.73 345.916 307.898 345.404C309.066 344.876 310.418 344.612 311.954 344.612C313.49 344.612 314.842 344.876 316.01 345.404C317.178 345.916 318.154 346.604 318.938 347.468C319.722 348.332 320.314 349.3 320.714 350.372C321.114 351.428 321.314 352.5 321.314 353.588V354.116C321.314 355.092 321.122 356.108 320.738 357.164C320.354 358.22 319.778 359.204 319.01 360.116C318.242 361.012 317.266 361.74 316.082 362.3C314.914 362.844 313.538 363.116 311.954 363.116ZM311.954 359.444C312.786 359.444 313.53 359.3 314.186 359.012C314.858 358.724 315.426 358.324 315.89 357.812C316.37 357.3 316.73 356.708 316.97 356.036C317.21 355.364 317.33 354.644 317.33 353.876C317.33 353.06 317.202 352.316 316.946 351.644C316.706 350.956 316.346 350.364 315.866 349.868C315.402 349.356 314.842 348.964 314.186 348.692C313.53 348.42 312.786 348.284 311.954 348.284C311.122 348.284 310.378 348.42 309.722 348.692C309.066 348.964 308.498 349.356 308.018 349.868C307.554 350.364 307.202 350.956 306.962 351.644C306.722 352.316 306.602 353.06 306.602 353.876C306.602 354.644 306.722 355.364 306.962 356.036C307.202 356.708 307.554 357.3 308.018 357.812C308.498 358.324 309.066 358.724 309.722 359.012C310.378 359.3 311.122 359.444 311.954 359.444ZM330.275 363.116C328.691 363.116 327.355 362.868 326.267 362.372C325.179 361.86 324.355 361.172 323.795 360.308C323.235 359.428 322.955 358.42 322.955 357.284H326.771C326.771 357.732 326.891 358.148 327.131 358.532C327.387 358.916 327.771 359.228 328.283 359.468C328.795 359.692 329.459 359.804 330.275 359.804C331.011 359.804 331.627 359.708 332.123 359.516C332.619 359.324 332.995 359.06 333.251 358.724C333.507 358.372 333.635 357.972 333.635 357.524C333.635 356.964 333.395 356.524 332.915 356.204C332.435 355.868 331.659 355.652 330.587 355.556L329.267 355.436C327.523 355.292 326.131 354.748 325.091 353.804C324.051 352.86 323.531 351.612 323.531 350.06C323.531 348.94 323.795 347.972 324.323 347.156C324.867 346.34 325.619 345.716 326.579 345.284C327.539 344.836 328.675 344.612 329.987 344.612C331.363 344.612 332.539 344.852 333.515 345.332C334.507 345.796 335.267 346.46 335.795 347.324C336.323 348.172 336.587 349.172 336.587 350.324H332.747C332.747 349.892 332.643 349.5 332.435 349.148C332.227 348.78 331.915 348.484 331.499 348.26C331.099 348.036 330.595 347.924 329.987 347.924C329.411 347.924 328.923 348.02 328.523 348.212C328.139 348.404 327.851 348.668 327.659 349.004C327.467 349.324 327.371 349.676 327.371 350.06C327.371 350.556 327.547 350.988 327.899 351.356C328.251 351.724 328.827 351.94 329.627 352.004L330.971 352.124C332.251 352.236 333.379 352.516 334.355 352.964C335.331 353.396 336.091 353.996 336.635 354.764C337.195 355.516 337.475 356.436 337.475 357.524C337.475 358.644 337.179 359.628 336.587 360.476C336.011 361.308 335.187 361.956 334.115 362.42C333.043 362.884 331.763 363.116 330.275 363.116ZM353.266 363.116C351.682 363.116 350.322 362.844 349.186 362.3C348.05 361.74 347.122 361.012 346.402 360.116C345.682 359.204 345.146 358.228 344.794 357.188C344.458 356.132 344.29 355.108 344.29 354.116V353.588C344.29 352.5 344.466 351.428 344.818 350.372C345.17 349.3 345.706 348.332 346.426 347.468C347.162 346.604 348.082 345.916 349.186 345.404C350.306 344.876 351.626 344.612 353.146 344.612C354.73 344.612 356.13 344.908 357.346 345.5C358.562 346.092 359.53 346.916 360.25 347.972C360.986 349.012 361.418 350.236 361.546 351.644H357.586C357.474 350.94 357.218 350.34 356.818 349.844C356.418 349.348 355.898 348.964 355.258 348.692C354.634 348.42 353.93 348.284 353.146 348.284C352.362 348.284 351.666 348.42 351.058 348.692C350.45 348.964 349.938 349.348 349.522 349.844C349.122 350.34 348.81 350.932 348.586 351.62C348.378 352.292 348.274 353.044 348.274 353.876C348.274 354.692 348.378 355.444 348.586 356.132C348.81 356.804 349.13 357.396 349.546 357.908C349.978 358.404 350.506 358.788 351.13 359.06C351.754 359.316 352.466 359.444 353.266 359.444C354.482 359.444 355.506 359.148 356.338 358.556C357.186 357.964 357.698 357.148 357.874 356.108H361.81C361.666 357.388 361.234 358.564 360.514 359.636C359.81 360.692 358.842 361.54 357.61 362.18C356.394 362.804 354.946 363.116 353.266 363.116ZM362.578 362.66L368.362 345.14H374.722L380.722 362.66H376.642L371.794 347.852L373.042 348.356H369.946L371.242 347.852L366.514 362.66H362.578ZM366.97 358.316L368.17 355.052H375.034L376.258 358.316H366.97ZM383.007 362.66V344.996H386.943V362.66H383.007ZM393.639 362.66L388.503 355.124H392.823L398.199 362.66H393.639ZM385.887 357.044V353.948H390.207C390.783 353.948 391.279 353.836 391.695 353.612C392.127 353.372 392.455 353.044 392.679 352.628C392.919 352.196 393.039 351.7 393.039 351.14C393.039 350.58 392.919 350.092 392.679 349.676C392.455 349.244 392.127 348.916 391.695 348.692C391.279 348.452 390.783 348.332 390.207 348.332H385.887V344.996H389.895C391.351 344.996 392.615 345.22 393.687 345.668C394.759 346.1 395.583 346.748 396.159 347.612C396.735 348.476 397.023 349.564 397.023 350.876V351.26C397.023 352.556 396.727 353.636 396.135 354.5C395.559 355.348 394.735 355.988 393.663 356.42C392.607 356.836 391.351 357.044 389.895 357.044H385.887ZM404.051 362.66L398.723 345.14H402.779L407.003 359.924L406.091 359.468H408.539L407.579 359.924L411.491 345.14H415.427L410.459 362.66H404.051ZM415.101 362.66L420.885 345.14H427.245L433.245 362.66H429.165L424.317 347.852L425.565 348.356H422.469L423.765 347.852L419.037 362.66H415.101ZM419.493 358.316L420.693 355.052H427.557L428.781 358.316H419.493ZM435.531 362.66V345.14H439.467V362.66H435.531ZM438.987 362.66V359.204H446.331V362.66H438.987ZM460.241 362.66V345.14H464.177V362.66H460.241ZM448.913 362.66V345.14H452.849V362.66H448.913ZM452.153 355.58V352.124H460.937V355.58H452.153ZM476.509 363.116C474.925 363.116 473.541 362.844 472.357 362.3C471.189 361.74 470.221 361.012 469.453 360.116C468.685 359.204 468.109 358.22 467.725 357.164C467.357 356.108 467.173 355.092 467.173 354.116V353.588C467.173 352.5 467.365 351.428 467.749 350.372C468.149 349.3 468.741 348.332 469.525 347.468C470.309 346.604 471.285 345.916 472.453 345.404C473.621 344.876 474.973 344.612 476.509 344.612C478.045 344.612 479.397 344.876 480.565 345.404C481.733 345.916 482.709 346.604 483.493 347.468C484.277 348.332 484.869 349.3 485.269 350.372C485.669 351.428 485.869 352.5 485.869 353.588V354.116C485.869 355.092 485.677 356.108 485.293 357.164C484.909 358.22 484.333 359.204 483.565 360.116C482.797 361.012 481.821 361.74 480.637 362.3C479.469 362.844 478.093 363.116 476.509 363.116ZM476.509 359.444C477.341 359.444 478.085 359.3 478.741 359.012C479.413 358.724 479.981 358.324 480.445 357.812C480.925 357.3 481.285 356.708 481.525 356.036C481.765 355.364 481.885 354.644 481.885 353.876C481.885 353.06 481.757 352.316 481.501 351.644C481.261 350.956 480.901 350.364 480.421 349.868C479.957 349.356 479.397 348.964 478.741 348.692C478.085 348.42 477.341 348.284 476.509 348.284C475.677 348.284 474.933 348.42 474.277 348.692C473.621 348.964 473.053 349.356 472.573 349.868C472.109 350.364 471.757 350.956 471.517 351.644C471.277 352.316 471.157 353.06 471.157 353.876C471.157 354.644 471.277 355.364 471.517 356.036C471.757 356.708 472.109 357.3 472.573 357.812C473.053 358.324 473.621 358.724 474.277 359.012C474.933 359.3 475.677 359.444 476.509 359.444Z" fill="#F1F7FF"/>
<path d="M71 365.865V376.301C71 385.132 80.9934 390.35 88.1887 390.35C95.3839 390.35 98.9925 390.35 106.577 390.35C114.161 390.35 123.365 384.023 123.365 376.301V361.45C122.966 354.626 116.97 350.093 106.577 347.802C93.6853 344.961 89.6046 342.887 88.9882 338.169V324.521C89.1312 319.871 90.8202 318.734 95.7837 318.5H106.976C115.039 319.202 121.499 324.025 122.166 332.148V339.373C122.279 341.977 121.762 342.678 119.768 342.584H108.176C106.219 342.629 105.684 341.916 105.777 339.373V335.76C105.23 331.975 103.246 331.282 98.1821 331.345H78.595C74.0292 331.469 72.9117 333.114 72.9987 338.169V343.788C73.3215 351.186 77.7528 353.843 84.9908 356.633C101.478 362.176 106.577 364.661 106.577 368.273V371.886C106.577 375.097 104.178 377.104 100.581 377.104C100.581 377.104 100.581 377.104 94.1847 377.104C87.7889 377.104 88.1887 371.886 88.1887 371.886V365.865C88.1887 363.457 86.5897 362.252 84.9908 362.252H74.5976C72.1992 362.252 71 363.858 71 365.865Z" stroke="#F1F7FF" stroke-width="2.4356"/>
</g>
</g>
</g>
<defs>
<filter id="filter0_i_36_2" x="0" y="0.5" width="725" height="461" filterUnits="userSpaceOnUse" color-interpolation-filters="sRGB">
<feFlood flood-opacity="0" result="BackgroundImageFix"/>
<feBlend mode="normal" in="SourceGraphic" in2="BackgroundImageFix" result="shape"/>
<feColorMatrix in="SourceAlpha" type="matrix" values="0 0 0 0 0 0 0 0 0 0 0 0 0 0 0 0 0 0 127 0" result="hardAlpha"/>
<feOffset dx="3" dy="3"/>
<feGaussianBlur stdDeviation="3"/>
<feComposite in2="hardAlpha" operator="arithmetic" k2="-1" k3="1"/>
<feColorMatrix type="matrix" values="0 0 0 0 1 0 0 0 0 1 0 0 0 0 1 0 0 0 0.25 0"/>
<feBlend mode="normal" in2="shape" result="effect1_innerShadow_36_2"/>
</filter>
<linearGradient id="paint0_linear_36_2" x1="610.09" y1="62.33" x2="354.096" y2="527.495" gradientUnits="userSpaceOnUse">
<stop stop-color="#96BDF8"/>
<stop offset="1" stop-color="#4589F0"/>
</linearGradient>
<linearGradient id="paint1_linear_36_2" x1="171" y1="165.5" x2="87" y2="221.5" gradientUnits="userSpaceOnUse">
<stop stop-color="#F4F4F4"/>
<stop offset="1" stop-color="#D6D6D6"/>
</linearGradient>
<clipPath id="clip0_36_2">
<rect width="722" height="459" fill="white"/>
</clipPath>
</defs>
</svg>
