<svg viewBox="0 0 722 458" fill="none" xmlns="http://www.w3.org/2000/svg">
<mask id="mask0_38_8" style="mask-type:luminance" maskUnits="userSpaceOnUse" x="0" y="0" width="722" height="458">
<path d="M722 0H0V458H722V0Z" fill="white"/>
</mask>
<g mask="url(#mask0_38_8)">
<mask id="mask1_38_8" style="mask-type:luminance" maskUnits="userSpaceOnUse" x="0" y="0" width="722" height="458">
<path d="M722 0H0V458H722V0Z" fill="white"/>
</mask>
<g mask="url(#mask1_38_8)">
<g filter="url(#filter0_i_38_8)">
<path d="M697 0H25C11.1929 0 0 11.1929 0 25V433C0 446.807 11.1929 458 25 458H697C710.807 458 722 446.807 722 433V25C722 11.1929 710.807 0 697 0Z" fill="url(#paint0_linear_38_8)"/>
<path d="M534.008 186.456C532.424 186.456 531.064 186.184 529.928 185.64C528.792 185.08 527.864 184.352 527.144 183.456C526.424 182.544 525.888 181.568 525.536 180.528C525.2 179.472 525.032 178.448 525.032 177.456V176.928C525.032 175.84 525.208 174.768 525.56 173.712C525.912 172.64 526.448 171.672 527.168 170.808C527.904 169.944 528.824 169.256 529.928 168.744C531.048 168.216 532.368 167.952 533.888 167.952C535.472 167.952 536.872 168.248 538.088 168.84C539.304 169.432 540.272 170.256 540.992 171.312C541.728 172.352 542.16 173.576 542.288 174.984H538.328C538.216 174.28 537.96 173.68 537.56 173.184C537.16 172.688 536.64 172.304 536 172.032C535.376 171.76 534.672 171.624 533.888 171.624C533.104 171.624 532.408 171.76 531.8 172.032C531.192 172.304 530.68 172.688 530.264 173.184C529.864 173.68 529.552 174.272 529.328 174.96C529.12 175.632 529.016 176.384 529.016 177.216C529.016 178.032 529.12 178.784 529.328 179.472C529.552 180.144 529.872 180.736 530.288 181.248C530.72 181.744 531.248 182.128 531.872 182.4C532.496 182.656 533.208 182.784 534.008 182.784C535.224 182.784 536.248 182.488 537.08 181.896C537.928 181.304 538.44 180.488 538.616 179.448H542.552C542.408 180.728 541.976 181.904 541.256 182.976C540.552 184.032 539.584 184.88 538.352 185.52C537.136 186.144 535.688 186.456 534.008 186.456ZM545.163 186V168.336H549.099V186H545.163ZM555.795 186L550.659 178.464H554.979L560.355 186H555.795ZM548.043 180.384V177.288H552.363C552.939 177.288 553.435 177.176 553.851 176.952C554.283 176.712 554.611 176.384 554.835 175.968C555.075 175.536 555.195 175.04 555.195 174.48C555.195 173.92 555.075 173.432 554.835 173.016C554.611 172.584 554.283 172.256 553.851 172.032C553.435 171.792 552.939 171.672 552.363 171.672H548.043V168.336H552.051C553.507 168.336 554.771 168.56 555.843 169.008C556.915 169.44 557.739 170.088 558.315 170.952C558.891 171.816 559.179 172.904 559.179 174.216V174.6C559.179 175.896 558.883 176.976 558.291 177.84C557.715 178.688 556.891 179.328 555.819 179.76C554.763 180.176 553.507 180.384 552.051 180.384H548.043ZM562.695 186V168.48H566.535V186H562.695ZM566.055 186V182.736H573.711V186H566.055ZM566.055 178.728V175.464H573.159V178.728H566.055ZM566.055 171.744V168.48H573.543V171.744H566.055ZM580.401 186.096V182.424H583.665C584.481 182.424 585.217 182.304 585.873 182.064C586.529 181.808 587.089 181.456 587.553 181.008C588.017 180.544 588.369 179.992 588.609 179.352C588.849 178.696 588.969 177.976 588.969 177.192C588.969 176.376 588.849 175.648 588.609 175.008C588.369 174.368 588.017 173.824 587.553 173.376C587.089 172.928 586.529 172.592 585.873 172.368C585.217 172.128 584.481 172.008 583.665 172.008H580.401V168.336H583.449C585.033 168.336 586.417 168.568 587.601 169.032C588.785 169.496 589.777 170.128 590.577 170.928C591.377 171.728 591.969 172.648 592.353 173.688C592.753 174.712 592.953 175.792 592.953 176.928V177.456C592.953 178.512 592.753 179.56 592.353 180.6C591.969 181.624 591.377 182.552 590.577 183.384C589.777 184.2 588.785 184.856 587.601 185.352C586.417 185.848 585.033 186.096 583.449 186.096H580.401ZM576.945 186.096V168.336H580.881V186.096H576.945ZM595.743 186V168.48H599.679V186H595.743ZM607.143 186V171.432H611.079V186H607.143ZM602.223 171.912V168.48H616.023V171.912H602.223ZM631.578 186.456C629.994 186.456 628.634 186.184 627.498 185.64C626.362 185.08 625.434 184.352 624.714 183.456C623.994 182.544 623.458 181.568 623.106 180.528C622.77 179.472 622.602 178.448 622.602 177.456V176.928C622.602 175.84 622.778 174.768 623.13 173.712C623.482 172.64 624.018 171.672 624.738 170.808C625.474 169.944 626.394 169.256 627.498 168.744C628.618 168.216 629.938 167.952 631.458 167.952C633.042 167.952 634.442 168.248 635.658 168.84C636.874 169.432 637.842 170.256 638.562 171.312C639.298 172.352 639.73 173.576 639.858 174.984H635.898C635.786 174.28 635.53 173.68 635.13 173.184C634.73 172.688 634.21 172.304 633.57 172.032C632.946 171.76 632.242 171.624 631.458 171.624C630.674 171.624 629.978 171.76 629.37 172.032C628.762 172.304 628.25 172.688 627.834 173.184C627.434 173.68 627.122 174.272 626.898 174.96C626.69 175.632 626.586 176.384 626.586 177.216C626.586 178.032 626.69 178.784 626.898 179.472C627.122 180.144 627.442 180.736 627.858 181.248C628.29 181.744 628.818 182.128 629.442 182.4C630.066 182.656 630.778 182.784 631.578 182.784C632.794 182.784 633.818 182.488 634.65 181.896C635.498 181.304 636.01 180.488 636.186 179.448H640.122C639.978 180.728 639.546 181.904 638.826 182.976C638.122 184.032 637.154 184.88 635.922 185.52C634.706 186.144 633.258 186.456 631.578 186.456ZM640.89 186L646.674 168.48H653.034L659.034 186H654.954L650.106 171.192L651.354 171.696H648.258L649.554 171.192L644.826 186H640.89ZM645.282 181.656L646.482 178.392H653.346L654.57 181.656H645.282ZM661.32 186V168.336H665.256V186H661.32ZM671.952 186L666.816 178.464H671.136L676.512 186H671.952ZM664.2 180.384V177.288H668.52C669.096 177.288 669.592 177.176 670.008 176.952C670.44 176.712 670.768 176.384 670.992 175.968C671.232 175.536 671.352 175.04 671.352 174.48C671.352 173.92 671.232 173.432 670.992 173.016C670.768 172.584 670.44 172.256 670.008 172.032C669.592 171.792 669.096 171.672 668.52 171.672H664.2V168.336H668.208C669.664 168.336 670.928 168.56 672 169.008C673.072 169.44 673.896 170.088 674.472 170.952C675.048 171.816 675.336 172.904 675.336 174.216V174.6C675.336 175.896 675.04 176.976 674.448 177.84C673.872 178.688 673.048 179.328 671.976 179.76C670.92 180.176 669.664 180.384 668.208 180.384H664.2ZM682.307 186.096V182.424H685.571C686.387 182.424 687.123 182.304 687.779 182.064C688.435 181.808 688.995 181.456 689.459 181.008C689.923 180.544 690.275 179.992 690.515 179.352C690.755 178.696 690.875 177.976 690.875 177.192C690.875 176.376 690.755 175.648 690.515 175.008C690.275 174.368 689.923 173.824 689.459 173.376C688.995 172.928 688.435 172.592 687.779 172.368C687.123 172.128 686.387 172.008 685.571 172.008H682.307V168.336H685.355C686.939 168.336 688.323 168.568 689.507 169.032C690.691 169.496 691.683 170.128 692.483 170.928C693.283 171.728 693.875 172.648 694.259 173.688C694.659 174.712 694.859 175.792 694.859 176.928V177.456C694.859 178.512 694.659 179.56 694.259 180.6C693.875 181.624 693.283 182.552 692.483 183.384C691.683 184.2 690.691 184.856 689.507 185.352C688.323 185.848 686.939 186.096 685.355 186.096H682.307ZM678.851 186.096V168.336H682.787V186.096H678.851Z" fill="white"/>
</g>
<path d="M581.889 132.248C607.156 132.248 627.64 111.764 627.64 86.4976C627.64 61.2303 607.156 40.7471 581.889 40.7471C556.622 40.7471 536.139 61.2303 536.139 86.4976C536.139 111.764 556.622 132.248 581.889 132.248Z" fill="#E71924"/>
<path d="M637.647 132.248C662.914 132.248 683.398 111.764 683.398 86.4976C683.398 61.2303 662.914 40.7471 637.647 40.7471C612.38 40.7471 591.896 61.2303 591.896 86.4976C591.896 111.764 612.38 132.248 637.647 132.248Z" fill="#F99F19"/>
<path fill-rule="evenodd" clip-rule="evenodd" d="M609.768 122.595C620.636 114.23 627.64 101.092 627.64 86.3176C627.64 71.5431 620.636 58.4044 609.768 50.04C598.9 58.4044 591.897 71.5431 591.897 86.3176C591.897 101.092 598.9 114.23 609.768 122.595Z" fill="#F26520"/>
<path d="M172.279 156.195H86.4971C83.1413 156.195 80.4209 158.915 80.4209 162.271V219.459C80.4209 222.815 83.1413 225.536 86.4971 225.536H172.279C175.635 225.536 178.356 222.815 178.356 219.459V162.271C178.356 158.915 175.635 156.195 172.279 156.195Z" fill="url(#paint1_linear_38_8)" stroke="#211F21" stroke-width="2.14455"/>
<path d="M80.7783 178.713H110.087" stroke="#211F21" stroke-width="2" stroke-linecap="round"/>
<path d="M80.7783 200.873H109.445" stroke="#211F21" stroke-width="2" stroke-linecap="round"/>
<path d="M149.404 200.873H177.998" stroke="#211F21" stroke-width="2" stroke-linecap="round"/>
<path d="M148.975 179.428H177.998" stroke="#211F21" stroke-width="2" stroke-linecap="round"/>
<path d="M129.388 168.706C130.573 168.706 131.533 167.745 131.533 166.561C131.533 165.377 130.573 164.417 129.388 164.417C128.204 164.417 127.244 165.377 127.244 166.561C127.244 167.745 128.204 168.706 129.388 168.706Z" fill="#211F21"/>
<path d="M231.053 205.824C236.325 192.59 236.926 185.119 231.053 171.645C230.43 170.215 231.053 169.024 231.768 168.786C232.483 168.547 233.589 168.786 234.27 170.215C241.188 184.73 240.767 192.87 234.627 207.387C233.912 208.817 232.575 208.998 231.768 208.46C230.824 207.831 230.608 206.941 231.053 205.824Z" fill="#F1F7FF"/>
<path d="M223.547 172.717C222.832 173.075 222.375 174.43 223.19 175.934C227.999 185.94 227.801 191.662 223.19 202.026C222.686 203.071 222.998 204.226 223.905 204.528C224.977 204.886 225.913 204.125 226.406 203.098C231.701 192.084 231.84 185.756 226.406 174.147C225.905 173.075 224.619 172.181 223.547 172.717Z" fill="#F1F7FF"/>
<path d="M216.399 177.364C215.326 177.721 215.136 178.908 215.684 180.223C218.53 187.063 218.979 190.898 215.684 197.737C215.041 198.929 214.83 200.193 216.041 200.596C217.252 201 218.126 200.363 218.543 199.524C222.766 191.149 221.82 186.454 218.543 178.079C218.263 177.364 217.471 177.006 216.399 177.364Z" fill="#F1F7FF"/>
<path d="M208.893 180.223C207.82 180.938 207.668 182.022 208.535 183.797C210.344 187.564 210.303 189.68 208.535 193.448C207.713 195.11 207.463 197.022 208.893 197.38C210.322 197.737 210.957 197.229 211.752 195.235C213.578 189.987 213.756 187.02 211.752 181.653C211.291 180.261 210.322 179.508 208.893 180.223Z" fill="#F1F7FF"/>
<path d="M145.115 170.849C142.372 161.508 137.251 156.91 129.03 156.91C119.023 156.91 116.194 164.53 110.087 178.355C113.998 187.507 114.039 192.437 110.087 200.873C116.494 219.254 121.24 224.915 129.388 224.821C140.111 224.821 143.163 215.733 149.046 200.873C145.952 192.497 145.622 187.875 148.5 179.5" stroke="#211F21" stroke-width="2" stroke-linecap="round"/>
<path d="M136.762 387.253V339.085C136.762 333.867 139.143 332.663 142.315 332.663C142.315 332.663 158.578 332.663 161.754 332.663C164.929 332.663 168.497 333.064 168.497 337.479C168.497 341.895 168.497 340.69 168.497 343.099C168.497 345.508 166.912 347.916 162.944 347.916C158.975 347.916 153.82 347.916 153.82 347.916C153.82 347.916 153.82 327.71 153.82 324.233C153.82 320.757 155.069 318.614 160.167 318.614C165.264 318.614 163.34 318.614 170.084 318.614C176.828 318.614 185.159 321.6 185.159 329.451C185.159 337.303 185.159 344.303 185.159 344.303C184.365 349.12 182.243 351.05 178.018 352.733C185.954 354.338 189.126 357.148 189.126 361.965C189.126 361.965 189.127 364.774 189.127 376.816C189.127 388.859 177.621 390.464 173.258 390.464C168.894 390.464 170.481 390.464 170.481 390.464C163.34 390.464 139.937 390.464 139.937 390.464C138.35 390.464 136.762 388.859 136.762 387.253ZM154.216 376.014V360.359C154.216 360.359 163.339 360.359 166.911 360.359C170.482 360.359 172.464 362.768 172.464 365.577C172.464 368.387 172.464 371.598 172.464 371.598C172.464 375.211 169.689 376.816 165.721 376.816H154.216V376.014Z" stroke="#F1F7FF" stroke-width="2.4356"/>
<path d="M224.968 362.16V344.64H230.392L234.4 354.48H234.856L238.816 344.64H244.336V362.16H240.448V347.208L241 347.256L236.368 358.608H232.624L227.968 347.256L228.568 347.208V362.16H224.968ZM246.609 362.16L252.393 344.64H258.753L264.753 362.16H260.673L255.825 347.352L257.073 347.856H253.977L255.273 347.352L250.545 362.16H246.609ZM251.001 357.816L252.201 354.552H259.065L260.289 357.816H251.001ZM267.038 362.16V344.496H270.974V362.16H267.038ZM277.67 362.16L272.534 354.624H276.854L282.23 362.16H277.67ZM269.918 356.544V353.448H274.238C274.814 353.448 275.31 353.336 275.726 353.112C276.158 352.872 276.486 352.544 276.71 352.128C276.95 351.696 277.07 351.2 277.07 350.64C277.07 350.08 276.95 349.592 276.71 349.176C276.486 348.744 276.158 348.416 275.726 348.192C275.31 347.952 274.814 347.832 274.238 347.832H269.918V344.496H273.926C275.382 344.496 276.646 344.72 277.718 345.168C278.79 345.6 279.614 346.248 280.19 347.112C280.766 347.976 281.054 349.064 281.054 350.376V350.76C281.054 352.056 280.758 353.136 280.166 354C279.59 354.848 278.766 355.488 277.694 355.92C276.638 356.336 275.382 356.544 273.926 356.544H269.918ZM292.399 362.616C290.815 362.616 289.455 362.344 288.319 361.8C287.183 361.24 286.255 360.512 285.535 359.616C284.815 358.704 284.279 357.728 283.927 356.688C283.591 355.632 283.423 354.608 283.423 353.616V353.088C283.423 352 283.599 350.928 283.951 349.872C284.303 348.8 284.839 347.832 285.559 346.968C286.295 346.104 287.215 345.416 288.319 344.904C289.439 344.376 290.759 344.112 292.279 344.112C293.863 344.112 295.263 344.408 296.479 345C297.695 345.592 298.663 346.416 299.383 347.472C300.119 348.512 300.551 349.736 300.679 351.144H296.719C296.607 350.44 296.351 349.84 295.951 349.344C295.551 348.848 295.031 348.464 294.391 348.192C293.767 347.92 293.063 347.784 292.279 347.784C291.495 347.784 290.799 347.92 290.191 348.192C289.583 348.464 289.071 348.848 288.655 349.344C288.255 349.84 287.943 350.432 287.719 351.12C287.511 351.792 287.407 352.544 287.407 353.376C287.407 354.192 287.511 354.944 287.719 355.632C287.943 356.304 288.263 356.896 288.679 357.408C289.111 357.904 289.639 358.288 290.263 358.56C290.887 358.816 291.599 358.944 292.399 358.944C293.615 358.944 294.639 358.648 295.471 358.056C296.319 357.464 296.831 356.648 297.007 355.608H300.943C300.799 356.888 300.367 358.064 299.647 359.136C298.943 360.192 297.975 361.04 296.743 361.68C295.527 362.304 294.079 362.616 292.399 362.616ZM311.954 362.616C310.37 362.616 308.986 362.344 307.802 361.8C306.634 361.24 305.666 360.512 304.898 359.616C304.13 358.704 303.554 357.72 303.17 356.664C302.802 355.608 302.618 354.592 302.618 353.616V353.088C302.618 352 302.81 350.928 303.194 349.872C303.594 348.8 304.186 347.832 304.97 346.968C305.754 346.104 306.73 345.416 307.898 344.904C309.066 344.376 310.418 344.112 311.954 344.112C313.49 344.112 314.842 344.376 316.01 344.904C317.178 345.416 318.154 346.104 318.938 346.968C319.722 347.832 320.314 348.8 320.714 349.872C321.114 350.928 321.314 352 321.314 353.088V353.616C321.314 354.592 321.122 355.608 320.738 356.664C320.354 357.72 319.778 358.704 319.01 359.616C318.242 360.512 317.266 361.24 316.082 361.8C314.914 362.344 313.538 362.616 311.954 362.616ZM311.954 358.944C312.786 358.944 313.53 358.8 314.186 358.512C314.858 358.224 315.426 357.824 315.89 357.312C316.37 356.8 316.73 356.208 316.97 355.536C317.21 354.864 317.33 354.144 317.33 353.376C317.33 352.56 317.202 351.816 316.946 351.144C316.706 350.456 316.346 349.864 315.866 349.368C315.402 348.856 314.842 348.464 314.186 348.192C313.53 347.92 312.786 347.784 311.954 347.784C311.122 347.784 310.378 347.92 309.722 348.192C309.066 348.464 308.498 348.856 308.018 349.368C307.554 349.864 307.202 350.456 306.962 351.144C306.722 351.816 306.602 352.56 306.602 353.376C306.602 354.144 306.722 354.864 306.962 355.536C307.202 356.208 307.554 356.8 308.018 357.312C308.498 357.824 309.066 358.224 309.722 358.512C310.378 358.8 311.122 358.944 311.954 358.944ZM330.275 362.616C328.691 362.616 327.355 362.368 326.267 361.872C325.179 361.36 324.355 360.672 323.795 359.808C323.235 358.928 322.955 357.92 322.955 356.784H326.771C326.771 357.232 326.891 357.648 327.131 358.032C327.387 358.416 327.771 358.728 328.283 358.968C328.795 359.192 329.459 359.304 330.275 359.304C331.011 359.304 331.627 359.208 332.123 359.016C332.619 358.824 332.995 358.56 333.251 358.224C333.507 357.872 333.635 357.472 333.635 357.024C333.635 356.464 333.395 356.024 332.915 355.704C332.435 355.368 331.659 355.152 330.587 355.056L329.267 354.936C327.523 354.792 326.131 354.248 325.091 353.304C324.051 352.36 323.531 351.112 323.531 349.56C323.531 348.44 323.795 347.472 324.323 346.656C324.867 345.84 325.619 345.216 326.579 344.784C327.539 344.336 328.675 344.112 329.987 344.112C331.363 344.112 332.539 344.352 333.515 344.832C334.507 345.296 335.267 345.96 335.795 346.824C336.323 347.672 336.587 348.672 336.587 349.824H332.747C332.747 349.392 332.643 349 332.435 348.648C332.227 348.28 331.915 347.984 331.499 347.76C331.099 347.536 330.595 347.424 329.987 347.424C329.411 347.424 328.923 347.52 328.523 347.712C328.139 347.904 327.851 348.168 327.659 348.504C327.467 348.824 327.371 349.176 327.371 349.56C327.371 350.056 327.547 350.488 327.899 350.856C328.251 351.224 328.827 351.44 329.627 351.504L330.971 351.624C332.251 351.736 333.379 352.016 334.355 352.464C335.331 352.896 336.091 353.496 336.635 354.264C337.195 355.016 337.475 355.936 337.475 357.024C337.475 358.144 337.179 359.128 336.587 359.976C336.011 360.808 335.187 361.456 334.115 361.92C333.043 362.384 331.763 362.616 330.275 362.616ZM353.266 362.616C351.682 362.616 350.322 362.344 349.186 361.8C348.05 361.24 347.122 360.512 346.402 359.616C345.682 358.704 345.146 357.728 344.794 356.688C344.458 355.632 344.29 354.608 344.29 353.616V353.088C344.29 352 344.466 350.928 344.818 349.872C345.17 348.8 345.706 347.832 346.426 346.968C347.162 346.104 348.082 345.416 349.186 344.904C350.306 344.376 351.626 344.112 353.146 344.112C354.73 344.112 356.13 344.408 357.346 345C358.562 345.592 359.53 346.416 360.25 347.472C360.986 348.512 361.418 349.736 361.546 351.144H357.586C357.474 350.44 357.218 349.84 356.818 349.344C356.418 348.848 355.898 348.464 355.258 348.192C354.634 347.92 353.93 347.784 353.146 347.784C352.362 347.784 351.666 347.92 351.058 348.192C350.45 348.464 349.938 348.848 349.522 349.344C349.122 349.84 348.81 350.432 348.586 351.12C348.378 351.792 348.274 352.544 348.274 353.376C348.274 354.192 348.378 354.944 348.586 355.632C348.81 356.304 349.13 356.896 349.546 357.408C349.978 357.904 350.506 358.288 351.13 358.56C351.754 358.816 352.466 358.944 353.266 358.944C354.482 358.944 355.506 358.648 356.338 358.056C357.186 357.464 357.698 356.648 357.874 355.608H361.81C361.666 356.888 361.234 358.064 360.514 359.136C359.81 360.192 358.842 361.04 357.61 361.68C356.394 362.304 354.946 362.616 353.266 362.616ZM362.578 362.16L368.362 344.64H374.722L380.722 362.16H376.642L371.794 347.352L373.042 347.856H369.946L371.242 347.352L366.514 362.16H362.578ZM366.97 357.816L368.17 354.552H375.034L376.258 357.816H366.97ZM383.007 362.16V344.496H386.943V362.16H383.007ZM393.639 362.16L388.503 354.624H392.823L398.199 362.16H393.639ZM385.887 356.544V353.448H390.207C390.783 353.448 391.279 353.336 391.695 353.112C392.127 352.872 392.455 352.544 392.679 352.128C392.919 351.696 393.039 351.2 393.039 350.64C393.039 350.08 392.919 349.592 392.679 349.176C392.455 348.744 392.127 348.416 391.695 348.192C391.279 347.952 390.783 347.832 390.207 347.832H385.887V344.496H389.895C391.351 344.496 392.615 344.72 393.687 345.168C394.759 345.6 395.583 346.248 396.159 347.112C396.735 347.976 397.023 349.064 397.023 350.376V350.76C397.023 352.056 396.727 353.136 396.135 354C395.559 354.848 394.735 355.488 393.663 355.92C392.607 356.336 391.351 356.544 389.895 356.544H385.887ZM404.051 362.16L398.723 344.64H402.779L407.003 359.424L406.091 358.968H408.539L407.579 359.424L411.491 344.64H415.427L410.459 362.16H404.051ZM415.101 362.16L420.885 344.64H427.245L433.245 362.16H429.165L424.317 347.352L425.565 347.856H422.469L423.765 347.352L419.037 362.16H415.101ZM419.493 357.816L420.693 354.552H427.557L428.781 357.816H419.493ZM435.531 362.16V344.64H439.467V362.16H435.531ZM438.987 362.16V358.704H446.331V362.16H438.987ZM460.241 362.16V344.64H464.177V362.16H460.241ZM448.913 362.16V344.64H452.849V362.16H448.913ZM452.153 355.08V351.624H460.937V355.08H452.153ZM476.509 362.616C474.925 362.616 473.541 362.344 472.357 361.8C471.189 361.24 470.221 360.512 469.453 359.616C468.685 358.704 468.109 357.72 467.725 356.664C467.357 355.608 467.173 354.592 467.173 353.616V353.088C467.173 352 467.365 350.928 467.749 349.872C468.149 348.8 468.741 347.832 469.525 346.968C470.309 346.104 471.285 345.416 472.453 344.904C473.621 344.376 474.973 344.112 476.509 344.112C478.045 344.112 479.397 344.376 480.565 344.904C481.733 345.416 482.709 346.104 483.493 346.968C484.277 347.832 484.869 348.8 485.269 349.872C485.669 350.928 485.869 352 485.869 353.088V353.616C485.869 354.592 485.677 355.608 485.293 356.664C484.909 357.72 484.333 358.704 483.565 359.616C482.797 360.512 481.821 361.24 480.637 361.8C479.469 362.344 478.093 362.616 476.509 362.616ZM476.509 358.944C477.341 358.944 478.085 358.8 478.741 358.512C479.413 358.224 479.981 357.824 480.445 357.312C480.925 356.8 481.285 356.208 481.525 355.536C481.765 354.864 481.885 354.144 481.885 353.376C481.885 352.56 481.757 351.816 481.501 351.144C481.261 350.456 480.901 349.864 480.421 349.368C479.957 348.856 479.397 348.464 478.741 348.192C478.085 347.92 477.341 347.784 476.509 347.784C475.677 347.784 474.933 347.92 474.277 348.192C473.621 348.464 473.053 348.856 472.573 349.368C472.109 349.864 471.757 350.456 471.517 351.144C471.277 351.816 471.157 352.56 471.157 353.376C471.157 354.144 471.277 354.864 471.517 355.536C471.757 356.208 472.109 356.8 472.573 357.312C473.053 357.824 473.621 358.224 474.277 358.512C474.933 358.8 475.677 358.944 476.509 358.944Z" fill="#F1F7FF"/>
<path d="M71 365.365V375.801C71 384.632 80.9934 389.85 88.1887 389.85C95.3839 389.85 98.9925 389.85 106.577 389.85C114.161 389.85 123.365 383.523 123.365 375.801V360.95C122.966 354.126 116.97 349.593 106.577 347.302C93.6853 344.461 89.6046 342.387 88.9882 337.669V324.021C89.1312 319.371 90.8202 318.234 95.7837 318H106.976C115.039 318.702 121.499 323.525 122.166 331.648V338.873C122.279 341.477 121.762 342.178 119.768 342.084H108.176C106.219 342.129 105.684 341.416 105.777 338.873V335.26C105.23 331.475 103.246 330.782 98.1821 330.845H78.595C74.0292 330.969 72.9117 332.614 72.9987 337.669V343.288C73.3215 350.686 77.7528 353.343 84.9908 356.133C101.478 361.676 106.577 364.161 106.577 367.773V371.386C106.577 374.597 104.178 376.604 100.581 376.604C100.581 376.604 100.581 376.604 94.1847 376.604C87.7889 376.604 88.1887 371.386 88.1887 371.386V365.365C88.1887 362.957 86.5897 361.752 84.9908 361.752H74.5976C72.1992 361.752 71 363.358 71 365.365Z" stroke="#F1F7FF" stroke-width="2.4356"/>
</g>
</g>
<defs>
<filter id="filter0_i_38_8" x="0" y="0" width="725" height="461" filterUnits="userSpaceOnUse" color-interpolation-filters="sRGB">
<feFlood flood-opacity="0" result="BackgroundImageFix"/>
<feBlend mode="normal" in="SourceGraphic" in2="BackgroundImageFix" result="shape"/>
<feColorMatrix in="SourceAlpha" type="matrix" values="0 0 0 0 0 0 0 0 0 0 0 0 0 0 0 0 0 0 127 0" result="hardAlpha"/>
<feOffset dx="3" dy="3"/>
<feGaussianBlur stdDeviation="3"/>
<feComposite in2="hardAlpha" operator="arithmetic" k2="-1" k3="1"/>
<feColorMatrix type="matrix" values="0 0 0 0 1 0 0 0 0 1 0 0 0 0 1 0 0 0 0.25 0"/>
<feBlend mode="normal" in2="shape" result="effect1_innerShadow_38_8"/>
</filter>
<linearGradient id="paint0_linear_38_8" x1="610.09" y1="61.83" x2="354.096" y2="526.995" gradientUnits="userSpaceOnUse">
<stop stop-color="#1B6CE7"/>
<stop offset="1" stop-color="#003FA6"/>
</linearGradient>
<linearGradient id="paint1_linear_38_8" x1="171" y1="165" x2="87" y2="221" gradientUnits="userSpaceOnUse">
<stop stop-color="#F4F4F4"/>
<stop offset="1" stop-color="#D6D6D6"/>
</linearGradient>
</defs>
</svg>
