<svg  viewBox="0 0 403 270" fill="none" xmlns="http://www.w3.org/2000/svg">
<g id="email">
<g id="Group">
<path id="Vector 74" d="M347.409 10H52.4037C22.2268 10 10 18.0645 10 46.1602V225.14C10 250.375 32.3725 260 52.4037 260H347.409C369.521 260 392.934 251.675 392.934 225.14V46.1602C392.934 22.7471 378.626 10 347.409 10Z" stroke="#626264" stroke-width="25"/>
</g>
<path id="lower-closing" d="M17 21C17 21 191.149 183 201.562 183C211.974 183 383 21 383 21" stroke="#626264" stroke-width="25" stroke-linecap="round"/>
<path id="upper-closing" d="M17 21C17 21 191.149 183 201.562 183C211.974 183 383 21 383 21" stroke="#626264" stroke-width="25" stroke-linecap="round"/>
<path id="Vector 79" d="M19 245L138 134" stroke="#626264" stroke-width="25" stroke-linecap="round"/>
<path id="Vector 80" d="M260 135L382 247" stroke="#626264" stroke-width="25" stroke-linecap="round"/>
</g>
</svg>
