<svg viewBox="0 0 1496 948" fill="none" xmlns="http://www.w3.org/2000/svg">
<g id="login-background">
<path id="Vector" d="M1442.7 0H51.7467C23.1678 0 0 23.1678 0 51.7467V896.253C0 924.832 23.1678 948 51.7467 948H1442.7C1471.28 948 1494.45 924.832 1494.45 896.253V51.7467C1494.45 23.1678 1471.28 0 1442.7 0Z" fill="url(#paint0_linear_60_718)"/>
<path id="Vector_2" d="M488.035 670.849V383.697C488.035 352.591 502.229 345.413 521.139 345.413C521.139 345.413 618.09 345.413 637.024 345.413C655.952 345.413 677.222 347.804 677.222 374.123C677.222 400.449 677.222 393.266 677.222 407.627C677.222 421.988 667.773 436.343 644.118 436.343C620.457 436.343 589.726 436.343 589.726 436.343C589.726 436.343 589.726 315.886 589.726 295.158C589.726 274.436 597.172 261.661 627.563 261.661C657.949 261.661 646.479 261.661 686.683 261.661C726.887 261.661 776.552 279.461 776.552 326.265C776.552 373.074 776.552 414.804 776.552 414.804C771.818 443.521 759.168 455.026 733.981 465.059C781.291 474.628 800.201 491.379 800.201 520.096C800.201 520.096 800.207 536.841 800.207 608.629C800.207 680.423 731.614 689.991 705.604 689.991C679.589 689.991 689.05 689.991 689.05 689.991C646.479 689.991 506.963 689.991 506.963 689.991C497.502 689.991 488.035 680.423 488.035 670.849ZM592.086 603.848V510.522C592.086 510.522 646.473 510.522 667.767 510.522C689.055 510.522 700.871 524.883 700.871 541.628C700.871 558.38 700.871 577.522 700.871 577.522C700.871 599.061 684.328 608.629 660.673 608.629H592.086V603.848Z" stroke="#F1F7FF" stroke-width="14.5197"/>
<path id="Vector_3" d="M96 544.364V606.578C96 659.224 155.575 690.331 198.47 690.331C241.364 690.331 262.876 690.331 308.091 690.331C353.302 690.331 408.172 652.612 408.172 606.578V518.045C405.793 477.364 370.048 450.34 308.091 436.683C231.237 419.746 206.91 407.382 203.236 379.256V297.894C204.088 270.173 214.157 263.395 243.747 262H310.469C358.537 266.185 397.048 294.937 401.024 343.362V386.433C401.697 401.957 398.615 406.136 386.728 405.576H317.623C305.957 405.844 302.767 401.593 303.322 386.433V364.895C300.061 342.331 288.233 338.199 258.045 338.575H141.277C114.058 339.314 107.397 349.121 107.915 379.256V412.753C109.84 456.856 136.257 472.696 179.406 489.328C277.693 522.372 308.091 537.187 308.091 558.72V580.258C308.091 599.4 293.789 611.365 272.346 611.365C272.346 611.365 272.346 611.365 234.215 611.365C196.086 611.365 198.47 580.258 198.47 580.258V544.364C198.47 530.009 188.937 522.826 179.406 522.826H117.447C103.149 522.826 96 532.4 96 544.364Z" stroke="#F1F7FF" stroke-width="14.5197"/>
<path id="Vector 66" d="M588.771 948C522.417 489.532 969.362 319.836 815 0H1444.01C1470.01 -2.78157e-05 1495 17.5 1495 48C1495 48 1495.5 878.5 1495.5 900C1495.5 921.5 1474.97 948 1444.48 948H588.771Z" fill="#F1F7FF"/>
<path id="Vector 67" d="M589.5 947.5H593.5H1401.5H1441.5" stroke="#F1F7FF"/>
</g>
<defs>
<linearGradient id="paint0_linear_60_718" x1="1262.81" y1="127.98" x2="732.932" y2="1090.81" gradientUnits="userSpaceOnUse">
<stop stop-color="#96BDF8"/>
<stop offset="1" stop-color="#4589F0"/>
</linearGradient>
</defs>
</svg>
