<svg viewBox="0 0 1575 1029" fill="none" xmlns="http://www.w3.org/2000/svg">
<g id="login-background" filter="url(#filter0_d_60_718)">
<path id="Vector" d="M1498.7 21H107.747C79.1678 21 56 44.1678 56 72.7467V917.253C56 945.832 79.1678 969 107.747 969H1498.7C1527.28 969 1550.45 945.832 1550.45 917.253V72.7467C1550.45 44.1678 1527.28 21 1498.7 21Z" fill="url(#paint0_linear_60_718)"/>
<path id="Vector_2" d="M544.035 691.849V404.697C544.035 373.591 558.229 366.413 577.139 366.413C577.139 366.413 674.09 366.413 693.024 366.413C711.952 366.413 733.222 368.804 733.222 395.123C733.222 421.449 733.222 414.266 733.222 428.627C733.222 442.988 723.773 457.343 700.118 457.343C676.457 457.343 645.726 457.343 645.726 457.343C645.726 457.343 645.726 336.886 645.726 316.158C645.726 295.436 653.172 282.661 683.563 282.661C713.949 282.661 702.479 282.661 742.683 282.661C782.887 282.661 832.552 300.461 832.552 347.265C832.552 394.074 832.552 435.804 832.552 435.804C827.818 464.521 815.168 476.026 789.981 486.059C837.291 495.628 856.201 512.379 856.201 541.096C856.201 541.096 856.207 557.841 856.207 629.629C856.207 701.423 787.614 710.991 761.604 710.991C735.589 710.991 745.05 710.991 745.05 710.991C702.479 710.991 562.963 710.991 562.963 710.991C553.502 710.991 544.035 701.423 544.035 691.849ZM648.086 624.848V531.522C648.086 531.522 702.473 531.522 723.767 531.522C745.055 531.522 756.871 545.883 756.871 562.628C756.871 579.38 756.871 598.522 756.871 598.522C756.871 620.061 740.328 629.629 716.673 629.629H648.086V624.848Z" stroke="#F1F7FF" stroke-width="14.5197"/>
<path id="Vector_3" d="M152 565.364V627.578C152 680.224 211.575 711.331 254.47 711.331C297.364 711.331 318.876 711.331 364.091 711.331C409.302 711.331 464.172 673.612 464.172 627.578V539.045C461.793 498.364 426.048 471.34 364.091 457.683C287.237 440.746 262.91 428.382 259.236 400.256V318.894C260.088 291.173 270.157 284.395 299.747 283H366.469C414.537 287.185 453.048 315.937 457.024 364.362V407.433C457.697 422.957 454.615 427.136 442.728 426.576H373.623C361.957 426.844 358.767 422.593 359.322 407.433V385.895C356.061 363.331 344.233 359.199 314.045 359.575H197.277C170.058 360.314 163.397 370.121 163.915 400.256V433.753C165.84 477.856 192.257 493.696 235.406 510.328C333.693 543.372 364.091 558.187 364.091 579.72V601.258C364.091 620.4 349.789 632.365 328.346 632.365C328.346 632.365 328.346 632.365 290.215 632.365C252.086 632.365 254.47 601.258 254.47 601.258V565.364C254.47 551.009 244.937 543.826 235.406 543.826H173.447C159.149 543.826 152 553.4 152 565.364Z" stroke="#F1F7FF" stroke-width="14.5197"/>
<path id="Vector 66" d="M644.5 968.5C578.126 510.274 1024.91 341.167 870.501 21.4995C870.501 21.4995 1474 21 1500 21C1526 21 1550 42.9768 1550 69.9483V923.547C1550 939.53 1530.96 968.5 1500.46 968.5H644.5Z" fill="#F1F7FF" stroke="#F1F7FF"/>
</g>
<defs>
<filter id="filter0_d_60_718" x="0" y="0.5" width="1574.5" height="1028.5" filterUnits="userSpaceOnUse" color-interpolation-filters="sRGB">
<feFlood flood-opacity="0" result="BackgroundImageFix"/>
<feColorMatrix in="SourceAlpha" type="matrix" values="0 0 0 0 0 0 0 0 0 0 0 0 0 0 0 0 0 0 127 0" result="hardAlpha"/>
<feOffset dx="-16" dy="20"/>
<feGaussianBlur stdDeviation="20"/>
<feComposite in2="hardAlpha" operator="out"/>
<feColorMatrix type="matrix" values="0 0 0 0 0 0 0 0 0 0 0 0 0 0 0 0 0 0 0.25 0"/>
<feBlend mode="normal" in2="BackgroundImageFix" result="effect1_dropShadow_60_718"/>
<feBlend mode="normal" in="SourceGraphic" in2="effect1_dropShadow_60_718" result="shape"/>
</filter>
<linearGradient id="paint0_linear_60_718" x1="1318.81" y1="148.98" x2="788.932" y2="1111.81" gradientUnits="userSpaceOnUse">
<stop stop-color="#96BDF8"/>
<stop offset="1" stop-color="#4589F0"/>
</linearGradient>
</defs>
</svg>
