<svg width="316" height="316" viewBox="0 0 316 316" fill="none" xmlns="http://www.w3.org/2000/svg">
<g id="login-details">
<g id="Group 8">
<circle id="dot-74" cx="4" cy="4" r="4" fill="#1A6BE6"/>
<circle id="dot-64" cx="32" cy="4" r="4" fill="#1A6BE6"/>
<circle id="dot-49" cx="60" cy="4" r="4" fill="#1A6BE6"/>
<circle id="dot-39" cx="88" cy="4" r="4" fill="#1A6BE6"/>
<circle id="dot-33" cx="116" cy="4" r="4" fill="#1A6BE6"/>
<circle id="dot-28" cx="144" cy="4" r="4" fill="#1A6BE6"/>
<circle id="dot-21" cx="172" cy="4" r="4" fill="#1A6BE6"/>
<circle id="dot-15" cx="200" cy="4" r="4" fill="#1A6BE6"/>
<circle id="dot-10" cx="228" cy="4" r="4" fill="#1A6BE6"/>
<circle id="dot-5" cx="256" cy="4" r="4" fill="#1A6BE6"/>
<circle id="dot-3" cx="284" cy="4" r="4" fill="#1A6BE6"/>
<circle id="dot-1" cx="312" cy="4" r="4" fill="#1A6BE6"/>
</g>
<g id="Group 9">
<circle id="dot-89" cx="4" cy="32" r="4" fill="#1A6BE6"/>
<circle id="dot-73" cx="32" cy="32" r="4" fill="#1A6BE6"/>
<circle id="dot-65" cx="60" cy="32" r="4" fill="#1A6BE6"/>
<circle id="dot-46" cx="88" cy="32" r="4" fill="#1A6BE6"/>
<circle id="dot-37" cx="116" cy="32" r="4" fill="#1A6BE6"/>
<circle id="dot-32" cx="144" cy="32" r="4" fill="#1A6BE6"/>
<circle id="dot-27" cx="172" cy="32" r="4" fill="#1A6BE6"/>
<circle id="dot-18" cx="200" cy="32" r="4" fill="#1A6BE6"/>
<circle id="dot-13" cx="228" cy="32" r="4" fill="#1A6BE6"/>
<circle id="dot-7" cx="256" cy="32" r="4" fill="#1A6BE6"/>
<circle id="dot-4" cx="284" cy="32" r="4" fill="#1A6BE6"/>
<circle id="dot-2" cx="312" cy="32" r="4" fill="#1A6BE6"/>
</g>
<g id="Group 10">
<circle id="dot-90" cx="4" cy="60" r="4" fill="#1A6BE6"/>
<circle id="dot-88" cx="32" cy="60" r="4" fill="#1A6BE6"/>
<circle id="dot-72" cx="60" cy="60" r="4" fill="#1A6BE6"/>
<circle id="dot-63" cx="88" cy="60" r="4" fill="#1A6BE6"/>
<circle id="dot-51" cx="116" cy="60" r="4" fill="#1A6BE6"/>
<circle id="dot-38" cx="144" cy="60" r="4" fill="#1A6BE6"/>
<circle id="dot-34" cx="172" cy="60" r="4" fill="#1A6BE6"/>
<circle id="dot-24" cx="200" cy="60" r="4" fill="#1A6BE6"/>
<circle id="dot-17" cx="228" cy="60" r="4" fill="#1A6BE6"/>
<circle id="dot-14" cx="256" cy="60" r="4" fill="#1A6BE6"/>
<circle id="dot-8" cx="284" cy="60" r="4" fill="#1A6BE6"/>
<circle id="dot-6" cx="312" cy="60" r="4" fill="#1A6BE6"/>
</g>
<g id="Group 11">
<circle id="dot-107" cx="4" cy="88" r="4" fill="#1A6BE6"/>
<circle id="dot-91" cx="32" cy="88" r="4" fill="#1A6BE6"/>
<circle id="dot-87" cx="60" cy="88" r="4" fill="#1A6BE6"/>
<circle id="dot-75" cx="88" cy="88" r="4" fill="#1A6BE6"/>
<circle id="dot-61" cx="116" cy="88" r="4" fill="#1A6BE6"/>
<circle id="dot-47" cx="144" cy="88" r="4" fill="#1A6BE6"/>
<circle id="dot-40" cx="172" cy="88" r="4" fill="#1A6BE6"/>
<circle id="dot-30" cx="200" cy="88" r="4" fill="#1A6BE6"/>
<circle id="dot-25" cx="228" cy="88" r="4" fill="#1A6BE6"/>
<circle id="dot-19" cx="256" cy="88" r="4" fill="#1A6BE6"/>
<circle id="dot-11" cx="284" cy="88" r="4" fill="#1A6BE6"/>
<circle id="dot-9" cx="312" cy="88" r="4" fill="#1A6BE6"/>
</g>
<g id="Group 12">
<circle id="dot-108" cx="4" cy="116" r="4" fill="#1A6BE6"/>
<circle id="dot-106" cx="32" cy="116" r="4" fill="#1A6BE6"/>
<circle id="dot-92" cx="60" cy="116" r="4" fill="#1A6BE6"/>
<circle id="dot-86" cx="88" cy="116" r="4" fill="#1A6BE6"/>
<circle id="dot-71" cx="116" cy="116" r="4" fill="#1A6BE6"/>
<circle id="dot-62" cx="144" cy="116" r="4" fill="#1A6BE6"/>
<circle id="dot-50" cx="172" cy="116" r="4" fill="#1A6BE6"/>
<circle id="dot-45" cx="200" cy="116" r="4" fill="#1A6BE6"/>
<circle id="dot-31" cx="228" cy="116" r="4" fill="#1A6BE6"/>
<circle id="dot-23" cx="256" cy="116" r="4" fill="#1A6BE6"/>
<circle id="dot-16" cx="284" cy="116" r="4" fill="#1A6BE6"/>
<circle id="dot-12" cx="312" cy="116" r="4" fill="#1A6BE6"/>
</g>
<g id="Group 13">
<circle id="dot-122" cx="4" cy="144" r="4" fill="#1A6BE6"/>
<circle id="dot-109" cx="32" cy="144" r="4" fill="#1A6BE6"/>
<circle id="dot-104" cx="60" cy="144" r="4" fill="#1A6BE6"/>
<circle id="dot-93" cx="88" cy="144" r="4" fill="#1A6BE6"/>
<circle id="dot-85" cx="116" cy="144" r="4" fill="#1A6BE6"/>
<circle id="dot-76" cx="144" cy="144" r="4" fill="#1A6BE6"/>
<circle id="dot-60" cx="172" cy="144" r="4" fill="#1A6BE6"/>
<circle id="dot-48" cx="200" cy="144" r="4" fill="#1A6BE6"/>
<circle id="dot-41" cx="228" cy="144" r="4" fill="#1A6BE6"/>
<circle id="dot-35" cx="256" cy="144" r="4" fill="#1A6BE6"/>
<circle id="dot-26" cx="284" cy="144" r="4" fill="#1A6BE6"/>
<circle id="dot-20" cx="312" cy="144" r="4" fill="#1A6BE6"/>
</g>
<g id="Group 14">
<circle id="dot-123" cx="4" cy="172" r="4" fill="#1A6BE6"/>
<circle id="dot-121" cx="32" cy="172" r="4" fill="#1A6BE6"/>
<circle id="dot-110" cx="60" cy="172" r="4" fill="#1A6BE6"/>
<circle id="dot-105" cx="88" cy="172" r="4" fill="#1A6BE6"/>
<circle id="dot-94" cx="116" cy="172" r="4" fill="#1A6BE6"/>
<circle id="dot-84" cx="144" cy="172" r="4" fill="#1A6BE6"/>
<circle id="dot-70" cx="172" cy="172" r="4" fill="#1A6BE6"/>
<circle id="dot-59" cx="200" cy="172" r="4" fill="#1A6BE6"/>
<circle id="dot-52" cx="228" cy="172" r="4" fill="#1A6BE6"/>
<circle id="dot-43" cx="256" cy="172" r="4" fill="#1A6BE6"/>
<circle id="dot-29" cx="284" cy="172" r="4" fill="#1A6BE6"/>
<circle id="dot-22" cx="312" cy="172" r="4" fill="#1A6BE6"/>
</g>
<g id="Group 15">
<circle id="dot-133" cx="4" cy="200" r="4" fill="#1A6BE6"/>
<circle id="dot-124" cx="32" cy="200" r="4" fill="#1A6BE6"/>
<circle id="dot-120" cx="60" cy="200" r="4" fill="#1A6BE6"/>
<circle id="dot-111" cx="88" cy="200" r="4" fill="#1A6BE6"/>
<circle id="dot-103" cx="116" cy="200" r="4" fill="#1A6BE6"/>
<circle id="dot-95" cx="144" cy="200" r="4" fill="#1A6BE6"/>
<circle id="dot-83" cx="172" cy="200" r="4" fill="#1A6BE6"/>
<circle id="dot-77" cx="200" cy="200" r="4" fill="#1A6BE6"/>
<circle id="dot-66" cx="228" cy="200" r="4" fill="#1A6BE6"/>
<circle id="dot-54" cx="256" cy="200" r="4" fill="#1A6BE6"/>
<circle id="dot-42" cx="284" cy="200" r="4" fill="#1A6BE6"/>
<circle id="dot-36" cx="312" cy="200" r="4" fill="#1A6BE6"/>
</g>
<g id="Group 16">
<circle id="dot-134" cx="4" cy="228" r="4" fill="#1A6BE6"/>
<circle id="dot-132" cx="32" cy="228" r="4" fill="#1A6BE6"/>
<circle id="dot-125" cx="60" cy="228" r="4" fill="#1A6BE6"/>
<circle id="dot-119" cx="88" cy="228" r="4" fill="#1A6BE6"/>
<circle id="dot-112" cx="116" cy="228" r="4" fill="#1A6BE6"/>
<circle id="dot-102" cx="144" cy="228" r="4" fill="#1A6BE6"/>
<circle id="dot-96" cx="172" cy="228" r="4" fill="#1A6BE6"/>
<circle id="dot-82" cx="200" cy="228" r="4" fill="#1A6BE6"/>
<circle id="dot-69" cx="228" cy="228" r="4" fill="#1A6BE6"/>
<circle id="dot-58" cx="256" cy="228" r="4" fill="#1A6BE6"/>
<circle id="dot-53" cx="284" cy="228" r="4" fill="#1A6BE6"/>
<circle id="dot-44" cx="312" cy="228" r="4" fill="#1A6BE6"/>
</g>
<g id="Group 17">
<circle id="dot-140" cx="4" cy="256" r="4" fill="#1A6BE6"/>
<circle id="dot-135" cx="32" cy="256" r="4" fill="#1A6BE6"/>
<circle id="dot-131" cx="60" cy="256" r="4" fill="#1A6BE6"/>
<circle id="dot-126" cx="88" cy="256" r="4" fill="#1A6BE6"/>
<circle id="dot-118" cx="116" cy="256" r="4" fill="#1A6BE6"/>
<circle id="dot-113" cx="144" cy="256" r="4" fill="#1A6BE6"/>
<circle id="dot-144" cx="172" cy="256" r="4" fill="#1A6BE6"/>
<circle id="dot-98" cx="200" cy="256" r="4" fill="#1A6BE6"/>
<circle id="dot-81" cx="228" cy="256" r="4" fill="#1A6BE6"/>
<circle id="dot-68" cx="256" cy="256" r="4" fill="#1A6BE6"/>
<circle id="dot-56" cx="284" cy="256" r="4" fill="#1A6BE6"/>
<circle id="dot-55" cx="312" cy="256" r="4" fill="#1A6BE6"/>
</g>
<g id="Group 18">
<circle id="dot-141" cx="4" cy="284" r="4" fill="#1A6BE6"/>
<circle id="dot-139" cx="32" cy="284" r="4" fill="#1A6BE6"/>
<circle id="dot-136" cx="60" cy="284" r="4" fill="#1A6BE6"/>
<circle id="dot-130" cx="88" cy="284" r="4" fill="#1A6BE6"/>
<circle id="dot-127" cx="116" cy="284" r="4" fill="#1A6BE6"/>
<circle id="dot-117" cx="144" cy="284" r="4" fill="#1A6BE6"/>
<circle id="dot-114" cx="172" cy="284" r="4" fill="#1A6BE6"/>
<circle id="dot-101" cx="200" cy="284" r="4" fill="#1A6BE6"/>
<circle id="dot-97" cx="228" cy="284" r="4" fill="#1A6BE6"/>
<circle id="dot-80" cx="256" cy="284" r="4" fill="#1A6BE6"/>
<circle id="dot-78" cx="284" cy="284" r="4" fill="#1A6BE6"/>
<circle id="dot-57" cx="312" cy="284" r="4" fill="#1A6BE6"/>
</g>
<g id="Group 19">
<circle id="dot-143" cx="4" cy="312" r="4" fill="#1A6BE6"/>
<circle id="dot-142" cx="32" cy="312" r="4" fill="#1A6BE6"/>
<circle id="dot-138" cx="60" cy="312" r="4" fill="#1A6BE6"/>
<circle id="dot-137" cx="88" cy="312" r="4" fill="#1A6BE6"/>
<circle id="dot-129" cx="116" cy="312" r="4" fill="#1A6BE6"/>
<circle id="dot-128" cx="144" cy="312" r="4" fill="#1A6BE6"/>
<circle id="dot-116" cx="172" cy="312" r="4" fill="#1A6BE6"/>
<circle id="dot-115" cx="200" cy="312" r="4" fill="#1A6BE6"/>
<circle id="dot-100" cx="228" cy="312" r="4" fill="#1A6BE6"/>
<circle id="dot-99" cx="256" cy="312" r="4" fill="#1A6BE6"/>
<circle id="dot-79" cx="284" cy="312" r="4" fill="#1A6BE6"/>
<circle id="dot-67" cx="312" cy="312" r="4" fill="#1A6BE6"/>
</g>
</g>
</svg>
