<svg viewBox="0 0 216 259" fill="none" xmlns="http://www.w3.org/2000/svg">
<g id="password">
<path id="Vector 70" d="M181 107.5H32.0003C11.5003 107.5 3.00019 122 3.00034 138C3.00048 154 2.99951 169.5 3.00034 199.5C3.00116 229.5 27.0003 256 61.0003 256H157C184.501 256 212.5 231 212.5 199.5V138C212.5 120 204.001 107.5 181 107.5Z" stroke="#626264" stroke-width="20"/>
<path id="Vector 71" d="M36 63.766V108H180V63.766C180 63.766 180 3.00001 109 3C35.9726 2.99999 36 63.766 36 63.766Z" stroke="#626264" stroke-width="20"/>
<path id="Vector 72" d="M128.001 161C127.718 149.944 118.046 141.448 107.001 142C96.5204 142.524 88.2696 150.51 88.0007 161C87.7245 171.77 96.2411 180.461 107.001 181C118.312 181.566 128.29 172.322 128.001 161Z" stroke="#626264" stroke-width="20"/>
<path id="Vector 73" d="M105.501 213.5C105.501 215.157 106.844 216.5 108.501 216.5C110.158 216.5 111.501 215.157 111.501 213.5H105.501ZM105.501 181V213.5H111.501V181H105.501Z" fill="#626264"/>
</g>
</svg>
