<svg  viewBox="0 0 230 273" fill="none" xmlns="http://www.w3.org/2000/svg">
<g id="password">
<path id="Vector 70" d="M188 114.5H39.0003C18.5003 114.5 10.0002 129 10.0003 145C10.0005 161 9.99951 176.5 10.0003 206.5C10.0012 236.5 34.0003 263 68.0003 263H164C191.501 263 219.5 238 219.5 206.5V145C219.5 127 211.001 114.5 188 114.5Z" stroke="#626264" stroke-width="20"/>
<path id="Vector 71" d="M43 70.766V115H187V70.766C187 70.766 187 10 116 10C42.9726 9.99999 43 70.766 43 70.766Z" stroke="#626264" stroke-width="20"/>
<path id="Vector 72" d="M135.001 168C134.718 156.944 125.046 148.448 114.001 149C103.52 149.524 95.2696 157.51 95.0007 168C94.7245 178.77 103.241 187.461 114.001 188C125.312 188.566 135.29 179.322 135.001 168Z" stroke="#626264" stroke-width="20"/>
<path id="Vector 73" d="M105.501 220.5C105.501 226.023 109.978 230.5 115.501 230.5C121.024 230.5 125.501 226.023 125.501 220.5H105.501ZM105.501 188V220.5H125.501V188H105.501Z" fill="#626264"/>
</g>
</svg>
