<svg  viewBox="0 0 277 803" fill="none" xmlns="http://www.w3.org/2000/svg">
<g id="background">
<g id="lateral">
<mask id="mask0_272_121" style="mask-type:alpha" maskUnits="userSpaceOnUse" x="87" y="30" width="190" height="771">
<path id="Vector 570" d="M227 30L209.5 126.5L87 794.5L130 800L276.5 40.0005L227 30Z" fill="#D9D9D9"/>
</mask>
<g mask="url(#mask0_272_121)">
<g id="copy">
<g id="Group">
<path id="Vector" d="M276.532 40.1152L275.175 49.6441L127.084 814.981C121.226 845.264 97.7294 861.903 72.905 855.333C72.5726 855.263 72.2492 855.184 71.9174 855.095C71.5854 855.014 71.2615 854.945 70.9298 854.856C70.6075 854.777 70.2755 854.697 69.9422 854.617C69.6187 854.538 69.2866 854.459 68.9631 854.38C68.6298 854.299 68.3073 854.23 67.9759 854.131L67.5298 854.036C85.5151 856.705 102.246 847.271 111.326 829.497C111.871 828.439 112.388 827.345 112.868 826.223C112.869 826.213 112.869 826.213 112.869 826.213C113.201 825.461 113.515 824.696 113.811 823.917C115.149 820.433 116.229 816.68 117 812.693L266.682 39.1094C266.775 38.6198 266.869 38.1216 266.944 37.6281C267.338 35.3723 267.618 33.1312 267.782 30.9058C269.957 1.55258 253.137 -24.6344 227.787 -30.385C227.293 -30.519 226.79 -30.6459 226.286 -30.7632C225.792 -30.8884 225.289 -31.0041 224.784 -31.1214C224.29 -31.2466 223.787 -31.3723 223.283 -31.4896C222.789 -31.6235 222.286 -31.7305 221.781 -31.8478C221.287 -31.9817 220.784 -32.0987 220.281 -32.2157C219.958 -32.3045 219.626 -32.3839 219.294 -32.4646L218.781 -32.5737C218.61 -32.63 218.429 -32.6684 218.248 -32.7069C217.803 -32.8606 217.367 -33.0023 216.923 -33.1458L216.856 -33.1601C216.43 -33.2897 216.003 -33.4193 215.575 -33.5305C216.012 -33.4375 216.43 -33.3387 216.868 -33.2167C217.371 -33.0997 217.865 -32.9845 218.368 -32.8488C218.872 -32.7315 219.366 -32.6266 219.87 -32.4906C220.364 -32.3754 220.849 -32.2535 221.342 -32.1286L221.37 -32.1227C221.874 -32.0054 222.367 -31.8905 222.871 -31.7545C223.376 -31.6472 223.869 -31.5223 224.373 -31.3863C224.876 -31.2793 225.37 -31.1541 225.874 -31.0281C226.377 -30.9111 226.872 -30.7959 227.376 -30.6599C227.879 -30.5429 228.373 -30.4277 228.876 -30.292C229.381 -30.1847 229.874 -30.0598 230.378 -29.9338C230.882 -29.8165 231.375 -29.6929 231.879 -29.5556C232.382 -29.4486 232.877 -29.3334 233.38 -29.1974L233.742 -29.1205C262.328 -19.2081 280.938 9.18082 276.532 40.1152Z" fill="url(#paint0_linear_272_121)"/>
<path id="Vector_2" d="M266.693 39.0025L117.005 812.691C111.518 841.04 90.5542 857.446 67.5339 854.031C67.3531 853.99 67.1723 853.949 66.9919 853.898C66.66 853.812 66.3364 853.74 66.0045 853.654C65.6824 853.572 65.3489 853.496 65.017 853.41C64.6934 853.337 64.3611 853.262 64.0393 853.17C63.7059 853.094 63.3834 853.022 63.0516 852.936C62.7197 852.852 62.396 852.778 62.0641 852.692C61.7323 852.607 61.4085 852.534 61.0767 852.448C60.7543 852.375 60.4208 852.3 60.0893 852.204C59.7669 852.131 59.4334 852.056 59.1113 851.973C59.1011 851.981 59.0914 851.978 59.0831 851.967C58.761 851.884 58.4472 851.813 58.1238 851.73C55.5306 851.112 52.9211 850.218 50.3195 848.991L-128.314 765.098L-128.653 764.943L-178.939 742.221C-202.182 731.722 -216.055 698.955 -210.246 668.908L-78.061 -14.2615L-78.0607 -14.2715L-78.0505 -14.2794L-75.2669 -29.4785C-72.0782 -46.897 -63.2117 -61.3238 -51.9418 -69.6224C-51.0355 -70.2989 -50.1012 -70.9292 -49.1598 -71.519C-48.5255 -71.9137 -47.8919 -72.2898 -47.2505 -72.644C-46.609 -72.9982 -45.9683 -73.3324 -45.3083 -73.6537C-43.0351 -74.7642 -40.6866 -75.6323 -38.303 -76.2388C-37.6224 -76.4074 -36.9324 -76.5651 -36.2435 -76.6928C-32.4614 -77.4034 -28.5866 -77.4552 -24.7192 -76.7652L210.492 -34.7266L218.26 -32.8288C218.441 -32.7879 218.622 -32.7469 218.793 -32.6981C219.296 -32.5935 219.8 -32.47 220.293 -32.3389C220.797 -32.2241 221.3 -32.1009 221.793 -31.9697C222.297 -31.855 222.801 -31.7417 223.294 -31.6105C223.798 -31.4958 224.301 -31.3725 224.794 -31.2414C225.298 -31.1266 225.801 -31.0133 226.294 -30.8822C226.797 -30.7677 227.301 -30.6442 227.794 -30.513C255.489 -24.2302 272.998 6.45051 266.693 39.0025Z" fill="url(#paint1_linear_272_121)"/>
<g id="Group_2">
<g id="Group_3">
<g id="Group_4">
<g id="Group_5">
<path id="Vector_3" d="M229.274 -17.6331C228.613 -18.2729 227.921 -18.8803 227.219 -19.451C227.921 -18.8703 228.612 -18.2629 229.274 -17.6331ZM225.69 -20.6387C226.183 -20.2825 226.655 -19.9204 227.127 -19.5297C226.905 -19.6976 226.692 -19.8737 226.469 -20.0418C226.219 -20.2445 225.959 -20.4407 225.69 -20.6387ZM219.369 -24.4125C220.759 -23.7647 222.108 -23.0278 223.402 -22.2055C223.696 -22.0223 223.979 -21.8251 224.266 -21.6307C222.481 -22.8365 220.603 -23.8809 218.634 -24.7397C218.879 -24.6336 219.124 -24.5274 219.369 -24.4125ZM217.948 -25.0378C217.807 -25.0991 217.675 -25.1487 217.542 -25.1982C217.297 -25.3031 217.053 -25.3978 216.808 -25.4915C217.427 -25.2629 218.031 -25.0024 218.634 -24.7397C218.597 -24.7565 218.56 -24.773 218.523 -24.7898C218.335 -24.8725 218.136 -24.9563 217.948 -25.0378ZM224.958 -21.1679C224.921 -21.196 224.893 -21.2119 224.856 -21.24C224.664 -21.3752 224.462 -21.4997 224.267 -21.6317C224.742 -21.3106 225.221 -20.995 225.682 -20.6517C225.449 -20.8207 225.209 -20.9926 224.958 -21.1679ZM215.277 -26.0357C215.012 -26.1158 214.737 -26.197 214.461 -26.2694C214.963 -26.1162 215.455 -25.9663 215.938 -25.797C216.231 -25.7007 216.524 -25.5944 216.808 -25.4915C216.374 -25.6679 215.94 -25.8168 215.495 -25.9668C215.419 -25.9929 215.352 -26.0084 215.277 -26.0357ZM-177.909 734.218C-177.787 734.295 -177.675 734.37 -177.564 734.434C-177.583 734.42 -177.61 734.404 -177.629 734.39C-177.722 734.33 -177.815 734.279 -177.909 734.218ZM-178.261 733.972C-178.241 733.987 -178.223 734 -178.204 734.005C-178.316 733.93 -178.428 733.856 -178.538 733.773C-178.447 733.841 -178.353 733.902 -178.261 733.972ZM-178.708 733.665C-178.651 733.697 -178.596 733.739 -178.54 733.771C-178.661 733.695 -178.782 733.609 -178.904 733.523C-178.838 733.577 -178.773 733.621 -178.708 733.665ZM-184.955 728.136C-184.945 728.138 -184.935 728.15 -184.927 728.152C-185.036 728.039 -185.137 727.929 -185.238 727.817C-185.145 727.925 -185.054 728.024 -184.955 728.136ZM-187.199 725.492C-187.063 725.659 -186.926 725.828 -186.791 725.996C-186.936 725.815 -187.081 725.636 -187.216 725.459C-187.208 725.47 -187.199 725.482 -187.199 725.492ZM-196.853 706.595C-196.77 706.868 -196.687 707.132 -196.604 707.405C-196.545 707.575 -196.487 707.754 -196.428 707.924C-196.52 707.639 -196.612 707.354 -196.703 707.058C-196.753 706.91 -196.803 706.752 -196.853 706.595ZM-199.783 691.719C-199.767 691.801 -199.763 691.891 -199.758 691.98C-199.783 691.71 -199.807 691.42 -199.823 691.142C-199.813 691.33 -199.794 691.53 -199.783 691.719ZM-199.975 688.943C-199.969 688.993 -199.97 689.032 -199.962 689.073C-199.968 689.012 -199.976 688.952 -199.973 688.894L-199.975 688.943ZM-200.022 687.923C-200.015 687.963 -200.016 687.993 -200.009 688.034C-200.03 687.696 -200.033 687.352 -200.046 687.007C-200.04 687.311 -200.036 687.617 -200.022 687.923ZM218.252 -32.7061C217.373 -33.0138 216.484 -33.2833 215.583 -33.5265C215.233 -33.6247 214.872 -33.7166 214.51 -33.7985C214.045 -33.9237 213.57 -34.021 213.094 -34.1195C212.818 -34.182 212.532 -34.2377 212.247 -34.282L212.199 -34.2934L210.484 -34.6039L-24.7266 -76.6538C-28.5952 -77.3453 -32.4688 -77.2919 -36.2512 -76.5727C-36.939 -76.4447 -37.6286 -76.2969 -38.3107 -76.1186C-40.6943 -75.5134 -43.0427 -74.6453 -45.316 -73.5336C-45.9744 -73.2219 -46.6155 -72.8777 -47.257 -72.5235C-47.8984 -72.1693 -48.532 -71.7933 -49.1663 -71.3986C-50.1077 -70.8088 -51.042 -70.1785 -51.9483 -69.502C-63.2181 -61.2047 -72.0847 -46.7791 -75.2732 -29.363L-78.0568 -14.1665L-78.0672 -14.1498L-203.552 670.553C-209.076 700.672 -196.409 733.131 -174.979 743.199L-128.654 764.953L-128.314 765.108L50.3192 849.004C53.2421 850.373 56.1721 851.359 59.0832 851.97C59.0926 851.982 59.1012 851.984 59.1113 851.976C81.2844 856.63 102.024 839.696 107.422 810.195L249.535 34.7755C255.167 4.02493 241.261 -24.6898 218.252 -32.7061ZM249.243 25.7274L249.145 27.1744C249.102 27.6646 249.059 28.1448 249.006 28.6317C248.963 29.122 248.902 29.607 248.849 30.0952C248.73 30.9892 248.609 31.8816 248.46 32.7884C248.375 33.3565 248.28 33.9324 248.175 34.5063L247.144 40.1098L107.145 804.011C105.995 810.293 104.104 816.014 101.64 821.049C101.457 821.439 101.265 821.826 101.065 822.192C100.873 822.58 100.673 822.955 100.462 823.319C100.315 823.598 100.165 823.889 99.9985 824.154C99.5367 824.97 99.0458 825.769 98.5472 826.547C98.328 826.899 98.1007 827.24 97.8737 827.57C97.553 828.045 97.233 828.502 96.8931 828.964C96.6753 829.277 96.4596 829.571 96.2238 829.869C95.9878 830.178 95.7427 830.496 95.4872 830.8C94.811 831.655 94.0988 832.483 93.3583 833.275C93.1259 833.517 92.8914 833.777 92.6504 834.015C92.3873 834.289 92.1241 834.563 91.843 834.821C91.5802 835.085 91.3088 835.347 91.0265 835.606C90.7551 835.868 90.4731 836.117 90.1829 836.355C89.9021 836.605 89.6201 836.854 89.3213 837.09C88.7604 837.57 88.1709 838.024 87.5735 838.457C86.6663 839.123 85.7418 839.756 84.7918 840.344C84.5052 840.514 84.2185 840.683 83.9323 840.844C83.2804 841.215 82.6194 841.565 81.9489 841.903C81.6633 842.043 81.3692 842.183 81.0741 842.312C80.1106 842.76 79.1206 843.152 78.1335 843.497C77.8002 843.627 77.4677 843.738 77.1269 843.836C76.463 844.059 75.7821 844.237 75.1102 844.407C74.76 844.494 74.4394 844.579 74.1 844.639C73.0119 844.882 71.9074 845.063 70.7979 845.174C70.4983 845.223 70.2082 845.246 69.9193 845.269C69.5708 845.308 69.2242 845.327 68.8679 845.344C68.5213 845.363 68.1652 845.37 67.8091 845.378C67.0206 845.395 66.2328 845.392 65.4378 845.349C65.1601 845.335 64.8827 845.311 64.5956 845.286C63.5614 845.218 62.5108 845.088 61.4523 844.906C61.0901 844.842 60.7181 844.778 60.3477 844.705C59.9672 844.638 59.5775 844.55 59.187 844.452C58.4651 844.288 57.754 844.097 57.0342 843.876L57.0061 843.87C56.8635 843.828 56.7222 843.786 56.5897 843.736C56.5229 843.712 56.4667 843.699 56.3999 843.673L56.3901 843.671C56.3526 843.653 56.3232 843.647 56.2955 843.63C56.276 843.625 56.2576 843.622 56.2384 843.607C56.4189 843.658 56.6075 843.721 56.788 843.771C56.8356 843.781 56.8832 843.792 56.9403 843.816C57.2718 843.91 57.6033 844.004 57.9356 844.08C58.0387 844.123 58.1438 844.147 58.2492 844.161L58.7439 844.272C59.0102 844.332 59.2765 844.393 59.5333 844.441C59.6948 844.468 59.8475 844.503 59.9993 844.528C60.047 844.538 60.0946 844.549 60.1523 844.553C60.2855 844.582 60.4189 844.603 60.5606 844.636C60.5887 844.642 60.618 844.649 60.6562 844.647C60.7893 844.678 60.913 844.695 61.0481 844.706C61.1718 844.724 61.3053 844.745 61.4388 844.766L61.4767 844.774C61.4868 844.766 61.4966 844.768 61.5063 844.771C61.6019 844.783 61.6975 844.795 61.8029 844.809C61.9938 844.842 62.1849 844.866 62.3765 844.881C62.7012 844.925 63.0165 844.958 63.3337 844.97C63.5829 844.987 63.8322 845.004 64.0807 845.011C64.2441 845.019 64.4162 845.029 64.5699 845.034C64.6756 845.039 64.7715 845.04 64.8675 845.043C64.9635 845.044 65.0594 845.047 65.1456 845.047C65.2131 845.052 65.2708 845.056 65.3289 845.049C65.4725 845.062 65.6165 845.065 65.7513 845.047C65.809 845.05 65.8655 845.054 65.9236 845.047C65.9618 845.047 66.0098 845.047 66.0492 845.046C66.8759 845.028 67.685 844.986 68.4865 844.913C68.5727 844.912 68.6507 844.901 68.7372 844.891C68.7852 844.892 68.8433 844.885 68.8916 844.877C69.0659 844.857 69.2389 844.837 69.4135 844.809C69.4813 844.805 69.5495 844.792 69.6162 844.787C69.9155 844.747 70.2062 844.705 70.4973 844.653C71.0499 844.553 71.593 844.441 72.1459 844.332C72.1759 844.32 72.2141 844.319 72.2425 844.315C72.8164 844.17 73.3715 844.032 73.9362 843.866C74.4721 843.713 75.009 843.532 75.5371 843.357C75.5753 843.357 75.6139 843.345 75.6539 843.326C75.6644 843.308 75.6842 843.303 75.7041 843.297C76.5743 842.985 77.4362 842.632 78.2919 842.239C78.4091 842.197 78.5165 842.153 78.6258 842.089C78.6745 842.071 78.7232 842.052 78.7636 842.023C78.8223 841.998 78.8815 841.961 78.95 841.938C79.0091 841.903 79.078 841.87 79.1383 841.834C79.5317 841.639 79.9267 841.434 80.3207 841.22C80.7159 841.005 81.1017 840.779 81.4879 840.544C83.3985 839.381 85.2323 838.023 86.9515 836.454C87.072 836.354 87.1931 836.235 87.3126 836.125C87.4338 836.006 87.5546 835.896 87.6757 835.776C88.6219 834.874 89.5332 833.914 90.4098 832.889C90.9901 832.207 91.5526 831.503 92.1073 830.777C92.3124 830.51 92.508 830.231 92.7134 829.955C92.7859 829.853 92.8581 829.763 92.9196 829.659C93.1567 829.321 93.3953 828.974 93.6327 828.626C93.7261 828.491 93.8182 828.354 93.9018 828.216C93.9959 828.061 94.0997 827.909 94.2039 827.746C94.2875 827.608 94.3812 827.463 94.4648 827.325C94.631 827.078 94.7877 826.82 94.9351 826.549C94.987 826.473 95.0295 826.384 95.0716 826.306C95.1764 826.125 95.2816 825.932 95.3864 825.751C95.5641 825.458 95.7424 825.146 95.9024 824.829C95.9233 824.794 95.9443 824.76 95.9655 824.717C96.1243 824.399 96.2941 824.086 96.4544 823.76C96.6236 823.426 96.7944 823.083 96.9652 822.739C97.1263 822.394 97.2974 822.041 97.4588 821.686C97.6198 821.34 97.7714 820.982 97.923 820.626C97.9982 820.447 98.0746 820.268 98.151 820.089C98.2359 819.913 98.3029 819.722 98.3796 819.534C98.4776 819.302 98.5658 819.067 98.6641 818.825C98.7635 818.554 98.873 818.274 98.9739 817.994C99.0941 817.689 99.2062 817.37 99.3072 817.051C99.3285 817.007 99.3496 816.963 99.3627 816.907C99.5293 816.435 99.6874 815.962 99.8361 815.477C100.03 814.855 100.223 814.223 100.398 813.586C100.408 813.578 100.408 813.578 100.409 813.568C100.583 812.941 100.748 812.303 100.913 811.666C101.045 811.138 101.166 810.616 101.288 810.076C101.324 809.928 101.36 809.769 101.388 809.619C101.525 808.974 101.662 808.32 101.781 807.661L243.646 33.6066C243.909 32.1293 244.135 30.6515 244.303 29.1816C244.734 25.4494 244.845 21.7725 244.644 18.1815C244.646 18.1328 244.648 18.0943 244.641 18.0538C244.612 17.6452 244.585 17.238 244.557 16.8297C244.532 16.5602 244.515 16.2913 244.49 16.0218C244.42 15.2912 244.349 14.5692 244.26 13.8546C244.168 13.1584 244.067 12.459 243.967 11.771C243.908 11.4151 243.847 11.0677 243.787 10.7215C243.726 10.3753 243.657 10.026 243.597 9.67983C243.582 9.57854 243.568 9.48749 243.544 9.39313C243.498 9.14822 243.443 8.9 243.387 8.65301C243.388 8.63304 243.389 8.61431 243.381 8.60249C243.332 8.41476 243.294 8.22062 243.254 8.03471C243.231 7.90289 243.199 7.76774 243.158 7.63078C243.079 7.28943 243 6.95805 242.909 6.61436C242.661 5.60822 242.382 4.61431 242.084 3.63523C241.984 3.31845 241.883 3.01138 241.793 2.70791C241.742 2.55888 241.692 2.41111 241.641 2.26182C241.583 2.07226 241.515 1.88037 241.448 1.69872C241.448 1.68874 241.438 1.67668 241.438 1.67668C241.329 1.35782 241.219 1.04892 241.099 0.737971C240.88 0.120214 240.64 -0.492939 240.39 -1.09696C240.263 -1.41972 240.123 -1.7361 239.986 -2.06094C239.846 -2.36731 239.717 -2.67034 239.578 -2.96646C239.509 -3.12963 239.44 -3.2913 239.361 -3.44657C239.221 -3.75294 239.073 -4.04989 238.925 -4.35808L238.609 -4.98736C238.513 -5.17524 238.415 -5.35439 238.319 -5.54352C238.284 -5.61998 238.249 -5.68671 238.205 -5.76525C238.072 -6.01112 237.94 -6.25674 237.808 -6.49236C237.781 -6.54703 237.745 -6.60502 237.72 -6.65943C237.481 -7.08625 237.233 -7.5139 236.984 -7.93282C236.896 -8.0899 236.798 -8.24905 236.708 -8.3964C236.647 -8.49882 236.584 -8.60151 236.512 -8.70601C236.424 -8.86309 236.325 -9.0125 236.227 -9.16292C236.084 -9.39064 235.941 -9.60987 235.789 -9.83966C235.681 -10.0109 235.565 -10.174 235.448 -10.3473C235.269 -10.613 235.08 -10.8908 234.891 -11.1498C234.783 -11.3023 234.685 -11.4415 234.577 -11.584C234.461 -11.7571 234.324 -11.9346 234.198 -12.1009C234.045 -12.312 233.891 -12.5133 233.738 -12.7044C233.593 -12.8937 233.448 -13.083 233.303 -13.2635C233.249 -13.3254 233.194 -13.396 233.14 -13.4567C232.987 -13.6477 232.832 -13.8403 232.669 -14.0335C232.496 -14.2387 232.314 -14.4573 232.132 -14.6646C232.06 -14.7491 231.977 -14.8372 231.905 -14.9217C231.732 -15.1182 231.568 -15.3014 231.394 -15.4881C231.357 -15.5261 231.32 -15.5642 231.284 -15.6007C231.065 -15.846 230.847 -16.0823 230.617 -16.3098C230.205 -16.7357 229.793 -17.1427 229.361 -17.5542C229.333 -17.5801 229.306 -17.6061 229.279 -17.632C228.618 -18.2719 227.926 -18.8792 227.223 -19.45C227.204 -19.4641 227.186 -19.478 227.168 -19.4919C227.149 -19.506 227.14 -19.5078 227.131 -19.5299C226.91 -19.6978 226.696 -19.8739 226.473 -20.0421C226.224 -20.2447 225.964 -20.4409 225.695 -20.6389C225.695 -20.6389 225.695 -20.6389 225.686 -20.651C225.454 -20.821 225.213 -20.993 224.961 -21.1672C224.924 -21.1952 224.897 -21.2112 224.859 -21.2392C224.667 -21.3744 224.466 -21.4989 224.271 -21.6309C222.486 -22.8367 220.608 -23.8811 218.639 -24.7399C218.601 -24.7567 218.565 -24.7733 218.528 -24.79C218.34 -24.8815 218.142 -24.9563 217.954 -25.0378C217.813 -25.0991 217.681 -25.1486 217.548 -25.1982C217.303 -25.3031 217.059 -25.3977 216.814 -25.4914C216.38 -25.6678 215.946 -25.8155 215.501 -25.9655C215.425 -25.9928 215.358 -26.0071 215.283 -26.0344C215.018 -26.1145 214.743 -26.1957 214.467 -26.2682C214.297 -26.317 214.136 -26.3625 213.965 -26.4114C213.661 -26.4898 213.349 -26.5712 213.045 -26.6497L213.035 -26.6517C212.333 -26.8301 211.619 -26.983 210.896 -27.1078L-25.937 -69.9855C-26.5658 -70.099 -27.1855 -70.1905 -27.7978 -70.2502L-27.8259 -70.2562C-28.1228 -70.2841 -28.4283 -70.3138 -28.7252 -70.3429C-47.5656 -71.7929 -65.8259 -53.6498 -70.4511 -28.4097L-198.928 672.628C-199.736 677.008 -200.096 681.462 -200.06 685.857C-200.061 685.886 -200.054 685.928 -200.055 685.956C-200.052 686.309 -200.051 686.663 -200.038 687.008C-200.034 687.312 -200.03 687.617 -200.015 687.923C-200.008 687.964 -200.009 687.994 -200.002 688.034C-199.996 688.32 -199.981 688.607 -199.966 688.894L-199.969 688.943C-199.962 688.993 -199.964 689.032 -199.955 689.073C-199.959 689.141 -199.952 689.201 -199.946 689.261C-199.938 689.479 -199.929 689.686 -199.909 689.907C-199.903 689.977 -199.906 690.034 -199.9 690.095C-199.901 690.123 -199.893 690.145 -199.894 690.165C-199.871 690.493 -199.849 690.821 -199.816 691.143C-199.806 691.331 -199.786 691.531 -199.777 691.72C-199.761 691.801 -199.757 691.891 -199.752 691.98C-199.72 692.302 -199.686 692.612 -199.653 692.923C-199.653 692.943 -199.654 692.962 -199.646 692.984C-199.613 693.304 -199.581 693.615 -199.538 693.929C-199.485 694.431 -199.414 694.936 -199.342 695.432C-199.313 695.624 -199.293 695.806 -199.262 695.989C-199.247 696.08 -199.233 696.172 -199.218 696.263C-199.182 696.498 -199.145 696.741 -199.108 696.973C-199.095 697.074 -199.08 697.176 -199.056 697.269C-199.005 697.603 -198.944 697.94 -198.884 698.278C-198.855 698.47 -198.817 698.666 -198.778 698.86C-198.717 699.188 -198.647 699.517 -198.585 699.834C-198.554 699.978 -198.523 700.123 -198.491 700.267C-198.452 700.453 -198.412 700.627 -198.383 700.801C-198.367 700.863 -198.35 700.926 -198.334 700.988C-198.319 701.08 -198.295 701.164 -198.279 701.255C-198.231 701.462 -198.184 701.669 -198.137 701.865C-198.074 702.144 -198 702.435 -197.928 702.716C-197.646 703.858 -197.336 704.995 -196.997 706.11C-196.948 706.278 -196.898 706.436 -196.848 706.595C-196.765 706.867 -196.682 707.132 -196.599 707.405C-196.54 707.574 -196.482 707.754 -196.423 707.924C-194.956 712.331 -193.07 716.47 -190.821 720.202C-190.67 720.462 -190.509 720.714 -190.359 720.963C-189.699 722.024 -189.018 723.04 -188.296 724.026C-188.261 724.082 -188.225 724.13 -188.188 724.177C-188.142 724.237 -188.107 724.283 -188.061 724.342C-187.97 724.461 -187.89 724.578 -187.8 724.696C-187.647 724.907 -187.483 725.11 -187.321 725.323C-187.284 725.361 -187.248 725.408 -187.212 725.456C-187.203 725.468 -187.195 725.48 -187.195 725.49C-187.059 725.657 -186.922 725.826 -186.787 725.994C-186.415 726.451 -186.043 726.897 -185.66 727.337C-185.614 727.387 -185.569 727.435 -185.523 727.496C-185.422 727.596 -185.331 727.706 -185.232 727.817C-185.141 727.925 -185.049 728.024 -184.95 728.136C-184.94 728.138 -184.93 728.15 -184.922 728.152C-184.786 728.3 -184.648 728.449 -184.512 728.597C-184.128 729.007 -183.734 729.41 -183.33 729.806C-183.258 729.88 -183.183 729.946 -183.109 730.012C-182.778 730.332 -182.448 730.642 -182.108 730.945C-182.024 731.023 -181.942 731.091 -181.858 731.167C-181.526 731.458 -181.195 731.739 -180.853 732.023C-180.761 732.093 -180.677 732.171 -180.585 732.241C-180.539 732.281 -180.492 732.311 -180.446 732.351C-179.937 732.759 -179.427 733.15 -178.899 733.524C-178.834 733.578 -178.769 733.622 -178.704 733.666C-178.647 733.698 -178.592 733.74 -178.537 733.772C-178.444 733.842 -178.35 733.902 -178.258 733.972C-178.239 733.986 -178.221 734 -178.201 734.004C-178.015 734.134 -177.82 734.257 -177.624 734.39C-177.718 734.329 -177.811 734.278 -177.905 734.218C-178.017 734.154 -178.129 734.088 -178.241 734.014L-178.26 734C-178.846 733.613 -179.414 733.219 -179.97 732.8C-183.385 730.273 -186.489 727.13 -189.225 723.514C-189.424 723.254 -189.613 722.995 -189.803 722.746C-190.289 722.068 -190.765 721.392 -191.23 720.689C-191.436 720.368 -191.641 720.047 -191.847 719.726C-192.891 718.089 -193.866 716.379 -194.761 714.609C-194.928 714.287 -195.085 713.968 -195.241 713.638C-195.723 712.666 -196.175 711.692 -196.607 710.693C-196.745 710.369 -196.882 710.034 -197.021 709.699C-197.175 709.321 -197.329 708.934 -197.484 708.546C-197.628 708.161 -197.782 707.773 -197.927 707.388C-198.029 707.13 -198.123 706.873 -198.216 706.607C-198.336 706.286 -198.453 705.955 -198.562 705.628C-199.236 703.663 -199.831 701.658 -200.357 699.619C-200.454 699.254 -200.532 698.883 -200.62 698.521C-200.902 697.39 -201.144 696.238 -201.365 695.081C-201.452 694.669 -201.527 694.251 -201.594 693.834C-202.144 690.722 -202.51 687.564 -202.692 684.369C-202.718 683.932 -202.737 683.507 -202.753 683.072C-202.829 680.881 -202.829 678.686 -202.733 676.495C-202.721 676.058 -202.7 675.612 -202.67 675.178C-202.482 672.106 -202.121 669.024 -201.56 665.969L-75.0956 -24.0852L-75.0949 -24.1051L-74.1679 -29.1444C-74.0659 -29.6699 -73.9642 -30.1854 -73.8527 -30.6988C-73.7847 -31.0944 -73.6999 -31.4776 -73.6139 -31.8593C-73.4292 -32.7081 -73.2255 -33.5339 -73.0117 -34.3677C-72.896 -34.7921 -72.7786 -35.2263 -72.662 -35.6405C-72.6034 -35.8721 -72.5342 -36.0913 -72.4744 -36.3226C-72.4035 -36.5906 -72.324 -36.8567 -72.2333 -37.1292C-72.1074 -37.5615 -71.9709 -37.9803 -71.8352 -38.4106C-71.5976 -39.15 -71.3507 -39.8773 -71.0857 -40.5908C-70.9622 -40.9545 -70.8305 -41.3064 -70.6975 -41.6592C-70.2996 -42.7243 -69.8856 -43.757 -69.4325 -44.7814C-69.292 -45.1025 -69.1415 -45.4302 -69.001 -45.7513C-68.8187 -46.1415 -68.6361 -46.5404 -68.4542 -46.9206C-68.3036 -47.2483 -68.1448 -47.5655 -67.9848 -47.8812C-67.8558 -48.1556 -67.7287 -48.4104 -67.5903 -48.6728C-67.4318 -48.9799 -67.2621 -49.2935 -67.1036 -49.6007C-66.9769 -49.8467 -66.8496 -50.0725 -66.7235 -50.2985C-66.5343 -50.6382 -66.3541 -50.9697 -66.1451 -51.3139C-65.8194 -51.8962 -65.4739 -52.4844 -65.1092 -53.0572C-64.9315 -53.3502 -64.7539 -53.6433 -64.5579 -53.9312C-64.3493 -54.2654 -64.1308 -54.5989 -63.9039 -54.9292C-62.3706 -57.2359 -60.7004 -59.3752 -58.9226 -61.352C-58.6774 -61.6395 -58.4241 -61.9152 -58.1609 -62.1888C-57.8769 -62.497 -57.5827 -62.8118 -57.2803 -63.116C-56.7854 -63.6108 -56.3005 -64.0989 -55.7981 -64.5619C-55.2548 -65.0653 -54.7119 -65.5599 -54.1599 -66.0313C-53.5993 -66.502 -53.0391 -66.9628 -52.4698 -67.4015C-52.1897 -67.6313 -51.9005 -67.8403 -51.6121 -68.0595C-51.0447 -68.4797 -50.4666 -68.8864 -49.8715 -69.2907C-49.2855 -69.6768 -48.7011 -70.0545 -48.0975 -70.4167C-47.4943 -70.7702 -46.8914 -71.1125 -46.2891 -71.4373C-45.983 -71.6024 -45.6783 -71.7591 -45.3627 -71.9134C-45.0569 -72.0697 -44.753 -72.2064 -44.4487 -72.353C-44.1334 -72.4973 -43.8194 -72.6419 -43.5057 -72.7752C-43.2018 -72.9118 -42.8869 -73.0462 -42.5637 -73.1687C-41.9468 -73.4199 -41.311 -73.6483 -40.6657 -73.8646C-40.3631 -73.9625 -40.0602 -74.0704 -39.758 -74.1584C-39.7276 -74.1809 -39.6992 -74.1849 -39.6695 -74.1874C-39.367 -74.2854 -39.0553 -74.3612 -38.7442 -74.4574C-38.4427 -74.5253 -38.1404 -74.6146 -37.8397 -74.6928C-37.4996 -74.7727 -37.1497 -74.8505 -36.8002 -74.9171C-36.4804 -74.9812 -36.1507 -75.0444 -35.83 -75.0983C-35.5004 -75.1603 -35.171 -75.2136 -34.842 -75.2568C-34.5127 -75.3101 -34.1838 -75.3521 -33.8551 -75.3854C-33.1874 -75.4686 -32.5317 -75.5267 -31.8673 -75.5516C-31.5394 -75.5649 -31.2126 -75.5797 -30.8862 -75.5833C-30.1741 -75.5979 -29.4643 -75.5842 -28.7555 -75.5404C-28.1902 -75.5108 -27.6256 -75.4612 -27.0611 -75.4117C-26.7278 -75.366 -26.3735 -75.3246 -26.0305 -75.2756C-25.6874 -75.2279 -25.3436 -75.1686 -25.0009 -75.1109L211.9 -32.6388C212.3 -32.5676 212.7 -32.4864 213.09 -32.4085L214.078 -32.1847C214.829 -32.0049 215.558 -31.8009 216.288 -31.5767L216.317 -31.5704C216.686 -31.4668 217.055 -31.3344 217.414 -31.214C217.782 -31.0916 218.151 -30.9592 218.51 -30.8289C218.868 -30.6986 219.226 -30.5496 219.584 -30.4093C219.942 -30.259 220.29 -30.112 220.648 -29.953L220.658 -29.9509C221.015 -29.7919 221.353 -29.627 221.701 -29.4701C222.029 -29.3173 222.339 -29.1584 222.649 -29.0107C222.724 -28.9746 222.799 -28.9373 222.856 -28.9051C223.146 -28.7516 223.446 -28.5948 223.735 -28.4214C224.147 -28.2005 224.549 -27.9729 224.951 -27.7253C225.22 -27.556 225.502 -27.3944 225.761 -27.2184C226.367 -26.8355 226.954 -26.4478 227.549 -26.0296C227.95 -25.762 228.338 -25.4681 228.719 -25.1773C229.007 -24.9651 229.274 -24.7384 229.561 -24.5165C229.867 -24.2804 230.162 -24.0278 230.467 -23.773C230.762 -23.5203 231.057 -23.2576 231.352 -23.0037C233.462 -21.1351 235.397 -19.0408 237.17 -16.7484C237.388 -16.4831 237.605 -16.1993 237.811 -15.9076C238.597 -14.8676 239.323 -13.8014 240.03 -12.6916C240.343 -12.2087 240.645 -11.7104 240.928 -11.205C242.136 -9.17843 243.215 -7.03351 244.164 -4.81045C244.346 -4.40707 244.509 -4.01756 244.663 -3.62015C245.007 -2.78857 245.322 -1.95297 245.618 -1.11153C245.78 -0.683332 245.922 -0.259551 246.056 0.172663C246.308 0.905589 246.541 1.65308 246.755 2.39793C246.862 2.77423 246.968 3.16151 247.075 3.53755C247.261 4.2552 247.447 4.97384 247.613 5.70606C247.702 6.05947 247.781 6.40957 247.85 6.77782C248.118 7.99444 248.346 9.22149 248.545 10.4713C248.596 10.7967 248.648 11.1208 248.69 11.4543C248.87 12.69 249.011 13.9463 249.123 15.2054C249.167 15.6851 249.202 16.1442 249.228 16.61C249.414 19.3162 249.436 22.0539 249.301 24.8239C249.283 25.1195 249.268 25.4194 249.243 25.7274Z" fill="#C7C7C7"/>
<g id="Group_6">
<path id="Vector_4" d="M247.143 40.1099L107.141 804.006C105.988 810.296 104.103 816.012 101.638 821.049C101.454 821.438 101.262 821.824 101.062 822.195C100.868 822.581 100.67 822.951 100.461 823.318C100.314 823.604 100.159 823.885 99.9985 824.152C99.5292 824.97 99.0446 825.768 98.5459 826.548C98.3232 826.896 98.0994 827.242 97.8699 827.574C97.5493 828.047 97.2304 828.508 96.8932 828.96C96.6767 829.274 96.4533 829.573 96.2215 829.867C95.9851 830.184 95.7403 830.495 95.487 830.805C94.806 831.658 94.0927 832.483 93.3584 833.274C93.1258 833.519 92.8915 833.775 92.6516 834.017C92.3858 834.295 92.1132 834.558 91.8406 834.821C91.5748 835.099 91.2937 835.358 91.0227 835.608C90.7416 835.867 90.4622 836.114 90.1839 836.362C89.9044 836.609 89.6177 836.853 89.3213 837.092C88.7482 837.567 88.1696 838.027 87.5772 838.457C86.6698 839.128 85.7431 839.755 84.7869 840.342C84.5056 840.502 84.2225 840.674 83.9311 840.841C83.2754 841.216 82.6157 841.564 81.9475 841.909C81.6621 842.043 81.3683 842.173 81.0728 842.314C80.1068 842.762 79.1242 843.153 78.1308 843.503C77.8031 843.617 77.4681 843.727 77.1318 843.838C76.4606 844.057 75.787 844.24 75.1065 844.407C74.7747 844.495 74.4357 844.579 74.0999 844.64C73.0082 844.88 71.9084 845.069 70.7966 845.18C70.502 845.224 70.2108 845.246 69.9207 845.267C69.5708 845.31 69.2254 845.329 68.8703 845.346C68.5164 845.362 68.1625 845.378 67.8103 845.382C67.0218 845.4 66.2291 845.393 65.4354 845.347C65.1515 845.336 64.8788 845.317 64.5965 845.294C63.5601 845.219 62.5059 845.09 61.4521 844.911C61.0862 844.848 60.7203 844.786 60.3488 844.709C59.9659 844.639 59.5773 844.554 59.182 844.453C58.4591 844.285 57.7419 844.093 57.0279 843.881L57.0024 843.869C56.637 843.759 56.2743 843.638 55.9117 843.517C76.6345 850.148 96.7618 835.018 101.775 807.667L243.639 33.6142C248.739 5.7823 235.547 -20.2727 214.171 -26.3534C238.027 -19.8273 252.819 9.1449 247.143 40.1099Z" fill="url(#paint2_linear_272_121)"/>
<path id="Vector_5" d="M107.137 804.007L106.109 809.612C100.176 841.989 75.1267 858.839 50.6147 847.342L-174.703 741.66C-195.506 731.902 -207.856 700.277 -202.497 671.029L-201.569 665.965C-202.129 669.023 -202.495 672.104 -202.681 675.178C-202.707 675.615 -202.726 676.056 -202.747 676.497C-202.842 678.692 -202.845 680.885 -202.761 683.074C-202.748 683.508 -202.727 683.935 -202.699 684.375C-202.523 687.562 -202.155 690.728 -201.609 693.835C-201.539 694.253 -201.462 694.671 -201.376 695.085C-201.156 696.241 -200.912 697.387 -200.634 698.525C-200.546 698.885 -200.459 699.254 -200.364 699.618C-199.844 701.662 -199.246 703.665 -198.57 705.628C-198.46 705.954 -198.342 706.284 -198.225 706.613C-198.135 706.875 -198.041 707.128 -197.941 707.383C-197.795 707.77 -197.643 708.159 -197.496 708.547C-197.344 708.936 -197.188 709.316 -197.027 709.7C-196.895 710.037 -196.755 710.367 -196.614 710.696C-196.184 711.69 -195.729 712.672 -195.255 713.642C-195.098 713.968 -194.939 714.285 -194.773 714.605C-193.872 716.38 -192.898 718.091 -191.86 719.723C-191.656 720.05 -191.45 720.367 -191.237 720.687C-190.774 721.389 -190.299 722.064 -189.815 722.741C-189.621 722.998 -189.434 723.251 -189.239 723.508C-186.496 727.133 -183.39 730.278 -179.982 732.801C-179.423 733.218 -178.852 733.617 -178.27 734L-178.249 734.01C-177.659 734.397 -177.066 734.761 -176.463 735.111C-176.156 735.287 -175.843 735.467 -175.535 735.633C-174.955 735.948 -174.365 736.246 -173.762 736.528L51.6289 841.813C52.3193 842.136 53.007 842.433 53.6978 842.708C54.0645 842.855 54.4425 842.996 54.8107 843.132C55.4039 843.349 55.9903 843.55 56.5811 843.731C56.7184 843.783 56.8573 843.824 56.9974 843.865L57.0228 843.877C57.7453 844.094 58.4625 844.285 59.177 844.449C59.5723 844.549 59.9608 844.634 60.3437 844.705C60.7153 844.782 61.0811 844.845 61.4471 844.906C62.5008 845.085 63.5538 845.216 64.5915 845.289C64.8726 845.312 65.155 845.335 65.4304 845.343C66.2253 845.389 67.0167 845.396 67.8053 845.377C68.1575 845.373 68.5114 845.356 68.8653 845.341C69.2192 845.324 69.5658 845.305 69.9157 845.262C70.2057 845.241 70.497 845.219 70.7915 845.176C71.9034 845.066 73.0031 844.877 74.0949 844.635C74.4307 844.574 74.7596 844.497 75.1015 844.402C75.782 844.235 76.4556 844.053 77.1268 843.833C77.4602 843.734 77.7964 843.624 78.1258 843.498C79.1192 843.148 80.1017 842.757 81.0678 842.31C81.3616 842.18 81.6571 842.038 81.9424 841.904C82.6106 841.56 83.2703 841.212 83.9261 840.837C84.2159 840.68 84.499 840.508 84.7819 840.337C85.7381 839.749 86.6648 839.123 87.5722 838.452C88.1646 838.022 88.7529 837.566 89.3163 837.087C89.6127 836.848 89.9006 836.605 90.1789 836.357C90.4668 836.114 90.745 835.866 91.0177 835.604C91.2988 835.345 91.5714 835.082 91.8356 834.816C92.1166 834.558 92.3808 834.291 92.6466 834.013C92.8877 833.772 93.122 833.515 93.3534 833.27C94.0876 832.479 94.8009 831.653 95.482 830.8C95.7353 830.492 95.9801 830.179 96.2165 829.862C96.4483 829.568 96.6717 829.27 96.8882 828.956C97.2241 828.503 97.5431 828.042 97.8649 827.57C98.0944 827.238 98.3267 826.894 98.5408 826.544C99.0408 825.765 99.5242 824.965 99.9935 824.147C100.155 823.881 100.309 823.599 100.456 823.313C100.665 822.946 100.863 822.576 101.057 822.191C101.255 821.82 101.449 821.434 101.633 821.044C104.099 816.011 105.984 810.295 107.137 804.007Z" fill="url(#paint3_linear_272_121)"/>
</g>
<path id="Vector_6" d="M248.17 34.505L247.144 40.1105C252.73 9.62834 238.486 -18.9255 215.275 -26.0316C214.91 -26.1429 214.537 -26.2564 214.171 -26.3568C213.795 -26.4593 213.411 -26.5623 213.034 -26.6538L213.025 -26.6556C212.316 -26.8303 211.611 -26.9801 210.884 -27.112L-25.9451 -69.9814C-26.5703 -70.0941 -27.1912 -70.1859 -27.8081 -70.2553L-27.8313 -70.259C-49.0559 -72.7441 -69.889 -52.49 -75.0951 -24.083L-74.1673 -29.146C-74.0701 -29.6725 -73.9684 -30.188 -73.8594 -30.7006C-73.7865 -31.0952 -73.7018 -31.4772 -73.617 -31.8592C-73.4312 -32.7039 -73.2334 -33.536 -73.0125 -34.3633C-72.9027 -34.7927 -72.7856 -35.2207 -72.6713 -35.6391C-72.6066 -35.8682 -72.5436 -36.0862 -72.4778 -36.315C-72.4056 -36.5839 -72.3261 -36.8513 -72.2364 -37.1278C-72.1119 -37.5542 -71.9801 -37.9802 -71.841 -38.4047C-71.6046 -39.1456 -71.3563 -39.874 -71.095 -40.5882C-70.9666 -40.9521 -70.8336 -41.3037 -70.6995 -41.655C-70.304 -42.7219 -69.8851 -43.7536 -69.4357 -44.7788C-69.2928 -45.0968 -69.1484 -45.4259 -69.0043 -45.7449C-68.8243 -46.1406 -68.6443 -46.5363 -68.4585 -46.9207C-68.3067 -47.2482 -68.1479 -47.5641 -67.9904 -47.8803C-67.8567 -48.1487 -67.7319 -48.4077 -67.5924 -48.6648C-67.4349 -48.981 -67.2688 -49.2954 -67.1055 -49.6003C-66.9765 -49.8383 -66.8578 -50.0671 -66.7243 -50.2941C-66.5387 -50.637 -66.3548 -50.969 -66.1533 -51.3086C-65.8226 -51.8961 -65.4771 -52.4818 -65.1174 -53.0531C-64.941 -53.3451 -64.756 -53.6354 -64.565 -53.9243C-64.3562 -54.2623 -64.1327 -54.5984 -63.912 -54.9238C-62.3728 -57.2268 -60.7061 -59.3718 -58.9307 -61.3516C-58.6784 -61.6301 -58.4274 -61.91 -58.1678 -62.1869C-57.8802 -62.4905 -57.5909 -62.8052 -57.2887 -63.1057C-56.7961 -63.6035 -56.3039 -64.09 -55.8014 -64.5543C-55.2592 -65.0642 -54.714 -65.552 -54.1618 -66.0283C-53.6039 -66.4934 -53.046 -66.9584 -52.4778 -67.4012C-52.1967 -67.6232 -51.9099 -67.8339 -51.6215 -68.0544C-51.0479 -68.4758 -50.4686 -68.8847 -49.8761 -69.282C-49.2925 -69.6699 -48.7032 -70.0466 -48.1008 -70.4103C-47.5 -70.7644 -46.9008 -71.1074 -46.2901 -71.4279C-45.9876 -71.5938 -45.6793 -71.7484 -45.3711 -71.903C-45.0628 -72.0576 -44.7562 -72.2025 -44.4495 -72.3473C-44.1355 -72.4907 -43.8288 -72.6355 -43.5164 -72.7679C-43.204 -72.9014 -42.8916 -73.0338 -42.5706 -73.1655C-41.9489 -73.412 -41.313 -73.6441 -40.674 -73.8555C-40.3737 -73.9589 -40.066 -74.0621 -39.7612 -74.1545C-39.7348 -74.1703 -39.7026 -74.176 -39.6777 -74.182C-39.3717 -74.2742 -39.0598 -74.3551 -38.7549 -74.4488C-38.4533 -74.5205 -38.1488 -74.6029 -37.8443 -74.6854C-37.5019 -74.761 -37.1579 -74.8464 -36.8097 -74.9107C-36.4848 -74.9788 -36.1614 -75.0371 -35.8369 -75.0952C-35.5062 -75.1519 -35.1816 -75.2099 -34.8526 -75.2557C-34.5222 -75.3025 -34.1932 -75.3483 -33.8657 -75.3843C-33.2005 -75.4656 -32.5401 -75.5164 -31.8767 -75.5452C-31.5524 -75.5605 -31.2195 -75.5753 -30.8894 -75.5793C-30.1812 -75.5898 -29.4688 -75.578 -28.7612 -75.5358C-28.1995 -75.5095 -27.6349 -75.4611 -27.0719 -75.4018C-26.7335 -75.3626 -26.3865 -75.3216 -26.0412 -75.2695C-25.6958 -75.2188 -25.3516 -75.167 -25.0079 -75.1053L211.894 -32.6329C212.293 -32.562 212.689 -32.479 213.086 -32.3959C213.413 -32.3253 213.747 -32.2541 214.071 -32.1741C214.817 -31.9941 215.55 -31.7943 216.279 -31.5725L216.306 -31.5681C216.68 -31.4546 217.043 -31.3335 217.406 -31.2112C217.778 -31.0867 218.139 -30.9534 218.5 -30.8201C218.861 -30.6867 219.22 -30.5424 219.58 -30.3969C219.939 -30.2526 220.288 -30.0979 220.636 -29.9434C220.647 -29.9523 220.656 -29.9517 220.654 -29.9395C221.004 -29.7848 221.35 -29.6194 221.697 -29.4549C222.02 -29.3059 222.331 -29.1468 222.644 -28.9983C222.72 -28.962 222.787 -28.9265 222.846 -28.8938C223.14 -28.7383 223.434 -28.5815 223.726 -28.415C224.136 -28.1918 224.546 -27.9577 224.943 -27.7147C225.217 -27.5508 225.492 -27.3867 225.756 -27.2125C226.359 -26.8289 226.951 -26.4352 227.54 -26.0195C227.943 -25.7514 228.334 -25.4632 228.714 -25.1649C228.998 -24.9535 229.272 -24.7305 229.555 -24.5081C229.863 -24.269 230.16 -24.0198 230.463 -23.7578C230.76 -23.5086 231.055 -23.2484 231.35 -22.9883C233.455 -21.1232 235.391 -19.0337 237.164 -16.7425C237.384 -16.4719 237.603 -16.1901 237.809 -15.8985C238.587 -14.8578 239.321 -13.7885 240.021 -12.68C240.333 -12.1961 240.635 -11.7018 240.924 -11.1989C242.127 -9.16584 243.21 -7.02486 244.158 -4.80456C244.336 -4.40195 244.499 -4.01271 244.66 -3.61374C245.002 -2.77493 245.317 -1.94208 245.612 -1.10066C245.769 -0.678743 245.914 -0.246697 246.051 0.1838C246.301 0.913709 246.529 1.66141 246.749 2.40881C246.858 2.78787 246.957 3.16486 247.065 3.54516C247.252 4.26281 247.44 4.98196 247.605 5.71892C247.69 6.0703 247.776 6.42319 247.841 6.78291C248.115 8.00458 248.34 9.22862 248.541 10.4839C248.586 10.8052 248.64 11.1287 248.681 11.4607C248.858 12.6996 249.002 13.9567 249.11 15.2172C249.155 15.6896 249.193 16.1493 249.22 16.6179C249.401 19.3205 249.425 22.0638 249.294 24.8358C249.279 25.1232 249.262 25.4215 249.243 25.7319C249.211 26.2132 249.179 26.6945 249.138 27.1738C249.095 27.6652 249.054 28.1445 249.002 28.6329C248.959 29.1244 248.898 29.6107 248.846 30.1003C248.73 30.9951 248.603 31.8875 248.457 32.7886C248.37 33.3589 248.275 33.9323 248.17 34.505Z" fill="url(#paint4_linear_272_121)"/>
</g>
<g id="Group_7">
<path id="Vector_7" d="M213.042 -26.6556L213.034 -26.6574C212.333 -26.8303 211.619 -26.9819 210.893 -27.1138L-25.9367 -69.9832C-26.5619 -70.0959 -27.1828 -70.1877 -27.7997 -70.2571L-27.8229 -70.2608C-46.9801 -72.3706 -65.7498 -54.059 -70.4493 -28.4159L-198.931 672.622C-203.551 697.829 -193.644 724.955 -176.448 735.111C-176.142 735.287 -175.829 735.466 -175.521 735.632C-174.941 735.948 -174.351 736.246 -173.748 736.528L51.643 841.813C52.3334 842.136 53.0211 842.433 53.712 842.708C54.0786 842.855 54.4566 842.996 54.8248 843.132C75.9321 850.669 96.6815 835.493 101.782 807.662L243.646 33.609C248.836 5.28399 235.08 -21.1927 213.042 -26.6556ZM98.3171 806.106C93.7102 831.247 74.7465 845.49 55.3953 838.607C55.0512 838.483 54.6999 838.355 54.3518 838.205C53.719 837.959 53.0834 837.686 52.4511 837.392L-172.998 732.424C-173.549 732.167 -174.097 731.89 -174.633 731.596C-174.921 731.451 -175.213 731.282 -175.475 731.127C-191.282 721.821 -200.266 696.717 -196.084 673.901L-67.4771 -27.8282C-63.1881 -51.2328 -46.1532 -68.0591 -28.4924 -66.1441L-28.4777 -66.141L-28.4003 -66.1371C-27.8389 -66.0668 -27.2632 -65.9822 -26.6919 -65.8784L210.08 -22.6918C210.744 -22.5707 211.404 -22.4279 212.043 -22.2768L212.103 -22.2541C232.398 -17.1604 244.754 7.08283 240.022 32.894L98.3171 806.106Z" fill="#404040"/>
</g>
<path id="Vector_8" d="M239.953 33.2057L98.2446 806.416C97.3671 811.203 95.9613 815.604 94.1374 819.536C92.6737 822.672 90.9469 825.518 88.9844 828.023C88.581 828.541 88.1635 829.039 87.7476 829.526C87.1117 830.251 86.462 830.946 85.7999 831.609C83.9115 833.475 81.88 835.067 79.7325 836.386C84.3367 830.501 87.7712 822.786 89.4319 813.726L91.0622 804.832C91.1751 804.316 91.2823 803.784 91.381 803.249L232.784 31.7094C232.885 31.1622 232.976 30.6145 233.056 30.0753L234.651 21.3719C236.331 12.1986 235.957 3.21488 233.895 -4.81572C240.021 5.49381 242.533 19.1367 239.953 33.2057Z" fill="url(#paint5_linear_272_121)"/>
<g id="Group_8">
<path id="Vector_9" d="M211.112 -17.8734L210.952 -17.9161C210.397 -18.0441 209.841 -18.1597 209.272 -18.2643L-27.4449 -61.7702C-27.9427 -61.8622 -28.4434 -61.941 -28.9372 -62.0082L-29.0898 -62.0117L-29.1595 -62.024C-45.1607 -63.7309 -60.6088 -48.4527 -64.4975 -27.2384L-193.232 675.177C-197.034 695.927 -188.865 718.708 -174.492 727.155C-174.279 727.279 -174.043 727.414 -173.812 727.535L-173.728 727.574C-173.244 727.837 -172.748 728.093 -172.249 728.325L53.2614 832.976C53.832 833.241 54.4072 833.48 54.9756 833.703L55.0821 833.752C55.3648 833.87 55.6602 833.979 55.9391 834.066C73.5048 840.293 90.6798 827.35 94.8591 804.548L236.413 32.1826C240.704 8.77848 229.509 -13.2257 211.112 -17.8734ZM85.8226 800.504C84.4856 807.802 81.3231 813.718 77.115 817.71C76.8847 817.923 76.6574 818.124 76.4288 818.324C75.7329 818.933 75.0057 819.486 74.2654 819.991C73.6138 820.425 72.9335 820.833 72.2426 821.194L72.2329 821.189C71.3678 821.636 70.472 822.012 69.5575 822.325C68.6429 822.637 67.7223 822.877 66.7738 823.035L66.7641 823.031C66.2932 823.118 65.8185 823.175 65.3357 823.216C65.3357 823.216 65.3357 823.216 65.326 823.212C64.853 823.257 64.3634 823.28 63.8784 823.277C62.9068 823.286 61.9181 823.218 60.9251 823.064C59.7387 822.876 58.5416 822.573 57.3362 822.156C57.2267 822.12 57.1184 822.083 57.0101 822.048L56.8549 821.977L56.7466 821.941L56.6303 821.888C56.522 821.852 56.4251 821.808 56.3253 821.775C56.2186 821.726 56.12 821.695 56.0134 821.646C55.8001 821.548 55.5852 821.462 55.3817 821.368L-170.272 717.554C-170.448 717.474 -170.628 717.378 -170.812 717.293C-170.993 717.197 -171.175 717.101 -171.356 717.005L-171.431 716.971L-171.512 716.921L-171.645 716.86C-171.734 716.806 -171.824 716.751 -171.923 716.694C-182.481 710.54 -188.512 693.805 -185.719 678.565L-56.6482 -25.687C-53.8086 -41.1836 -42.5569 -52.345 -30.8875 -51.213L-30.6955 -51.1772L-30.3921 -51.1568C-30.0293 -51.1136 -29.7149 -51.0543 -29.4177 -50.9987L207.136 -6.66082C207.481 -6.59631 207.857 -6.52532 208.258 -6.42488L208.378 -6.38943L208.499 -6.36621C208.579 -6.35157 208.669 -6.32111 208.747 -6.29324C208.999 -6.23349 209.238 -6.16135 209.475 -6.07824C209.586 -6.0571 209.696 -6.02374 209.804 -5.97689C210.023 -5.91017 210.241 -5.84243 210.456 -5.75026C210.715 -5.67496 210.97 -5.57547 211.223 -5.46125C211.233 -5.45917 211.254 -5.456 211.262 -5.44044C211.637 -5.30426 211.997 -5.14471 212.355 -4.97294C212.421 -4.93368 212.488 -4.89569 212.557 -4.86964C212.859 -4.7338 213.146 -4.57583 213.432 -4.41563C213.853 -4.17916 214.271 -3.92922 214.687 -3.6673C215.02 -3.47326 215.349 -3.25349 215.665 -3.02286C216.013 -2.78673 216.356 -2.52517 216.685 -2.25272C217.359 -1.73067 217.996 -1.16272 218.612 -0.546228C219.179 -0.00432361 219.716 0.584059 220.228 1.1947C220.34 1.33425 220.452 1.47377 220.574 1.61664C220.78 1.87934 220.985 2.14182 221.191 2.40577C221.468 2.74873 221.718 3.11268 221.967 3.48889C222.467 4.23032 222.943 4.99304 223.38 5.78917C223.617 6.17776 223.829 6.58765 224.017 7.00507C224.219 7.41261 224.418 7.83362 224.607 8.25354C225.367 9.95726 225.997 11.7426 226.471 13.6183C226.716 14.5508 226.911 15.5143 227.084 16.4868C227.247 17.4573 227.387 18.4366 227.478 19.446C227.525 19.9439 227.562 20.4411 227.586 20.9481C227.641 22.0441 227.662 23.1465 227.618 24.2629C227.609 24.7115 227.594 25.1447 227.555 25.588C227.462 27.1454 227.266 28.7352 226.977 30.3202C164.176 334.661 140.882 499.772 85.8226 800.504Z" fill="black"/>
</g>
<g id="Group_9">
<path id="Vector_10" d="M91.0722 804.832L89.4419 813.725C87.7811 822.786 84.3454 830.501 79.7425 836.385C72.5074 840.79 63.9753 841.901 55.3745 838.848C55.0304 838.725 54.6791 838.596 54.331 838.446C53.6982 838.2 53.0626 837.928 52.4302 837.634L-173.018 732.648C-173.569 732.391 -174.117 732.114 -174.653 731.82C-174.941 731.674 -175.233 731.505 -175.496 731.35C-175.887 731.124 -176.275 730.877 -176.66 730.62C-183.189 726.371 -188.474 719.385 -192.031 711.04C-193.525 703.023 -193.653 694.464 -192.134 686.176L-190.395 676.688C-192.38 687.519 -190.734 698.961 -186.486 708.111C-183.412 714.75 -178.966 720.207 -173.541 723.382C-173.364 723.487 -173.188 723.602 -173.006 723.686L-172.928 723.733L-172.848 723.77C-172.411 724.005 -171.964 724.235 -171.515 724.442L54.0501 828.792C54.5565 829.027 55.0747 829.242 55.5872 829.443L55.6889 829.49L55.7839 829.521C56.0201 829.631 56.254 829.703 56.4862 829.786C71.8199 835.202 86.8304 824.312 91.0722 804.832Z" fill="url(#paint6_linear_272_121)"/>
<path id="Vector_11" d="M240.009 32.9709L240.051 32.8981C244.781 7.08668 232.427 -17.1563 212.13 -22.2503L212.071 -22.273C211.43 -22.4243 210.77 -22.5671 210.106 -22.6882L-26.6684 -65.8754C-27.2396 -65.9792 -27.8153 -66.0638 -28.3767 -66.1341L-28.4554 -66.1382L-28.47 -66.1413C-29.1948 -66.2199 -29.9097 -66.2662 -30.6306 -66.2811C-37.9299 -66.4515 -45.0324 -63.4808 -51.0687 -58.2547C-55.1551 -52.0392 -58.2192 -44.4957 -59.7509 -36.136L-61.4893 -26.648C-59.4878 -37.5706 -54.0901 -46.7199 -47.1486 -52.2706C-41.9766 -56.4013 -35.9408 -58.5472 -29.7978 -57.9068L-29.6535 -57.8799L-29.4505 -57.8745C-28.9826 -57.809 -28.5614 -57.7421 -28.1725 -57.6695L208.486 -13.8466C208.893 -13.7713 209.333 -13.6778 209.815 -13.5665L209.824 -13.5647L210.139 -13.4839C226.218 -9.40324 236.157 9.44597 233.11 29.8378L234.705 21.1332C236.386 11.9599 236.011 2.97742 233.949 -5.05441C240.077 5.25912 242.587 18.9017 240.009 32.9709Z" fill="url(#paint7_linear_272_121)"/>
<path id="Vector_12" d="M240.02 33.0072L98.3109 806.221C97.4334 811.008 96.0276 815.41 94.2025 819.341C92.74 822.478 91.0119 825.323 89.0495 827.828C88.646 828.346 88.2286 828.844 87.8127 829.331C87.1937 830.063 86.5441 830.758 85.865 831.414C83.9705 833.313 81.9131 834.942 79.7373 836.259C79.7603 836.234 79.7733 836.216 79.7964 836.19C84.4005 830.306 87.8351 822.591 89.4958 813.531L234.715 21.1705C236.396 11.9972 236.021 3.01345 233.959 -5.01714C240.089 5.29566 242.599 18.9383 240.02 33.0072Z" fill="url(#paint8_linear_272_121)"/>
</g>
</g>
</g>
</g>
</g>
<path id="Vector_13" d="M226.508 31L85.823 800.503C84.486 807.801 81.3235 813.717 77.1154 817.709C76.8852 817.922 76.6578 818.123 76.4292 818.323C75.7236 818.928 75.0061 819.485 74.2658 819.99C73.6142 820.424 72.9339 820.831 72.243 821.193L72.2333 821.188C71.3682 821.635 70.4724 822.011 69.5579 822.324C68.656 822.628 67.7244 822.864 66.7742 823.034L66.7645 823.03C66.2965 823.105 65.8218 823.162 65.3361 823.215C65.3361 823.215 65.3361 823.215 65.3264 823.211C64.8534 823.256 64.3667 823.266 63.8788 823.276C62.9072 823.285 61.9202 823.204 60.9255 823.063C59.7392 822.875 58.542 822.572 57.3366 822.155C57.2077 822.11 57.1188 822.082 57.0104 822.047L56.9232 822.007L56.8524 821.988L56.6877 821.913L56.6557 821.912C56.549 821.863 56.4327 821.809 56.3244 821.774C56.2178 821.725 56.1192 821.694 56.0126 821.645C55.7993 821.546 55.5844 821.461 55.3808 821.367L-170.273 717.553C-170.449 717.473 -170.629 717.377 -170.813 717.292C-170.994 717.196 -171.176 717.099 -171.358 717.015L-171.39 716.988L-171.523 716.928L-171.579 716.889L-171.646 716.859C-171.735 716.804 -171.817 716.754 -171.923 716.693C-182.482 710.539 -188.513 693.803 -185.72 678.564L-56.649 -25.6882C-53.8094 -41.1848 -42.5577 -52.3462 -30.8884 -51.2142L-30.6963 -51.1784L-30.393 -51.158C-30.0301 -51.1148 -29.7158 -51.0555 -29.4186 -50.9999L2.59564 -44.9988C4.41947 -44.5219 5.57294 -42.3346 5.31286 -39.8579C5.29096 -39.689 5.26054 -39.5231 5.23008 -39.356L5.2165 -39.2847C5.21198 -39.2605 5.20583 -39.2253 5.20984 -39.1993C5.07096 -38.2892 4.97894 -37.3818 4.93388 -36.4794C4.91299 -36.1631 4.89377 -35.859 4.89286 -35.5511C4.8912 -35.5388 4.89119 -35.5388 4.89119 -35.5388C4.87671 -35.1595 4.87368 -34.7904 4.88042 -34.4191C4.87498 -34.087 4.88789 -33.7522 4.89954 -33.4164C4.90432 -33.3411 4.90746 -33.2549 4.91221 -33.1797C4.91532 -33.0923 4.92008 -33.017 4.93055 -32.9293C4.92675 -32.8559 4.93318 -32.7929 4.94082 -32.7296C4.94798 -32.6174 4.95515 -32.5052 4.96231 -32.393C4.96947 -32.2808 4.97665 -32.1686 4.98381 -32.0564C4.99072 -32.0423 4.98785 -32.0316 4.99474 -32.0175C5.01217 -31.7057 5.04841 -31.4037 5.08582 -31.1001C5.12323 -30.7966 5.16232 -30.5052 5.20998 -30.2134C5.21073 -30.1642 5.21306 -30.1259 5.22401 -30.0871C5.22803 -30.0611 5.22645 -30.0501 5.23045 -30.0241C5.26718 -29.771 5.31528 -29.5268 5.36337 -29.2827C5.39769 -29.0666 5.44176 -28.8484 5.48628 -28.6427C5.50247 -28.5777 5.51578 -28.5006 5.53201 -28.4368C5.54773 -28.3228 5.57612 -28.2186 5.60327 -28.1147C5.63117 -27.9616 5.66922 -27.8177 5.70854 -27.6748C5.7195 -27.6359 5.72189 -27.5977 5.73406 -27.5586C5.75025 -27.4936 5.76807 -27.4407 5.77737 -27.3897C5.80453 -27.2858 5.8248 -27.196 5.85478 -27.1028C5.88027 -26.9867 5.90742 -26.8828 5.94312 -26.7771C5.96338 -26.6873 5.9934 -26.5954 6.02215 -26.5025C6.04001 -26.4496 6.04932 -26.3986 6.07004 -26.3577C6.10408 -26.2398 6.13125 -26.1359 6.16818 -26.0299C6.19128 -25.9508 6.21439 -25.873 6.24773 -25.8055C6.27322 -25.6894 6.30894 -25.5837 6.35442 -25.4759C6.35844 -25.4499 6.37227 -25.423 6.3775 -25.3968C6.38153 -25.3708 6.39534 -25.3439 6.41079 -25.3281C6.44483 -25.2101 6.48748 -25.0917 6.5313 -24.9716C6.5406 -24.9206 6.56013 -24.88 6.58085 -24.8391C6.6218 -24.7071 6.67135 -24.5746 6.72372 -24.4528L6.73227 -24.451C6.76231 -24.359 6.79106 -24.2661 6.83252 -24.1844C6.8873 -24.0256 6.9523 -23.8772 7.02707 -23.7267C7.0571 -23.6348 7.08874 -23.5538 7.12897 -23.4723L7.13753 -23.4705C7.17445 -23.3645 7.22156 -23.269 7.2687 -23.1734C7.31418 -23.0657 7.36823 -22.9561 7.42226 -22.8465C7.46774 -22.7387 7.51488 -22.6431 7.5718 -22.5455C7.65752 -22.3562 7.74615 -22.1789 7.8518 -21.9967C7.91802 -21.848 7.9875 -21.7226 8.07368 -21.5823C8.12371 -21.4987 8.16391 -21.4159 8.21392 -21.3323C8.26394 -21.2488 8.30418 -21.166 8.36274 -21.0806C8.42655 -20.9689 8.48917 -20.8587 8.56319 -20.7575L8.56152 -20.7453C8.66723 -20.5643 8.78271 -20.3813 8.90269 -20.2212C8.97506 -20.1077 9.04057 -20.0095 9.11459 -19.9082C9.17151 -19.8106 9.23011 -19.7252 9.28867 -19.6398C9.31107 -19.6111 9.33342 -19.5812 9.36558 -19.5505C9.36392 -19.5383 9.37246 -19.5364 9.37246 -19.5364C9.45338 -19.4211 9.53556 -19.3068 9.62669 -19.2019C9.66122 -19.1329 9.69905 -19.0884 9.73811 -19.0436C9.78979 -18.9723 9.84142 -18.8997 9.89431 -18.8281C9.90286 -18.8262 9.90122 -18.814 9.90977 -18.8122C9.99357 -18.7088 10.0762 -18.607 10.1714 -18.5138C10.2816 -18.3558 10.3964 -18.222 10.514 -18.1001C10.658 -17.9236 10.8049 -17.759 10.9649 -17.6156C11.0165 -17.543 11.0796 -17.4818 11.1341 -17.4211C11.1496 -17.4053 11.1565 -17.3925 11.1748 -17.3886C11.2827 -17.2688 11.3934 -17.1598 11.5139 -17.0499C11.6063 -16.9447 11.71 -16.8497 11.8224 -16.7541C11.9079 -16.663 12.0048 -16.582 12.1017 -16.5011C12.1493 -16.4545 12.1956 -16.4081 12.2547 -16.3717C12.2938 -16.3269 12.3333 -16.2946 12.3838 -16.26C12.4216 -16.2154 12.4721 -16.1808 12.5128 -16.1483C12.7221 -15.9705 12.9273 -15.8199 13.1423 -15.666C13.2547 -15.5692 13.3797 -15.4835 13.5035 -15.3968C13.6187 -15.312 13.7356 -15.2393 13.8525 -15.1679L13.8508 -15.1557C13.9339 -15.1028 14.0182 -15.0484 14.1098 -14.9937C14.2858 -14.8846 14.4703 -14.7737 14.6491 -14.6779C14.6899 -14.6453 14.7322 -14.6237 14.766 -14.6052C15.0026 -14.4719 15.2336 -14.3524 15.4719 -14.2313C15.6593 -14.1323 15.8483 -14.0456 16.0402 -13.9709C16.1347 -13.9281 16.2292 -13.8841 16.3266 -13.8521L16.3249 -13.8399C16.3518 -13.8342 16.3771 -13.8175 16.4039 -13.8118C16.6113 -13.7212 16.8301 -13.6407 17.0518 -13.5722C17.1039 -13.5498 17.1492 -13.5414 17.2013 -13.5178C17.2167 -13.5019 17.2351 -13.4993 17.2534 -13.4954C17.3508 -13.4634 17.4568 -13.4308 17.5541 -13.3988C17.6063 -13.3763 17.6687 -13.3644 17.7237 -13.3527C17.8634 -13.3003 18.006 -13.2599 18.1503 -13.2318C18.3622 -13.1654 18.577 -13.1109 18.7962 -13.0794C18.8655 -13.0533 18.9474 -13.0372 19.0281 -13.0213L141.828 11.1372C141.916 11.1546 142.004 11.1721 142.084 11.1752C142.315 11.2333 142.552 11.2673 142.791 11.2892C142.948 11.3199 143.106 11.3385 143.267 11.3438C143.326 11.355 143.394 11.3683 143.454 11.3673C143.564 11.3754 143.684 11.3871 143.793 11.3952C143.813 11.3994 143.832 11.4023 143.854 11.3942C143.914 11.3932 143.963 11.4024 144.024 11.4029C144.274 11.4257 144.524 11.4362 144.768 11.4327C144.798 11.4389 144.829 11.4317 144.858 11.4379L144.861 11.426C144.971 11.4344 145.082 11.4303 145.196 11.4267C145.418 11.4312 145.643 11.4236 145.869 11.4037C146.156 11.3831 146.434 11.3604 146.724 11.3265C146.766 11.3216 146.817 11.3185 146.87 11.3035C147.088 11.2818 147.317 11.2499 147.536 11.2147C147.65 11.1987 147.755 11.1808 147.86 11.1629L147.862 11.1494C148.008 11.1264 148.154 11.1034 148.303 11.0684C148.462 11.0354 148.619 11.001 148.771 10.954C149.047 10.8918 149.312 10.8276 149.592 10.7399C149.646 10.7249 149.709 10.7106 149.766 10.6836C149.829 10.6707 149.882 10.6543 149.939 10.6273C150.012 10.6152 150.078 10.5903 150.143 10.5638C150.272 10.5247 150.401 10.4855 150.523 10.4308C150.673 10.3823 150.816 10.3332 150.949 10.2686C151.113 10.2103 151.266 10.1498 151.421 10.0772C151.441 10.0813 151.454 10.0702 151.475 10.0621C151.553 10.0258 151.64 9.99152 151.72 9.94197C151.937 9.86731 152.149 9.76764 152.363 9.65349C152.53 9.58191 152.697 9.49935 152.87 9.39011C153.001 9.33872 153.125 9.27204 153.249 9.20536C153.259 9.20744 153.262 9.19548 153.271 9.19604C153.351 9.14649 153.432 9.09817 153.512 9.04862C153.568 9.02161 153.624 8.99308 153.685 8.94063C153.819 8.87603 153.946 8.7974 154.072 8.71849C154.072 8.71849 154.081 8.72055 154.084 8.70859C154.128 8.69146 154.162 8.67226 154.196 8.65306C154.288 8.59336 154.381 8.53391 154.476 8.46225C154.59 8.3935 154.695 8.32392 154.811 8.24294C154.993 8.13577 155.181 8.00467 155.358 7.86998L155.361 7.858C155.475 7.78925 155.582 7.70745 155.689 7.62464C155.781 7.56495 155.855 7.50135 155.937 7.43958C156.019 7.3778 156.093 7.31419 156.175 7.25241C156.316 7.1504 156.435 7.05747 156.559 6.93909C156.737 6.80466 156.895 6.66707 157.055 6.51751C157.15 6.4446 157.235 6.37085 157.322 6.28363C157.419 6.19876 157.516 6.11486 157.603 6.02763C157.688 5.95389 157.773 5.87892 157.85 5.79087L157.86 5.79295C157.86 5.79295 157.872 5.78307 157.874 5.76959C158.007 5.65329 158.144 5.52375 158.262 5.37909C158.333 5.32746 158.384 5.27294 158.434 5.21814C158.506 5.15429 158.572 5.07639 158.637 4.99849L158.647 5.00057C158.746 4.90347 158.849 4.79315 158.94 4.68174C158.977 4.65057 159.012 4.61789 159.042 4.57267C159.132 4.47349 159.221 4.3743 159.301 4.27304C159.324 4.26398 159.348 4.24271 159.362 4.2206C159.377 4.19724 159.401 4.17593 159.415 4.15257C159.503 4.06561 159.58 3.97758 159.65 3.87424C159.711 3.82178 159.764 3.75377 159.817 3.68575C159.895 3.59672 159.962 3.50661 160.042 3.40535C160.08 3.3607 160.117 3.32952 160.146 3.2828C160.211 3.2049 160.277 3.127 160.333 3.04702C160.41 2.95898 160.478 2.86788 160.548 2.76454C160.614 2.68664 160.669 2.60666 160.737 2.51654C160.778 2.45992 160.816 2.41528 160.845 2.3698C160.872 2.33655 160.888 2.29971 160.915 2.26645C161.009 2.14184 161.104 2.01721 161.191 1.87854C161.258 1.78717 161.326 1.6973 161.387 1.59188C161.44 1.52387 161.481 1.46728 161.513 1.40859C161.638 1.22528 161.766 1.02972 161.884 0.832097C162.025 0.613202 162.169 0.394572 162.304 0.160373C162.318 0.137015 162.321 0.125046 162.334 0.101421C162.361 0.0681726 162.378 0.0328564 162.396 -0.0162073C162.558 -0.283647 162.709 -0.552198 162.863 -0.833951C163.017 -1.1157 163.17 -1.39746 163.306 -1.69559C163.319 -1.70672 163.321 -1.71894 163.333 -1.72883C163.384 -1.83632 163.434 -1.94257 163.485 -2.05007C163.536 -2.15756 163.586 -2.26378 163.635 -2.37154C163.667 -2.43022 163.697 -2.48918 163.722 -2.56191C163.768 -2.64397 163.804 -2.72812 163.837 -2.79903C163.874 -2.88316 163.907 -2.95406 163.94 -3.02498C164.081 -3.34855 164.222 -3.67063 164.343 -3.99836C164.491 -4.35934 164.63 -4.72113 164.76 -5.09849C164.76 -5.09849 164.76 -5.09852 164.763 -5.11048C164.879 -5.41277 164.976 -5.71796 165.076 -6.03637C165.374 -6.93889 165.626 -7.86277 165.83 -8.80928C165.844 -8.83264 165.852 -8.87006 165.856 -8.89551L165.87 -8.97057C165.902 -9.14615 165.944 -9.31966 165.976 -9.49525C166.655 -12.0238 168.686 -13.7164 170.763 -13.47L207.133 -6.65379C207.478 -6.58928 207.853 -6.51829 208.255 -6.41785L208.374 -6.38241L208.592 -6.31594L208.816 -6.27339C209.037 -6.21888 209.256 -6.15215 209.472 -6.07221C209.584 -6.05106 209.693 -6.01772 209.801 -5.97088C210.02 -5.90415 210.239 -5.83642 210.453 -5.74425C210.711 -5.65671 210.968 -5.56945 211.221 -5.45523C211.231 -5.45315 211.252 -5.44998 211.26 -5.43443C211.633 -5.28601 211.993 -5.12647 212.353 -4.96692C212.419 -4.92766 212.485 -4.88965 212.555 -4.86361C212.854 -4.71579 213.144 -4.56981 213.43 -4.40961C213.85 -4.17313 214.269 -3.92318 214.684 -3.66127C215.016 -3.45374 215.344 -3.23426 215.663 -3.01685C216.007 -2.76751 216.35 -2.50593 216.682 -2.24671C217.344 -1.71351 217.991 -1.14472 218.61 -0.540199C219.164 0.0128445 219.714 0.590076 220.226 1.20072C220.338 1.34026 220.45 1.47982 220.572 1.62269C220.778 1.88539 220.983 2.14783 221.189 2.41178C221.453 2.76463 221.714 3.13094 221.965 3.49492C222.465 4.23636 222.94 4.99906 223.378 5.79519C223.602 6.19367 223.814 6.60356 224.015 7.01109C224.216 7.41863 224.416 7.83964 224.604 8.25956C225.355 9.9612 225.982 11.7598 226.469 13.6244C226.714 14.5568 226.909 15.5203 227.082 16.4929C227.245 17.4634 227.384 18.4426 227.476 19.452C227.522 19.95 227.559 20.4471 227.583 20.9541C227.639 22.0501 227.659 23.1525 227.615 24.269C227.61 24.7043 227.582 25.1487 227.553 25.594C227.463 27.1435 226.798 29.4153 226.508 31Z" fill="#08319A"/>
</g>
</g>
</g>
<path id="background_2" d="M0 792.5L11 0.5L226 35.5C227.962 37.4617 154.498 431.974 89.31 782.04L85.5 802.5L0 792.5Z" fill="url(#paint9_linear_272_121)"/>
</g>
<defs>
<linearGradient id="paint0_linear_272_121" x1="83.453" y1="398.009" x2="264.181" y2="404.32" gradientUnits="userSpaceOnUse">
<stop stop-color="#333333"/>
<stop offset="0.3653" stop-color="#848484"/>
<stop offset="0.6642" stop-color="#BFBFBF"/>
<stop offset="0.8836" stop-color="#E3E3E3"/>
<stop offset="1" stop-color="#F1F1F1"/>
</linearGradient>
<linearGradient id="paint1_linear_272_121" x1="4.66971" y1="839.782" x2="203.262" y2="-36.3616" gradientUnits="userSpaceOnUse">
<stop stop-color="#F1F1F1"/>
<stop offset="0.4294" stop-color="#EFEFEF"/>
<stop offset="0.6174" stop-color="#E8E8E8"/>
<stop offset="0.7583" stop-color="#DBDBDB"/>
<stop offset="0.8757" stop-color="#C9C9C9"/>
<stop offset="0.9774" stop-color="#B2B2B2"/>
<stop offset="1" stop-color="#ACACAC"/>
</linearGradient>
<linearGradient id="paint2_linear_272_121" x1="173.626" y1="422.418" x2="178.961" y2="423.379" gradientUnits="userSpaceOnUse">
<stop stop-color="white"/>
<stop offset="0.0529" stop-color="#F7F7F7"/>
<stop offset="0.1296" stop-color="#F1F1F1"/>
<stop offset="0.2449" stop-color="#E8E8E8"/>
<stop offset="0.4325" stop-color="#D0D0D0"/>
<stop offset="0.6689" stop-color="#A8A8A8"/>
<stop offset="0.9425" stop-color="#727272"/>
<stop offset="1" stop-color="#666666"/>
</linearGradient>
<linearGradient id="paint3_linear_272_121" x1="-60.2943" y1="807.565" x2="-37.1282" y2="743.275" gradientUnits="userSpaceOnUse">
<stop stop-color="#F1F1F1"/>
<stop offset="0.1164" stop-color="#E3E3E3"/>
<stop offset="0.3358" stop-color="#BFBFBF"/>
<stop offset="0.6347" stop-color="#848484"/>
<stop offset="1" stop-color="#333333"/>
</linearGradient>
<linearGradient id="paint4_linear_272_121" x1="86.1201" y1="7.52636" x2="122.012" y2="-92.0802" gradientUnits="userSpaceOnUse">
<stop stop-color="#333333"/>
<stop offset="0.0736" stop-color="#4C4C4C"/>
<stop offset="0.2508" stop-color="#828282"/>
<stop offset="0.4239" stop-color="#AFAFAF"/>
<stop offset="0.5891" stop-color="#D2D2D2"/>
<stop offset="0.7442" stop-color="#EBEBEB"/>
<stop offset="0.8854" stop-color="#FAFAFA"/>
<stop offset="1" stop-color="white"/>
</linearGradient>
<linearGradient id="paint5_linear_272_121" x1="155.555" y1="415.33" x2="170.652" y2="418.049" gradientUnits="userSpaceOnUse">
<stop stop-color="#F1F1F1"/>
<stop offset="0.0012" stop-color="#F0F0F0"/>
<stop offset="0.1385" stop-color="#B7B7B7"/>
<stop offset="0.2715" stop-color="#888888"/>
<stop offset="0.397" stop-color="#636363"/>
<stop offset="0.5134" stop-color="#494949"/>
<stop offset="0.6172" stop-color="#393939"/>
<stop offset="0.6978" stop-color="#333333"/>
</linearGradient>
<linearGradient id="paint6_linear_272_121" x1="-196.647" y1="711.234" x2="98.3598" y2="764.359" gradientUnits="userSpaceOnUse">
<stop/>
<stop offset="0.1045" stop-color="#141414"/>
<stop offset="0.2593" stop-color="#2C2C2C"/>
<stop offset="0.4027" stop-color="#3B3B3B"/>
<stop offset="0.5229" stop-color="#404040"/>
<stop offset="0.6306" stop-color="#393939"/>
<stop offset="0.7927" stop-color="#242424"/>
<stop offset="0.9882" stop-color="#020202"/>
<stop offset="1"/>
</linearGradient>
<linearGradient id="paint7_linear_272_121" x1="-53.5121" y1="-70.9561" x2="248.944" y2="-16.4902" gradientUnits="userSpaceOnUse">
<stop/>
<stop offset="0.1045" stop-color="#141414"/>
<stop offset="0.2593" stop-color="#2C2C2C"/>
<stop offset="0.4027" stop-color="#3B3B3B"/>
<stop offset="0.5229" stop-color="#404040"/>
<stop offset="0.6306" stop-color="#393939"/>
<stop offset="0.7927" stop-color="#242424"/>
<stop offset="0.9882" stop-color="#020202"/>
<stop offset="1"/>
</linearGradient>
<linearGradient id="paint8_linear_272_121" x1="155.569" y1="415.161" x2="170.712" y2="417.888" gradientUnits="userSpaceOnUse">
<stop stop-color="#0A0A0A"/>
<stop offset="0.356" stop-color="#1A1A1A"/>
<stop offset="1" stop-color="#404040"/>
</linearGradient>
<linearGradient id="paint9_linear_272_121" x1="-146.5" y1="815" x2="461.5" y2="158.5" gradientUnits="userSpaceOnUse">
<stop stop-color="#08319A"/>
<stop offset="1" stop-color="#1A6BE6"/>
</linearGradient>
</defs>
</svg>
