<svg  viewBox="0 0 238 326" fill="none" xmlns="http://www.w3.org/2000/svg">
<g id="bank-card">
<mask id="mask0_224_247" style="mask-type:luminance" maskUnits="userSpaceOnUse" x="0" y="0" width="238" height="326">
<g id="clip0_80_82">
<path id="Vector" d="M237.624 -0.000193961L4.13672 149.622L-0.00082302 325.487L233.487 175.865L237.624 -0.000193961Z" fill="white"/>
</g>
</mask>
<g mask="url(#mask0_224_247)">
<g id="Group">
<g id="Mask group">
<mask id="mask1_224_247" style="mask-type:luminance" maskUnits="userSpaceOnUse" x="-1" y="-1" width="239" height="327">
<g id="Group_2">
<path id="Vector_2" d="M237.62 -0.000682242L4.13281 149.621L-0.00472927 325.486L233.483 175.865L237.62 -0.000682242Z" fill="white"/>
</g>
</mask>
<g mask="url(#mask1_224_247)">
<g id="Group_3">
<g id="Group_4" filter="url(#filter0_i_224_247)">
<path id="Vector_3" d="M229.536 5.18013L12.2176 144.44C7.75248 147.302 4.0317 153.919 3.90696 159.221L0.221119 315.887C0.0963878 321.188 3.61494 323.167 8.08002 320.306L225.398 181.045C229.863 178.184 233.584 171.567 233.709 166.265L237.395 9.59895C237.519 4.29723 234.001 2.31887 229.536 5.18013Z" fill="url(#paint0_linear_224_247)"/>
<path id="DEBIT CARD" d="M176.897 109.267L176.93 107.857L177.986 107.181C178.25 107.012 178.489 106.813 178.703 106.585C178.917 106.351 179.102 106.1 179.256 105.831C179.41 105.557 179.529 105.272 179.612 104.977C179.696 104.675 179.741 104.374 179.748 104.073C179.756 103.759 179.723 103.505 179.652 103.309C179.58 103.113 179.471 102.977 179.325 102.901C179.179 102.825 179.001 102.812 178.791 102.862C178.581 102.906 178.344 103.012 178.08 103.181L177.024 103.858L177.057 102.448L178.043 101.816C178.555 101.488 179.001 101.29 179.38 101.223C179.758 101.156 180.073 101.193 180.325 101.334C180.576 101.476 180.759 101.706 180.874 102.026C180.994 102.336 181.049 102.71 181.039 103.146L181.034 103.348C181.025 103.754 180.951 104.198 180.812 104.68C180.678 105.153 180.479 105.632 180.212 106.117C179.946 106.596 179.619 107.054 179.232 107.49C178.845 107.925 178.395 108.307 177.883 108.636L176.897 109.267ZM175.779 109.983L175.94 103.164L177.213 102.348L177.052 109.168L175.779 109.983ZM181.844 106.061L182.002 99.3336L183.244 98.5378L183.086 105.265L181.844 106.061ZM182.93 105.365L182.96 104.111L185.436 102.525L185.406 103.778L182.93 105.365ZM182.996 102.572L183.026 101.319L185.323 99.8469L185.293 101.1L182.996 102.572ZM183.059 99.8906L183.089 98.6373L185.51 97.0855L185.481 98.3389L183.059 99.8906ZM187.538 102.458L187.565 101.278L188.893 100.428C189.131 100.275 189.311 100.087 189.433 99.8633C189.556 99.6396 189.62 99.3926 189.627 99.1222C189.633 98.8519 189.578 98.6842 189.463 98.6192C189.347 98.548 189.17 98.5886 188.932 98.7412L187.605 99.5917L187.626 98.6793L188.892 97.8686C189.285 97.6166 189.633 97.4512 189.935 97.3723C190.238 97.2872 190.474 97.3143 190.644 97.4535C190.814 97.5926 190.894 97.8772 190.884 98.3073L190.881 98.4363C190.872 98.8357 190.786 99.2294 190.624 99.6177C190.462 99.9998 190.229 100.364 189.926 100.71C189.622 101.049 189.248 101.362 188.803 101.647L187.538 102.458ZM186.451 103.154L186.612 96.3252L187.853 95.5295L187.693 102.358L186.451 103.154ZM187.611 99.352L187.632 98.4489L188.75 97.7327C188.993 97.5769 189.17 97.3904 189.283 97.1733C189.395 96.9563 189.454 96.7248 189.459 96.4791C189.465 96.2211 189.416 96.0531 189.311 95.9753C189.206 95.8975 189.031 95.9365 188.788 96.0923L187.67 96.8085L187.698 95.6289L188.738 94.9625C189.39 94.5447 189.886 94.3875 190.225 94.491C190.569 94.5911 190.734 94.9423 190.72 95.5444L190.717 95.6826C190.707 96.1004 190.608 96.4932 190.421 96.8612C190.239 97.2258 189.995 97.5612 189.687 97.8674C189.384 98.1642 189.039 98.4369 188.651 98.6856L187.611 99.352ZM191.841 99.6544L192 92.927L193.273 92.1113L193.114 98.8387L191.841 99.6544ZM195.528 97.2918L195.66 91.6979L196.933 90.8822L196.801 96.4761L195.528 97.2918ZM194.065 92.9018L194.096 91.5839L198.558 88.7241L198.527 90.042L194.065 92.9018ZM203.426 92.4031C202.914 92.7314 202.477 92.9088 202.114 92.9353C201.752 92.9557 201.458 92.8685 201.234 92.6736C201.009 92.4726 200.844 92.209 200.74 91.8826C200.641 91.5467 200.596 91.1883 200.605 90.8074L200.61 90.6047C200.619 90.1869 200.686 89.7388 200.809 89.2603C200.933 88.7758 201.115 88.293 201.356 87.812C201.601 87.3277 201.905 86.8729 202.267 86.4475C202.634 86.0127 203.063 85.6377 203.555 85.3227C204.067 84.9945 204.517 84.818 204.905 84.7934C205.293 84.7687 205.598 84.8845 205.822 85.1408C206.05 85.3876 206.179 85.7681 206.208 86.2822L204.927 87.1028C204.897 86.8557 204.82 86.6784 204.695 86.5708C204.57 86.4632 204.405 86.4235 204.201 86.4517C204.001 86.4766 203.775 86.5703 203.521 86.7327C203.268 86.8952 203.042 87.0917 202.843 87.3221C202.643 87.5526 202.474 87.8061 202.335 88.0828C202.202 88.3561 202.095 88.6481 202.017 88.9587C201.943 89.2598 201.903 89.5701 201.895 89.8896C201.888 90.203 201.915 90.4702 201.976 90.6912C202.042 90.9029 202.14 91.0639 202.27 91.1743C202.406 91.2752 202.573 91.3132 202.772 91.2883C202.972 91.2573 203.201 91.1589 203.459 90.9932C203.853 90.7412 204.186 90.4153 204.461 90.0156C204.74 89.6125 204.913 89.1931 204.98 88.7572L206.253 87.9416C206.194 88.4629 206.044 89.004 205.802 89.5649C205.564 90.1162 205.244 90.6425 204.84 91.1435C204.441 91.6351 203.97 92.055 203.426 92.4031ZM206.442 90.2983L208.47 82.3723L210.527 81.0543L212.309 86.5383L210.99 87.3838L209.556 82.7024L209.955 82.6373L208.954 83.2789L209.377 82.8168L207.715 89.4827L206.442 90.2983ZM207.901 87.7201L208.319 86.2181L210.539 84.7957L210.905 85.7954L207.901 87.7201ZM213.048 86.0647L213.208 79.282L214.481 78.4663L214.321 85.249L213.048 86.0647ZM216.487 83.8614L214.894 82.032L216.291 81.1368L217.961 82.9164L216.487 83.8614ZM214.03 83.3114L214.058 82.1226L215.455 81.2273C215.642 81.108 215.803 80.9622 215.94 80.79C216.082 80.6083 216.191 80.4144 216.267 80.2082C216.348 79.9926 216.392 79.7773 216.397 79.5622C216.402 79.3472 216.367 79.1847 216.294 79.0747C216.225 78.9552 216.122 78.8972 215.984 78.9008C215.852 78.8948 215.693 78.9515 215.506 79.0709L214.109 79.9661L214.139 78.6852L215.435 77.8546C215.906 77.5528 216.313 77.3769 216.656 77.3268C216.998 77.2705 217.259 77.3486 217.438 77.561C217.616 77.7734 217.699 78.1315 217.687 78.6352L217.684 78.7827C217.672 79.2803 217.567 79.7564 217.368 80.2108C217.174 80.6558 216.901 81.0723 216.551 81.4604C216.206 81.8389 215.797 82.1791 215.327 82.4808L214.03 83.3114ZM219.835 81.7523L219.868 80.3423L220.923 79.6659C221.187 79.4968 221.426 79.2982 221.641 79.0701C221.855 78.8359 222.039 78.5847 222.193 78.3165C222.348 78.0422 222.466 77.7572 222.55 77.4618C222.633 77.1601 222.679 76.8588 222.686 76.5577C222.693 76.2444 222.661 75.9897 222.589 75.7937C222.517 75.5977 222.408 75.4618 222.262 75.3859C222.116 75.31 221.938 75.2971 221.728 75.347C221.518 75.3908 221.281 75.4972 221.017 75.6663L219.962 76.3427L219.995 74.9327L220.981 74.3011C221.493 73.9728 221.938 73.7751 222.317 73.7079C222.696 73.6407 223.011 73.6778 223.262 73.8192C223.514 73.9606 223.697 74.1912 223.812 74.511C223.932 74.8213 223.987 75.1946 223.977 75.6308L223.972 75.8335C223.962 76.239 223.888 76.6829 223.749 77.1651C223.616 77.6379 223.416 78.1169 223.15 78.6022C222.884 79.0813 222.557 79.5387 222.17 79.9746C221.782 80.4104 221.333 80.7924 220.82 81.1207L219.835 81.7523ZM218.717 82.4685L218.877 75.6489L220.15 74.8333L219.99 81.6528L218.717 82.4685Z" fill="#F1F7FF"/>
</g>
<g id="Group 6">
<path id="Vector_4" d="M191.117 79.8187C199.288 74.5825 206.097 62.472 206.326 52.7701C206.554 43.0678 200.115 39.4475 191.944 44.6837C183.772 49.9198 176.963 62.0298 176.735 71.7321C176.507 81.434 182.946 85.0548 191.117 79.8187Z" fill="#E71924"/>
<path id="Vector_5" d="M209.152 68.2652C217.323 63.0291 224.133 50.9186 224.361 41.2167C224.589 31.5144 218.15 27.8941 209.979 33.1302C201.808 38.3664 194.999 50.4766 194.77 60.1788C194.542 69.8808 200.981 73.5014 209.152 68.2652Z" fill="#F99F19"/>
</g>
<path id="Vector_6" fill-rule="evenodd" clip-rule="evenodd" d="M200.218 70.3314C203.808 64.8672 206.191 58.3709 206.325 52.6978C206.458 47.0246 204.312 43.431 200.873 42.4713C197.283 47.9354 194.899 54.4317 194.766 60.1049C194.633 65.778 196.779 69.3716 200.218 70.3314Z" fill="#F26520"/>
<path id="Vector_7" d="M58.4404 173.896L30.6994 191.672C29.6141 192.368 28.7098 193.976 28.6795 195.265L28.1629 217.224C28.1325 218.513 28.9877 218.994 30.0729 218.298L57.8139 200.522C58.8992 199.826 59.8038 198.217 59.8341 196.929L60.3507 174.969C60.381 173.681 59.5257 173.2 58.4404 173.896Z" fill="url(#paint1_linear_224_247)" stroke="#211F21" stroke-width="0.823704"/>
<path id="Vector_8" d="M28.6406 201.504L38.1188 195.43" stroke="#211F21" stroke-width="0.768183" stroke-linecap="round"/>
<path id="Vector_9" d="M28.4414 210.013L37.7119 204.072" stroke="#211F21" stroke-width="0.768183" stroke-linecap="round"/>
<path id="Vector_10" d="M50.6367 195.792L59.8837 189.866" stroke="#211F21" stroke-width="0.768183" stroke-linecap="round"/>
<path id="Vector_11" d="M50.6953 187.645L60.0811 181.631" stroke="#211F21" stroke-width="0.768183" stroke-linecap="round"/>
<path id="Vector_12" d="M44.4515 187.589C44.8347 187.344 45.1538 186.776 45.1645 186.321C45.1752 185.867 44.8734 185.697 44.4902 185.942C44.1073 186.188 43.7882 186.755 43.7775 187.21C43.7668 187.665 44.0686 187.835 44.4515 187.589Z" fill="#211F21"/>
<path id="Vector_13" d="M76.9974 180.772C78.8219 174.598 79.0837 171.605 77.3062 167.648C77.1176 167.228 77.3298 166.642 77.5632 166.402C77.7966 166.162 78.1521 166.025 78.3594 166.432C80.4655 170.572 80.2558 173.785 78.1391 180.632C77.8949 181.329 77.4609 181.676 77.2048 181.636C76.9052 181.59 76.8434 181.293 76.9974 180.772Z" fill="#F1F7FF"/>
<path id="Vector_14" d="M74.8675 169.616C74.6331 169.902 74.4731 170.517 74.723 170.925C76.1878 173.771 76.0721 176.009 74.4873 180.944C74.3149 181.45 74.4054 181.829 74.6959 181.757C75.0394 181.672 75.349 181.186 75.5177 180.689C77.3295 175.363 77.4316 172.904 75.7792 169.573C75.6269 169.265 75.2191 169.188 74.8675 169.616Z" fill="#F1F7FF"/>
<path id="Vector_15" d="M72.5107 172.882C72.1605 173.241 72.0883 173.737 72.2536 174.128C73.1122 176.165 73.2228 177.544 72.0954 180.853C71.8767 181.444 71.7971 181.973 72.185 181.877C72.573 181.781 72.8614 181.355 73.0039 180.947C74.4452 176.856 74.1817 175.249 73.1976 172.712C73.1135 172.496 72.8606 172.522 72.5107 172.882Z" fill="#F1F7FF"/>
<path id="Vector_16" d="M70.0591 175.535C69.7057 176.032 69.6467 176.479 69.9111 176.981C70.4621 178.053 70.4297 178.874 69.8239 180.687C69.543 181.496 69.4449 182.282 69.9041 182.123C70.363 181.964 70.573 181.637 70.8481 180.707C71.486 178.313 71.5704 177.137 70.9708 175.491C70.8343 175.052 70.5277 174.964 70.0591 175.535Z" fill="#F1F7FF"/>
<path id="Vector_17" d="M49.5182 185.153C48.7155 182.134 47.101 181.43 44.4424 183.133C41.2062 185.207 40.2225 188.719 38.1227 195.294C39.3048 197.997 39.2735 199.882 37.9192 203.94C39.8252 209.671 41.3088 210.861 43.9447 209.136C47.4124 206.914 48.4815 202.792 50.5182 195.867C49.5933 193.292 49.5283 191.585 50.5347 187.773" stroke="#211F21" stroke-width="0.768183" stroke-linecap="round"/>
<path id="Vector_18" d="M44.8643 269.979L45.2994 251.484C45.3466 249.48 46.1275 248.524 47.1532 247.867C47.1532 247.867 52.4125 244.497 53.4396 243.838C54.4664 243.181 55.6166 242.595 55.5767 244.29C55.5368 245.986 55.5477 245.523 55.526 246.448C55.5042 247.373 54.9699 248.627 53.6867 249.449C52.4031 250.271 50.7361 251.34 50.7361 251.34C50.7361 251.34 50.9186 243.581 50.95 242.246C50.9814 240.911 51.4047 239.829 53.0533 238.773C54.7016 237.717 54.0794 238.115 56.2604 236.718C58.4413 235.32 61.1085 234.74 61.0376 237.755C60.9666 240.77 60.9034 243.458 60.9034 243.458C60.6031 245.472 59.8995 246.653 58.5179 248.175C61.0698 247.146 62.0703 247.568 62.0267 249.418C62.0267 249.418 62.0017 250.496 61.8929 255.12C61.7841 259.744 58.0487 262.745 56.6377 263.649C55.2265 264.554 55.7397 264.225 55.7397 264.225C53.4303 265.705 45.8621 270.554 45.8621 270.554C45.3488 270.883 44.8498 270.596 44.8643 269.979ZM50.6103 262.047L50.7517 256.035C50.7517 256.035 53.702 254.145 54.8571 253.405C56.012 252.665 56.6312 253.179 56.6058 254.258C56.5804 255.337 56.5514 256.57 56.5514 256.57C56.5188 257.957 55.6068 259.148 54.3236 259.971L50.603 262.355L50.6103 262.047Z" stroke="#F1F7FF" stroke-width="0.935493"/>
<path id="Vector_19" d="M73.6182 242.065L73.7765 235.338L75.5305 234.213L76.7378 237.161L76.8853 237.067L78.2548 232.468L80.0399 231.324L79.8816 238.051L78.6243 238.857L78.7594 233.116L78.9374 233.02L77.3369 238.339L76.1262 239.114L74.723 235.72L74.9175 235.578L74.7824 241.319L73.6182 242.065ZM80.6167 237.58L82.6455 229.654L84.7022 228.336L86.4843 233.82L85.1648 234.666L83.7308 229.984L84.1299 229.919L83.1286 230.561L83.5523 230.099L81.8896 236.765L80.6167 237.58ZM82.0763 235.002L82.4938 233.5L84.7136 232.078L85.0799 233.077L82.0763 235.002ZM87.2232 233.347L87.3828 226.564L88.6557 225.748L88.4961 232.531L87.2232 233.347ZM90.6615 231.143L89.0687 229.314L90.4657 228.419L92.1362 230.198L90.6615 231.143ZM88.2053 230.593L88.2333 229.405L89.6303 228.509C89.8166 228.39 89.978 228.244 90.1146 228.072C90.2565 227.89 90.3655 227.696 90.4417 227.49C90.5232 227.275 90.5665 227.059 90.5715 226.844C90.5766 226.629 90.5422 226.467 90.4683 226.357C90.3998 226.237 90.2967 226.179 90.159 226.183C90.0267 226.177 89.8673 226.233 89.6811 226.353L88.284 227.248L88.3142 225.967L89.6103 225.137C90.0812 224.835 90.4879 224.659 90.8305 224.609C91.1733 224.552 91.4339 224.631 91.6124 224.843C91.7909 225.055 91.8742 225.413 91.8623 225.917L91.8588 226.065C91.8471 226.562 91.7417 227.038 91.5424 227.493C91.3485 227.938 91.0762 228.354 90.7256 228.742C90.3804 229.121 89.9723 229.461 89.5015 229.763L88.2053 230.593ZM95.4206 228.266C94.9083 228.594 94.471 228.772 94.1085 228.798C93.7462 228.819 93.4527 228.731 93.228 228.537C93.0033 228.336 92.8388 228.072 92.7344 227.746C92.6353 227.41 92.5902 227.051 92.5992 226.67L92.6039 226.468C92.6138 226.05 92.6804 225.602 92.8037 225.123C92.9272 224.639 93.1093 224.156 93.35 223.675C93.5958 223.191 93.8995 222.736 94.2612 222.31C94.6281 221.876 95.0574 221.501 95.549 221.186C96.0612 220.857 96.5113 220.681 96.8992 220.656C97.2871 220.632 97.5927 220.747 97.816 221.004C98.0446 221.251 98.1732 221.631 98.2019 222.145L96.9213 222.966C96.8914 222.719 96.814 222.541 96.6892 222.434C96.5643 222.326 96.3996 222.287 96.1951 222.315C95.9958 222.34 95.7693 222.433 95.5158 222.596C95.2622 222.758 95.0359 222.955 94.8369 223.185C94.6378 223.416 94.4687 223.669 94.3297 223.946C94.1959 224.219 94.0896 224.511 94.011 224.822C93.9376 225.123 93.8972 225.433 93.8897 225.753C93.8823 226.066 93.9092 226.333 93.9702 226.554C94.0366 226.766 94.1347 226.927 94.2646 227.037C94.3999 227.138 94.5671 227.176 94.7665 227.151C94.966 227.12 95.1951 227.022 95.4538 226.856C95.847 226.604 96.1808 226.278 96.4552 225.879C96.7348 225.475 96.9078 225.056 96.9741 224.62L98.2469 223.805C98.1888 224.326 98.0385 224.867 97.796 225.428C97.5588 225.979 97.2381 226.505 96.8339 227.007C96.435 227.498 95.9639 227.918 95.4206 228.266ZM101.744 224.214C101.232 224.542 100.787 224.724 100.409 224.761C100.036 224.788 99.73 224.709 99.4898 224.524C99.2496 224.333 99.0722 224.074 98.9576 223.749C98.8481 223.419 98.7978 223.067 98.8066 222.693L98.8114 222.49C98.8212 222.072 98.893 221.621 99.0267 221.136C99.1658 220.641 99.366 220.147 99.6273 219.652C99.8886 219.158 100.21 218.692 100.593 218.253C100.975 217.808 101.415 217.427 101.912 217.108C102.408 216.79 102.843 216.611 103.216 216.572C103.589 216.527 103.899 216.589 104.144 216.758C104.39 216.927 104.573 217.176 104.693 217.505C104.812 217.827 104.867 218.198 104.857 218.615L104.853 218.818C104.844 219.193 104.773 219.623 104.639 220.108C104.505 220.593 104.31 221.09 104.053 221.6C103.797 222.103 103.475 222.585 103.087 223.045C102.704 223.496 102.257 223.885 101.744 224.214ZM101.778 222.804C102.047 222.631 102.289 222.422 102.503 222.175C102.723 221.925 102.911 221.654 103.065 221.361C103.225 221.065 103.347 220.763 103.431 220.456C103.514 220.148 103.56 219.847 103.567 219.552C103.574 219.238 103.539 218.979 103.462 218.774C103.391 218.56 103.28 218.407 103.129 218.316C102.984 218.216 102.806 218.181 102.597 218.213C102.387 218.244 102.148 218.346 101.878 218.518C101.609 218.691 101.368 218.897 101.153 219.138C100.938 219.378 100.751 219.646 100.591 219.942C100.437 220.229 100.318 220.529 100.234 220.843C100.15 221.151 100.105 221.461 100.097 221.775C100.09 222.07 100.123 222.321 100.194 222.53C100.266 222.738 100.374 222.892 100.52 222.993C100.67 223.09 100.85 223.126 101.06 223.1C101.269 223.075 101.509 222.976 101.778 222.804ZM107.669 220.417C107.157 220.745 106.727 220.927 106.38 220.962C106.033 220.991 105.772 220.897 105.599 220.682C105.426 220.46 105.345 220.131 105.355 219.695L106.589 218.904C106.585 219.076 106.62 219.211 106.694 219.308C106.773 219.403 106.895 219.443 107.058 219.429C107.222 219.409 107.435 219.314 107.699 219.145C107.937 218.993 108.137 218.828 108.299 218.652C108.462 218.475 108.586 218.296 108.671 218.114C108.757 217.926 108.802 217.745 108.806 217.573C108.811 217.358 108.738 217.239 108.586 217.216C108.433 217.186 108.184 217.264 107.839 217.449L107.413 217.677C106.85 217.983 106.405 218.063 106.077 217.916C105.749 217.769 105.592 217.397 105.606 216.801C105.616 216.371 105.711 215.945 105.889 215.522C106.072 215.096 106.321 214.701 106.635 214.336C106.95 213.965 107.319 213.643 107.743 213.371C108.188 213.086 108.566 212.935 108.878 212.917C109.194 212.889 109.434 212.987 109.597 213.209C109.76 213.425 109.837 213.755 109.826 214.197L108.584 214.993C108.588 214.827 108.558 214.698 108.494 214.606C108.43 214.508 108.332 214.459 108.199 214.459C108.072 214.456 107.91 214.517 107.713 214.643C107.527 214.763 107.368 214.901 107.237 215.057C107.111 215.21 107.016 215.372 106.951 215.54C106.886 215.703 106.852 215.858 106.848 216.005C106.844 216.196 106.897 216.325 107.007 216.394C107.118 216.462 107.302 216.426 107.56 216.284L107.994 216.052C108.407 215.83 108.769 215.704 109.08 215.673C109.392 215.637 109.633 215.71 109.802 215.892C109.976 216.065 110.058 216.36 110.048 216.778C110.038 217.208 109.934 217.647 109.734 218.095C109.541 218.534 109.268 218.954 108.917 219.354C108.567 219.754 108.151 220.109 107.669 220.417ZM115.104 215.653C114.592 215.981 114.155 216.158 113.792 216.185C113.43 216.205 113.136 216.118 112.912 215.923C112.687 215.722 112.523 215.458 112.418 215.132C112.319 214.796 112.274 214.438 112.283 214.057L112.288 213.854C112.298 213.436 112.364 212.988 112.488 212.51C112.611 212.025 112.793 211.542 113.034 211.061C113.28 210.577 113.583 210.122 113.945 209.697C114.312 209.262 114.741 208.887 115.233 208.572C115.745 208.244 116.195 208.067 116.583 208.043C116.971 208.018 117.276 208.134 117.5 208.39C117.728 208.637 117.857 209.017 117.886 209.532L116.605 210.352C116.575 210.105 116.498 209.928 116.373 209.82C116.248 209.713 116.083 209.673 115.879 209.701C115.68 209.726 115.453 209.82 115.2 209.982C114.946 210.145 114.72 210.341 114.521 210.571C114.322 210.802 114.153 211.055 114.014 211.332C113.88 211.605 113.773 211.897 113.695 212.208C113.621 212.509 113.581 212.82 113.573 213.139C113.566 213.452 113.593 213.72 113.654 213.941C113.72 214.152 113.819 214.313 113.948 214.424C114.084 214.525 114.251 214.563 114.45 214.538C114.65 214.507 114.879 214.408 115.138 214.243C115.531 213.991 115.865 213.665 116.139 213.265C116.419 212.862 116.592 212.442 116.658 212.007L117.931 211.191C117.873 211.712 117.722 212.253 117.48 212.814C117.243 213.366 116.922 213.892 116.518 214.393C116.119 214.884 115.648 215.304 115.104 215.653ZM118.12 213.548L120.149 205.622L122.205 204.304L123.987 209.788L122.668 210.633L121.234 205.952L121.633 205.887L120.632 206.528L121.056 206.066L119.393 212.732L118.12 213.548ZM119.579 210.969L119.997 209.467L122.217 208.045L122.583 209.045L119.579 210.969ZM124.726 209.314L124.886 202.531L126.159 201.716L125.999 208.498L124.726 209.314ZM128.165 207.111L126.572 205.281L127.969 204.386L129.639 206.166L128.165 207.111ZM125.709 206.561L125.737 205.372L127.134 204.477C127.32 204.357 127.481 204.212 127.618 204.039C127.76 203.858 127.869 203.664 127.945 203.458C128.026 203.242 128.07 203.027 128.075 202.812C128.08 202.597 128.045 202.434 127.972 202.324C127.903 202.205 127.8 202.147 127.662 202.15C127.53 202.144 127.371 202.201 127.184 202.32L125.787 203.216L125.817 201.935L127.114 201.104C127.584 200.802 127.991 200.626 128.334 200.576C128.677 200.52 128.937 200.598 129.116 200.81C129.294 201.023 129.377 201.381 129.366 201.885L129.362 202.032C129.35 202.53 129.245 203.006 129.046 203.46C128.852 203.905 128.579 204.322 128.229 204.71C127.884 205.088 127.476 205.429 127.005 205.73L125.709 206.561ZM131.532 204.953L129.967 199.33L131.279 198.489L132.511 203.291L132.22 203.305L133.012 202.797L132.697 203.171L134.096 196.684L135.369 195.868L133.604 203.625L131.532 204.953ZM135.105 202.663L137.134 194.737L139.191 193.419L140.973 198.903L139.653 199.749L138.219 195.067L138.618 195.002L137.617 195.644L138.041 195.182L136.378 201.848L135.105 202.663ZM136.565 200.085L136.982 198.583L139.202 197.161L139.569 198.16L136.565 200.085ZM141.712 198.429L141.87 191.702L143.143 190.886L142.985 197.614L141.712 198.429ZM142.83 197.713L142.861 196.386L145.236 194.864L145.205 196.191L142.83 197.713ZM149.703 193.309L149.861 186.581L151.134 185.766L150.976 192.493L149.703 193.309ZM146.04 195.656L146.198 188.929L147.471 188.113L147.313 194.841L146.04 195.656ZM147.152 192.266L147.183 190.939L150.023 189.119L149.992 190.446L147.152 192.266ZM154.96 190.113C154.448 190.441 154.003 190.623 153.625 190.66C153.252 190.687 152.945 190.608 152.705 190.423C152.465 190.232 152.288 189.973 152.173 189.647C152.064 189.318 152.013 188.966 152.022 188.591L152.027 188.389C152.037 187.971 152.108 187.519 152.242 187.034C152.381 186.54 152.581 186.046 152.843 185.551C153.104 185.057 153.426 184.591 153.808 184.152C154.191 183.707 154.63 183.326 155.127 183.007C155.624 182.689 156.059 182.51 156.432 182.471C156.805 182.425 157.114 182.487 157.36 182.657C157.606 182.826 157.788 183.075 157.908 183.404C158.028 183.726 158.083 184.097 158.073 184.514L158.068 184.717C158.059 185.092 157.988 185.522 157.854 186.007C157.721 186.492 157.525 186.989 157.269 187.498C157.012 188.002 156.69 188.483 156.302 188.944C155.92 189.395 155.472 189.784 154.96 190.113ZM154.993 188.703C155.262 188.53 155.504 188.321 155.719 188.074C155.939 187.824 156.126 187.553 156.281 187.26C156.441 186.964 156.562 186.662 156.646 186.354C156.73 186.047 156.775 185.745 156.782 185.45C156.789 185.137 156.755 184.878 156.678 184.673C156.607 184.459 156.495 184.306 156.345 184.215C156.199 184.114 156.022 184.08 155.812 184.111C155.602 184.143 155.363 184.245 155.094 184.417C154.825 184.59 154.583 184.796 154.368 185.037C154.154 185.277 153.967 185.545 153.807 185.841C153.652 186.128 153.533 186.428 153.449 186.742C153.366 187.05 153.32 187.36 153.313 187.674C153.306 187.969 153.338 188.22 153.41 188.428C153.481 188.637 153.59 188.791 153.735 188.892C153.886 188.989 154.066 189.025 154.275 188.999C154.485 188.974 154.724 188.875 154.993 188.703Z" fill="#F1F7FF"/>
<path id="Vector_20" d="M23.7909 275.203L23.6966 279.21C23.6168 282.601 26.8014 282.534 29.1283 281.042C31.4552 279.551 32.6222 278.804 35.0749 277.232C37.5275 275.66 40.5611 271.323 40.6309 268.358L40.7651 262.656C40.6977 260.118 38.7996 259.62 35.4593 260.894C31.3159 262.475 30.015 262.524 29.8583 260.84L29.9816 255.599C30.0698 253.784 30.6263 252.998 32.2336 251.879L35.853 249.56C38.4542 248.158 40.4997 248.672 40.642 251.653L40.5768 254.427C40.5898 255.403 40.4162 255.78 39.7723 256.157L36.0235 258.559C35.3902 258.982 35.2237 258.819 35.2767 257.823L35.3094 256.436C35.1667 255.096 34.5313 255.241 32.8931 256.314L26.5589 260.373C25.0812 261.367 24.705 262.231 24.6874 264.154L24.6367 266.311C24.6742 269.085 26.0833 269.187 28.3987 268.758C33.6805 267.47 35.307 267.368 35.2744 268.755L35.2417 270.142C35.2127 271.375 34.4188 272.643 33.2555 273.388C33.2555 273.388 33.2555 273.388 31.187 274.714C29.1187 276.039 29.2951 273.953 29.2951 273.953L29.3495 271.641C29.3713 270.716 28.865 270.585 28.348 270.916L24.9869 273.07C24.2113 273.567 23.809 274.432 23.7909 275.203Z" stroke="#F1F7FF" stroke-width="0.935493"/>
</g>
</g>
</g>
</g>
</g>
</g>
<defs>
<filter id="filter0_i_224_247" x="0.21875" y="3.86914" width="238.332" height="318.899" filterUnits="userSpaceOnUse" color-interpolation-filters="sRGB">
<feFlood flood-opacity="0" result="BackgroundImageFix"/>
<feBlend mode="normal" in="SourceGraphic" in2="BackgroundImageFix" result="shape"/>
<feColorMatrix in="SourceAlpha" type="matrix" values="0 0 0 0 0 0 0 0 0 0 0 0 0 0 0 0 0 0 127 0" result="hardAlpha"/>
<feOffset dx="1.15227" dy="1.15227"/>
<feGaussianBlur stdDeviation="1.15227"/>
<feComposite in2="hardAlpha" operator="arithmetic" k2="-1" k3="1"/>
<feColorMatrix type="matrix" values="0 0 0 0 1 0 0 0 0 1 0 0 0 0 1 0 0 0 0.25 0"/>
<feBlend mode="normal" in2="shape" result="effect1_innerShadow_224_247"/>
</filter>
<linearGradient id="paint0_linear_224_247" x1="200.871" y1="46.9325" x2="197.885" y2="279.677" gradientUnits="userSpaceOnUse">
<stop stop-color="#96BDF8"/>
<stop offset="1" stop-color="#4589F0"/>
</linearGradient>
<linearGradient id="paint1_linear_224_247" x1="57.9472" y1="177.542" x2="22.5635" y2="207.273" gradientUnits="userSpaceOnUse">
<stop stop-color="#F4F4F4"/>
<stop offset="1" stop-color="#D6D6D6"/>
</linearGradient>
</defs>
</svg>
