<svg width="182" height="249" viewBox="0 0 182 249" fill="none" xmlns="http://www.w3.org/2000/svg">
<g id="bank-card">
<mask id="mask0_224_247" style="mask-type:luminance" maskUnits="userSpaceOnUse" x="0" y="0" width="182" height="249">
<g id="clip0_80_82">
<path id="Vector" d="M181.66 4.79221e-05L3.16406 114.382L0.00101063 248.827L178.497 134.445L181.66 4.79221e-05Z" fill="white"/>
</g>
</mask>
<g mask="url(#mask0_224_247)">
<g id="Group">
<g id="Mask group">
<mask id="mask1_224_247" style="mask-type:luminance" maskUnits="userSpaceOnUse" x="0" y="0" width="182" height="249">
<g id="Group_2">
<path id="Vector_2" d="M181.66 4.79221e-05L3.16406 114.382L0.00101063 248.827L178.497 134.445L181.66 4.79221e-05Z" fill="white"/>
</g>
</mask>
<g mask="url(#mask1_224_247)">
<g id="Group_3">
<g id="Group_4" filter="url(#filter0_i_224_247)">
<path id="Vector_3" d="M175.479 3.96065L9.34466 110.422C5.93121 112.609 3.08676 117.668 2.99141 121.721L0.173666 241.488C0.0783121 245.541 2.76816 247.054 6.18161 244.866L172.316 138.405C175.729 136.218 178.574 131.159 178.669 127.106L181.487 7.33874C181.582 3.2857 178.893 1.77329 175.479 3.96065Z" fill="url(#paint0_linear_224_247)"/>
<path id="DEBIT CARD" d="M135.234 83.6523L135.26 82.5744L136.067 82.0573C136.268 81.928 136.451 81.7762 136.615 81.6018C136.779 81.4227 136.92 81.2307 137.038 81.0257C137.155 80.816 137.246 80.5982 137.31 80.3723C137.374 80.1417 137.409 79.9113 137.414 79.6812C137.42 79.4416 137.395 79.2469 137.34 79.0971C137.285 78.9473 137.202 78.8433 137.09 78.7853C136.979 78.7273 136.842 78.7174 136.682 78.7556C136.521 78.7891 136.34 78.8704 136.138 78.9997L135.332 79.5168L135.357 78.4389L136.11 77.956C136.502 77.7051 136.843 77.5539 137.132 77.5026C137.422 77.4512 137.662 77.4795 137.855 77.5876C138.047 77.6957 138.187 77.872 138.275 78.1165C138.367 78.3537 138.409 78.639 138.401 78.9725L138.397 79.1275C138.39 79.4375 138.333 79.7768 138.227 80.1455C138.125 80.5069 137.972 80.8731 137.769 81.2441C137.565 81.6104 137.316 81.9601 137.019 82.2932C136.723 82.6264 136.379 82.9185 135.988 83.1694L135.234 83.6523ZM134.38 84.1998L134.502 78.9864L135.476 78.3629L135.353 83.5763L134.38 84.1998ZM139.016 81.2012L139.137 76.0582L140.086 75.4499L139.965 80.5928L139.016 81.2012ZM139.847 80.6689L139.869 79.7107L141.762 78.4978L141.739 79.456L139.847 80.6689ZM139.897 78.5342L139.919 77.5761L141.676 76.4506L141.653 77.4088L139.897 78.5342ZM139.945 76.4841L139.968 75.5259L141.819 74.3396L141.796 75.2978L139.945 76.4841ZM143.369 78.4466L143.39 77.5448L144.405 76.8946C144.586 76.778 144.724 76.6342 144.818 76.4632C144.912 76.2921 144.961 76.1033 144.966 75.8967C144.971 75.69 144.929 75.5618 144.84 75.5121C144.752 75.4577 144.617 75.4887 144.435 75.6053L143.42 76.2555L143.437 75.558L144.404 74.9383C144.704 74.7456 144.97 74.6192 145.202 74.5589C145.433 74.4938 145.614 74.5145 145.744 74.6209C145.874 74.7273 145.935 74.9449 145.927 75.2737L145.925 75.3723C145.918 75.6776 145.852 75.9786 145.728 76.2754C145.604 76.5675 145.426 76.8458 145.194 77.1102C144.962 77.3699 144.676 77.6088 144.336 77.8268L143.369 78.4466ZM142.538 78.9789L142.661 73.7584L143.61 73.1501L143.487 78.3705L142.538 78.9789ZM143.425 76.0723L143.441 75.3819L144.295 74.8344C144.481 74.7153 144.617 74.5727 144.703 74.4068C144.788 74.2408 144.833 74.0639 144.838 73.876C144.843 73.6788 144.805 73.5504 144.724 73.4909C144.644 73.4314 144.511 73.4612 144.325 73.5804L143.47 74.1279L143.492 73.2261L144.287 72.7166C144.785 72.3972 145.164 72.2771 145.423 72.3562C145.686 72.4327 145.812 72.7012 145.801 73.1615L145.799 73.2671C145.791 73.5865 145.716 73.8868 145.573 74.1681C145.434 74.4469 145.247 74.7033 145.012 74.9374C144.78 75.1643 144.516 75.3727 144.22 75.5629L143.425 76.0723ZM146.659 76.3035L146.78 71.1605L147.753 70.537L147.632 75.6799L146.659 76.3035ZM149.477 74.4973L149.578 70.2209L150.551 69.5974L150.451 73.8738L149.477 74.4973ZM148.358 71.1413L148.382 70.1338L151.794 67.9476L151.77 68.955L148.358 71.1413ZM155.515 70.7601C155.124 71.011 154.789 71.1466 154.512 71.1669C154.235 71.1825 154.011 71.1158 153.839 70.9669C153.667 70.8132 153.542 70.6116 153.462 70.3621C153.386 70.1053 153.351 69.8314 153.358 69.5402L153.362 69.3852C153.369 69.0658 153.42 68.7232 153.515 68.3575C153.609 67.987 153.748 67.618 153.932 67.2503C154.12 66.88 154.352 66.5323 154.629 66.2071C154.909 65.8747 155.238 65.5881 155.613 65.3473C156.005 65.0963 156.349 64.9614 156.646 64.9426C156.942 64.9237 157.176 65.0122 157.346 65.2082C157.521 65.3968 157.62 65.6877 157.641 66.0807L156.662 66.7081C156.64 66.5192 156.58 66.3836 156.485 66.3014C156.39 66.2192 156.264 66.1888 156.107 66.2104C155.955 66.2294 155.782 66.301 155.588 66.4252C155.394 66.5494 155.221 66.6996 155.069 66.8757C154.917 67.0519 154.788 67.2457 154.681 67.4573C154.579 67.6662 154.498 67.8894 154.438 68.1269C154.382 68.3571 154.351 68.5943 154.345 68.8385C154.339 69.0781 154.36 69.2824 154.406 69.4514C154.457 69.6131 154.532 69.7362 154.632 69.8206C154.735 69.8978 154.863 69.9269 155.015 69.9078C155.168 69.8841 155.343 69.8089 155.541 69.6822C155.841 69.4895 156.096 69.2404 156.306 68.9348C156.52 68.6267 156.652 68.306 156.703 67.9729L157.676 67.3493C157.631 67.7479 157.517 68.1615 157.331 68.5903C157.15 69.0118 156.905 69.4141 156.596 69.7971C156.291 70.1729 155.931 70.4939 155.515 70.7601ZM157.82 69.151L159.371 63.0917L160.944 62.0841L162.306 66.2766L161.297 66.9229L160.201 63.3441L160.506 63.2943L159.741 63.7848L160.065 63.4316L158.794 68.5274L157.82 69.151ZM158.936 67.18L159.255 66.0318L160.952 64.9444L161.232 65.7086L158.936 67.18ZM162.871 65.9145L162.993 60.7293L163.966 60.1057L163.844 65.2909L162.871 65.9145ZM165.5 64.2301L164.282 62.8316L165.35 62.1472L166.627 63.5077L165.5 64.2301ZM163.622 63.8097L163.643 62.9008L164.711 62.2164C164.854 62.1252 164.977 62.0137 165.081 61.8821C165.19 61.7432 165.273 61.5949 165.332 61.4373C165.394 61.2725 165.427 61.1079 165.431 60.9435C165.435 60.7791 165.408 60.6549 165.352 60.5708C165.3 60.4795 165.221 60.4351 165.115 60.4378C165.014 60.4333 164.892 60.4766 164.75 60.5679L163.682 61.2523L163.705 60.273L164.696 59.638C165.056 59.4074 165.367 59.2729 165.629 59.2346C165.891 59.1915 166.09 59.2512 166.227 59.4136C166.363 59.576 166.427 59.8497 166.418 60.2348L166.415 60.3476C166.406 60.728 166.325 61.0919 166.173 61.4393C166.025 61.7795 165.817 62.0979 165.549 62.3946C165.285 62.684 164.973 62.944 164.613 63.1747L163.622 63.8097ZM168.059 62.6178L168.084 61.5399L168.891 61.0228C169.093 60.8935 169.276 60.7417 169.44 60.5673C169.604 60.3882 169.744 60.1962 169.862 59.9912C169.98 59.7814 170.071 59.5636 170.135 59.3377C170.199 59.1072 170.233 58.8768 170.239 58.6467C170.244 58.4071 170.22 58.2124 170.165 58.0626C170.11 57.9127 170.027 57.8088 169.915 57.7508C169.803 57.6928 169.667 57.6829 169.507 57.7211C169.346 57.7545 169.165 57.8359 168.963 57.9652L168.156 58.4823L168.182 57.4044L168.935 56.9215C169.327 56.6706 169.667 56.5194 169.957 56.468C170.246 56.4167 170.487 56.445 170.679 56.5531C170.872 56.6612 171.012 56.8375 171.1 57.082C171.191 57.3192 171.233 57.6045 171.225 57.938L171.222 58.093C171.215 58.403 171.158 58.7423 171.052 59.111C170.95 59.4724 170.797 59.8386 170.593 60.2096C170.39 60.5758 170.14 60.9255 169.844 61.2587C169.548 61.5919 169.204 61.884 168.813 62.1349L168.059 62.6178ZM167.205 63.1653L167.327 57.9519L168.3 57.3283L168.178 62.5417L167.205 63.1653Z" fill="#F1F7FF"/>
</g>
<g id="Group 6">
<path id="Vector_4" d="M146.104 61.0202C152.351 57.0173 157.557 47.7591 157.731 40.3422C157.906 32.925 152.983 30.1574 146.736 34.1603C140.49 38.1632 135.284 47.421 135.11 54.8381C134.935 62.255 139.858 65.0231 146.104 61.0202Z" fill="#E71924"/>
<path id="Vector_5" d="M159.89 52.1875C166.136 48.1846 171.342 38.9264 171.516 31.5095C171.691 24.0923 166.768 21.3247 160.522 25.3276C154.275 29.3305 149.069 38.5885 148.895 46.0056C148.72 53.4225 153.643 56.1904 159.89 52.1875Z" fill="#F99F19"/>
</g>
<path id="Vector_6" fill-rule="evenodd" clip-rule="evenodd" d="M153.066 53.7674C155.81 49.5902 157.632 44.6239 157.734 40.2869C157.836 35.9499 156.196 33.2027 153.567 32.4691C150.822 36.6462 149 41.6125 148.898 45.9495C148.796 50.2865 150.436 53.0337 153.066 53.7674Z" fill="#F26520"/>
<path id="Vector_7" d="M44.6783 132.94L23.4709 146.53C22.6413 147.061 21.95 148.291 21.9268 149.276L21.5318 166.063C21.5087 167.048 22.1624 167.416 22.992 166.884L44.1994 153.295C45.0291 152.763 45.7206 151.533 45.7437 150.548L46.1387 133.76C46.1619 132.775 45.508 132.408 44.6783 132.94Z" fill="url(#paint1_linear_224_247)" stroke="#211F21" stroke-width="0.629702"/>
<path id="Vector_8" d="M21.8984 154.045L29.1442 149.402" stroke="#211F21" stroke-width="0.587258" stroke-linecap="round"/>
<path id="Vector_9" d="M21.7461 160.55L28.8332 156.009" stroke="#211F21" stroke-width="0.587258" stroke-linecap="round"/>
<path id="Vector_10" d="M38.7109 149.679L45.7801 145.149" stroke="#211F21" stroke-width="0.587258" stroke-linecap="round"/>
<path id="Vector_11" d="M38.7578 143.451L45.933 138.853" stroke="#211F21" stroke-width="0.587258" stroke-linecap="round"/>
<path id="Vector_12" d="M33.9848 143.408C34.2778 143.22 34.5217 142.786 34.5299 142.439C34.5381 142.091 34.3074 141.961 34.0144 142.149C33.7217 142.337 33.4777 142.771 33.4696 143.118C33.4614 143.466 33.6921 143.596 33.9848 143.408Z" fill="#211F21"/>
<path id="Vector_13" d="M58.8655 138.196C60.2602 133.476 60.4604 131.188 59.1015 128.163C58.9574 127.842 59.1196 127.394 59.298 127.211C59.4765 127.027 59.7482 126.922 59.9067 127.234C61.5168 130.399 61.3565 132.855 59.7383 138.089C59.5516 138.622 59.2198 138.887 59.024 138.857C58.795 138.822 58.7478 138.595 58.8655 138.196Z" fill="#F1F7FF"/>
<path id="Vector_14" d="M57.2374 129.668C57.0581 129.886 56.9358 130.356 57.1269 130.669C58.2467 132.844 58.1582 134.555 56.9467 138.328C56.8149 138.715 56.884 139.004 57.1062 138.949C57.3687 138.884 57.6054 138.513 57.7343 138.133C59.1195 134.061 59.1975 132.182 57.9343 129.635C57.8178 129.399 57.5061 129.341 57.2374 129.668Z" fill="#F1F7FF"/>
<path id="Vector_15" d="M55.4366 132.165C55.1689 132.44 55.1137 132.818 55.2401 133.117C55.8965 134.674 55.981 135.729 55.1192 138.258C54.952 138.71 54.8911 139.115 55.1877 139.041C55.4843 138.968 55.7047 138.642 55.8136 138.33C56.9155 135.203 56.7141 133.974 55.9617 132.035C55.8975 131.869 55.7041 131.89 55.4366 132.165Z" fill="#F1F7FF"/>
<path id="Vector_16" d="M53.5638 134.193C53.2935 134.573 53.2485 134.915 53.4506 135.299C53.8718 136.118 53.847 136.745 53.3839 138.132C53.1692 138.75 53.0942 139.351 53.4453 139.229C53.7961 139.108 53.9566 138.858 54.1669 138.147C54.6546 136.317 54.7191 135.418 54.2607 134.16C54.1563 133.824 53.922 133.757 53.5638 134.193Z" fill="#F1F7FF"/>
<path id="Vector_17" d="M37.8604 141.545C37.2467 139.237 36.0125 138.699 33.98 140.001C31.5061 141.587 30.754 144.272 29.1488 149.298C30.0525 151.365 30.0285 152.805 28.9933 155.908C30.4503 160.288 31.5845 161.198 33.5995 159.88C36.2505 158.181 37.0678 155.03 38.6249 149.736C37.9178 147.767 37.8681 146.463 38.6375 143.548" stroke="#211F21" stroke-width="0.587258" stroke-linecap="round"/>
<path id="Vector_18" d="M34.2994 206.393L34.6321 192.254C34.6681 190.722 35.2651 189.991 36.0492 189.489C36.0492 189.489 40.0698 186.912 40.855 186.409C41.64 185.906 42.5193 185.459 42.4888 186.755C42.4583 188.051 42.4666 187.697 42.45 188.405C42.4334 189.112 42.0249 190.07 41.0439 190.698C40.0627 191.327 38.7882 192.144 38.7882 192.144C38.7882 192.144 38.9278 186.212 38.9518 185.192C38.9758 184.171 39.2994 183.344 40.5597 182.537C41.8198 181.729 41.3442 182.034 43.0114 180.966C44.6787 179.897 46.7177 179.454 46.6635 181.759C46.6093 184.063 46.5609 186.118 46.5609 186.118C46.3314 187.658 45.7934 188.561 44.7373 189.724C46.6882 188.938 47.4529 189.26 47.4197 190.674C47.4197 190.674 47.4005 191.499 47.3174 195.034C47.2342 198.569 44.3785 200.863 43.2999 201.554C42.221 202.246 42.6134 201.994 42.6134 201.994C40.8479 203.125 35.0622 206.833 35.0622 206.833C34.6698 207.084 34.2883 206.865 34.2994 206.393ZM38.6921 200.329L38.8002 195.734C38.8002 195.734 41.0556 194.288 41.9387 193.722C42.8215 193.157 43.2949 193.55 43.2755 194.374C43.2561 195.199 43.2339 196.142 43.2339 196.142C43.209 197.202 42.5118 198.113 41.5308 198.742L38.6865 200.565L38.6921 200.329Z" stroke="#F1F7FF" stroke-width="0.715162"/>
<path id="Vector_19" d="M56.2816 185.053L56.4026 179.91L57.7435 179.051L58.6665 181.305L58.7792 181.232L59.8262 177.717L61.1908 176.842L61.0698 181.985L60.1086 182.601L60.2119 178.212L60.348 178.138L59.1245 182.205L58.1989 182.798L57.1262 180.203L57.2749 180.094L57.1716 184.483L56.2816 185.053ZM61.6318 181.625L63.1827 175.566L64.7551 174.558L66.1174 178.75L65.1087 179.397L64.0125 175.818L64.3175 175.768L63.5521 176.259L63.876 175.905L62.6049 181.001L61.6318 181.625ZM62.7476 179.654L63.0668 178.506L64.7637 177.418L65.0438 178.182L62.7476 179.654ZM66.6823 178.388L66.8043 173.203L67.7774 172.58L67.6554 177.765L66.6823 178.388ZM69.3108 176.704L68.0931 175.306L69.1611 174.621L70.4381 175.982L69.3108 176.704ZM67.4331 176.284L67.4545 175.375L68.5225 174.69C68.6649 174.599 68.7883 174.488 68.8927 174.356C69.0011 174.217 69.0845 174.069 69.1427 173.911C69.2051 173.746 69.2382 173.582 69.242 173.417C69.2459 173.253 69.2196 173.129 69.1631 173.045C69.1107 172.953 69.0319 172.909 68.9267 172.912C68.8255 172.907 68.7037 172.951 68.5613 173.042L67.4933 173.726L67.5163 172.747L68.5072 172.112C68.8671 171.881 69.1781 171.747 69.44 171.708C69.7021 171.665 69.9013 171.725 70.0377 171.888C70.1742 172.05 70.2378 172.324 70.2288 172.709L70.2261 172.822C70.2172 173.202 70.1365 173.566 69.9842 173.913C69.836 174.253 69.6278 174.572 69.3598 174.869C69.0959 175.158 68.7839 175.418 68.424 175.649L67.4331 176.284ZM72.949 174.504C72.5574 174.755 72.2231 174.891 71.946 174.911C71.669 174.927 71.4446 174.86 71.2728 174.711C71.1011 174.558 70.9753 174.356 70.8955 174.106C70.8197 173.85 70.7852 173.576 70.7921 173.285L70.7957 173.13C70.8032 172.81 70.8542 172.468 70.9485 172.102C71.0429 171.731 71.1821 171.362 71.3661 170.995C71.554 170.624 71.7862 170.277 72.0627 169.952C72.3432 169.619 72.6714 169.332 73.0471 169.092C73.4387 168.841 73.7828 168.706 74.0793 168.687C74.3759 168.668 74.6095 168.757 74.7802 168.953C74.955 169.141 75.0533 169.432 75.0753 169.825L74.0962 170.453C74.0734 170.264 74.0143 170.128 73.9188 170.046C73.8233 169.964 73.6974 169.933 73.5411 169.955C73.3887 169.974 73.2156 170.045 73.0218 170.17C72.828 170.294 72.655 170.444 72.5028 170.62C72.3506 170.796 72.2213 170.99 72.1151 171.202C72.0128 171.411 71.9315 171.634 71.8714 171.871C71.8153 172.101 71.7844 172.339 71.7787 172.583C71.7731 172.822 71.7936 173.027 71.8402 173.196C71.891 173.358 71.966 173.481 72.0653 173.565C72.1687 173.642 72.2966 173.671 72.449 173.652C72.6015 173.629 72.7766 173.553 72.9744 173.427C73.275 173.234 73.5302 172.985 73.74 172.679C73.9537 172.371 74.0859 172.05 74.1366 171.717L75.1097 171.094C75.0653 171.492 74.9503 171.906 74.7649 172.335C74.5836 172.756 74.3384 173.158 74.0294 173.542C73.7245 173.917 73.3643 174.238 72.949 174.504ZM77.7835 171.406C77.3919 171.657 77.0516 171.797 76.7626 171.825C76.4777 171.845 76.2435 171.785 76.0598 171.644C75.8762 171.498 75.7406 171.3 75.653 171.051C75.5693 170.799 75.5308 170.53 75.5376 170.244L75.5412 170.089C75.5487 169.769 75.6036 169.424 75.7058 169.053C75.8121 168.675 75.9651 168.297 76.1649 167.919C76.3647 167.542 76.6108 167.185 76.9031 166.85C77.1955 166.51 77.5315 166.218 77.9113 165.975C78.291 165.731 78.6234 165.595 78.9085 165.565C79.1938 165.53 79.4303 165.577 79.6182 165.707C79.806 165.836 79.9457 166.026 80.0372 166.278C80.1288 166.524 80.1708 166.807 80.1633 167.127L80.1596 167.282C80.1529 167.568 80.0984 167.897 79.9962 168.268C79.894 168.639 79.7448 169.019 79.5486 169.408C79.3526 169.793 79.1062 170.161 78.8097 170.513C78.5171 170.858 78.1751 171.156 77.7835 171.406ZM77.8088 170.329C78.0145 170.197 78.1995 170.037 78.3636 169.848C78.5317 169.657 78.6749 169.45 78.7932 169.226C78.9154 169 79.0085 168.769 79.0724 168.534C79.1364 168.298 79.1711 168.068 79.1764 167.842C79.182 167.603 79.1555 167.405 79.0968 167.248C79.0423 167.084 78.9574 166.967 78.8421 166.898C78.7309 166.821 78.5952 166.795 78.4349 166.819C78.2746 166.843 78.0916 166.921 77.8859 167.053C77.6802 167.184 77.4953 167.342 77.3313 167.526C77.1672 167.71 77.0241 167.915 76.9019 168.141C76.7838 168.36 76.6926 168.59 76.6286 168.83C76.5646 169.065 76.5298 169.302 76.5241 169.542C76.5188 169.767 76.5435 169.96 76.5982 170.119C76.6529 170.278 76.7359 170.396 76.847 170.473C76.9622 170.547 77.0998 170.575 77.26 170.555C77.4202 170.536 77.6031 170.46 77.8088 170.329ZM82.3129 168.504C81.9213 168.755 81.5927 168.894 81.3271 168.921C81.0617 168.943 80.8627 168.871 80.7303 168.706C80.5979 168.537 80.5356 168.285 80.5435 167.952L81.4869 167.347C81.4838 167.479 81.5106 167.582 81.5673 167.656C81.6279 167.729 81.7207 167.759 81.8456 167.749C81.9706 167.733 82.134 167.661 82.3357 167.532C82.5177 167.415 82.6706 167.289 82.7946 167.154C82.9185 167.02 83.0133 166.882 83.0789 166.743C83.1447 166.599 83.1791 166.462 83.1822 166.33C83.186 166.166 83.1297 166.075 83.0133 166.057C82.8969 166.034 82.7066 166.094 82.4422 166.235L82.1167 166.409C81.6865 166.643 81.3462 166.704 81.0956 166.592C80.845 166.479 80.725 166.195 80.7358 165.74C80.7435 165.411 80.8154 165.085 80.9516 164.762C81.0917 164.436 81.282 164.134 81.5223 163.855C81.7627 163.571 82.0451 163.326 82.3695 163.118C82.7096 162.9 82.9987 162.784 83.2367 162.77C83.4787 162.749 83.662 162.824 83.7866 162.994C83.9113 163.159 83.9696 163.411 83.9617 163.749L83.0123 164.357C83.0153 164.23 82.9923 164.132 82.9433 164.062C82.8945 163.986 82.8194 163.949 82.7181 163.949C82.6207 163.947 82.4969 163.994 82.3466 164.09C82.2042 164.181 82.0829 164.287 81.9827 164.407C81.8864 164.524 81.8134 164.647 81.7636 164.776C81.7139 164.9 81.6877 165.019 81.6851 165.132C81.6817 165.277 81.7222 165.376 81.8067 165.428C81.8912 165.481 82.0321 165.453 82.2294 165.345L82.5608 165.167C82.8765 164.997 83.1535 164.901 83.3917 164.878C83.63 164.85 83.8137 164.905 83.9429 165.045C84.0761 165.177 84.139 165.402 84.1315 165.722C84.1238 166.051 84.0438 166.386 83.8916 166.729C83.7434 167.065 83.5352 167.385 83.267 167.691C82.9988 167.997 82.6807 168.268 82.3129 168.504ZM87.9968 164.862C87.6052 165.113 87.2708 165.248 86.9938 165.268C86.7168 165.284 86.4924 165.217 86.3206 165.068C86.1489 164.915 86.0231 164.713 85.9433 164.464C85.8675 164.207 85.833 163.933 85.8399 163.642L85.8435 163.487C85.851 163.167 85.9019 162.825 85.9963 162.459C86.0907 162.089 86.2299 161.72 86.4138 161.352C86.6018 160.982 86.834 160.634 87.1104 160.309C87.391 159.976 87.7191 159.69 88.0949 159.449C88.4865 159.198 88.8306 159.063 89.1271 159.044C89.4237 159.025 89.6573 159.114 89.828 159.31C90.0028 159.498 90.1011 159.789 90.123 160.182L89.144 160.81C89.1212 160.621 89.0621 160.485 88.9666 160.403C88.8711 160.321 88.7452 160.29 88.5889 160.312C88.4365 160.331 88.2634 160.403 88.0696 160.527C87.8757 160.651 87.7027 160.801 87.5505 160.977C87.3983 161.153 87.2691 161.347 87.1628 161.559C87.0605 161.768 86.9793 161.991 86.9192 162.228C86.8631 162.459 86.8322 162.696 86.8265 162.94C86.8208 163.18 86.8413 163.384 86.888 163.553C86.9388 163.715 87.0138 163.838 87.1131 163.922C87.2165 163.999 87.3443 164.028 87.4967 164.009C87.6492 163.986 87.8244 163.91 88.0221 163.784C88.3228 163.591 88.578 163.342 88.7878 163.036C89.0015 162.728 89.1337 162.408 89.1844 162.074L90.1575 161.451C90.113 161.849 89.9981 162.263 89.8127 162.692C89.6314 163.113 89.3862 163.516 89.0772 163.899C88.7723 164.275 88.4121 164.596 87.9968 164.862ZM90.3021 163.253L91.853 157.193L93.4254 156.186L94.7877 160.378L93.779 161.024L92.6828 157.446L92.9878 157.396L92.2224 157.886L92.5463 157.533L91.2752 162.629L90.3021 163.253ZM91.4179 161.282L91.7371 160.133L93.4341 159.046L93.7141 159.81L91.4179 161.282ZM95.3526 160.016L95.4746 154.831L96.4477 154.207L96.3257 159.393L95.3526 160.016ZM97.9811 158.332L96.7634 156.933L97.8314 156.249L99.1085 157.609L97.9811 158.332ZM96.1034 157.911L96.1248 157.002L97.1928 156.318C97.3352 156.227 97.4586 156.115 97.563 155.984C97.6715 155.845 97.7548 155.697 97.8131 155.539C97.8754 155.374 97.9085 155.21 97.9123 155.045C97.9162 154.881 97.8899 154.757 97.8334 154.672C97.781 154.581 97.7022 154.537 97.597 154.539C97.4958 154.535 97.374 154.578 97.2316 154.67L96.1636 155.354L96.1866 154.375L97.1775 153.74C97.5375 153.509 97.8484 153.375 98.1103 153.336C98.3724 153.293 98.5716 153.353 98.708 153.515C98.8445 153.678 98.9082 153.951 98.8991 154.336L98.8965 154.449C98.8875 154.83 98.8069 155.194 98.6545 155.541C98.5063 155.881 98.2981 156.2 98.0301 156.496C97.7662 156.786 97.4542 157.046 97.0943 157.276L96.1034 157.911ZM100.555 156.682L99.359 152.383L100.362 151.741L101.304 155.411L101.082 155.422L101.687 155.034L101.446 155.32L102.516 150.361L103.489 149.737L102.139 155.667L100.555 156.682ZM103.287 154.932L104.838 148.872L106.41 147.865L107.773 152.057L106.764 152.704L105.668 149.125L105.973 149.075L105.207 149.565L105.531 149.212L104.26 154.308L103.287 154.932ZM104.403 152.961L104.722 151.812L106.419 150.725L106.699 151.489L104.403 152.961ZM108.338 151.695L108.459 146.552L109.432 145.929L109.311 151.071L108.338 151.695ZM109.192 151.148L109.216 150.133L111.032 148.97L111.008 149.984L109.192 151.148ZM114.447 147.78L114.568 142.637L115.541 142.014L115.42 147.157L114.447 147.78ZM111.646 149.575L111.767 144.432L112.74 143.809L112.619 148.951L111.646 149.575ZM112.496 146.983L112.52 145.969L114.692 144.577L114.668 145.592L112.496 146.983ZM118.465 145.337C118.074 145.588 117.734 145.727 117.445 145.755C117.16 145.776 116.925 145.716 116.742 145.574C116.558 145.428 116.423 145.231 116.335 144.981C116.251 144.73 116.213 144.461 116.219 144.174L116.223 144.019C116.231 143.7 116.286 143.355 116.388 142.984C116.494 142.606 116.647 142.228 116.847 141.85C117.047 141.472 117.293 141.116 117.585 140.78C117.877 140.44 118.213 140.149 118.593 139.905C118.973 139.662 119.305 139.525 119.59 139.495C119.876 139.46 120.112 139.508 120.3 139.637C120.488 139.767 120.628 139.957 120.719 140.208C120.811 140.455 120.853 140.738 120.845 141.057L120.842 141.212C120.835 141.499 120.78 141.827 120.678 142.198C120.576 142.569 120.427 142.949 120.231 143.339C120.034 143.723 119.788 144.092 119.492 144.443C119.199 144.788 118.857 145.086 118.465 145.337ZM118.491 144.259C118.696 144.127 118.881 143.967 119.046 143.779C119.214 143.588 119.357 143.38 119.475 143.156C119.597 142.93 119.69 142.699 119.754 142.464C119.818 142.229 119.853 141.998 119.858 141.773C119.864 141.533 119.837 141.335 119.779 141.179C119.724 141.015 119.639 140.898 119.524 140.828C119.413 140.752 119.277 140.725 119.117 140.749C118.957 140.773 118.774 140.851 118.568 140.983C118.362 141.115 118.177 141.273 118.013 141.456C117.849 141.64 117.706 141.845 117.584 142.072C117.466 142.291 117.375 142.52 117.31 142.76C117.247 142.996 117.212 143.233 117.206 143.472C117.201 143.698 117.225 143.89 117.28 144.05C117.335 144.209 117.418 144.327 117.529 144.404C117.644 144.478 117.782 144.505 117.942 144.486C118.102 144.466 118.285 144.391 118.491 144.259Z" fill="#F1F7FF"/>
<path id="Vector_20" d="M18.1924 210.386L18.1203 213.45C18.0594 216.042 20.4939 215.991 22.2728 214.851C24.0516 213.711 24.9437 213.139 26.8188 211.938C28.6938 210.736 31.0129 207.421 31.0662 205.154L31.1688 200.794C31.1173 198.854 29.6662 198.474 27.1127 199.448C23.9451 200.656 22.9506 200.694 22.8308 199.406L22.9251 195.4C22.9925 194.012 23.4179 193.411 24.6467 192.556L27.4137 190.783C29.4022 189.712 30.9659 190.104 31.0747 192.383L31.0248 194.504C31.0348 195.25 30.9021 195.538 30.4098 195.826L27.544 197.663C27.0599 197.986 26.9325 197.861 26.9731 197.1L26.998 196.04C26.8889 195.015 26.4032 195.126 25.1509 195.947L20.3085 199.05C19.1789 199.81 18.8912 200.469 18.8778 201.94L18.839 203.589C18.8677 205.71 19.9449 205.787 21.715 205.46C25.7528 204.475 26.9962 204.397 26.9713 205.457L26.9463 206.517C26.9241 207.46 26.3172 208.429 25.4279 208.999C25.4279 208.999 25.4279 208.999 23.8466 210.012C22.2654 211.026 22.4003 209.431 22.4003 209.431L22.4419 207.663C22.4585 206.956 22.0715 206.856 21.6762 207.109L19.1068 208.756C18.5138 209.136 18.2063 209.797 18.1924 210.386Z" stroke="#F1F7FF" stroke-width="0.715162"/>
</g>
</g>
</g>
</g>
</g>
</g>
<defs>
<filter id="filter0_i_224_247" x="0.171875" y="2.9585" width="182.197" height="243.791" filterUnits="userSpaceOnUse" color-interpolation-filters="sRGB">
<feFlood flood-opacity="0" result="BackgroundImageFix"/>
<feBlend mode="normal" in="SourceGraphic" in2="BackgroundImageFix" result="shape"/>
<feColorMatrix in="SourceAlpha" type="matrix" values="0 0 0 0 0 0 0 0 0 0 0 0 0 0 0 0 0 0 127 0" result="hardAlpha"/>
<feOffset dx="0.880886" dy="0.880886"/>
<feGaussianBlur stdDeviation="0.880886"/>
<feComposite in2="hardAlpha" operator="arithmetic" k2="-1" k3="1"/>
<feColorMatrix type="matrix" values="0 0 0 0 1 0 0 0 0 1 0 0 0 0 1 0 0 0 0.25 0"/>
<feBlend mode="normal" in2="shape" result="effect1_innerShadow_224_247"/>
</filter>
<linearGradient id="paint0_linear_224_247" x1="153.566" y1="35.8793" x2="151.283" y2="213.807" gradientUnits="userSpaceOnUse">
<stop stop-color="#96BDF8"/>
<stop offset="1" stop-color="#4589F0"/>
</linearGradient>
<linearGradient id="paint1_linear_224_247" x1="44.3013" y1="135.727" x2="17.2513" y2="158.456" gradientUnits="userSpaceOnUse">
<stop stop-color="#F4F4F4"/>
<stop offset="1" stop-color="#D6D6D6"/>
</linearGradient>
</defs>
</svg>
