<svg width="131" height="91" viewBox="0 0 131 91" fill="none" xmlns="http://www.w3.org/2000/svg">
<path d="M61.9076 76.9857L78.382 31.7226C80.1666 26.8193 82.8887 26.2639 85.9665 27.0313C85.9665 27.0313 101.746 30.9657 104.828 31.734C107.909 32.5021 111.234 33.7421 109.724 37.8909C108.213 42.0406 108.625 40.9082 107.801 43.1719C106.978 45.4357 104.616 47.315 100.766 46.355C96.9148 45.3948 91.9129 44.1477 91.9129 44.1477C91.9129 44.1477 98.8238 25.1603 100.013 21.893C101.202 18.6266 103.147 16.9151 108.093 18.1484C113.039 19.3814 111.172 18.916 117.716 20.5475C124.259 22.179 131.322 27.0004 128.636 34.3779C125.951 41.7564 123.557 48.3342 123.557 48.3342C121.139 52.6687 118.42 53.9689 113.745 54.5283C120.896 57.9564 123.013 61.3643 121.365 65.8908C121.365 65.8908 120.405 68.5306 116.287 79.8464C112.168 91.1631 100.455 89.8878 96.2212 88.8323C91.9869 87.7765 93.5267 88.1604 93.5267 88.1604C86.5979 86.4329 63.89 80.7712 63.89 80.7712C62.3502 80.3872 61.3583 78.4949 61.9076 76.9857ZM88.0414 55.9362C88.0414 55.9362 96.8934 58.1432 100.359 59.0074C103.824 59.8713 104.923 62.6145 103.963 65.2541C103.002 67.8946 101.903 70.9119 101.903 70.9119C100.668 74.307 97.4261 75.1439 93.576 74.184L82.4128 71.4007L88.0414 55.9362Z" stroke="url(#paint0_linear_287_82)" stroke-width="2.4356"/>
<path d="M5.58537 40.5085L2.01605 50.3152C-1.00433 58.6136 6.90756 65.9345 13.8891 67.6752C20.8706 69.4159 24.372 70.2889 31.7312 72.1238C39.0899 73.9585 50.1845 70.2397 52.8256 62.9834L57.9049 49.028C59.8517 42.5191 55.5842 36.8089 46.2835 32.1417C34.7464 26.3533 31.4963 23.4171 32.5118 18.8346L37.1797 6.00962C38.9089 1.67465 40.9366 1.01483 45.8327 1.99572L56.6925 4.70338C64.2759 7.31366 68.8945 13.4086 66.7634 21.2031L64.2923 27.9924C63.5113 30.4667 62.7699 31.0003 60.8673 30.4296L49.6197 27.6253C47.7054 27.1941 47.4302 26.3946 48.3901 24.0275L49.6259 20.6324C50.3897 16.9434 48.7016 15.8122 43.7666 14.6463L24.7613 9.90775C20.2887 8.9197 18.6418 10.1952 16.9973 14.9664L15.0755 20.2465C12.8584 27.2764 16.2494 30.8452 22.3181 35.218C36.4198 44.4153 40.5174 47.984 39.282 51.3782L38.0463 54.7733C36.9481 57.7906 33.9339 59.0962 30.4437 58.226C30.4437 58.226 30.4437 58.226 24.2374 56.6786C18.0316 55.1314 20.2042 50.3247 20.2042 50.3247L22.2635 44.6669C23.0871 42.4041 21.9477 40.8849 20.3963 40.4981L10.3118 37.9838C7.98467 37.4036 6.27181 38.6226 5.58537 40.5085Z" stroke="url(#paint1_linear_287_82)" stroke-width="2.4356"/>
<defs>
<linearGradient id="paint0_linear_287_82" x1="107.338" y1="8.10613" x2="-11.4969" y2="119.728" gradientUnits="userSpaceOnUse">
<stop stop-color="#E4F0FF"/>
<stop offset="1" stop-color="#F1F7FF" stop-opacity="0"/>
</linearGradient>
<linearGradient id="paint1_linear_287_82" x1="107.338" y1="8.10613" x2="-11.4969" y2="119.728" gradientUnits="userSpaceOnUse">
<stop stop-color="#E4F0FF"/>
<stop offset="1" stop-color="#F1F7FF" stop-opacity="0"/>
</linearGradient>
</defs>
</svg>
