<svg  viewBox="0 0 248 391" fill="none" xmlns="http://www.w3.org/2000/svg">
<g id="money-bank">
<g id="Vector">
<path d="M108 219.5L138 232.5L151.5 239L161.5 249.5L163.5 270.5L156 283.5L146 290C143.333 290 138 289.6 138 288V232.5L108 219.5L110.5 290L93.5 279L82.5 256.5L4.5 258.5L16.5 301.5L60.5 338L108 348.5V383H137V348.5H162L216.5 319.5L241.5 275.5L238.5 223L202.5 190L139.5 163L123 148.5L102 156L108 219.5Z" fill="url(#paint0_linear_27_10)"/>
<path d="M109.5 153.5V99L98.5 104L81.5 123.5L95 149L109.5 165V221.5L98.5 219L34 194L10 162L5 121.5L26.5 71.5L66 49.5L107.5 40V5.5H135L139 13.5V40L161 43.5L205.5 63L231 96L238 130H161L155 114.5L139 101.5V169L109.5 153.5Z" fill="url(#paint1_linear_27_10)"/>
</g>
<path id="Layer 1" fill-rule="evenodd" clip-rule="evenodd" d="M105.231 2.2404C103.986 4.0164 103.674 7.5344 103.674 19.7714C103.674 31.1724 103.355 35.1654 102.424 35.4154C101.737 35.6004 96.2302 36.5294 90.1872 37.4804C31.0032 46.7974 -3.81984 86.4864 0.659158 139.517C4.29116 182.513 26.4482 204.209 84.0462 221.17C93.4671 223.944 101.737 226.38 102.424 226.584C103.385 226.869 103.674 233.35 103.674 254.614V282.273L100.508 279.831C96.1932 276.504 91.9072 268.583 90.5572 261.44C88.6622 251.419 91.5772 252.017 44.6352 252.017C-4.97884 252.017 -2.21284 250.578 2.24316 274.066C10.5062 317.625 44.1562 345.146 99.4242 353.547L103.674 354.193V370.45C103.674 391.395 102.313 390.017 123.003 390.017C143.849 390.017 142.674 391.211 142.674 370.017V354.017L146.424 354.016C162.005 354.01 187.849 345.724 204.334 335.45C260.26 300.593 262.608 220.172 208.674 186.771C199.041 180.806 185.815 175.598 161.863 168.34L142.674 162.525V136.271C142.674 120.318 143.048 110.017 143.626 110.017C145.617 110.017 150.832 119.281 152.489 125.76C153.439 129.477 154.571 133.08 155.004 133.767C155.615 134.735 165.472 135.017 198.758 135.017H241.724L242.656 132.564C246.635 122.098 234.566 87.7304 221.419 72.0874C205.416 53.0464 169.7 36.0174 145.767 36.0174H142.674V20.2404C142.674 -1.3536 143.996 0.017405 123.174 0.017405C107.374 0.017405 106.732 0.0974047 105.231 2.2404ZM131.674 26.9464C131.674 46.0394 131.202 45.2704 143.879 46.8284C193.763 52.9584 224.069 78.6394 231.137 120.767L231.85 125.017H197.8H163.751L162.608 120.773C158.455 105.35 139.442 89.6494 132.874 96.2174C131.108 97.9834 131.156 169.36 132.924 170.766C133.612 171.313 140.024 173.453 147.174 175.522C205.737 192.471 225.223 206.196 233.817 236.552C249.103 290.542 202.243 344.017 139.646 344.017C131.912 344.017 131.674 344.587 131.674 363.088V379.017H123.174H114.674V362.639C114.674 343.506 115.29 344.605 103.669 343.024C50.1062 335.739 11.6742 302.915 11.6742 264.452C11.6742 263.234 16.7862 263.017 45.5102 263.017H79.3462L80.9692 268.856C85.3962 284.777 106.588 301.703 113.474 294.817C115.337 292.954 115.182 220.683 113.311 219.131C112.561 218.508 103.449 215.573 93.0611 212.607C36.0372 196.328 15.9622 178.609 11.5512 140.662C5.75716 90.8174 41.1922 53.8744 101.547 46.8384C115.288 45.2364 114.674 46.1664 114.674 26.9464V11.0174H123.174H131.674V26.9464ZM103.925 93.5624C70.5652 102.545 68.5012 142.541 100.529 159.371C114.865 166.905 114.674 167.334 114.674 127.502C114.674 88.9104 115.187 90.5304 103.925 93.5624ZM103.674 126.517C103.674 150.855 103.896 150.369 96.2612 142.734C85.5152 131.988 86.5372 115.499 98.4162 107.965C100.973 106.344 103.202 105.017 103.37 105.017C103.537 105.017 103.674 114.692 103.674 126.517ZM132.874 227.217C131.989 228.102 131.674 237.145 131.674 261.694V294.971L134.063 296.536C138.897 299.704 154.641 293.269 161.712 285.237C169.912 275.92 172.559 259.535 167.685 248.247C162.557 236.367 138.349 221.742 132.874 227.217ZM148.31 242.868C163.89 254.154 162.93 274.639 146.424 283.129L142.674 285.058V262.537C142.674 250.151 143.056 240.017 143.524 240.017C143.991 240.017 146.145 241.3 148.31 242.868Z" fill="url(#paint2_linear_27_10)"/>
</g>
<defs>
<linearGradient id="paint0_linear_27_10" x1="27.1433" y1="396.464" x2="189.147" y2="-13.953" gradientUnits="userSpaceOnUse">
<stop stop-color="#0F521D"/>
<stop offset="1" stop-color="#32C953"/>
</linearGradient>
<linearGradient id="paint1_linear_27_10" x1="27.1433" y1="396.464" x2="189.147" y2="-13.953" gradientUnits="userSpaceOnUse">
<stop stop-color="#0F521D"/>
<stop offset="1" stop-color="#32C953"/>
</linearGradient>
<linearGradient id="paint2_linear_27_10" x1="23.6694" y1="403.947" x2="189.629" y2="-21.4197" gradientUnits="userSpaceOnUse">
<stop stop-color="#0F521D"/>
<stop offset="1" stop-color="#32C953"/>
</linearGradient>
</defs>
</svg>
