<svg viewBox="0 0 496 1012" fill="none" xmlns="http://www.w3.org/2000/svg">
<g id="phone">
<g id="Group">
<g id="Group_2">
<path id="Vector" d="M492.911 158.873L491.554 168.402L343.462 933.738C337.605 964.022 314.108 980.661 289.284 974.091C288.952 974.021 288.628 973.942 288.296 973.853C287.964 973.772 287.64 973.703 287.309 973.614C286.986 973.535 286.654 973.454 286.321 973.375C285.998 973.296 285.665 973.217 285.342 973.138C285.009 973.057 284.686 972.988 284.355 972.889L283.909 972.794C301.894 975.462 318.625 966.029 327.705 948.255C328.25 947.196 328.767 946.102 329.247 944.981C329.247 944.971 329.247 944.971 329.247 944.971C329.58 944.219 329.894 943.454 330.189 942.675C331.527 939.191 332.608 935.437 333.378 931.45L483.061 157.867C483.154 157.378 483.248 156.879 483.323 156.386C483.717 154.13 483.997 151.889 484.161 149.664C486.336 120.31 469.516 94.1234 444.166 88.3728C443.672 88.2388 443.169 88.1119 442.665 87.9946C442.171 87.8694 441.668 87.7537 441.163 87.6364C440.669 87.5112 440.166 87.3855 439.662 87.2682C439.168 87.1343 438.664 87.0273 438.16 86.91C437.666 86.7761 437.163 86.6591 436.66 86.5421C436.337 86.4533 436.005 86.3739 435.673 86.2932L435.159 86.1842C434.989 86.1278 434.808 86.0894 434.627 86.0509C434.182 85.8972 433.746 85.7555 433.302 85.612L433.235 85.5977C432.808 85.4681 432.382 85.3385 431.954 85.2273C432.391 85.3203 432.809 85.4191 433.247 85.5411C433.75 85.6581 434.244 85.7733 434.747 85.909C435.251 86.0263 435.745 86.1312 436.249 86.2672C436.743 86.3824 437.228 86.5043 437.721 86.6292L437.749 86.6352C438.253 86.7524 438.746 86.8674 439.25 87.0033C439.755 87.1106 440.248 87.2355 440.751 87.3715C441.255 87.4785 441.749 87.6037 442.253 87.7297C442.756 87.8467 443.251 87.9619 443.755 88.0979C444.258 88.2149 444.752 88.3301 445.255 88.4658C445.759 88.5731 446.252 88.698 446.756 88.824C447.261 88.9413 447.754 89.0649 448.257 89.2022C448.761 89.3092 449.256 89.4244 449.759 89.5604L450.121 89.6373C478.707 99.5497 497.317 127.939 492.911 158.873Z" fill="url(#paint0_linear_228_213)"/>
<path id="Vector_2" d="M483.068 157.76L333.38 931.448C327.893 959.797 306.929 976.203 283.909 972.788C283.728 972.747 283.547 972.706 283.367 972.655C283.035 972.57 282.711 972.497 282.38 972.412C282.057 972.329 281.724 972.253 281.392 972.168C281.068 972.094 280.736 972.019 280.414 971.927C280.081 971.851 279.758 971.779 279.427 971.693C279.095 971.609 278.771 971.535 278.439 971.449C278.107 971.364 277.784 971.291 277.452 971.206C277.129 971.132 276.796 971.057 276.464 970.962C276.142 970.888 275.808 970.814 275.486 970.73C275.476 970.738 275.466 970.736 275.458 970.724C275.136 970.642 274.822 970.57 274.499 970.487C271.906 969.87 269.296 968.975 266.695 967.748L88.0608 883.855L87.7215 883.7L37.4359 860.978C14.1928 850.479 0.320175 817.712 6.12884 787.665L138.314 104.496L138.314 104.486L138.324 104.478L141.108 89.2789C144.297 71.8603 153.163 57.4335 164.433 49.1349C165.34 48.4584 166.274 47.8281 167.215 47.2383C167.849 46.8436 168.483 46.4676 169.125 46.1134C169.766 45.7591 170.407 45.4249 171.067 45.1036C173.34 43.9931 175.688 43.125 178.072 42.5185C178.753 42.35 179.443 42.1922 180.132 42.0645C183.914 41.354 187.788 41.3021 191.656 41.9921L426.867 84.0308L434.635 85.9285C434.816 85.9695 434.997 86.0104 435.168 86.0593C435.671 86.1638 436.175 86.2873 436.668 86.4184C437.172 86.5332 437.675 86.6565 438.168 86.7876C438.673 86.9024 439.176 87.0156 439.669 87.1468C440.173 87.2616 440.676 87.3848 441.169 87.516C441.673 87.6307 442.176 87.744 442.669 87.8751C443.172 87.9897 443.676 88.1132 444.169 88.2443C471.864 94.5271 489.373 125.208 483.068 157.76Z" fill="url(#paint1_linear_228_213)"/>
<g id="Group_3">
<g id="Group_4">
<g id="Group_5">
<g id="Group_6">
<path id="Vector_3" d="M445.649 101.124C444.988 100.484 444.296 99.8771 443.594 99.3063C444.296 99.887 444.987 100.494 445.649 101.124ZM442.065 98.1186C442.558 98.4748 443.03 98.8369 443.502 99.2276C443.28 99.0597 443.067 98.8837 442.844 98.7155C442.594 98.5129 442.334 98.3167 442.065 98.1186ZM435.744 94.3448C437.134 94.9926 438.483 95.7295 439.777 96.5518C440.071 96.7351 440.354 96.9322 440.641 97.1266C438.856 95.9209 436.978 94.8764 435.009 94.0176C435.254 94.1238 435.499 94.2299 435.744 94.3448ZM434.323 93.7195C434.182 93.6582 434.05 93.6086 433.917 93.5591C433.672 93.4542 433.428 93.3595 433.183 93.2659C433.802 93.4945 434.406 93.7549 435.009 94.0176C434.972 94.0008 434.935 93.9843 434.898 93.9675C434.71 93.8848 434.511 93.801 434.323 93.7195ZM441.333 97.5894C441.296 97.5613 441.268 97.5454 441.231 97.5174C441.039 97.3822 440.837 97.2576 440.642 97.1256C441.117 97.4467 441.596 97.7624 442.057 98.1056C441.824 97.9366 441.584 97.7648 441.333 97.5894ZM431.652 92.7216C431.387 92.6415 431.112 92.5603 430.836 92.4879C431.338 92.6411 431.83 92.791 432.313 92.9603C432.606 93.0566 432.899 93.1629 433.183 93.2659C432.749 93.0895 432.315 92.9406 431.87 92.7906C431.794 92.7645 431.727 92.7489 431.652 92.7216ZM38.4665 852.976C38.5882 853.052 38.7 853.127 38.8111 853.191C38.7919 853.177 38.7653 853.161 38.7461 853.147C38.6534 853.087 38.5604 853.036 38.4665 852.976ZM38.1144 852.73C38.1336 852.744 38.1516 852.758 38.1711 852.762C38.0592 852.688 37.9473 852.614 37.837 852.53C37.9282 852.598 38.022 852.66 38.1144 852.73ZM37.6671 852.422C37.7239 852.454 37.7791 852.496 37.8346 852.528C37.7141 852.452 37.5928 852.366 37.4714 852.28C37.5373 852.334 37.6022 852.378 37.6671 852.422ZM31.4204 846.893C31.4302 846.895 31.4396 846.907 31.4482 846.909C31.3388 846.797 31.238 846.686 31.1373 846.574C31.2295 846.683 31.3209 846.781 31.4204 846.893ZM29.1761 844.249C29.3119 844.416 29.4488 844.585 29.5845 844.753C29.4394 844.573 29.2942 844.394 29.1588 844.216C29.1671 844.227 29.1765 844.239 29.1761 844.249ZM19.522 825.352C19.6048 825.625 19.6879 825.889 19.7707 826.162C19.83 826.332 19.8877 826.512 19.9471 826.681C19.8548 826.396 19.7626 826.111 19.672 825.815C19.6218 825.668 19.5719 825.51 19.522 825.352ZM16.5919 810.477C16.6075 810.558 16.6118 810.648 16.6173 810.738C16.5922 810.467 16.5679 810.177 16.5517 809.9C16.5624 810.087 16.5813 810.287 16.5919 810.477ZM16.3996 807.7C16.4064 807.751 16.4051 807.789 16.4135 807.83C16.407 807.77 16.3993 807.709 16.4025 807.652L16.3996 807.7ZM16.3527 806.68C16.3599 806.721 16.3589 806.751 16.3661 806.791C16.3446 806.453 16.3418 806.109 16.3293 805.764C16.3346 806.069 16.3388 806.374 16.3527 806.68ZM434.627 86.0512C433.748 85.7435 432.859 85.474 431.958 85.2308C431.608 85.1326 431.247 85.0407 430.885 84.9588C430.42 84.8337 429.945 84.7364 429.469 84.6378C429.193 84.5754 428.907 84.5196 428.622 84.4753L428.574 84.4639L426.859 84.1534L191.648 42.1035C187.78 41.4121 183.906 41.4654 180.124 42.1846C179.436 42.3127 178.746 42.4604 178.064 42.6387C175.681 43.2439 173.332 44.112 171.059 45.2238C170.401 45.5354 169.759 45.8796 169.118 46.2338C168.477 46.588 167.843 46.964 167.209 47.3587C166.267 47.9485 165.333 48.5789 164.427 49.2554C153.157 57.5527 144.29 71.9782 141.102 89.3943L138.318 104.591L138.308 104.607L12.8228 789.31C7.29851 819.429 19.9655 851.888 41.3956 861.957L87.7214 883.71L88.0607 883.865L266.694 967.762C269.617 969.13 272.547 970.116 275.458 970.728C275.468 970.74 275.476 970.742 275.486 970.734C297.659 975.388 318.399 958.453 323.797 928.952L465.91 153.533C471.542 122.782 457.636 94.0675 434.627 86.0512ZM465.618 144.485L465.52 145.932C465.477 146.422 465.434 146.902 465.381 147.389C465.338 147.879 465.277 148.364 465.224 148.852C465.105 149.746 464.984 150.639 464.835 151.546C464.75 152.114 464.655 152.69 464.55 153.264L463.519 158.867L323.52 922.768C322.37 929.05 320.479 934.771 318.015 939.806C317.832 940.196 317.64 940.583 317.44 940.949C317.248 941.337 317.048 941.712 316.837 942.076C316.69 942.356 316.54 942.646 316.374 942.911C315.912 943.727 315.421 944.526 314.922 945.304C314.703 945.657 314.476 945.997 314.249 946.327C313.928 946.802 313.608 947.259 313.268 947.721C313.05 948.035 312.835 948.328 312.599 948.627C312.363 948.935 312.118 949.253 311.862 949.557C311.186 950.412 310.474 951.24 309.733 952.033C309.501 952.274 309.266 952.535 309.025 952.773C308.762 953.046 308.499 953.32 308.218 953.578C307.955 953.842 307.684 954.104 307.401 954.363C307.13 954.625 306.848 954.875 306.558 955.112C306.277 955.362 305.995 955.612 305.696 955.847C305.135 956.327 304.546 956.781 303.948 957.214C303.041 957.88 302.117 958.513 301.167 959.101C300.88 959.271 300.594 959.441 300.307 959.601C299.655 959.972 298.994 960.322 298.324 960.66C298.038 960.801 297.744 960.941 297.449 961.069C296.486 961.517 295.496 961.909 294.508 962.254C294.175 962.385 293.843 962.495 293.502 962.594C292.838 962.816 292.157 962.994 291.485 963.165C291.135 963.251 290.814 963.337 290.475 963.397C289.387 963.64 288.282 963.82 287.173 963.931C286.873 963.981 286.583 964.003 286.294 964.026C285.946 964.065 285.599 964.085 285.243 964.101C284.896 964.12 284.54 964.128 284.184 964.135C283.396 964.152 282.608 964.15 281.813 964.106C281.535 964.093 281.258 964.069 280.971 964.043C279.936 963.975 278.886 963.845 277.827 963.663C277.465 963.6 277.093 963.536 276.723 963.462C276.342 963.395 275.952 963.307 275.562 963.209C274.84 963.046 274.129 962.854 273.409 962.633L273.381 962.627C273.238 962.586 273.097 962.543 272.965 962.494C272.898 962.469 272.842 962.456 272.775 962.431L272.765 962.428C272.728 962.41 272.698 962.404 272.671 962.387C272.651 962.383 272.633 962.379 272.613 962.365C272.794 962.416 272.982 962.478 273.163 962.528C273.211 962.538 273.258 962.55 273.315 962.573C273.647 962.667 273.978 962.762 274.311 962.837C274.414 962.881 274.519 962.904 274.624 962.918L275.119 963.029C275.385 963.09 275.651 963.15 275.908 963.198C276.07 963.225 276.223 963.26 276.374 963.285C276.422 963.295 276.47 963.306 276.527 963.31C276.66 963.339 276.794 963.36 276.936 963.393C276.964 963.399 276.993 963.406 277.031 963.404C277.164 963.435 277.288 963.453 277.423 963.464C277.547 963.481 277.68 963.502 277.814 963.523L277.852 963.531C277.862 963.523 277.872 963.525 277.881 963.529C277.977 963.54 278.072 963.553 278.178 963.566C278.369 963.599 278.56 963.624 278.751 963.638C279.076 963.682 279.391 963.715 279.709 963.727C279.958 963.745 280.207 963.761 280.456 963.769C280.619 963.776 280.791 963.786 280.945 963.791C281.051 963.796 281.147 963.797 281.242 963.8C281.338 963.802 281.434 963.804 281.521 963.804C281.588 963.81 281.646 963.813 281.704 963.806C281.848 963.819 281.991 963.822 282.126 963.804C282.184 963.808 282.241 963.811 282.299 963.805C282.337 963.804 282.385 963.804 282.424 963.804C283.251 963.786 284.06 963.744 284.862 963.67C284.948 963.67 285.026 963.658 285.112 963.648C285.16 963.649 285.218 963.643 285.267 963.634C285.441 963.615 285.614 963.595 285.788 963.566C285.856 963.562 285.924 963.549 285.991 963.544C286.29 963.505 286.581 963.462 286.872 963.411C287.425 963.311 287.968 963.198 288.521 963.089C288.551 963.077 288.589 963.076 288.618 963.072C289.191 962.928 289.746 962.789 290.311 962.624C290.847 962.471 291.384 962.289 291.912 962.115C291.95 962.114 291.989 962.102 292.029 962.083C292.039 962.065 292.059 962.06 292.079 962.055C292.949 961.743 293.811 961.389 294.667 960.996C294.784 960.954 294.892 960.91 295.001 960.847C295.049 960.828 295.098 960.81 295.139 960.78C295.197 960.755 295.256 960.719 295.325 960.696C295.384 960.66 295.453 960.627 295.513 960.591C295.907 960.397 296.302 960.191 296.696 959.977C297.091 959.763 297.477 959.537 297.863 959.302C299.774 958.138 301.607 956.781 303.327 955.212C303.447 955.111 303.568 954.993 303.688 954.882C303.809 954.763 303.93 954.653 304.051 954.533C304.997 953.631 305.908 952.671 306.785 951.646C307.365 950.965 307.928 950.26 308.482 949.534C308.687 949.267 308.883 948.988 309.088 948.712C309.161 948.611 309.233 948.52 309.295 948.416C309.532 948.078 309.77 947.731 310.008 947.383C310.101 947.248 310.193 947.112 310.277 946.974C310.371 946.819 310.475 946.666 310.579 946.503C310.662 946.365 310.756 946.22 310.84 946.082C311.006 945.836 311.163 945.577 311.31 945.306C311.362 945.231 311.404 945.142 311.447 945.064C311.551 944.882 311.657 944.689 311.761 944.508C311.939 944.215 312.117 943.903 312.277 943.586C312.298 943.552 312.319 943.517 312.341 943.474C312.499 943.157 312.669 942.843 312.829 942.517C312.999 942.184 313.169 941.84 313.34 941.497C313.501 941.151 313.672 940.799 313.834 940.443C313.995 940.097 314.146 939.74 314.298 939.383C314.373 939.204 314.45 939.026 314.526 938.847C314.611 938.67 314.678 938.479 314.755 938.292C314.853 938.06 314.941 937.824 315.039 937.582C315.138 937.312 315.248 937.032 315.349 936.751C315.469 936.446 315.581 936.128 315.682 935.808C315.703 935.764 315.725 935.721 315.738 935.664C315.904 935.193 316.062 934.719 316.211 934.234C316.405 933.612 316.598 932.981 316.773 932.344C316.783 932.336 316.783 932.336 316.784 932.326C316.958 931.699 317.123 931.061 317.288 930.423C317.42 929.895 317.541 929.373 317.663 928.833C317.699 928.685 317.735 928.527 317.763 928.377C317.9 927.731 318.037 927.078 318.156 926.419L460.021 152.364C460.284 150.887 460.51 149.409 460.678 147.939C461.109 144.207 461.22 140.53 461.019 136.939C461.021 136.89 461.023 136.852 461.016 136.811C460.987 136.402 460.96 135.995 460.932 135.587C460.907 135.318 460.89 135.049 460.865 134.779C460.795 134.048 460.724 133.327 460.635 132.612C460.543 131.916 460.442 131.216 460.342 130.528C460.283 130.172 460.222 129.825 460.162 129.479C460.101 129.133 460.032 128.783 459.972 128.437C459.957 128.336 459.943 128.245 459.919 128.15C459.873 127.906 459.818 127.657 459.762 127.41C459.763 127.39 459.764 127.372 459.756 127.36C459.707 127.172 459.669 126.978 459.629 126.792C459.606 126.66 459.574 126.525 459.533 126.388C459.454 126.047 459.375 125.715 459.284 125.372C459.036 124.366 458.757 123.372 458.459 122.393C458.359 122.076 458.258 121.769 458.168 121.465C458.117 121.316 458.067 121.168 458.016 121.019C457.958 120.83 457.89 120.638 457.823 120.456C457.823 120.446 457.813 120.434 457.813 120.434C457.704 120.115 457.594 119.806 457.474 119.495C457.255 118.878 457.015 118.264 456.765 117.66C456.638 117.338 456.498 117.021 456.361 116.696C456.221 116.39 456.092 116.087 455.953 115.791C455.884 115.628 455.815 115.466 455.736 115.311C455.596 115.004 455.448 114.707 455.3 114.399L454.984 113.77C454.888 113.582 454.79 113.403 454.694 113.214C454.659 113.137 454.624 113.071 454.58 112.992C454.447 112.746 454.315 112.501 454.183 112.265C454.156 112.21 454.12 112.152 454.095 112.098C453.856 111.671 453.608 111.243 453.359 110.825C453.271 110.667 453.173 110.508 453.083 110.361C453.022 110.259 452.959 110.156 452.887 110.051C452.799 109.894 452.7 109.745 452.602 109.594C452.459 109.367 452.316 109.147 452.164 108.918C452.056 108.746 451.94 108.583 451.823 108.41C451.644 108.144 451.455 107.867 451.266 107.607C451.158 107.455 451.06 107.316 450.952 107.173C450.836 107 450.699 106.823 450.573 106.656C450.42 106.445 450.266 106.244 450.113 106.053C449.968 105.864 449.823 105.674 449.678 105.494C449.624 105.432 449.569 105.361 449.515 105.301C449.362 105.11 449.207 104.917 449.044 104.724C448.871 104.519 448.689 104.3 448.507 104.093C448.435 104.008 448.352 103.92 448.28 103.836C448.107 103.639 447.943 103.456 447.769 103.269C447.732 103.231 447.695 103.193 447.659 103.157C447.44 102.911 447.222 102.675 446.992 102.448C446.58 102.022 446.168 101.615 445.736 101.203C445.708 101.177 445.681 101.151 445.654 101.125C444.993 100.485 444.301 99.8781 443.598 99.3074C443.579 99.2932 443.561 99.2793 443.543 99.2655C443.524 99.2513 443.515 99.2495 443.506 99.2274C443.285 99.0595 443.071 98.8834 442.848 98.7153C442.599 98.5126 442.339 98.3164 442.07 98.1184C442.07 98.1184 442.07 98.1184 442.061 98.1064C441.829 97.9364 441.588 97.7643 441.336 97.5902C441.299 97.5621 441.272 97.5462 441.234 97.5181C441.042 97.3829 440.841 97.2584 440.646 97.1264C438.861 95.9206 436.983 94.8762 435.014 94.0174C434.976 94.0006 434.94 93.9841 434.903 93.9673C434.715 93.8758 434.517 93.801 434.329 93.7196C434.188 93.6582 434.056 93.6087 433.923 93.5591C433.678 93.4542 433.434 93.3596 433.189 93.2659C432.755 93.0895 432.321 92.9419 431.876 92.7919C431.8 92.7645 431.733 92.7502 431.658 92.7229C431.393 92.6428 431.118 92.5616 430.842 92.4892C430.672 92.4403 430.511 92.3948 430.34 92.346C430.036 92.2675 429.724 92.1861 429.42 92.1077L429.41 92.1056C428.708 91.9273 427.994 91.7743 427.271 91.6495L190.438 48.7718C189.809 48.6583 189.189 48.5668 188.577 48.5071L188.549 48.5012C188.252 48.4733 187.947 48.4435 187.65 48.4144C168.809 46.9644 150.549 65.1076 145.924 90.3476L17.447 791.385C16.6391 795.765 16.2792 800.219 16.3153 804.614C16.3143 804.643 16.3214 804.685 16.3204 804.714C16.3229 805.066 16.3241 805.42 16.3367 805.765C16.3408 806.069 16.3449 806.374 16.3601 806.681C16.3673 806.721 16.3662 806.751 16.3734 806.792C16.3795 807.077 16.3941 807.364 16.4086 807.652L16.4057 807.7C16.4126 807.751 16.4112 807.789 16.4197 807.83C16.416 807.899 16.4226 807.958 16.4291 808.018C16.4375 808.237 16.4463 808.443 16.4656 808.664C16.4718 808.734 16.4686 808.792 16.4751 808.852C16.4741 808.881 16.4819 808.903 16.4812 808.923C16.5042 809.251 16.526 809.579 16.5591 809.9C16.5686 810.088 16.5886 810.289 16.5981 810.477C16.6137 810.558 16.6179 810.648 16.6234 810.738C16.6553 811.059 16.6888 811.369 16.7222 811.681C16.7216 811.701 16.7209 811.719 16.7287 811.741C16.7619 812.061 16.7941 812.373 16.8373 812.686C16.8899 813.188 16.9609 813.694 17.0335 814.19C17.0625 814.382 17.082 814.563 17.1126 814.746C17.1278 814.837 17.1419 814.929 17.1571 815.021C17.1933 815.255 17.2303 815.498 17.2665 815.731C17.2802 815.832 17.2951 815.933 17.319 816.026C17.3701 816.36 17.4309 816.698 17.4906 817.035C17.5195 817.227 17.5583 817.423 17.5971 817.617C17.6583 817.945 17.728 818.274 17.7895 818.592C17.8215 818.735 17.8521 818.88 17.884 819.024C17.9231 819.21 17.9625 819.384 17.9922 819.558C18.0084 819.62 18.0247 819.683 18.041 819.746C18.0563 819.837 18.0804 819.921 18.0957 820.013C18.1439 820.219 18.1908 820.427 18.2381 820.623C18.301 820.901 18.3746 821.193 18.4473 821.473C18.7287 822.615 19.0386 823.752 19.3776 824.867C19.4272 825.035 19.4771 825.193 19.5269 825.352C19.6097 825.625 19.6928 825.889 19.7756 826.162C19.8349 826.332 19.8927 826.511 19.952 826.681C21.4194 831.089 23.305 835.228 25.5543 838.96C25.7053 839.219 25.8664 839.471 26.0165 839.721C26.6762 840.782 27.3573 841.797 28.0787 842.783C28.1137 842.839 28.1502 842.887 28.1867 842.934C28.2326 842.994 28.2679 843.041 28.3139 843.1C28.4045 843.218 28.4854 843.335 28.5748 843.453C28.7275 843.664 28.8915 843.868 29.054 844.081C29.0908 844.119 29.1273 844.166 29.1626 844.213C29.172 844.225 29.1803 844.237 29.1799 844.247C29.3156 844.414 29.4525 844.583 29.5882 844.752C29.9601 845.208 30.3323 845.654 30.7146 846.094C30.7608 846.144 30.8059 846.193 30.8518 846.253C30.953 846.354 31.0439 846.463 31.1435 846.574C31.2345 846.683 31.3258 846.781 31.4253 846.893C31.4351 846.895 31.4446 846.907 31.4531 846.909C31.5895 847.057 31.7271 847.206 31.8635 847.355C32.2468 847.764 32.6415 848.168 33.045 848.563C33.1175 848.638 33.1915 848.704 33.2655 848.77C33.5966 849.089 33.9268 849.399 34.2671 849.702C34.3505 849.78 34.4331 849.848 34.5166 849.925C34.8487 850.216 35.1799 850.496 35.5221 850.78C35.6144 850.85 35.6979 850.928 35.7902 850.998C35.8356 851.038 35.8826 851.068 35.9292 851.108C36.4381 851.517 36.9477 851.907 37.4763 852.281C37.5409 852.335 37.6059 852.379 37.6708 852.423C37.7276 852.455 37.7827 852.497 37.8382 852.529C37.9306 852.599 38.0245 852.659 38.1169 852.729C38.1361 852.743 38.1541 852.757 38.1736 852.761C38.3599 852.891 38.555 853.015 38.751 853.147C38.6571 853.087 38.5641 853.035 38.4702 852.975C38.3579 852.911 38.2457 852.846 38.1338 852.772L38.1146 852.757C37.5286 852.37 36.9613 851.976 36.4047 851.558C32.9905 849.031 29.8859 845.888 27.1499 842.271C26.9509 842.011 26.7618 841.752 26.5722 841.503C26.0863 840.825 25.6101 840.149 25.1446 839.446C24.9391 839.126 24.7337 838.804 24.5282 838.484C23.4835 836.847 22.5092 835.136 21.6144 833.366C21.4472 833.044 21.2896 832.725 21.1337 832.395C20.6518 831.424 20.1996 830.449 19.7679 829.451C19.6303 829.126 19.493 828.791 19.3545 828.456C19.2002 828.079 19.0463 827.691 18.8912 827.303C18.7471 826.918 18.5932 826.531 18.4478 826.145C18.3461 825.887 18.2516 825.63 18.1587 825.364C18.0395 825.043 17.9217 824.713 17.8125 824.385C17.1388 822.42 16.544 820.415 16.0181 818.376C15.9213 818.011 15.8432 817.641 15.7549 817.279C15.4731 816.147 15.2314 814.995 15.0095 813.839C14.923 813.426 14.8477 813.008 14.781 812.591C14.231 809.479 13.8649 806.321 13.6834 803.127C13.6568 802.69 13.6385 802.264 13.6217 801.829C13.5455 799.638 13.5458 797.444 13.642 795.253C13.6536 794.815 13.6754 794.369 13.7053 793.935C13.8926 790.863 14.2538 787.782 14.8147 784.726L141.279 94.6721L141.28 94.6522L142.207 89.6129C142.309 89.0874 142.411 88.572 142.522 88.0586C142.59 87.663 142.675 87.2797 142.761 86.898C142.946 86.0493 143.149 85.2234 143.363 84.3896C143.479 83.9652 143.596 83.531 143.713 83.1168C143.772 82.8853 143.841 82.666 143.901 82.4347C143.971 82.1668 144.051 81.9007 144.142 81.6281C144.268 81.1958 144.404 80.777 144.54 80.3467C144.777 79.6073 145.024 78.88 145.289 78.1665C145.413 77.8028 145.545 77.451 145.677 77.0981C146.075 76.033 146.489 75.0003 146.943 73.9759C147.083 73.6548 147.234 73.3271 147.374 73.006C147.556 72.6158 147.739 72.2169 147.921 71.8367C148.071 71.509 148.23 71.1918 148.39 70.8762C148.519 70.6017 148.646 70.347 148.785 70.0846C148.943 69.7774 149.113 69.4638 149.271 69.1566C149.398 68.9106 149.525 68.6848 149.652 68.4588C149.841 68.1192 150.021 67.7877 150.23 67.4434C150.556 66.8611 150.901 66.2729 151.266 65.7001C151.443 65.4071 151.621 65.1141 151.817 64.8262C152.026 64.4919 152.244 64.1585 152.471 63.8281C154.004 61.5214 155.675 59.3821 157.452 57.4054C157.698 57.1179 157.951 56.8422 158.214 56.5685C158.498 56.2604 158.792 55.9456 159.095 55.6413C159.59 55.1465 160.074 54.6584 160.577 54.1954C161.12 53.692 161.663 53.1974 162.215 52.7261C162.776 52.2553 163.336 51.7945 163.905 51.3558C164.185 51.126 164.475 50.9171 164.763 50.6978C165.33 50.2776 165.908 49.8709 166.504 49.4666C167.089 49.0805 167.674 48.7029 168.277 48.3406C168.881 47.9871 169.484 47.6448 170.086 47.32C170.392 47.1549 170.697 46.9983 171.012 46.844C171.318 46.6876 171.622 46.5509 171.926 46.4043C172.242 46.26 172.556 46.1155 172.869 45.9821C173.173 45.8455 173.488 45.7112 173.811 45.5887C174.428 45.3374 175.064 45.109 175.709 44.8927C176.012 44.7948 176.315 44.6869 176.617 44.5989C176.647 44.5764 176.676 44.5724 176.705 44.5699C177.008 44.472 177.32 44.3961 177.631 44.3C177.932 44.232 178.235 44.1428 178.535 44.0645C178.875 43.9846 179.225 43.9068 179.575 43.8402C179.895 43.7761 180.224 43.7129 180.545 43.6591C180.875 43.597 181.204 43.5438 181.533 43.5005C181.862 43.4472 182.191 43.4052 182.52 43.3719C183.188 43.2887 183.843 43.2306 184.508 43.2058C184.836 43.1925 185.162 43.1777 185.489 43.1741C186.201 43.1594 186.911 43.1732 187.62 43.2169C188.185 43.2465 188.749 43.2961 189.314 43.3457C189.647 43.3913 190.002 43.4327 190.345 43.4817C190.688 43.5294 191.031 43.5887 191.374 43.6464L428.275 86.1185C428.675 86.1897 429.075 86.2709 429.465 86.3488L430.453 86.5727C431.204 86.7524 431.933 86.9564 432.663 87.1807L432.692 87.1869C433.061 87.2906 433.43 87.423 433.789 87.5433C434.157 87.6657 434.526 87.7981 434.885 87.9284C435.243 88.0587 435.601 88.2077 435.959 88.348C436.317 88.4983 436.665 88.6453 437.023 88.8043L437.033 88.8064C437.39 88.9654 437.728 89.1303 438.076 89.2873C438.404 89.4401 438.714 89.599 439.024 89.7466C439.099 89.7827 439.174 89.82 439.231 89.8522C439.521 90.0057 439.821 90.1625 440.11 90.3359C440.522 90.5569 440.924 90.7845 441.326 91.032C441.595 91.2013 441.877 91.363 442.136 91.5389C442.742 91.9218 443.329 92.3095 443.924 92.7278C444.325 92.9953 444.713 93.2892 445.094 93.5801C445.382 93.7922 445.649 94.019 445.936 94.2409C446.242 94.4769 446.537 94.7296 446.842 94.9843C447.137 95.237 447.432 95.4997 447.727 95.7537C449.837 97.6223 451.772 99.7165 453.545 102.009C453.763 102.274 453.98 102.558 454.186 102.85C454.972 103.89 455.698 104.956 456.405 106.066C456.718 106.549 457.02 107.047 457.303 107.552C458.511 109.579 459.59 111.724 460.539 113.947C460.721 114.35 460.884 114.74 461.038 115.137C461.382 115.969 461.697 116.804 461.993 117.646C462.155 118.074 462.297 118.498 462.431 118.93C462.683 119.663 462.916 120.41 463.13 121.155C463.237 121.532 463.343 121.919 463.45 122.295C463.636 123.013 463.822 123.731 463.988 124.463C464.077 124.817 464.156 125.167 464.225 125.535C464.493 126.752 464.721 127.979 464.92 129.229C464.971 129.554 465.023 129.878 465.065 130.212C465.245 131.447 465.386 132.704 465.498 133.963C465.542 134.442 465.577 134.902 465.603 135.367C465.789 138.073 465.811 140.811 465.676 143.581C465.658 143.877 465.643 144.177 465.618 144.485Z" fill="#C7C7C7"/>
<g id="Group_7">
<path id="Vector_4" d="M39.0196 853.327C38.7231 853.145 38.4266 852.961 38.1317 852.769L38.1099 852.759C37.5287 852.376 36.9579 851.977 36.3987 851.56C32.9906 849.037 29.886 845.892 27.1417 842.267C26.9475 842.011 26.7606 841.757 26.5652 841.5C26.0829 840.822 25.6067 840.147 25.1437 839.446C24.9308 839.125 24.7239 838.808 24.5199 838.482C23.4824 836.851 22.5069 835.139 21.6074 833.364C21.4413 833.044 21.2824 832.727 21.1252 832.401C20.6518 831.431 20.1962 830.449 19.7668 829.456C19.6256 829.126 19.4857 828.796 19.3534 828.46C19.192 828.077 19.0366 827.695 18.884 827.306C18.7387 826.919 18.5862 826.529 18.4396 826.142C18.339 825.887 18.2468 825.635 18.155 825.372C18.0373 825.043 17.9207 824.714 17.8103 824.387C17.1353 822.423 16.5367 820.421 16.0159 818.377C15.9202 818.014 15.8335 817.644 15.7463 817.284C15.4697 816.145 15.2241 815 15.0047 813.844C14.9182 813.43 14.8417 813.01 14.7713 812.594C14.2249 809.487 13.8578 806.322 13.681 803.134C13.6546 802.693 13.6325 802.267 13.6194 801.833C13.5358 799.644 13.5384 797.451 13.6336 795.256C13.6527 794.815 13.6718 794.374 13.6994 793.937C13.8867 790.863 14.2516 787.783 14.8114 784.724L141.28 94.676C146.486 66.269 167.32 46.0152 188.543 48.5C169.386 46.3902 150.616 64.7018 145.917 90.3449L17.435 791.382C12.8965 816.152 22.3832 842.771 39.0196 853.327Z" fill="url(#paint2_linear_228_213)"/>
<path id="Vector_5" d="M463.522 158.867L323.52 922.763C322.367 929.053 320.482 934.769 318.017 939.806C317.833 940.196 317.641 940.581 317.441 940.953C317.247 941.338 317.049 941.708 316.84 942.075C316.693 942.361 316.538 942.642 316.377 942.909C315.908 943.727 315.424 944.525 314.925 945.306C314.702 945.653 314.478 945.999 314.249 946.332C313.928 946.805 313.609 947.265 313.272 947.718C313.056 948.032 312.832 948.33 312.6 948.624C312.364 948.941 312.119 949.253 311.866 949.562C311.185 950.415 310.472 951.241 309.737 952.032C309.505 952.277 309.27 952.532 309.031 952.775C308.765 953.053 308.492 953.315 308.219 953.578C307.954 953.856 307.673 954.115 307.402 954.365C307.121 954.624 306.841 954.871 306.563 955.119C306.283 955.367 305.997 955.61 305.7 955.849C305.127 956.325 304.548 956.784 303.956 957.214C303.049 957.885 302.122 958.512 301.166 959.099C300.884 959.259 300.601 959.432 300.31 959.599C299.654 959.974 298.995 960.322 298.326 960.666C298.041 960.801 297.747 960.931 297.452 961.072C296.486 961.519 295.503 961.91 294.51 962.26C294.182 962.374 293.847 962.484 293.511 962.595C292.839 962.814 292.166 962.997 291.485 963.164C291.154 963.252 290.815 963.336 290.479 963.397C289.387 963.638 288.287 963.827 287.175 963.937C286.881 963.982 286.59 964.003 286.3 964.024C285.95 964.067 285.604 964.086 285.249 964.103C284.895 964.119 284.541 964.135 284.189 964.139C283.401 964.158 282.608 964.15 281.814 964.105C281.53 964.093 281.258 964.075 280.975 964.051C279.939 963.977 278.885 963.847 277.831 963.668C277.465 963.606 277.099 963.543 276.728 963.466C276.345 963.396 275.956 963.311 275.561 963.211C274.838 963.042 274.121 962.851 273.407 962.638L273.381 962.627C273.016 962.516 272.653 962.395 272.291 962.274C293.013 968.905 313.141 953.775 318.153 926.424L460.017 152.372C465.118 124.54 451.926 98.4846 430.55 92.404C454.406 98.93 469.198 127.902 463.522 158.867Z" fill="url(#paint3_linear_228_213)"/>
<path id="Vector_6" d="M323.519 922.764L322.492 928.369C316.558 960.746 291.51 977.596 266.997 966.099L41.6797 860.417C20.8765 850.66 8.52633 819.034 13.886 789.787L14.8139 784.722C14.254 787.781 13.8879 790.861 13.7018 793.935C13.6755 794.372 13.6563 794.813 13.636 795.254C13.5409 797.449 13.5382 799.642 13.6218 801.831C13.635 802.265 13.6557 802.692 13.6834 803.132C13.8602 806.319 14.2273 809.485 14.7738 812.592C14.8441 813.01 14.9206 813.429 15.0071 813.842C15.2265 814.998 15.4709 816.144 15.7487 817.282C15.8371 817.642 15.9239 818.012 16.0184 818.375C16.5391 820.419 17.1364 822.423 17.8127 824.385C17.9232 824.712 18.0409 825.041 18.1575 825.37C18.248 825.632 18.3414 825.885 18.442 826.14C18.5873 826.527 18.7399 826.917 18.8865 827.304C19.0391 827.694 19.1944 828.074 19.3558 828.458C19.4881 828.794 19.628 829.124 19.7692 829.454C20.1986 830.447 20.6543 831.429 21.1276 832.399C21.2849 832.725 21.4437 833.042 21.6098 833.362C22.5106 835.137 23.4849 836.848 24.5223 838.48C24.7263 838.808 24.9332 839.125 25.1461 839.444C25.6091 840.146 26.0841 840.821 26.5677 841.498C26.7618 841.755 26.9487 842.008 27.1441 842.265C29.8872 845.891 32.993 849.035 36.4012 851.558C36.9603 851.975 37.5311 852.374 38.1124 852.757L38.1342 852.767C38.7239 853.154 39.3168 853.519 39.9202 853.868C40.2267 854.044 40.5393 854.224 40.8475 854.39C41.4273 854.706 42.0177 855.004 42.621 855.285L268.012 960.57C268.702 960.893 269.39 961.19 270.081 961.466C270.447 961.613 270.825 961.753 271.194 961.89C271.787 962.106 272.373 962.308 272.964 962.488C273.101 962.54 273.24 962.581 273.38 962.622L273.406 962.634C274.128 962.852 274.845 963.042 275.56 963.206C275.955 963.307 276.344 963.392 276.727 963.462C277.098 963.54 277.464 963.602 277.83 963.664C278.884 963.842 279.937 963.973 280.974 964.046C281.255 964.07 281.538 964.092 281.813 964.1C282.608 964.146 283.4 964.153 284.188 964.135C284.54 964.13 284.894 964.114 285.248 964.098C285.602 964.082 285.949 964.062 286.299 964.02C286.589 963.998 286.88 963.976 287.174 963.933C288.286 963.823 289.386 963.635 290.478 963.392C290.813 963.332 291.142 963.254 291.484 963.16C292.165 962.992 292.838 962.81 293.51 962.59C293.843 962.491 294.179 962.382 294.509 962.256C295.502 961.906 296.485 961.515 297.451 961.067C297.744 960.937 298.04 960.795 298.325 960.662C298.993 960.317 299.653 959.969 300.309 959.594C300.599 959.437 300.882 959.266 301.165 959.094C302.121 958.506 303.048 957.881 303.955 957.209C304.547 956.779 305.136 956.323 305.699 955.844C305.995 955.606 306.283 955.362 306.562 955.115C306.85 954.871 307.128 954.624 307.4 954.361C307.682 954.102 307.954 953.84 308.218 953.574C308.499 953.315 308.764 953.048 309.029 952.77C309.27 952.529 309.505 952.272 309.736 952.027C310.47 951.236 311.184 950.41 311.865 949.558C312.118 949.249 312.363 948.937 312.599 948.62C312.831 948.325 313.055 948.027 313.271 947.713C313.607 947.26 313.926 946.8 314.248 946.327C314.477 945.995 314.71 945.652 314.924 945.301C315.424 944.522 315.907 943.723 316.376 942.904C316.538 942.638 316.692 942.356 316.839 942.071C317.047 941.704 317.246 941.333 317.439 940.948C317.638 940.578 317.831 940.191 318.016 939.801C320.482 934.768 322.367 929.052 323.519 922.764Z" fill="url(#paint4_linear_228_213)"/>
</g>
<path id="Vector_7" d="M464.549 153.262L463.523 158.868C469.109 128.386 454.865 99.8318 431.654 92.7258C431.289 92.6144 430.915 92.5009 430.55 92.4005C430.174 92.2981 429.79 92.195 429.413 92.1035L429.404 92.1017C428.695 91.9271 427.99 91.7772 427.263 91.6454L190.434 48.776C189.809 48.6632 189.188 48.5715 188.571 48.502L188.548 48.4983C167.323 46.0132 146.49 66.2673 141.284 94.6743L142.212 89.6113C142.309 89.0848 142.411 88.5694 142.52 88.0567C142.592 87.6621 142.677 87.2801 142.762 86.8982C142.948 86.0534 143.145 85.2213 143.366 84.3941C143.476 83.9646 143.593 83.5366 143.708 83.1182C143.772 82.8892 143.835 82.6711 143.901 82.4423C143.973 82.1734 144.053 81.9061 144.143 81.6295C144.267 81.2032 144.399 80.7771 144.538 80.3526C144.774 79.6117 145.023 78.8833 145.284 78.1691C145.412 77.8052 145.545 77.4536 145.679 77.1023C146.075 76.0354 146.494 75.0037 146.943 73.9785C147.086 73.6605 147.231 73.3315 147.375 73.0124C147.555 72.6167 147.735 72.221 147.92 71.8366C148.072 71.5092 148.231 71.1932 148.389 70.8771C148.522 70.6086 148.647 70.3496 148.786 70.0925C148.944 69.7763 149.11 69.4619 149.273 69.157C149.402 68.919 149.521 68.6902 149.655 68.4632C149.84 68.1203 150.024 67.7883 150.226 67.4488C150.556 66.8612 150.902 66.2756 151.262 65.7043C151.438 65.4122 151.623 65.122 151.814 64.833C152.023 64.495 152.246 64.1589 152.467 63.8335C154.006 61.5305 155.673 59.3855 157.448 57.4057C157.7 57.1273 157.952 56.8473 158.211 56.5704C158.499 56.2668 158.788 55.9522 159.09 55.6516C159.583 55.1538 160.075 54.6673 160.577 54.203C161.12 53.6932 161.665 53.2053 162.217 52.729C162.775 52.2639 163.333 51.7989 163.901 51.3562C164.182 51.1341 164.469 50.9234 164.757 50.703C165.331 50.2815 165.91 49.8726 166.503 49.4753C167.086 49.0874 167.676 48.7108 168.278 48.347C168.879 47.993 169.478 47.6499 170.089 47.3294C170.391 47.1635 170.7 47.0089 171.008 46.8543C171.316 46.6997 171.623 46.5549 171.929 46.41C172.243 46.2667 172.55 46.1218 172.863 45.9895C173.175 45.8559 173.487 45.7235 173.808 45.5918C174.43 45.3453 175.066 45.1132 175.705 44.9019C176.005 44.7984 176.313 44.6952 176.618 44.6028C176.644 44.587 176.676 44.5813 176.701 44.5753C177.007 44.4831 177.319 44.4022 177.624 44.3085C177.926 44.2368 178.23 44.1544 178.535 44.0719C178.877 43.9963 179.221 43.9109 179.569 43.8466C179.894 43.7785 180.217 43.7202 180.542 43.6622C180.873 43.6054 181.197 43.5474 181.526 43.5016C181.857 43.4548 182.186 43.4091 182.513 43.373C183.178 43.2918 183.839 43.241 184.502 43.2121C184.826 43.1968 185.159 43.182 185.489 43.178C186.198 43.1675 186.91 43.1793 187.618 43.2215C188.179 43.2479 188.744 43.2962 189.307 43.3555C189.645 43.3947 189.992 43.4358 190.338 43.4878C190.683 43.5386 191.027 43.5903 191.371 43.6521L428.273 86.1244C428.672 86.1954 429.068 86.2783 429.465 86.3614C429.792 86.432 430.126 86.5032 430.45 86.5833C431.196 86.7632 431.929 86.963 432.658 87.1848L432.685 87.1892C433.059 87.3027 433.422 87.4238 433.785 87.5462C434.157 87.6706 434.518 87.8039 434.879 87.9373C435.24 88.0706 435.599 88.2149 435.959 88.3605C436.318 88.5048 436.667 88.6595 437.015 88.8139C437.026 88.805 437.035 88.8056 437.033 88.8178C437.382 88.9725 437.729 89.138 438.076 89.3024C438.399 89.4514 438.709 89.6106 439.023 89.759C439.099 89.7953 439.166 89.8308 439.225 89.8635C439.519 90.019 439.812 90.1758 440.105 90.3423C440.515 90.5655 440.924 90.7996 441.322 91.0426C441.596 91.2065 441.871 91.3706 442.134 91.5448C442.738 91.9284 443.33 92.3222 443.919 92.7379C444.322 93.0059 444.713 93.2941 445.093 93.5924C445.377 93.8038 445.651 94.0269 445.934 94.2492C446.242 94.4883 446.539 94.7375 446.842 94.9995C447.139 95.2487 447.434 95.5089 447.729 95.7691C449.834 97.6341 451.77 99.7236 453.543 102.015C453.763 102.285 453.982 102.567 454.188 102.859C454.966 103.9 455.7 104.969 456.4 106.077C456.712 106.561 457.013 107.056 457.302 107.558C458.506 109.591 459.589 111.732 460.537 113.953C460.715 114.355 460.878 114.745 461.039 115.144C461.381 115.982 461.695 116.815 461.991 117.657C462.147 118.079 462.292 118.511 462.43 118.941C462.68 119.671 462.908 120.419 463.128 121.166C463.237 121.545 463.335 121.922 463.444 122.302C463.631 123.02 463.819 123.739 463.984 124.476C464.069 124.828 464.155 125.181 464.22 125.54C464.494 126.762 464.719 127.986 464.92 129.241C464.965 129.563 465.018 129.886 465.06 130.218C465.237 131.457 465.381 132.714 465.489 133.975C465.534 134.447 465.572 134.907 465.599 135.375C465.78 138.078 465.804 140.821 465.672 143.593C465.657 143.881 465.641 144.179 465.621 144.489C465.59 144.971 465.558 145.452 465.517 145.931C465.474 146.423 465.433 146.902 465.381 147.39C465.338 147.882 465.277 148.368 465.225 148.858C465.109 149.752 464.982 150.645 464.836 151.546C464.749 152.116 464.654 152.69 464.549 153.262Z" fill="url(#paint5_linear_228_213)"/>
</g>
<g id="Group_8">
<path id="Vector_8" d="M429.413 92.1022L429.405 92.1004C428.704 91.9276 427.99 91.7759 427.264 91.644L190.434 48.7746C189.809 48.6619 189.188 48.5702 188.571 48.5007L188.548 48.497C169.391 46.3872 150.621 64.6988 145.922 90.3419L17.4399 791.379C12.8196 816.587 22.7269 843.713 39.9226 853.869C40.2292 854.044 40.5417 854.224 40.8499 854.39C41.4298 854.706 42.0201 855.004 42.6234 855.285L268.014 960.571C268.705 960.893 269.392 961.191 270.083 961.466C270.45 961.613 270.828 961.753 271.196 961.89C292.303 969.426 313.053 954.251 318.154 926.419L460.018 152.367C465.207 124.042 451.451 97.5651 429.413 92.1022ZM314.688 924.864C310.081 950.005 291.118 964.247 271.766 957.365C271.422 957.241 271.071 957.112 270.723 956.963C270.09 956.716 269.455 956.444 268.822 956.15L43.3736 851.182C42.8224 850.925 42.2744 850.648 41.7381 850.354C41.4502 850.208 41.1582 850.04 40.8964 849.885C25.0892 840.579 16.1048 815.475 20.2871 792.659L148.894 90.9297C153.183 67.525 170.218 50.6987 187.879 52.6137L187.893 52.6168L187.971 52.6207C188.532 52.691 189.108 52.7756 189.679 52.8794L426.451 96.0661C427.115 96.1871 427.775 96.3299 428.415 96.481L428.474 96.5037C448.769 101.597 461.125 125.841 456.393 151.652L314.688 924.864Z" fill="#404040"/>
</g>
<path id="Vector_9" d="M456.328 151.962L314.62 925.172C313.742 929.959 312.336 934.361 310.512 938.293C309.049 941.429 307.322 944.275 305.359 946.78C304.956 947.298 304.538 947.796 304.123 948.283C303.487 949.008 302.837 949.703 302.175 950.366C300.286 952.232 298.255 953.824 296.108 955.142C300.712 949.258 304.146 941.543 305.807 932.483L307.437 923.589C307.55 923.072 307.657 922.541 307.756 922.006L449.159 150.466C449.26 149.919 449.351 149.371 449.431 148.832L451.026 140.129C452.706 130.955 452.332 121.972 450.27 113.941C456.396 124.251 458.908 137.894 456.328 151.962Z" fill="url(#paint6_linear_228_213)"/>
<g id="Group_9">
<path id="Vector_10" d="M427.483 100.884L427.323 100.841C426.768 100.713 426.212 100.598 425.644 100.493L188.926 56.9871C188.428 56.8951 187.928 56.8164 187.434 56.7491L187.281 56.7456L187.212 56.7333C171.21 55.0265 155.762 70.3046 151.874 91.5189L23.1392 793.934C19.3369 814.684 27.5061 837.465 41.8796 845.912C42.0919 846.037 42.3285 846.171 42.5594 846.292L42.643 846.331C43.1275 846.594 43.6232 846.85 44.1224 847.082L269.632 951.734C270.203 951.998 270.778 952.238 271.347 952.46L271.453 952.509C271.736 952.627 272.031 952.737 272.31 952.824C289.876 959.05 307.051 946.108 311.23 923.305L452.784 150.94C457.076 127.536 445.88 105.532 427.483 100.884ZM302.194 919.261C300.857 926.559 297.694 932.475 293.486 936.467C293.256 936.68 293.028 936.881 292.8 937.081C292.104 937.691 291.377 938.243 290.636 938.748C289.985 939.182 289.305 939.59 288.614 939.951L288.604 939.947C287.739 940.393 286.843 940.77 285.929 941.082C285.014 941.395 284.093 941.634 283.145 941.792L283.135 941.788C282.664 941.875 282.19 941.933 281.707 941.973C281.707 941.973 281.707 941.973 281.697 941.969C281.224 942.014 280.734 942.037 280.25 942.035C279.278 942.043 278.289 941.975 277.296 941.821C276.11 941.633 274.913 941.33 273.707 940.913C273.598 940.877 273.489 940.841 273.381 940.805L273.226 940.734L273.118 940.699L273.001 940.645C272.893 940.609 272.796 940.565 272.696 940.532C272.59 940.483 272.491 940.452 272.384 940.403C272.171 940.305 271.956 940.219 271.753 940.126L46.0989 836.311C45.9232 836.231 45.7431 836.135 45.5589 836.051C45.3776 835.954 45.1963 835.858 45.015 835.763L44.9399 835.728L44.8591 835.678L44.7259 835.617C44.6367 835.563 44.5474 835.509 44.4485 835.451C33.8901 829.298 27.8587 812.562 30.6524 797.322L159.723 93.0703C162.563 77.5737 173.814 66.4123 185.484 67.5443L185.676 67.5801L185.979 67.6006C186.342 67.6437 186.656 67.703 186.953 67.7586L423.507 112.097C423.852 112.161 424.228 112.232 424.629 112.332L424.749 112.368L424.87 112.391C424.95 112.406 425.04 112.436 425.118 112.464C425.37 112.524 425.609 112.596 425.846 112.679C425.957 112.7 426.067 112.734 426.175 112.78C426.394 112.847 426.612 112.915 426.827 113.007C427.086 113.082 427.341 113.182 427.595 113.296C427.604 113.298 427.625 113.301 427.633 113.317C428.008 113.453 428.368 113.613 428.726 113.784C428.792 113.824 428.859 113.862 428.928 113.888C429.23 114.024 429.517 114.181 429.804 114.342C430.224 114.578 430.642 114.828 431.058 115.09C431.391 115.284 431.72 115.504 432.036 115.734C432.384 115.971 432.727 116.232 433.056 116.505C433.73 117.027 434.367 117.595 434.983 118.211C435.55 118.753 436.087 119.341 436.599 119.952C436.711 120.092 436.823 120.231 436.945 120.374C437.151 120.637 437.356 120.899 437.563 121.163C437.839 121.506 438.089 121.87 438.338 122.246C438.838 122.988 439.314 123.75 439.751 124.546C439.988 124.935 440.2 125.345 440.388 125.762C440.59 126.17 440.789 126.591 440.978 127.011C441.738 128.715 442.368 130.5 442.843 132.376C443.087 133.308 443.282 134.272 443.455 135.244C443.618 136.215 443.758 137.194 443.849 138.203C443.896 138.701 443.933 139.198 443.957 139.705C444.012 140.801 444.033 141.904 443.989 143.02C443.98 143.469 443.965 143.902 443.926 144.345C443.833 145.903 443.637 147.492 443.348 149.077L302.194 919.261Z" fill="black"/>
<path id="Vector_11" d="M221.581 88.544C221.538 88.3261 221.513 88.1118 221.478 87.8957C221.475 87.8082 221.462 87.7324 221.457 87.6572C221.494 87.9608 221.534 88.2521 221.581 88.544Z" fill="black"/>
<path id="Vector_12" d="M379.236 117.915C379.203 117.986 379.159 118.056 379.123 118.14C379.006 118.338 378.896 118.537 378.769 118.733C378.931 118.465 379.082 118.197 379.236 117.915Z" fill="black"/>
</g>
<path id="Vector_13" d="M387.137 105.279C385.059 105.032 383.028 106.725 382.35 109.253C382.306 109.492 382.255 109.715 382.204 109.939C382 110.886 381.748 111.81 381.45 112.712C381.35 113.031 381.253 113.336 381.137 113.638C381.134 113.65 381.134 113.65 381.134 113.65C381.004 114.028 380.866 114.389 380.718 114.75C380.597 115.077 380.455 115.4 380.314 115.724C380.281 115.796 380.248 115.867 380.212 115.95C380.178 116.022 380.142 116.105 380.096 116.187C380.073 116.26 380.041 116.318 380.01 116.377C379.959 116.485 379.908 116.591 379.859 116.699C379.797 116.816 379.744 116.936 379.682 117.053C379.546 117.351 379.392 117.633 379.238 117.915C379.084 118.197 378.933 118.465 378.771 118.733C378.752 118.782 378.735 118.817 378.709 118.85C378.695 118.874 378.693 118.886 378.679 118.909C378.544 119.142 378.402 119.362 378.259 119.581C378.141 119.779 378.013 119.974 377.888 120.158C377.856 120.216 377.816 120.273 377.762 120.341C377.702 120.446 377.635 120.536 377.566 120.627C377.479 120.766 377.385 120.891 377.291 121.015C377.264 121.049 377.247 121.085 377.22 121.119C377.192 121.164 377.153 121.209 377.112 121.265C377.045 121.356 376.989 121.436 376.924 121.513C376.853 121.617 376.785 121.708 376.708 121.796C376.652 121.876 376.587 121.954 376.521 122.032C376.493 122.078 376.456 122.11 376.417 122.154C376.337 122.256 376.27 122.346 376.192 122.435C376.139 122.503 376.085 122.569 376.025 122.623C375.955 122.727 375.878 122.815 375.791 122.902C375.776 122.925 375.752 122.946 375.738 122.97C375.723 122.993 375.699 123.014 375.677 123.022C375.597 123.123 375.507 123.222 375.418 123.322C375.389 123.368 375.352 123.399 375.315 123.431C375.224 123.543 375.122 123.652 375.022 123.75L375.012 123.747C374.886 123.879 374.76 124.009 374.636 124.128C374.518 124.272 374.381 124.402 374.248 124.518C374.245 124.53 374.234 124.542 374.234 124.542L374.224 124.54C374.146 124.629 374.061 124.702 373.977 124.776C373.889 124.863 373.792 124.948 373.696 125.032C373.609 125.12 373.524 125.193 373.429 125.266C373.269 125.416 373.111 125.553 372.933 125.688C372.81 125.806 372.691 125.899 372.549 126.001C372.467 126.063 372.393 126.126 372.311 126.188C372.121 126.333 371.922 126.475 371.735 126.607C371.558 126.74 371.373 126.859 371.186 126.992C371.07 127.073 370.965 127.142 370.851 127.211C370.722 127.302 370.595 127.381 370.46 127.459C370.457 127.471 370.447 127.469 370.447 127.469C370.32 127.547 370.194 127.626 370.06 127.691C369.999 127.743 369.944 127.772 369.888 127.799C369.673 127.912 369.457 128.038 369.245 128.139C369.073 128.248 368.905 128.331 368.739 128.402C368.524 128.515 368.313 128.616 368.096 128.691C368.015 128.74 367.928 128.775 367.85 128.811C367.828 128.82 367.817 128.83 367.797 128.826C367.642 128.9 367.488 128.96 367.325 129.018C367.191 129.082 367.05 129.132 366.898 129.18C366.777 129.233 366.648 129.272 366.518 129.313C366.452 129.339 366.389 129.352 366.314 129.376C366.258 129.403 366.204 129.42 366.141 129.433L366.131 129.43C365.798 129.533 365.476 129.626 365.147 129.703C364.839 129.772 364.542 129.842 364.237 129.9C363.901 129.963 363.577 130.016 363.245 130.053C362.582 130.13 361.903 130.177 361.235 130.175C360.962 130.173 360.679 130.168 360.399 130.153C360.338 130.154 360.289 130.143 360.228 130.144C359.988 130.124 359.749 130.102 359.523 130.07C359.244 130.041 358.978 130.002 358.713 129.962C358.624 129.944 358.536 129.927 358.456 129.925L235.169 105.67C235.099 105.644 235.018 105.628 234.936 105.612C234.694 105.552 234.453 105.492 234.204 105.419C233.999 105.366 233.786 105.3 233.574 105.233C233.522 105.211 233.477 105.201 233.425 105.179C233.179 105.093 232.935 104.995 232.701 104.9C232.128 104.664 231.563 104.379 231.022 104.074C230.751 103.922 230.491 103.759 230.225 103.583C229.983 103.425 229.754 103.255 229.515 103.085C229.261 102.899 229.016 102.702 228.766 102.492L228.758 102.49C228.709 102.456 228.668 102.423 228.629 102.378C228.573 102.33 228.522 102.295 228.476 102.249C228.379 102.168 228.282 102.087 228.197 101.996C228.084 101.9 227.98 101.805 227.888 101.7C227.769 101.59 227.658 101.481 227.549 101.361C227.531 101.357 227.525 101.344 227.508 101.329C227.454 101.268 227.391 101.207 227.339 101.134C227.179 100.991 227.032 100.826 226.888 100.65C226.771 100.528 226.656 100.394 226.546 100.236C226.399 100.072 226.256 99.8828 226.112 99.7063C226.073 99.6615 226.035 99.617 226.001 99.548C225.908 99.4429 225.827 99.3288 225.747 99.2135C225.747 99.2135 225.738 99.2117 225.74 99.1995C225.65 99.0836 225.568 98.968 225.489 98.8417C225.415 98.7404 225.349 98.641 225.277 98.5288C225.161 98.3457 225.044 98.1749 224.939 97.9927C224.823 97.8097 224.702 97.6129 224.589 97.4179C224.539 97.3343 224.499 97.2515 224.449 97.1679C224.364 97.0279 224.293 96.9021 224.227 96.7535C224.121 96.5725 224.033 96.394 223.947 96.2047C223.89 96.107 223.843 96.0115 223.798 95.9037C223.744 95.7941 223.69 95.6845 223.644 95.5768C223.597 95.4812 223.549 95.3854 223.513 95.2797L223.504 95.2779C223.464 95.1964 223.431 95.1152 223.402 95.0235C223.299 94.7814 223.204 94.5398 223.109 94.2995L223.1 94.2977C223.048 94.1771 222.998 94.0433 222.957 93.9113C222.937 93.8705 222.917 93.8298 222.908 93.7788C222.865 93.6591 222.821 93.539 222.787 93.4224C222.772 93.4065 222.758 93.3797 222.754 93.3537C222.749 93.3274 222.735 93.3006 222.731 93.2745C222.686 93.1668 222.65 93.0611 222.624 92.945C222.591 92.8763 222.568 92.7984 222.545 92.7205C222.509 92.6148 222.481 92.5107 222.447 92.3927C222.426 92.3519 222.417 92.3008 222.399 92.248C222.37 92.1563 222.34 92.0644 222.32 91.9733C222.283 91.8674 222.257 91.7637 222.231 91.6476C222.203 91.556 222.181 91.4659 222.154 91.3608C222.145 91.3097 222.127 91.2569 222.111 91.1918C222.1 91.153 222.097 91.1148 222.085 91.0757C222.047 90.933 222.008 90.7888 221.98 90.6357C221.953 90.5318 221.926 90.4279 221.909 90.3137C221.892 90.2486 221.879 90.1728 221.863 90.1077C221.817 89.9018 221.774 89.6839 221.74 89.4678C221.692 89.2248 221.644 88.9807 221.607 88.7263C221.603 88.7003 221.605 88.6894 221.601 88.6633C221.59 88.6245 221.587 88.5875 221.587 88.5371C221.539 88.2439 221.5 87.9526 221.462 87.6503C221.425 87.3468 221.389 87.0448 221.371 86.7329C221.357 86.6066 221.353 86.4825 221.339 86.3562C221.332 86.244 221.325 86.1318 221.317 86.0196C221.311 85.9566 221.303 85.8933 221.307 85.8199C221.295 85.7319 221.291 85.6567 221.289 85.5695C221.284 85.4943 221.281 85.4081 221.276 85.3328C221.263 84.998 221.252 84.6622 221.257 84.33C221.25 83.9588 221.253 83.5897 221.268 83.2104C221.268 83.2104 221.268 83.2104 221.269 83.1981C221.27 82.8902 221.29 82.5861 221.311 82.2698C221.356 81.3662 221.448 80.46 221.586 79.5499C221.617 79.3339 221.647 79.1175 221.688 78.8911C221.948 76.4143 220.795 74.2283 218.971 73.7501L387.137 105.279Z" fill="black"/>
<path id="Vector_14" d="M234.195 105.419C234.444 105.493 234.685 105.552 234.927 105.612C234.791 105.586 234.647 105.558 234.514 105.518C234.37 105.49 234.227 105.45 234.088 105.397C233.928 105.353 233.778 105.299 233.619 105.255C233.6 105.251 233.583 105.249 233.566 105.232C233.777 105.299 233.989 105.365 234.195 105.419Z" fill="black"/>
<path id="Vector_15" d="M360.221 130.144C360.199 130.153 360.179 130.149 360.161 130.145C359.983 130.123 359.812 130.115 359.633 130.094C359.472 130.088 359.314 130.07 359.158 130.039C359.009 130.023 358.853 129.992 358.706 129.963C358.972 130.002 359.238 130.042 359.516 130.071C359.743 130.102 359.982 130.122 360.221 130.144Z" fill="black"/>
<path id="Vector_16" d="M221.364 86.7392C221.358 86.7252 221.36 86.7132 221.353 86.7004C221.346 86.5882 221.339 86.476 221.332 86.3638C221.346 86.4888 221.35 86.6129 221.364 86.7392Z" fill="black"/>
<path id="Vector_17" d="M221.581 88.544C221.538 88.3261 221.513 88.1118 221.478 87.8957C221.475 87.8082 221.462 87.7324 221.457 87.6572C221.494 87.9608 221.534 88.2521 221.581 88.544Z" fill="black"/>
<path id="Vector_18" d="M222.904 93.784C222.844 93.6494 222.798 93.5037 222.75 93.3589C222.754 93.3849 222.768 93.4117 222.783 93.4276C222.817 93.5443 222.861 93.6643 222.904 93.784Z" fill="black"/>
<path id="Vector_19" d="M223.397 95.0288C223.322 94.8783 223.257 94.7299 223.203 94.5711C223.164 94.4774 223.124 94.3959 223.094 94.3027L223.102 94.3045C223.197 94.5449 223.292 94.7852 223.397 95.0288Z" fill="black"/>
<path id="Vector_20" d="M223.64 95.5811C223.583 95.4835 223.539 95.376 223.5 95.2822L223.509 95.284C223.544 95.391 223.593 95.4856 223.64 95.5811Z" fill="black"/>
<path id="Vector_21" d="M225.271 98.5316C225.151 98.3715 225.037 98.1887 224.93 98.0075C224.864 97.908 224.792 97.7958 224.731 97.6722C224.672 97.5868 224.632 97.5052 224.582 97.4204C224.695 97.6154 224.817 97.8125 224.931 97.9953C225.038 98.1765 225.155 98.3473 225.271 98.5316Z" fill="black"/>
<path id="Vector_22" d="M225.48 98.8447C225.56 98.971 225.641 99.0863 225.731 99.2025C225.701 99.172 225.677 99.1418 225.655 99.1132C225.596 99.0278 225.537 98.9424 225.48 98.8447Z" fill="black"/>
<path id="Vector_23" d="M226.539 100.238C226.444 100.145 226.361 100.042 226.277 99.9395C226.269 99.9376 226.27 99.9254 226.262 99.9236C226.21 99.851 226.158 99.7796 226.105 99.708C226.249 99.8845 226.392 100.073 226.539 100.238Z" fill="black"/>
<path id="Vector_24" d="M229.51 103.084C229.297 102.93 229.091 102.779 228.881 102.602C228.84 102.569 228.8 102.537 228.762 102.492C229.012 102.703 229.255 102.899 229.51 103.084Z" fill="black"/>
<path id="Vector_25" d="M230.218 103.583C230.484 103.759 230.744 103.923 231.015 104.075C230.836 103.977 230.651 103.867 230.475 103.759C230.382 103.704 230.299 103.65 230.216 103.597C230.099 103.524 229.984 103.439 229.869 103.356C229.745 103.269 229.621 103.184 229.508 103.086C229.747 103.255 229.976 103.424 230.218 103.583Z" fill="black"/>
<path id="Vector_26" d="M232.694 104.9C232.929 104.995 233.173 105.093 233.418 105.178C233.197 105.109 232.978 105.029 232.77 104.938C232.744 104.933 232.718 104.916 232.691 104.91C232.597 104.866 232.501 104.823 232.407 104.779C232.215 104.704 232.026 104.618 231.838 104.519C231.599 104.397 231.369 104.278 231.133 104.145C231.099 104.126 231.055 104.105 231.016 104.072C231.556 104.378 232.121 104.663 232.694 104.9Z" fill="black"/>
<path id="Vector_27" d="M234.198 105.419L234.089 105.398C234.035 105.387 233.971 105.375 233.919 105.351C233.822 105.319 233.716 105.287 233.619 105.255C233.6 105.251 233.583 105.249 233.566 105.232C233.78 105.299 233.991 105.366 234.198 105.419Z" fill="black"/>
<path id="Vector_28" d="M358.45 129.925C358.37 129.922 358.282 129.904 358.194 129.887L235.395 105.728C235.314 105.713 235.232 105.696 235.163 105.67L358.45 129.925Z" fill="black"/>
<path id="Vector_29" d="M359.517 130.071C359.744 130.102 359.983 130.123 360.222 130.145C360.2 130.154 360.18 130.15 360.162 130.146C360.053 130.138 359.932 130.126 359.823 130.118C359.763 130.119 359.693 130.105 359.635 130.094L359.517 130.071Z" fill="black"/>
<path id="Vector_30" d="M361.229 130.175C361.897 130.177 362.575 130.13 363.238 130.054C363.185 130.069 363.133 130.071 363.092 130.077C362.802 130.11 362.524 130.133 362.236 130.154C362.009 130.173 361.785 130.181 361.563 130.177C361.451 130.181 361.339 130.184 361.227 130.188C361.198 130.182 361.167 130.189 361.137 130.183C360.893 130.187 360.641 130.176 360.394 130.153C360.672 130.169 360.955 130.172 361.229 130.175Z" fill="black"/>
<path id="Vector_31" d="M365.137 129.703C364.987 129.752 364.828 129.785 364.669 129.818C364.52 129.853 364.371 129.889 364.225 129.912C364.12 129.93 364.016 129.948 363.901 129.964C363.682 129.998 363.452 130.031 363.236 130.053C363.567 130.015 363.891 129.962 364.228 129.899C364.533 129.843 364.83 129.771 365.137 129.703Z" fill="black"/>
<path id="Vector_32" d="M365.14 129.703C365.468 129.626 365.791 129.534 366.124 129.431C366.069 129.459 366.014 129.474 365.961 129.489C365.681 129.577 365.415 129.64 365.14 129.703Z" fill="black"/>
<path id="Vector_33" d="M369.241 128.14C369.453 128.039 369.669 127.912 369.884 127.8C369.803 127.849 369.722 127.897 369.642 127.947C369.632 127.945 369.631 127.957 369.621 127.956C369.497 128.02 369.372 128.087 369.241 128.14Z" fill="black"/>
<path id="Vector_34" d="M370.845 127.21C370.75 127.282 370.658 127.342 370.565 127.401C370.531 127.42 370.497 127.439 370.453 127.457C370.589 127.381 370.716 127.302 370.845 127.21Z" fill="black"/>
<path id="Vector_35" d="M372.309 126.188C372.225 126.25 372.153 126.314 372.061 126.373C371.952 126.468 371.835 126.549 371.73 126.62C371.553 126.753 371.365 126.886 371.183 126.993C371.369 126.861 371.554 126.742 371.732 126.608C371.92 126.475 372.119 126.333 372.309 126.188Z" fill="black"/>
<path id="Vector_36" d="M374.231 124.542C374.156 124.618 374.069 124.705 373.974 124.776C374.059 124.703 374.145 124.628 374.221 124.54L374.231 124.542Z" fill="black"/>
<path id="Vector_37" d="M375.021 123.749C374.956 123.827 374.883 123.891 374.808 123.967C374.757 124.021 374.706 124.077 374.636 124.128C374.76 124.009 374.886 123.878 375.013 123.748L375.021 123.749Z" fill="black"/>
<path id="Vector_38" d="M375.735 122.968C375.631 123.09 375.527 123.213 375.415 123.32C375.505 123.221 375.594 123.121 375.674 123.02C375.697 123.012 375.721 122.991 375.735 122.968Z" fill="black"/>
<path id="Vector_39" d="M379.236 117.915C379.203 117.986 379.159 118.056 379.123 118.14C379.006 118.337 378.896 118.537 378.769 118.732C378.931 118.465 379.082 118.196 379.236 117.915Z" fill="black"/>
<path id="Vector_40" d="M379.86 116.699C379.81 116.806 379.759 116.912 379.709 117.02C379.696 117.031 379.694 117.043 379.682 117.053C379.745 116.936 379.798 116.816 379.86 116.699Z" fill="black"/>
<g id="Group_10">
<path id="Vector_41" d="M307.439 923.59L305.809 932.483C304.148 941.544 300.713 949.259 296.11 955.143C288.875 959.548 280.342 960.659 271.742 957.606C271.398 957.482 271.046 957.354 270.698 957.204C270.065 956.958 269.43 956.685 268.797 956.391L43.3494 851.406C42.7983 851.149 42.2503 850.872 41.7139 850.578C41.426 850.432 41.134 850.263 40.871 850.108C40.4801 849.882 40.0923 849.634 39.7073 849.378C33.1783 845.128 27.8934 838.142 24.3364 829.798C22.8424 821.781 22.7141 813.222 24.2334 804.934L25.9718 795.446C23.987 806.276 25.6335 817.719 29.8814 826.868C32.955 833.508 37.4007 838.964 42.826 842.14C43.0033 842.245 43.1791 842.36 43.3608 842.444L43.4392 842.491L43.5191 842.528C43.9566 842.763 44.4028 842.992 44.8523 843.2L270.417 947.55C270.924 947.784 271.442 948 271.954 948.201L272.056 948.248L272.151 948.279C272.387 948.389 272.621 948.461 272.853 948.544C288.187 953.959 303.198 943.07 307.439 923.59Z" fill="url(#paint7_linear_228_213)"/>
<path id="Vector_42" d="M456.376 151.728L456.418 151.655C461.148 125.844 448.794 101.601 428.497 96.507L428.438 96.4843C427.797 96.333 427.137 96.1902 426.473 96.0692L189.699 52.882C189.128 52.7781 188.552 52.6935 187.991 52.6232L187.912 52.6191L187.897 52.616C187.172 52.5374 186.457 52.4911 185.737 52.4762C178.437 52.3058 171.335 55.2765 165.298 60.5027C161.212 66.7182 158.148 74.2616 156.616 82.6213L154.878 92.1094C156.879 81.1867 162.277 72.0375 169.219 66.4867C174.391 62.356 180.426 60.2102 186.569 60.8505L186.714 60.8774L186.917 60.8828C187.385 60.9483 187.806 61.0152 188.195 61.0878L424.853 104.911C425.26 104.986 425.7 105.079 426.183 105.191L426.191 105.193L426.506 105.273C442.585 109.354 452.524 128.203 449.477 148.595L451.072 139.891C452.753 130.717 452.379 121.735 450.316 113.703C456.444 124.016 458.954 137.659 456.376 151.728Z" fill="url(#paint8_linear_228_213)"/>
<path id="Vector_43" d="M24.3621 829.575C19.6896 818.625 17.9696 805.305 20.2873 792.66L148.894 90.9294C151.235 78.1619 157.351 67.368 165.282 60.5004C161.195 66.7159 158.131 74.2593 156.599 82.619L24.259 804.711C22.7397 812.999 22.8668 821.558 24.3621 829.575Z" fill="url(#paint9_linear_228_213)"/>
<path id="Vector_44" d="M456.387 151.765L314.678 924.978C313.801 929.765 312.395 934.167 310.57 938.098C309.107 941.235 307.379 944.08 305.417 946.585C305.013 947.103 304.596 947.602 304.18 948.088C303.561 948.821 302.911 949.515 302.232 950.171C300.338 952.07 298.28 953.699 296.104 955.017C296.128 954.992 296.141 954.973 296.164 954.948C300.768 949.064 304.202 941.349 305.863 932.288L451.082 139.928C452.763 130.755 452.388 121.771 450.326 113.74C456.456 124.053 458.966 137.696 456.387 151.765Z" fill="url(#paint10_linear_228_213)"/>
</g>
<g id="Group_11">
<path id="Vector_45" d="M316.639 100.846L282.107 94.2785C281.248 94.1146 280.717 93.071 280.923 91.9489L281.115 90.9041C281.32 89.7805 282.185 89.0008 283.046 89.1636L317.587 95.6754C318.466 95.8409 319.011 96.8977 318.803 98.0345L318.61 99.0915C318.4 100.228 317.518 101.014 316.639 100.846Z" fill="url(#paint11_linear_228_213)"/>
</g>
</g>
</g>
</g>
</g>
<path id="Vector_46" d="M443.348 149.075C369.5 531.5 356.346 618.934 302.194 919.26C300.857 926.558 297.695 932.474 293.486 936.466C293.256 936.679 293.029 936.88 292.8 937.08C292.095 937.685 291.377 938.242 290.637 938.747C289.985 939.181 289.305 939.589 288.614 939.95L288.604 939.946C287.739 940.392 286.844 940.769 285.929 941.081C285.027 941.385 284.095 941.621 283.145 941.791L283.136 941.787C282.668 941.862 282.193 941.92 281.707 941.972C281.707 941.972 281.707 941.972 281.698 941.968C281.224 942.013 280.738 942.023 280.25 942.034C279.278 942.042 278.291 941.961 277.297 941.82C276.11 941.632 274.913 941.33 273.708 940.912C273.579 940.867 273.49 940.84 273.382 940.804L273.294 940.764L273.224 940.745L273.059 940.67L273.027 940.669C272.92 940.62 272.804 940.567 272.695 940.531C272.589 940.482 272.49 940.451 272.384 940.402C272.17 940.304 271.955 940.218 271.752 940.124L46.0981 836.31C45.9224 836.23 45.7423 836.134 45.5581 836.05C45.3768 835.953 45.1956 835.857 45.0126 835.773L44.9815 835.746L44.8482 835.685L44.7917 835.646L44.7251 835.616C44.6359 835.562 44.5539 835.512 44.4477 835.45C33.8894 829.296 27.8579 812.561 30.6516 797.321L159.722 93.0691C162.562 77.5725 173.813 66.4111 185.483 67.5431L185.675 67.5789L185.978 67.5994C186.341 67.6425 186.655 67.7018 186.953 67.7574L218.967 73.7585C220.791 74.2355 221.944 76.4227 221.684 78.8994C221.662 79.0684 221.632 79.2342 221.601 79.4013L221.588 79.4727C221.583 79.4969 221.577 79.532 221.581 79.558C221.442 80.4681 221.35 81.3756 221.305 82.2779C221.284 82.5942 221.265 82.8983 221.264 83.2063C221.262 83.2185 221.262 83.2185 221.262 83.2185C221.248 83.5978 221.245 83.967 221.252 84.3382C221.246 84.6704 221.259 85.0052 221.271 85.341C221.275 85.4162 221.279 85.5024 221.283 85.5776C221.286 85.6651 221.291 85.7403 221.302 85.828C221.298 85.9014 221.304 85.9644 221.312 86.0277C221.319 86.1399 221.326 86.2521 221.333 86.3643C221.341 86.4766 221.348 86.5888 221.355 86.701C221.362 86.715 221.359 86.7257 221.366 86.7398C221.383 87.0516 221.42 87.3537 221.457 87.6572C221.494 87.9608 221.533 88.2521 221.581 88.544C221.582 88.5932 221.584 88.6314 221.595 88.6702C221.599 88.6962 221.598 88.7072 221.602 88.7332C221.638 88.9863 221.686 89.2305 221.734 89.4747C221.769 89.6907 221.813 89.9089 221.857 90.1146C221.874 90.1797 221.887 90.2567 221.903 90.3205C221.919 90.4346 221.947 90.5387 221.974 90.6426C222.002 90.7957 222.04 90.9396 222.08 91.0826C222.091 91.1214 222.093 91.1596 222.105 91.1987C222.121 91.2638 222.139 91.3166 222.148 91.3676C222.176 91.4715 222.196 91.5613 222.226 91.6545C222.251 91.7706 222.279 91.8745 222.314 91.9802C222.334 92.07 222.364 92.162 222.393 92.2549C222.411 92.3077 222.42 92.3587 222.441 92.3996C222.475 92.5175 222.502 92.6214 222.539 92.7274C222.562 92.8065 222.585 92.8844 222.619 92.9518C222.644 93.0679 222.68 93.1736 222.726 93.2814C222.73 93.3074 222.743 93.3343 222.749 93.3605C222.753 93.3866 222.766 93.4134 222.782 93.4293C222.816 93.5472 222.859 93.6657 222.902 93.7857C222.912 93.8367 222.931 93.8773 222.952 93.9182C222.993 94.0502 223.042 94.1827 223.095 94.3046L223.103 94.3064C223.133 94.3983 223.162 94.4912 223.204 94.5729C223.258 94.7318 223.323 94.8802 223.398 95.0307C223.428 95.1226 223.46 95.2035 223.5 95.285L223.509 95.2868C223.546 95.3928 223.593 95.4883 223.64 95.5839C223.685 95.6917 223.739 95.8013 223.793 95.9108C223.839 96.0186 223.886 96.1142 223.943 96.2118C224.029 96.4011 224.117 96.5784 224.223 96.7606C224.289 96.9093 224.359 97.0347 224.445 97.1751C224.495 97.2587 224.535 97.3414 224.585 97.425C224.635 97.5086 224.675 97.5913 224.734 97.6767C224.798 97.7884 224.86 97.8986 224.934 97.9999L224.933 98.0121C225.038 98.193 225.154 98.3761 225.274 98.5362C225.346 98.6496 225.412 98.7478 225.486 98.8491C225.543 98.9467 225.601 99.0321 225.66 99.1175C225.682 99.1462 225.705 99.1761 225.737 99.2068C225.735 99.2191 225.744 99.2209 225.744 99.2209C225.824 99.3362 225.907 99.4505 225.998 99.5554C226.032 99.6244 226.07 99.6689 226.109 99.7137C226.161 99.7851 226.213 99.8577 226.265 99.9293C226.274 99.9311 226.272 99.9433 226.281 99.9451C226.365 100.048 226.447 100.15 226.543 100.244C226.653 100.402 226.767 100.535 226.885 100.657C227.029 100.834 227.176 100.998 227.336 101.142C227.388 101.214 227.451 101.276 227.505 101.336C227.521 101.352 227.528 101.365 227.546 101.369C227.654 101.489 227.764 101.598 227.885 101.707C227.977 101.813 228.081 101.908 228.194 102.003C228.279 102.094 228.376 102.175 228.473 102.256C228.52 102.303 228.567 102.349 228.626 102.386C228.665 102.43 228.704 102.463 228.755 102.497C228.793 102.542 228.843 102.577 228.884 102.609C229.093 102.787 229.298 102.937 229.513 103.091C229.626 103.188 229.751 103.274 229.875 103.361C229.99 103.445 230.107 103.518 230.224 103.589L230.222 103.602C230.305 103.655 230.389 103.709 230.481 103.764C230.657 103.873 230.841 103.984 231.02 104.079C231.061 104.112 231.103 104.134 231.137 104.152C231.374 104.285 231.605 104.405 231.843 104.526C232.03 104.625 232.219 104.712 232.411 104.786C232.506 104.829 232.6 104.873 232.698 104.905L232.696 104.917C232.723 104.923 232.748 104.94 232.775 104.946C232.982 105.036 233.201 105.117 233.423 105.185C233.475 105.208 233.52 105.216 233.572 105.24C233.588 105.255 233.606 105.258 233.625 105.262C233.722 105.294 233.828 105.327 233.925 105.359C233.977 105.381 234.04 105.393 234.095 105.405C234.235 105.457 234.377 105.497 234.521 105.526C234.733 105.592 234.948 105.646 235.167 105.678C235.237 105.704 235.319 105.72 235.399 105.736L358.199 129.895C358.287 129.912 358.375 129.929 358.455 129.933C358.687 129.991 358.923 130.025 359.162 130.047C359.319 130.077 359.477 130.096 359.638 130.101C359.697 130.112 359.765 130.126 359.826 130.125C359.935 130.133 360.055 130.144 360.164 130.153C360.184 130.157 360.203 130.16 360.225 130.152C360.285 130.151 360.334 130.16 360.396 130.16C360.645 130.183 360.895 130.194 361.139 130.19C361.169 130.196 361.2 130.189 361.229 130.195L361.232 130.183C361.342 130.192 361.453 130.188 361.567 130.184C361.789 130.189 362.014 130.181 362.24 130.161C362.527 130.14 362.805 130.118 363.096 130.084C363.138 130.079 363.188 130.076 363.242 130.061C363.459 130.039 363.688 130.007 363.907 129.972C364.021 129.956 364.126 129.938 364.231 129.92L364.233 129.907C364.379 129.884 364.525 129.861 364.674 129.826C364.833 129.793 364.99 129.758 365.142 129.711C365.418 129.649 365.683 129.585 365.963 129.497C366.017 129.482 366.08 129.468 366.137 129.441C366.2 129.428 366.253 129.412 366.31 129.385C366.383 129.373 366.449 129.348 366.514 129.321C366.643 129.282 366.773 129.243 366.894 129.188C367.045 129.14 367.187 129.091 367.321 129.026C367.484 128.968 367.637 128.907 367.793 128.834C367.812 128.839 367.825 128.828 367.846 128.819C367.924 128.783 368.011 128.749 368.092 128.699C368.308 128.625 368.52 128.525 368.734 128.411C368.901 128.339 369.069 128.257 369.241 128.147C369.372 128.096 369.496 128.029 369.62 127.963C369.63 127.965 369.633 127.953 369.642 127.953C369.722 127.904 369.803 127.855 369.883 127.806C369.94 127.779 369.995 127.75 370.056 127.698C370.19 127.633 370.317 127.555 370.443 127.476C370.443 127.476 370.452 127.478 370.455 127.466C370.499 127.449 370.533 127.43 370.567 127.41C370.659 127.351 370.752 127.291 370.847 127.22C370.961 127.151 371.066 127.081 371.182 127C371.364 126.893 371.552 126.762 371.729 126.627L371.732 126.615C371.846 126.547 371.953 126.465 372.06 126.382C372.152 126.322 372.226 126.259 372.308 126.197C372.39 126.135 372.464 126.072 372.546 126.01C372.687 125.908 372.806 125.815 372.93 125.696C373.108 125.562 373.266 125.424 373.426 125.275C373.521 125.202 373.606 125.128 373.693 125.041C373.791 124.956 373.887 124.872 373.974 124.785C374.059 124.711 374.144 124.636 374.221 124.548L374.231 124.55C374.231 124.55 374.243 124.54 374.245 124.527C374.378 124.411 374.515 124.281 374.633 124.136C374.704 124.085 374.755 124.03 374.805 123.975C374.877 123.912 374.943 123.834 375.008 123.756L375.018 123.758C375.117 123.661 375.22 123.55 375.311 123.439C375.348 123.408 375.383 123.375 375.413 123.33C375.503 123.231 375.593 123.132 375.672 123.03C375.695 123.021 375.719 123 375.733 122.978C375.748 122.955 375.772 122.933 375.786 122.91C375.874 122.823 375.951 122.735 376.021 122.632C376.082 122.579 376.135 122.511 376.188 122.443C376.266 122.354 376.333 122.264 376.413 122.163C376.452 122.118 376.488 122.087 376.517 122.04C376.583 121.962 376.648 121.884 376.704 121.804C376.781 121.716 376.849 121.625 376.919 121.522C376.985 121.444 377.041 121.364 377.108 121.274C377.149 121.217 377.188 121.173 377.216 121.127C377.243 121.094 377.259 121.057 377.286 121.024C377.381 120.899 377.475 120.775 377.562 120.636C377.629 120.544 377.698 120.455 377.758 120.349C377.811 120.281 377.852 120.225 377.884 120.166C378.01 119.983 378.137 119.787 378.255 119.589C378.397 119.371 378.54 119.152 378.675 118.918C378.689 118.894 378.692 118.882 378.705 118.859C378.732 118.825 378.749 118.79 378.767 118.741C378.929 118.474 379.08 118.205 379.234 117.923C379.388 117.642 379.542 117.36 379.677 117.062C379.69 117.051 379.692 117.038 379.705 117.028C379.755 116.921 379.806 116.815 379.856 116.707C379.907 116.6 379.957 116.494 380.006 116.386C380.038 116.327 380.068 116.268 380.093 116.195C380.139 116.113 380.175 116.029 380.208 115.958C380.245 115.874 380.278 115.803 380.311 115.732C380.452 115.409 380.593 115.087 380.715 114.759C380.863 114.398 381.001 114.036 381.131 113.659C381.131 113.659 381.131 113.659 381.134 113.647C381.25 113.345 381.347 113.039 381.447 112.721C381.745 111.818 381.997 110.895 382.201 109.948C382.215 109.925 382.223 109.887 382.227 109.862L382.241 109.787C382.273 109.611 382.315 109.438 382.347 109.262C383.026 106.734 385.057 105.041 387.134 105.287L423.504 112.104C423.849 112.168 424.224 112.239 424.626 112.339L424.745 112.375L424.963 112.441L425.187 112.484C425.408 112.538 425.627 112.605 425.844 112.685C425.955 112.706 426.064 112.74 426.172 112.786C426.392 112.853 426.61 112.921 426.824 113.013C427.082 113.101 427.339 113.188 427.592 113.302C427.602 113.304 427.623 113.307 427.631 113.323C428.004 113.471 428.364 113.631 428.724 113.79C428.79 113.83 428.857 113.868 428.926 113.894C429.225 114.042 429.515 114.188 429.801 114.348C430.221 114.584 430.64 114.834 431.055 115.096C431.387 115.304 431.715 115.523 432.034 115.74C432.378 115.99 432.721 116.251 433.053 116.511C433.715 117.044 434.362 117.613 434.981 118.217C435.535 118.77 436.085 119.347 436.597 119.958C436.709 120.098 436.821 120.237 436.943 120.38C437.149 120.643 437.354 120.905 437.56 121.169C437.824 121.522 438.085 121.888 438.336 122.252C438.836 122.994 439.312 123.756 439.749 124.553C439.973 124.951 440.185 125.361 440.386 125.768C440.587 126.176 440.787 126.597 440.975 127.017C441.726 128.719 442.353 130.517 442.84 132.382C443.085 133.314 443.28 134.278 443.453 135.25C443.616 136.221 443.755 137.2 443.847 138.209C443.894 138.707 443.93 139.204 443.954 139.711C444.01 140.807 444.03 141.91 443.986 143.026C443.981 143.462 443.953 143.906 443.924 144.351C443.834 145.901 443.639 147.491 443.348 149.075Z" fill="url(#paint12_linear_228_213)"/>
</g>
</g>
<defs>
<linearGradient id="paint0_linear_228_213" x1="299.832" y1="516.766" x2="480.56" y2="523.078" gradientUnits="userSpaceOnUse">
<stop stop-color="#333333"/>
<stop offset="0.3653" stop-color="#848484"/>
<stop offset="0.6642" stop-color="#BFBFBF"/>
<stop offset="0.8836" stop-color="#E3E3E3"/>
<stop offset="1" stop-color="#F1F1F1"/>
</linearGradient>
<linearGradient id="paint1_linear_228_213" x1="221.045" y1="958.539" x2="419.637" y2="82.3957" gradientUnits="userSpaceOnUse">
<stop stop-color="#F1F1F1"/>
<stop offset="0.4294" stop-color="#EFEFEF"/>
<stop offset="0.6174" stop-color="#E8E8E8"/>
<stop offset="0.7583" stop-color="#DBDBDB"/>
<stop offset="0.8757" stop-color="#C9C9C9"/>
<stop offset="0.9774" stop-color="#B2B2B2"/>
<stop offset="1" stop-color="#ACACAC"/>
</linearGradient>
<linearGradient id="paint2_linear_228_213" x1="77.2929" y1="437.764" x2="81.9267" y2="438.598" gradientUnits="userSpaceOnUse">
<stop stop-color="#666666"/>
<stop offset="0.0575" stop-color="#727272"/>
<stop offset="0.3311" stop-color="#A8A8A8"/>
<stop offset="0.5675" stop-color="#D0D0D0"/>
<stop offset="0.7551" stop-color="#E8E8E8"/>
<stop offset="0.8704" stop-color="#F1F1F1"/>
<stop offset="0.9471" stop-color="#F7F7F7"/>
<stop offset="1" stop-color="white"/>
</linearGradient>
<linearGradient id="paint3_linear_228_213" x1="390.005" y1="541.175" x2="395.34" y2="542.136" gradientUnits="userSpaceOnUse">
<stop stop-color="white"/>
<stop offset="0.0529" stop-color="#F7F7F7"/>
<stop offset="0.1296" stop-color="#F1F1F1"/>
<stop offset="0.2449" stop-color="#E8E8E8"/>
<stop offset="0.4325" stop-color="#D0D0D0"/>
<stop offset="0.6689" stop-color="#A8A8A8"/>
<stop offset="0.9425" stop-color="#727272"/>
<stop offset="1" stop-color="#666666"/>
</linearGradient>
<linearGradient id="paint4_linear_228_213" x1="156.088" y1="926.322" x2="179.255" y2="862.032" gradientUnits="userSpaceOnUse">
<stop stop-color="#F1F1F1"/>
<stop offset="0.1164" stop-color="#E3E3E3"/>
<stop offset="0.3358" stop-color="#BFBFBF"/>
<stop offset="0.6347" stop-color="#848484"/>
<stop offset="1" stop-color="#333333"/>
</linearGradient>
<linearGradient id="paint5_linear_228_213" x1="302.499" y1="126.284" x2="338.391" y2="26.6771" gradientUnits="userSpaceOnUse">
<stop stop-color="#333333"/>
<stop offset="0.0736" stop-color="#4C4C4C"/>
<stop offset="0.2508" stop-color="#828282"/>
<stop offset="0.4239" stop-color="#AFAFAF"/>
<stop offset="0.5891" stop-color="#D2D2D2"/>
<stop offset="0.7442" stop-color="#EBEBEB"/>
<stop offset="0.8854" stop-color="#FAFAFA"/>
<stop offset="1" stop-color="white"/>
</linearGradient>
<linearGradient id="paint6_linear_228_213" x1="371.93" y1="534.087" x2="387.027" y2="536.806" gradientUnits="userSpaceOnUse">
<stop stop-color="#F1F1F1"/>
<stop offset="0.0012" stop-color="#F0F0F0"/>
<stop offset="0.1385" stop-color="#B7B7B7"/>
<stop offset="0.2715" stop-color="#888888"/>
<stop offset="0.397" stop-color="#636363"/>
<stop offset="0.5134" stop-color="#494949"/>
<stop offset="0.6172" stop-color="#393939"/>
<stop offset="0.6978" stop-color="#333333"/>
</linearGradient>
<linearGradient id="paint7_linear_228_213" x1="19.7201" y1="829.992" x2="314.727" y2="883.116" gradientUnits="userSpaceOnUse">
<stop/>
<stop offset="0.1045" stop-color="#141414"/>
<stop offset="0.2593" stop-color="#2C2C2C"/>
<stop offset="0.4027" stop-color="#3B3B3B"/>
<stop offset="0.5229" stop-color="#404040"/>
<stop offset="0.6306" stop-color="#393939"/>
<stop offset="0.7927" stop-color="#242424"/>
<stop offset="0.9882" stop-color="#020202"/>
<stop offset="1"/>
</linearGradient>
<linearGradient id="paint8_linear_228_213" x1="162.855" y1="47.8013" x2="465.311" y2="102.267" gradientUnits="userSpaceOnUse">
<stop/>
<stop offset="0.1045" stop-color="#141414"/>
<stop offset="0.2593" stop-color="#2C2C2C"/>
<stop offset="0.4027" stop-color="#3B3B3B"/>
<stop offset="0.5229" stop-color="#404040"/>
<stop offset="0.6306" stop-color="#393939"/>
<stop offset="0.7927" stop-color="#242424"/>
<stop offset="0.9882" stop-color="#020202"/>
<stop offset="1"/>
</linearGradient>
<linearGradient id="paint9_linear_228_213" x1="83.6124" y1="440.999" x2="91.1473" y2="442.355" gradientUnits="userSpaceOnUse">
<stop stop-color="#404040"/>
<stop offset="0.644" stop-color="#1A1A1A"/>
<stop offset="1" stop-color="#0A0A0A"/>
</linearGradient>
<linearGradient id="paint10_linear_228_213" x1="371.937" y1="533.918" x2="387.079" y2="536.645" gradientUnits="userSpaceOnUse">
<stop stop-color="#0A0A0A"/>
<stop offset="0.356" stop-color="#1A1A1A"/>
<stop offset="1" stop-color="#404040"/>
</linearGradient>
<linearGradient id="paint11_linear_228_213" x1="281.564" y1="88.3886" x2="319.316" y2="95.1868" gradientUnits="userSpaceOnUse">
<stop stop-color="#333333"/>
<stop offset="0.0901" stop-color="#2B2B2B"/>
<stop offset="0.2885" stop-color="#1E1E1E"/>
<stop offset="0.4787" stop-color="#1A1A1A"/>
<stop offset="0.7885" stop-color="#1C1C1C"/>
<stop offset="0.8999" stop-color="#232323"/>
<stop offset="0.9792" stop-color="#2E2E2E"/>
<stop offset="1" stop-color="#333333"/>
</linearGradient>
<linearGradient id="paint12_linear_228_213" x1="-12" y1="829.5" x2="594.168" y2="218.884" gradientUnits="userSpaceOnUse">
<stop stop-color="#08319A"/>
<stop offset="1" stop-color="#1A6BE6"/>
</linearGradient>
</defs>
</svg>
