<svg width="60" height="60" viewBox="0 0 60 60" fill="none" xmlns="http://www.w3.org/2000/svg">
<path d="M35 45.4359V21.9721C35 19.4303 36.0613 18.8436 37.4747 18.8436C37.4747 18.8436 44.7212 18.8436 46.136 18.8436C47.5509 18.8436 49.141 19.0393 49.141 21.19C49.141 23.3407 49.141 22.7541 49.141 23.9274C49.141 25.1007 48.4347 26.2738 46.6663 26.2738C44.898 26.2738 42.6008 26.2738 42.6008 26.2738C42.6008 26.2738 42.6008 16.4309 42.6008 14.7375C42.6008 13.044 43.1575 12 45.429 12C47.7004 12 46.8431 11.9999 49.8481 12C52.853 12.0001 56.565 13.4549 56.565 17.2794C56.565 21.1039 56.565 24.514 56.565 24.514C56.2116 26.8603 55.2658 27.8004 53.3833 28.6201C56.9193 29.4024 58.3327 30.7711 58.3327 33.1174C58.3327 33.1174 58.3333 34.4859 58.3333 40.352C58.3333 46.2181 53.2066 47 51.2621 47C49.3177 47 50.0248 47 50.0248 47C46.8431 47 36.4148 47 36.4148 47C35.7077 47 35 46.2181 35 45.4359ZM42.7776 39.9609V32.3352C42.7776 32.3352 46.8424 32.3352 48.4339 32.3352C50.0255 32.3352 50.9086 33.5086 50.9086 34.8772C50.9086 36.2457 50.9086 37.8101 50.9086 37.8101C50.9086 39.57 49.672 40.352 47.9037 40.352H42.7776V39.9609Z" stroke="url(#paint0_linear_350_80)" stroke-width="3.18182" stroke-linejoin="round"/>
<path d="M2 35.0726V40.1564C2 44.4581 6.65534 47 10.0072 47C13.359 47 15.04 47 18.573 47C22.106 47 26.3939 43.9176 26.3939 40.1564V32.9218C26.2077 29.5978 23.4146 27.3897 18.573 26.2737C12.5678 24.8896 10.6668 23.8793 10.3796 21.581V14.933C10.4462 12.6678 11.2331 12.114 13.5452 12H18.7592C22.5151 12.3418 25.5243 14.6913 25.8353 18.6481V22.1676C25.8878 23.4364 25.647 23.7775 24.7181 23.7319H19.3179C18.4066 23.7539 18.1574 23.4066 18.2006 22.1676V20.4078C17.9456 18.5642 17.0214 18.2266 14.6625 18.257H5.53805C3.41112 18.3177 2.89054 19.1186 2.93107 21.581V24.3184C3.08145 27.9222 5.14573 29.2164 8.51751 30.5754C16.1979 33.2755 18.573 34.486 18.573 36.2458V38.0056C18.573 39.5699 17.4558 40.5475 15.7798 40.5475C15.7798 40.5475 15.7798 40.5475 12.8004 40.5475C9.82094 40.5475 10.0072 38.0056 10.0072 38.0056V35.0726C10.0072 33.8994 9.26233 33.3128 8.51751 33.3128H3.67592C2.55864 33.3128 2 34.0949 2 35.0726Z" stroke="url(#paint1_linear_350_80)" stroke-width="3.18182" stroke-linejoin="round"/>
<defs>
<linearGradient id="paint0_linear_350_80" x1="46.6667" y1="12" x2="46.6667" y2="47" gradientUnits="userSpaceOnUse">
<stop stop-color="#1A6BE6"/>
<stop offset="1" stop-color="#003FA6"/>
</linearGradient>
<linearGradient id="paint1_linear_350_80" x1="14.197" y1="12" x2="14.197" y2="47" gradientUnits="userSpaceOnUse">
<stop stop-color="#1A6BE6"/>
<stop offset="1" stop-color="#003FA6"/>
</linearGradient>
</defs>
</svg>
