<svg  viewBox="0 0 151 123" fill="none" xmlns="http://www.w3.org/2000/svg">
<path fill-rule="evenodd" clip-rule="evenodd" d="M80.8888 9.85072C75.6229 16.9551 73.9117 34.899 72.7278 55.2005C71.5501 61.4392 64.2492 62.4921 62.4066 61.6542C40.9674 49.0246 35.8168 47.7344 28.5332 46.5574C-1.5715 42.9638 -2.11698 82.1774 1.58403 101.112C5.28504 120.047 10.0581 126.387 24.2986 119.037L146.787 43.6259C158.4 35.6377 137.864 18.5987 112.218 4.30673C95.4157 -5.05696 86.1651 2.73233 80.8888 9.85072ZM31.6599 58.357C36.2289 58.9688 50.3768 64.2384 61.308 71.9027C68.4961 76.8274 70.2204 81.7984 65.9667 85.3305C55.5029 93.6928 45.7373 98.3501 28.3302 106.652L28.3103 106.661C20.7826 109.757 15.7917 107.392 13.6345 100.209C11.4774 93.0257 11.2813 73.2468 15.6182 65.7841C19.955 58.3214 27.0909 57.7451 31.6599 58.357ZM81.7781 57.4056C81.5183 52.3192 82.2658 24.1853 93.3432 16.5519C100.311 12.1281 109.07 14.3353 120.193 23.2116C135.278 34.294 136.508 38.2549 132.735 42.7289C128.963 47.2029 112.89 57.6394 92.9342 67.0006C88.4853 68.951 82.038 62.492 81.7781 57.4056Z" fill="#E54"/>
<path d="M74.3952 55.8653C68.0984 57.925 65.1106 59.6987 60.5266 63.8598C56.8095 67.2612 64.0291 86.8767 69.7779 85.9059C75.5267 84.935 90.2251 73.8626 92.2779 71.4059C94.3307 68.9491 80.2836 51.9973 74.3952 55.8653Z" fill="#E54"/>
</svg>
