<svg  viewBox="0 0 347 335" fill="none" xmlns="http://www.w3.org/2000/svg">
<circle cx="186.498" cy="154.5" r="154.5" fill="#1A6BE6"/>
<circle cx="184.998" cy="155" r="127" fill="#F1F7FF"/>
<circle cx="185.998" cy="155" r="10" fill="#1A6BE6"/>
<rect x="241.971" y="88" width="12.386" height="89.4758" transform="rotate(43.8349 241.971 88)" fill="#1A6BE6"/>
<rect x="239.951" y="182.097" width="12.39" height="62.8459" transform="rotate(121.778 239.951 182.097)" fill="#1A6BE6"/>
<circle cx="186.498" cy="264.5" r="6.5" fill="#1A6BE6"/>
<circle cx="129.498" cy="248.5" r="6.5" fill="#1A6BE6"/>
<circle cx="92.498" cy="211.5" r="6.5" fill="#1A6BE6"/>
<circle cx="76.75" cy="154.751" r="6.5" transform="rotate(90 76.75 154.751)" fill="#1A6BE6"/>
<circle cx="92.75" cy="97.7515" r="6.5" transform="rotate(90 92.75 97.7515)" fill="#1A6BE6"/>
<circle cx="129.75" cy="60.7515" r="6.5" transform="rotate(90 129.75 60.7515)" fill="#1A6BE6"/>
<circle cx="296.498" cy="154.5" r="6.5" transform="rotate(180 296.498 154.5)" fill="#1A6BE6"/>
<circle cx="186.498" cy="44.4995" r="6.5" transform="rotate(180 186.498 44.4995)" fill="#1A6BE6"/>
<circle cx="243.498" cy="60.4995" r="6.5" transform="rotate(180 243.498 60.4995)" fill="#1A6BE6"/>
<circle cx="280.498" cy="97.4995" r="6.5" transform="rotate(180 280.498 97.4995)" fill="#1A6BE6"/>
<circle cx="186.498" cy="264.5" r="6.5" transform="rotate(-90 186.498 264.5)" fill="#1A6BE6"/>
<circle cx="296.498" cy="154.5" r="6.5" transform="rotate(-90 296.498 154.5)" fill="#1A6BE6"/>
<circle cx="280.498" cy="211.5" r="6.5" transform="rotate(-90 280.498 211.5)" fill="#1A6BE6"/>
<circle cx="243.498" cy="248.5" r="6.5" transform="rotate(-90 243.498 248.5)" fill="#1A6BE6"/>
<path d="M158.724 33.3945L251.896 263.831C248.114 272.013 133.809 339.502 65.4192 208.579C-2.97083 77.6572 133.784 20.0572 158.724 33.3945Z" fill="#1A6BE6" fill-opacity="0.33"/>
<path d="M234.986 289H300.096C300.096 289 300.096 289 306.076 289C312.055 289.001 314.713 289.665 314.713 295.644V303.618C314.713 308.933 312.72 309.597 306.74 309.597H234.986C231 309.597 229.007 308.933 229.007 303.618C229.007 298.302 229.005 300.959 229.007 295.644C229.008 290.329 229.668 289 234.986 289Z" fill="#EBD071"/>
<path d="M240.963 298.302V289H233.648C230.326 289 229.127 290.693 229 293.651L229.003 305.611C229.104 307.836 231.085 309.893 233.892 309.598H308.731C314.036 309.278 314.354 307.53 314.71 304.282H252.258C242.292 304.282 240.963 304.282 240.963 298.302Z" fill="#D0662A"/>
<path d="M282.152 309.598C284.219 301.56 284.168 297.039 282.152 289H295.44C297.065 296.849 297.396 301.32 295.44 309.598H282.152Z" fill="#F8ECBF"/>
<path d="M214.986 269H280.096C280.096 269 280.096 268.999 286.076 269C292.055 269 294.713 269.642 294.713 275.421V283.126C294.713 288.263 292.72 288.904 286.74 288.904H214.986C211 288.904 209.007 288.263 209.007 283.126C209.007 277.988 209.005 280.557 209.007 275.421C209.008 270.284 209.668 269 214.986 269Z" fill="#EBD071"/>
<path d="M220.963 277.989V269H213.648C210.326 268.999 209.127 270.635 209 273.495L209.003 285.052C209.104 287.203 211.085 289.19 213.892 288.905H288.731C294.036 288.596 294.354 286.907 294.71 283.768H232.258C222.292 283.768 220.963 283.768 220.963 277.989Z" fill="#D0662A"/>
<path d="M262.152 288.905C264.219 281.137 264.168 276.768 262.152 269H275.44C277.065 276.585 277.396 280.905 275.44 288.905H262.152Z" fill="#F8ECBF"/>
<path d="M289.812 240.232L335.852 286.275C335.852 286.275 335.853 286.274 340.081 290.503C344.308 294.732 345.718 297.08 341.49 301.309L335.852 306.947C332.094 310.705 330.215 309.766 325.987 305.537L275.249 254.797C272.43 251.978 271.49 250.099 275.249 246.34C279.007 242.581 277.127 244.459 280.886 240.702C284.645 236.945 286.052 236.472 289.812 240.232Z" fill="#EBD071"/>
<path d="M287.464 250.037L294.041 243.459L288.869 238.287C286.52 235.937 284.475 236.287 282.293 238.289L273.839 246.747C272.337 248.392 272.283 251.247 274.478 253.024L327.397 305.945C331.374 309.471 332.834 308.46 335.383 306.415L291.222 262.252C284.175 255.205 283.236 254.266 287.464 250.037Z" fill="#D0662A"/>
<path d="M308.604 287.151C315.749 282.929 318.91 279.696 323.168 272.587L332.564 281.983C328.163 288.682 325.236 292.078 318 296.548L308.604 287.151Z" fill="#F8ECBF"/>
</svg>
