<svg viewBox="0 0 377 501" fill="none" xmlns="http://www.w3.org/2000/svg">
<g id="safe">
<g id="feet">
<path id="Vector 541" d="M26 500.5L22 491H55L51 500.5H26Z" fill="#021D49" stroke="#021D49"/>
<path id="Vector 542" d="M327 500.5L323 491H356L352 500.5H327Z" fill="#021D49" stroke="#021D49"/>
</g>
<g id="coins-outside">
<g id="coin-3">
<path id="Vector 555" d="M127.986 58.0002H193.1C193.1 58.0002 193.1 57.9997 199.08 58.0002C205.059 58.0007 207.717 58.6646 207.717 64.6444V72.6175C207.717 77.9334 205.724 78.5973 199.744 78.5973H127.986C124 78.5973 122.007 77.9334 122.007 72.6175C122.007 67.3017 122.005 69.9594 122.007 64.6444C122.008 59.3295 122.668 58.0002 127.986 58.0002Z" fill="#EBD071"/>
<path id="Vector 559" d="M133.963 67.3024V58.0005H126.648C123.326 57.9998 122.127 59.6929 122 62.6515L122.003 74.6111C122.104 76.8363 124.085 78.893 126.892 78.5976H201.735C207.04 78.2781 207.358 76.5301 207.715 73.2822H145.259C135.292 73.2822 133.964 73.2822 133.963 67.3024Z" fill="#D0662A"/>
<path id="Vector 558" d="M175.156 78.5976C177.223 70.5595 177.172 66.0386 175.156 58.0005H188.445C190.07 65.8491 190.401 70.3198 188.445 78.5976H175.156Z" fill="#F8ECBF"/>
</g>
<g id="coin-4">
<path id="Vector 555_2" d="M107.986 38.0002H173.1C173.1 38.0002 173.1 37.9997 179.08 38.0002C185.059 38.0007 187.717 38.6423 187.717 44.4211V52.1261C187.717 57.2632 185.724 57.9049 179.744 57.9049H107.986C104 57.9049 102.007 57.2632 102.007 52.1261C102.007 46.989 102.005 49.5573 102.007 44.4211C102.008 39.2848 102.668 38.0002 107.986 38.0002Z" fill="#EBD071"/>
<path id="Vector 559_2" d="M113.963 46.9897V38.0005H106.648C103.326 37.9999 102.127 39.636 102 42.4951L102.003 54.0526C102.104 56.2031 104.085 58.1906 106.892 57.9051H181.735C187.04 57.5963 187.358 55.9072 187.715 52.7685H125.259C115.292 52.7685 113.964 52.7685 113.963 46.9897Z" fill="#D0662A"/>
<path id="Vector 558_2" d="M155.156 57.9051C157.223 50.1373 157.172 45.7683 155.156 38.0005H168.445C170.07 45.5852 170.401 49.9057 168.445 57.9051H155.156Z" fill="#F8ECBF"/>
</g>
<g id="coin-2">
<path id="Vector 555_3" d="M182.817 9.23288L228.859 55.2751C228.859 55.2751 228.859 55.2748 233.087 59.5035C237.315 63.7322 238.725 66.0809 234.497 70.3093L228.859 75.9471C225.1 79.706 223.221 78.766 218.993 74.5377L168.252 23.7973C165.433 20.9783 164.493 19.0994 168.252 15.3405C172.011 11.5817 170.131 13.4599 173.89 9.70269C177.649 5.94548 179.056 5.47204 182.817 9.23288Z" fill="#EBD071"/>
<path id="Vector 559_3" d="M180.466 19.0374L187.043 12.4599L181.871 7.28738C179.522 4.93783 177.477 5.287 175.295 7.28922L166.84 15.7478C165.338 17.3927 165.285 20.2478 167.479 22.0243L220.401 74.9458C224.378 78.4711 225.839 77.4602 228.387 75.4156L184.225 31.2527C177.177 24.2054 176.238 23.266 180.466 19.0374Z" fill="#D0662A"/>
<path id="Vector 558_3" d="M201.607 56.1518C208.753 51.9294 211.914 48.6967 216.172 41.5874L225.568 50.9838C221.167 57.6825 218.24 61.0781 211.004 65.5481L201.607 56.1518Z" fill="#F8ECBF"/>
</g>
<g id="coin">
<path id="Vector 552" d="M151 39.8881C151 82.3811 110.516 78.7179 110.516 78.7179L108.525 0.325666C108.525 0.325666 151 -6.2685 151 39.8881Z" fill="#D0662A"/>
<path id="Vector 550" d="M74.0142 38.4227C74.5428 17.5917 88.9878 -0.09089 107.862 0.325569C126.376 0.734103 139.864 17.9881 140.382 38.4227C140.915 59.4899 126.949 78.2982 107.862 78.7178C88.4251 79.145 73.4697 59.8747 74.0142 38.4227Z" fill="#EBD071"/>
<path id="light" d="M132.417 13.9204L78.6591 59.3439C80.5144 62.664 81.4274 64.3817 83.9685 67.4029L137.062 21.9794C135.224 18.0232 133.82 15.8025 132.417 13.9204Z" fill="#F8ECBF"/>
<path id="Vector 553" d="M95.2509 76.1944L140.381 41.0278C140.237 43.6369 140.043 44.7859 139.717 46.8889L100.56 77.6597C100.176 78.2252 97.4955 76.8841 95.2509 76.1944Z" fill="#F8ECBF"/>
<path id="Vector 551" d="M82.6401 40.6229C81.9265 24.4116 92.4947 8.90011 107.196 9.11949C121.73 9.33636 131.792 24.5964 131.088 40.6229C130.423 55.7907 120.951 68.9882 107.196 69.1958C93.2641 69.406 83.3163 55.9858 82.6401 40.6229Z" stroke="#D0662B" stroke-width="4.39582"/>
<path id="star" d="M106.533 23.4448L111.179 35.167H123.125L113.17 43.9587L116.488 56.4135L106.533 49.8198L96.578 56.4135L99.2327 43.9587L91.2686 35.167H102.551L106.533 23.4448Z" fill="#D0662A"/>
</g>
</g>
<rect id="safe_2" y="78" width="377" height="413" rx="13" fill="url(#paint0_linear_155_88)"/>
<rect id="inside" x="40" y="117" width="297" height="298" rx="13" fill="#061B39"/>
<g id="money">
<g id="bag">
<path id="Vector 560" d="M237.157 256.12C234.103 259.753 234.965 261.789 237.157 265.422C245.147 272.816 250.355 278.931 259.748 290.005C309.579 361.099 312.902 420.233 206.594 414.917V199.644C210.309 200.262 212.331 201.307 215.896 203.63C220.776 206.959 223.661 207.469 229.184 203.63C236.934 198.742 242.433 195.24 243.137 194.993C254.863 190.709 263.07 194.329 261.077 200.308C259.083 206.288 243.164 245.761 237.157 256.12Z" fill="#A67E1A"/>
<path id="Vector 561" d="M176.64 255.847C179.694 259.471 178.832 261.503 176.64 265.126C168.65 272.503 163.441 278.603 154.049 289.651C104.214 360.574 111.58 414.918 207.205 414.918L207.205 199.507C203.49 200.124 201.467 201.165 197.903 203.484C193.022 206.804 190.137 207.313 184.614 203.484C176.864 198.607 171.364 195.113 170.66 194.867C158.934 190.594 150.726 194.204 152.72 200.169C154.713 206.134 170.633 245.513 176.64 255.847Z" fill="#A67E1A"/>
<path id="Vector 562" d="M234.35 258.114H179.113C174.308 258.114 174.309 264.758 179.113 264.758H234.35C238.552 264.758 239.753 258.114 234.35 258.114Z" fill="#EBD071"/>
<path id="Vector 564" d="M241.952 344.488C241.952 326.141 227.079 311.267 208.731 311.267C190.383 311.267 175.51 326.141 175.51 344.488C175.51 362.836 190.383 377.709 208.731 377.709C227.079 377.709 241.952 362.836 241.952 344.488Z" fill="#AAC4ED"/>
<path id="Vector 565" d="M218.037 328.888C218.037 328.888 197.737 325.566 198.105 339.519C198.334 348.219 217.808 340.785 218.037 349.485C218.474 366.096 198.105 360.116 198.105 360.116" stroke="#003FA6" stroke-width="2.6577" stroke-linecap="round"/>
<path id="Vector 566" d="M208.729 328.542V323.227" stroke="#003FA6" stroke-width="2.6577" stroke-linecap="round"/>
<path id="Vector 567" d="M208.729 361.099V365.75" stroke="#003FA6" stroke-width="2.6577" stroke-linecap="round"/>
<path id="Vector 563" d="M217.367 288.013V264.094V263.429H222.682L223.347 288.013C226.021 289.219 226.589 290.127 226.669 291.999V294.657C226.567 295.724 226.008 296.113 224.676 296.65H217.367C214.679 296.612 214.091 296.117 214.045 294.657V291.999C214.638 290.433 215.47 289.566 217.367 288.013Z" fill="#EBD071"/>
</g>
<g id="coins">
<g id="coin_2">
<path id="Vector 552_2" d="M232.65 359.401C232.65 397.937 273.18 394.615 273.18 394.615L275.174 323.522C275.174 323.522 232.65 317.542 232.65 359.401Z" fill="#D0662A"/>
<path id="Vector 550_2" d="M309.723 358.072C309.194 339.18 294.732 323.144 275.837 323.522C257.302 323.892 243.798 339.54 243.28 358.072C242.747 377.177 256.728 394.234 275.837 394.615C295.296 395.002 310.268 377.526 309.723 358.072Z" fill="#EBD071"/>
<path id="light_2" d="M251.254 335.851L305.073 377.045C303.215 380.056 302.301 381.614 299.757 384.354L246.604 343.159C248.444 339.571 249.849 337.557 251.254 335.851Z" fill="#F8ECBF"/>
<path id="Vector 553_2" d="M288.462 392.326L243.281 360.434C243.426 362.8 243.619 363.842 243.946 365.749L283.147 393.655C283.531 394.168 286.215 392.952 288.462 392.326Z" fill="#F8ECBF"/>
<path id="Vector 551_2" d="M301.086 360.067C301.801 345.365 291.221 331.298 276.503 331.497C261.953 331.693 251.88 345.533 252.584 360.067C253.25 373.822 262.732 385.791 276.503 385.979C290.45 386.17 300.41 373.999 301.086 360.067Z" stroke="#D0662B" stroke-width="3.98654"/>
<path id="star_2" d="M277.167 344.488L272.516 355.119H260.557L270.523 363.092L267.201 374.387L277.167 368.408L287.134 374.387L284.476 363.092L292.449 355.119H281.154L277.167 344.488Z" fill="#D0662A"/>
</g>
<g id="coin-3_2">
<path id="Vector 555_4" d="M247.277 394.321H312.391C312.391 394.321 312.391 394.32 318.371 394.321C324.35 394.321 327.008 394.985 327.008 400.965V408.938C327.008 414.254 325.015 414.918 319.035 414.918H247.277C243.291 414.918 241.298 414.254 241.298 408.938C241.298 403.622 241.296 406.28 241.298 400.965C241.299 395.65 241.959 394.321 247.277 394.321Z" fill="#EBD071"/>
<path id="Vector 559_4" d="M253.254 403.623V394.321H245.939C242.617 394.32 241.418 396.013 241.291 398.972L241.294 410.931C241.395 413.157 243.376 415.213 246.183 414.918H321.026C326.331 414.598 326.649 412.85 327.006 409.603H264.55C254.583 409.603 253.255 409.603 253.254 403.623Z" fill="#D0662A"/>
<path id="Vector 558_4" d="M294.447 414.918C296.514 406.88 296.463 402.359 294.447 394.321H307.736C309.361 402.169 309.692 406.64 307.736 414.918H294.447Z" fill="#F8ECBF"/>
</g>
<g id="coin-2_2">
<path id="Vector 555_5" d="M161.562 375.052H226.676C226.676 375.052 226.676 375.052 232.656 375.052C238.636 375.053 241.293 375.717 241.293 381.697V389.67C241.293 394.986 239.3 395.65 233.32 395.65H161.562C157.576 395.65 155.583 394.986 155.583 389.67C155.583 384.354 155.581 387.012 155.583 381.697C155.584 376.382 156.244 375.052 161.562 375.052Z" fill="#EBD071"/>
<path id="Vector 559_5" d="M167.54 384.355V375.053H160.225C156.902 375.052 155.703 376.745 155.576 379.704L155.579 391.663C155.68 393.889 157.661 395.945 160.469 395.65H235.311C240.616 395.33 240.934 393.582 241.291 390.334H178.835C168.868 390.334 167.54 390.334 167.54 384.355Z" fill="#D0662A"/>
</g>
<g id="coin-4_2">
<path id="Vector 555_6" d="M162.891 394.985H228.004C228.004 394.985 228.004 394.985 233.984 394.985C239.964 394.986 242.621 395.627 242.621 401.406V409.111C242.621 414.248 240.628 414.89 234.648 414.89H162.891C158.904 414.89 156.911 414.248 156.911 409.111C156.911 403.974 156.909 406.542 156.911 401.406C156.912 396.27 157.572 394.985 162.891 394.985Z" fill="#EBD071"/>
<path id="Vector 559_6" d="M168.868 403.975V394.985H161.553C158.231 394.985 157.031 396.621 156.904 399.48L156.907 411.037C157.008 413.188 158.989 415.175 161.797 414.89H236.639C241.944 414.581 242.262 412.892 242.619 409.753H180.163C170.197 409.753 168.868 409.753 168.868 403.975Z" fill="#D0662A"/>
<path id="Vector 558_5" d="M210.061 414.89C212.127 407.122 212.077 402.753 210.061 394.985H223.349C224.974 402.57 225.305 406.891 223.349 414.89H210.061Z" fill="#F8ECBF"/>
</g>
</g>
</g>
<g id="details">
<rect id="strap" y="453" width="377" height="11" fill="#8CAFE4"/>
<g id="balls">
<circle id="Ellipse 467" cx="239" cy="437" r="8" fill="#8CAFE4"/>
<circle id="Ellipse 468" cx="337" cy="437" r="8" fill="#8CAFE4"/>
<circle id="Ellipse 469" cx="141" cy="437" r="8" fill="#8CAFE4"/>
<circle id="Ellipse 470" cx="43" cy="437" r="8" fill="#8CAFE4"/>
</g>
<g id="balls_2">
<circle id="Ellipse 467_2" cx="239" cy="100" r="8" fill="#8CAFE4"/>
<circle id="Ellipse 468_2" cx="337" cy="100" r="8" fill="#8CAFE4"/>
<circle id="Ellipse 469_2" cx="141" cy="100" r="8" fill="#8CAFE4"/>
<circle id="Ellipse 470_2" cx="43" cy="100" r="8" fill="#8CAFE4"/>
</g>
</g>
<g id="door">
<rect id="safe-shadow-2" x="40" y="128.545" width="272.024" height="273.467" rx="13.7094" fill="#99BFF9"/>
<rect id="safe-shadow-1" x="40" y="117" width="272.024" height="298" rx="20.9249" fill="#003FA6"/>
<rect id="safe_3" x="40" y="117" width="297" height="298" rx="13" fill="url(#paint1_linear_155_88)"/>
<g id="opener">
<g id="opener-shadow">
<path id="Vector 547" d="M184.488 331.3V283.678V282.956H190.982V331.3H184.488Z" fill="#0B2568"/>
<path id="Vector 548" d="M171.955 260.239L128.065 234.9L127.4 234.516L130.647 228.892L175.202 254.615L171.955 260.239Z" fill="#0B2568"/>
<path id="Vector 549" d="M200.361 255.176L245.527 229.099L246.211 228.704L247.834 231.516L249.458 234.328L203.608 260.8L200.361 255.176Z" fill="#0B2568"/>
<path id="door-knob" d="M260.249 265.639C260.249 305.489 227.944 337.794 188.094 337.794C148.244 337.794 115.939 305.489 115.939 265.639C115.939 225.789 148.244 193.484 188.094 193.484C227.944 193.484 260.249 225.789 260.249 265.639ZM122.979 265.639C122.979 301.601 152.132 330.755 188.094 330.755C224.057 330.755 253.21 301.601 253.21 265.639C253.21 229.676 224.057 200.523 188.094 200.523C152.132 200.523 122.979 229.676 122.979 265.639Z" fill="#0B2568"/>
<path id="Ellipse 471" d="M206.134 265.639C206.134 275.602 198.058 283.678 188.095 283.678C178.133 283.678 170.057 275.602 170.057 265.639C170.057 255.677 178.133 247.601 188.095 247.601C198.058 247.601 206.134 255.677 206.134 265.639ZM174.326 265.639C174.326 273.244 180.491 279.409 188.095 279.409C195.7 279.409 201.865 273.244 201.865 265.639C201.865 258.035 195.7 251.87 188.095 251.87C180.491 251.87 174.326 258.035 174.326 265.639Z" fill="#0B2568"/>
</g>
<g id="opener_2">
<g id="Vector">
<path d="M184.487 330.656V282.956H190.981V330.692C188.081 330.797 186.716 330.769 184.487 330.656Z" fill="url(#paint2_linear_155_88)"/>
<path d="M171.954 260.239L130.071 236.055C131.169 233.85 131.914 232.589 133.366 230.342L175.201 254.615L171.954 260.239Z" fill="url(#paint3_linear_155_88)"/>
<path d="M200.361 255.176L242.952 230.542C244.352 232.745 245.08 234 246.236 236.288L203.608 260.8L200.361 255.176Z" fill="#B9D0F1"/>
<path d="M260.249 265.639C260.249 305.489 227.944 337.794 188.094 337.794C148.244 337.794 115.939 305.489 115.939 265.639C115.939 225.789 148.244 193.484 188.094 193.484C227.944 193.484 260.249 225.789 260.249 265.639ZM122.979 265.639C122.979 301.601 152.132 330.755 188.094 330.755C224.057 330.755 253.21 301.601 253.21 265.639C253.21 229.676 224.057 200.523 188.094 200.523C152.122 200.498 122.959 229.64 122.979 265.639Z" fill="url(#paint4_linear_155_88)"/>
<path d="M206.133 265.639C206.133 275.601 198.057 283.678 188.094 283.678C178.132 283.678 170.056 275.601 170.056 265.639C170.056 255.676 178.132 247.6 188.094 247.6C198.057 247.6 206.133 255.676 206.133 265.639ZM174.325 265.639C174.325 273.244 180.49 279.409 188.094 279.409C195.699 279.409 201.864 273.244 201.864 265.639C201.864 258.034 195.699 251.869 188.094 251.869C180.49 251.869 174.325 258.034 174.325 265.639Z" fill="#B9D0F1"/>
</g>
</g>
<g id="lock">
<circle id="Ellipse 484" cx="188.094" cy="265.64" r="13.7094" fill="white"/>
<path id="Vector 546" d="M186.652 270.69V265.64C186.652 265.241 186.975 264.918 187.374 264.918H188.817C189.215 264.918 189.539 265.241 189.539 265.64V270.69C189.539 271.089 189.215 271.412 188.817 271.412H187.374C186.975 271.412 186.652 271.089 186.652 270.69Z" fill="black" stroke="black" stroke-width="0.72155"/>
<circle id="Ellipse 472" cx="188.094" cy="262.753" r="3.60775" fill="black"/>
</g>
</g>
<g id="digits">
<g id="digits-shadow">
<circle id="Ellipse 473" cx="271.856" cy="146.09" r="7.2155" fill="#0B2568"/>
<circle id="Ellipse 476" cx="271.856" cy="164.129" r="7.2155" fill="#0B2568"/>
<circle id="Ellipse 478" cx="289.895" cy="164.129" r="7.2155" fill="#0B2568"/>
<circle id="Ellipse 481" cx="289.895" cy="182.168" r="7.2155" fill="#0B2568"/>
<circle id="Ellipse 479" cx="307.93" cy="164.129" r="7.2155" fill="#0B2568"/>
<circle id="Ellipse 480" cx="307.93" cy="182.168" r="7.2155" fill="#0B2568"/>
<circle id="Ellipse 477" cx="271.856" cy="182.168" r="7.2155" fill="#0B2568"/>
<circle id="Ellipse 474" cx="289.895" cy="146.09" r="7.2155" fill="#0B2568"/>
<circle id="Ellipse 475" cx="307.93" cy="146.09" r="7.2155" fill="#0B2568"/>
</g>
<g id="digits_2">
<circle id="Ellipse 473_2" cx="271.856" cy="146.09" r="7.2155" fill="#B9D0F1"/>
<circle id="Ellipse 476_2" cx="271.856" cy="164.129" r="7.2155" fill="#B9D0F1"/>
<circle id="Ellipse 478_2" cx="289.895" cy="164.129" r="7.2155" fill="#B9D0F1"/>
<circle id="Ellipse 481_2" cx="289.895" cy="182.168" r="7.2155" fill="#B9D0F1"/>
<circle id="Ellipse 479_2" cx="307.93" cy="164.129" r="7.2155" fill="#B9D0F1"/>
<circle id="Ellipse 480_2" cx="307.93" cy="182.168" r="7.2155" fill="#B9D0F1"/>
<circle id="Ellipse 477_2" cx="271.856" cy="182.168" r="7.2155" fill="#B9D0F1"/>
<circle id="Ellipse 474_2" cx="289.895" cy="146.09" r="7.2155" fill="#B9D0F1"/>
<circle id="Ellipse 475_2" cx="307.93" cy="146.09" r="7.2155" fill="#B9D0F1"/>
</g>
</g>
</g>
<g id="hinges">
<g id="hinge">
<path id="Vector 545" d="M46 186H33V192H46V186Z" fill="#4884E6"/>
<path id="Vector 543" d="M33.0003 175H46.0009C46.0009 175 45.8079 170.5 39.5009 170.5C32.8388 170.5 33.0003 175 33.0003 175Z" fill="#4884E6"/>
<path id="Vector 544" d="M46 202H33C33 202 33.1906 206 39.4199 206C46 206 46 202 46 202Z" fill="#4884E6"/>
<path id="Rectangle 34624353" d="M33 175H46V186H33V175Z" fill="#A7C4F0"/>
<rect id="Rectangle 34624354" x="33" y="191" width="13" height="11" fill="#A7C4F0"/>
</g>
<g id="hinge_2">
<path id="Vector 545_2" d="M46.5003 337H33.5L33.5003 343H46.5003V337Z" fill="#4884E6"/>
<path id="Vector 543_2" d="M33.5003 326.5H46.5085C46.5085 326.5 46.3155 322 40.0085 322C33.3464 322 33.5003 326.5 33.5003 326.5Z" fill="#4884E6"/>
<path id="Vector 544_2" d="M46.5078 353.5H33.5078C33.5078 353.5 33.6984 357.5 39.9278 357.5C46.5078 357.5 46.5078 353.5 46.5078 353.5Z" fill="#4884E6"/>
<path id="Rectangle 34624353_2" d="M33.5078 326.5H46.5078V337.5H33.5078V326.5Z" fill="#A7C4F0"/>
<rect id="Rectangle 34624354_2" x="33.5078" y="342.5" width="13" height="11" fill="#A7C4F0"/>
</g>
</g>
</g>
<defs>
<linearGradient id="paint0_linear_155_88" x1="241.5" y1="195" x2="103.49" y2="225.378" gradientUnits="userSpaceOnUse">
<stop stop-color="#2D6CCC"/>
<stop offset="1" stop-color="#0D45A0"/>
</linearGradient>
<linearGradient id="paint1_linear_155_88" x1="243.252" y1="202.143" x2="77.7369" y2="259.98" gradientUnits="userSpaceOnUse">
<stop stop-color="#6895DA"/>
<stop offset="1" stop-color="#366BBA"/>
</linearGradient>
<linearGradient id="paint2_linear_155_88" x1="222.368" y1="225.593" x2="140.1" y2="247.949" gradientUnits="userSpaceOnUse">
<stop stop-color="#1B6CE7"/>
<stop offset="0.0001" stop-color="#1A6BE6"/>
<stop offset="1" stop-color="#003FA6"/>
</linearGradient>
<linearGradient id="paint3_linear_155_88" x1="222.368" y1="225.593" x2="140.1" y2="247.949" gradientUnits="userSpaceOnUse">
<stop stop-color="#1B6CE7"/>
<stop offset="0.0001" stop-color="#1A6BE6"/>
<stop offset="1" stop-color="#003FA6"/>
</linearGradient>
<linearGradient id="paint4_linear_155_88" x1="222.368" y1="225.593" x2="140.1" y2="247.949" gradientUnits="userSpaceOnUse">
<stop stop-color="#1B6CE7"/>
<stop offset="0.0001" stop-color="#1A6BE6"/>
<stop offset="1" stop-color="#003FA6"/>
</linearGradient>
</defs>
</svg>
