<svg viewBox="0 0 297 298" fill="none" xmlns="http://www.w3.org/2000/svg">
<g id="door">
<g id="safe-shadows">
<g id="safe-shadow-2">
<rect id="safe-shadow-2_2" x="3" y="22" width="272" height="254" rx="13.7094" fill="#4686E4"/>
<g id="lock-ball-wrapper">
<g id="lock-ball-2">
<circle id="shadow" cx="273" cy="206" r="8" fill="#0B2568"/>
<circle id="lock-ball" cx="277" cy="206" r="8" fill="#8CAFE4"/>
</g>
<g id="lock-ball-1">
<circle id="shadow_2" cx="273" cy="92" r="8" fill="#0B2568"/>
<circle id="lock-ball_2" cx="277" cy="92" r="8" fill="#8CAFE4"/>
</g>
</g>
</g>
<rect id="safe-shadow-1" width="272.024" height="298" rx="20.9249" fill="#003FA6"/>
</g>
<rect id="safe" width="297" height="298" rx="13" fill="url(#paint0_linear_171_80)"/>
<g id="opener">
<g id="opener-wrapper">
<g id="opener-shadow">
<path id="Vector 547" d="M144.488 214.3V166.678V165.956H150.982V214.3H144.488Z" fill="#0B2568"/>
<path id="Vector 548" d="M131.955 143.239L88.0654 117.9L87.4004 117.516L90.6474 111.892L135.202 137.615L131.955 143.239Z" fill="#0B2568"/>
<path id="Vector 549" d="M160.361 138.176L205.527 112.099L206.211 111.704L207.834 114.516L209.458 117.328L163.608 143.8L160.361 138.176Z" fill="#0B2568"/>
<path id="door-knob" d="M220.249 148.639C220.249 188.489 187.944 220.794 148.094 220.794C108.244 220.794 75.9395 188.489 75.9395 148.639C75.9395 108.789 108.244 76.4839 148.094 76.4839C187.944 76.4839 220.249 108.789 220.249 148.639ZM82.9786 148.639C82.9786 184.601 112.132 213.755 148.094 213.755C184.057 213.755 213.21 184.601 213.21 148.639C213.21 112.676 184.057 83.523 148.094 83.523C112.132 83.523 82.9786 112.676 82.9786 148.639Z" fill="#0B2568"/>
<path id="Ellipse 471" d="M166.134 148.639C166.134 158.602 158.058 166.678 148.095 166.678C138.133 166.678 130.057 158.602 130.057 148.639C130.057 138.677 138.133 130.601 148.095 130.601C158.058 130.601 166.134 138.677 166.134 148.639ZM134.326 148.639C134.326 156.244 140.491 162.409 148.095 162.409C155.7 162.409 161.865 156.244 161.865 148.639C161.865 141.035 155.7 134.87 148.095 134.87C140.491 134.87 134.326 141.035 134.326 148.639Z" fill="#0B2568"/>
</g>
<g id="opener_2">
<g id="opener-color">
<path d="M144.487 213.656V165.956H150.981V213.692C148.081 213.797 146.717 213.769 144.487 213.656Z" fill="#1461D7"/>
<path d="M131.954 143.239L90.0712 119.055C91.169 116.85 91.9142 115.589 93.366 113.342L135.201 137.615L131.954 143.239Z" fill="#1461D7"/>
<path d="M160.361 138.176L202.952 113.542C204.352 115.745 205.08 117 206.236 119.288L163.608 143.8L160.361 138.176Z" fill="#B9D0F1"/>
<path d="M220.249 148.639C220.249 188.489 187.944 220.794 148.094 220.794C108.244 220.794 75.9395 188.489 75.9395 148.639C75.9395 108.789 108.244 76.4839 148.094 76.4839C187.944 76.4839 220.249 108.789 220.249 148.639ZM82.9786 148.639C82.9786 184.601 112.132 213.755 148.094 213.755C184.057 213.755 213.21 184.601 213.21 148.639C213.21 112.676 184.057 83.523 148.094 83.523C112.122 83.4978 82.9593 112.64 82.9786 148.639Z" fill="#1461D7"/>
<path d="M166.133 148.639C166.133 158.601 158.057 166.678 148.094 166.678C138.132 166.678 130.056 158.601 130.056 148.639C130.056 138.676 138.132 130.6 148.094 130.6C158.057 130.6 166.133 138.676 166.133 148.639ZM134.325 148.639C134.325 156.244 140.49 162.409 148.094 162.409C155.699 162.409 161.864 156.244 161.864 148.639C161.864 141.034 155.699 134.869 148.094 134.869C140.49 134.869 134.325 141.034 134.325 148.639Z" fill="#B9D0F1"/>
</g>
</g>
</g>
<path id="opener-over" d="M220.313 149.161C220.313 189.011 188.008 221.316 148.158 221.316C108.308 221.316 76.0031 189.011 76.0031 149.161C75.6382 109.002 107.939 76.3183 148 76.5C188.026 75.9209 220.438 108.866 220.313 149.161ZM83.0031 149.006C83.0031 185.249 112.26 214.006 148.503 214.006C184.488 213.275 213.31 184.703 213.503 149.006C213.503 112.762 184.401 83.5365 148.158 83.5365C111.915 83.5365 83.0031 112.762 83.0031 149.006Z" fill="url(#paint1_linear_171_80)"/>
<g id="lock">
<circle id="Ellipse 484" cx="148.094" cy="148.64" r="13.7094" fill="white"/>
<path id="Vector 546" d="M146.652 153.69V148.64C146.652 148.241 146.975 147.918 147.374 147.918H148.817C149.215 147.918 149.539 148.241 149.539 148.64V153.69C149.539 154.089 149.215 154.412 148.817 154.412H147.374C146.975 154.412 146.652 154.089 146.652 153.69Z" fill="black" stroke="black" stroke-width="0.72155"/>
<circle id="Ellipse 472" cx="148.094" cy="145.753" r="3.60775" fill="black"/>
</g>
</g>
<g id="digits">
<g id="digits-shadow">
<circle id="Ellipse 473" cx="231.856" cy="29.0895" r="7.2155" fill="#0B2568"/>
<circle id="Ellipse 476" cx="231.856" cy="47.1286" r="7.2155" fill="#0B2568"/>
<circle id="Ellipse 478" cx="249.895" cy="47.1286" r="7.2155" fill="#0B2568"/>
<circle id="Ellipse 481" cx="249.895" cy="65.1676" r="7.2155" fill="#0B2568"/>
<circle id="Ellipse 479" cx="267.93" cy="47.1286" r="7.2155" fill="#0B2568"/>
<circle id="Ellipse 480" cx="267.93" cy="65.1676" r="7.2155" fill="#0B2568"/>
<circle id="Ellipse 477" cx="231.856" cy="65.1676" r="7.2155" fill="#0B2568"/>
<circle id="Ellipse 474" cx="249.895" cy="29.0895" r="7.2155" fill="#0B2568"/>
<circle id="Ellipse 475" cx="267.93" cy="29.0895" r="7.2155" fill="#0B2568"/>
</g>
<g id="digits_2">
<circle id="Ellipse 473_2" cx="231.856" cy="29.0895" r="7.2155" fill="#B9D0F1"/>
<circle id="Ellipse 476_2" cx="231.856" cy="47.1286" r="7.2155" fill="#B9D0F1"/>
<circle id="Ellipse 478_2" cx="249.895" cy="47.1286" r="7.2155" fill="#B9D0F1"/>
<circle id="Ellipse 481_2" cx="249.895" cy="65.1676" r="7.2155" fill="#B9D0F1"/>
<circle id="Ellipse 479_2" cx="267.93" cy="47.1286" r="7.2155" fill="#B9D0F1"/>
<circle id="Ellipse 480_2" cx="267.93" cy="65.1676" r="7.2155" fill="#B9D0F1"/>
<circle id="Ellipse 477_2" cx="231.856" cy="65.1676" r="7.2155" fill="#B9D0F1"/>
<circle id="Ellipse 474_2" cx="249.895" cy="29.0895" r="7.2155" fill="#B9D0F1"/>
<circle id="Ellipse 475_2" cx="267.93" cy="29.0895" r="7.2155" fill="#B9D0F1"/>
</g>
</g>
</g>
<defs>
<linearGradient id="paint0_linear_171_80" x1="203.252" y1="85.1429" x2="37.7369" y2="142.98" gradientUnits="userSpaceOnUse">
<stop stop-color="#6895DA"/>
<stop offset="1" stop-color="#366BBA"/>
</linearGradient>
<linearGradient id="paint1_linear_171_80" x1="79" y1="203.5" x2="216.5" y2="103.5" gradientUnits="userSpaceOnUse">
<stop stop-color="#003FA6"/>
<stop offset="1" stop-color="#347EEF"/>
</linearGradient>
</defs>
</svg>
