<svg viewBox="0 0 512 512" fill="none" xmlns="http://www.w3.org/2000/svg">
<g id="coin1" clip-path="url(#clip0_183_2956)">
<path id="Vector" d="M256 0C326.685 0 390.689 28.659 437.015 74.984C483.341 121.306 512 185.311 512 256C512 326.684 483.341 390.689 437.015 437.015C390.689 483.337 326.685 511.995 256 511.995C185.315 511.995 121.311 483.337 74.985 437.015C28.659 390.689 0 326.684 0 256C0 185.311 28.659 121.306 74.985 74.984C121.307 28.659 185.311 0 256 0Z" fill="#ECCA43"/>
<path id="Vector_2" d="M256 506.989C394.619 506.989 506.992 394.616 506.992 255.998C506.992 117.379 394.619 5.00684 256 5.00684C117.381 5.00684 5.008 117.379 5.008 255.998C5.008 394.616 117.381 506.989 256 506.989Z" fill="#F7E259"/>
<path id="Vector_3" fill-rule="evenodd" clip-rule="evenodd" d="M504.5 220C506.654 233.328 506.989 242.499 506.989 256C506.989 394.614 394.618 506.988 256 506.988C117.382 506.988 5.00702 394.614 5.00702 256C5.00702 234.142 6.5 230 7.5 220H257.5H504.5Z" fill="#F8D548"/>
<path id="Vector_4" d="M256 58.9219C310.414 58.9219 359.688 80.9829 395.353 116.647C431.017 152.308 453.078 201.582 453.078 255.996C453.078 310.41 431.017 359.684 395.353 395.348C359.688 431.012 310.414 453.074 256 453.074C201.586 453.074 152.312 431.012 116.651 395.348C80.987 359.684 58.926 310.41 58.926 255.996C58.926 201.582 80.987 152.308 116.651 116.647C152.312 80.9829 201.586 58.9219 256 58.9219Z" fill="#D7925B"/>
<path id="Vector_5" d="M256.001 448.066C362.078 448.066 448.07 362.074 448.07 255.997C448.07 149.92 362.078 63.9282 256.001 63.9282C149.924 63.9282 63.932 149.92 63.932 255.997C63.932 362.074 149.924 448.066 256.001 448.066Z" fill="#EDA140"/>
<path id="Vector_6" d="M235.907 353.009C233.125 352.812 231.422 352.53 229.376 352.2L217.922 350.557L210.852 349.371C208.562 348.964 206.272 348.502 204.012 348.001C201.798 347.514 199.594 346.978 197.404 346.392L194.712 345.669V301.43L207.222 302.448L216.407 302.992L226.046 303.42L235.809 303.724L245.298 303.908L254.114 303.951C256.794 303.951 259.143 303.857 261.151 303.677C263.218 303.493 265.076 303.21 266.719 302.838C268.213 302.5 269.519 302.055 270.627 301.52C271.577 301.062 272.369 300.514 272.985 299.898C273.507 299.38 273.907 298.753 274.158 298.062C274.454 297.248 274.603 296.272 274.603 295.155V292.232C274.603 289.899 273.854 288.196 272.36 287.139C271.433 286.48 270.403 285.979 269.313 285.654C268.196 285.307 266.942 285.14 265.564 285.14H252.655C242.931 285.14 234.306 284.049 226.804 281.874C219.155 279.657 212.701 276.31 207.445 271.851C202.073 267.266 198.058 261.202 195.413 253.656C192.837 246.311 191.544 237.567 191.544 227.44V219.402C191.544 210.025 192.978 201.769 195.833 194.642C198.739 187.396 203.113 181.357 208.939 176.546C213.159 173.071 217.148 170.225 221.886 167.999C225.887 166.12 230.373 164.712 235.907 163.788V144.164H276.705V162.996C283.454 163.535 288.685 164.477 295.289 165.671L298.717 166.27C301.58 166.775 304.435 167.327 307.26 167.913C309.91 168.457 312.46 169.026 314.883 169.613L317.661 170.289V214.587L313.723 214.241C309.792 213.897 305.857 213.603 301.919 213.359C297.506 213.082 293.09 212.848 288.672 212.657C284.254 212.463 279.833 212.312 275.412 212.204C271.62 212.114 267.605 212.066 263.372 212.066C261.147 212.066 259.084 212.144 257.2 212.293C255.227 212.447 253.43 212.674 251.829 212.965C250.378 213.226 249.085 213.629 247.981 214.147C247.005 214.609 246.162 215.187 245.473 215.876C244.895 216.454 244.441 217.198 244.142 218.076C243.791 219.107 243.611 220.366 243.611 221.838V224.273C243.611 225.84 243.838 227.167 244.288 228.228C244.696 229.202 245.34 230.06 246.162 230.723C247.052 231.447 248.251 232.012 249.736 232.406C251.397 232.842 253.43 233.069 255.818 233.069H271.894C277.8 233.069 283.279 233.647 288.308 234.785C293.393 235.941 297.981 237.687 302.055 240.007C310.235 244.668 316.402 251.015 320.537 259.032C322.574 262.978 324.115 267.22 325.138 271.739C326.157 276.237 326.674 280.963 326.674 285.898V293.935C326.674 301.866 325.964 308.937 324.56 315.122C323.126 321.431 320.939 326.806 318.02 331.236C315.097 335.67 311.536 339.394 307.367 342.39C303.202 345.382 298.435 347.65 293.102 349.178L291.736 349.559C286.532 351.057 282.765 352.144 276.705 352.808V374.045H235.907V353.009Z" fill="#C26A34"/>
<path id="Vector_7" d="M229.696 346.797C226.914 346.6 225.21 346.318 223.164 345.989L211.711 344.345L204.64 343.159C202.351 342.751 200.071 342.295 197.801 341.79C195.586 341.303 193.383 340.766 191.192 340.181L188.5 339.457V295.218L201.011 296.237L210.196 296.781L219.834 297.209L229.597 297.512L239.086 297.696L247.903 297.739C250.582 297.739 252.932 297.645 254.939 297.466C257.006 297.281 258.864 296.999 260.508 296.626C262.002 296.288 263.307 295.843 264.415 295.308C265.366 294.85 266.157 294.302 266.774 293.686C267.296 293.168 267.696 292.541 267.946 291.85C268.242 291.037 268.392 290.061 268.392 288.944V286.02C268.392 283.688 267.642 281.984 266.149 280.927C265.221 280.269 264.191 279.767 263.101 279.442C261.984 279.096 260.73 278.928 259.352 278.928H246.443C236.719 278.928 228.095 277.837 220.592 275.663C212.943 273.446 206.489 270.099 201.233 265.639C195.862 261.055 191.847 254.99 189.202 247.444C186.625 240.1 185.333 231.356 185.333 221.229V213.191C185.333 203.813 186.766 195.557 189.621 188.431C192.527 181.185 196.902 175.145 202.727 170.335C206.947 166.859 210.936 164.013 215.674 161.787C219.676 159.909 224.161 158.5 229.696 157.576V137.952H270.493V156.784C277.243 157.323 282.473 158.265 289.077 159.459L292.506 160.058C295.369 160.563 298.224 161.115 301.049 161.702C303.698 162.246 306.249 162.815 308.671 163.401L311.449 164.077V208.376L307.512 208.029C303.581 207.686 299.646 207.392 295.707 207.147C291.397 206.878 286.975 206.638 282.46 206.446C277.744 206.244 273.305 206.086 269.2 205.992C265.408 205.902 261.394 205.855 257.161 205.855C254.935 205.855 252.872 205.932 250.989 206.082C249.188 206.215 247.395 206.44 245.617 206.754C244.166 207.015 242.874 207.417 241.77 207.935C240.794 208.397 239.951 208.975 239.262 209.664C238.684 210.242 238.23 210.987 237.93 211.864C237.579 212.896 237.4 214.154 237.4 215.626V218.062C237.4 219.628 237.627 220.955 238.076 222.016C238.484 222.991 239.129 223.848 239.951 224.512C240.841 225.235 242.039 225.8 243.525 226.194C245.185 226.63 247.218 226.857 249.607 226.857H265.682C271.589 226.857 277.067 227.435 282.096 228.574C287.181 229.729 291.769 231.475 295.844 233.795C304.023 238.456 310.191 244.804 314.325 252.82C316.362 256.766 317.903 261.008 318.926 265.527C319.945 270.026 320.463 274.751 320.463 279.686V287.724C320.463 295.655 319.752 302.725 318.349 308.91C316.915 315.219 314.728 320.595 311.808 325.025C308.885 329.459 305.324 333.182 301.155 336.178C296.991 339.17 292.223 341.439 286.89 342.967L285.525 343.348C280.32 344.846 276.554 345.933 270.493 346.596V367.834H229.696V346.797Z" fill="#F3DC6B"/>
</g>
<defs>
<clipPath id="clip0_183_2956">
<rect width="512" height="511.995" fill="white"/>
</clipPath>
</defs>
</svg>
