<svg width="159" height="223" viewBox="0 0 159 223" fill="none" xmlns="http://www.w3.org/2000/svg">
<path d="M151.893 80.9258C148.741 76.537 147.409 71.0305 148.36 65.4845L150.256 54.4292L142.226 46.6009C142.103 46.4823 141.993 46.3553 141.874 46.2339C80.4171 97.5023 73.4269 179.684 74.0965 220.028C74.1214 221.498 75.2501 222.713 76.7146 222.85C78.1781 222.986 79.5101 221.999 79.8063 220.558C96.759 137.994 128.82 98.9713 151.893 80.9258Z" fill="url(#paint0_linear_291_81)"/>
<path d="M31.3711 25.7928L12.8251 29.9442L5.73092 47.5758C5.60214 47.8959 5.45679 48.2059 5.31329 48.5169C34.2586 89.4659 49.3338 173.07 55.3601 215.184C55.5017 216.172 56.3821 216.882 57.3774 216.815C58.3727 216.748 59.1482 215.924 59.1564 214.927C59.8896 124.092 45.9937 63.4844 31.969 25.6382C31.7694 25.6879 31.5735 25.7477 31.3711 25.7928Z" fill="url(#paint1_linear_291_81)"/>
<path d="M158.206 172.871L155.578 169.256C153.451 166.331 152.184 163 151.776 159.579C131.546 164.974 101.114 178.779 91.3908 213.699C90.8656 215.584 91.7799 217.574 93.5526 218.404C95.3261 219.234 97.44 218.661 98.5513 217.05C109.161 201.663 128.233 181.343 156.677 177.217C156.692 177.173 156.703 177.128 156.719 177.083L158.206 172.871Z" fill="url(#paint2_linear_291_81)"/>
<path d="M13.5419 137.608C11.692 140.195 9.23129 142.37 6.27108 143.91L2.30726 145.971L1.75808 150.405C1.5925 151.741 1.29446 153.034 0.890625 154.278C17.8764 173.464 30.3934 199.819 37.9577 218.742C38.4646 220.011 39.849 220.691 41.1645 220.321C42.479 219.95 43.3041 218.649 43.0751 217.301C36.3773 177.752 24.6625 152.984 13.5419 137.608Z" fill="url(#paint3_linear_291_81)"/>
<path d="M90.5777 9.24124L88.8805 5.10817L84.5128 4.16344C81.2518 3.45788 78.3063 2.00813 75.841 0C68.8029 18.7198 63.875 47.6753 69.0577 91.2276C69.3364 93.5715 72.7557 93.5439 72.9783 91.1945C74.8944 70.9918 79.8324 38.3246 92.4395 12.7552C91.7193 11.6596 91.09 10.4886 90.5777 9.24124Z" fill="url(#paint4_linear_291_81)"/>
<defs>
<linearGradient id="paint0_linear_291_81" x1="73" y1="196" x2="167" y2="53" gradientUnits="userSpaceOnUse">
<stop stop-color="#003FA6"/>
<stop offset="1" stop-color="#1A6BE6"/>
</linearGradient>
<linearGradient id="paint1_linear_291_81" x1="73" y1="196" x2="167" y2="53" gradientUnits="userSpaceOnUse">
<stop stop-color="#003FA6"/>
<stop offset="1" stop-color="#1A6BE6"/>
</linearGradient>
<linearGradient id="paint2_linear_291_81" x1="73" y1="196" x2="167" y2="53" gradientUnits="userSpaceOnUse">
<stop stop-color="#003FA6"/>
<stop offset="1" stop-color="#1A6BE6"/>
</linearGradient>
<linearGradient id="paint3_linear_291_81" x1="73" y1="196" x2="167" y2="53" gradientUnits="userSpaceOnUse">
<stop stop-color="#003FA6"/>
<stop offset="1" stop-color="#1A6BE6"/>
</linearGradient>
<linearGradient id="paint4_linear_291_81" x1="73" y1="196" x2="167" y2="53" gradientUnits="userSpaceOnUse">
<stop stop-color="#003FA6"/>
<stop offset="1" stop-color="#1A6BE6"/>
</linearGradient>
</defs>
</svg>
