<svg  viewBox="0 0 856 883" fill="none" xmlns="http://www.w3.org/2000/svg">
<g id="pig">
<g id="black-background">
<path id="Layer 1" fill-rule="evenodd" clip-rule="evenodd" d="M330 340C330 641 330 641 454 641C578 641 578 641 578 340C578 39 578 39 454 39C330 39 330 39 330 340Z" fill="#181214"/>
<path id="Layer 2" fill-rule="evenodd" clip-rule="evenodd" d="M330 340C330 641 330 641 454 641C578 641 578 641 578 340C578 39 578 39 454 39C330 39 330 39 330 340ZM443.163 449.067C443.424 450.744 442.051 453.863 441.219 453.482C440.752 453.269 440.385 450.557 440.576 448.732C440.776 446.816 442.855 447.085 443.163 449.067Z" fill="#565658"/>
<path id="Layer 3" fill-rule="evenodd" clip-rule="evenodd" d="M330 340C330 641 330 641 454 641C578 641 578 641 578 340C578 39 578 39 454 39C330 39 330 39 330 340ZM456.1 70.1498C457.009 71.1062 457.971 71.5161 459.193 71.4681C463.227 71.3105 464.77 72.7986 464.934 77.0045C465.048 79.9076 464.411 80.8782 462.119 81.2935C460.683 81.5533 460.683 81.5533 462.293 80.839C463.563 80.2762 463.937 79.8183 464.067 78.6711C464.367 76.0142 464.247 74.2698 463.741 73.9153C461.484 72.3346 454.169 70.9466 453.883 72.0457C453.279 74.3719 453.528 79.6161 454.261 79.9969C455.465 80.6232 455.603 80.8282 454.853 80.8735C452.443 81.021 451.395 74.9732 453.17 71.161C454.48 68.3438 454.408 68.3688 456.1 70.1498ZM492.694 270.74C493.674 273.177 493.674 273.177 492.568 271.416C491.96 270.447 491.32 269.649 491.146 269.644C490.925 269.636 491.387 268.522 491.699 268.311C491.707 268.306 492.155 269.398 492.694 270.74ZM439.48 271.763C439.928 272.551 440.426 273.002 440.586 272.766C440.747 272.531 440.96 272.652 441.06 273.036C441.159 273.42 441.36 273.559 441.506 273.345C441.87 272.81 441.842 278.587 441.469 280.94C439.216 295.152 429.325 290.919 429.584 275.855C429.627 273.374 429.627 273.374 429.797 276.252C429.968 279.13 429.968 279.13 430.963 277.099C431.511 275.982 432.172 275.068 432.433 275.067C432.693 275.066 432.949 274.814 433.002 274.506C433.536 271.356 438.14 269.407 439.48 271.763ZM487.553 274.18C487.635 274.394 487.084 274.411 486.329 274.218C484.629 273.783 483.862 274.221 483.862 275.627C483.862 276.613 483.902 276.612 484.321 275.617C484.67 274.787 484.985 274.667 485.639 275.113C486.838 275.931 487.043 276.7 485.927 276.195C484.589 275.589 484.121 276.21 484.303 278.348C484.451 280.081 484.441 280.073 484.014 278.109C483.573 276.08 483.573 276.08 483.717 278.363C483.797 279.618 483.862 281.234 483.862 281.954C483.862 282.673 483.989 283.076 484.144 282.849C484.309 282.606 484.35 282.899 484.244 283.559C483.772 286.484 483.13 278.633 483.577 275.409C483.877 273.246 486.842 272.33 487.553 274.18ZM493.972 286.91C493.223 289.948 492.326 292.104 492.933 289.406C493.104 288.647 493.148 287.899 493.032 287.744C492.916 287.589 492.979 287.553 493.172 287.665C493.616 287.92 494.312 285.04 493.888 284.704C493.725 284.575 493.668 283.8 493.76 282.98C493.924 281.517 493.93 281.521 494.128 283.182C494.279 284.457 494.348 283.958 494.408 281.153C494.488 277.433 494.488 277.433 494.595 280.689C494.68 283.267 494.55 284.563 493.972 286.91ZM486.166 288.926C486.385 288.624 486.469 288.626 486.353 288.93C486.237 289.234 486.301 289.95 486.496 290.521C486.788 291.381 486.776 291.461 486.422 290.99C485.691 290.015 484.676 287.639 484.387 286.226C484.235 285.482 484.483 285.909 484.939 287.175C485.509 288.759 485.891 289.305 486.166 288.926ZM491.541 291.909C491.033 292.587 488.769 293.617 488.998 293.066C489.151 292.7 491.093 291.486 491.683 291.387C491.84 291.361 491.776 291.596 491.541 291.909ZM443.163 449.067C443.424 450.744 442.051 453.863 441.219 453.482C440.752 453.269 440.385 450.557 440.576 448.732C440.776 446.816 442.855 447.085 443.163 449.067ZM469.969 452.883C469.666 453.34 469.715 453.681 470.203 454.494C470.563 455.093 470.7 455.703 470.531 455.952C470.371 456.187 470.099 455.754 469.927 454.989C469.742 454.169 469.474 453.798 469.272 454.085C469.067 454.378 469.087 454.116 469.321 453.428C469.536 452.798 469.856 452.288 470.032 452.293C470.223 452.299 470.197 452.54 469.969 452.883ZM494.068 607.826C494.634 608.181 495.452 608.645 495.887 608.858C496.427 609.122 496.826 609.988 497.148 611.594C497.407 612.887 497.723 613.944 497.851 613.944C497.978 613.944 498.083 614.705 498.083 615.635C498.083 616.687 498.244 617.326 498.509 617.326C498.744 617.326 498.94 617.707 498.946 618.171C498.958 619.11 501.046 622.451 502.357 623.629C502.822 624.045 503.202 624.703 503.202 625.09C503.202 626.202 504.207 627.408 505.536 627.89C506.207 628.133 506.885 628.553 507.041 628.823C507.198 629.093 507.902 629.507 508.606 629.741C509.309 629.976 510.781 630.499 511.876 630.903C512.971 631.307 515.659 631.896 517.849 632.209C521.686 632.761 521.624 632.772 516.142 632.529C506.349 632.094 500.962 628.458 493.248 617.078C489.547 611.619 488.733 611.471 471.917 613.202C467.772 613.629 457.278 614.274 448.596 614.636C427.339 615.522 428.648 615.035 422.573 624.325C419.098 629.64 415.652 633.426 411.996 635.946C408.617 638.274 408.112 638.019 411.197 635.542C413.768 633.479 418.328 628.486 418.601 627.437C418.681 627.128 419.293 626.227 419.96 625.434C421.315 623.825 423.569 619.155 423.569 617.957C423.569 617.53 423.767 617.362 424.01 617.584C424.253 617.805 424.385 617.73 424.303 617.417C423.601 614.714 426.996 614.076 448.312 612.91C457.702 612.396 466.708 611.355 472.202 610.148C474.783 609.582 479.049 608.861 481.681 608.546C484.314 608.231 486.543 607.795 486.634 607.577C486.908 606.925 492.956 607.128 494.068 607.826Z" fill="#333335"/>
</g>
<rect id="hole" x="423" y="57" width="43" height="379" rx="1" fill="#333335"/>
<path id="Layer 9" fill-rule="evenodd" clip-rule="evenodd" d="M428 0.588044C390.79 2.56304 334.873 13.462 286.728 28.123C269.665 33.32 269.433 33.3 245.964 24.683C232.411 19.707 214.735 15.241 195 11.806C183.351 9.77804 153.372 10.119 143.5 12.392C123.579 16.979 113.83 22.644 96.4972 39.702C64.3992 71.294 54.2912 102.248 53.4612 171.5C53.0892 202.5 53.0892 202.5 47.7002 213.5C41.0772 227.021 39.7212 230.814 36.9762 243.5C35.7862 249 32.7772 260.25 30.2902 268.5C22.7852 293.397 11.2692 339.669 9.13616 353.5C8.03316 360.65 6.21816 371.9 5.10316 378.5C-3.91884 431.893 0.438157 516.405 15.0792 572C31.2962 633.58 46.2402 663.692 92.3792 727.758C135.052 787.013 135.004 786.924 145.505 824.5C151.735 846.796 164.524 867.157 175.947 872.968C197.408 883.885 249.855 886.221 276 877.424C286.244 873.977 302.506 866.608 303.532 864.948C303.814 864.491 305.965 863.159 308.312 861.987C313.074 859.608 321 852.704 321 850.933C321 850.302 321.698 850.054 322.552 850.382C323.406 850.709 323.87 850.598 323.583 850.135C321.113 846.138 333.051 845.196 408 843.471C441.132 842.709 472.737 841.169 492 839.38C508.303 837.865 527.89 836.55 551.779 835.365C559.283 834.993 565.701 835.171 568.279 835.822C570.601 836.408 573.75 837.149 575.279 837.47C577.173 837.867 578.585 839.158 579.714 841.526C580.625 843.437 581.737 845 582.185 845C582.633 845 583 846.125 583 847.5C583 849.056 583.567 850 584.5 850C585.325 850 586.016 850.563 586.037 851.25C586.077 852.638 593.42 857.577 598.031 859.318C599.664 859.934 601 860.907 601 861.479C601 863.122 604.534 864.905 609.206 865.618C611.568 865.978 613.95 866.601 614.5 867.001C615.564 867.776 617.887 868.156 635.962 870.508C668.423 874.733 698.292 869.714 713.5 857.479C730.412 843.874 733.16 838.043 754.496 770.5C760.075 752.84 762.278 747.975 776.005 723C792.578 692.847 808.484 656.925 817.185 630C820.473 619.825 824.21 609.025 825.489 606C832.337 589.807 843.63 553.625 845.464 542C845.855 539.525 847.002 534.125 848.014 530C849.025 525.875 850.143 519.8 850.498 516.5C850.853 513.2 851.752 506 852.495 500.5C861.84 431.395 847.159 334.372 818.377 275.027C808.063 253.76 807.884 252.16 813.398 230.435C828.545 170.753 831.635 135.706 824.897 100C815.56 50.521 778.18 16.589 731.5 15.218C709.747 14.579 699.382 16.803 669.5 28.52C636.682 41.389 630.126 41.422 596.333 28.887C537.986 7.24405 481.504 -2.25096 428 0.588044ZM435.384 41.052C438.581 42.466 441.961 43.072 446.261 43.001C460.444 42.768 465.869 44.968 466.447 51.186C466.861 55.645 464.838 56.779 454.376 57.952C429.931 60.694 414.168 52.405 425.08 42.547C429.689 38.382 429.433 38.419 435.384 41.052ZM374.652 328.606C386.311 338.043 388.386 349.129 380.193 358.216C369.128 370.49 350.282 367.869 343.885 353.167C336.153 335.395 359.758 316.551 374.652 328.606ZM559.789 333.849C577.604 346.535 572.853 370.286 552.5 370.286C531.704 370.286 523.307 342.177 541.359 332.995C546.814 330.22 555.241 330.611 559.789 333.849ZM507.096 578.049C518.23 583.729 522.396 596.017 516.159 604.777C506.075 618.939 485.703 618.139 478.378 603.295C470.129 586.579 489.844 569.248 507.096 578.049ZM377.143 582.023C385.056 584.221 393.619 595.349 392.695 602.234C390.566 618.112 369.663 624.384 358.111 612.613C345.089 599.345 359.002 576.984 377.143 582.023Z" fill="#F7CED1"/>
<path id="Layer 10" fill-rule="evenodd" clip-rule="evenodd" d="M422.13 12.8093C419.203 18.4493 418.625 52.8273 421.405 55.8973C423.309 57.9993 423.308 58.0003 419.561 58.0003C416.607 58.0003 415.698 58.4403 415.269 60.0783C414.679 62.3363 416.013 62.3353 398 60.0913C394.425 59.6463 387 59.4183 381.5 59.5853C376 59.7533 367.796 59.9443 363.269 60.0103C358.741 60.0773 354.814 60.4923 354.541 60.9343C354.268 61.3753 351.803 62.0343 349.064 62.3973C346.324 62.7613 343.812 63.4953 343.482 64.0293C343.152 64.5633 341.209 65.0003 339.163 65.0003C337.118 65.0003 334.444 65.7013 333.221 66.5583C331.997 67.4153 330.584 67.8613 330.079 67.5493C329.574 67.2373 328.454 67.6883 327.591 68.5523C326.727 69.4163 325.003 70.1813 323.76 70.2523C322.517 70.3233 320.427 71.1953 319.115 72.1903C317.803 73.1863 315.952 74.0003 315 74.0003C314.048 74.0003 312.126 74.9003 310.727 76.0003C304.684 80.7533 294.677 77.3753 268.772 61.8353C263.421 58.6263 258.829 56.0003 258.566 56.0003C258.304 56.0003 256.381 54.8343 254.294 53.4093C247.678 48.8923 216.906 34.3063 206.095 30.5623C143.826 9.00126 95.7017 24.0103 71.1777 72.6413C51.5617 111.541 47.1637 186.008 61.5627 235.432C63.6987 242.763 62.9167 250.437 60.6377 244.5C59.1187 240.539 51.6917 251.715 48.5147 262.744C48.1597 263.978 47.3357 265.571 46.6837 266.283C44.9997 268.123 42.9997 271.786 42.9997 273.028C42.9997 273.609 42.0997 275.05 40.9997 276.23C39.8997 277.411 38.9997 279.166 38.9997 280.13C38.9997 281.093 38.5917 282.134 38.0937 282.442C37.5947 282.75 36.8697 285.364 36.4817 288.251C36.0937 291.138 35.4377 293.95 35.0257 294.5C34.6127 295.05 33.9537 296.85 33.5597 298.5C33.1657 300.15 32.1497 302.271 31.3007 303.213C30.4517 304.155 30.0227 305.617 30.3467 306.463C30.6717 307.308 30.6137 308.003 30.2187 308.007C28.0437 308.028 24.9657 314.999 24.8867 320.083C24.8377 323.192 24.0777 326.778 23.1017 328.5C22.1657 330.15 20.6117 334.65 19.6477 338.5C17.2547 348.053 15.9177 353.038 14.9547 356C12.7647 362.733 8.98568 385.722 8.42368 395.733C8.19968 399.711 7.57068 404.886 7.02468 407.233C3.88868 420.712 3.50868 488.097 6.43768 511.5C6.64368 513.15 7.32568 519.675 7.95168 526C9.32568 539.88 10.0337 543.771 15.0457 565C17.1887 574.075 19.7117 585.1 20.6537 589.5C21.5947 593.9 22.7127 597.739 23.1387 598.032C23.5637 598.324 24.5667 601.024 25.3687 604.032C26.1697 607.039 28.2497 612.65 29.9907 616.5C31.7317 620.35 33.9607 625.3 34.9437 627.5C35.9267 629.7 37.9167 634.1 39.3657 637.277C40.8147 640.455 41.9997 644.344 41.9997 645.92C41.9997 647.628 42.6477 649.035 43.6037 649.401C44.5187 649.753 44.9617 650.657 44.6347 651.508C44.3197 652.329 44.5247 653 45.0897 653C45.6557 653 45.8557 653.423 45.5367 653.94C45.2167 654.458 45.8047 655.695 46.8417 656.69C49.3057 659.054 51.2347 662.811 50.5517 663.916C50.2547 664.397 50.7307 665.066 51.6087 665.404C52.5207 665.753 52.9607 666.658 52.6347 667.508C52.3197 668.329 52.4987 669 53.0307 669C53.5637 669 53.9997 669.643 53.9997 670.429C53.9997 671.214 54.5947 672.452 55.3207 673.179C56.0477 673.905 56.7807 674.95 56.9487 675.5C57.8217 678.356 58.3097 678.931 59.3547 678.334C59.9847 677.974 60.1797 678.034 59.7897 678.466C58.7507 679.618 61.8027 685 63.4937 685C64.2877 685 64.7247 685.563 64.4657 686.25C63.8927 687.77 71.3827 699.284 72.3287 698.338C72.6977 697.969 72.9997 698.589 72.9997 699.716C72.9997 700.843 74.9117 703.725 77.2497 706.122C79.5877 708.518 80.5997 709.816 79.4997 709.007C77.0297 707.189 80.2797 711.503 82.9997 713.653C83.8247 714.305 84.5107 715.438 84.5237 716.169C84.5367 716.901 85.3247 717.438 86.2737 717.361C87.2227 717.285 87.9997 717.874 87.9997 718.67C87.9997 719.471 87.5067 719.813 86.8957 719.436C86.2887 719.061 86.5477 719.907 87.4717 721.317C88.5487 722.961 89.7507 723.688 90.8247 723.345C91.9917 722.973 92.1257 723.082 91.2647 723.705C89.8127 724.757 92.4997 729.427 94.0177 728.489C94.9897 727.888 97.2407 731.426 96.4127 732.254C96.1287 732.538 99.8567 738.255 104.698 744.958C133.29 784.548 135.596 789.045 145.505 824.5C151.735 846.796 164.524 867.157 175.947 872.968C197.408 883.885 249.855 886.221 276 877.424C286.244 873.977 302.506 866.608 303.532 864.948C303.814 864.491 305.965 863.159 308.312 861.987C313.074 859.608 321 852.704 321 850.933C321 850.302 321.698 850.054 322.552 850.382C323.406 850.709 323.87 850.598 323.583 850.135C321.113 846.138 333.051 845.196 408 843.471C441.132 842.709 472.737 841.169 492 839.38C508.303 837.865 527.89 836.55 551.779 835.365C559.283 834.993 565.701 835.171 568.279 835.822C570.601 836.408 573.75 837.149 575.279 837.47C577.173 837.867 578.585 839.158 579.714 841.526C580.625 843.437 581.737 845 582.185 845C582.633 845 583 846.125 583 847.5C583 849.056 583.567 850 584.5 850C585.325 850 586.016 850.563 586.037 851.25C586.077 852.638 593.42 857.577 598.031 859.318C599.664 859.934 601 860.907 601 861.479C601 863.122 604.534 864.905 609.206 865.618C611.568 865.978 613.95 866.601 614.5 867.001C615.564 867.776 617.887 868.156 635.962 870.508C668.423 874.733 698.292 869.714 713.5 857.479C730.412 843.874 733.16 838.043 754.496 770.5C760.075 752.84 762.278 747.975 776.005 723C794.68 689.021 823.894 619.904 822.852 612.162C822.803 611.798 822.842 611.275 822.939 611C823.036 610.725 823.3 608.925 823.527 607C824.206 601.218 824.674 599.716 827.395 594.601C828.828 591.907 830 588.673 830 587.416C830 586.159 830.426 584.011 830.946 582.643C831.466 581.275 832.132 578.433 832.425 576.328C833.121 571.339 839.29 548.062 841.257 543C848.429 524.548 850.374 503.674 849.504 454.5C848.618 404.445 848.374 398.325 846.992 391.5C846.323 388.2 845.571 384.15 845.32 382.5C845.069 380.85 844.476 378.6 844.001 377.5C843.527 376.4 842.897 373.25 842.601 370.5C842.055 365.42 840.873 359.121 838.942 351C838.354 348.525 837.478 344.025 836.995 341C836.512 337.975 834.929 331.45 833.476 326.5C832.023 321.55 830.477 316.15 830.039 314.5C829.042 310.739 821.103 286.198 820.011 283.5C819.566 282.4 818.622 279.925 817.912 278C817.203 276.075 815.475 272.7 814.071 270.5C812.668 268.3 810.598 264.383 809.472 261.795C807.54 257.356 807.352 257.206 806.143 259.143C803.093 264.027 803.832 259.957 810.209 236.764C810.809 234.581 811.673 233.298 812.288 233.678C812.937 234.079 813.1 233.703 812.714 232.696C812.369 231.798 812.519 230.797 813.047 230.471C813.575 230.144 813.715 228.713 813.358 227.29C812.891 225.43 813.042 224.908 813.894 225.435C814.75 225.964 814.907 225.379 814.459 223.334C813.968 221.093 814.074 220.814 814.964 222C815.916 223.269 816.059 223.193 815.891 221.5C815.782 220.4 815.976 218.825 816.321 218C817.088 216.171 820.275 201.76 823.575 185.199C831.94 143.226 828.594 97.0013 815.277 70.5573C799.62 39.4663 763.492 13.4953 741.119 17.2483C736.322 18.0523 734.266 18.0223 732.832 17.1273C731.196 16.1053 730.558 16.3713 728.349 18.9973C726.355 21.3673 725.47 21.8053 724.428 20.9403C722.926 19.6943 717 20.6033 717 22.0793C717 22.5863 714.723 23.0003 711.941 23.0003C709.159 23.0003 707.09 23.3383 707.345 23.7503C707.6 24.1633 706.614 24.5703 705.154 24.6553C692.968 25.3663 684.082 26.2923 684.189 26.8413C684.636 29.1323 682.482 31.0003 679.393 31.0003C677.527 31.0003 676 31.3403 676 31.7563C676 32.1723 674.616 33.1253 672.923 33.8743C669.64 35.3273 667.869 38.1233 669.82 38.7733C672.678 39.7263 670.584 40.8223 666.065 40.7393C661.724 40.6603 660.642 41.0913 657.063 44.3243C654.01 47.0823 652.121 48.0003 649.497 48.0003C647.574 48.0003 646 48.4503 646 49.0003C646 49.5503 645.325 50.0003 644.5 50.0003C643.675 50.0003 643 50.7653 643 51.7003C643 53.0223 642.733 53.1333 641.8 52.2003C638.827 49.2273 635 51.3513 635 55.9753C635 59.5693 640.385 59.5133 641.529 55.9083C642.1 54.1093 651 52.8603 651 54.5783C651 55.9843 642.647 62.9933 638.686 64.9103C636.289 66.0703 633.743 68.1113 633.03 69.4443C632.316 70.7773 630.426 72.4103 628.828 73.0713C627.231 73.7333 625.491 75.0823 624.963 76.0693C624.434 77.0573 623.057 78.1643 621.902 78.5313C620.747 78.8983 619.059 79.8353 618.151 80.6153C608.095 89.2463 601.188 94.7533 599.75 95.2873C598.788 95.6453 598 96.9103 598 98.0993C598 101.199 604.326 100.095 607.459 96.4493C610.778 92.5873 613.423 93.4683 613.798 98.5603C614.023 101.617 613.596 103.055 612.048 104.457C610.922 105.476 610 106.893 610 107.605C610 109.75 607.004 110.755 602.22 110.216C599.376 109.895 597.927 110.072 598.311 110.694C598.647 111.237 597.658 112.616 596.114 113.758C592.686 116.292 589.86 124.677 591.989 125.993C593.422 126.879 592.675 130 591.031 130C590.464 130 590 129.012 590 127.804C590 125.723 589.829 125.769 586.75 128.685C582.58 132.633 575.794 135.883 575.234 134.201C575.013 133.54 574.083 132.996 573.167 132.992C571.675 132.985 569 128.969 569 126.737C569 126.261 570.129 124.664 571.51 123.186C572.89 121.709 575.815 118.587 578.01 116.249C580.204 113.911 582 111.548 582 110.999C582 110.449 583.088 110 584.418 110C587.946 110 590 108.996 590 107.271C590 106.079 589.698 106.006 588.589 106.926C587.576 107.766 586.987 107.787 586.5 107C586.034 106.246 585.436 106.223 584.587 106.928C583.74 107.631 583.012 107.612 582.269 106.869C581.491 106.091 580.88 106.355 580.104 107.806C579.153 109.583 574.808 110.304 573.611 108.884C572.283 107.309 572.217 102 573.525 102C574.336 102 575 102.713 575 103.583C575 104.454 575.563 104.975 576.25 104.741C577.101 104.452 577.395 102.588 577.172 98.9053C576.884 94.1583 577.16 93.1983 579.422 91.0733C580.84 89.7413 582 88.0553 582 87.3263C582 86.5973 582.45 86.0003 583 86.0003C583.55 86.0003 584 84.2003 584 82.0003C584 78.7013 583.658 78.0003 582.05 78.0003C580.977 78.0003 579.677 77.2463 579.161 76.3243C578.405 74.9713 576.462 74.6093 569.118 74.4513C564.109 74.3433 559.447 73.7913 558.756 73.2253C558.065 72.6593 555.52 71.6663 553.1 71.0193C550.679 70.3713 548.1 69.2433 547.367 68.5103C546.635 67.7773 545.128 67.4153 544.019 67.7053C542.911 67.9953 540.894 67.5053 539.537 66.6163C538.18 65.7273 535.056 65.0003 532.594 65.0003C530.132 65.0003 527.852 64.5703 527.528 64.0453C527.203 63.5193 525.335 63.2163 523.377 63.3703C520.39 63.6053 519.668 63.2563 518.885 61.1983C518.068 59.0503 517.51 58.8183 514.383 59.3253C511.435 59.8043 510.364 59.4553 508.231 57.3223C506.112 55.2033 505.323 54.9423 503.838 55.8693C501.064 57.6013 499.332 57.2383 497.153 54.4683C495.165 51.9413 495.138 51.9373 483.5 52.6003C471.839 53.2643 471.839 53.2643 472.527 45.3823C473.516 34.0283 470.568 15.5463 467.339 12.8673C464.863 10.8113 423.194 10.7583 422.13 12.8093ZM435.384 41.0523C438.581 42.4663 441.961 43.0723 446.261 43.0013C460.444 42.7683 465.869 44.9683 466.447 51.1863C466.861 55.6453 464.838 56.7793 454.376 57.9523C429.931 60.6943 414.168 52.4053 425.08 42.5473C429.689 38.3823 429.433 38.4193 435.384 41.0523ZM713.5 47.0863C716.42 47.1963 716.434 47.2193 714 47.9433C712.625 48.3523 710.742 48.3073 709.816 47.8433C707.02 46.4443 706.717 46.8323 707.38 50.9723C708.147 55.7693 704.446 59.3843 700.983 57.2223C699.525 56.3113 698.65 56.4873 696.591 58.1073C695.176 59.2203 693.562 59.8473 693.003 59.5023C690.787 58.1333 678.205 58.0233 677.689 59.3693C677.366 60.2093 676.073 60.5183 674.093 60.2273C672.253 59.9573 670.949 60.2243 670.875 60.8873C670.806 61.4993 670.694 62.5633 670.625 63.2503C670.467 64.8343 661 65.5953 661 64.0233C661 63.4263 661.788 62.6473 662.75 62.2923C663.712 61.9373 666.179 60.6013 668.23 59.3233C670.282 58.0453 672.875 57.0003 673.994 57.0003C675.112 57.0003 676.809 56.5873 677.764 56.0823C680.449 54.6623 688.906 51.0033 689.748 50.8973C690.162 50.8453 691.219 50.4183 692.097 49.9483C693.075 49.4253 694.136 49.5363 694.834 50.2343C695.687 51.0873 696.543 50.8443 698.237 49.2673C700.552 47.1123 704.932 45.9803 708.5 46.6163C709.6 46.8123 711.85 47.0243 713.5 47.0863ZM645 74.9433C645 76.4653 640.755 79.0003 638.206 79.0003C636.118 79.0003 636.024 78.8333 637.357 77.5003C638.182 76.6753 639.564 76.0003 640.429 76.0003C641.293 76.0003 642 75.5503 642 75.0003C642 74.4503 642.675 74.0003 643.5 74.0003C644.325 74.0003 645 74.4243 645 74.9433ZM636.231 84.1773C639.715 86.8393 634.038 89.8573 626.75 89.2163C620.871 88.6993 620.159 86.2733 625.75 85.8103C627.813 85.6403 629.507 85.0503 629.515 84.5003C629.571 80.8733 631.771 80.7673 636.231 84.1773ZM621 94.8093C621 97.6673 618 99.5003 616.5 97.5593C614.32 94.7383 614.631 94.0003 618 94.0003C619.65 94.0003 621 94.3643 621 94.8093ZM592.75 101.689C589.708 102.484 590.856 104 594.5 104C598.122 104 599.188 102.67 596.418 101.607C595.548 101.273 594.761 101.052 594.668 101.116C594.576 101.18 593.712 101.438 592.75 101.689ZM374.652 328.606C386.311 338.043 388.386 349.129 380.193 358.216C369.128 370.49 350.282 367.869 343.885 353.167C336.153 335.395 359.758 316.551 374.652 328.606ZM559.789 333.849C577.604 346.535 572.853 370.286 552.5 370.286C531.704 370.286 523.307 342.177 541.359 332.995C546.814 330.22 555.241 330.611 559.789 333.849ZM393.574 457.25C393.992 457.663 396.283 458 398.667 458C402.953 458 404.94 460.683 402 462.5C401.45 462.84 401 463.991 401 465.059C401 466.611 400.298 467 397.5 467C394.221 467 393.999 467.205 393.985 470.25C393.96 475.385 392.804 476.42 389.765 474.03C386.265 471.276 385 471.478 385 474.789C385 476.322 384.115 479.314 383.032 481.436C381.95 483.559 381.275 485.635 381.531 486.05C381.787 486.465 379.298 487.117 375.998 487.5C372.699 487.883 370 488.602 370 489.098C370 489.594 369.1 490 368 490C366.9 490 366 489.55 366 489C366 488.45 365.1 488 364 488C362.9 488 362 487.554 362 487.009C362 486.437 358.942 486.063 354.75 486.125C341.726 486.315 337.854 486.045 338.504 484.993C338.847 484.439 338.452 483.727 337.627 483.41C334.19 482.091 337.244 480 342.607 480C346.388 480 347.925 479.626 347.75 478.75C347.6 478.002 348.804 477.374 350.75 477.187C352.538 477.014 354 476.452 354 475.937C354 475.421 355.318 475 356.929 475C358.539 475 360.532 474.325 361.357 473.5C362.182 472.675 363.227 472 363.679 471.999C364.859 471.997 375 462.112 375 460.963C375 460.433 374.255 460 373.345 460C371.83 460 371.824 459.852 373.28 458.25C374.949 456.413 391.883 455.579 393.574 457.25ZM369 460.5C369 461.433 368.056 462 366.5 462C364.072 462 363.307 461.026 364.667 459.667C365.925 458.409 369 459 369 460.5ZM336.926 486.411C338.311 488.079 336.748 489.501 334.484 488.632C333.703 488.333 332.796 488.521 332.468 489.051C332.118 489.618 331.281 489.424 330.436 488.579C328.496 486.639 328.616 486.213 331.25 485.706C335.292 484.927 335.741 484.983 336.926 486.411ZM507.096 578.049C518.23 583.729 522.396 596.017 516.159 604.777C506.075 618.939 485.703 618.139 478.378 603.295C470.129 586.579 489.844 569.248 507.096 578.049ZM377.143 582.023C385.056 584.221 393.619 595.349 392.695 602.234C390.566 618.112 369.663 624.384 358.111 612.613C345.089 599.345 359.002 576.984 377.143 582.023Z" fill="#E49EA1" fill-opacity="0.79"/>
<path id="Layer 11" fill-rule="evenodd" clip-rule="evenodd" d="M423.583 13.8645C420.887 18.2265 419.115 49.9995 421.375 53.4495C425.398 59.5885 454.756 61.5305 465.618 56.3765C471.993 53.3515 473.758 42.9605 470.505 27.6085C468.288 17.1405 467.229 15.9995 459.727 15.9985C453.419 15.9975 434.537 14.4755 427.853 13.4295C425.831 13.1125 423.928 13.3065 423.583 13.8645ZM157.5 30.0665C153.1 30.3775 150.287 30.7155 151.25 30.8165C152.213 30.9165 153 31.4495 153 31.9995C153 32.5495 153.338 32.9465 153.75 32.8815C154.162 32.8155 155.175 32.8285 156 32.9075C157.897 33.0915 147.327 42.9995 145.234 42.9995C144.41 42.9995 142.22 43.9365 140.366 45.0825C138.513 46.2275 136.463 46.9875 135.811 46.7695C135.159 46.5525 133.842 47.0775 132.884 47.9375C129.153 51.2865 128.071 51.8805 121.199 54.3595C114.672 56.7145 112.087 57.8495 108 60.1575C107.175 60.6235 105.426 61.4655 104.112 62.0295C102.799 62.5935 100.774 63.9145 99.6123 64.9655C98.4513 66.0165 95.8413 68.3665 93.8133 70.1885C89.2433 74.2915 85.9623 82.1965 84.9673 91.4995C83.9953 100.594 83.5683 102.311 82.1633 102.779C81.5233 102.992 80.9973 103.692 80.9943 104.333C80.9903 104.975 80.3353 106.751 79.5373 108.281C78.7393 109.81 78.3253 111.682 78.6163 112.441C78.9073 113.199 78.4613 115.141 77.6263 116.757C76.7913 118.372 76.3343 120.561 76.6113 121.621C76.8883 122.682 76.4173 124.888 75.5643 126.525C74.7113 128.161 74.0103 130.11 74.0063 130.856C74.0033 131.601 72.8273 133.605 71.3943 135.308C69.0943 138.042 68.8383 139.082 69.2083 144.202C69.5963 149.567 68.8643 151.718 67.6593 148.75C66.8203 146.682 65.0333 150.062 65.0153 153.75C65.0073 155.537 64.5993 157 64.1093 157C61.0593 157 61.7543 201.943 64.9213 209.5C65.6133 211.15 66.3993 214.075 66.6683 216C66.9363 217.925 67.3873 220.625 67.6683 222C67.9503 223.375 68.1193 226.863 68.0433 229.75C67.9173 234.592 68.1243 235.097 70.7033 236.25C72.2413 236.938 74.8043 238.737 76.3983 240.25C78.3333 242.086 80.3723 243 82.5323 243C85.0323 243 85.9103 243.511 86.4003 245.25C87.4063 248.826 90.3103 244.525 89.6073 240.5C87.7833 230.051 86.9733 226.728 84.6403 220.127C83.2083 216.072 81.8723 211.797 81.6713 210.627C81.4713 209.457 81.0503 207.825 80.7343 207C80.4193 206.175 79.6183 201.12 78.9543 195.768C78.2483 190.069 77.1783 185.563 76.3743 184.895C74.3733 183.235 74.4463 170.333 76.4563 170.333C77.2573 170.333 77.6783 170.712 77.3933 171.174C77.1073 171.636 77.5363 172.268 78.3453 172.579C79.1553 172.89 80.3943 174.574 81.1003 176.322C81.8053 178.07 82.9713 179.86 83.6913 180.3C84.5813 180.843 85.0003 183.485 85.0003 188.55C85.0003 194.11 85.3403 196 86.3403 196C87.0773 196 88.2743 197.8 89.0003 200C89.9043 202.739 90.9003 204 92.1603 204C93.6403 204 94.0003 204.783 94.0003 208C94.0003 210.279 93.5193 212 92.8833 212C92.1873 212 92.0273 212.847 92.4593 214.25C93.2893 216.949 95.0203 224.525 95.6013 228C95.8313 229.375 96.0863 233.425 96.1693 237C96.2513 240.575 96.7543 243.787 97.2853 244.137C97.8173 244.487 98.3083 246.512 98.3763 248.637C98.5573 254.262 105 255.42 105 249.827C105 248.896 105.913 247.845 107.03 247.491C109.799 246.612 120.205 237.408 121.764 234.459C124.73 228.849 131.13 226.686 137.959 228.986C141.337 230.124 144.593 230.751 145.195 230.38C146.758 229.414 151.926 229.698 153.319 230.826C154.674 231.924 165 231.151 165 229.952C165 229.516 166.463 228.846 168.25 228.464C172.533 227.548 174.173 226.121 173.475 223.92C172.732 221.581 175.159 220.309 182.077 219.41C187.808 218.665 188.96 217.823 188.985 214.359C188.997 212.661 189.724 212.134 192.5 211.81C195.355 211.477 196 211.733 196 213.201C196 216.092 198.684 215.28 201.551 211.523C204.47 207.696 209.044 205 212.618 205C213.906 205 215.404 204.114 216 203C216.589 201.9 217.73 201 218.535 201C219.42 201 220 200.037 220 198.567C220 196.99 220.724 195.905 222.057 195.482C223.189 195.123 224.545 193.697 225.071 192.313C225.746 190.538 226.515 189.984 227.682 190.431C228.767 190.848 230.484 189.954 232.668 187.837C235.319 185.267 236 184.971 236 186.387C236 188.151 238.434 188.179 238.571 186.417C238.824 183.177 246 175.001 246 177.953C246 178.529 246.466 179 247.035 179C247.749 179 247.749 178.399 247.035 177.066C246.466 176.002 246 174.652 246 174.066C246 172.593 249.739 172.718 250.236 174.207C250.931 176.293 254.704 171.823 255.878 167.522C257.191 162.715 255.576 157 252.906 157C251.975 157 250.941 156.288 250.607 155.418C249.719 153.103 249.788 153.001 252.25 152.99C255.396 152.977 264.575 148.549 265.283 146.704C265.693 145.637 267.773 145.03 272.185 144.69C278.435 144.209 287.499 142.661 290.795 141.512C291.733 141.185 293.85 139.199 295.5 137.099C297.15 134.998 299.363 132.879 300.418 132.39C301.473 131.9 302.823 130.602 303.418 129.504C304.013 128.406 305.807 125.778 307.405 123.664C310.594 119.445 312.397 110 310.014 110C309.205 110 308.926 108.959 309.212 107.01C309.849 102.67 306.619 100.003 300.141 99.5205C292.389 98.9435 291 98.2725 291 95.1025C291 92.8845 290.559 92.3565 288.758 92.4205C286.975 92.4835 286.324 91.7315 285.582 88.7495C284.82 85.6925 282.702 83.1135 283.118 85.7495C283.526 88.3325 282.682 88.9995 279 88.9995C276.111 88.9995 275 88.5825 275 87.4995C275 86.6745 274.17 85.9995 273.155 85.9995C272.14 85.9995 270.495 85.0995 269.5 83.9995C268.505 82.8995 267.133 81.9995 266.452 81.9995C264.802 81.9995 263.648 78.8355 264.995 78.0025C265.602 77.6275 264.925 76.8305 263.412 76.1415C261.179 75.1235 260.575 75.1985 259.536 76.6185C258.207 78.4375 252 73.3305 252 70.4175C252 69.7105 250.762 68.9895 249.25 68.8155C247.415 68.6045 246.584 67.9785 246.751 66.9345C247.01 65.3245 239.56 61.3725 231.5 58.8445C229.3 58.1545 226.571 56.7825 225.436 55.7945C224.3 54.8075 222.772 53.9995 222.039 53.9995C221.307 53.9995 218.628 52.0865 216.086 49.7495C207.523 41.8755 202.746 37.9995 201.605 37.9995C200.981 37.9995 198.851 37.1315 196.871 36.0705C194.891 35.0095 191.523 33.8255 189.386 33.4395C187.249 33.0545 185.05 32.4315 184.5 32.0555C183.95 31.6795 181.9 31.2615 179.945 31.1255C177.989 30.9905 173.939 30.5695 170.945 30.1895C167.95 29.8105 161.9 29.7545 157.5 30.0665ZM435.384 41.0515C438.581 42.4655 441.961 43.0715 446.261 43.0005C460.444 42.7675 465.869 44.9675 466.447 51.1855C466.861 55.6445 464.838 56.7785 454.376 57.9515C429.931 60.6935 414.168 52.4045 425.08 42.5465C429.689 38.3815 429.433 38.4185 435.384 41.0515ZM787.069 48.1295C787.62 49.1575 788.505 49.9995 789.035 49.9995C789.566 49.9995 790 50.6225 790 51.3825C790 52.9945 786.268 54.2415 785.442 52.9055C784.686 51.6825 780 51.7465 780 52.9805C780 53.5195 781.212 54.2655 782.692 54.6375C785.385 55.3125 785.385 55.3125 783.078 56.1665C781.263 56.8375 781.015 57.3125 781.911 58.3925C782.785 59.4445 782.702 59.8995 781.558 60.3395C780.736 60.6545 779.798 60.4815 779.473 59.9555C778.086 57.7115 772.241 58.9025 771.573 61.5665C770.939 64.0925 770.902 64.1025 769.214 62.1715C765.907 58.3875 762.234 58.5025 760.589 62.4415C759.009 66.2215 759.56 66.1535 749.204 63.8425C746.292 63.1925 743.678 62.2875 743.395 61.8305C742.664 60.6475 731.243 60.7975 730.5 61.9995C730.16 62.5495 728.446 63.0195 726.691 63.0435C724.936 63.0675 721.7 63.7845 719.5 64.6365C709.477 68.5175 704.465 69.9905 701.934 69.7975C700.43 69.6835 698.592 70.0935 697.85 70.7095C697.107 71.3255 693.575 72.7915 690 73.9675C686.425 75.1435 682.719 76.5325 681.764 77.0525C680.809 77.5735 679.346 77.9995 678.514 77.9995C677.681 77.9995 677 78.3465 677 78.7705C677 79.1945 674.876 80.6565 672.28 82.0205C669.684 83.3835 666.674 85.2865 665.591 86.2495C664.509 87.2125 663.049 87.9995 662.347 87.9995C661.645 87.9995 660.589 88.8995 660 89.9995C659.411 91.0995 658.13 91.9995 657.153 91.9995C656.176 91.9995 654.299 93.0045 652.981 94.2315C651.663 95.4595 650.063 96.4725 649.425 96.4815C648.788 96.4915 646.414 98.0745 644.15 99.9995C641.886 101.925 639.79 103.375 639.492 103.223C639.193 103.071 637.498 104.306 635.725 105.968C633.951 107.631 631.938 108.993 631.25 108.995C630.563 108.998 630 109.45 630 110C630 110.55 629.403 111 628.674 111C627.945 111 626.292 112.125 625 113.5C623.708 114.875 622.35 116 621.982 116C621.613 116 617.079 120.076 611.906 125.058C606.733 130.04 600.525 135.552 598.112 137.308C587.024 145.373 584.688 149.062 588 153.273C589.1 154.671 590 156.297 590 156.885C590 157.473 591.125 158.691 592.5 159.592C595.231 161.382 595.9 165 593.5 165C592.675 165 592 164.325 592 163.5C592 162.675 591.498 162 590.883 162C590.259 162 589.997 162.882 590.29 164C590.577 165.1 590.504 166 590.126 166C586.922 166 587.515 171.877 590.883 173.504C594.5 175.252 594.5 175.252 592 176.358C588.138 178.067 586.737 179.685 588.526 180.371C589.337 180.683 590 180.426 590 179.802C590 179.178 590.258 178.925 590.574 179.24C591.248 179.915 588.464 185.595 587.023 186.486C586.477 186.823 585.172 185.686 584.121 183.959C582.212 180.819 582.212 180.819 582.438 186.16C582.734 193.116 584.604 197 587.661 197C589.668 197 590 197.497 590 200.5C590 204.153 583.912 206.031 582.708 202.75C582.37 201.827 581.939 201.792 581.061 202.614C580.144 203.474 580.172 204.055 581.186 205.153C584.158 208.374 585.657 212 584.018 212C578.196 212 570.828 227.358 576 228.71C578.314 229.315 578.743 233 576.5 233C575.603 233 575 233.921 575 235.289C575 237.13 574.461 237.571 572.25 237.539C570.154 237.509 569.5 237.975 569.5 239.5C569.5 240.938 570.272 241.589 572.25 241.816C574.553 242.081 575 242.61 575 245.066C575 248.469 572.496 249.137 571.5 246C570.652 243.33 567 243.33 567 246C567 247.667 566.333 248 563 248C560.195 248 559 248.428 559 249.433C559 250.221 558.1 251.151 557 251.5C555.512 251.972 555 253.013 555 255.567C555 258.333 555.388 259 557 259C558.704 259 559 259.667 559 263.5C559 267.947 558.96 268 555.617 268C553.1 268 552.102 268.501 551.722 269.956C551.278 271.652 550.175 271.951 543.435 272.206C536.124 272.482 530.7 275 537.417 275C540.696 275 540.736 276.344 537.5 277.818C536.033 278.486 535 279.793 535 280.979C535 282.09 534.55 283 534 283C533.45 283 533 281.2 533 279C533 275.426 532.74 275 530.56 275C528.473 275 528.076 274.469 527.81 271.327C527.365 266.052 525 265.706 525 270.917C525 273.163 525.45 275 526 275C526.55 275 527 276.8 527 279C527 282.91 526.921 283 523.475 283C520.608 283 519.768 283.481 518.971 285.575C517.314 289.934 515.496 290.989 509.321 291.175C504.341 291.324 504.114 291.405 507.75 291.732C514.124 292.306 514.351 298 508 298C504 298 504 298 504 302.071C504 304.357 503.342 306.801 502.5 307.643C501.675 308.468 501 309.984 501 311.012C501 313.192 498.802 314.907 498.226 313.177C497.64 311.421 496 311.756 496 313.632C496 314.958 495.252 315.163 492 314.727C488 314.19 488 314.19 488 318.702C488 322.419 488.281 323.106 489.593 322.603C495.99 320.148 497.341 321.121 496.316 327.442C495.79 330.681 495.443 331 492.451 331C487.202 331 486 330.141 486 326.393C486 324.044 485.539 323 484.5 323C483.452 323 483 324.056 483 326.5C483 328.944 482.548 330 481.5 330C480.417 330 480 328.889 480 326C480 322 480 322 476 322C473.8 322 472 321.655 472 321.233C472 320.811 470.2 320.419 468 320.361C465.226 320.289 464 320.677 464 321.628C464 322.383 463.55 323 463 323C462.45 323 462 324.498 462 326.33C462 329.66 462 329.66 470.75 329.463C475.563 329.355 478.823 329.443 477.995 329.659C476.872 329.953 476.578 331.165 476.838 334.433C477.541 343.267 465.089 347.211 464 338.5C463.684 335.97 463.203 334.959 462.691 335.75C462.246 336.438 460.853 337 459.596 337C456.657 337 453.6 340.363 454.257 342.873C454.867 345.207 448.126 346.376 444.154 344.625C442.272 343.796 441.62 343.928 440.854 345.296C440.33 346.233 439.473 347 438.95 347C437.415 347 437.862 344.267 439.5 343.638C441.656 342.811 441.347 341.193 438.96 340.82C436.321 340.406 436.321 338.594 438.96 338.18C440.082 338.005 441 338.342 441 338.93C441 340.322 444.287 340.313 445.682 338.918C446.458 338.142 447.326 338.186 448.75 339.076C450.005 339.86 451.428 340 452.618 339.457C454.192 338.738 453.969 338.538 451.25 338.235C448.301 337.907 448 337.563 448 334.516C448 331.599 447.607 331.073 445 330.5C443.195 330.104 441.96 329.175 441.9 328.171C441.844 327.23 441.499 327.592 441.111 329C440.557 331.007 439.69 331.561 436.711 331.81C431.726 332.227 431.961 334 437 334C439.889 334 441 334.417 441 335.5C441 336.583 439.889 337 437 337C434.8 337 433 337.45 433 338C433 338.55 431.2 339 429 339C426.111 339 425 338.583 425 337.5C425 336.417 423.889 336 421 336C417.192 336 417 336.149 417 339.107C417 341.68 416.699 342.087 415.25 341.478C410.475 339.471 408.814 339.646 409.163 342.117C409.505 344.531 410.436 344.753 414.75 343.447C416.436 342.937 417 343.172 417 344.383C417 345.611 416.007 346 412.872 346C408.743 346 408.743 346 409.206 354C409.669 362 409.669 362 406.035 362C404.036 362 401.931 362.469 401.357 363.043C400.783 363.617 397.526 364.163 394.118 364.258C387.487 364.442 385.628 365.557 384.548 370C383.64 373.732 388.505 375.909 391.226 372.988C392.249 371.89 392.954 370.206 392.793 369.246C392.558 367.845 393.356 367.438 396.828 367.189C402.317 366.794 402.666 370.546 397.356 372.885C394.837 373.995 394.09 375.037 393.594 378.135C393.086 381.316 392.571 382 390.688 382C389.43 382 387.86 382.54 387.2 383.2C386.267 384.133 386 384.117 386 383.129C386 382.429 385.325 381.182 384.5 380.357C383.675 379.532 383 377.764 383 376.429C383 374.535 382.474 374 380.611 374C378.13 374 376.025 379.613 377.569 382.112C378.749 384.02 375.838 388 373.264 388C371.439 388 370.995 387.582 371.41 386.25C372.159 383.841 370.541 381.578 368.601 382.323C366.576 383.1 366.497 386 368.5 386C369.333 386 370 386.889 370 388C370 389.667 369.333 390 366 390C363.111 390 362 390.417 362 391.5C362 392.333 361.111 393 360 393C358.333 393 358 393.667 358 397C358 400.333 357.667 401 356 401C354.73 401 354 400.333 354 399.173C354 397.044 348.266 397.26 346.5 399.456C344.477 401.971 339.186 401.879 338.544 399.318C337.537 395.308 330 396.423 330 400.582C330 400.812 330.873 401 331.941 401C335.299 401 335.051 402.605 331.426 404.334C329.508 405.249 327.679 406.673 327.362 407.499C326.371 410.082 325.326 409.138 325.777 406.066C326.155 403.492 325.95 403.2 324.104 403.683C321.916 404.255 321.685 405.24 321.983 412.75C322.192 418.045 316.844 419.351 314.985 414.46C313.923 411.666 310 412.512 310 415.535C310 416.341 309.325 417 308.5 417C307.452 417 307 418.056 307 420.5C307 423.684 306.742 424 304.14 424C302.566 424 299.191 424.286 296.64 424.636C292 425.272 292 425.272 292 421.136C292 418.126 292.408 417 293.5 417C294.583 417 295 415.889 295 413C295 409.667 294.667 409 293 409C291.9 409 291 408.546 291 407.992C291 407.394 290.186 407.492 289 408.232C287.9 408.919 286.997 409.935 286.994 410.491C286.99 411.046 286.355 412.713 285.581 414.196C284.562 416.149 284.492 416.997 285.328 417.276C286.088 417.529 285.887 418.256 284.741 419.402C282.848 421.295 282.685 422.016 283.607 424.418C283.995 425.431 285.435 426 287.607 426C290.71 426 291 426.256 291 429C291 431.733 290.704 432 287.667 432C283.524 432 282.505 432.911 284.766 434.593C286.105 435.589 286.257 436.279 285.433 437.625C283.879 440.161 280.849 441.788 280.327 440.365C279.693 438.638 275.017 441.113 275.008 443.18C275.003 444.129 275.98 445.054 277.25 445.303C279.5 445.746 279.5 445.746 277.25 446.49C276.012 446.899 275 447.518 275.001 447.867C275.003 450.139 267.164 447.962 263.328 444.625C259.115 440.96 259.115 440.96 255.557 444.084C250.592 448.444 251.029 449.173 258.449 448.904C265.768 448.639 268.423 450.009 267.719 453.689C267.476 454.96 267.665 456 268.139 456C269.968 456 268.887 458.901 266.812 459.56C265.241 460.058 264.156 459.676 262.966 458.206C260.353 454.98 255.496 454.861 254.5 458C253.687 460.562 252.38 460.562 251.71 458C251.367 456.687 250.346 456 248.738 456C246.856 456 246.048 455.248 245.247 452.75C244.31 449.829 244.194 450.235 244.102 456.75C244 464 244 464 240.06 464C236.248 464 236.111 463.881 235.81 460.341C235.526 456.984 235.237 456.674 232.325 456.591C228.933 456.494 228 458.334 228 465.125C228 467.813 227.739 468 224 468C220 468 220 468 220 474.059C220 477.844 219.625 479.886 219 479.5C218.45 479.16 218 477.334 218 475.441C218 471.431 214.257 470.553 210.738 473.737C208.916 475.386 208.755 475.386 207.549 473.737C205.989 471.603 203.414 471.479 202.638 473.5C201.894 475.439 199.106 475.439 198.362 473.5C198.045 472.675 196.934 472 195.893 472C193.602 472 193.285 475.512 195.5 476.362C196.325 476.678 197 477.626 197 478.469C197 479.311 196.325 480 195.5 480C194.667 480 194 479.111 194 478C194 476.9 193.55 476 193 476C192.45 476 192 475.311 192 474.469C192 473.626 191.325 472.678 190.5 472.362C189.675 472.045 189 471.159 189 470.393C189 469.627 188.55 469 188 469C186.678 469 186.739 470.039 188.25 473.293C188.938 474.773 190.063 475.988 190.75 475.992C191.438 475.996 192 476.9 192 478C192 480.539 186.552 480.881 185.6 478.401C185.062 476.999 184.712 477.055 182.744 478.863C173.062 487.753 173.203 487.675 166 488.23C161.819 488.553 160.734 492.756 163.435 498.171C165.253 501.814 165.391 503 164 503C163.45 503 163 502.325 163 501.5C163 500.5 162 500 160 500C158 500 157 500.5 157 501.5C157 502.738 155.167 503 146.5 503C136 503 136 503 136 507C136 510.778 135.833 511 133 511C130.238 511 130 510.722 130 507.5C130 504.667 130.381 504 132 504C133.623 504 134 503.333 134 500.461C134 496.646 131.288 497.814 129.661 502.33C129.14 503.775 128.371 504.021 126.001 503.5C123.439 502.938 123 503.137 123 504.862C123 505.973 122.53 507.172 121.956 507.527C120.665 508.325 117.817 506.105 118.57 504.887C118.871 504.399 118.191 504 117.059 504C115.373 504 115 504.633 115 507.5C115 510.635 114.557 511.208 112.362 510.915C111.207 510.76 110.031 513.45 110.015 516.281C110.006 517.949 109.33 519.32 108.326 519.705C104.398 521.213 101 526.936 101 532.047C101 533.943 100.487 535 99.5673 535C98.7793 535 97.8493 535.9 97.5003 537C97.1513 538.1 96.4193 539 95.8743 539C95.3283 539 95.1413 539.419 95.4573 539.931C95.7743 540.443 95.6033 541.127 95.0783 541.452C94.5533 541.776 93.9833 540.345 93.8123 538.271C93.5053 534.558 93.4393 534.503 89.5003 534.666C87.3003 534.758 86.5123 534.613 87.7503 534.346C90.7663 533.695 90.9853 529 88.0003 529C86.9003 529 86.0003 529.45 86.0003 530C86.0003 530.55 85.3813 531 84.6253 531C83.1963 531 82.0003 535.159 82.0003 540.125C82.0003 541.706 82.4503 543 83.0003 543C83.5833 543 84.0003 546.333 84.0003 551C84.0003 555.667 83.5833 559 83.0003 559C82.4503 559 82.0003 560.8 82.0003 563C82.0003 565.255 81.5183 567 80.8943 567C80.2863 567 81.2343 568.35 83.0003 570C86.8713 573.616 86.1353 573.611 89.9423 570.054C93.0953 567.109 93.0953 567.109 89.5483 566.443C85.3503 565.655 83.9913 560 88.0003 560C89.4853 560 90.0003 560.667 90.0003 562.588C90.0003 565.053 90.1903 565.144 94.0003 564.5C97.2713 563.947 98.0003 564.113 98.0003 565.411C98.0003 566.284 97.2683 567 96.3743 567C95.2923 567 96.0253 568.169 98.5703 570.5C102.775 574.352 104.391 574.752 106.643 572.5C108.712 570.431 110 570.623 110 573C110 574.667 109.333 575 106 575C102.667 575 102 575.333 102 577C102 578.667 102.667 579 106 579C108.889 579 110 579.417 110 580.5C110 581.333 110.889 582 112 582C113.667 582 114 582.667 114 586C114 589.333 113.667 590 112 590C110.547 590 110 590.667 110 592.44C110 594.537 109.474 594.923 106.25 595.19C103.188 595.443 102.439 595.929 102.168 597.844C101.793 600.495 103.786 606 105.121 606C106.534 606 106.132 609.725 104.548 611.31C103.749 612.108 103.33 612.997 103.617 613.284C103.904 613.57 103.549 614.749 102.829 615.903C101.775 617.589 101.763 618.392 102.768 620C103.508 621.186 103.606 622 103.008 622C102.454 622 102 623.527 102 625.393C102 628.86 100.743 630 96.9183 630C95.5983 630 94.9973 630.702 94.9913 632.25C94.9873 633.487 94.7013 636.846 94.3563 639.716C93.7293 644.932 93.7293 644.933 97.8653 645.594C102.299 646.303 104.211 651.938 100.5 653.362C98.4293 654.156 98.4293 661 100.5 661C101.583 661 102 662.111 102 665C102 669 102 669 106 669C110 669 110 669 110 673C110 676.905 109.917 677 106.5 677C103.269 677 103 677.233 103 680.033C103 682.167 104.038 684.105 106.5 686.567C109.646 689.713 110 690.619 110 695.533C110 699.726 110.35 701 111.5 701C113.209 701 113.673 707.466 112.036 708.477C111.487 708.817 111.809 709.82 112.786 710.815C114.415 712.471 114.532 712.458 115.15 710.53C115.616 709.077 115.829 709.549 115.9 712.19C115.955 714.22 115.521 716.177 114.935 716.539C114.217 716.983 114.334 717.737 115.293 718.849C116.076 719.757 117.195 721.926 117.779 723.669C118.883 726.965 122.289 731 123.969 731C124.501 731 124.661 731.72 124.323 732.601C123.985 733.481 124.163 734.494 124.719 734.851C126.456 735.966 131.802 746.436 131.306 747.749C131.046 748.437 131.546 749.272 132.417 749.606C133.288 749.941 134.036 751.403 134.079 752.857C134.122 754.311 134.388 754.927 134.67 754.226C135.683 751.708 149 773.051 149 777.193C149 777.848 150.737 780.004 152.861 781.984C156.722 785.584 156.722 785.584 155.858 791.542C155.383 794.819 155.275 804.025 155.618 812C155.961 819.975 156.182 826.95 156.111 827.5C155.023 835.856 154.927 842 155.884 842C156.498 842 157 842.62 157 843.378C157 844.135 157.675 845.315 158.5 846C159.325 846.685 160 848.54 160 850.122C160 851.705 160.406 853 160.902 853C161.398 853 162.324 854.237 162.959 855.75C165.079 860.796 167.92 865.376 169.468 866.242C170.311 866.714 171 867.759 171 868.564C171 877.125 219.689 885.164 253 882.104C268.967 880.638 300.439 869.953 303.532 864.948C303.814 864.491 305.965 863.159 308.312 861.987C313.074 859.608 321 852.703 321 850.932C321 850.301 321.698 850.054 322.552 850.382C323.406 850.709 323.87 850.598 323.583 850.135C321.113 846.138 333.051 845.196 408 843.471C441.132 842.709 472.737 841.169 492 839.38C508.303 837.865 527.89 836.55 551.779 835.365C559.283 834.993 565.701 835.171 568.279 835.822C570.601 836.408 573.75 837.148 575.279 837.469C577.173 837.866 578.585 839.158 579.714 841.526C580.625 843.437 581.737 845 582.185 845C582.633 845 583 846.125 583 847.5C583 849.056 583.567 850 584.5 850C585.325 850 586.016 850.563 586.037 851.25C586.077 852.638 593.42 857.577 598.031 859.318C599.664 859.934 601 860.907 601 861.479C601 863.122 604.534 864.904 609.206 865.617C611.568 865.977 613.95 866.6 614.5 867C615.05 867.401 617.525 868.018 620 868.372C676.111 876.395 703.796 870.797 724.113 847.32C730.996 839.367 739.678 820.928 740.275 812.992C740.358 811.896 740.806 811 741.272 811C741.737 811 741.869 810.596 741.565 810.104C740.932 809.08 742.555 799.497 743.869 796.5C744.905 794.136 747.049 784.164 747.738 778.5C748.006 776.3 748.566 774.05 748.982 773.5C749.399 772.95 750.319 770.704 751.027 768.508C752.838 762.894 763.992 741 765.041 741C765.519 741 766.205 739.425 766.566 737.5C766.927 735.575 767.545 734 767.939 734C768.332 734 770.788 729.612 773.395 724.25C776.002 718.888 778.556 713.825 779.07 713C779.584 712.175 781.82 707.45 784.039 702.5C786.258 697.55 788.732 692.226 789.537 690.669C790.341 689.112 791 687.083 791 686.161C791 685.239 792.125 682.371 793.5 679.788C794.875 677.205 796 674.197 796 673.104C796 672.011 796.45 670.84 797 670.5C797.55 670.16 798 669.06 798 668.055C798 667.051 798.672 664.94 799.494 663.364C800.315 661.789 800.99 659.541 800.994 658.369C800.999 656.614 803.96 647.595 806.697 641C807.039 640.175 807.402 637.32 807.503 634.656C807.604 631.992 808.234 629.474 808.902 629.06C809.571 628.647 810.282 626.327 810.482 623.904C810.681 621.482 811.591 617.308 812.503 614.629C814.379 609.118 814.662 607.88 815.959 599.5C817.643 588.626 819.149 581.582 821.092 575.5C822.146 572.2 823.473 565.675 824.041 561C825.162 551.764 825.774 548.512 829.168 533.721C830.767 526.754 831.784 524.087 832.706 524.441C834.138 524.99 836.515 520.104 837.582 514.415C838.011 512.126 838.696 511.053 839.524 511.371C841.271 512.041 841.97 508.873 841.986 500.215C841.999 493.32 841.896 492.985 840.066 493.965C835.371 496.478 835.236 496.05 835.299 478.859C835.353 464.155 835.52 462.677 837.168 462.246C838.163 461.986 838.749 461.404 838.471 460.953C838.192 460.502 838.535 458.415 839.232 456.316C840.768 451.695 839.99 415.5 838.118 404.5C837.463 400.65 836.704 395.025 836.431 392C834.336 368.778 831.188 348.189 827.946 336.5C826.725 332.1 825.297 325.35 824.771 321.5C824.245 317.65 822.928 311.35 821.843 307.5C820.759 303.65 819.398 298.7 818.82 296.5C816.937 289.337 815.868 287.199 813.918 286.689C812.834 286.405 812 285.318 812 284.187C812 282.708 811.501 282.318 810.082 282.689C808.647 283.064 808.08 282.6 807.832 280.845C807.404 277.82 803 277.228 803 280.196C803 283.902 801.181 280.95 800.568 276.249C799.704 269.619 801.142 260.925 805.984 243.5C808.277 235.25 810.533 226.925 810.997 225C811.462 223.075 812.789 217.9 813.948 213.5C815.106 209.1 816.514 203.475 817.076 201C818.524 194.623 819.611 190.343 821.45 183.767C824.296 173.592 826.145 116.961 824.07 103.5C822.121 90.8525 821.799 89.4335 820.368 87.2035C819.557 85.9415 819.166 84.0515 819.498 83.0055C819.876 81.8135 819.366 80.3655 818.134 79.1335C817.052 78.0515 816.43 76.9025 816.752 76.5815C817.752 75.5805 814.748 71.0005 813.081 70.9845C811.747 70.9715 811.724 70.8275 812.934 70.0615C814.407 69.1295 810.008 60.7905 808.238 61.1625C807.832 61.2475 806.712 60.9725 805.75 60.5515C803.682 59.6465 803.331 56.5285 805.386 57.3175C807.702 58.2065 804.381 52.4795 801.476 50.5765C799.302 49.1515 799 49.1395 799 50.4765C799 52.4865 797.111 52.4105 794.786 50.3055C791.612 47.4335 785.823 45.8005 787.069 48.1295ZM289.75 122.917C290.438 122.963 291 123.858 291 124.906C291 126.611 285.833 126.264 283.15 124.379C282.089 123.634 284.247 122.365 286.208 122.581C287.468 122.72 289.063 122.871 289.75 122.917ZM575.836 205.302C576.43 206.018 576.658 207.593 576.342 208.802C575.753 211.051 578.226 212.062 579.454 210.075C580.336 208.647 577.86 204 576.217 204C575.13 204 575.032 204.334 575.836 205.302ZM165 227C165 228.708 164.379 228.98 160.75 228.864C158.412 228.789 157.512 228.533 158.75 228.294C159.988 228.056 161 227.416 161 226.871C161 226.327 161.45 226.16 162 226.5C162.55 226.84 163 226.641 163 226.059C163 225.477 163.45 225 164 225C164.55 225 165 225.9 165 227ZM586 226.875C586 227.855 579.965 229.298 579.174 228.507C578.895 228.228 579.417 228 580.333 228C581.25 228 582 227.55 582 227C582 226.45 582.9 226 584 226C585.1 226 586 226.394 586 226.875ZM517.75 300.25C517.521 300.938 516.508 301.5 515.5 301.5C514.492 301.5 513.479 300.938 513.25 300.25C512.986 299.458 513.811 299 515.5 299C517.189 299 518.014 299.458 517.75 300.25ZM488 310.5C488 313.263 489.327 313.58 492.805 311.65C495.11 310.371 495.11 310.371 492.508 309.185C488.753 307.475 488 307.694 488 310.5ZM363.103 323.182C364.061 323.856 363.014 323.989 359.774 323.605C354.433 322.972 351.907 323.594 352.59 325.375C352.845 326.04 351.692 327.591 350.027 328.822C346.53 331.408 346.018 330.993 349.128 328.095C351.475 325.908 351.065 323 348.409 323C347.099 323 346.998 323.293 347.926 324.411C348.647 325.279 348.727 326.051 348.134 326.417C347.604 326.745 346.961 326.447 346.705 325.756C346.449 325.065 346.314 326.075 346.404 328C346.497 329.954 345.781 332.673 344.785 334.154C343.803 335.614 343.002 337.414 343.004 338.154C343.006 338.894 343.852 338.15 344.883 336.5C353.703 322.396 368.518 320.997 379.517 333.23C381.983 335.973 384 337.808 384 337.308C384 336.809 383.46 335.86 382.8 335.2C381.867 334.267 381.867 334 382.8 334C383.46 334 384.04 334.337 384.088 334.75C385.682 348.306 384.905 352.991 380.193 358.216C366.96 372.893 345.942 366.464 341.894 346.5C341.135 342.755 341.108 342.827 341.478 347.613C341.716 350.688 341.4 353.26 340.687 354.065C339.697 355.181 339.791 355.184 341.25 354.079C342.738 352.953 343 352.993 343 354.343C343 355.216 344.397 357.521 346.104 359.465C347.811 361.409 348.863 363 348.443 363C348.022 363 346.401 361.569 344.839 359.82C342.694 357.417 342 357.065 342 358.379C342 359.335 341.543 359.835 340.984 359.49C340.425 359.144 340.226 358.443 340.543 357.931C340.859 357.419 340.641 357 340.059 357C339.477 357 339 357.585 339 358.3C339 360.012 340.949 361.911 342.372 361.586C342.992 361.444 343.163 361.517 342.75 361.747C340.257 363.142 343.968 367.727 347.154 367.187C348.169 367.015 349 367.353 349 367.937C349 369.473 351.553 369.243 352.93 367.584C354.315 365.915 350.926 364.325 348.759 365.627C347.817 366.193 347.831 365.976 348.813 364.763C350.016 363.279 350.418 363.314 353.578 365.178C360.714 369.389 374.111 366.804 379.714 360.135C380.932 358.686 381.944 357.972 381.964 358.55C381.984 359.127 381.46 360.14 380.8 360.8C379.867 361.733 379.867 362 380.8 362C381.46 362 382.069 361.438 382.152 360.75C382.236 360.063 382.355 358.998 382.417 358.386C382.479 357.773 383.025 356.648 383.631 355.886C384.236 355.123 384.967 353.825 385.255 353C385.543 352.175 385.761 352.947 385.738 354.716C385.716 356.484 385.392 357.743 385.019 357.512C384.646 357.281 384.414 358.084 384.503 359.296C384.761 362.792 387.342 361.87 388.135 358C388.64 355.538 388.429 354.032 387.426 352.921C385.788 351.108 385.519 348 387 348C387.55 348 388 347.1 388 346C388 344.9 387.55 344 387 344C386.45 344 386 343.325 386 342.5C386 340.7 388.131 340.531 389.8 342.2C390.733 343.133 391 343.133 391 342.2C391 341.54 390.599 341 390.108 341C389.618 341 388.934 339.875 388.589 338.5C388.244 337.125 387.52 336 386.981 336C386.441 336 386 334.875 386 333.5C386 330.274 386.519 330.35 389.921 334.074C392.241 336.615 392.836 336.869 393.348 335.537C393.715 334.58 393.363 333.693 392.483 333.355C390.565 332.619 390.553 330 392.469 330C393.363 330 393.712 329.414 393.362 328.5C392.407 326.013 386 326.499 386 329.059C386 330.191 385.555 330.843 385.011 330.507C384.443 330.156 384.278 330.56 384.623 331.459C385.347 333.348 381.694 333.1 379.736 331.127C378.752 330.136 378.857 330.017 380.25 330.548C382.975 331.585 382.442 328.139 379.448 325.365C376.567 322.695 374.476 322.355 373.3 324.367C372.766 325.279 371.834 325.469 370.5 324.938C368.887 324.295 368.827 324.127 370.191 324.07C374.64 323.885 372.188 322.393 367.286 322.303C363.372 322.23 362.123 322.493 363.103 323.182ZM443.639 322.694C442.444 323.889 442.994 326 444.5 326C445.325 326 446 325.352 446 324.559C446 322.888 444.573 321.761 443.639 322.694ZM447.363 327.497C446.498 329.751 448.08 331.053 450.816 330.338C452.216 329.972 452.978 329.115 452.788 328.121C452.365 325.897 448.162 325.414 447.363 327.497ZM456 331C456 331.55 457.125 332 458.5 332C459.875 332 461 331.55 461 331C461 330.45 459.875 330 458.5 330C457.125 330 456 330.45 456 331ZM556.324 331.933C557.674 332.446 560.338 334.236 562.245 335.91C564.152 337.585 566.074 338.627 566.516 338.227C566.959 337.827 567.03 338.01 566.674 338.632C566.318 339.255 566.965 340.957 568.111 342.414C579.393 356.757 560.253 376.834 543.49 368.24C521.519 356.977 533.446 323.235 556.324 331.933ZM390.153 346.531C388.768 347.842 387.987 349.521 388.248 350.626C388.669 352.409 388.732 352.403 389.539 350.5C390.464 348.32 392.494 346 393.475 346C393.815 346 393.901 348.197 393.666 350.883C393.202 356.18 394.372 359.8 395.553 356.722C395.917 355.775 396.793 355 397.5 355C398.207 355 399.083 355.775 399.447 356.722C400.013 358.197 400.241 358.233 401.038 356.972C402.551 354.58 402.166 354 399.063 354C396.295 354 396.157 353.809 396.664 350.681C397.466 345.741 393.595 343.274 390.153 346.531ZM425 347.5C425 349.183 424.817 349.251 422.582 348.393C420.347 347.536 420.616 346 423 346C424.111 346 425 346.667 425 347.5ZM457 352.614C457 353.376 456.1 354 455 354C452.799 354 452.712 353.689 453.63 349.099C454.26 345.948 454.26 345.948 455.63 348.588C456.384 350.04 457 351.852 457 352.614ZM449.601 353.453C448.965 355.987 444 357.358 444 355C444 354.45 444.87 354 445.933 354C447.01 354 448.157 353.082 448.524 351.925C449.445 349.022 450.38 350.349 449.601 353.453ZM420.557 355.713C420.25 356.511 420 357.352 420 357.582C420 358.518 416.383 357.847 414.75 356.608C412.43 354.847 412.543 354.21 415.25 353.788C418.807 353.233 421.178 354.093 420.557 355.713ZM336.035 357.935C334.763 360.311 335.405 362 337.578 362C338.664 362 338.869 361.296 338.378 359.25C337.496 355.573 337.345 355.488 336.035 357.935ZM354.342 367.745C354.711 368.341 354.447 369.057 353.756 369.336C353.065 369.614 353.711 369.878 355.191 369.921C356.671 369.964 358.16 369.55 358.5 369C358.84 368.45 358.678 368 358.141 368C357.603 368 356.378 367.699 355.418 367.33C354.291 366.898 353.91 367.045 354.342 367.745ZM313.952 408.051C312.956 408.681 312.892 408.974 313.75 408.985C314.438 408.993 315 409.675 315 410.5C315 411.325 315.45 412 316 412C317.185 412 317.354 408.337 316.202 407.625C315.763 407.354 314.751 407.545 313.952 408.051ZM322 424C322 424.55 320.425 425 318.5 425C316.575 425 315 424.55 315 424C315 423.45 316.575 423 318.5 423C320.425 423 322 423.45 322 424ZM385.5 433C385.861 433.583 384.844 434 383.059 434C381.377 434 380 433.55 380 433C380 432.45 381.098 432 382.441 432C383.784 432 385.16 432.45 385.5 433ZM267 438.094C267 440.333 267.459 441 269 441C270.441 441 271 440.333 271 438.617C271 437.074 270.294 436.049 269 435.71C267.339 435.276 267 435.68 267 438.094ZM455.268 437.374C459.891 438.544 463.523 439.95 463.337 440.5C463.152 441.05 464.238 441.6 465.75 441.721C479.507 442.827 486.685 444.824 495 449.86C498.774 452.145 501.994 453.216 503.433 452.664C505.479 451.879 508 452.876 508 454.471C508 455.163 510.067 456.518 512.594 457.483C515.692 458.666 518.053 460.489 519.844 463.081C521.455 465.411 523.32 466.939 524.583 466.962C527.837 467.021 528.302 468.26 525.795 470.189C524.533 471.161 524.063 471.966 524.75 471.978C525.502 471.991 526.047 473.493 526.118 475.75C526.236 479.482 526.24 479.486 527 476.5C527.42 474.85 527.817 474.063 527.882 474.75C527.952 475.489 529.43 476 531.5 476C534.204 476 535 476.41 535 477.8C535 478.79 535.563 480.196 536.25 480.925C537.25 481.985 537.25 482.342 536.25 482.708C535.563 482.96 535 484.254 535 485.583C535 488.12 533.184 488.598 525.466 488.092C523.797 487.982 520.535 488.319 518.216 488.84C513.906 489.809 507.4 488.902 503.545 486.796C502.131 486.023 501.486 486.042 501.212 486.864C501.004 487.489 499.957 488 498.885 488C497.814 488 496.655 488.736 496.309 489.636C495.623 491.426 481.127 491.044 474.189 489.054C471.863 488.387 469.795 488.514 467.018 489.494C464.083 490.529 462.191 490.615 459.388 489.841C457.337 489.275 453.374 489.076 450.58 489.399C447.786 489.721 441.675 490.049 437 490.128C430.143 490.243 427.654 490.728 424.124 492.635C421.717 493.936 419.13 495 418.374 495C417.618 495 417 495.415 417 495.922C417 497.091 410.348 499.333 409.124 498.577C408.621 498.266 407.981 498.608 407.701 499.337C407.421 500.065 404.337 501.657 400.846 502.873C397.356 504.089 393.694 505.53 392.709 506.076C391.724 506.621 390.509 506.815 390.009 506.505C389.508 506.196 387.396 506.856 385.314 507.972C383.233 509.087 380.496 510 379.233 510C377.971 510 376.678 510.675 376.362 511.5C376.045 512.325 374.966 513 373.964 513C372.963 513 371.468 513.675 370.643 514.5C369.818 515.325 368.468 516 367.643 516C366.818 516 365.46 516.683 364.625 517.518C363.79 518.353 362.746 518.939 362.304 518.82C360.902 518.443 357 520.097 357 521.067C357 521.58 356.325 522 355.5 522C354.675 522 354 522.623 354 523.383C354 524.144 353.212 525.064 352.25 525.427C348.262 526.931 346.072 528.545 345.087 530.708C344.513 531.968 343.665 533 343.203 533C342.741 533 338.655 536.6 334.123 541C329.591 545.4 325.303 549 324.593 549C323.884 549 322.575 550.854 321.685 553.12C320.519 556.088 319.638 557.075 318.533 556.651C317.585 556.287 317 556.623 317 557.531C317 558.339 317.528 559 318.174 559C318.82 559 318.373 560.038 317.181 561.307C315.503 563.094 315.283 563.883 316.207 564.807C317.131 565.731 317.011 566 315.675 566C314.727 566 313.522 567.128 312.997 568.507C312.473 569.886 311.475 570.899 310.779 570.757C309.955 570.59 309.197 572.48 308.607 576.172C307.933 580.383 307.223 581.969 305.85 582.328C304.512 582.678 304 583.745 304 586.184C304 588.038 303.311 590.539 302.469 591.741C300.95 593.909 302.108 598 304.241 598C305.247 598 305.224 605.744 304.215 606.367C303.43 606.852 303.708 624.42 304.673 635.25C305.182 640.969 303.498 643.62 302.29 639C302.002 637.9 301.144 637 300.383 637C299.623 637 299 636.148 299 635.107C299 634.066 298.367 632.97 297.594 632.674C296.821 632.377 295.882 630.642 295.507 628.818C294.3 622.944 290.982 617 288.911 617C286.517 617 286.398 614.445 288.75 613.539C290.417 612.897 290.417 612.819 288.75 611.883C287.788 611.343 287 609.798 287 608.45C287 607.103 286.55 606 286 606C285.45 606 285 604.908 285 603.573C285 602.174 283.94 600.311 282.5 599.179C279.855 597.098 279 591.736 281.106 590.435C281.871 589.962 281.97 587.399 281.429 582.125C280.247 570.618 281.294 542.447 282.866 543.414C283.215 543.629 283.612 542.275 283.749 540.405C284.104 535.56 284.357 534.634 285.633 533.504C286.256 532.952 286.992 530.65 287.269 528.388C287.546 526.127 288.599 523.016 289.608 521.475C290.619 519.933 291.308 517.375 291.142 515.786C290.975 514.198 291.273 512.359 291.804 511.7C292.335 511.04 293.092 508.99 293.487 507.145C293.964 504.914 295.184 503.238 297.123 502.145C298.995 501.089 300.452 499.145 301.188 496.719C301.819 494.639 303.406 491.866 304.715 490.557C306.349 488.924 306.733 487.953 305.94 487.463C304.829 486.776 307.381 484.01 312.427 480.43C314.057 479.274 314.204 478.556 313.382 475.782C312.194 471.776 312.671 469 314.547 469C316.617 469 324.971 464.762 324.476 463.962C323.965 463.135 328.865 458.688 335.117 454.304C338.49 451.94 340.949 451.043 344.574 450.855C352.686 450.435 361.713 446.538 358.604 444.799C357.209 444.018 357.121 443.56 358.13 442.343C359.126 441.144 359.1 440.68 358 440C356.867 439.3 356.856 438.879 357.937 437.576C360.076 434.999 362 435.673 362 439C362 440.65 361.495 442 360.878 442C360.102 442 360.14 442.464 361 443.5C362.71 445.56 366.312 445.379 371.27 442.984C373.565 441.875 378.155 440.509 381.471 439.949C384.787 439.389 392 438.157 397.5 437.211C413.213 434.509 444.281 434.597 455.268 437.374ZM147.19 491.75C147.563 496.256 150.904 497.249 154.988 494.069C157.477 492.132 157.477 492.132 154.488 491.065C152.845 490.479 150.719 489.549 149.764 489C147.095 487.463 146.856 487.719 147.19 491.75ZM130.962 490.555C129.825 491.931 129.782 492.42 130.768 492.752C131.465 492.987 132.671 493.813 133.446 494.589C135.382 496.525 141 496.458 141 494.5C141 493.465 139.961 493 137.653 493C135.213 493 134.051 492.429 133.365 490.892C132.473 488.892 132.349 488.875 130.962 490.555ZM156 515.941C156 518.225 154.423 519.494 153.48 517.968C152.64 516.609 153.619 514 154.969 514C155.536 514 156 514.873 156 515.941ZM79.0003 528.917C79.0003 530.145 79.6463 531 80.5733 531C81.5053 531 82.0153 530.32 81.8233 529.333C81.3373 526.824 79.0003 526.48 79.0003 528.917ZM79.0003 552.918C79.0003 553.973 78.7273 555.548 78.3933 556.418C77.9883 557.472 78.3443 558 79.4603 558C80.6933 558 80.9633 557.459 80.4853 555.952C80.1273 554.826 80.3773 553.251 81.0403 552.452C82.0093 551.284 81.9273 551 80.6223 551C79.6903 551 79.0003 551.815 79.0003 552.918ZM25.3933 568.581C25.7273 569.451 26.0453 571.138 26.1003 572.331C26.1913 574.325 26.2643 574.299 27.0003 572C28.2553 568.082 28.1243 567 26.3933 567C25.3383 567 24.9953 567.543 25.3933 568.581ZM84.3553 574.627C83.5123 574.973 83.4963 575.855 84.2973 577.977C85.2773 580.572 85.5103 580.69 86.6603 579.177C89.2843 575.727 87.9743 573.143 84.3553 574.627ZM507.096 578.049C518.23 583.729 522.396 596.016 516.159 604.776C506.075 618.938 485.703 618.138 478.378 603.294C470.129 586.578 489.844 569.248 507.096 578.049ZM115.812 577.739C115.393 579.911 112 580.727 112 578.656C112 577.282 113.302 576.272 115.323 576.078C115.776 576.035 115.996 576.782 115.812 577.739ZM377.143 582.023C385.056 584.221 393.619 595.349 392.695 602.234C390.566 618.112 369.663 624.383 358.111 612.612C345.089 599.344 359.002 576.984 377.143 582.023ZM104 584.979C102.688 585.809 102.719 586.146 104.25 587.677C105.917 589.344 106.083 589.344 107.75 587.677C109.388 586.039 108.424 584.031 106 584.031C105.725 584.031 104.825 584.457 104 584.979ZM97.0003 594.5C97.0003 596.944 97.4523 598 98.5003 598C99.5483 598 100 596.944 100 594.5C100 592.056 99.5483 591 98.5003 591C97.4523 591 97.0003 592.056 97.0003 594.5Z" fill="#EA9B9E"/>
<path id="Layer 12" fill-rule="evenodd" clip-rule="evenodd" d="M426.249 24.6624C425.562 24.9404 424.999 25.8184 424.999 26.6154C424.999 27.4114 424.298 28.3324 423.442 28.6604C422.585 28.9894 422.115 29.8614 422.398 30.5974C422.68 31.3334 422.513 32.1824 422.025 32.4844C418.944 34.3884 420.381 54.1654 423.693 55.4364C424.886 55.8944 425.023 55.7294 424.244 54.7734C420.749 50.4854 421.047 46.1904 425.092 42.5354C429.687 38.3834 429.434 38.4204 435.383 41.0524C438.58 42.4664 441.96 43.0724 446.26 43.0014C459.233 42.7884 468.077 46.0284 466.406 50.3834C465.057 53.8964 467.681 55.5154 469.385 52.2214C472.444 46.3054 470.455 33.0004 466.511 33.0004C465.93 33.0004 463.697 31.5524 461.55 29.7814C459.051 27.7224 457.499 27.0014 457.239 27.7814C456.722 29.3324 453.758 29.3594 452.227 27.8284C451.572 27.1734 448.723 26.7364 445.777 26.8374C442.874 26.9374 438.024 26.3454 434.999 25.5214C429.2 23.9424 428.261 23.8504 426.249 24.6624ZM513.794 583.403C516.119 586.1 518.427 589.7 518.921 591.403C519.57 593.64 519.844 593.917 519.909 592.4C520.007 590.115 515.7 583.692 511.929 580.5C510.63 579.4 511.469 580.707 513.794 583.403ZM352.078 601.191C352.035 604.321 352.381 607.118 352.849 607.407C353.316 607.696 353.506 605.585 353.27 602.716C352.654 595.233 352.169 594.612 352.078 601.191ZM511.499 609.739C509.299 611.693 508.24 612.76 509.145 612.111C510.049 611.461 511.174 610.999 511.645 611.083C513.761 611.463 515.06 610.906 514.431 609.888C514.053 609.277 514.35 608.401 515.092 607.943C515.834 607.484 516.229 606.901 515.97 606.648C515.711 606.394 513.699 607.785 511.499 609.739ZM353.59 609.853C353.3 610.322 353.725 611.559 354.533 612.603C355.964 614.449 355.986 614.446 355.351 612.5C354.855 610.98 355.635 611.34 358.599 613.999C362.499 617.497 362.499 617.497 358.546 613.249C354.176 608.552 354.329 608.657 353.59 609.853ZM488.432 710.887C487.134 712.073 463.31 714.801 446.499 715.688C435.059 716.292 433.413 716.555 437.499 717.126C445.281 718.214 463.802 718.128 464.499 717C464.839 716.45 467.915 716 471.336 716C475.423 716 478.338 715.451 479.844 714.396C481.114 713.507 483.361 712.973 484.89 713.197C486.423 713.422 488.214 712.995 488.924 712.235C490.341 710.719 489.909 709.536 488.432 710.887ZM511.999 713C511.999 713.55 514.249 714 516.999 714C519.749 714 521.999 713.55 521.999 713C521.999 712.45 519.749 712 516.999 712C514.249 712 511.999 712.45 511.999 713ZM487.999 719C487.999 719.55 486.499 720 484.666 720C482.832 720 480.995 720.337 480.582 720.75C480.169 721.163 472.894 721.339 464.415 721.143C448.079 720.764 441.594 722.57 456.749 723.278C461.011 723.476 455.443 723.608 444.375 723.57C428.664 723.515 424.357 723.774 424.732 724.75C425.302 726.232 423.392 726.446 422.499 725C421.683 723.68 416.999 723.707 416.999 725.031C416.999 725.599 417.787 726.306 418.749 726.604C419.711 726.902 421.328 727.593 422.341 728.139C423.718 728.881 424.481 728.723 425.367 727.511C426.388 726.115 427.452 726.03 433.026 726.895C443.481 728.517 466.471 728.335 474.999 726.562C479.124 725.704 483.737 725.002 485.249 725.001C487.026 725 487.999 724.469 487.999 723.5C487.999 722.417 489.11 722 491.999 722C495.332 722 495.999 721.667 495.999 720C495.999 718.333 495.332 718 491.999 718C489.799 718 487.999 718.45 487.999 719ZM661.725 776.608C661.326 777.007 660.999 778.158 660.999 779.167C660.999 781.327 660.621 781.405 658.026 779.785C656.519 778.844 655.336 778.835 652.789 779.745C648.543 781.263 645.41 780.767 645.793 778.636C646.126 776.779 644.374 776.376 643.775 778.172C643.101 780.194 631.413 780.501 628.473 778.575C625.7 776.758 622.974 778.016 617.114 783.818C615.234 785.679 614.548 785.896 613.879 784.84C613.108 783.623 612.584 784.364 612.882 786.25C613.048 787.303 608.239 787.192 607.832 786.134C607.649 785.657 605.026 785.624 601.999 786.061C598.974 786.497 593.039 786.887 588.809 786.927C584.579 786.967 580.839 787.45 580.499 788C580.159 788.55 579.233 789 578.44 789C577.647 789 576.999 788.55 576.999 788C576.999 787.45 577.899 787 578.999 787C580.099 787 580.999 786.577 580.999 786.059C580.999 781.914 560.605 782.298 556.145 786.527C552.834 789.667 552.384 789.83 551.249 788.301C550.515 787.313 549.999 787.123 549.999 787.84C549.999 789.889 547.035 790.342 545.098 788.589C543.383 787.038 543.169 787.092 541.612 789.468C539.592 792.55 538.35 792.68 537.467 789.899C536.982 788.371 536.501 788.098 535.7 788.899C535.094 789.505 533.171 790 531.426 790C529.681 790 526.135 790.937 523.546 792.082C519.779 793.749 517.206 794.108 510.65 793.881C506.145 793.725 501.925 793.928 501.272 794.331C500.619 794.735 497.072 794.756 493.388 794.378C488.1 793.837 486.856 793.959 487.475 794.962C488.093 795.961 486.585 796.128 480.379 795.747C476.045 795.481 474.299 795.542 476.499 795.882C478.699 796.222 480.386 796.837 480.249 797.25C480.112 797.663 479.999 798.513 479.999 799.14C479.999 799.926 478.26 800.1 474.389 799.701C469.413 799.187 468.723 799.341 468.273 801.061C467.662 803.396 463.999 803.686 463.999 801.399C463.999 799.62 449.848 800.303 449.166 802.115C448.982 802.602 447.07 803 444.916 803C442.101 803 440.999 803.422 440.999 804.5C440.999 806.467 439.533 806.396 436.29 804.271C434.352 803.001 433.543 802.869 433.242 803.771C433.017 804.447 431.857 805.007 430.666 805.015C429.474 805.024 427.836 805.45 427.025 805.963C426.215 806.475 425.313 806.509 425.022 806.037C424.536 805.251 395.93 806.301 386.499 807.452C375.277 808.82 361.999 809.18 361.999 808.116C361.999 806.674 355.33 806.655 354.441 808.095C354.011 808.79 350.433 809.096 344.632 808.934C339.609 808.794 334.824 808.941 333.999 809.261C330.673 810.55 315.198 811.097 314.812 809.939C314.353 808.561 298.999 809.706 298.999 811.117C298.999 811.603 297.451 812 295.558 812C293.665 812 291.839 812.45 291.499 813C291.159 813.55 289.108 814 286.94 814C284.772 814 282.999 814.45 282.999 815C282.999 815.55 281.472 816 279.606 816C277.512 816 275.993 816.574 275.637 817.5C275.281 818.429 273.759 819 271.637 819C269.483 819 267.995 819.569 267.624 820.534C267.152 821.764 265.512 822.011 259.313 821.784C251.59 821.5 251.59 821.5 250.672 824.5C249.878 827.09 248.468 830.644 247.198 833.25C246.997 833.663 247.545 834 248.416 834C249.287 834 249.999 833.373 249.999 832.607C249.999 829.435 254.919 830.069 254.984 833.25C254.992 833.663 256.263 834 257.808 834C265.773 834 265.579 838.299 257.425 842.492C252.913 844.812 251.422 846.131 251.178 848.019C250.897 850.191 237.87 858 234.529 858C234.166 858 232.734 859.35 231.346 861C229.957 862.65 227.947 864 226.879 864C224.952 864 224.128 865.153 223.539 868.672C223.371 869.677 222.804 870.412 222.28 870.305C221.756 870.197 221.407 871.457 221.505 873.104C221.625 875.117 221.08 876.422 219.841 877.084C218.828 877.627 217.999 878.705 217.999 879.48C217.999 880.451 216.52 880.989 213.249 881.207C210.636 881.381 214.799 881.924 222.499 882.413C243.793 883.767 262.557 882.028 275.999 877.456C286.304 873.951 302.52 866.584 303.531 864.948C303.813 864.491 305.964 863.159 308.311 861.987C313.073 859.608 320.999 852.704 320.999 850.933C320.999 850.302 321.697 850.054 322.551 850.382C323.405 850.709 323.869 850.598 323.582 850.135C321.112 846.138 333.05 845.196 407.999 843.471C441.131 842.709 472.736 841.169 491.999 839.38C508.302 837.865 527.889 836.55 551.778 835.365C559.282 834.993 565.7 835.171 568.278 835.822C570.6 836.408 573.749 837.149 575.278 837.47C577.172 837.867 578.584 839.158 579.713 841.526C580.624 843.437 581.736 845 582.184 845C582.632 845 582.999 846.125 582.999 847.5C582.999 849.056 583.566 850 584.499 850C585.324 850 586.015 850.563 586.036 851.25C586.076 852.638 593.419 857.577 598.03 859.318C599.663 859.934 600.999 860.907 600.999 861.479C600.999 863.122 604.533 864.905 609.205 865.618C611.567 865.978 613.949 866.601 614.499 867.001C615.563 867.776 617.886 868.156 635.961 870.508C666.029 874.421 707.652 867.969 710.515 858.951C710.856 857.877 712.017 856.526 713.095 855.949C714.173 855.372 714.79 854.469 714.465 853.943C714.139 853.416 714.576 852.716 715.436 852.386C716.295 852.056 716.999 850.747 716.999 849.476C716.999 848.206 717.453 847.015 718.009 846.83C718.564 846.645 719.244 845.37 719.517 843.997C720.169 840.726 719.097 835.822 717.893 836.566C717.374 836.886 717.014 836.778 717.093 836.324C717.498 833.992 716.898 829.945 716.21 830.37C715.776 830.638 712.219 831.08 708.306 831.352C699.156 831.988 697.837 829.798 703.733 823.76C708.222 819.163 708.963 819.093 709.132 823.25C709.263 826.5 709.263 826.5 709.882 823.035C710.387 820.2 711.091 819.4 713.749 818.64C715.537 818.129 716.999 817.156 716.999 816.478C716.999 815.8 717.674 814.685 718.499 814C720.058 812.706 720.56 808.464 719.249 807.654C716.732 806.098 708.999 808.344 708.999 810.63C708.999 811.934 708.586 813 708.082 813C706.39 813 706.253 810.525 707.775 807.5C708.606 805.85 709.689 803.688 710.184 802.697C710.836 801.387 710.722 800.976 709.762 801.197C709.036 801.363 708.314 801.05 708.16 800.5C708.006 799.95 706.978 799.166 705.875 798.758C704.773 798.351 704.151 797.563 704.494 797.008C704.837 796.454 704.368 796 703.452 796C702.278 796 701.983 795.483 702.452 794.25C702.986 792.847 702.868 792.748 701.858 793.75C700.006 795.588 697.651 795.274 696.231 793C694.742 790.616 692.999 790.378 692.999 792.559C692.999 793.416 692.542 793.835 691.983 793.49C691.424 793.144 691.268 792.373 691.637 791.776C692.006 791.179 691.85 790.975 691.288 791.322C690.727 791.669 689.419 790.998 688.383 789.83C687.025 788.3 686.848 787.586 687.749 787.271C689.603 786.622 689.332 780.341 687.418 779.607C685.124 778.727 684.999 778.798 684.999 781C684.999 784.151 682.98 783.037 680.393 778.458C679.247 776.43 663.466 774.866 661.725 776.608Z" fill="#D68C8F"/>
</g>
</svg>
