<svg viewBox="0 0 949 991" fill="none" xmlns="http://www.w3.org/2000/svg">
<g filter="url(#filter0_d_151_308)">
<path d="M175.5 62.0003C97.917 91.8229 88.5888 138.773 85.5001 234.5L74.5001 275.5C-27.1296 597.202 125 767 163 821.5C201 876 172.361 972.465 358 885.5L608 877C647.5 929 741.5 923 759 871.5C776.5 820 771 821.5 771 821.5L776.5 798.5C875.504 610.244 899.382 502.032 823 299C890 74 786.988 48.8547 690 93.5L645 87.9999C513.678 35.8984 435.95 42.7431 294 83.9999C229.53 64.1625 203.293 59.1149 175.5 62.0003Z" fill="#D9D9D9"/>
</g>
<path fill-rule="evenodd" clip-rule="evenodd" d="M357 386C357 687 357 687 481 687C605 687 605 687 605 386C605 85 605 85 481 85C357 85 357 85 357 386Z" fill="#181214"/>
<path fill-rule="evenodd" clip-rule="evenodd" d="M357 386C357 687 357 687 481 687C605 687 605 687 605 386C605 85 605 85 481 85C357 85 357 85 357 386ZM470.163 495.067C470.424 496.744 469.051 499.863 468.219 499.482C467.752 499.269 467.385 496.557 467.576 494.732C467.776 492.816 469.855 493.085 470.163 495.067Z" fill="#565658"/>
<path fill-rule="evenodd" clip-rule="evenodd" d="M357 386C357 687 357 687 481 687C605 687 605 687 605 386C605 85 605 85 481 85C357 85 357 85 357 386ZM483.1 116.15C484.009 117.106 484.971 117.516 486.193 117.468C490.227 117.311 491.77 118.799 491.934 123.005C492.048 125.908 491.411 126.878 489.119 127.294C487.683 127.553 487.683 127.553 489.293 126.839C490.563 126.276 490.937 125.818 491.067 124.671C491.367 122.014 491.247 120.27 490.741 119.915C488.484 118.335 481.169 116.947 480.883 118.046C480.279 120.372 480.528 125.616 481.261 125.997C482.465 126.623 482.603 126.828 481.853 126.873C479.443 127.021 478.395 120.973 480.17 117.161C481.48 114.344 481.408 114.369 483.1 116.15ZM519.694 316.74C520.674 319.177 520.674 319.177 519.568 317.416C518.96 316.447 518.32 315.649 518.146 315.644C517.925 315.636 518.387 314.522 518.699 314.311C518.707 314.306 519.155 315.398 519.694 316.74ZM466.48 317.763C466.928 318.551 467.426 319.002 467.586 318.766C467.747 318.531 467.96 318.652 468.06 319.036C468.159 319.42 468.36 319.559 468.506 319.345C468.87 318.81 468.842 324.587 468.469 326.94C466.216 341.152 456.325 336.919 456.584 321.855C456.627 319.374 456.627 319.374 456.797 322.252C456.968 325.13 456.968 325.13 457.963 323.099C458.511 321.982 459.172 321.068 459.433 321.067C459.693 321.066 459.949 320.814 460.002 320.506C460.536 317.356 465.14 315.407 466.48 317.763ZM514.553 320.18C514.635 320.394 514.084 320.411 513.329 320.218C511.629 319.783 510.862 320.221 510.862 321.627C510.862 322.613 510.902 322.612 511.321 321.617C511.67 320.787 511.985 320.667 512.639 321.113C513.838 321.931 514.043 322.7 512.927 322.195C511.589 321.589 511.121 322.21 511.303 324.348C511.451 326.081 511.441 326.073 511.014 324.109C510.573 322.08 510.573 322.08 510.717 324.363C510.797 325.618 510.862 327.234 510.862 327.954C510.862 328.673 510.989 329.076 511.144 328.849C511.309 328.606 511.35 328.899 511.243 329.559C510.772 332.484 510.13 324.633 510.577 321.409C510.877 319.246 513.842 318.33 514.553 320.18ZM520.972 332.91C520.223 335.948 519.326 338.104 519.933 335.406C520.104 334.647 520.148 333.899 520.032 333.744C519.916 333.589 519.979 333.553 520.172 333.665C520.616 333.92 521.312 331.04 520.888 330.704C520.725 330.575 520.668 329.8 520.76 328.98C520.924 327.517 520.93 327.521 521.128 329.182C521.279 330.457 521.348 329.958 521.408 327.153C521.488 323.433 521.488 323.433 521.595 326.689C521.68 329.267 521.55 330.563 520.972 332.91ZM513.166 334.926C513.385 334.624 513.469 334.626 513.353 334.93C513.237 335.234 513.301 335.95 513.496 336.521C513.788 337.381 513.776 337.461 513.422 336.99C512.691 336.015 511.676 333.639 511.387 332.226C511.235 331.482 511.483 331.909 511.939 333.175C512.509 334.759 512.891 335.305 513.166 334.926ZM518.541 337.909C518.033 338.587 515.769 339.617 515.998 339.066C516.151 338.7 518.092 337.486 518.683 337.387C518.84 337.361 518.776 337.596 518.541 337.909ZM470.163 495.067C470.424 496.744 469.051 499.863 468.219 499.482C467.752 499.269 467.385 496.557 467.576 494.732C467.776 492.816 469.855 493.085 470.163 495.067ZM496.969 498.883C496.666 499.34 496.715 499.681 497.203 500.494C497.563 501.093 497.7 501.703 497.531 501.952C497.371 502.187 497.099 501.754 496.927 500.989C496.742 500.169 496.474 499.798 496.272 500.085C496.067 500.378 496.087 500.116 496.321 499.428C496.536 498.798 496.856 498.288 497.032 498.293C497.223 498.299 497.197 498.54 496.969 498.883ZM521.068 653.826C521.634 654.181 522.452 654.645 522.887 654.858C523.427 655.122 523.826 655.987 524.148 657.594C524.407 658.887 524.723 659.944 524.851 659.944C524.978 659.944 525.083 660.705 525.083 661.635C525.083 662.687 525.244 663.326 525.509 663.326C525.744 663.326 525.94 663.707 525.946 664.171C525.958 665.11 528.046 668.451 529.357 669.629C529.822 670.045 530.202 670.703 530.202 671.09C530.202 672.202 531.207 673.408 532.536 673.89C533.207 674.133 533.885 674.553 534.041 674.823C534.198 675.093 534.902 675.507 535.606 675.741C536.309 675.976 537.781 676.499 538.876 676.903C539.971 677.307 542.659 677.896 544.849 678.209C548.686 678.761 548.624 678.772 543.142 678.529C533.349 678.094 527.962 674.458 520.248 663.078C516.547 657.619 515.733 657.471 498.917 659.202C494.772 659.629 484.278 660.274 475.596 660.636C454.339 661.522 455.648 661.035 449.573 670.325C446.098 675.64 442.652 679.426 438.996 681.946C435.617 684.274 435.112 684.019 438.197 681.542C440.768 679.479 445.328 674.486 445.601 673.437C445.681 673.128 446.293 672.227 446.96 671.434C448.315 669.825 450.569 665.155 450.569 663.957C450.569 663.53 450.767 663.362 451.01 663.584C451.253 663.805 451.385 663.73 451.303 663.417C450.601 660.714 453.996 660.076 475.312 658.91C484.702 658.396 493.708 657.354 499.202 656.148C501.783 655.582 506.049 654.861 508.681 654.546C511.314 654.231 513.543 653.795 513.634 653.577C513.908 652.925 519.956 653.128 521.068 653.826Z" fill="#333335"/>
<path d="M492 103H451C450.448 103 450 103.448 450 104V481C450 481.552 450.448 482 451 482H492C492.552 482 493 481.552 493 481V104C493 103.448 492.552 103 492 103Z" fill="#333335"/>
<path fill-rule="evenodd" clip-rule="evenodd" d="M455 46.588C417.79 48.563 361.873 59.462 313.728 74.123C296.665 79.32 296.433 79.3 272.964 70.683C259.411 65.707 241.735 61.241 222 57.806C210.351 55.778 180.372 56.119 170.5 58.392C150.579 62.979 140.83 68.644 123.497 85.702C91.3989 117.294 81.2912 148.248 80.4612 217.5C80.0892 248.5 80.0892 248.5 74.7002 259.5C68.0772 273.021 66.7212 276.814 63.9762 289.5C62.7862 295 59.7772 306.25 57.2902 314.5C49.7852 339.397 38.2692 385.669 36.1362 399.5C35.0332 406.65 33.2182 417.9 32.1032 424.5C23.0812 477.893 27.4382 562.405 42.0792 618C58.2962 679.58 73.2402 709.692 119.379 773.758C162.052 833.013 162.004 832.924 172.505 870.5C178.735 892.796 191.524 913.157 202.947 918.968C224.408 929.885 276.855 932.221 303 923.424C313.244 919.977 329.506 912.608 330.532 910.948C330.814 910.491 332.965 909.159 335.312 907.987C340.074 905.608 348 898.704 348 896.933C348 896.302 348.698 896.054 349.552 896.382C350.406 896.709 350.87 896.598 350.583 896.135C348.113 892.138 360.051 891.196 435 889.471C468.132 888.709 499.737 887.169 519 885.38C535.303 883.865 554.89 882.55 578.779 881.365C586.283 880.993 592.701 881.171 595.279 881.822C597.601 882.408 600.75 883.149 602.279 883.47C604.173 883.867 605.585 885.158 606.714 887.526C607.625 889.437 608.737 891 609.185 891C609.633 891 610 892.125 610 893.5C610 895.056 610.567 896 611.5 896C612.325 896 613.016 896.563 613.037 897.25C613.077 898.638 620.42 903.577 625.031 905.318C626.664 905.934 628 906.907 628 907.479C628 909.122 631.534 910.905 636.206 911.618C638.568 911.978 640.95 912.601 641.5 913.001C642.564 913.776 644.887 914.156 662.962 916.508C695.423 920.733 725.292 915.714 740.5 903.479C757.412 889.874 760.16 884.043 781.496 816.5C787.075 798.84 789.278 793.975 803.005 769C819.578 738.847 835.484 702.925 844.185 676C847.473 665.825 851.21 655.025 852.489 652C859.337 635.807 870.63 599.625 872.464 588C872.855 585.525 874.002 580.125 875.014 576C876.025 571.875 877.143 565.8 877.498 562.5C877.853 559.2 878.752 552 879.495 546.5C888.84 477.395 874.159 380.372 845.377 321.027C835.063 299.76 834.884 298.16 840.398 276.435C855.545 216.753 858.635 181.706 851.897 146C842.56 96.521 805.18 62.589 758.5 61.218C736.747 60.579 726.382 62.803 696.5 74.52C663.682 87.389 657.126 87.422 623.333 74.887C564.986 53.244 508.504 43.749 455 46.588ZM462.384 87.052C465.581 88.466 468.961 89.072 473.261 89.001C487.444 88.768 492.869 90.968 493.447 97.186C493.861 101.645 491.838 102.779 481.376 103.952C456.931 106.694 441.168 98.405 452.08 88.547C456.689 84.382 456.433 84.419 462.384 87.052ZM401.652 374.606C413.311 384.043 415.386 395.129 407.193 404.216C396.128 416.49 377.282 413.869 370.885 399.167C363.153 381.395 386.758 362.551 401.652 374.606ZM586.789 379.849C604.604 392.535 599.853 416.286 579.5 416.286C558.704 416.286 550.307 388.177 568.359 378.995C573.814 376.22 582.241 376.611 586.789 379.849ZM534.096 624.049C545.23 629.729 549.396 642.017 543.159 650.777C533.075 664.939 512.703 664.139 505.378 649.295C497.129 632.579 516.844 615.248 534.096 624.049ZM404.143 628.023C412.056 630.221 420.619 641.349 419.695 648.234C417.566 664.112 396.663 670.384 385.111 658.613C372.089 645.345 386.002 622.984 404.143 628.023Z" fill="#F7CED1"/>
<path fill-rule="evenodd" clip-rule="evenodd" d="M449.129 58.8093C446.202 64.4493 445.624 98.8273 448.404 101.897C450.308 103.999 450.307 104 446.56 104C443.606 104 442.697 104.44 442.268 106.078C441.678 108.336 443.012 108.335 424.999 106.091C421.424 105.646 413.999 105.418 408.499 105.585C402.999 105.753 394.795 105.944 390.268 106.01C385.74 106.077 381.813 106.492 381.54 106.934C381.267 107.375 378.802 108.034 376.063 108.397C373.323 108.761 370.811 109.495 370.481 110.029C370.151 110.563 368.208 111 366.162 111C364.117 111 361.443 111.701 360.22 112.558C358.996 113.415 357.583 113.861 357.078 113.549C356.573 113.237 355.453 113.688 354.59 114.552C353.726 115.416 352.002 116.181 350.759 116.252C349.516 116.323 347.426 117.195 346.114 118.19C344.802 119.186 342.951 120 341.999 120C341.047 120 339.125 120.9 337.726 122C331.683 126.753 321.676 123.375 295.771 107.835C290.42 104.626 285.828 102 285.565 102C285.303 102 283.38 100.834 281.293 99.4093C274.677 94.8923 243.905 80.3063 233.094 76.5623C170.825 55.0013 122.701 70.0103 98.177 118.641C78.5607 157.541 74.1627 232.008 88.5617 281.432C90.698 288.763 89.9157 296.437 87.6367 290.5C86.1177 286.539 78.6907 297.715 75.5137 308.744C75.1587 309.978 74.3347 311.571 73.6827 312.283C71.9987 314.123 69.9987 317.786 69.9987 319.028C69.9987 319.609 69.0987 321.05 67.9987 322.23C66.8987 323.411 65.9987 325.166 65.9987 326.13C65.9987 327.093 65.5907 328.134 65.0927 328.442C64.5937 328.75 63.8687 331.364 63.4807 334.251C63.0927 337.138 62.4367 339.95 62.0247 340.5C61.6117 341.05 60.9527 342.85 60.5587 344.5C60.1647 346.15 59.1487 348.271 58.2997 349.213C57.4507 350.155 57.0217 351.617 57.3457 352.463C57.6707 353.308 57.6127 354.003 57.2177 354.007C55.0427 354.028 51.9647 360.999 51.8857 366.083C51.8367 369.192 51.0767 372.778 50.1007 374.5C49.1647 376.15 47.6107 380.65 46.6467 384.5C44.2537 394.053 42.9167 399.038 41.9537 402C39.7637 408.733 35.9847 431.722 35.4227 441.733C35.1987 445.711 34.5697 450.886 34.0237 453.233C30.8877 466.712 30.5077 534.097 33.4367 557.5C33.6427 559.15 34.3247 565.675 34.9507 572C36.3247 585.88 37.0327 589.771 42.0447 611C44.1877 620.075 46.7107 631.1 47.6527 635.5C48.5937 639.9 49.7117 643.739 50.1377 644.032C50.5627 644.324 51.5657 647.024 52.3677 650.032C53.1687 653.039 55.2487 658.65 56.9897 662.5C58.7307 666.35 60.9597 671.3 61.9427 673.5C62.9257 675.7 64.9157 680.1 66.3647 683.277C67.8137 686.455 68.9987 690.344 68.9987 691.92C68.9987 693.628 69.6467 695.035 70.6027 695.401C71.5177 695.753 71.9607 696.657 71.6337 697.508C71.3187 698.329 71.5237 699 72.0887 699C72.6547 699 72.8547 699.423 72.5357 699.94C72.2157 700.458 72.8037 701.695 73.8407 702.69C76.3047 705.054 78.2337 708.811 77.5507 709.916C77.2537 710.397 77.7297 711.066 78.6077 711.404C79.5197 711.753 79.9597 712.658 79.6337 713.508C79.3187 714.329 79.4977 715 80.0297 715C80.5627 715 80.9987 715.643 80.9987 716.429C80.9987 717.214 81.5937 718.452 82.3197 719.179C83.0467 719.905 83.7797 720.95 83.9477 721.5C84.8207 724.356 85.3087 724.931 86.3537 724.334C86.9837 723.974 87.1787 724.034 86.7887 724.466C85.7497 725.618 88.8017 731 90.493 731C91.287 731 91.724 731.563 91.465 732.25C90.892 733.77 98.382 745.284 99.328 744.338C99.697 743.969 99.999 744.589 99.999 745.716C99.999 746.843 101.911 749.725 104.249 752.122C106.587 754.518 107.599 755.816 106.499 755.007C104.029 753.189 107.279 757.503 109.999 759.653C110.824 760.305 111.51 761.438 111.523 762.169C111.536 762.901 112.324 763.438 113.273 763.361C114.222 763.285 114.999 763.874 114.999 764.67C114.999 765.471 114.506 765.813 113.895 765.436C113.288 765.061 113.547 765.907 114.471 767.317C115.548 768.961 116.75 769.688 117.824 769.345C118.991 768.973 119.125 769.082 118.264 769.705C116.812 770.757 119.499 775.427 121.017 774.489C121.989 773.888 124.24 777.426 123.412 778.254C123.128 778.538 126.856 784.255 131.697 790.958C160.289 830.548 162.595 835.045 172.504 870.5C178.734 892.796 191.523 913.157 202.946 918.968C224.407 929.885 276.854 932.221 302.999 923.424C313.243 919.977 329.505 912.608 330.531 910.948C330.813 910.491 332.964 909.159 335.311 907.987C340.073 905.608 347.999 898.704 347.999 896.933C347.999 896.302 348.697 896.054 349.551 896.382C350.405 896.709 350.869 896.598 350.582 896.135C348.112 892.138 360.05 891.196 434.999 889.471C468.131 888.709 499.736 887.169 518.999 885.38C535.302 883.865 554.889 882.55 578.778 881.365C586.282 880.993 592.7 881.171 595.278 881.822C597.6 882.408 600.749 883.149 602.278 883.47C604.172 883.867 605.584 885.158 606.713 887.526C607.624 889.437 608.736 891 609.184 891C609.632 891 609.999 892.125 609.999 893.5C609.999 895.056 610.566 896 611.499 896C612.324 896 613.015 896.563 613.036 897.25C613.076 898.638 620.419 903.577 625.03 905.318C626.663 905.934 627.999 906.907 627.999 907.479C627.999 909.122 631.533 910.905 636.205 911.618C638.567 911.978 640.949 912.601 641.499 913.001C642.563 913.776 644.886 914.156 662.961 916.508C695.422 920.733 725.291 915.714 740.499 903.479C757.411 889.874 760.159 884.043 781.495 816.5C787.074 798.84 789.277 793.975 803.004 769C821.679 735.021 850.893 665.904 849.851 658.162C849.802 657.798 849.841 657.275 849.938 657C850.035 656.725 850.299 654.925 850.526 653C851.205 647.218 851.673 645.716 854.394 640.601C855.827 637.907 856.999 634.673 856.999 633.416C856.999 632.159 857.425 630.011 857.945 628.643C858.465 627.275 859.131 624.433 859.424 622.328C860.12 617.339 866.289 594.062 868.256 589C875.428 570.548 877.373 549.674 876.503 500.5C875.617 450.445 875.373 444.325 873.991 437.5C873.322 434.2 872.57 430.15 872.319 428.5C872.068 426.85 871.475 424.6 871 423.5C870.526 422.4 869.896 419.25 869.6 416.5C869.054 411.42 867.872 405.121 865.941 397C865.353 394.525 864.477 390.025 863.994 387C863.511 383.975 861.928 377.45 860.475 372.5C859.022 367.55 857.476 362.15 857.038 360.5C856.041 356.739 848.102 332.198 847.01 329.5C846.565 328.4 845.621 325.925 844.911 324C844.202 322.075 842.474 318.7 841.07 316.5C839.667 314.3 837.597 310.383 836.471 307.795C834.539 303.356 834.351 303.206 833.142 305.143C830.092 310.027 830.831 305.957 837.208 282.764C837.808 280.581 838.672 279.298 839.287 279.678C839.936 280.079 840.099 279.703 839.713 278.696C839.368 277.798 839.518 276.797 840.046 276.471C840.574 276.144 840.714 274.713 840.357 273.29C839.89 271.43 840.041 270.908 840.893 271.435C841.749 271.964 841.906 271.379 841.458 269.334C840.967 267.093 841.073 266.814 841.963 268C842.915 269.269 843.058 269.193 842.89 267.5C842.781 266.4 842.975 264.825 843.32 264C844.087 262.171 847.274 247.76 850.574 231.199C858.939 189.226 855.593 143.001 842.276 116.557C826.619 85.4663 790.491 59.4953 768.118 63.2483C763.321 64.0523 761.265 64.0223 759.831 63.1273C758.195 62.1053 757.557 62.3713 755.348 64.9973C753.354 67.3673 752.469 67.8053 751.427 66.9403C749.925 65.6943 743.999 66.6033 743.999 68.0793C743.999 68.5863 741.722 69.0003 738.94 69.0003C736.158 69.0003 734.089 69.3383 734.344 69.7503C734.599 70.1633 733.613 70.5703 732.153 70.6553C719.967 71.3663 711.081 72.2923 711.188 72.8413C711.635 75.1323 709.481 77.0003 706.392 77.0003C704.526 77.0003 702.999 77.3403 702.999 77.7563C702.999 78.1723 701.615 79.1253 699.922 79.8743C696.639 81.3273 694.868 84.1233 696.819 84.7733C699.677 85.7263 697.583 86.8223 693.064 86.7393C688.723 86.6603 687.641 87.0913 684.062 90.3243C681.009 93.0823 679.12 94.0003 676.496 94.0003C674.573 94.0003 672.999 94.4503 672.999 95.0003C672.999 95.5503 672.324 96.0003 671.499 96.0003C670.674 96.0003 669.999 96.7653 669.999 97.7003C669.999 99.0223 669.732 99.1333 668.799 98.2003C665.826 95.2273 661.999 97.3513 661.999 101.975C661.999 105.569 667.384 105.513 668.528 101.908C669.099 100.109 677.999 98.8603 677.999 100.578C677.999 101.984 669.646 108.993 665.685 110.91C663.288 112.07 660.742 114.111 660.029 115.444C659.315 116.777 657.425 118.41 655.827 119.071C654.23 119.733 652.49 121.082 651.962 122.069C651.433 123.057 650.056 124.164 648.901 124.531C647.746 124.898 646.058 125.835 645.15 126.615C635.094 135.246 628.187 140.753 626.749 141.287C625.787 141.645 624.999 142.91 624.999 144.099C624.999 147.199 631.325 146.095 634.458 142.449C637.777 138.587 640.422 139.468 640.797 144.56C641.022 147.617 640.595 149.055 639.047 150.457C637.921 151.476 636.999 152.893 636.999 153.605C636.999 155.75 634.003 156.755 629.219 156.216C626.375 155.895 624.926 156.072 625.31 156.694C625.646 157.237 624.657 158.616 623.113 159.758C619.685 162.292 616.859 170.677 618.988 171.993C620.421 172.879 619.674 176 618.03 176C617.463 176 616.999 175.012 616.999 173.804C616.999 171.723 616.828 171.769 613.749 174.685C609.579 178.633 602.793 181.883 602.233 180.201C602.012 179.54 601.082 178.996 600.166 178.992C598.674 178.985 595.999 174.969 595.999 172.737C595.999 172.261 597.128 170.664 598.509 169.186C599.889 167.709 602.814 164.587 605.009 162.249C607.203 159.911 608.999 157.548 608.999 156.999C608.999 156.449 610.087 156 611.417 156C614.945 156 616.999 154.996 616.999 153.271C616.999 152.079 616.697 152.006 615.588 152.926C614.575 153.766 613.986 153.787 613.499 153C613.033 152.246 612.435 152.223 611.586 152.928C610.739 153.631 610.011 153.612 609.268 152.869C608.49 152.091 607.879 152.355 607.103 153.806C606.152 155.583 601.807 156.304 600.61 154.884C599.282 153.309 599.216 148 600.524 148C601.335 148 601.999 148.713 601.999 149.583C601.999 150.454 602.562 150.975 603.249 150.741C604.1 150.452 604.394 148.588 604.171 144.905C603.883 140.158 604.159 139.198 606.421 137.073C607.839 135.741 608.999 134.055 608.999 133.326C608.999 132.597 609.449 132 609.999 132C610.549 132 610.999 130.2 610.999 128C610.999 124.701 610.657 124 609.049 124C607.976 124 606.676 123.246 606.16 122.324C605.404 120.971 603.461 120.609 596.117 120.451C591.108 120.343 586.446 119.791 585.755 119.225C585.064 118.659 582.519 117.666 580.099 117.019C577.678 116.371 575.099 115.243 574.366 114.51C573.634 113.777 572.127 113.415 571.018 113.705C569.91 113.995 567.893 113.505 566.536 112.616C565.179 111.727 562.055 111 559.593 111C557.131 111 554.851 110.57 554.527 110.045C554.202 109.519 552.334 109.216 550.376 109.37C547.389 109.605 546.667 109.256 545.884 107.198C545.067 105.05 544.509 104.818 541.382 105.325C538.434 105.804 537.363 105.455 535.23 103.322C533.111 101.203 532.322 100.942 530.837 101.869C528.063 103.601 526.331 103.238 524.152 100.468C522.164 97.9413 522.137 97.9373 510.499 98.6003C498.838 99.2643 498.838 99.2643 499.526 91.3823C500.515 80.0283 497.567 61.5463 494.338 58.8673C491.862 56.8113 450.193 56.7583 449.129 58.8093ZM462.383 87.0523C465.58 88.4663 468.96 89.0723 473.26 89.0013C487.443 88.7683 492.868 90.9683 493.446 97.1863C493.86 101.645 491.837 102.779 481.375 103.952C456.93 106.694 441.167 98.4053 452.079 88.5473C456.688 84.3823 456.432 84.4193 462.383 87.0523ZM740.499 93.0863C743.419 93.1963 743.433 93.2193 740.999 93.9433C739.624 94.3523 737.741 94.3073 736.815 93.8433C734.019 92.4443 733.716 92.8323 734.379 96.9723C735.146 101.769 731.445 105.384 727.982 103.222C726.524 102.311 725.649 102.487 723.59 104.107C722.175 105.22 720.561 105.847 720.002 105.502C717.786 104.133 705.204 104.023 704.688 105.369C704.365 106.209 703.072 106.518 701.092 106.227C699.252 105.957 697.948 106.224 697.874 106.887C697.805 107.499 697.693 108.563 697.624 109.25C697.466 110.834 687.999 111.595 687.999 110.023C687.999 109.426 688.787 108.647 689.749 108.292C690.711 107.937 693.178 106.601 695.229 105.323C697.281 104.045 699.874 103 700.993 103C702.111 103 703.808 102.587 704.763 102.082C707.448 100.662 715.905 97.0033 716.747 96.8973C717.161 96.8453 718.218 96.4183 719.096 95.9483C720.074 95.4253 721.135 95.5363 721.833 96.2343C722.686 97.0873 723.542 96.8443 725.236 95.2673C727.551 93.1123 731.931 91.9803 735.499 92.6163C736.599 92.8123 738.849 93.0243 740.499 93.0863ZM671.999 120.943C671.999 122.465 667.754 125 665.205 125C663.117 125 663.023 124.833 664.356 123.5C665.181 122.675 666.563 122 667.428 122C668.292 122 668.999 121.55 668.999 121C668.999 120.45 669.674 120 670.499 120C671.324 120 671.999 120.424 671.999 120.943ZM663.23 130.177C666.714 132.839 661.037 135.857 653.749 135.216C647.87 134.699 647.158 132.273 652.749 131.81C654.812 131.64 656.506 131.05 656.514 130.5C656.57 126.873 658.77 126.767 663.23 130.177ZM647.999 140.809C647.999 143.667 644.999 145.5 643.499 143.559C641.319 140.738 641.63 140 644.999 140C646.649 140 647.999 140.364 647.999 140.809ZM619.749 147.689C616.707 148.484 617.855 150 621.499 150C625.121 150 626.187 148.67 623.417 147.607C622.547 147.273 621.76 147.052 621.667 147.116C621.575 147.18 620.711 147.438 619.749 147.689ZM401.651 374.606C413.31 384.043 415.385 395.129 407.192 404.216C396.127 416.49 377.281 413.869 370.884 399.167C363.152 381.395 386.757 362.551 401.651 374.606ZM586.788 379.849C604.603 392.535 599.852 416.286 579.499 416.286C558.703 416.286 550.306 388.177 568.358 378.995C573.813 376.22 582.24 376.611 586.788 379.849ZM420.573 503.25C420.991 503.663 423.282 504 425.666 504C429.952 504 431.939 506.683 428.999 508.5C428.449 508.84 427.999 509.991 427.999 511.059C427.999 512.611 427.297 513 424.499 513C421.22 513 420.998 513.205 420.984 516.25C420.959 521.385 419.803 522.42 416.764 520.03C413.264 517.276 411.999 517.478 411.999 520.789C411.999 522.322 411.114 525.314 410.031 527.436C408.949 529.559 408.274 531.635 408.53 532.05C408.786 532.465 406.297 533.117 402.997 533.5C399.698 533.883 396.999 534.602 396.999 535.098C396.999 535.594 396.099 536 394.999 536C393.899 536 392.999 535.55 392.999 535C392.999 534.45 392.099 534 390.999 534C389.899 534 388.999 533.554 388.999 533.009C388.999 532.437 385.941 532.063 381.749 532.125C368.725 532.315 364.853 532.045 365.503 530.993C365.846 530.439 365.451 529.727 364.626 529.41C361.189 528.091 364.243 526 369.606 526C373.387 526 374.924 525.626 374.749 524.75C374.599 524.002 375.803 523.374 377.749 523.187C379.537 523.014 380.999 522.452 380.999 521.937C380.999 521.421 382.317 521 383.928 521C385.538 521 387.531 520.325 388.356 519.5C389.181 518.675 390.226 518 390.678 517.999C391.858 517.997 401.999 508.112 401.999 506.963C401.999 506.433 401.254 506 400.344 506C398.829 506 398.823 505.852 400.279 504.25C401.948 502.413 418.882 501.579 420.573 503.25ZM395.999 506.5C395.999 507.433 395.055 508 393.499 508C391.071 508 390.306 507.026 391.666 505.667C392.924 504.409 395.999 505 395.999 506.5ZM363.925 532.411C365.31 534.079 363.747 535.501 361.483 534.632C360.702 534.333 359.795 534.521 359.467 535.051C359.117 535.618 358.28 535.424 357.435 534.579C355.495 532.639 355.615 532.213 358.249 531.706C362.291 530.927 362.74 530.983 363.925 532.411ZM534.095 624.049C545.229 629.729 549.395 642.017 543.158 650.777C533.074 664.939 512.702 664.139 505.377 649.295C497.128 632.579 516.843 615.248 534.095 624.049ZM404.142 628.023C412.055 630.221 420.618 641.349 419.694 648.234C417.565 664.112 396.662 670.384 385.11 658.613C372.088 645.345 386.001 622.984 404.142 628.023Z" fill="#F4A7AA" />
<path fill-rule="evenodd" clip-rule="evenodd" d="M450.583 59.8645C447.887 64.2265 446.115 95.9995 448.375 99.4495C452.398 105.589 481.756 107.531 492.618 102.377C498.993 99.3515 500.758 88.9605 497.505 73.6085C495.288 63.1405 494.229 61.9995 486.727 61.9985C480.419 61.9975 461.537 60.4755 454.853 59.4295C452.831 59.1125 450.928 59.3065 450.583 59.8645ZM184.5 76.0665C180.1 76.3775 177.287 76.7155 178.25 76.8165C179.213 76.9165 180 77.4495 180 77.9995C180 78.5495 180.338 78.9465 180.75 78.8815C181.162 78.8155 182.175 78.8285 183 78.9075C184.897 79.0915 174.327 88.9995 172.234 88.9995C171.41 88.9995 169.22 89.9365 167.366 91.0825C165.513 92.2275 163.463 92.9875 162.811 92.7695C162.159 92.5525 160.842 93.0775 159.884 93.9375C156.153 97.2865 155.071 97.8805 148.199 100.36C141.672 102.715 139.087 103.85 135 106.158C134.175 106.624 132.426 107.466 131.112 108.03C129.799 108.594 127.774 109.915 126.612 110.966C125.451 112.017 122.841 114.367 120.813 116.189C116.243 120.292 112.962 128.197 111.967 137.5C110.995 146.594 110.568 148.311 109.163 148.779C108.523 148.992 107.997 149.692 107.994 150.333C107.99 150.975 107.335 152.751 106.537 154.281C105.739 155.81 105.325 157.682 105.616 158.441C105.907 159.199 105.461 161.141 104.626 162.757C103.791 164.372 103.334 166.561 103.611 167.621C103.888 168.682 103.417 170.888 102.564 172.525C101.711 174.161 101.01 176.11 101.006 176.856C101.003 177.601 99.827 179.605 98.394 181.308C96.094 184.042 95.838 185.082 96.208 190.202C96.596 195.567 95.864 197.718 94.659 194.75C93.82 192.682 92.033 196.062 92.015 199.75C92.007 201.537 91.599 203 91.109 203C88.0593 203 88.7543 247.943 91.921 255.5C92.613 257.15 93.399 260.075 93.668 262C93.936 263.925 94.387 266.625 94.668 268C94.95 269.375 95.119 272.863 95.043 275.75C94.917 280.592 95.124 281.097 97.703 282.25C99.241 282.938 101.804 284.737 103.398 286.25C105.333 288.086 107.372 289 109.532 289C112.032 289 112.91 289.511 113.4 291.25C114.406 294.826 117.31 290.525 116.607 286.5C114.783 276.051 113.973 272.728 111.64 266.127C110.208 262.072 108.872 257.797 108.671 256.627C108.471 255.457 108.05 253.825 107.734 253C107.419 252.175 106.618 247.12 105.954 241.768C105.248 236.069 104.178 231.563 103.374 230.895C101.373 229.235 101.446 216.333 103.456 216.333C104.257 216.333 104.678 216.712 104.393 217.174C104.107 217.636 104.536 218.268 105.345 218.579C106.155 218.89 107.394 220.574 108.1 222.322C108.805 224.07 109.971 225.86 110.691 226.3C111.581 226.843 112 229.485 112 234.55C112 240.11 112.34 242 113.34 242C114.077 242 115.274 243.8 116 246C116.904 248.739 117.9 250 119.16 250C120.64 250 121 250.783 121 254C121 256.279 120.519 258 119.883 258C119.187 258 119.027 258.847 119.459 260.25C120.289 262.949 122.02 270.525 122.601 274C122.831 275.375 123.086 279.425 123.169 283C123.251 286.575 123.754 289.787 124.285 290.137C124.817 290.487 125.308 292.512 125.376 294.637C125.557 300.262 132 301.42 132 295.827C132 294.896 132.913 293.845 134.03 293.491C136.799 292.612 147.205 283.408 148.764 280.459C151.73 274.849 158.13 272.686 164.959 274.986C168.337 276.124 171.593 276.751 172.195 276.38C173.758 275.414 178.926 275.698 180.319 276.826C181.674 277.924 192 277.151 192 275.952C192 275.516 193.463 274.846 195.25 274.464C199.533 273.548 201.173 272.121 200.475 269.92C199.732 267.581 202.159 266.309 209.077 265.41C214.808 264.665 215.96 263.823 215.985 260.359C215.997 258.661 216.724 258.134 219.5 257.81C222.355 257.477 223 257.733 223 259.201C223 262.092 225.684 261.28 228.551 257.523C231.47 253.696 236.044 251 239.618 251C240.906 251 242.404 250.114 243 249C243.589 247.9 244.73 247 245.535 247C246.42 247 247 246.037 247 244.567C247 242.99 247.724 241.905 249.057 241.482C250.189 241.123 251.545 239.697 252.071 238.313C252.746 236.538 253.515 235.984 254.682 236.431C255.767 236.848 257.484 235.954 259.668 233.837C262.319 231.267 263 230.971 263 232.387C263 234.151 265.434 234.179 265.571 232.417C265.824 229.177 273 221.001 273 223.953C273 224.529 273.466 225 274.035 225C274.749 225 274.749 224.399 274.035 223.066C273.466 222.002 273 220.652 273 220.066C273 218.593 276.739 218.718 277.236 220.207C277.931 222.293 281.704 217.823 282.878 213.522C284.191 208.715 282.576 203 279.906 203C278.975 203 277.941 202.288 277.607 201.418C276.719 199.103 276.788 199.001 279.25 198.99C282.396 198.977 291.575 194.549 292.283 192.704C292.693 191.637 294.773 191.03 299.185 190.69C305.435 190.209 314.499 188.661 317.795 187.512C318.733 187.185 320.85 185.199 322.5 183.099C324.15 180.998 326.363 178.879 327.418 178.39C328.473 177.9 329.823 176.602 330.418 175.504C331.013 174.406 332.807 171.778 334.405 169.664C337.594 165.445 339.397 156 337.014 156C336.205 156 335.926 154.959 336.212 153.01C336.849 148.67 333.619 146.003 327.141 145.521C319.389 144.944 318 144.273 318 141.103C318 138.885 317.559 138.357 315.758 138.421C313.975 138.484 313.324 137.732 312.582 134.75C311.82 131.693 309.702 129.114 310.118 131.75C310.526 134.333 309.682 135 306 135C303.111 135 302 134.583 302 133.5C302 132.675 301.17 132 300.155 132C299.14 132 297.495 131.1 296.5 130C295.505 128.9 294.133 128 293.452 128C291.802 128 290.648 124.836 291.995 124.003C292.602 123.628 291.925 122.831 290.412 122.142C288.179 121.124 287.575 121.199 286.536 122.619C285.207 124.438 279 119.331 279 116.418C279 115.711 277.762 114.99 276.25 114.816C274.415 114.605 273.584 113.979 273.751 112.935C274.01 111.325 266.56 107.373 258.5 104.845C256.3 104.155 253.571 102.783 252.436 101.795C251.3 100.808 249.772 99.9995 249.039 99.9995C248.307 99.9995 245.628 98.0865 243.086 95.7495C234.523 87.8755 229.746 83.9995 228.605 83.9995C227.981 83.9995 225.851 83.1315 223.871 82.0705C221.891 81.0095 218.523 79.8255 216.386 79.4395C214.249 79.0545 212.05 78.4315 211.5 78.0555C210.95 77.6795 208.9 77.2615 206.945 77.1255C204.989 76.9905 200.939 76.5695 197.945 76.1895C194.95 75.8105 188.9 75.7545 184.5 76.0665ZM462.384 87.0515C465.581 88.4655 468.961 89.0715 473.261 89.0005C487.444 88.7675 492.869 90.9675 493.447 97.1855C493.861 101.645 491.838 102.779 481.376 103.952C456.931 106.694 441.168 98.4045 452.08 88.5465C456.689 84.3815 456.433 84.4185 462.384 87.0515ZM814.069 94.1295C814.62 95.1575 815.505 95.9995 816.035 95.9995C816.566 95.9995 817 96.6225 817 97.3825C817 98.9945 813.268 100.242 812.442 98.9055C811.686 97.6825 807 97.7465 807 98.9805C807 99.5195 808.212 100.266 809.692 100.638C812.385 101.313 812.385 101.313 810.078 102.167C808.263 102.838 808.015 103.313 808.911 104.393C809.785 105.445 809.702 105.9 808.558 106.34C807.736 106.655 806.798 106.482 806.473 105.956C805.086 103.712 799.241 104.903 798.573 107.567C797.939 110.093 797.902 110.103 796.214 108.172C792.907 104.388 789.234 104.503 787.589 108.442C786.009 112.222 786.56 112.154 776.204 109.843C773.292 109.193 770.678 108.288 770.395 107.831C769.664 106.648 758.243 106.798 757.5 108C757.16 108.55 755.446 109.02 753.691 109.044C751.936 109.068 748.7 109.785 746.5 110.637C736.477 114.518 731.465 115.991 728.934 115.798C727.43 115.684 725.592 116.094 724.85 116.71C724.107 117.326 720.575 118.792 717 119.968C713.425 121.144 709.719 122.533 708.764 123.053C707.809 123.574 706.346 124 705.514 124C704.681 124 704 124.347 704 124.771C704 125.195 701.876 126.657 699.28 128.021C696.684 129.384 693.674 131.287 692.591 132.25C691.509 133.213 690.049 134 689.347 134C688.645 134 687.589 134.9 687 136C686.411 137.1 685.13 138 684.153 138C683.176 138 681.299 139.005 679.981 140.232C678.663 141.46 677.063 142.473 676.425 142.482C675.788 142.492 673.414 144.075 671.15 146C668.886 147.925 666.79 149.375 666.492 149.223C666.193 149.071 664.498 150.306 662.725 151.968C660.951 153.631 658.938 154.993 658.25 154.995C657.563 154.998 657 155.45 657 156C657 156.55 656.403 157 655.674 157C654.945 157 653.292 158.125 652 159.5C650.708 160.875 649.35 162 648.982 162C648.613 162 644.079 166.076 638.906 171.058C633.733 176.04 627.525 181.552 625.112 183.308C614.024 191.373 611.688 195.062 615 199.273C616.1 200.671 617 202.297 617 202.885C617 203.473 618.125 204.691 619.5 205.592C622.231 207.382 622.9 211 620.5 211C619.675 211 619 210.325 619 209.5C619 208.675 618.498 208 617.883 208C617.259 208 616.997 208.882 617.29 210C617.577 211.1 617.504 212 617.126 212C613.922 212 614.515 217.877 617.883 219.504C621.5 221.252 621.5 221.252 619 222.358C615.138 224.067 613.737 225.685 615.526 226.371C616.337 226.683 617 226.426 617 225.802C617 225.178 617.258 224.925 617.574 225.24C618.248 225.915 615.464 231.595 614.023 232.486C613.477 232.823 612.172 231.686 611.121 229.959C609.212 226.819 609.212 226.819 609.438 232.16C609.734 239.116 611.604 243 614.661 243C616.668 243 617 243.497 617 246.5C617 250.153 610.912 252.031 609.708 248.75C609.37 247.827 608.939 247.792 608.061 248.614C607.144 249.474 607.172 250.055 608.186 251.153C611.158 254.374 612.657 258 611.018 258C605.196 258 597.828 273.358 603 274.71C605.314 275.315 605.743 279 603.5 279C602.603 279 602 279.921 602 281.289C602 283.13 601.461 283.571 599.25 283.539C597.154 283.509 596.5 283.975 596.5 285.5C596.5 286.938 597.272 287.589 599.25 287.816C601.553 288.081 602 288.61 602 291.066C602 294.469 599.496 295.137 598.5 292C597.652 289.33 594 289.33 594 292C594 293.667 593.333 294 590 294C587.195 294 586 294.428 586 295.433C586 296.221 585.1 297.151 584 297.5C582.512 297.972 582 299.013 582 301.567C582 304.333 582.388 305 584 305C585.704 305 586 305.667 586 309.5C586 313.947 585.96 314 582.617 314C580.1 314 579.102 314.501 578.722 315.956C578.278 317.652 577.175 317.951 570.435 318.206C563.124 318.482 557.7 321 564.417 321C567.696 321 567.736 322.344 564.5 323.818C563.033 324.486 562 325.793 562 326.979C562 328.09 561.55 329 561 329C560.45 329 560 327.2 560 325C560 321.426 559.74 321 557.56 321C555.473 321 555.076 320.469 554.81 317.327C554.365 312.052 552 311.706 552 316.917C552 319.163 552.45 321 553 321C553.55 321 554 322.8 554 325C554 328.91 553.921 329 550.475 329C547.608 329 546.768 329.481 545.971 331.575C544.314 335.934 542.496 336.989 536.321 337.175C531.341 337.324 531.114 337.405 534.75 337.732C541.124 338.306 541.351 344 535 344C531 344 531 344 531 348.071C531 350.357 530.342 352.801 529.5 353.643C528.675 354.468 528 355.984 528 357.012C528 359.192 525.802 360.907 525.226 359.177C524.64 357.421 523 357.756 523 359.632C523 360.958 522.252 361.163 519 360.727C515 360.19 515 360.19 515 364.702C515 368.419 515.281 369.106 516.593 368.603C522.99 366.148 524.341 367.121 523.316 373.442C522.79 376.681 522.443 377 519.451 377C514.202 377 513 376.141 513 372.393C513 370.044 512.539 369 511.5 369C510.452 369 510 370.056 510 372.5C510 374.944 509.548 376 508.5 376C507.417 376 507 374.889 507 372C507 368 507 368 503 368C500.8 368 499 367.655 499 367.233C499 366.811 497.2 366.419 495 366.361C492.226 366.289 491 366.677 491 367.628C491 368.383 490.55 369 490 369C489.45 369 489 370.498 489 372.33C489 375.66 489 375.66 497.75 375.463C502.563 375.355 505.823 375.443 504.995 375.659C503.872 375.953 503.578 377.165 503.838 380.433C504.541 389.267 492.089 393.211 491 384.5C490.684 381.97 490.203 380.959 489.691 381.75C489.246 382.438 487.853 383 486.596 383C483.657 383 480.6 386.363 481.257 388.873C481.867 391.207 475.126 392.376 471.154 390.625C469.272 389.796 468.62 389.928 467.854 391.296C467.33 392.233 466.473 393 465.95 393C464.415 393 464.862 390.267 466.5 389.638C468.656 388.811 468.347 387.193 465.96 386.82C463.321 386.406 463.321 384.594 465.96 384.18C467.082 384.005 468 384.342 468 384.93C468 386.322 471.287 386.313 472.682 384.918C473.458 384.142 474.326 384.186 475.75 385.076C477.005 385.86 478.428 386 479.618 385.457C481.192 384.738 480.969 384.538 478.25 384.235C475.301 383.907 475 383.563 475 380.516C475 377.599 474.607 377.073 472 376.5C470.195 376.104 468.96 375.175 468.9 374.171C468.844 373.23 468.499 373.592 468.111 375C467.557 377.007 466.69 377.561 463.711 377.81C458.726 378.227 458.961 380 464 380C466.889 380 468 380.417 468 381.5C468 382.583 466.889 383 464 383C461.8 383 460 383.45 460 384C460 384.55 458.2 385 456 385C453.111 385 452 384.583 452 383.5C452 382.417 450.889 382 448 382C444.192 382 444 382.149 444 385.107C444 387.68 443.699 388.087 442.25 387.478C437.475 385.471 435.814 385.646 436.163 388.117C436.505 390.531 437.436 390.753 441.75 389.447C443.436 388.937 444 389.172 444 390.383C444 391.611 443.007 392 439.872 392C435.743 392 435.743 392 436.206 400C436.669 408 436.669 408 433.035 408C431.036 408 428.931 408.469 428.357 409.043C427.783 409.617 424.526 410.163 421.118 410.258C414.487 410.442 412.628 411.557 411.548 416C410.64 419.732 415.505 421.909 418.226 418.988C419.249 417.89 419.954 416.206 419.793 415.246C419.558 413.845 420.356 413.438 423.828 413.189C429.317 412.794 429.666 416.546 424.356 418.885C421.837 419.995 421.09 421.037 420.594 424.135C420.086 427.316 419.571 428 417.688 428C416.43 428 414.86 428.54 414.2 429.2C413.267 430.133 413 430.117 413 429.129C413 428.429 412.325 427.182 411.5 426.357C410.675 425.532 410 423.764 410 422.429C410 420.535 409.474 420 407.611 420C405.13 420 403.025 425.613 404.569 428.112C405.749 430.02 402.838 434 400.264 434C398.439 434 397.995 433.582 398.41 432.25C399.159 429.841 397.541 427.578 395.601 428.323C393.576 429.1 393.497 432 395.5 432C396.333 432 397 432.889 397 434C397 435.667 396.333 436 393 436C390.111 436 389 436.417 389 437.5C389 438.333 388.111 439 387 439C385.333 439 385 439.667 385 443C385 446.333 384.667 447 383 447C381.73 447 381 446.333 381 445.173C381 443.044 375.266 443.26 373.5 445.456C371.477 447.971 366.186 447.879 365.544 445.318C364.537 441.308 357 442.423 357 446.582C357 446.812 357.873 447 358.941 447C362.299 447 362.051 448.605 358.426 450.334C356.508 451.249 354.679 452.673 354.362 453.499C353.371 456.082 352.326 455.138 352.777 452.066C353.155 449.492 352.95 449.2 351.104 449.683C348.916 450.255 348.685 451.24 348.983 458.75C349.192 464.045 343.844 465.351 341.985 460.46C340.923 457.666 337 458.512 337 461.535C337 462.341 336.325 463 335.5 463C334.452 463 334 464.056 334 466.5C334 469.684 333.742 470 331.14 470C329.566 470 326.191 470.286 323.64 470.636C319 471.272 319 471.272 319 467.136C319 464.126 319.408 463 320.5 463C321.583 463 322 461.889 322 459C322 455.667 321.667 455 320 455C318.9 455 318 454.546 318 453.992C318 453.394 317.186 453.492 316 454.232C314.9 454.919 313.997 455.935 313.994 456.491C313.99 457.046 313.355 458.713 312.581 460.196C311.562 462.149 311.492 462.997 312.328 463.276C313.088 463.529 312.887 464.256 311.741 465.402C309.848 467.295 309.685 468.016 310.607 470.418C310.995 471.431 312.435 472 314.607 472C317.71 472 318 472.256 318 475C318 477.733 317.704 478 314.667 478C310.524 478 309.505 478.911 311.766 480.593C313.105 481.589 313.257 482.279 312.433 483.625C310.879 486.161 307.849 487.788 307.327 486.365C306.693 484.638 302.017 487.113 302.008 489.18C302.003 490.129 302.98 491.054 304.25 491.303C306.5 491.746 306.5 491.746 304.25 492.49C303.012 492.899 302 493.518 302.001 493.867C302.003 496.139 294.164 493.962 290.328 490.625C286.115 486.96 286.115 486.96 282.557 490.084C277.592 494.444 278.029 495.173 285.449 494.904C292.768 494.639 295.423 496.009 294.719 499.689C294.476 500.96 294.665 502 295.139 502C296.968 502 295.887 504.901 293.812 505.56C292.241 506.058 291.156 505.676 289.966 504.206C287.353 500.98 282.496 500.861 281.5 504C280.687 506.562 279.38 506.562 278.71 504C278.367 502.687 277.346 502 275.738 502C273.856 502 273.048 501.248 272.247 498.75C271.31 495.829 271.194 496.235 271.102 502.75C271 510 271 510 267.06 510C263.248 510 263.111 509.881 262.81 506.341C262.526 502.984 262.237 502.674 259.325 502.591C255.933 502.494 255 504.334 255 511.125C255 513.813 254.739 514 251 514C247 514 247 514 247 520.059C247 523.844 246.625 525.886 246 525.5C245.45 525.16 245 523.334 245 521.441C245 517.431 241.257 516.553 237.738 519.737C235.916 521.386 235.755 521.386 234.549 519.737C232.989 517.603 230.414 517.479 229.638 519.5C228.894 521.439 226.106 521.439 225.362 519.5C225.045 518.675 223.934 518 222.893 518C220.602 518 220.285 521.512 222.5 522.362C223.325 522.678 224 523.626 224 524.469C224 525.311 223.325 526 222.5 526C221.667 526 221 525.111 221 524C221 522.9 220.55 522 220 522C219.45 522 219 521.311 219 520.469C219 519.626 218.325 518.678 217.5 518.362C216.675 518.045 216 517.159 216 516.393C216 515.627 215.55 515 215 515C213.678 515 213.739 516.039 215.25 519.293C215.938 520.773 217.063 521.988 217.75 521.992C218.438 521.996 219 522.9 219 524C219 526.539 213.552 526.881 212.6 524.401C212.062 522.999 211.712 523.055 209.744 524.863C200.062 533.753 200.203 533.675 193 534.23C188.819 534.553 187.734 538.756 190.435 544.171C192.253 547.814 192.391 549 191 549C190.45 549 190 548.325 190 547.5C190 546.5 189 546 187 546C185 546 184 546.5 184 547.5C184 548.738 182.167 549 173.5 549C163 549 163 549 163 553C163 556.778 162.833 557 160 557C157.238 557 157 556.722 157 553.5C157 550.667 157.381 550 159 550C160.623 550 161 549.333 161 546.461C161 542.646 158.288 543.814 156.661 548.33C156.14 549.775 155.371 550.021 153.001 549.5C150.439 548.938 150 549.137 150 550.862C150 551.973 149.53 553.172 148.956 553.527C147.665 554.325 144.817 552.105 145.57 550.887C145.871 550.399 145.191 550 144.059 550C142.373 550 142 550.633 142 553.5C142 556.635 141.557 557.208 139.362 556.915C138.207 556.76 137.031 559.45 137.015 562.281C137.006 563.949 136.33 565.32 135.326 565.705C131.398 567.213 128 572.935 128 578.047C128 579.943 127.487 581 126.567 581C125.779 581 124.849 581.9 124.5 583C124.151 584.099 123.419 585 122.874 585C122.328 585 122.141 585.419 122.457 585.931C122.774 586.443 122.603 587.127 122.078 587.452C121.553 587.776 120.983 586.344 120.812 584.271C120.505 580.557 120.439 580.503 116.5 580.666C114.3 580.758 113.512 580.614 114.75 580.346C117.766 579.695 117.985 575 115 575C113.9 575 113 575.45 113 576C113 576.549 112.381 577 111.625 577C110.196 577 109 581.159 109 586.125C109 587.706 109.45 589 110 589C110.583 589 111 592.333 111 597C111 601.667 110.583 605 110 605C109.45 605 109 606.799 109 609C109 611.255 108.518 613 107.894 613C107.286 613 108.234 614.349 110 616C113.871 619.616 113.135 619.611 116.942 616.054C120.095 613.109 120.095 613.109 116.548 612.443C112.35 611.654 110.991 606 115 606C116.485 606 117 606.667 117 608.588C117 611.053 117.19 611.143 121 610.5C124.271 609.947 125 610.114 125 611.411C125 612.284 124.268 613 123.374 613C122.292 613 123.025 614.169 125.57 616.5C129.775 620.352 131.391 620.752 133.643 618.5C135.712 616.431 137 616.622 137 619C137 620.667 136.333 621 133 621C129.667 621 129 621.333 129 623C129 624.667 129.667 625 133 625C135.889 625 137 625.417 137 626.5C137 627.333 137.889 628 139 628C140.667 628 141 628.667 141 632C141 635.333 140.667 636 139 636C137.547 636 137 636.667 137 638.44C137 640.536 136.474 640.922 133.25 641.19C130.188 641.443 129.439 641.93 129.168 643.844C128.793 646.495 130.786 652 132.121 652C133.534 652 133.132 655.724 131.548 657.31C130.749 658.107 130.33 658.997 130.617 659.284C130.904 659.57 130.549 660.749 129.829 661.903C128.775 663.589 128.763 664.392 129.768 666C130.508 667.185 130.606 668 130.008 668C129.454 668 129 669.526 129 671.393C129 674.859 127.743 676 123.918 676C122.598 676 121.997 676.702 121.991 678.25C121.987 679.487 121.701 682.846 121.356 685.716C120.729 690.932 120.729 690.932 124.865 691.594C129.299 692.302 131.211 697.938 127.5 699.362C125.429 700.156 125.429 707 127.5 707C128.583 707 129 708.111 129 711C129 715 129 715 133 715C137 715 137 715 137 719C137 722.905 136.917 723 133.5 723C130.269 723 130 723.233 130 726.033C130 728.167 131.038 730.105 133.5 732.567C136.646 735.713 137 736.619 137 741.533C137 745.726 137.35 747 138.5 747C140.209 747 140.673 753.466 139.036 754.477C138.487 754.817 138.809 755.82 139.786 756.815C141.415 758.471 141.532 758.458 142.15 756.53C142.616 755.077 142.829 755.549 142.9 758.19C142.955 760.221 142.521 762.177 141.935 762.539C141.217 762.983 141.334 763.737 142.293 764.849C143.076 765.757 144.195 767.927 144.779 769.669C145.883 772.966 149.289 777 150.969 777C151.501 777 151.661 777.72 151.323 778.601C150.985 779.481 151.163 780.494 151.719 780.851C153.456 781.966 158.802 792.436 158.306 793.749C158.046 794.437 158.546 795.272 159.417 795.606C160.288 795.941 161.036 797.403 161.079 798.857C161.122 800.31 161.388 800.927 161.67 800.226C162.683 797.708 176 819.05 176 823.193C176 823.848 177.737 826.004 179.861 827.984C183.722 831.583 183.722 831.583 182.858 837.542C182.383 840.818 182.275 850.025 182.618 858C182.961 865.974 183.182 872.95 183.111 873.5C182.023 881.856 181.927 888 182.884 888C183.498 888 184 888.62 184 889.378C184 890.135 184.675 891.315 185.5 892C186.325 892.685 187 894.54 187 896.122C187 897.705 187.406 899 187.902 899C188.398 899 189.324 900.237 189.959 901.75C192.079 906.796 194.92 911.375 196.468 912.242C197.311 912.714 198 913.759 198 914.564C198 923.125 246.689 931.164 280 928.104C295.967 926.638 327.439 915.953 330.532 910.948C330.814 910.491 332.965 909.159 335.312 907.987C340.074 905.607 348 898.703 348 896.932C348 896.302 348.698 896.054 349.552 896.382C350.406 896.709 350.87 896.598 350.583 896.135C348.113 892.138 360.051 891.195 435 889.471C468.132 888.708 499.737 887.169 519 885.38C535.303 883.865 554.89 882.549 578.779 881.365C586.283 880.992 592.701 881.171 595.279 881.822C597.601 882.408 600.75 883.148 602.279 883.469C604.173 883.866 605.585 885.158 606.714 887.526C607.625 889.437 608.737 891 609.185 891C609.633 891 610 892.125 610 893.5C610 895.056 610.567 896 611.5 896C612.325 896 613.016 896.562 613.037 897.25C613.077 898.638 620.42 903.576 625.031 905.318C626.664 905.934 628 906.906 628 907.479C628 909.122 631.534 910.904 636.206 911.617C638.568 911.977 640.95 912.6 641.5 913C642.05 913.401 644.525 914.018 647 914.372C703.111 922.396 730.796 916.797 751.113 893.32C757.996 885.367 766.678 866.928 767.275 858.992C767.358 857.896 767.806 857 768.272 857C768.737 857 768.869 856.596 768.565 856.104C767.932 855.081 769.555 845.497 770.869 842.5C771.905 840.135 774.049 830.164 774.738 824.5C775.006 822.299 775.566 820.049 775.982 819.5C776.399 818.95 777.319 816.703 778.027 814.508C779.838 808.893 790.992 787 792.041 787C792.519 787 793.205 785.424 793.566 783.5C793.927 781.575 794.545 780 794.939 780C795.332 780 797.788 775.612 800.395 770.25C803.002 764.888 805.556 759.825 806.07 759C806.584 758.174 808.82 753.45 811.039 748.5C813.258 743.549 815.732 738.226 816.537 736.669C817.341 735.112 818 733.083 818 732.161C818 731.239 819.125 728.371 820.5 725.788C821.875 723.205 823 720.198 823 719.104C823 718.011 823.45 716.84 824 716.5C824.55 716.159 825 715.06 825 714.055C825 713.05 825.672 710.94 826.494 709.364C827.315 707.789 827.99 705.541 827.994 704.369C827.999 702.614 830.96 693.594 833.697 687C834.039 686.174 834.402 683.32 834.503 680.656C834.604 677.992 835.234 675.474 835.902 675.06C836.571 674.646 837.282 672.326 837.482 669.904C837.681 667.482 838.591 663.308 839.503 660.629C841.379 655.118 841.662 653.88 842.959 645.5C844.643 634.625 846.149 627.581 848.092 621.5C849.146 618.2 850.473 611.674 851.041 607C852.162 597.763 852.774 594.513 856.168 579.721C857.767 572.755 858.784 570.087 859.706 570.441C861.138 570.99 863.515 566.104 864.582 560.415C865.011 558.126 865.696 557.053 866.524 557.371C868.271 558.041 868.97 554.873 868.986 546.215C868.999 539.32 868.896 538.985 867.066 539.965C862.371 542.478 862.236 542.05 862.299 524.859C862.353 510.155 862.52 508.677 864.168 508.246C865.163 507.986 865.749 507.404 865.471 506.953C865.192 506.502 865.535 504.415 866.232 502.316C867.768 497.695 866.99 461.5 865.118 450.5C864.463 446.65 863.704 441.025 863.431 438C861.336 414.778 858.188 394.189 854.946 382.5C853.725 378.1 852.297 371.35 851.771 367.5C851.245 363.65 849.928 357.35 848.843 353.5C847.759 349.65 846.398 344.7 845.82 342.5C843.937 335.337 842.868 333.199 840.918 332.689C839.834 332.405 839 331.318 839 330.187C839 328.708 838.501 328.318 837.082 328.689C835.647 329.064 835.08 328.6 834.832 326.845C834.404 323.82 830 323.228 830 326.196C830 329.902 828.181 326.95 827.568 322.249C826.704 315.619 828.142 306.925 832.984 289.5C835.277 281.25 837.533 272.925 837.997 271C838.462 269.075 839.789 263.9 840.948 259.5C842.106 255.1 843.514 249.475 844.076 247C845.524 240.623 846.611 236.343 848.45 229.767C851.296 219.592 853.145 162.961 851.07 149.5C849.121 136.853 848.799 135.434 847.368 133.204C846.557 131.942 846.166 130.052 846.498 129.006C846.876 127.814 846.366 126.366 845.134 125.134C844.052 124.052 843.43 122.903 843.752 122.582C844.752 121.581 841.748 117.001 840.081 116.985C838.747 116.972 838.724 116.828 839.934 116.062C841.407 115.13 837.008 106.791 835.238 107.163C834.832 107.248 833.712 106.973 832.75 106.552C830.682 105.647 830.331 102.529 832.386 103.318C834.702 104.207 831.381 98.4795 828.476 96.5765C826.302 95.1515 826 95.1395 826 96.4765C826 98.4865 824.111 98.4105 821.786 96.3055C818.612 93.4335 812.823 91.8005 814.069 94.1295ZM316.75 168.917C317.438 168.963 318 169.858 318 170.906C318 172.611 312.833 172.264 310.15 170.379C309.089 169.634 311.247 168.365 313.208 168.581C314.468 168.72 316.063 168.871 316.75 168.917ZM602.836 251.302C603.43 252.018 603.658 253.593 603.342 254.802C602.753 257.051 605.226 258.062 606.454 256.075C607.336 254.647 604.86 250 603.217 250C602.13 250 602.032 250.334 602.836 251.302ZM192 273C192 274.708 191.379 274.98 187.75 274.864C185.412 274.789 184.512 274.533 185.75 274.294C186.988 274.056 188 273.416 188 272.871C188 272.327 188.45 272.16 189 272.5C189.55 272.84 190 272.641 190 272.059C190 271.477 190.45 271 191 271C191.55 271 192 271.9 192 273ZM613 272.875C613 273.855 606.965 275.298 606.174 274.507C605.895 274.228 606.417 274 607.333 274C608.25 274 609 273.55 609 273C609 272.45 609.9 272 611 272C612.1 272 613 272.394 613 272.875ZM544.75 346.25C544.521 346.938 543.508 347.5 542.5 347.5C541.492 347.5 540.479 346.938 540.25 346.25C539.986 345.458 540.811 345 542.5 345C544.189 345 545.014 345.458 544.75 346.25ZM515 356.5C515 359.263 516.327 359.58 519.805 357.65C522.11 356.371 522.11 356.371 519.508 355.185C515.753 353.475 515 353.694 515 356.5ZM390.103 369.182C391.061 369.856 390.014 369.989 386.774 369.605C381.433 368.972 378.907 369.594 379.59 371.375C379.845 372.04 378.692 373.591 377.027 374.822C373.53 377.408 373.018 376.993 376.128 374.095C378.475 371.908 378.065 369 375.409 369C374.099 369 373.998 369.293 374.926 370.411C375.647 371.279 375.727 372.051 375.134 372.417C374.604 372.745 373.961 372.447 373.705 371.756C373.449 371.065 373.314 372.075 373.404 374C373.497 375.954 372.781 378.673 371.785 380.154C370.803 381.614 370.002 383.414 370.004 384.154C370.006 384.894 370.852 384.15 371.883 382.5C380.703 368.396 395.518 366.997 406.517 379.23C408.983 381.973 411 383.808 411 383.308C411 382.809 410.46 381.86 409.8 381.2C408.867 380.267 408.867 380 409.8 380C410.46 380 411.04 380.337 411.088 380.75C412.682 394.306 411.905 398.991 407.193 404.216C393.96 418.893 372.942 412.464 368.894 392.5C368.135 388.755 368.108 388.827 368.478 393.613C368.716 396.688 368.4 399.26 367.687 400.065C366.697 401.181 366.791 401.184 368.25 400.079C369.738 398.953 370 398.993 370 400.343C370 401.216 371.397 403.521 373.104 405.465C374.811 407.409 375.863 409 375.443 409C375.022 409 373.401 407.569 371.839 405.82C369.694 403.417 369 403.065 369 404.379C369 405.335 368.543 405.835 367.984 405.49C367.425 405.144 367.226 404.443 367.543 403.931C367.859 403.419 367.641 403 367.059 403C366.477 403 366 403.585 366 404.3C366 406.012 367.949 407.911 369.372 407.586C369.992 407.444 370.163 407.517 369.75 407.747C367.257 409.142 370.968 413.727 374.154 413.187C375.169 413.015 376 413.353 376 413.937C376 415.473 378.553 415.243 379.93 413.584C381.315 411.915 377.926 410.325 375.759 411.627C374.817 412.193 374.831 411.976 375.813 410.763C377.016 409.279 377.418 409.314 380.578 411.178C387.714 415.389 401.111 412.804 406.714 406.135C407.932 404.686 408.944 403.972 408.964 404.55C408.984 405.127 408.46 406.14 407.8 406.8C406.867 407.733 406.867 408 407.8 408C408.46 408 409.069 407.438 409.152 406.75C409.236 406.063 409.355 404.998 409.417 404.386C409.479 403.773 410.025 402.648 410.631 401.886C411.236 401.123 411.967 399.825 412.255 399C412.543 398.175 412.761 398.947 412.738 400.716C412.716 402.484 412.392 403.743 412.019 403.512C411.646 403.281 411.414 404.084 411.503 405.296C411.761 408.792 414.342 407.87 415.135 404C415.64 401.538 415.429 400.032 414.426 398.921C412.788 397.108 412.519 394 414 394C414.55 394 415 393.1 415 392C415 390.9 414.55 390 414 390C413.45 390 413 389.325 413 388.5C413 386.7 415.131 386.531 416.8 388.2C417.733 389.133 418 389.133 418 388.2C418 387.54 417.599 387 417.108 387C416.618 387 415.934 385.875 415.589 384.5C415.244 383.125 414.52 382 413.981 382C413.441 382 413 380.875 413 379.5C413 376.274 413.519 376.35 416.921 380.074C419.241 382.615 419.836 382.869 420.348 381.537C420.715 380.58 420.363 379.693 419.483 379.355C417.565 378.619 417.553 376 419.469 376C420.363 376 420.712 375.414 420.362 374.5C419.407 372.013 413 372.499 413 375.059C413 376.191 412.555 376.843 412.011 376.507C411.443 376.156 411.278 376.56 411.623 377.459C412.347 379.348 408.694 379.1 406.736 377.127C405.752 376.136 405.857 376.017 407.25 376.548C409.975 377.585 409.442 374.139 406.448 371.365C403.567 368.695 401.476 368.355 400.3 370.367C399.766 371.279 398.834 371.469 397.5 370.938C395.887 370.295 395.827 370.127 397.191 370.07C401.64 369.885 399.188 368.393 394.286 368.303C390.372 368.23 389.123 368.493 390.103 369.182ZM470.639 368.694C469.444 369.889 469.994 372 471.5 372C472.325 372 473 371.352 473 370.559C473 368.888 471.573 367.761 470.639 368.694ZM474.363 373.497C473.498 375.751 475.08 377.053 477.816 376.338C479.216 375.972 479.978 375.115 479.788 374.121C479.365 371.897 475.162 371.414 474.363 373.497ZM483 377C483 377.55 484.125 378 485.5 378C486.875 378 488 377.55 488 377C488 376.45 486.875 376 485.5 376C484.125 376 483 376.45 483 377ZM583.324 377.933C584.674 378.446 587.338 380.236 589.245 381.91C591.152 383.585 593.074 384.627 593.516 384.227C593.959 383.827 594.03 384.01 593.674 384.632C593.318 385.255 593.965 386.957 595.111 388.414C606.393 402.757 587.253 422.834 570.49 414.24C548.519 402.977 560.446 369.235 583.324 377.933ZM417.153 392.531C415.768 393.842 414.987 395.521 415.248 396.626C415.669 398.409 415.732 398.403 416.539 396.5C417.464 394.32 419.494 392 420.475 392C420.815 392 420.901 394.197 420.666 396.883C420.202 402.18 421.372 405.8 422.553 402.722C422.917 401.775 423.793 401 424.5 401C425.207 401 426.083 401.775 426.447 402.722C427.013 404.197 427.241 404.233 428.038 402.972C429.551 400.58 429.166 400 426.063 400C423.295 400 423.157 399.809 423.664 396.681C424.466 391.741 420.595 389.274 417.153 392.531ZM452 393.5C452 395.183 451.817 395.251 449.582 394.393C447.347 393.536 447.616 392 450 392C451.111 392 452 392.667 452 393.5ZM484 398.614C484 399.376 483.1 400 482 400C479.799 400 479.712 399.689 480.63 395.099C481.26 391.948 481.26 391.948 482.63 394.588C483.384 396.04 484 397.852 484 398.614ZM476.601 399.453C475.965 401.987 471 403.358 471 401C471 400.45 471.87 400 472.933 400C474.01 400 475.157 399.082 475.524 397.925C476.445 395.022 477.38 396.349 476.601 399.453ZM447.557 401.713C447.25 402.511 447 403.352 447 403.582C447 404.518 443.383 403.847 441.75 402.608C439.43 400.847 439.543 400.21 442.25 399.788C445.807 399.233 448.178 400.093 447.557 401.713ZM363.035 403.935C361.763 406.311 362.405 408 364.578 408C365.664 408 365.869 407.296 365.378 405.25C364.496 401.573 364.345 401.488 363.035 403.935ZM381.342 413.745C381.711 414.341 381.447 415.057 380.756 415.336C380.065 415.614 380.711 415.878 382.191 415.921C383.671 415.964 385.16 415.55 385.5 415C385.84 414.45 385.678 414 385.141 414C384.603 414 383.378 413.699 382.418 413.33C381.291 412.898 380.91 413.045 381.342 413.745ZM340.952 454.051C339.956 454.681 339.892 454.974 340.75 454.985C341.438 454.993 342 455.675 342 456.5C342 457.325 342.45 458 343 458C344.185 458 344.354 454.337 343.202 453.625C342.763 453.354 341.751 453.545 340.952 454.051ZM349 470C349 470.55 347.425 471 345.5 471C343.575 471 342 470.55 342 470C342 469.45 343.575 469 345.5 469C347.425 469 349 469.45 349 470ZM412.5 479C412.861 479.583 411.844 480 410.059 480C408.377 480 407 479.55 407 479C407 478.45 408.098 478 409.441 478C410.784 478 412.16 478.45 412.5 479ZM294 484.094C294 486.333 294.459 487 296 487C297.441 487 298 486.333 298 484.617C298 483.074 297.294 482.049 296 481.71C294.339 481.276 294 481.68 294 484.094ZM482.268 483.374C486.891 484.544 490.523 485.95 490.337 486.5C490.152 487.05 491.238 487.6 492.75 487.721C506.507 488.827 513.685 490.824 522 495.86C525.774 498.145 528.994 499.216 530.433 498.664C532.479 497.879 535 498.876 535 500.471C535 501.163 537.067 502.518 539.594 503.483C542.692 504.666 545.053 506.489 546.844 509.081C548.455 511.411 550.32 512.939 551.583 512.962C554.837 513.021 555.302 514.26 552.795 516.189C551.533 517.161 551.063 517.966 551.75 517.978C552.502 517.991 553.047 519.493 553.118 521.75C553.236 525.482 553.24 525.486 554 522.5C554.42 520.85 554.817 520.063 554.882 520.75C554.952 521.489 556.43 522 558.5 522C561.204 522 562 522.41 562 523.8C562 524.79 562.563 526.196 563.25 526.925C564.25 527.985 564.25 528.342 563.25 528.708C562.563 528.96 562 530.254 562 531.583C562 534.12 560.184 534.598 552.466 534.092C550.797 533.982 547.535 534.319 545.216 534.84C540.906 535.809 534.4 534.902 530.545 532.796C529.131 532.023 528.486 532.042 528.212 532.864C528.004 533.489 526.957 534 525.885 534C524.814 534 523.655 534.736 523.309 535.636C522.623 537.426 508.127 537.044 501.189 535.054C498.863 534.387 496.795 534.514 494.018 535.494C491.083 536.529 489.191 536.615 486.388 535.841C484.337 535.275 480.374 535.076 477.58 535.399C474.786 535.721 468.675 536.049 464 536.128C457.143 536.243 454.654 536.728 451.124 538.635C448.717 539.936 446.13 541 445.374 541C444.618 541 444 541.415 444 541.922C444 543.091 437.348 545.333 436.124 544.577C435.621 544.266 434.981 544.608 434.701 545.337C434.421 546.065 431.337 547.657 427.846 548.873C424.356 550.089 420.694 551.53 419.709 552.076C418.724 552.621 417.509 552.815 417.009 552.505C416.508 552.196 414.396 552.856 412.314 553.972C410.233 555.087 407.496 556 406.233 556C404.971 556 403.678 556.675 403.362 557.5C403.045 558.325 401.966 559 400.964 559C399.963 559 398.468 559.675 397.643 560.5C396.818 561.325 395.468 562 394.643 562C393.818 562 392.46 562.683 391.625 563.518C390.79 564.353 389.746 564.939 389.304 564.82C387.902 564.443 384 566.097 384 567.067C384 567.58 383.325 568 382.5 568C381.675 568 381 568.623 381 569.383C381 570.144 380.212 571.064 379.25 571.427C375.262 572.931 373.072 574.545 372.087 576.708C371.513 577.969 370.665 579 370.203 579C369.741 579 365.655 582.599 361.123 587C356.591 591.4 352.303 595 351.593 595C350.884 595 349.575 596.854 348.685 599.12C347.519 602.088 346.638 603.075 345.533 602.651C344.585 602.286 344 602.622 344 603.531C344 604.339 344.528 605 345.174 605C345.82 605 345.373 606.038 344.181 607.307C342.503 609.094 342.283 609.883 343.207 610.807C344.131 611.731 344.011 612 342.675 612C341.727 612 340.522 613.128 339.997 614.507C339.473 615.886 338.475 616.899 337.779 616.757C336.955 616.59 336.197 618.48 335.607 622.172C334.933 626.383 334.223 627.969 332.85 628.328C331.512 628.678 331 629.745 331 632.184C331 634.038 330.311 636.539 329.469 637.741C327.95 639.909 329.108 644 331.241 644C332.247 644 332.224 651.744 331.215 652.367C330.43 652.852 330.708 670.419 331.673 681.25C332.182 686.969 330.498 689.62 329.29 685C329.002 683.9 328.144 683 327.383 683C326.623 683 326 682.148 326 681.107C326 680.065 325.367 678.971 324.594 678.674C323.821 678.378 322.882 676.641 322.507 674.818C321.3 668.943 317.982 663 315.911 663C313.517 663 313.398 660.445 315.75 659.539C317.417 658.897 317.417 658.818 315.75 657.883C314.788 657.343 314 655.798 314 654.45C314 653.103 313.55 652 313 652C312.45 652 312 650.908 312 649.573C312 648.174 310.94 646.311 309.5 645.179C306.855 643.098 306 637.736 308.106 636.435C308.871 635.961 308.97 633.399 308.429 628.125C307.247 616.618 308.294 588.448 309.866 589.414C310.215 589.63 310.612 588.275 310.749 586.405C311.104 581.56 311.357 580.634 312.633 579.504C313.256 578.952 313.992 576.65 314.269 574.388C314.546 572.127 315.599 569.016 316.608 567.475C317.619 565.933 318.308 563.375 318.142 561.786C317.975 560.198 318.273 558.359 318.804 557.7C319.335 557.04 320.092 554.99 320.487 553.145C320.964 550.914 322.184 549.238 324.123 548.145C325.995 547.089 327.452 545.145 328.188 542.719C328.819 540.639 330.406 537.866 331.715 536.557C333.349 534.924 333.733 533.953 332.94 533.463C331.829 532.776 334.381 530.01 339.427 526.43C341.057 525.274 341.204 524.556 340.382 521.782C339.194 517.776 339.671 515 341.547 515C343.617 515 351.971 510.762 351.476 509.962C350.965 509.135 355.865 504.688 362.117 500.304C365.49 497.94 367.949 497.043 371.574 496.855C379.686 496.435 388.713 492.538 385.604 490.799C384.209 490.018 384.121 489.56 385.13 488.343C386.126 487.144 386.1 486.68 385 486C383.867 485.3 383.856 484.879 384.937 483.576C387.076 480.999 389 481.673 389 485C389 486.65 388.495 488 387.878 488C387.102 488 387.14 488.464 388 489.5C389.71 491.56 393.312 491.379 398.27 488.984C400.565 487.875 405.155 486.509 408.471 485.949C411.787 485.389 419 484.157 424.5 483.211C440.213 480.509 471.281 480.597 482.268 483.374ZM174.19 537.75C174.563 542.256 177.904 543.249 181.988 540.069C184.477 538.132 184.477 538.132 181.488 537.065C179.845 536.479 177.719 535.549 176.764 535C174.095 533.463 173.856 533.719 174.19 537.75ZM157.962 536.555C156.825 537.931 156.782 538.42 157.768 538.752C158.465 538.987 159.671 539.813 160.446 540.589C162.382 542.525 168 542.458 168 540.5C168 539.465 166.961 539 164.653 539C162.213 539 161.051 538.429 160.365 536.892C159.473 534.892 159.349 534.875 157.962 536.555ZM183 561.941C183 564.225 181.423 565.494 180.48 563.968C179.64 562.609 180.619 560 181.969 560C182.536 560 183 560.873 183 561.941ZM106 574.917C106 576.145 106.646 577 107.573 577C108.505 577 109.015 576.32 108.823 575.333C108.337 572.824 106 572.479 106 574.917ZM106 598.918C106 599.973 105.727 601.548 105.393 602.418C104.988 603.472 105.344 604 106.46 604C107.693 604 107.963 603.459 107.485 601.952C107.127 600.826 107.377 599.251 108.04 598.452C109.009 597.284 108.927 597 107.622 597C106.69 597 106 597.815 106 598.918ZM52.3933 614.581C52.7273 615.451 53.0453 617.138 53.1003 618.331C53.1913 620.326 53.2643 620.299 54.0003 618C55.2553 614.081 55.1243 613 53.3933 613C52.3383 613 51.9953 613.543 52.3933 614.581ZM111.355 620.627C110.512 620.973 110.496 621.854 111.297 623.977C112.277 626.571 112.51 626.69 113.66 625.177C116.284 621.727 114.974 619.143 111.355 620.627ZM534.096 624.049C545.23 629.729 549.396 642.016 543.159 650.776C533.075 664.938 512.703 664.138 505.378 649.294C497.129 632.578 516.844 615.247 534.096 624.049ZM142.812 623.739C142.393 625.911 139 626.727 139 624.656C139 623.282 140.302 622.272 142.323 622.078C142.776 622.035 142.996 622.782 142.812 623.739ZM404.143 628.023C412.056 630.221 420.619 641.349 419.695 648.234C417.566 664.112 396.663 670.383 385.111 658.612C372.089 645.344 386.002 622.984 404.143 628.023ZM131 630.979C129.688 631.809 129.719 632.146 131.25 633.677C132.917 635.344 133.083 635.344 134.75 633.677C136.388 632.039 135.424 630.031 133 630.031C132.725 630.031 131.825 630.457 131 630.979ZM124 640.5C124 642.943 124.452 644 125.5 644C126.548 644 127 642.943 127 640.5C127 638.056 126.548 637 125.5 637C124.452 637 124 638.056 124 640.5Z" fill="#EA9B9E"/>
<path fill-rule="evenodd" clip-rule="evenodd" d="M453.249 70.6624C452.562 70.9404 451.999 71.8184 451.999 72.6154C451.999 73.4114 451.298 74.3324 450.442 74.6604C449.585 74.9894 449.115 75.8614 449.398 76.5974C449.68 77.3334 449.513 78.1824 449.025 78.4844C445.944 80.3884 447.381 100.165 450.693 101.436C451.886 101.894 452.023 101.729 451.244 100.773C447.749 96.4854 448.047 92.1904 452.092 88.5354C456.687 84.3834 456.434 84.4204 462.383 87.0524C465.58 88.4664 468.96 89.0724 473.26 89.0014C486.233 88.7884 495.077 92.0284 493.406 96.3834C492.057 99.8964 494.681 101.515 496.385 98.2214C499.444 92.3054 497.455 79.0004 493.511 79.0004C492.93 79.0004 490.697 77.5524 488.55 75.7814C486.051 73.7224 484.499 73.0014 484.239 73.7814C483.722 75.3324 480.758 75.3594 479.227 73.8284C478.572 73.1734 475.723 72.7364 472.777 72.8374C469.874 72.9374 465.024 72.3454 461.999 71.5214C456.2 69.9424 455.261 69.8504 453.249 70.6624ZM540.794 629.403C543.119 632.1 545.428 635.7 545.922 637.403C546.57 639.64 546.844 639.917 546.909 638.4C547.007 636.115 542.701 629.692 538.93 626.5C537.631 625.4 538.469 626.707 540.794 629.403ZM379.078 647.191C379.035 650.321 379.381 653.118 379.849 653.407C380.316 653.696 380.506 651.585 380.27 648.716C379.654 641.233 379.169 640.612 379.078 647.191ZM538.5 655.739C536.3 657.693 535.241 658.76 536.146 658.111C537.049 657.461 538.174 656.999 538.646 657.083C540.761 657.463 542.061 656.906 541.432 655.888C541.054 655.277 541.35 654.401 542.092 653.943C542.835 653.484 543.229 652.901 542.97 652.648C542.711 652.394 540.7 653.785 538.5 655.739ZM380.59 655.853C380.3 656.322 380.725 657.559 381.533 658.603C382.964 660.449 382.986 660.446 382.351 658.5C381.855 656.98 382.635 657.34 385.599 659.999C389.499 663.497 389.499 663.497 385.546 659.249C381.176 654.552 381.329 654.657 380.59 655.853ZM515.432 756.887C514.134 758.073 490.31 760.801 473.499 761.688C462.059 762.292 460.413 762.555 464.499 763.126C472.281 764.214 490.802 764.128 491.499 763C491.839 762.45 494.915 762 498.336 762C502.423 762 505.338 761.451 506.844 760.396C508.114 759.507 510.362 758.973 511.891 759.197C513.424 759.422 515.214 758.995 515.924 758.235C517.341 756.719 516.909 755.536 515.432 756.887ZM539 759C539 759.55 541.25 760 544 760C546.75 760 549 759.55 549 759C549 758.45 546.75 758 544 758C541.25 758 539 758.45 539 759ZM515 765C515 765.55 513.5 766 511.667 766C509.833 766 507.995 766.337 507.582 766.75C507.169 767.163 499.894 767.339 491.415 767.143C475.079 766.764 468.594 768.57 483.749 769.278C488.011 769.476 482.443 769.608 471.375 769.57C455.664 769.515 451.357 769.774 451.732 770.75C452.302 772.232 450.392 772.446 449.499 771C448.683 769.68 443.999 769.707 443.999 771.031C443.999 771.599 444.787 772.306 445.749 772.604C446.711 772.902 448.328 773.593 449.341 774.139C450.718 774.881 451.481 774.723 452.367 773.511C453.388 772.115 454.452 772.03 460.026 772.895C470.481 774.517 493.471 774.335 501.999 772.562C506.124 771.704 510.738 771.002 512.25 771.001C514.027 771 515 770.469 515 769.5C515 768.417 516.111 768 519 768C522.333 768 523 767.667 523 766C523 764.333 522.333 764 519 764C516.8 764 515 764.45 515 765ZM688.725 822.608C688.327 823.007 688 824.158 688 825.167C688 827.327 687.621 827.405 685.026 825.785C683.519 824.844 682.336 824.835 679.789 825.745C675.543 827.263 672.411 826.767 672.794 824.636C673.127 822.779 671.375 822.376 670.776 824.172C670.102 826.194 658.414 826.501 655.474 824.575C652.701 822.758 649.975 824.016 644.115 829.818C642.235 831.679 641.549 831.896 640.88 830.84C640.109 829.623 639.584 830.364 639.883 832.25C640.048 833.303 635.24 833.192 634.832 832.134C634.649 831.657 632.027 831.624 629 832.061C625.975 832.497 620.04 832.887 615.81 832.927C611.579 832.967 607.84 833.45 607.5 834C607.16 834.55 606.233 835 605.44 835C604.647 835 604 834.55 604 834C604 833.45 604.9 833 606 833C607.1 833 608 832.577 608 832.059C608 827.914 587.606 828.298 583.146 832.527C579.835 835.667 579.385 835.83 578.25 834.301C577.516 833.313 577 833.123 577 833.84C577 835.889 574.036 836.342 572.099 834.589C570.384 833.038 570.169 833.092 568.612 835.468C566.592 838.55 565.35 838.68 564.467 835.899C563.983 834.371 563.502 834.098 562.701 834.899C562.095 835.505 560.172 836 558.427 836C556.682 836 553.136 836.937 550.547 838.082C546.78 839.749 544.207 840.108 537.651 839.881C533.146 839.725 528.926 839.928 528.272 840.331C527.619 840.735 524.072 840.756 520.388 840.378C515.1 839.837 513.857 839.959 514.475 840.962C515.094 841.961 513.586 842.128 507.38 841.747C503.046 841.481 501.3 841.542 503.5 841.882C505.7 842.222 507.387 842.837 507.25 843.25C507.113 843.663 507 844.513 507 845.14C507 845.926 505.26 846.1 501.389 845.701C496.413 845.187 495.723 845.341 495.273 847.061C494.662 849.396 490.999 849.686 490.999 847.399C490.999 845.62 476.848 846.303 476.166 848.115C475.982 848.602 474.07 849 471.916 849C469.101 849 467.999 849.422 467.999 850.5C467.999 852.467 466.533 852.396 463.29 850.271C461.352 849.001 460.543 848.869 460.242 849.771C460.017 850.447 458.857 851.007 457.666 851.015C456.474 851.024 454.836 851.45 454.025 851.963C453.215 852.475 452.313 852.509 452.022 852.037C451.536 851.251 422.93 852.301 413.499 853.452C402.277 854.82 388.999 855.18 388.999 854.116C388.999 852.674 382.33 852.655 381.441 854.095C381.011 854.79 377.433 855.096 371.632 854.934C366.609 854.794 361.824 854.941 360.999 855.261C357.673 856.55 342.198 857.097 341.812 855.939C341.353 854.561 325.999 855.706 325.999 857.117C325.999 857.603 324.451 858 322.558 858C320.665 858 318.839 858.45 318.499 859C318.159 859.55 316.108 860 313.94 860C311.772 860 309.999 860.45 309.999 861C309.999 861.55 308.472 862 306.606 862C304.512 862 302.993 862.574 302.637 863.5C302.281 864.429 300.759 865 298.637 865C296.483 865 294.995 865.569 294.624 866.534C294.152 867.764 292.512 868.011 286.313 867.784C278.59 867.5 278.59 867.5 277.672 870.5C276.878 873.09 275.468 876.644 274.198 879.25C273.997 879.663 274.545 880 275.416 880C276.287 880 276.999 879.373 276.999 878.607C276.999 875.435 281.919 876.069 281.984 879.25C281.992 879.663 283.263 880 284.808 880C292.773 880 292.579 884.299 284.425 888.492C279.913 890.812 278.422 892.131 278.178 894.019C277.897 896.191 264.87 904 261.529 904C261.166 904 259.734 905.35 258.346 907C256.957 908.65 254.947 910 253.879 910C251.952 910 251.128 911.153 250.539 914.672C250.371 915.677 249.804 916.412 249.28 916.305C248.756 916.197 248.407 917.457 248.505 919.104C248.625 921.117 248.08 922.422 246.841 923.084C245.828 923.627 244.999 924.705 244.999 925.48C244.999 926.451 243.52 926.989 240.249 927.207C237.636 927.381 241.799 927.924 249.499 928.413C270.793 929.767 289.557 928.028 302.999 923.456C313.304 919.951 329.52 912.584 330.531 910.948C330.813 910.491 332.964 909.159 335.311 907.987C340.073 905.608 347.999 898.704 347.999 896.933C347.999 896.302 348.697 896.054 349.551 896.382C350.405 896.709 350.869 896.598 350.582 896.135C348.112 892.138 360.05 891.196 434.999 889.471C468.131 888.709 499.737 887.169 519 885.38C535.303 883.865 554.89 882.55 578.779 881.365C586.283 880.993 592.701 881.171 595.279 881.822C597.601 882.408 600.75 883.149 602.279 883.47C604.173 883.867 605.585 885.158 606.714 887.526C607.625 889.437 608.737 891 609.185 891C609.633 891 610 892.125 610 893.5C610 895.056 610.567 896 611.5 896C612.325 896 613.015 896.563 613.036 897.25C613.076 898.638 620.42 903.577 625.031 905.318C626.664 905.934 628 906.907 628 907.479C628 909.122 631.534 910.905 636.206 911.618C638.568 911.978 640.95 912.601 641.5 913.001C642.564 913.776 644.886 914.156 662.961 916.508C693.029 920.421 734.653 913.969 737.516 904.951C737.857 903.877 739.017 902.526 740.095 901.949C741.173 901.372 741.791 900.469 741.466 899.943C741.14 899.416 741.577 898.716 742.436 898.386C743.296 898.056 744 896.747 744 895.476C744 894.206 744.453 893.015 745.009 892.83C745.564 892.645 746.244 891.37 746.518 889.997C747.17 886.726 746.097 881.822 744.893 882.566C744.374 882.886 744.015 882.778 744.094 882.324C744.499 879.992 743.898 875.945 743.211 876.37C742.777 876.638 739.22 877.08 735.307 877.352C726.157 877.988 724.837 875.798 730.733 869.76C735.223 865.163 735.963 865.093 736.133 869.25C736.264 872.5 736.264 872.5 736.883 869.035C737.388 866.2 738.092 865.4 740.75 864.64C742.538 864.129 744 863.156 744 862.478C744 861.8 744.675 860.685 745.5 860C747.059 858.706 747.561 854.464 746.25 853.654C743.733 852.098 736 854.344 736 856.63C736 857.934 735.586 859 735.082 859C733.391 859 733.254 856.525 734.776 853.5C735.606 851.85 736.69 849.688 737.185 848.697C737.837 847.387 737.722 846.976 736.763 847.197C736.036 847.363 735.314 847.05 735.16 846.5C735.007 845.95 733.978 845.166 732.875 844.758C731.773 844.351 731.152 843.563 731.495 843.008C731.838 842.454 731.368 842 730.453 842C729.278 842 728.984 841.483 729.453 840.25C729.987 838.847 729.868 838.748 728.858 839.75C727.007 841.588 724.652 841.274 723.232 839C721.743 836.616 720 836.378 720 838.559C720 839.416 719.542 839.835 718.983 839.49C718.424 839.144 718.269 838.373 718.638 837.776C719.007 837.179 718.851 836.975 718.289 837.322C717.728 837.669 716.419 836.998 715.383 835.83C714.025 834.3 713.849 833.586 714.75 833.271C716.604 832.622 716.333 826.341 714.419 825.607C712.125 824.727 712 824.798 712 827C712 830.151 709.98 829.037 707.393 824.458C706.247 822.43 690.466 820.866 688.725 822.608Z" fill="#D68C8F"/>
<defs>
<filter id="filter0_d_151_308" x="0.0859375" y="0.982422" width="948.057" height="989.396" filterUnits="userSpaceOnUse" color-interpolation-filters="sRGB">
<feFlood flood-opacity="0" result="BackgroundImageFix"/>
<feColorMatrix in="SourceAlpha" type="matrix" values="0 0 0 0 0 0 0 0 0 0 0 0 0 0 0 0 0 0 127 0" result="hardAlpha"/>
<feOffset dx="20" dy="10"/>
<feGaussianBlur stdDeviation="30"/>
<feComposite in2="hardAlpha" operator="out"/>
<feColorMatrix type="matrix" values="0 0 0 0 0 0 0 0 0 0 0 0 0 0 0 0 0 0 0.3 0"/>
<feBlend mode="normal" in2="BackgroundImageFix" result="effect1_dropShadow_151_308"/>
<feBlend mode="normal" in="SourceGraphic" in2="effect1_dropShadow_151_308" result="shape"/>
</filter>
</defs>
</svg>
