<svg class="button-download-app" width="168" height="54" viewBox="0 0 168 54" fill="none" xmlns="http://www.w3.org/2000/svg">
<g clip-path="url(#clip0_30_5)">
<path d="M152 0H16C7.16344 0 0 7.16344 0 16V38C0 46.8366 7.16344 54 16 54H152C160.837 54 168 46.8366 168 38V16C168 7.16344 160.837 0 152 0Z" fill="#FFF"/>
<path d="M64.8999 22.9999V16.4399H66.5399C67.5532 16.4399 68.3232 16.7199 68.8499 17.2799C69.3766 17.8399 69.6399 18.6432 69.6399 19.6899C69.6399 20.2099 69.5732 20.6766 69.4399 21.0899C69.3066 21.4966 69.1099 21.8432 68.8499 22.1299C68.5899 22.4099 68.2699 22.6266 67.8899 22.7799C67.5099 22.9266 67.0732 22.9999 66.5799 22.9999H64.8999ZM65.7299 22.3199H66.4799C67.2466 22.3199 67.8199 22.0899 68.1999 21.6299C68.5866 21.1699 68.7799 20.5232 68.7799 19.6899C68.7799 18.8566 68.5866 18.2199 68.1999 17.7799C67.8199 17.3399 67.2466 17.1199 66.4799 17.1199H65.7299V22.3199ZM72.8622 23.1199C72.5622 23.1199 72.2756 23.0632 72.0022 22.9499C71.7356 22.8366 71.4989 22.6732 71.2922 22.4599C71.0856 22.2399 70.9189 21.9732 70.7922 21.6599C70.6722 21.3399 70.6122 20.9799 70.6122 20.5799C70.6122 20.1732 70.6722 19.8132 70.7922 19.4999C70.9189 19.1799 71.0856 18.9099 71.2922 18.6899C71.4989 18.4699 71.7356 18.3032 72.0022 18.1899C72.2756 18.0766 72.5622 18.0199 72.8622 18.0199C73.1622 18.0199 73.4456 18.0766 73.7122 18.1899C73.9856 18.3032 74.2256 18.4699 74.4322 18.6899C74.6389 18.9099 74.8022 19.1799 74.9222 19.4999C75.0489 19.8132 75.1122 20.1732 75.1122 20.5799C75.1122 20.9799 75.0489 21.3399 74.9222 21.6599C74.8022 21.9732 74.6389 22.2399 74.4322 22.4599C74.2256 22.6732 73.9856 22.8366 73.7122 22.9499C73.4456 23.0632 73.1622 23.1199 72.8622 23.1199ZM72.8622 22.4399C73.0689 22.4399 73.2589 22.3966 73.4322 22.3099C73.6056 22.2166 73.7522 22.0899 73.8722 21.9299C73.9989 21.7632 74.0956 21.5666 74.1622 21.3399C74.2289 21.1132 74.2622 20.8599 74.2622 20.5799C74.2622 20.2999 74.2289 20.0466 74.1622 19.8199C74.0956 19.5866 73.9989 19.3866 73.8722 19.2199C73.7522 19.0532 73.6056 18.9266 73.4322 18.8399C73.2589 18.7466 73.0689 18.6999 72.8622 18.6999C72.6556 18.6999 72.4656 18.7466 72.2922 18.8399C72.1189 18.9266 71.9689 19.0532 71.8422 19.2199C71.7222 19.3866 71.6289 19.5866 71.5622 19.8199C71.4956 20.0466 71.4622 20.2999 71.4622 20.5799C71.4622 20.8599 71.4956 21.1132 71.5622 21.3399C71.6289 21.5666 71.7222 21.7632 71.8422 21.9299C71.9689 22.0899 72.1189 22.2166 72.2922 22.3099C72.4656 22.3966 72.6556 22.4399 72.8622 22.4399ZM77.1231 22.9999L75.7731 18.1399H76.6131L77.3331 20.9499C77.3864 21.1832 77.4364 21.4099 77.4831 21.6299C77.5298 21.8499 77.5764 22.0732 77.6231 22.2999H77.6631C77.7164 22.0732 77.7698 21.8499 77.8231 21.6299C77.8764 21.4032 77.9331 21.1766 77.9931 20.9499L78.7431 18.1399H79.5431L80.3031 20.9499C80.3631 21.1832 80.4198 21.4099 80.4731 21.6299C80.5331 21.8499 80.5898 22.0732 80.6431 22.2999H80.6831C80.7364 22.0732 80.7864 21.8499 80.8331 21.6299C80.8798 21.4099 80.9298 21.1832 80.9831 20.9499L81.6931 18.1399H82.4731L81.1731 22.9999H80.1731L79.4731 20.3899C79.4131 20.1566 79.3564 19.9266 79.3031 19.6999C79.2564 19.4732 79.2031 19.2366 79.1431 18.9899H79.1031C79.0498 19.2366 78.9964 19.4766 78.9431 19.7099C78.8898 19.9366 78.8298 20.1666 78.7631 20.3999L78.0831 22.9999H77.1231ZM83.5308 22.9999V18.1399H84.2108L84.2808 18.8399H84.3108C84.5442 18.6066 84.7875 18.4132 85.0408 18.2599C85.3008 18.0999 85.6008 18.0199 85.9408 18.0199C86.4542 18.0199 86.8275 18.1799 87.0608 18.4999C87.3008 18.8199 87.4208 19.2932 87.4208 19.9199V22.9999H86.6008V20.0299C86.6008 19.5699 86.5275 19.2399 86.3808 19.0399C86.2342 18.8332 86.0008 18.7299 85.6808 18.7299C85.4275 18.7299 85.2042 18.7932 85.0108 18.9199C84.8175 19.0466 84.5975 19.2332 84.3508 19.4799V22.9999H83.5308ZM89.8696 23.1199C89.5563 23.1199 89.3329 23.0266 89.1996 22.8399C89.0663 22.6532 88.9996 22.3799 88.9996 22.0199V15.8799H89.8196V22.0799C89.8196 22.2132 89.8429 22.3066 89.8896 22.3599C89.9363 22.4132 89.9896 22.4399 90.0496 22.4399C90.0763 22.4399 90.0996 22.4399 90.1196 22.4399C90.1463 22.4399 90.1829 22.4332 90.2296 22.4199L90.3396 23.0399C90.2863 23.0666 90.2229 23.0866 90.1496 23.0999C90.0763 23.1132 89.9829 23.1199 89.8696 23.1199ZM93.4384 23.1199C93.1384 23.1199 92.8517 23.0632 92.5784 22.9499C92.3117 22.8366 92.0751 22.6732 91.8684 22.4599C91.6617 22.2399 91.4951 21.9732 91.3684 21.6599C91.2484 21.3399 91.1884 20.9799 91.1884 20.5799C91.1884 20.1732 91.2484 19.8132 91.3684 19.4999C91.4951 19.1799 91.6617 18.9099 91.8684 18.6899C92.0751 18.4699 92.3117 18.3032 92.5784 18.1899C92.8517 18.0766 93.1384 18.0199 93.4384 18.0199C93.7384 18.0199 94.0217 18.0766 94.2884 18.1899C94.5617 18.3032 94.8017 18.4699 95.0084 18.6899C95.2151 18.9099 95.3784 19.1799 95.4984 19.4999C95.6251 19.8132 95.6884 20.1732 95.6884 20.5799C95.6884 20.9799 95.6251 21.3399 95.4984 21.6599C95.3784 21.9732 95.2151 22.2399 95.0084 22.4599C94.8017 22.6732 94.5617 22.8366 94.2884 22.9499C94.0217 23.0632 93.7384 23.1199 93.4384 23.1199ZM93.4384 22.4399C93.6451 22.4399 93.8351 22.3966 94.0084 22.3099C94.1817 22.2166 94.3284 22.0899 94.4484 21.9299C94.5751 21.7632 94.6717 21.5666 94.7384 21.3399C94.8051 21.1132 94.8384 20.8599 94.8384 20.5799C94.8384 20.2999 94.8051 20.0466 94.7384 19.8199C94.6717 19.5866 94.5751 19.3866 94.4484 19.2199C94.3284 19.0532 94.1817 18.9266 94.0084 18.8399C93.8351 18.7466 93.6451 18.6999 93.4384 18.6999C93.2317 18.6999 93.0417 18.7466 92.8684 18.8399C92.6951 18.9266 92.5451 19.0532 92.4184 19.2199C92.2984 19.3866 92.2051 19.5866 92.1384 19.8199C92.0717 20.0466 92.0384 20.2999 92.0384 20.5799C92.0384 20.8599 92.0717 21.1132 92.1384 21.3399C92.2051 21.5666 92.2984 21.7632 92.4184 21.9299C92.5451 22.0899 92.6951 22.2166 92.8684 22.3099C93.0417 22.3966 93.2317 22.4399 93.4384 22.4399ZM97.9516 23.1199C97.545 23.1199 97.205 22.9999 96.9316 22.7599C96.665 22.5199 96.5316 22.1799 96.5316 21.7399C96.5316 21.2066 96.7683 20.7999 97.2416 20.5199C97.715 20.2332 98.4716 20.0332 99.5116 19.9199C99.5116 19.7666 99.495 19.6166 99.4616 19.4699C99.435 19.3232 99.385 19.1932 99.3116 19.0799C99.2383 18.9666 99.135 18.8766 99.0016 18.8099C98.875 18.7366 98.7116 18.6999 98.5116 18.6999C98.2316 18.6999 97.9683 18.7532 97.7216 18.8599C97.475 18.9666 97.255 19.0866 97.0616 19.2199L96.7416 18.6499C96.9683 18.5032 97.245 18.3632 97.5716 18.2299C97.8983 18.0899 98.2583 18.0199 98.6516 18.0199C99.245 18.0199 99.675 18.2032 99.9416 18.5699C100.208 18.9299 100.342 19.4132 100.342 20.0199V22.9999H99.6616L99.5916 22.4199H99.5616C99.3283 22.6132 99.0783 22.7799 98.8116 22.9199C98.545 23.0532 98.2583 23.1199 97.9516 23.1199ZM98.1916 22.4599C98.425 22.4599 98.645 22.4066 98.8516 22.2999C99.0583 22.1866 99.2783 22.0232 99.5116 21.8099V20.4599C99.105 20.5132 98.7616 20.5766 98.4816 20.6499C98.2083 20.7232 97.985 20.8099 97.8116 20.9099C97.645 21.0099 97.5216 21.1266 97.4416 21.2599C97.3683 21.3866 97.3316 21.5266 97.3316 21.6799C97.3316 21.9599 97.415 22.1599 97.5816 22.2799C97.7483 22.3999 97.9516 22.4599 98.1916 22.4599ZM103.531 23.1199C102.917 23.1199 102.427 22.8999 102.061 22.4599C101.701 22.0199 101.521 21.3932 101.521 20.5799C101.521 20.1866 101.577 19.8332 101.691 19.5199C101.811 19.1999 101.967 18.9299 102.161 18.7099C102.354 18.4899 102.577 18.3199 102.831 18.1999C103.084 18.0799 103.351 18.0199 103.631 18.0199C103.911 18.0199 104.154 18.0699 104.361 18.1699C104.567 18.2699 104.777 18.4066 104.991 18.5799L104.951 17.7499V15.8799H105.781V22.9999H105.101L105.031 22.4299H105.001C104.807 22.6166 104.584 22.7799 104.331 22.9199C104.084 23.0532 103.817 23.1199 103.531 23.1199ZM103.711 22.4299C103.937 22.4299 104.151 22.3766 104.351 22.2699C104.551 22.1566 104.751 21.9866 104.951 21.7599V19.2199C104.744 19.0332 104.544 18.9032 104.351 18.8299C104.164 18.7499 103.971 18.7099 103.771 18.7099C103.577 18.7099 103.394 18.7566 103.221 18.8499C103.054 18.9366 102.907 19.0632 102.781 19.2299C102.654 19.3899 102.554 19.5832 102.481 19.8099C102.407 20.0366 102.371 20.2899 102.371 20.5699C102.371 21.1566 102.487 21.6132 102.721 21.9399C102.954 22.2666 103.284 22.4299 103.711 22.4299ZM110.47 22.9999L108.72 18.1399H109.57L110.49 20.8999C110.563 21.1399 110.636 21.3799 110.71 21.6199C110.79 21.8599 110.866 22.0966 110.94 22.3299H110.98C111.053 22.0966 111.126 21.8599 111.2 21.6199C111.273 21.3799 111.346 21.1399 111.42 20.8999L112.34 18.1399H113.15L111.43 22.9999H110.47ZM114.088 22.9999V18.1399H114.908V22.9999H114.088ZM114.508 17.1399C114.348 17.1399 114.211 17.0899 114.098 16.9899C113.991 16.8899 113.938 16.7632 113.938 16.6099C113.938 16.4499 113.991 16.3232 114.098 16.2299C114.211 16.1299 114.348 16.0799 114.508 16.0799C114.668 16.0799 114.801 16.1299 114.908 16.2299C115.021 16.3232 115.078 16.4499 115.078 16.6099C115.078 16.7632 115.021 16.8899 114.908 16.9899C114.801 17.0899 114.668 17.1399 114.508 17.1399ZM117.669 23.1199C117.262 23.1199 116.922 22.9999 116.649 22.7599C116.382 22.5199 116.249 22.1799 116.249 21.7399C116.249 21.2066 116.485 20.7999 116.959 20.5199C117.432 20.2332 118.189 20.0332 119.229 19.9199C119.229 19.7666 119.212 19.6166 119.179 19.4699C119.152 19.3232 119.102 19.1932 119.029 19.0799C118.955 18.9666 118.852 18.8766 118.719 18.8099C118.592 18.7366 118.429 18.6999 118.229 18.6999C117.949 18.6999 117.685 18.7532 117.439 18.8599C117.192 18.9666 116.972 19.0866 116.779 19.2199L116.459 18.6499C116.685 18.5032 116.962 18.3632 117.289 18.2299C117.615 18.0899 117.975 18.0199 118.369 18.0199C118.962 18.0199 119.392 18.2032 119.659 18.5699C119.925 18.9299 120.059 19.4132 120.059 20.0199V22.9999H119.379L119.309 22.4199H119.279C119.045 22.6132 118.795 22.7799 118.529 22.9199C118.262 23.0532 117.975 23.1199 117.669 23.1199ZM117.909 22.4599C118.142 22.4599 118.362 22.4066 118.569 22.2999C118.775 22.1866 118.995 22.0232 119.229 21.8099V20.4599C118.822 20.5132 118.479 20.5766 118.199 20.6499C117.925 20.7232 117.702 20.8099 117.529 20.9099C117.362 21.0099 117.239 21.1266 117.159 21.2599C117.085 21.3866 117.049 21.5266 117.049 21.6799C117.049 21.9599 117.132 22.1599 117.299 22.2799C117.465 22.3999 117.669 22.4599 117.909 22.4599Z" fill="#242526"/>
<path d="M66.9899 32.7099L66.7819 33.4899H68.5889L68.3939 32.7099C68.2726 32.2852 68.1556 31.8346 68.0429 31.3579C67.9302 30.8812 67.8176 30.4219 67.7049 29.9799H67.6529C67.5489 30.4306 67.4406 30.8942 67.3279 31.3709C67.2239 31.8389 67.1112 32.2852 66.9899 32.7099ZM63.9219 36.9999L66.5739 28.5239H68.8749L71.5269 36.9999H69.4989L68.9789 34.9849H66.3919L65.8719 36.9999H63.9219ZM72.297 39.3919V30.5519H73.857L73.987 31.1889H74.039C74.2904 30.9636 74.572 30.7772 74.884 30.6299C75.2047 30.4739 75.534 30.3959 75.872 30.3959C76.262 30.3959 76.613 30.4739 76.925 30.6299C77.237 30.7859 77.5014 31.0069 77.718 31.2929C77.9347 31.5789 78.0994 31.9256 78.212 32.3329C78.3334 32.7316 78.394 33.1779 78.394 33.6719C78.394 34.2266 78.316 34.7206 78.16 35.1539C78.0127 35.5786 77.809 35.9426 77.549 36.2459C77.2977 36.5406 77.0074 36.7659 76.678 36.9219C76.3574 37.0779 76.0237 37.1559 75.677 37.1559C75.3997 37.1559 75.131 37.0996 74.871 36.9869C74.611 36.8656 74.3684 36.6966 74.143 36.4799L74.208 37.5069V39.3919H72.297ZM75.235 35.5959C75.5644 35.5959 75.846 35.4486 76.08 35.1539C76.314 34.8506 76.431 34.3652 76.431 33.6979C76.431 32.5366 76.0584 31.9559 75.313 31.9559C74.9404 31.9559 74.572 32.1509 74.208 32.5409V35.1799C74.3814 35.3359 74.5547 35.4442 74.728 35.5049C74.9014 35.5656 75.0704 35.5959 75.235 35.5959ZM79.7492 39.3919V30.5519H81.3092L81.4392 31.1889H81.4912C81.7425 30.9636 82.0242 30.7772 82.3362 30.6299C82.6569 30.4739 82.9862 30.3959 83.3242 30.3959C83.7142 30.3959 84.0652 30.4739 84.3772 30.6299C84.6892 30.7859 84.9535 31.0069 85.1702 31.2929C85.3869 31.5789 85.5515 31.9256 85.6642 32.3329C85.7855 32.7316 85.8462 33.1779 85.8462 33.6719C85.8462 34.2266 85.7682 34.7206 85.6122 35.1539C85.4649 35.5786 85.2612 35.9426 85.0012 36.2459C84.7499 36.5406 84.4595 36.7659 84.1302 36.9219C83.8095 37.0779 83.4759 37.1559 83.1292 37.1559C82.8519 37.1559 82.5832 37.0996 82.3232 36.9869C82.0632 36.8656 81.8205 36.6966 81.5952 36.4799L81.6602 37.5069V39.3919H79.7492ZM82.6872 35.5959C83.0165 35.5959 83.2982 35.4486 83.5322 35.1539C83.7662 34.8506 83.8832 34.3652 83.8832 33.6979C83.8832 32.5366 83.5105 31.9559 82.7652 31.9559C82.3925 31.9559 82.0242 32.1509 81.6602 32.5409V35.1799C81.8335 35.3359 82.0069 35.4442 82.1802 35.5049C82.3535 35.5656 82.5225 35.5959 82.6872 35.5959ZM92.5469 37.1559C91.9922 37.1559 91.4376 37.0562 90.8829 36.8569C90.3369 36.6489 89.8472 36.3412 89.4139 35.9339L90.5059 34.6209C90.8092 34.8809 91.1429 35.0932 91.5069 35.2579C91.8796 35.4226 92.2436 35.5049 92.5989 35.5049C92.9976 35.5049 93.2922 35.4312 93.4829 35.2839C93.6822 35.1366 93.7819 34.9372 93.7819 34.6859C93.7819 34.5559 93.7516 34.4432 93.6909 34.3479C93.6389 34.2526 93.5566 34.1702 93.4439 34.1009C93.3399 34.0229 93.2099 33.9536 93.0539 33.8929C92.9066 33.8236 92.7419 33.7499 92.5599 33.6719L91.4549 33.2039C91.2382 33.1172 91.0259 33.0046 90.8179 32.8659C90.6186 32.7272 90.4366 32.5669 90.2719 32.3849C90.1159 32.1942 89.9902 31.9776 89.8949 31.7349C89.7996 31.4836 89.7519 31.2019 89.7519 30.8899C89.7519 30.5432 89.8256 30.2182 89.9729 29.9149C90.1202 29.6029 90.3282 29.3342 90.5969 29.1089C90.8656 28.8749 91.1819 28.6929 91.5459 28.5629C91.9186 28.4329 92.3259 28.3679 92.7679 28.3679C93.2619 28.3679 93.7472 28.4632 94.2239 28.6539C94.7092 28.8446 95.1339 29.1219 95.4979 29.4859L94.5229 30.6949C94.2456 30.4782 93.9682 30.3136 93.6909 30.2009C93.4136 30.0796 93.1059 30.0189 92.7679 30.0189C92.4386 30.0189 92.1742 30.0882 91.9749 30.2269C91.7842 30.3569 91.6889 30.5432 91.6889 30.7859C91.6889 30.9159 91.7192 31.0286 91.7799 31.1239C91.8492 31.2106 91.9402 31.2929 92.0529 31.3709C92.1742 31.4402 92.3129 31.5096 92.4689 31.5789C92.6249 31.6396 92.7939 31.7089 92.9759 31.7869L94.0679 32.2289C94.5879 32.4369 94.9952 32.7229 95.2899 33.0869C95.5932 33.4509 95.7449 33.9319 95.7449 34.5299C95.7449 34.8852 95.6712 35.2232 95.5239 35.5439C95.3852 35.8559 95.1772 36.1332 94.8999 36.3759C94.6312 36.6099 94.2976 36.8006 93.8989 36.9479C93.5002 37.0866 93.0496 37.1559 92.5469 37.1559ZM99.1424 37.1559C98.7437 37.1559 98.4014 37.0952 98.1154 36.9739C97.838 36.8526 97.6084 36.6836 97.4264 36.4669C97.253 36.2502 97.123 35.9902 97.0364 35.6869C96.9584 35.3749 96.9194 35.0326 96.9194 34.6599V32.0469H96.0354V30.6299L97.0234 30.5519L97.2444 28.8359H98.8304V30.5519H100.377V32.0469H98.8304V34.6339C98.8304 34.9979 98.904 35.2622 99.0514 35.4269C99.2074 35.5829 99.411 35.6609 99.6624 35.6609C99.7664 35.6609 99.8704 35.6479 99.9744 35.6219C100.087 35.5959 100.187 35.5656 100.273 35.5309L100.572 36.9219C100.399 36.9739 100.195 37.0259 99.9614 37.0779C99.7274 37.1299 99.4544 37.1559 99.1424 37.1559ZM104.177 37.1559C103.769 37.1559 103.375 37.0822 102.994 36.9349C102.612 36.7789 102.274 36.5579 101.98 36.2719C101.694 35.9859 101.464 35.6349 101.291 35.2189C101.117 34.7942 101.031 34.3132 101.031 33.7759C101.031 33.2386 101.117 32.7619 101.291 32.3459C101.464 31.9212 101.694 31.5659 101.98 31.2799C102.274 30.9939 102.612 30.7772 102.994 30.6299C103.375 30.4739 103.769 30.3959 104.177 30.3959C104.584 30.3959 104.974 30.4739 105.347 30.6299C105.728 30.7772 106.062 30.9939 106.348 31.2799C106.642 31.5659 106.876 31.9212 107.05 32.3459C107.223 32.7619 107.31 33.2386 107.31 33.7759C107.31 34.3132 107.223 34.7942 107.05 35.2189C106.876 35.6349 106.642 35.9859 106.348 36.2719C106.062 36.5579 105.728 36.7789 105.347 36.9349C104.974 37.0822 104.584 37.1559 104.177 37.1559ZM104.177 35.6089C104.567 35.6089 104.861 35.4442 105.061 35.1149C105.26 34.7856 105.36 34.3392 105.36 33.7759C105.36 33.2126 105.26 32.7662 105.061 32.4369C104.861 32.1076 104.567 31.9429 104.177 31.9429C103.778 31.9429 103.479 32.1076 103.28 32.4369C103.089 32.7662 102.994 33.2126 102.994 33.7759C102.994 34.3392 103.089 34.7856 103.28 35.1149C103.479 35.4442 103.778 35.6089 104.177 35.6089ZM108.618 36.9999V30.5519H110.178L110.308 31.6829H110.36C110.594 31.2409 110.876 30.9159 111.205 30.7079C111.535 30.4999 111.864 30.3959 112.193 30.3959C112.375 30.3959 112.523 30.4089 112.635 30.4349C112.757 30.4522 112.865 30.4826 112.96 30.5259L112.648 32.1769C112.527 32.1422 112.414 32.1162 112.31 32.0989C112.206 32.0816 112.085 32.0729 111.946 32.0729C111.704 32.0729 111.448 32.1596 111.179 32.3329C110.919 32.5062 110.703 32.8139 110.529 33.2559V36.9999H108.618ZM116.557 37.1559C116.098 37.1559 115.669 37.0822 115.27 36.9349C114.872 36.7789 114.525 36.5579 114.23 36.2719C113.936 35.9772 113.706 35.6219 113.541 35.2059C113.377 34.7899 113.294 34.3132 113.294 33.7759C113.294 33.2559 113.381 32.7879 113.554 32.3719C113.728 31.9472 113.953 31.5919 114.23 31.3059C114.516 31.0112 114.841 30.7859 115.205 30.6299C115.569 30.4739 115.946 30.3959 116.336 30.3959C116.796 30.3959 117.194 30.4739 117.532 30.6299C117.879 30.7859 118.165 31.0026 118.39 31.2799C118.624 31.5572 118.798 31.8866 118.91 32.2679C119.023 32.6406 119.079 33.0479 119.079 33.4899C119.079 33.6632 119.071 33.8279 119.053 33.9839C119.036 34.1399 119.019 34.2569 119.001 34.3349H115.14C115.227 34.8029 115.418 35.1496 115.712 35.3749C116.016 35.5916 116.384 35.6999 116.817 35.6999C117.277 35.6999 117.74 35.5569 118.208 35.2709L118.845 36.4279C118.516 36.6532 118.148 36.8309 117.74 36.9609C117.342 37.0909 116.947 37.1559 116.557 37.1559ZM115.127 33.0739H117.454C117.454 32.7099 117.372 32.4152 117.207 32.1899C117.043 31.9646 116.765 31.8519 116.375 31.8519C116.072 31.8519 115.803 31.9516 115.569 32.1509C115.344 32.3502 115.197 32.6579 115.127 33.0739Z" fill="#242526"/>
<path d="M37.0097 27.8722C36.8389 24.858 38.9487 21.7812 42.0511 21.7812C42.7655 21.7812 43.0895 21.9505 43.8676 22.1971C44.2842 22.3291 44.9902 22.6959 45.3984 22.6959C45.8066 22.6959 46.2964 22.4257 46.9572 22.1789C47.8946 21.8287 48.449 21.7912 48.9906 21.7812C50.8072 21.7812 52.1408 22.5548 52.9911 23.7562C51.5876 24.6864 50.848 25.8142 50.8071 27.6436C50.8071 29.3066 51.8481 30.9281 53.5217 31.6557C53.1135 33.4019 50.9092 36.9982 49.0927 36.9982C48.4689 36.9618 48.0856 36.8628 47.3578 36.5825C46.8155 36.3404 46.0923 36.1666 45.6229 36.1666C45.133 36.1459 44.584 36.3077 43.8982 36.5825C43.3165 36.8156 42.9699 36.9478 42.1735 36.9982C40.6631 37.0936 37.3123 33.2148 37.0097 27.8722Z" fill="url(#paint0_linear_30_5)"/>
<path d="M46.378 18.5383C45.5354 19.4625 45.2146 20.6795 45.2758 21.7813C46.6637 21.6774 47.623 21.0953 48.5007 20.0143C49.3783 18.9333 49.3848 18.1478 49.3783 17C48.3568 17.1693 47.174 17.6652 46.378 18.5383Z" fill="url(#paint1_linear_30_5)"/>
</g>
<defs>
<linearGradient id="paint0_linear_30_5" x1="50.9609" y1="19.7" x2="37.7443" y2="32.2849" gradientUnits="userSpaceOnUse">
<stop stop-color="#1B6CE7"/>
<stop offset="1" stop-color="#003FA6"/>
</linearGradient>
<linearGradient id="paint1_linear_30_5" x1="50.9608" y1="19.7" x2="37.7442" y2="32.2849" gradientUnits="userSpaceOnUse">
<stop stop-color="#1B6CE7"/>
<stop offset="1" stop-color="#003FA6"/>
</linearGradient>
<clipPath id="clip0_30_5">
<rect width="168" height="54" fill="white"/>
</clipPath>
</defs>
</svg>
