<svg width="48" height="48" viewBox="0 0 48 48" fill="none" xmlns="http://www.w3.org/2000/svg">
<path d="M8.0187 25.1137C7.688 19.5373 11.7743 13.8455 17.7831 13.8455C19.1668 13.8455 19.7943 14.1585 21.3014 14.6147C22.1083 14.8589 23.4757 15.5377 24.2663 15.5377C25.0569 15.5377 26.0057 15.0377 27.2855 14.5811C29.1011 13.9333 30.1749 13.864 31.2239 13.8455C34.7423 13.8455 37.3253 15.2764 38.9722 17.499C36.2539 19.2199 34.8213 21.3064 34.7423 24.6907C34.7423 27.7674 36.7584 30.7671 40 32.1131C39.2094 35.3436 34.9399 41.9969 31.4216 41.9969C30.2135 41.9297 29.471 41.7462 28.0614 41.2277C27.011 40.7798 25.6104 40.4586 24.7012 40.4586C23.7524 40.4201 22.689 40.7193 21.3607 41.2277C20.2341 41.659 19.5628 41.9038 18.0203 41.9969C15.0949 42.1735 8.60485 34.9975 8.0187 25.1137Z" fill="url(#paint0_linear_30_2)"/>
<path d="M26.1635 7.84591C24.5317 9.55554 23.9102 11.8071 24.0288 13.8454C26.717 13.6531 28.575 12.5763 30.2749 10.5764C31.9747 8.57661 31.9872 7.12343 31.9747 5C29.9962 5.31321 27.7053 6.23066 26.1635 7.84591Z" fill="url(#paint1_linear_30_2)"/>
<defs>
<linearGradient id="paint0_linear_30_2" x1="35.04" y1="9.99506" x2="10.5601" y2="34.3993" gradientUnits="userSpaceOnUse">
<stop stop-color="#1B6CE7"/>
<stop offset="1" stop-color="#003FA6"/>
</linearGradient>
<linearGradient id="paint1_linear_30_2" x1="35.0397" y1="9.995" x2="10.5598" y2="34.3992" gradientUnits="userSpaceOnUse">
<stop stop-color="#1B6CE7"/>
<stop offset="1" stop-color="#003FA6"/>
</linearGradient>
</defs>
</svg>
