<svg viewBox="0 0 1920 1080" fill="none" xmlns="http://www.w3.org/2000/svg">
<g id="bg-home 1" clip-path="url(#clip0_81_661)">
<g id="Clip path group">
<mask id="mask0_81_661" style="mask-type:luminance" maskUnits="userSpaceOnUse" x="0" y="0" width="1920" height="1080">
<g id="clip0_30_13">
<path id="Vector" d="M1920 0H0V1080H1920V0Z" fill="white"/>
</g>
</mask>
<g mask="url(#mask0_81_661)">
<g id="Group">
<g id="Mask group">
<mask id="mask1_81_661" style="mask-type:luminance" maskUnits="userSpaceOnUse" x="0" y="0" width="1920" height="1080">
<g id="Group_2">
<path id="Vector_2" d="M1920 0H0V1080H1920V0Z" fill="white"/>
</g>
</mask>
<g mask="url(#mask1_81_661)">
<g id="Group_3">
<path id="Vector_3" d="M1920 0H0V1080H1920V0Z" fill="#F6FAFF"/>
<g id="Group_4" filter="url(#filter0_f_81_661)">
<path id="Vector_4" d="M2212.69 240.051L1844.54 27.5002C1818.24 12.3124 1775.58 12.3124 1749.28 27.5002L663.63 654.3C637.324 669.488 637.324 694.112 663.63 709.3L1031.78 921.851C1058.08 937.039 1100.74 937.039 1127.04 921.851L2212.69 295.051C2239 279.863 2239 255.239 2212.69 240.051Z" fill="url(#paint0_linear_81_661)" fill-opacity="0.3"/>
</g>
<g id="Group_5" filter="url(#filter1_f_81_661)">
<path id="Vector_5" d="M1106.69 190.051L738.543 -22.4998C712.236 -37.6876 669.586 -37.6876 643.28 -22.4998L-442.369 604.3C-468.675 619.488 -468.675 644.112 -442.369 659.3L-74.2203 871.851C-47.9142 887.039 -5.26364 887.039 21.0424 871.851L1106.69 245.051C1133 229.863 1133 205.239 1106.69 190.051Z" fill="url(#paint1_linear_81_661)" fill-opacity="0.3"/>
</g>
<path id="rect-3" d="M1987.31 64.0514L1619.16 -148.5C1592.86 -163.688 1550.2 -163.688 1523.9 -148.5L888.63 218.272C862.324 233.46 862.324 258.085 888.63 273.272L1256.78 485.823C1283.09 501.011 1325.74 501.011 1352.04 485.823L1987.31 119.051C2013.62 103.863 2013.62 79.2392 1987.31 64.0514Z" fill="url(#paint2_linear_81_661)"/>
<path id="rect-2" d="M1204.31 549.051L836.162 336.5C809.856 321.312 767.206 321.312 740.9 336.5L105.631 703.272C79.3249 718.46 79.3249 743.085 105.631 758.272L473.78 970.823C500.086 986.011 542.737 986.011 569.043 970.823L1204.31 604.051C1230.62 588.863 1230.62 564.239 1204.31 549.051Z" fill="url(#paint3_linear_81_661)"/>
<path id="rect-4" d="M2260.31 576.051L1892.16 363.5C1865.86 348.312 1823.2 348.312 1796.9 363.5L1161.63 730.272C1135.32 745.46 1135.32 770.085 1161.63 785.272L1529.78 997.823C1556.09 1013.01 1598.74 1013.01 1625.04 997.823L2260.31 631.051C2286.62 615.863 2286.62 591.239 2260.31 576.051Z" fill="url(#paint4_linear_81_661)"/>
<path id="rect-1" d="M1058.31 3.05136L690.162 -209.5C663.856 -224.688 621.206 -224.688 594.9 -209.5L-40.3686 157.272C-66.6747 172.46 -66.6747 197.085 -40.3686 212.272L327.78 424.823C354.086 440.011 396.737 440.011 423.043 424.823L1058.31 58.0514C1084.62 42.8636 1084.62 18.2392 1058.31 3.05136Z" fill="url(#paint5_linear_81_661)"/>
</g>
</g>
</g>
<path id="b-letter" d="M1472 860.539V388.582C1472 337.456 1495.29 325.654 1526.3 325.654C1526.3 325.654 1685.31 325.654 1716.36 325.654C1747.4 325.654 1782.29 329.59 1782.29 372.85C1782.29 416.11 1782.29 404.311 1782.29 427.911C1782.29 451.512 1766.79 475.107 1727.99 475.107C1689.19 475.107 1638.78 475.107 1638.78 475.107C1638.78 475.107 1638.78 277.125 1638.78 243.062C1638.78 209 1651 188.001 1700.84 188.001C1750.68 188.001 1731.87 187.999 1797.81 188.001C1863.75 188.003 1945.2 217.264 1945.2 294.191C1945.2 371.118 1945.2 439.71 1945.2 439.71C1937.44 486.906 1916.69 505.814 1875.38 522.302C1952.97 538.037 1983.98 565.567 1983.98 612.76C1983.98 612.76 1984 640.288 1984 758.28C1984 876.271 1871.5 892 1828.84 892C1786.17 892 1801.69 892 1801.69 892C1731.87 892 1503.04 892 1503.04 892C1487.53 892 1472 876.271 1472 860.539ZM1642.66 750.414V597.028C1642.66 597.028 1731.86 597.028 1766.78 597.028C1801.7 597.028 1821.08 620.629 1821.08 648.157C1821.08 675.685 1821.08 707.151 1821.08 707.151C1821.08 742.55 1793.95 758.28 1755.14 758.28H1642.66V750.414Z" stroke="url(#paint6_linear_81_661)" stroke-width="2"/>
<path id="s-letter" d="M842 652.089V754.346C842 840.872 939.71 892 1010.06 892C1080.41 892 1115.69 892 1189.85 892C1264 892 1354 830 1354 754.346V608.827C1350.09 541.966 1291.47 497.552 1189.85 475.106C1063.8 447.266 1023.91 426.943 1017.88 380.715V246.994C1019.28 201.433 1035.79 190.293 1084.32 188H1193.76C1272.59 194.875 1335.75 242.134 1342.27 321.721V392.514C1343.38 418.034 1338.32 424.895 1318.82 423.978H1205.48C1186.35 424.421 1181.12 417.436 1182.03 392.514V357.117C1176.68 320.033 1157.28 313.245 1107.77 313.855H916.26C871.618 315.076 860.691 331.186 861.542 380.715V435.777C864.698 508.264 908.025 534.297 978.794 561.631C1140 615.942 1189.85 640.291 1189.85 675.687V711.084C1189.85 742.547 1166.4 762.212 1131.22 762.212C1131.22 762.212 1131.22 762.212 1068.69 762.212C1006.15 762.212 1010.06 711.084 1010.06 711.084V652.089C1010.06 628.492 994.427 616.693 978.794 616.693H877.176C853.725 616.693 842 632.425 842 652.089Z" stroke="url(#paint7_linear_81_661)" stroke-width="2"/>
</g>
</g>
</g>
</g>
<defs>
<filter id="filter0_f_81_661" x="393.9" y="-233.891" width="2088.52" height="1417.13" filterUnits="userSpaceOnUse" color-interpolation-filters="sRGB">
<feFlood flood-opacity="0" result="BackgroundImageFix"/>
<feBlend mode="normal" in="SourceGraphic" in2="BackgroundImageFix" result="shape"/>
<feGaussianBlur stdDeviation="125" result="effect1_foregroundBlur_81_661"/>
</filter>
<filter id="filter1_f_81_661" x="-712.099" y="-283.891" width="2088.52" height="1417.13" filterUnits="userSpaceOnUse" color-interpolation-filters="sRGB">
<feFlood flood-opacity="0" result="BackgroundImageFix"/>
<feBlend mode="normal" in="SourceGraphic" in2="BackgroundImageFix" result="shape"/>
<feGaussianBlur stdDeviation="125" result="effect1_foregroundBlur_81_661"/>
</filter>
<linearGradient id="paint0_linear_81_661" x1="2260.32" y1="267.551" x2="1413.04" y2="-372.802" gradientUnits="userSpaceOnUse">
<stop offset="0.557292" stop-color="#003FA6"/>
<stop offset="1" stop-color="#003FA6" stop-opacity="0"/>
</linearGradient>
<linearGradient id="paint1_linear_81_661" x1="1154.32" y1="217.551" x2="307.045" y2="-422.802" gradientUnits="userSpaceOnUse">
<stop offset="0.505208" stop-color="#003FA6"/>
<stop offset="1" stop-color="#003FA6" stop-opacity="0"/>
</linearGradient>
<linearGradient id="paint2_linear_81_661" x1="1803.24" y1="-42.2242" x2="1437.97" y2="590.434" gradientUnits="userSpaceOnUse">
<stop stop-color="#E1EBF9"/>
<stop offset="1" stop-color="#F1F7FF" stop-opacity="0"/>
</linearGradient>
<linearGradient id="paint3_linear_81_661" x1="1020.24" y1="442.775" x2="619.5" y2="808.5" gradientUnits="userSpaceOnUse">
<stop stop-color="#E1EBF9"/>
<stop offset="1" stop-color="#F1F7FF" stop-opacity="0"/>
</linearGradient>
<linearGradient id="paint4_linear_81_661" x1="2076.24" y1="469.775" x2="1710.97" y2="1102.43" gradientUnits="userSpaceOnUse">
<stop stop-color="#E1EBF9"/>
<stop offset="1" stop-color="#F1F7FF" stop-opacity="0"/>
</linearGradient>
<linearGradient id="paint5_linear_81_661" x1="723.5" y1="338" x2="508.971" y2="529.434" gradientUnits="userSpaceOnUse">
<stop stop-color="#E1EBF9"/>
<stop offset="1" stop-color="#F1F7FF" stop-opacity="0"/>
</linearGradient>
<linearGradient id="paint6_linear_81_661" x1="1728" y1="188" x2="1728" y2="892" gradientUnits="userSpaceOnUse">
<stop stop-color="#004ABF"/>
<stop offset="1" stop-color="#004ABF" stop-opacity="0.15"/>
</linearGradient>
<linearGradient id="paint7_linear_81_661" x1="1098" y1="892" x2="1098" y2="188" gradientUnits="userSpaceOnUse">
<stop stop-color="#004ABF"/>
<stop offset="1" stop-color="#004ABF" stop-opacity="0.15"/>
</linearGradient>
<clipPath id="clip0_81_661">
<rect width="1920" height="1080" fill="white"/>
</clipPath>
</defs>
</svg>
