<svg width="1920" height="1080" viewBox="0 0 1920 1080" fill="none" xmlns="http://www.w3.org/2000/svg">
<g clip-path="url(#clip0_30_13)">
<mask id="mask0_30_13" style="mask-type:luminance" maskUnits="userSpaceOnUse" x="0" y="0" width="1920" height="1080">
<path d="M1920 0H0V1080H1920V0Z" fill="white"/>
</mask>
<g mask="url(#mask0_30_13)">
<path d="M1920 0H0V1080H1920V0Z" fill="#E1EBF9"/>
<g filter="url(#filter0_f_30_13)">
<path d="M2212.69 240.051L1844.54 27.5C1818.24 12.3122 1775.58 12.3122 1749.28 27.5L663.63 654.3C637.324 669.488 637.324 694.112 663.63 709.3L1031.78 921.851C1058.08 937.039 1100.74 937.039 1127.04 921.851L2212.69 295.051C2239 279.863 2239 255.239 2212.69 240.051Z" fill="url(#paint0_linear_30_13)" fill-opacity="0.3"/>
</g>
<g filter="url(#filter1_f_30_13)">
<path d="M1106.69 190.051L738.543 -22.5C712.236 -37.6878 669.586 -37.6878 643.28 -22.5L-442.369 604.3C-468.675 619.488 -468.675 644.112 -442.369 659.3L-74.2202 871.851C-47.9141 887.039 -5.26348 887.039 21.0426 871.851L1106.69 245.051C1133 229.863 1133 205.239 1106.69 190.051Z" fill="url(#paint1_linear_30_13)" fill-opacity="0.3"/>
</g>
<path d="M1987.31 64.051L1619.16 -148.5C1592.86 -163.688 1550.2 -163.688 1523.9 -148.5L888.63 218.272C862.324 233.46 862.324 258.085 888.63 273.272L1256.78 485.823C1283.09 501.011 1325.74 501.011 1352.04 485.823L1987.31 119.051C2013.62 103.863 2013.62 79.2388 1987.31 64.051Z" fill="url(#paint2_linear_30_13)"/>
<path d="M1204.31 549.051L836.162 336.5C809.856 321.312 767.206 321.312 740.9 336.5L105.631 703.272C79.3253 718.46 79.3253 743.085 105.631 758.272L473.78 970.823C500.086 986.011 542.737 986.011 569.043 970.823L1204.31 604.051C1230.62 588.863 1230.62 564.239 1204.31 549.051Z" fill="url(#paint3_linear_30_13)"/>
<path d="M2260.31 576.051L1892.16 363.5C1865.86 348.312 1823.2 348.312 1796.9 363.5L1161.63 730.272C1135.32 745.46 1135.32 770.085 1161.63 785.272L1529.78 997.823C1556.09 1013.01 1598.74 1013.01 1625.04 997.823L2260.31 631.051C2286.62 615.863 2286.62 591.239 2260.31 576.051Z" fill="url(#paint4_linear_30_13)"/>
<path d="M1058.31 3.05099L690.162 -209.5C663.856 -224.688 621.206 -224.688 594.9 -209.5L-40.3686 157.272C-66.6747 172.46 -66.6747 197.085 -40.3686 212.272L327.78 424.823C354.086 440.011 396.737 440.011 423.043 424.823L1058.31 58.051C1084.62 42.8632 1084.62 18.2388 1058.31 3.05099Z" fill="url(#paint5_linear_30_13)"/>
</g>
<path d="M1472 902.539V430.582C1472 379.456 1495.29 367.654 1526.3 367.654C1526.3 367.654 1685.31 367.654 1716.36 367.654C1747.4 367.654 1782.29 371.59 1782.29 414.85C1782.29 458.11 1782.29 446.311 1782.29 469.911C1782.29 493.512 1766.79 517.107 1727.99 517.107C1689.19 517.107 1638.78 517.107 1638.78 517.107C1638.78 517.107 1638.78 319.125 1638.78 285.062C1638.78 251 1651 230.001 1700.84 230.001C1750.68 230.001 1731.87 229.999 1797.81 230.001C1863.75 230.003 1945.2 259.264 1945.2 336.191C1945.2 413.118 1945.2 481.71 1945.2 481.71C1937.44 528.906 1916.69 547.814 1875.38 564.302C1952.97 580.037 1983.98 607.567 1983.98 654.76C1983.98 654.76 1984 682.288 1984 800.28C1984 918.271 1871.5 934 1828.84 934C1786.17 934 1801.69 934 1801.69 934C1731.87 934 1503.04 934 1503.04 934C1487.53 934 1472 918.271 1472 902.539ZM1642.66 792.414V639.028C1642.66 639.028 1731.86 639.028 1766.78 639.028C1801.7 639.028 1821.08 662.629 1821.08 690.157C1821.08 717.685 1821.08 749.151 1821.08 749.151C1821.08 784.55 1793.95 800.28 1755.14 800.28H1642.66V792.414Z" stroke="url(#paint6_linear_30_13)" stroke-width="2"/>
<path d="M842 556.089V658.346C842 744.872 939.71 796 1010.06 796C1080.41 796 1115.69 796 1189.85 796C1264 796 1354 734 1354 658.346V512.827C1350.09 445.966 1291.47 401.552 1189.85 379.106C1063.8 351.266 1023.91 330.943 1017.88 284.715V150.994C1019.28 105.433 1035.79 94.2929 1084.32 92H1193.76C1272.59 98.8749 1335.75 146.134 1342.27 225.721V296.514C1343.38 322.034 1338.32 328.895 1318.82 327.978H1205.48C1186.35 328.421 1181.12 321.436 1182.03 296.514V261.117C1176.68 224.033 1157.28 217.245 1107.77 217.855H916.26C871.618 219.076 860.691 235.186 861.542 284.715V339.777C864.698 412.264 908.025 438.297 978.794 465.631C1140 519.942 1189.85 544.291 1189.85 579.687V615.084C1189.85 646.547 1166.4 666.212 1131.22 666.212C1131.22 666.212 1131.22 666.212 1068.69 666.212C1006.15 666.212 1010.06 615.084 1010.06 615.084V556.089C1010.06 532.492 994.427 520.693 978.794 520.693H877.176C853.725 520.693 842 536.425 842 556.089Z" stroke="url(#paint7_linear_30_13)" stroke-width="2"/>
</g>
<defs>
<filter id="filter0_f_30_13" x="393.9" y="-233.891" width="2088.52" height="1417.13" filterUnits="userSpaceOnUse" color-interpolation-filters="sRGB">
<feFlood flood-opacity="0" result="BackgroundImageFix"/>
<feBlend mode="normal" in="SourceGraphic" in2="BackgroundImageFix" result="shape"/>
<feGaussianBlur stdDeviation="125" result="effect1_foregroundBlur_30_13"/>
</filter>
<filter id="filter1_f_30_13" x="-712.099" y="-283.891" width="2088.52" height="1417.13" filterUnits="userSpaceOnUse" color-interpolation-filters="sRGB">
<feFlood flood-opacity="0" result="BackgroundImageFix"/>
<feBlend mode="normal" in="SourceGraphic" in2="BackgroundImageFix" result="shape"/>
<feGaussianBlur stdDeviation="125" result="effect1_foregroundBlur_30_13"/>
</filter>
<linearGradient id="paint0_linear_30_13" x1="2260.32" y1="267.551" x2="1413.04" y2="-372.802" gradientUnits="userSpaceOnUse">
<stop stop-color="#003FA6"/>
<stop offset="1" stop-color="#003FA6" stop-opacity="0"/>
</linearGradient>
<linearGradient id="paint1_linear_30_13" x1="1154.32" y1="217.551" x2="307.045" y2="-422.802" gradientUnits="userSpaceOnUse">
<stop stop-color="#003FA6"/>
<stop offset="1" stop-color="#003FA6" stop-opacity="0"/>
</linearGradient>
<linearGradient id="paint2_linear_30_13" x1="1803.24" y1="-42.2245" x2="1437.97" y2="590.434" gradientUnits="userSpaceOnUse">
<stop stop-color="#E1EBF9"/>
<stop offset="1" stop-color="#F1F7FF" stop-opacity="0"/>
</linearGradient>
<linearGradient id="paint3_linear_30_13" x1="1020.24" y1="442.775" x2="654.971" y2="1075.43" gradientUnits="userSpaceOnUse">
<stop stop-color="#E1EBF9"/>
<stop offset="1" stop-color="#F1F7FF" stop-opacity="0"/>
</linearGradient>
<linearGradient id="paint4_linear_30_13" x1="2076.24" y1="469.775" x2="1710.97" y2="1102.43" gradientUnits="userSpaceOnUse">
<stop stop-color="#E1EBF9"/>
<stop offset="1" stop-color="#F1F7FF" stop-opacity="0"/>
</linearGradient>
<linearGradient id="paint5_linear_30_13" x1="874.237" y1="-103.225" x2="508.971" y2="529.434" gradientUnits="userSpaceOnUse">
<stop stop-color="#E1EBF9"/>
<stop offset="1" stop-color="#F1F7FF" stop-opacity="0"/>
</linearGradient>
<linearGradient id="paint6_linear_30_13" x1="1728" y1="230" x2="1728" y2="934" gradientUnits="userSpaceOnUse">
<stop stop-color="#004ABF" stop-opacity="0.85"/>
<stop offset="1" stop-color="#004ABF" stop-opacity="0"/>
</linearGradient>
<linearGradient id="paint7_linear_30_13" x1="1098" y1="796" x2="1098" y2="92" gradientUnits="userSpaceOnUse">
<stop stop-color="#004ABF" stop-opacity="0.85"/>
<stop offset="1" stop-color="#004ABF" stop-opacity="0"/>
</linearGradient>
<clipPath id="clip0_30_13">
<rect width="1920" height="1080" fill="white"/>
</clipPath>
</defs>
</svg>
