<svg width="467" height="542" viewBox="0 0 467 542" fill="none" xmlns="http://www.w3.org/2000/svg">
<mask id="mask0_80_190" style="mask-type:luminance" maskUnits="userSpaceOnUse" x="0" y="1" width="467" height="540">
<path d="M466.5 1H0.5V541H466.5V1Z" fill="white"/>
</mask>
<g mask="url(#mask0_80_190)">
<mask id="mask1_80_190" style="mask-type:luminance" maskUnits="userSpaceOnUse" x="0" y="1" width="467" height="540">
<path d="M466.5 1H0.5V541H466.5V1Z" fill="white"/>
</mask>
<g mask="url(#mask1_80_190)">
<g filter="url(#filter0_dddd_80_190)">
<path d="M341.5 58H125.5C80.7649 58 44.5 94.2649 44.5 139V355C44.5 399.735 80.7649 436 125.5 436H341.5C386.235 436 422.5 399.735 422.5 355V139C422.5 94.2649 386.235 58 341.5 58Z" fill="url(#paint0_linear_80_190)"/>
</g>
<g filter="url(#filter1_ddddddi_80_190)">
<path d="M246.872 310.061V217.499C246.872 207.473 251.449 205.158 257.544 205.158C257.544 205.158 288.796 205.158 294.897 205.158C300.999 205.158 307.856 205.93 307.856 214.414C307.856 222.898 307.856 220.584 307.856 225.213C307.856 229.842 304.81 234.469 297.184 234.469C289.558 234.469 279.651 234.469 279.651 234.469C279.651 234.469 279.651 195.64 279.651 188.96C279.651 182.279 282.052 178.161 291.848 178.161C301.644 178.161 297.946 178.16 310.906 178.161C323.865 178.161 339.873 183.9 339.873 198.987C339.873 214.074 339.873 227.527 339.873 227.527C338.349 236.783 334.271 240.491 326.152 243.725C341.401 246.811 347.497 252.211 347.497 261.466C347.497 261.466 347.5 266.865 347.5 290.006C347.5 313.147 325.39 316.232 317.004 316.232C308.619 316.232 311.668 316.232 311.668 316.232C297.946 316.232 252.973 316.232 252.973 316.232C249.924 316.232 246.872 313.147 246.872 310.061ZM280.413 288.463V258.381C280.413 258.381 297.943 258.381 304.807 258.381C311.671 258.381 315.48 263.009 315.48 268.408C315.48 273.807 315.48 279.978 315.48 279.978C315.48 286.921 310.146 290.006 302.52 290.006H280.413V288.463Z" stroke="#E1EBF9" stroke-width="3.93369"/>
<path d="M120.5 269.019V289.074C120.5 306.044 139.704 316.071 153.531 316.071C167.357 316.071 174.292 316.071 188.866 316.071C203.44 316.071 221.128 303.911 221.128 289.074V260.534C220.36 247.421 208.838 238.71 188.866 234.308C164.093 228.848 156.252 224.862 155.067 215.796V189.57C155.342 180.635 158.587 178.45 168.125 178H189.634C205.127 179.348 217.54 188.617 218.824 204.226V218.11C219.04 223.115 218.047 224.461 214.215 224.281H191.938C188.179 224.368 187.151 222.998 187.329 218.11V211.168C186.278 203.895 182.465 202.563 172.734 202.683H135.095C126.321 202.923 124.174 206.082 124.341 215.796V226.595C124.961 240.811 133.477 245.917 147.385 251.278C179.068 261.93 188.866 266.705 188.866 273.647V280.589C188.866 286.76 184.257 290.617 177.343 290.617C177.343 290.617 177.343 290.617 165.053 290.617C152.762 290.617 153.531 280.589 153.531 280.589V269.019C153.531 264.391 150.458 262.077 147.385 262.077H127.413C122.804 262.077 120.5 265.162 120.5 269.019Z" stroke="#E1EBF9" stroke-width="3.93369"/>
</g>
</g>
</g>
<defs>
<filter id="filter0_dddd_80_190" x="-35.5" y="29" width="538" height="538" filterUnits="userSpaceOnUse" color-interpolation-filters="sRGB">
<feFlood flood-opacity="0" result="BackgroundImageFix"/>
<feColorMatrix in="SourceAlpha" type="matrix" values="0 0 0 0 0 0 0 0 0 0 0 0 0 0 0 0 0 0 127 0" result="hardAlpha"/>
<feOffset dy="51"/>
<feGaussianBlur stdDeviation="40"/>
<feColorMatrix type="matrix" values="0 0 0 0 0.105882 0 0 0 0 0.423529 0 0 0 0 0.905882 0 0 0 0.08 0"/>
<feBlend mode="normal" in2="BackgroundImageFix" result="effect1_dropShadow_80_190"/>
<feColorMatrix in="SourceAlpha" type="matrix" values="0 0 0 0 0 0 0 0 0 0 0 0 0 0 0 0 0 0 127 0" result="hardAlpha"/>
<feOffset dy="15"/>
<feGaussianBlur stdDeviation="12"/>
<feColorMatrix type="matrix" values="0 0 0 0 0.105882 0 0 0 0 0.423529 0 0 0 0 0.905882 0 0 0 0.05 0"/>
<feBlend mode="normal" in2="effect1_dropShadow_80_190" result="effect2_dropShadow_80_190"/>
<feColorMatrix in="SourceAlpha" type="matrix" values="0 0 0 0 0 0 0 0 0 0 0 0 0 0 0 0 0 0 127 0" result="hardAlpha"/>
<feOffset dy="6"/>
<feGaussianBlur stdDeviation="5"/>
<feColorMatrix type="matrix" values="0 0 0 0 0.105882 0 0 0 0 0.423529 0 0 0 0 0.905882 0 0 0 0.04 0"/>
<feBlend mode="normal" in2="effect2_dropShadow_80_190" result="effect3_dropShadow_80_190"/>
<feColorMatrix in="SourceAlpha" type="matrix" values="0 0 0 0 0 0 0 0 0 0 0 0 0 0 0 0 0 0 127 0" result="hardAlpha"/>
<feOffset dy="2"/>
<feGaussianBlur stdDeviation="2"/>
<feColorMatrix type="matrix" values="0 0 0 0 0.105882 0 0 0 0 0.423529 0 0 0 0 0.905882 0 0 0 0.03 0"/>
<feBlend mode="normal" in2="effect3_dropShadow_80_190" result="effect4_dropShadow_80_190"/>
<feBlend mode="normal" in="SourceGraphic" in2="effect4_dropShadow_80_190" result="shape"/>
</filter>
<filter id="filter1_ddddddi_80_190" x="38.5332" y="176.033" width="390.934" height="322.165" filterUnits="userSpaceOnUse" color-interpolation-filters="sRGB">
<feFlood flood-opacity="0" result="BackgroundImageFix"/>
<feColorMatrix in="SourceAlpha" type="matrix" values="0 0 0 0 0 0 0 0 0 0 0 0 0 0 0 0 0 0 127 0" result="hardAlpha"/>
<feOffset dy="100"/>
<feGaussianBlur stdDeviation="40"/>
<feColorMatrix type="matrix" values="0 0 0 0 0.0823529 0 0 0 0 0.368627 0 0 0 0 0.803922 0 0 0 0.72 0"/>
<feBlend mode="normal" in2="BackgroundImageFix" result="effect1_dropShadow_80_190"/>
<feColorMatrix in="SourceAlpha" type="matrix" values="0 0 0 0 0 0 0 0 0 0 0 0 0 0 0 0 0 0 127 0" result="hardAlpha"/>
<feOffset dy="42"/>
<feGaussianBlur stdDeviation="17"/>
<feColorMatrix type="matrix" values="0 0 0 0 0.0823529 0 0 0 0 0.368627 0 0 0 0 0.803922 0 0 0 0.51 0"/>
<feBlend mode="normal" in2="effect1_dropShadow_80_190" result="effect2_dropShadow_80_190"/>
<feColorMatrix in="SourceAlpha" type="matrix" values="0 0 0 0 0 0 0 0 0 0 0 0 0 0 0 0 0 0 127 0" result="hardAlpha"/>
<feOffset dy="23"/>
<feGaussianBlur stdDeviation="9"/>
<feColorMatrix type="matrix" values="0 0 0 0 0.0823529 0 0 0 0 0.368627 0 0 0 0 0.803922 0 0 0 0.43 0"/>
<feBlend mode="normal" in2="effect2_dropShadow_80_190" result="effect3_dropShadow_80_190"/>
<feColorMatrix in="SourceAlpha" type="matrix" values="0 0 0 0 0 0 0 0 0 0 0 0 0 0 0 0 0 0 127 0" result="hardAlpha"/>
<feOffset dy="13"/>
<feGaussianBlur stdDeviation="5"/>
<feColorMatrix type="matrix" values="0 0 0 0 0.0823529 0 0 0 0 0.368627 0 0 0 0 0.803922 0 0 0 0.36 0"/>
<feBlend mode="normal" in2="effect3_dropShadow_80_190" result="effect4_dropShadow_80_190"/>
<feColorMatrix in="SourceAlpha" type="matrix" values="0 0 0 0 0 0 0 0 0 0 0 0 0 0 0 0 0 0 127 0" result="hardAlpha"/>
<feOffset dy="7"/>
<feGaussianBlur stdDeviation="2.5"/>
<feColorMatrix type="matrix" values="0 0 0 0 0.0823529 0 0 0 0 0.368627 0 0 0 0 0.803922 0 0 0 0.29 0"/>
<feBlend mode="normal" in2="effect4_dropShadow_80_190" result="effect5_dropShadow_80_190"/>
<feColorMatrix in="SourceAlpha" type="matrix" values="0 0 0 0 0 0 0 0 0 0 0 0 0 0 0 0 0 0 127 0" result="hardAlpha"/>
<feOffset dy="3"/>
<feGaussianBlur stdDeviation="1"/>
<feColorMatrix type="matrix" values="0 0 0 0 0.0823529 0 0 0 0 0.368627 0 0 0 0 0.803922 0 0 0 0.2 0"/>
<feBlend mode="normal" in2="effect5_dropShadow_80_190" result="effect6_dropShadow_80_190"/>
<feBlend mode="normal" in="SourceGraphic" in2="effect6_dropShadow_80_190" result="shape"/>
<feColorMatrix in="SourceAlpha" type="matrix" values="0 0 0 0 0 0 0 0 0 0 0 0 0 0 0 0 0 0 127 0" result="hardAlpha"/>
<feOffset dy="2"/>
<feGaussianBlur stdDeviation="3"/>
<feComposite in2="hardAlpha" operator="arithmetic" k2="-1" k3="1"/>
<feColorMatrix type="matrix" values="0 0 0 0 0.105882 0 0 0 0 0.423529 0 0 0 0 0.905882 0 0 0 0.5 0"/>
<feBlend mode="normal" in2="shape" result="effect7_innerShadow_80_190"/>
</filter>
<linearGradient id="paint0_linear_80_190" x1="379" y1="104.5" x2="101" y2="388" gradientUnits="userSpaceOnUse">
<stop stop-color="#1B6CE7"/>
<stop offset="1" stop-color="#003FA6"/>
</linearGradient>
</defs>
</svg>
