<svg width="410" height="880" viewBox="0 0 410 880" fill="none" xmlns="http://www.w3.org/2000/svg">
<g clip-path="url(#clip0_33_115)">
<mask id="mask0_33_115" style="mask-type:luminance" maskUnits="userSpaceOnUse" x="0" y="0" width="410" height="880">
<path d="M410 0H0V880H410V0Z" fill="white"/>
</mask>
<g mask="url(#mask0_33_115)">
<path d="M303 16V880" stroke="url(#paint0_linear_33_115)" stroke-width="3" stroke-linecap="round" stroke-dasharray="1 10"/>
<path d="M33.544 149.16V131.64H35.896V149.16H33.544ZM35.416 141.36V139.248L42.928 139.224V141.336L35.416 141.36ZM35.416 133.752V131.64H43.336V133.752H35.416ZM51.8513 149.592C50.7313 149.592 49.7633 149.4 48.9473 149.016C48.1313 148.632 47.4673 148.128 46.9553 147.504C46.4433 146.864 46.0593 146.152 45.8033 145.368C45.5633 144.584 45.4433 143.784 45.4433 142.968V142.536C45.4433 141.704 45.5633 140.896 45.8033 140.112C46.0593 139.328 46.4433 138.624 46.9553 138C47.4673 137.36 48.1153 136.856 48.8993 136.488C49.6993 136.104 50.6353 135.912 51.7073 135.912C53.0993 135.912 54.2433 136.216 55.1393 136.824C56.0513 137.416 56.7233 138.184 57.1553 139.128C57.6033 140.072 57.8273 141.08 57.8273 142.152V143.184H46.4513V141.456H56.1473L55.6193 142.392C55.6193 141.48 55.4753 140.696 55.1873 140.04C54.8993 139.368 54.4673 138.848 53.8913 138.48C53.3153 138.112 52.5873 137.928 51.7073 137.928C50.7953 137.928 50.0353 138.136 49.4273 138.552C48.8353 138.968 48.3873 139.536 48.0833 140.256C47.7953 140.976 47.6513 141.808 47.6513 142.752C47.6513 143.664 47.7953 144.488 48.0833 145.224C48.3873 145.944 48.8513 146.52 49.4753 146.952C50.0993 147.368 50.8913 147.576 51.8513 147.576C52.8593 147.576 53.6753 147.352 54.2993 146.904C54.9393 146.456 55.3233 145.936 55.4513 145.344H57.6113C57.4353 146.224 57.0833 146.984 56.5553 147.624C56.0273 148.264 55.3633 148.752 54.5633 149.088C53.7633 149.424 52.8593 149.592 51.8513 149.592ZM66.5466 149.592C65.4266 149.592 64.4586 149.4 63.6426 149.016C62.8266 148.632 62.1626 148.128 61.6506 147.504C61.1386 146.864 60.7546 146.152 60.4986 145.368C60.2586 144.584 60.1386 143.784 60.1386 142.968V142.536C60.1386 141.704 60.2586 140.896 60.4986 140.112C60.7546 139.328 61.1386 138.624 61.6506 138C62.1626 137.36 62.8106 136.856 63.5946 136.488C64.3946 136.104 65.3306 135.912 66.4026 135.912C67.7946 135.912 68.9386 136.216 69.8346 136.824C70.7466 137.416 71.4186 138.184 71.8506 139.128C72.2986 140.072 72.5226 141.08 72.5226 142.152V143.184H61.1466V141.456H70.8426L70.3146 142.392C70.3146 141.48 70.1706 140.696 69.8826 140.04C69.5946 139.368 69.1626 138.848 68.5866 138.48C68.0106 138.112 67.2826 137.928 66.4026 137.928C65.4906 137.928 64.7306 138.136 64.1226 138.552C63.5306 138.968 63.0826 139.536 62.7786 140.256C62.4906 140.976 62.3466 141.808 62.3466 142.752C62.3466 143.664 62.4906 144.488 62.7786 145.224C63.0826 145.944 63.5466 146.52 64.1706 146.952C64.7946 147.368 65.5866 147.576 66.5466 147.576C67.5546 147.576 68.3706 147.352 68.9946 146.904C69.6346 146.456 70.0186 145.936 70.1466 145.344H72.3066C72.1306 146.224 71.7786 146.984 71.2506 147.624C70.7226 148.264 70.0586 148.752 69.2586 149.088C68.4586 149.424 67.5546 149.592 66.5466 149.592ZM75.1699 143.472V141.504H84.0979V143.472H75.1699ZM88.2237 149.16V131.64H90.5757V149.16H88.2237ZM90.0957 141.36V139.248L97.6077 139.224V141.336L90.0957 141.36ZM90.0957 133.752V131.64H98.0157V133.752H90.0957ZM101.13 149.16V136.344H102.954V141.624H102.858C102.858 139.752 103.266 138.384 104.082 137.52C104.914 136.64 106.154 136.2 107.802 136.2H108.234V138.264H107.418C106.138 138.264 105.154 138.608 104.466 139.296C103.778 139.968 103.434 140.944 103.434 142.224V149.16H101.13ZM116.281 149.592C115.161 149.592 114.193 149.4 113.377 149.016C112.561 148.632 111.897 148.128 111.385 147.504C110.873 146.864 110.489 146.152 110.233 145.368C109.993 144.584 109.873 143.784 109.873 142.968V142.536C109.873 141.704 109.993 140.896 110.233 140.112C110.489 139.328 110.873 138.624 111.385 138C111.897 137.36 112.545 136.856 113.329 136.488C114.129 136.104 115.065 135.912 116.137 135.912C117.529 135.912 118.673 136.216 119.569 136.824C120.481 137.416 121.153 138.184 121.585 139.128C122.033 140.072 122.257 141.08 122.257 142.152V143.184H110.881V141.456H120.577L120.049 142.392C120.049 141.48 119.905 140.696 119.617 140.04C119.329 139.368 118.897 138.848 118.321 138.48C117.745 138.112 117.017 137.928 116.137 137.928C115.225 137.928 114.465 138.136 113.857 138.552C113.265 138.968 112.817 139.536 112.513 140.256C112.225 140.976 112.081 141.808 112.081 142.752C112.081 143.664 112.225 144.488 112.513 145.224C112.817 145.944 113.281 146.52 113.905 146.952C114.529 147.368 115.321 147.576 116.281 147.576C117.289 147.576 118.105 147.352 118.729 146.904C119.369 146.456 119.753 145.936 119.881 145.344H122.041C121.865 146.224 121.513 146.984 120.985 147.624C120.457 148.264 119.793 148.752 118.993 149.088C118.193 149.424 117.289 149.592 116.281 149.592ZM130.976 149.592C129.856 149.592 128.888 149.4 128.072 149.016C127.256 148.632 126.592 148.128 126.08 147.504C125.568 146.864 125.184 146.152 124.928 145.368C124.688 144.584 124.568 143.784 124.568 142.968V142.536C124.568 141.704 124.688 140.896 124.928 140.112C125.184 139.328 125.568 138.624 126.08 138C126.592 137.36 127.24 136.856 128.024 136.488C128.824 136.104 129.76 135.912 130.832 135.912C132.224 135.912 133.368 136.216 134.264 136.824C135.176 137.416 135.848 138.184 136.28 139.128C136.728 140.072 136.952 141.08 136.952 142.152V143.184H125.576V141.456H135.272L134.744 142.392C134.744 141.48 134.6 140.696 134.312 140.04C134.024 139.368 133.592 138.848 133.016 138.48C132.44 138.112 131.712 137.928 130.832 137.928C129.92 137.928 129.16 138.136 128.552 138.552C127.96 138.968 127.512 139.536 127.208 140.256C126.92 140.976 126.776 141.808 126.776 142.752C126.776 143.664 126.92 144.488 127.208 145.224C127.512 145.944 127.976 146.52 128.6 146.952C129.224 147.368 130.016 147.576 130.976 147.576C131.984 147.576 132.8 147.352 133.424 146.904C134.064 146.456 134.448 145.936 134.576 145.344H136.736C136.56 146.224 136.208 146.984 135.68 147.624C135.152 148.264 134.488 148.752 133.688 149.088C132.888 149.424 131.984 149.592 130.976 149.592ZM151.181 149.592C150.077 149.592 149.117 149.4 148.301 149.016C147.501 148.632 146.837 148.12 146.309 147.48C145.781 146.824 145.381 146.104 145.109 145.32C144.853 144.536 144.725 143.752 144.725 142.968V142.536C144.725 141.72 144.853 140.92 145.109 140.136C145.381 139.352 145.781 138.648 146.309 138.024C146.853 137.384 147.525 136.872 148.325 136.488C149.125 136.104 150.061 135.912 151.133 135.912C152.205 135.912 153.165 136.112 154.013 136.512C154.877 136.912 155.565 137.48 156.077 138.216C156.605 138.936 156.901 139.792 156.965 140.784H154.757C154.645 139.984 154.277 139.32 153.653 138.792C153.029 138.248 152.189 137.976 151.133 137.976C150.221 137.976 149.461 138.184 148.853 138.6C148.245 139.016 147.789 139.584 147.485 140.304C147.181 141.024 147.029 141.84 147.029 142.752C147.029 143.632 147.181 144.44 147.485 145.176C147.789 145.896 148.245 146.472 148.853 146.904C149.477 147.32 150.253 147.528 151.181 147.528C151.901 147.528 152.525 147.4 153.053 147.144C153.581 146.888 154.005 146.544 154.325 146.112C154.645 145.68 154.837 145.192 154.901 144.648H157.109C157.061 145.656 156.765 146.528 156.221 147.264C155.693 148 154.989 148.576 154.109 148.992C153.245 149.392 152.269 149.592 151.181 149.592ZM167.991 149.16V145.32H167.607V140.88C167.607 140 167.375 139.336 166.911 138.888C166.463 138.44 165.799 138.216 164.919 138.216C164.423 138.216 163.911 138.224 163.383 138.24C162.855 138.256 162.351 138.272 161.871 138.288C161.391 138.304 160.975 138.328 160.623 138.36V136.344C160.975 136.312 161.343 136.288 161.727 136.272C162.127 136.24 162.535 136.224 162.951 136.224C163.367 136.208 163.767 136.2 164.151 136.2C165.463 136.2 166.535 136.36 167.367 136.68C168.199 136.984 168.815 137.488 169.215 138.192C169.615 138.896 169.815 139.848 169.815 141.048V149.16H167.991ZM163.791 149.496C162.831 149.496 161.999 149.336 161.295 149.016C160.607 148.68 160.071 148.2 159.687 147.576C159.319 146.952 159.135 146.2 159.135 145.32C159.135 144.408 159.335 143.648 159.735 143.04C160.151 142.432 160.751 141.976 161.535 141.672C162.319 141.352 163.263 141.192 164.367 141.192H167.847V142.92H164.271C163.343 142.92 162.631 143.144 162.135 143.592C161.639 144.04 161.391 144.616 161.391 145.32C161.391 146.024 161.639 146.592 162.135 147.024C162.631 147.456 163.343 147.672 164.271 147.672C164.815 147.672 165.335 147.576 165.831 147.384C166.327 147.176 166.735 146.84 167.055 146.376C167.391 145.896 167.575 145.24 167.607 144.408L168.231 145.32C168.151 146.232 167.927 147 167.559 147.624C167.207 148.232 166.711 148.696 166.071 149.016C165.447 149.336 164.687 149.496 163.791 149.496ZM174.044 149.16V136.344H175.868V141.624H175.772C175.772 139.752 176.18 138.384 176.996 137.52C177.828 136.64 179.068 136.2 180.716 136.2H181.148V138.264H180.332C179.052 138.264 178.068 138.608 177.38 139.296C176.692 139.968 176.348 140.944 176.348 142.224V149.16H174.044ZM189.099 149.592C188.187 149.592 187.347 149.424 186.579 149.088C185.811 148.752 185.139 148.28 184.563 147.672C184.003 147.064 183.563 146.36 183.243 145.56C182.939 144.76 182.787 143.896 182.787 142.968V142.536C182.787 141.624 182.939 140.768 183.243 139.968C183.547 139.168 183.971 138.464 184.515 137.856C185.075 137.248 185.731 136.776 186.483 136.44C187.251 136.088 188.099 135.912 189.027 135.912C190.003 135.912 190.891 136.12 191.691 136.536C192.491 136.936 193.147 137.568 193.659 138.432C194.171 139.296 194.459 140.416 194.523 141.792L193.563 140.256V131.64H195.867V149.16H194.043V143.472H194.715C194.651 144.928 194.347 146.112 193.803 147.024C193.259 147.92 192.571 148.576 191.739 148.992C190.923 149.392 190.043 149.592 189.099 149.592ZM189.411 147.576C190.195 147.576 190.907 147.4 191.547 147.048C192.187 146.696 192.699 146.192 193.083 145.536C193.467 144.864 193.659 144.08 193.659 143.184V142.08C193.659 141.2 193.459 140.456 193.059 139.848C192.675 139.224 192.155 138.752 191.499 138.432C190.859 138.096 190.155 137.928 189.387 137.928C188.539 137.928 187.787 138.128 187.131 138.528C186.491 138.928 185.987 139.488 185.619 140.208C185.267 140.928 185.091 141.776 185.091 142.752C185.091 143.728 185.275 144.584 185.643 145.32C186.011 146.04 186.523 146.6 187.179 147C187.835 147.384 188.579 147.576 189.411 147.576ZM199.838 149.16V146.232H202.622V149.16H199.838Z" fill="#003FA6"/>
<path d="M39.232 351.592C37.776 351.592 36.536 351.352 35.512 350.872C34.488 350.392 33.704 349.728 33.16 348.88C32.616 348.032 32.344 347.072 32.344 346H34.696C34.696 346.528 34.832 347.056 35.104 347.584C35.392 348.112 35.864 348.552 36.52 348.904C37.192 349.256 38.096 349.432 39.232 349.432C40.288 349.432 41.152 349.28 41.824 348.976C42.496 348.656 42.992 348.248 43.312 347.752C43.632 347.24 43.792 346.688 43.792 346.096C43.792 345.376 43.48 344.784 42.856 344.32C42.232 343.84 41.32 343.544 40.12 343.432L38.176 343.264C36.624 343.136 35.384 342.656 34.456 341.824C33.528 340.992 33.064 339.896 33.064 338.536C33.064 337.464 33.32 336.528 33.832 335.728C34.36 334.928 35.088 334.304 36.016 333.856C36.944 333.392 38.024 333.16 39.256 333.16C40.472 333.16 41.544 333.384 42.472 333.832C43.4 334.28 44.12 334.912 44.632 335.728C45.16 336.528 45.424 337.488 45.424 338.608H43.072C43.072 338.048 42.936 337.52 42.664 337.024C42.408 336.528 42 336.12 41.44 335.8C40.88 335.48 40.152 335.32 39.256 335.32C38.392 335.32 37.672 335.472 37.096 335.776C36.536 336.08 36.112 336.48 35.824 336.976C35.552 337.456 35.416 337.976 35.416 338.536C35.416 339.176 35.664 339.744 36.16 340.24C36.656 340.736 37.392 341.024 38.368 341.104L40.312 341.272C41.512 341.368 42.544 341.624 43.408 342.04C44.288 342.44 44.96 342.984 45.424 343.672C45.904 344.344 46.144 345.152 46.144 346.096C46.144 347.168 45.856 348.12 45.28 348.952C44.704 349.784 43.896 350.432 42.856 350.896C41.816 351.36 40.608 351.592 39.232 351.592ZM54.1949 351.544C52.6749 351.544 51.5069 351.048 50.6909 350.056C49.8749 349.064 49.4669 347.632 49.4669 345.76V338.32H51.7709V346.216C51.7709 347.224 52.0429 348.016 52.5869 348.592C53.1309 349.152 53.8669 349.432 54.7949 349.432C55.7549 349.432 56.5389 349.128 57.1469 348.52C57.7549 347.896 58.0589 347.048 58.0589 345.976V338.32H60.3629V351.16H58.5389V345.664H58.8269C58.8269 346.928 58.6589 348 58.3229 348.88C57.9869 349.744 57.4829 350.408 56.8109 350.872C56.1549 351.32 55.3149 351.544 54.2909 351.544H54.1949ZM64.8252 355.96V338.344H66.6492V343.888L66.2172 343.84C66.2972 342.464 66.5852 341.344 67.0812 340.48C67.5932 339.6 68.2572 338.952 69.0732 338.536C69.8892 338.12 70.7772 337.912 71.7372 337.912C72.6652 337.912 73.5052 338.088 74.2572 338.44C75.0252 338.792 75.6812 339.272 76.2252 339.88C76.7692 340.488 77.1852 341.192 77.4732 341.992C77.7612 342.792 77.9052 343.64 77.9052 344.536V344.968C77.9052 345.864 77.7532 346.712 77.4492 347.512C77.1452 348.312 76.7132 349.016 76.1532 349.624C75.6092 350.232 74.9532 350.712 74.1852 351.064C73.4332 351.416 72.6012 351.592 71.6892 351.592C70.7772 351.592 69.9052 351.392 69.0732 350.992C68.2412 350.592 67.5532 349.944 67.0092 349.048C66.4652 348.152 66.1532 346.976 66.0732 345.52L67.1292 347.44V355.96H64.8252ZM71.3292 349.576C72.1932 349.576 72.9452 349.376 73.5852 348.976C74.2252 348.56 74.7212 347.992 75.0732 347.272C75.4252 346.536 75.6012 345.696 75.6012 344.752C75.6012 343.792 75.4252 342.952 75.0732 342.232C74.7212 341.512 74.2252 340.952 73.5852 340.552C72.9452 340.136 72.1932 339.928 71.3292 339.928C70.5612 339.928 69.8492 340.104 69.1932 340.456C68.5372 340.792 68.0092 341.288 67.6092 341.944C67.2252 342.584 67.0332 343.36 67.0332 344.272V345.376C67.0332 346.256 67.2332 347.008 67.6332 347.632C68.0332 348.256 68.5612 348.736 69.2172 349.072C69.8732 349.408 70.5772 349.576 71.3292 349.576ZM81.3721 351.16V338.344H83.1961V343.624H83.1001C83.1001 341.752 83.5081 340.384 84.3241 339.52C85.1561 338.64 86.3961 338.2 88.0441 338.2H88.4761V340.264H87.6601C86.3801 340.264 85.3961 340.608 84.7081 341.296C84.0201 341.968 83.6761 342.944 83.6761 344.224V351.16H81.3721ZM96.5232 351.592C95.4032 351.592 94.4352 351.4 93.6192 351.016C92.8032 350.632 92.1392 350.128 91.6272 349.504C91.1152 348.864 90.7312 348.152 90.4752 347.368C90.2352 346.584 90.1152 345.784 90.1152 344.968V344.536C90.1152 343.704 90.2352 342.896 90.4752 342.112C90.7312 341.328 91.1152 340.624 91.6272 340C92.1392 339.36 92.7872 338.856 93.5712 338.488C94.3712 338.104 95.3072 337.912 96.3792 337.912C97.7712 337.912 98.9152 338.216 99.8112 338.824C100.723 339.416 101.395 340.184 101.827 341.128C102.275 342.072 102.499 343.08 102.499 344.152V345.184H91.1232V343.456H100.819L100.291 344.392C100.291 343.48 100.147 342.696 99.8592 342.04C99.5712 341.368 99.1392 340.848 98.5632 340.48C97.9872 340.112 97.2592 339.928 96.3792 339.928C95.4672 339.928 94.7072 340.136 94.0992 340.552C93.5072 340.968 93.0592 341.536 92.7552 342.256C92.4672 342.976 92.3232 343.808 92.3232 344.752C92.3232 345.664 92.4672 346.488 92.7552 347.224C93.0592 347.944 93.5232 348.52 94.1472 348.952C94.7712 349.368 95.5632 349.576 96.5232 349.576C97.5312 349.576 98.3472 349.352 98.9712 348.904C99.6112 348.456 99.9952 347.936 100.123 347.344H102.283C102.107 348.224 101.755 348.984 101.227 349.624C100.699 350.264 100.035 350.752 99.2352 351.088C98.4352 351.424 97.5312 351.592 96.5232 351.592ZM105.771 351.16V338.344H107.595V343.84H107.307C107.307 342.592 107.467 341.536 107.787 340.672C108.123 339.792 108.619 339.12 109.275 338.656C109.931 338.192 110.763 337.96 111.771 337.96H111.867C112.875 337.96 113.707 338.192 114.363 338.656C115.035 339.12 115.531 339.792 115.851 340.672C116.171 341.536 116.331 342.592 116.331 343.84H115.659C115.659 342.592 115.827 341.536 116.163 340.672C116.499 339.792 116.995 339.12 117.651 338.656C118.323 338.192 119.163 337.96 120.171 337.96H120.267C121.275 337.96 122.115 338.192 122.787 338.656C123.459 339.12 123.955 339.792 124.275 340.672C124.611 341.536 124.779 342.592 124.779 343.84V351.16H122.475V343.336C122.475 342.296 122.219 341.496 121.707 340.936C121.195 340.36 120.483 340.072 119.571 340.072C118.627 340.072 117.867 340.376 117.291 340.984C116.715 341.576 116.427 342.408 116.427 343.48V351.16H114.123V343.336C114.123 342.296 113.867 341.496 113.355 340.936C112.843 340.36 112.131 340.072 111.219 340.072C110.275 340.072 109.515 340.376 108.939 340.984C108.363 341.576 108.075 342.408 108.075 343.48V351.16H105.771ZM134.445 351.592C133.325 351.592 132.357 351.4 131.541 351.016C130.725 350.632 130.061 350.128 129.549 349.504C129.037 348.864 128.653 348.152 128.397 347.368C128.157 346.584 128.037 345.784 128.037 344.968V344.536C128.037 343.704 128.157 342.896 128.397 342.112C128.653 341.328 129.037 340.624 129.549 340C130.061 339.36 130.709 338.856 131.493 338.488C132.293 338.104 133.229 337.912 134.301 337.912C135.693 337.912 136.837 338.216 137.733 338.824C138.645 339.416 139.317 340.184 139.749 341.128C140.197 342.072 140.421 343.08 140.421 344.152V345.184H129.045V343.456H138.741L138.213 344.392C138.213 343.48 138.069 342.696 137.781 342.04C137.493 341.368 137.061 340.848 136.485 340.48C135.909 340.112 135.181 339.928 134.301 339.928C133.389 339.928 132.629 340.136 132.021 340.552C131.429 340.968 130.981 341.536 130.677 342.256C130.389 342.976 130.245 343.808 130.245 344.752C130.245 345.664 130.389 346.488 130.677 347.224C130.981 347.944 131.445 348.52 132.069 348.952C132.693 349.368 133.485 349.576 134.445 349.576C135.453 349.576 136.269 349.352 136.893 348.904C137.533 348.456 137.917 347.936 138.045 347.344H140.205C140.029 348.224 139.677 348.984 139.149 349.624C138.621 350.264 137.957 350.752 137.157 351.088C136.357 351.424 135.453 351.592 134.445 351.592ZM147.617 351.16L153.929 333.64H157.913L164.417 351.16H161.993L156.113 335.176L157.265 335.752H154.433L155.657 335.176L149.969 351.16H147.617ZM151.385 345.928L152.177 343.816H159.737L160.529 345.928H151.385ZM167.294 355.96V338.344H169.118V343.888L168.686 343.84C168.766 342.464 169.054 341.344 169.55 340.48C170.062 339.6 170.726 338.952 171.542 338.536C172.358 338.12 173.246 337.912 174.206 337.912C175.134 337.912 175.974 338.088 176.726 338.44C177.494 338.792 178.15 339.272 178.694 339.88C179.238 340.488 179.654 341.192 179.942 341.992C180.23 342.792 180.374 343.64 180.374 344.536V344.968C180.374 345.864 180.222 346.712 179.918 347.512C179.614 348.312 179.182 349.016 178.622 349.624C178.078 350.232 177.422 350.712 176.654 351.064C175.902 351.416 175.07 351.592 174.158 351.592C173.246 351.592 172.374 351.392 171.542 350.992C170.71 350.592 170.022 349.944 169.478 349.048C168.934 348.152 168.622 346.976 168.542 345.52L169.598 347.44V355.96H167.294ZM173.798 349.576C174.662 349.576 175.414 349.376 176.054 348.976C176.694 348.56 177.19 347.992 177.542 347.272C177.894 346.536 178.07 345.696 178.07 344.752C178.07 343.792 177.894 342.952 177.542 342.232C177.19 341.512 176.694 340.952 176.054 340.552C175.414 340.136 174.662 339.928 173.798 339.928C173.03 339.928 172.318 340.104 171.662 340.456C171.006 340.792 170.478 341.288 170.078 341.944C169.694 342.584 169.502 343.36 169.502 344.272V345.376C169.502 346.256 169.702 347.008 170.102 347.632C170.502 348.256 171.03 348.736 171.686 349.072C172.342 349.408 173.046 349.576 173.798 349.576ZM183.841 355.96V338.344H185.665V343.888L185.233 343.84C185.313 342.464 185.601 341.344 186.097 340.48C186.609 339.6 187.273 338.952 188.089 338.536C188.905 338.12 189.793 337.912 190.753 337.912C191.681 337.912 192.521 338.088 193.273 338.44C194.041 338.792 194.697 339.272 195.241 339.88C195.785 340.488 196.201 341.192 196.489 341.992C196.777 342.792 196.921 343.64 196.921 344.536V344.968C196.921 345.864 196.769 346.712 196.465 347.512C196.161 348.312 195.729 349.016 195.169 349.624C194.625 350.232 193.969 350.712 193.201 351.064C192.449 351.416 191.617 351.592 190.705 351.592C189.793 351.592 188.921 351.392 188.089 350.992C187.257 350.592 186.569 349.944 186.025 349.048C185.481 348.152 185.169 346.976 185.089 345.52L186.145 347.44V355.96H183.841ZM190.345 349.576C191.209 349.576 191.961 349.376 192.601 348.976C193.241 348.56 193.737 347.992 194.089 347.272C194.441 346.536 194.617 345.696 194.617 344.752C194.617 343.792 194.441 342.952 194.089 342.232C193.737 341.512 193.241 340.952 192.601 340.552C191.961 340.136 191.209 339.928 190.345 339.928C189.577 339.928 188.865 340.104 188.209 340.456C187.553 340.792 187.025 341.288 186.625 341.944C186.241 342.584 186.049 343.36 186.049 344.272V345.376C186.049 346.256 186.249 347.008 186.649 347.632C187.049 348.256 187.577 348.736 188.233 349.072C188.889 349.408 189.593 349.576 190.345 349.576ZM199.604 351.16V348.232H202.388V351.16H199.604Z" fill="#003FA6"/>
<path d="M44.544 553.16V535.64H46.896V553.16H44.544ZM46.416 545.36V543.248L53.928 543.224V545.336L46.416 545.36ZM46.416 537.752V535.64H54.336V537.752H46.416ZM63.3073 553.592C62.1873 553.592 61.2033 553.4 60.3553 553.016C59.5073 552.632 58.7873 552.128 58.1953 551.504C57.6193 550.864 57.1793 550.152 56.8753 549.368C56.5873 548.584 56.4433 547.784 56.4433 546.968V546.536C56.4433 545.72 56.5953 544.92 56.8993 544.136C57.2033 543.336 57.6513 542.624 58.2433 542C58.8353 541.36 59.5553 540.856 60.4033 540.488C61.2513 540.104 62.2193 539.912 63.3073 539.912C64.3953 539.912 65.3633 540.104 66.2113 540.488C67.0593 540.856 67.7793 541.36 68.3713 542C68.9633 542.624 69.4113 543.336 69.7153 544.136C70.0193 544.92 70.1713 545.72 70.1713 546.536V546.968C70.1713 547.784 70.0193 548.584 69.7153 549.368C69.4273 550.152 68.9873 550.864 68.3953 551.504C67.8193 552.128 67.1073 552.632 66.2593 553.016C65.4113 553.4 64.4273 553.592 63.3073 553.592ZM63.3073 551.528C64.2673 551.528 65.0833 551.32 65.7553 550.904C66.4433 550.472 66.9633 549.896 67.3153 549.176C67.6833 548.456 67.8673 547.648 67.8673 546.752C67.8673 545.84 67.6833 545.024 67.3153 544.304C66.9473 543.584 66.4193 543.016 65.7313 542.6C65.0593 542.184 64.2513 541.976 63.3073 541.976C62.3793 541.976 61.5713 542.184 60.8833 542.6C60.1953 543.016 59.6673 543.584 59.2993 544.304C58.9313 545.024 58.7473 545.84 58.7473 546.752C58.7473 547.648 58.9233 548.456 59.2753 549.176C59.6433 549.896 60.1633 550.472 60.8353 550.904C61.5233 551.32 62.3473 551.528 63.3073 551.528ZM73.6221 553.16V540.344H75.4461V545.624H75.3501C75.3501 543.752 75.7581 542.384 76.5741 541.52C77.4061 540.64 78.6461 540.2 80.2941 540.2H80.7261V542.264H79.9101C78.6301 542.264 77.6461 542.608 76.9581 543.296C76.2701 543.968 75.9261 544.944 75.9261 546.224V553.16H73.6221ZM89.2628 553.16V535.64H91.6148V553.16H89.2628ZM91.1348 553.16V551.048H99.6308V553.16H91.1348ZM91.1348 545.312V543.2H98.8868V545.312H91.1348ZM91.1348 537.752V535.64H99.3907V537.752H91.1348ZM105.96 553.16L101.592 540.344H103.992L108.264 553.16H105.96ZM106.536 553.16V551.336H109.32V553.16H106.536ZM107.64 553.16L111.36 540.344H113.616L109.824 553.16H107.64ZM121.844 553.592C120.724 553.592 119.756 553.4 118.94 553.016C118.124 552.632 117.46 552.128 116.948 551.504C116.436 550.864 116.052 550.152 115.796 549.368C115.556 548.584 115.436 547.784 115.436 546.968V546.536C115.436 545.704 115.556 544.896 115.796 544.112C116.052 543.328 116.436 542.624 116.948 542C117.46 541.36 118.108 540.856 118.892 540.488C119.692 540.104 120.628 539.912 121.7 539.912C123.092 539.912 124.236 540.216 125.132 540.824C126.044 541.416 126.716 542.184 127.148 543.128C127.596 544.072 127.82 545.08 127.82 546.152V547.184H116.444V545.456H126.14L125.612 546.392C125.612 545.48 125.468 544.696 125.18 544.04C124.892 543.368 124.46 542.848 123.884 542.48C123.308 542.112 122.58 541.928 121.7 541.928C120.788 541.928 120.028 542.136 119.42 542.552C118.828 542.968 118.38 543.536 118.076 544.256C117.788 544.976 117.644 545.808 117.644 546.752C117.644 547.664 117.788 548.488 118.076 549.224C118.38 549.944 118.844 550.52 119.468 550.952C120.092 551.368 120.884 551.576 121.844 551.576C122.852 551.576 123.668 551.352 124.292 550.904C124.932 550.456 125.316 549.936 125.444 549.344H127.604C127.428 550.224 127.076 550.984 126.548 551.624C126.02 552.264 125.356 552.752 124.556 553.088C123.756 553.424 122.852 553.592 121.844 553.592ZM131.091 553.16V540.344H132.915V545.624H132.819C132.819 543.752 133.227 542.384 134.043 541.52C134.875 540.64 136.115 540.2 137.763 540.2H138.195V542.264H137.379C136.099 542.264 135.115 542.608 134.427 543.296C133.739 543.968 133.395 544.944 133.395 546.224V553.16H131.091ZM140.492 558.152V556.088H142.34C142.884 556.088 143.34 556.016 143.708 555.872C144.092 555.744 144.404 555.52 144.644 555.2C144.9 554.88 145.108 554.456 145.268 553.928L149.3 540.344H151.556L147.284 554.528C147.028 555.376 146.668 556.064 146.204 556.592C145.74 557.136 145.172 557.528 144.5 557.768C143.844 558.024 143.076 558.152 142.196 558.152H140.492ZM144.404 552.872V550.952H147.188V552.872H144.404ZM144.164 552.872L139.58 540.344H141.932L146.324 552.872H144.164ZM160.151 553.592C159.031 553.592 158.047 553.4 157.199 553.016C156.351 552.632 155.631 552.128 155.039 551.504C154.463 550.864 154.023 550.152 153.719 549.368C153.431 548.584 153.287 547.784 153.287 546.968V546.536C153.287 545.72 153.439 544.92 153.743 544.136C154.047 543.336 154.495 542.624 155.087 542C155.679 541.36 156.399 540.856 157.247 540.488C158.095 540.104 159.063 539.912 160.151 539.912C161.239 539.912 162.207 540.104 163.055 540.488C163.903 540.856 164.623 541.36 165.215 542C165.807 542.624 166.255 543.336 166.559 544.136C166.863 544.92 167.015 545.72 167.015 546.536V546.968C167.015 547.784 166.863 548.584 166.559 549.368C166.271 550.152 165.831 550.864 165.239 551.504C164.663 552.128 163.951 552.632 163.103 553.016C162.255 553.4 161.271 553.592 160.151 553.592ZM160.151 551.528C161.111 551.528 161.927 551.32 162.599 550.904C163.287 550.472 163.807 549.896 164.159 549.176C164.527 548.456 164.711 547.648 164.711 546.752C164.711 545.84 164.527 545.024 164.159 544.304C163.791 543.584 163.263 543.016 162.575 542.6C161.903 542.184 161.095 541.976 160.151 541.976C159.223 541.976 158.415 542.184 157.727 542.6C157.039 543.016 156.511 543.584 156.143 544.304C155.775 545.024 155.591 545.84 155.591 546.752C155.591 547.648 155.767 548.456 156.119 549.176C156.487 549.896 157.007 550.472 157.679 550.904C158.367 551.32 159.191 551.528 160.151 551.528ZM170.466 553.16V540.344H172.29V545.84H172.002C172.002 544.576 172.17 543.512 172.506 542.648C172.858 541.768 173.386 541.104 174.09 540.656C174.794 540.192 175.682 539.96 176.754 539.96H176.85C178.466 539.96 179.658 540.464 180.426 541.472C181.21 542.48 181.602 543.936 181.602 545.84V553.16H179.298V545.36C179.298 544.368 179.018 543.576 178.458 542.984C177.898 542.376 177.13 542.072 176.154 542.072C175.146 542.072 174.33 542.384 173.706 543.008C173.082 543.632 172.77 544.464 172.77 545.504V553.16H170.466ZM191.265 553.592C190.145 553.592 189.177 553.4 188.361 553.016C187.545 552.632 186.881 552.128 186.369 551.504C185.857 550.864 185.473 550.152 185.217 549.368C184.977 548.584 184.857 547.784 184.857 546.968V546.536C184.857 545.704 184.977 544.896 185.217 544.112C185.473 543.328 185.857 542.624 186.369 542C186.881 541.36 187.529 540.856 188.313 540.488C189.113 540.104 190.049 539.912 191.121 539.912C192.513 539.912 193.657 540.216 194.553 540.824C195.465 541.416 196.137 542.184 196.569 543.128C197.017 544.072 197.241 545.08 197.241 546.152V547.184H185.865V545.456H195.561L195.033 546.392C195.033 545.48 194.889 544.696 194.601 544.04C194.313 543.368 193.881 542.848 193.305 542.48C192.729 542.112 192.001 541.928 191.121 541.928C190.209 541.928 189.449 542.136 188.841 542.552C188.249 542.968 187.801 543.536 187.497 544.256C187.209 544.976 187.065 545.808 187.065 546.752C187.065 547.664 187.209 548.488 187.497 549.224C187.801 549.944 188.265 550.52 188.889 550.952C189.513 551.368 190.305 551.576 191.265 551.576C192.273 551.576 193.089 551.352 193.713 550.904C194.353 550.456 194.737 549.936 194.865 549.344H197.025C196.849 550.224 196.497 550.984 195.969 551.624C195.441 552.264 194.777 552.752 193.977 553.088C193.177 553.424 192.273 553.592 191.265 553.592ZM199.869 553.16V550.232H202.653V553.16H199.869Z" fill="#003FA6"/>
<g filter="url(#filter0_d_33_115)">
<rect x="233" y="72" width="140" height="140" rx="32" fill="#F1F7FF"/>
</g>
<path d="M303 109V175" stroke="#003FA6" stroke-width="6" stroke-linecap="round" stroke-linejoin="round"/>
<path d="M318 121H295.5C292.715 121 290.045 122.106 288.075 124.075C286.106 126.044 285 128.715 285 131.5C285 134.285 286.106 136.955 288.075 138.924C290.045 140.894 292.715 142 295.5 142H310.5C313.285 142 315.955 143.106 317.925 145.075C319.894 147.044 321 149.715 321 152.5C321 155.285 319.894 157.955 317.925 159.924C315.955 161.894 313.285 163 310.5 163H285" stroke="#003FA6" stroke-width="6" stroke-linecap="round" stroke-linejoin="round"/>
<g filter="url(#filter1_d_33_115)">
<rect x="233" y="274" width="140" height="140" rx="32" fill="#F1F7FF"/>
</g>
<path d="M318 314H288C284.686 314 282 316.686 282 320V368C282 371.314 284.686 374 288 374H318C321.314 374 324 371.314 324 368V320C324 316.686 321.314 314 318 314Z" stroke="#003FA6" stroke-width="6" stroke-linecap="round" stroke-linejoin="round"/>
<path d="M303 362H303.03" stroke="#003FA6" stroke-width="6" stroke-linecap="round" stroke-linejoin="round"/>
<g filter="url(#filter2_d_33_115)">
<rect x="233" y="476" width="140" height="140" rx="32" fill="#F1F7FF"/>
</g>
<path d="M329.874 523.835C328.342 522.302 326.522 521.086 324.52 520.257C322.518 519.427 320.371 519 318.204 519C316.036 519 313.89 519.427 311.888 520.257C309.885 521.086 308.066 522.302 306.534 523.835L303.354 527.015L300.174 523.835C297.079 520.74 292.881 519.002 288.504 519.002C284.127 519.002 279.929 520.74 276.834 523.835C273.739 526.931 272 531.128 272 535.505C272 539.883 273.739 544.08 276.834 547.175L280.014 550.355L303.354 573.695L326.694 550.355L329.874 547.175C331.407 545.643 332.623 543.824 333.453 541.822C334.282 539.819 334.709 537.673 334.709 535.505C334.709 533.338 334.282 531.192 333.453 529.189C332.623 527.187 331.407 525.368 329.874 523.835Z" stroke="#003FA6" stroke-width="6" stroke-linecap="round" stroke-linejoin="round"/>
</g>
</g>
<defs>
<filter id="filter0_d_33_115" x="208" y="57" width="190" height="190" filterUnits="userSpaceOnUse" color-interpolation-filters="sRGB">
<feFlood flood-opacity="0" result="BackgroundImageFix"/>
<feColorMatrix in="SourceAlpha" type="matrix" values="0 0 0 0 0 0 0 0 0 0 0 0 0 0 0 0 0 0 127 0" result="hardAlpha"/>
<feMorphology radius="5" operator="erode" in="SourceAlpha" result="effect1_dropShadow_33_115"/>
<feOffset dy="10"/>
<feGaussianBlur stdDeviation="15"/>
<feComposite in2="hardAlpha" operator="out"/>
<feColorMatrix type="matrix" values="0 0 0 0 0 0 0 0 0 0.247059 0 0 0 0 0.65098 0 0 0 0.25 0"/>
<feBlend mode="normal" in2="BackgroundImageFix" result="effect1_dropShadow_33_115"/>
<feBlend mode="normal" in="SourceGraphic" in2="effect1_dropShadow_33_115" result="shape"/>
</filter>
<filter id="filter1_d_33_115" x="208" y="259" width="190" height="190" filterUnits="userSpaceOnUse" color-interpolation-filters="sRGB">
<feFlood flood-opacity="0" result="BackgroundImageFix"/>
<feColorMatrix in="SourceAlpha" type="matrix" values="0 0 0 0 0 0 0 0 0 0 0 0 0 0 0 0 0 0 127 0" result="hardAlpha"/>
<feMorphology radius="5" operator="erode" in="SourceAlpha" result="effect1_dropShadow_33_115"/>
<feOffset dy="10"/>
<feGaussianBlur stdDeviation="15"/>
<feComposite in2="hardAlpha" operator="out"/>
<feColorMatrix type="matrix" values="0 0 0 0 0 0 0 0 0 0.247059 0 0 0 0 0.65098 0 0 0 0.25 0"/>
<feBlend mode="normal" in2="BackgroundImageFix" result="effect1_dropShadow_33_115"/>
<feBlend mode="normal" in="SourceGraphic" in2="effect1_dropShadow_33_115" result="shape"/>
</filter>
<filter id="filter2_d_33_115" x="208" y="461" width="190" height="190" filterUnits="userSpaceOnUse" color-interpolation-filters="sRGB">
<feFlood flood-opacity="0" result="BackgroundImageFix"/>
<feColorMatrix in="SourceAlpha" type="matrix" values="0 0 0 0 0 0 0 0 0 0 0 0 0 0 0 0 0 0 127 0" result="hardAlpha"/>
<feMorphology radius="5" operator="erode" in="SourceAlpha" result="effect1_dropShadow_33_115"/>
<feOffset dy="10"/>
<feGaussianBlur stdDeviation="15"/>
<feComposite in2="hardAlpha" operator="out"/>
<feColorMatrix type="matrix" values="0 0 0 0 0 0 0 0 0 0.247059 0 0 0 0 0.65098 0 0 0 0.25 0"/>
<feBlend mode="normal" in2="BackgroundImageFix" result="effect1_dropShadow_33_115"/>
<feBlend mode="normal" in="SourceGraphic" in2="effect1_dropShadow_33_115" result="shape"/>
</filter>
<linearGradient id="paint0_linear_33_115" x1="-nan" y1="-nan" x2="-nan" y2="-nan" gradientUnits="userSpaceOnUse">
<stop stop-color="#003FA6"/>
<stop offset="1" stop-color="#003FA6" stop-opacity="0"/>
</linearGradient>
<clipPath id="clip0_33_115">
<rect width="410" height="880" fill="white"/>
</clipPath>
</defs>
</svg>
