<svg width="168" height="54" viewBox="0 0 168 54" fill="none" xmlns="http://www.w3.org/2000/svg">
<g clip-path="url(#clip0_37_175)">
<path d="M152 0H16C7.16344 0 0 7.16344 0 16V38C0 46.8366 7.16344 54 16 54H152C160.837 54 168 46.8366 168 38V16C168 7.16344 160.837 0 152 0Z" fill="#F1F7FF"/>
<path fill-rule="evenodd" clip-rule="evenodd" d="M35.4104 17.2083C35.16 17.4664 35 17.82 35 18.2294V35.3578C35 35.8292 35.212 36.2265 35.53 36.4893L45.1107 26.9086L35.4104 17.2083ZM46.1512 27.9491L37.8501 36.2502L48.2634 30.0613L46.1512 27.9491ZM49.5687 29.2855L47.1917 26.9086L49.7129 24.3874L51.6331 25.5287C52.5927 26.099 52.5927 27.4882 51.6331 28.0586L49.5687 29.2855ZM46.1512 25.8681L37.2831 17L48.4077 23.6117L46.1512 25.8681Z" fill="url(#paint0_linear_37_175)"/>
<path d="M65.8101 22V16.096H67.2861C68.1981 16.096 68.8911 16.348 69.3651 16.852C69.8391 17.356 70.0761 18.079 70.0761 19.021C70.0761 19.489 70.0161 19.909 69.8961 20.281C69.7761 20.647 69.5991 20.959 69.3651 21.217C69.1311 21.469 68.8431 21.664 68.5011 21.802C68.1591 21.934 67.7661 22 67.3221 22H65.8101ZM66.5571 21.388H67.2321C67.9221 21.388 68.4381 21.181 68.7801 20.767C69.1281 20.353 69.3021 19.771 69.3021 19.021C69.3021 18.271 69.1281 17.698 68.7801 17.302C68.4381 16.906 67.9221 16.708 67.2321 16.708H66.5571V21.388ZM72.9762 22.108C72.7062 22.108 72.4482 22.057 72.2022 21.955C71.9622 21.853 71.7492 21.706 71.5632 21.514C71.3772 21.316 71.2272 21.076 71.1132 20.794C71.0052 20.506 70.9512 20.182 70.9512 19.822C70.9512 19.456 71.0052 19.132 71.1132 18.85C71.2272 18.562 71.3772 18.319 71.5632 18.121C71.7492 17.923 71.9622 17.773 72.2022 17.671C72.4482 17.569 72.7062 17.518 72.9762 17.518C73.2462 17.518 73.5012 17.569 73.7412 17.671C73.9872 17.773 74.2032 17.923 74.3892 18.121C74.5752 18.319 74.7222 18.562 74.8302 18.85C74.9442 19.132 75.0012 19.456 75.0012 19.822C75.0012 20.182 74.9442 20.506 74.8302 20.794C74.7222 21.076 74.5752 21.316 74.3892 21.514C74.2032 21.706 73.9872 21.853 73.7412 21.955C73.5012 22.057 73.2462 22.108 72.9762 22.108ZM72.9762 21.496C73.1622 21.496 73.3332 21.457 73.4892 21.379C73.6452 21.295 73.7772 21.181 73.8852 21.037C73.9992 20.887 74.0862 20.71 74.1462 20.506C74.2062 20.302 74.2362 20.074 74.2362 19.822C74.2362 19.57 74.2062 19.342 74.1462 19.138C74.0862 18.928 73.9992 18.748 73.8852 18.598C73.7772 18.448 73.6452 18.334 73.4892 18.256C73.3332 18.172 73.1622 18.13 72.9762 18.13C72.7902 18.13 72.6192 18.172 72.4632 18.256C72.3072 18.334 72.1722 18.448 72.0582 18.598C71.9502 18.748 71.8662 18.928 71.8062 19.138C71.7462 19.342 71.7162 19.57 71.7162 19.822C71.7162 20.074 71.7462 20.302 71.8062 20.506C71.8662 20.71 71.9502 20.887 72.0582 21.037C72.1722 21.181 72.3072 21.295 72.4632 21.379C72.6192 21.457 72.7902 21.496 72.9762 21.496ZM76.811 22L75.596 17.626H76.352L77 20.155C77.048 20.365 77.093 20.569 77.135 20.767C77.177 20.965 77.219 21.166 77.261 21.37H77.297C77.345 21.166 77.393 20.965 77.441 20.767C77.489 20.563 77.54 20.359 77.594 20.155L78.269 17.626H78.989L79.673 20.155C79.727 20.365 79.778 20.569 79.826 20.767C79.88 20.965 79.931 21.166 79.979 21.37H80.015C80.063 21.166 80.108 20.965 80.15 20.767C80.192 20.569 80.237 20.365 80.285 20.155L80.924 17.626H81.626L80.456 22H79.556L78.926 19.651C78.872 19.441 78.821 19.234 78.773 19.03C78.731 18.826 78.683 18.613 78.629 18.391H78.593C78.545 18.613 78.497 18.829 78.449 19.039C78.401 19.243 78.347 19.45 78.287 19.66L77.675 22H76.811ZM82.5779 22V17.626H83.1899L83.2529 18.256H83.2799C83.4899 18.046 83.7089 17.872 83.9369 17.734C84.1709 17.59 84.4409 17.518 84.7469 17.518C85.2089 17.518 85.5449 17.662 85.7549 17.95C85.9709 18.238 86.0789 18.664 86.0789 19.228V22H85.3409V19.327C85.3409 18.913 85.2749 18.616 85.1429 18.436C85.0109 18.25 84.8009 18.157 84.5129 18.157C84.2849 18.157 84.0839 18.214 83.9099 18.328C83.7359 18.442 83.5379 18.61 83.3159 18.832V22H82.5779ZM88.2828 22.108C88.0008 22.108 87.7998 22.024 87.6798 21.856C87.5598 21.688 87.4998 21.442 87.4998 21.118V15.592H88.2378V21.172C88.2378 21.292 88.2588 21.376 88.3008 21.424C88.3428 21.472 88.3908 21.496 88.4448 21.496C88.4688 21.496 88.4898 21.496 88.5078 21.496C88.5318 21.496 88.5648 21.49 88.6068 21.478L88.7058 22.036C88.6578 22.06 88.6008 22.078 88.5348 22.09C88.4688 22.102 88.3848 22.108 88.2828 22.108ZM91.4948 22.108C91.2248 22.108 90.9668 22.057 90.7208 21.955C90.4808 21.853 90.2678 21.706 90.0818 21.514C89.8958 21.316 89.7458 21.076 89.6318 20.794C89.5238 20.506 89.4698 20.182 89.4698 19.822C89.4698 19.456 89.5238 19.132 89.6318 18.85C89.7458 18.562 89.8958 18.319 90.0818 18.121C90.2678 17.923 90.4808 17.773 90.7208 17.671C90.9668 17.569 91.2248 17.518 91.4948 17.518C91.7648 17.518 92.0198 17.569 92.2598 17.671C92.5058 17.773 92.7218 17.923 92.9078 18.121C93.0938 18.319 93.2408 18.562 93.3488 18.85C93.4628 19.132 93.5198 19.456 93.5198 19.822C93.5198 20.182 93.4628 20.506 93.3488 20.794C93.2408 21.076 93.0938 21.316 92.9078 21.514C92.7218 21.706 92.5058 21.853 92.2598 21.955C92.0198 22.057 91.7648 22.108 91.4948 22.108ZM91.4948 21.496C91.6808 21.496 91.8518 21.457 92.0078 21.379C92.1638 21.295 92.2958 21.181 92.4038 21.037C92.5178 20.887 92.6048 20.71 92.6648 20.506C92.7248 20.302 92.7548 20.074 92.7548 19.822C92.7548 19.57 92.7248 19.342 92.6648 19.138C92.6048 18.928 92.5178 18.748 92.4038 18.598C92.2958 18.448 92.1638 18.334 92.0078 18.256C91.8518 18.172 91.6808 18.13 91.4948 18.13C91.3088 18.13 91.1378 18.172 90.9818 18.256C90.8258 18.334 90.6908 18.448 90.5768 18.598C90.4688 18.748 90.3848 18.928 90.3248 19.138C90.2648 19.342 90.2348 19.57 90.2348 19.822C90.2348 20.074 90.2648 20.302 90.3248 20.506C90.3848 20.71 90.4688 20.887 90.5768 21.037C90.6908 21.181 90.8258 21.295 90.9818 21.379C91.1378 21.457 91.3088 21.496 91.4948 21.496ZM95.5566 22.108C95.1906 22.108 94.8846 22 94.6386 21.784C94.3986 21.568 94.2786 21.262 94.2786 20.866C94.2786 20.386 94.4916 20.02 94.9176 19.768C95.3436 19.51 96.0246 19.33 96.9606 19.228C96.9606 19.09 96.9456 18.955 96.9156 18.823C96.8916 18.691 96.8466 18.574 96.7806 18.472C96.7146 18.37 96.6216 18.289 96.5016 18.229C96.3876 18.163 96.2406 18.13 96.0606 18.13C95.8086 18.13 95.5716 18.178 95.3496 18.274C95.1276 18.37 94.9296 18.478 94.7556 18.598L94.4676 18.085C94.6716 17.953 94.9206 17.827 95.2146 17.707C95.5086 17.581 95.8326 17.518 96.1866 17.518C96.7206 17.518 97.1076 17.683 97.3476 18.013C97.5876 18.337 97.7076 18.772 97.7076 19.318V22H97.0956L97.0326 21.478H97.0056C96.7956 21.652 96.5706 21.802 96.3306 21.928C96.0906 22.048 95.8326 22.108 95.5566 22.108ZM95.7726 21.514C95.9826 21.514 96.1806 21.466 96.3666 21.37C96.5526 21.268 96.7506 21.121 96.9606 20.929V19.714C96.5946 19.762 96.2856 19.819 96.0336 19.885C95.7876 19.951 95.5866 20.029 95.4306 20.119C95.2806 20.209 95.1696 20.314 95.0976 20.434C95.0316 20.548 94.9986 20.674 94.9986 20.812C94.9986 21.064 95.0736 21.244 95.2236 21.352C95.3736 21.46 95.5566 21.514 95.7726 21.514ZM100.578 22.108C100.026 22.108 99.5848 21.91 99.2548 21.514C98.9308 21.118 98.7688 20.554 98.7688 19.822C98.7688 19.468 98.8198 19.15 98.9218 18.868C99.0298 18.58 99.1708 18.337 99.3448 18.139C99.5188 17.941 99.7198 17.788 99.9478 17.68C100.176 17.572 100.416 17.518 100.668 17.518C100.92 17.518 101.139 17.563 101.325 17.653C101.511 17.743 101.7 17.866 101.892 18.022L101.856 17.275V15.592H102.603V22H101.991L101.928 21.487H101.901C101.727 21.655 101.526 21.802 101.298 21.928C101.076 22.048 100.836 22.108 100.578 22.108ZM100.74 21.487C100.944 21.487 101.136 21.439 101.316 21.343C101.496 21.241 101.676 21.088 101.856 20.884V18.598C101.67 18.43 101.49 18.313 101.316 18.247C101.148 18.175 100.974 18.139 100.794 18.139C100.62 18.139 100.455 18.181 100.299 18.265C100.149 18.343 100.017 18.457 99.9028 18.607C99.7888 18.751 99.6988 18.925 99.6328 19.129C99.5668 19.333 99.5338 19.561 99.5338 19.813C99.5338 20.341 99.6388 20.752 99.8488 21.046C100.059 21.34 100.356 21.487 100.74 21.487ZM106.823 22L105.248 17.626H106.013L106.841 20.11C106.907 20.326 106.973 20.542 107.039 20.758C107.111 20.974 107.18 21.187 107.246 21.397H107.282C107.348 21.187 107.414 20.974 107.48 20.758C107.546 20.542 107.612 20.326 107.678 20.11L108.506 17.626H109.235L107.687 22H106.823ZM110.079 22V17.626H110.817V22H110.079ZM110.457 16.726C110.313 16.726 110.19 16.681 110.088 16.591C109.992 16.501 109.944 16.387 109.944 16.249C109.944 16.105 109.992 15.991 110.088 15.907C110.19 15.817 110.313 15.772 110.457 15.772C110.601 15.772 110.721 15.817 110.817 15.907C110.919 15.991 110.97 16.105 110.97 16.249C110.97 16.387 110.919 16.501 110.817 16.591C110.721 16.681 110.601 16.726 110.457 16.726ZM113.302 22.108C112.936 22.108 112.63 22 112.384 21.784C112.144 21.568 112.024 21.262 112.024 20.866C112.024 20.386 112.237 20.02 112.663 19.768C113.089 19.51 113.77 19.33 114.706 19.228C114.706 19.09 114.691 18.955 114.661 18.823C114.637 18.691 114.592 18.574 114.526 18.472C114.46 18.37 114.367 18.289 114.247 18.229C114.133 18.163 113.986 18.13 113.806 18.13C113.554 18.13 113.317 18.178 113.095 18.274C112.873 18.37 112.675 18.478 112.501 18.598L112.213 18.085C112.417 17.953 112.666 17.827 112.96 17.707C113.254 17.581 113.578 17.518 113.932 17.518C114.466 17.518 114.853 17.683 115.093 18.013C115.333 18.337 115.453 18.772 115.453 19.318V22H114.841L114.778 21.478H114.751C114.541 21.652 114.316 21.802 114.076 21.928C113.836 22.048 113.578 22.108 113.302 22.108ZM113.518 21.514C113.728 21.514 113.926 21.466 114.112 21.37C114.298 21.268 114.496 21.121 114.706 20.929V19.714C114.34 19.762 114.031 19.819 113.779 19.885C113.533 19.951 113.332 20.029 113.176 20.119C113.026 20.209 112.915 20.314 112.843 20.434C112.777 20.548 112.744 20.674 112.744 20.812C112.744 21.064 112.819 21.244 112.969 21.352C113.119 21.46 113.302 21.514 113.518 21.514Z" fill="#242526"/>
<path d="M70.7451 37.156C70.1644 37.156 69.6184 37.065 69.1071 36.883C68.6044 36.6923 68.1668 36.415 67.7941 36.051C67.4214 35.687 67.1268 35.2363 66.9101 34.699C66.7021 34.153 66.5981 33.5247 66.5981 32.814C66.5981 32.112 66.7064 31.488 66.9231 30.942C67.1398 30.3873 67.4344 29.9193 67.8071 29.538C68.1884 29.1567 68.6304 28.8663 69.1331 28.667C69.6358 28.4677 70.1688 28.368 70.7321 28.368C71.3474 28.368 71.8761 28.4807 72.3181 28.706C72.7601 28.9313 73.1198 29.187 73.3971 29.473L72.3961 30.695C72.1794 30.5043 71.9498 30.344 71.7071 30.214C71.4644 30.084 71.1611 30.019 70.7971 30.019C70.4678 30.019 70.1644 30.084 69.8871 30.214C69.6184 30.3353 69.3844 30.513 69.1851 30.747C68.9858 30.981 68.8298 31.267 68.7171 31.605C68.6131 31.943 68.5611 32.3243 68.5611 32.749C68.5611 33.6243 68.7561 34.3047 69.1461 34.79C69.5448 35.2667 70.1428 35.505 70.9401 35.505C71.1134 35.505 71.2824 35.4833 71.4471 35.44C71.6118 35.3967 71.7461 35.3317 71.8501 35.245V33.789H70.4461V32.229H73.5401V36.129C73.2454 36.415 72.8554 36.6577 72.3701 36.857C71.8848 37.0563 71.3431 37.156 70.7451 37.156ZM77.9041 37.156C77.4968 37.156 77.1025 37.0823 76.7211 36.935C76.3398 36.779 76.0018 36.558 75.7071 36.272C75.4211 35.986 75.1915 35.635 75.0181 35.219C74.8448 34.7943 74.7581 34.3133 74.7581 33.776C74.7581 33.2387 74.8448 32.762 75.0181 32.346C75.1915 31.9213 75.4211 31.566 75.7071 31.28C76.0018 30.994 76.3398 30.7773 76.7211 30.63C77.1025 30.474 77.4968 30.396 77.9041 30.396C78.3115 30.396 78.7015 30.474 79.0741 30.63C79.4555 30.7773 79.7891 30.994 80.0751 31.28C80.3698 31.566 80.6038 31.9213 80.7771 32.346C80.9505 32.762 81.0371 33.2387 81.0371 33.776C81.0371 34.3133 80.9505 34.7943 80.7771 35.219C80.6038 35.635 80.3698 35.986 80.0751 36.272C79.7891 36.558 79.4555 36.779 79.0741 36.935C78.7015 37.0823 78.3115 37.156 77.9041 37.156ZM77.9041 35.609C78.2941 35.609 78.5888 35.4443 78.7881 35.115C78.9875 34.7857 79.0871 34.3393 79.0871 33.776C79.0871 33.2127 78.9875 32.7663 78.7881 32.437C78.5888 32.1077 78.2941 31.943 77.9041 31.943C77.5055 31.943 77.2065 32.1077 77.0071 32.437C76.8165 32.7663 76.7211 33.2127 76.7211 33.776C76.7211 34.3393 76.8165 34.7857 77.0071 35.115C77.2065 35.4443 77.5055 35.609 77.9041 35.609ZM85.1151 37.156C84.7077 37.156 84.3134 37.0823 83.9321 36.935C83.5507 36.779 83.2127 36.558 82.9181 36.272C82.6321 35.986 82.4024 35.635 82.2291 35.219C82.0557 34.7943 81.9691 34.3133 81.9691 33.776C81.9691 33.2387 82.0557 32.762 82.2291 32.346C82.4024 31.9213 82.6321 31.566 82.9181 31.28C83.2127 30.994 83.5507 30.7773 83.9321 30.63C84.3134 30.474 84.7077 30.396 85.1151 30.396C85.5224 30.396 85.9124 30.474 86.2851 30.63C86.6664 30.7773 87.0001 30.994 87.2861 31.28C87.5807 31.566 87.8147 31.9213 87.9881 32.346C88.1614 32.762 88.2481 33.2387 88.2481 33.776C88.2481 34.3133 88.1614 34.7943 87.9881 35.219C87.8147 35.635 87.5807 35.986 87.2861 36.272C87.0001 36.558 86.6664 36.779 86.2851 36.935C85.9124 37.0823 85.5224 37.156 85.1151 37.156ZM85.1151 35.609C85.5051 35.609 85.7997 35.4443 85.9991 35.115C86.1984 34.7857 86.2981 34.3393 86.2981 33.776C86.2981 33.2127 86.1984 32.7663 85.9991 32.437C85.7997 32.1077 85.5051 31.943 85.1151 31.943C84.7164 31.943 84.4174 32.1077 84.2181 32.437C84.0274 32.7663 83.9321 33.2127 83.9321 33.776C83.9321 34.3393 84.0274 34.7857 84.2181 35.115C84.4174 35.4443 84.7164 35.609 85.1151 35.609ZM91.858 39.743C91.4767 39.743 91.1213 39.7083 90.792 39.639C90.4713 39.5783 90.1853 39.483 89.934 39.353C89.6913 39.223 89.5007 39.054 89.362 38.846C89.2233 38.638 89.154 38.391 89.154 38.105C89.154 37.585 89.4617 37.1517 90.077 36.805V36.753C89.9037 36.6403 89.7607 36.4973 89.648 36.324C89.5353 36.1507 89.479 35.9297 89.479 35.661C89.479 35.427 89.5483 35.206 89.687 34.998C89.8257 34.7813 89.999 34.5993 90.207 34.452V34.4C89.9817 34.244 89.778 34.023 89.596 33.737C89.4227 33.4423 89.336 33.1043 89.336 32.723C89.336 32.333 89.4097 31.995 89.557 31.709C89.7043 31.4143 89.8993 31.1717 90.142 30.981C90.3933 30.7817 90.6793 30.6343 91 30.539C91.3207 30.4437 91.6543 30.396 92.001 30.396C92.3823 30.396 92.716 30.448 93.002 30.552H95.355V31.943H94.328C94.3887 32.0383 94.4363 32.1597 94.471 32.307C94.5143 32.4543 94.536 32.6147 94.536 32.788C94.536 33.1607 94.471 33.4857 94.341 33.763C94.211 34.0317 94.029 34.257 93.795 34.439C93.5697 34.6123 93.301 34.7423 92.989 34.829C92.6857 34.9157 92.3563 34.959 92.001 34.959C91.7497 34.959 91.4897 34.9157 91.221 34.829C91.1343 34.8983 91.0737 34.9677 91.039 35.037C91.0043 35.1063 90.987 35.1973 90.987 35.31C90.987 35.4747 91.0563 35.596 91.195 35.674C91.3423 35.752 91.598 35.791 91.962 35.791H93.002C93.7993 35.791 94.406 35.921 94.822 36.181C95.2467 36.4323 95.459 36.8483 95.459 37.429C95.459 37.767 95.3723 38.0747 95.199 38.352C95.0343 38.638 94.796 38.8807 94.484 39.08C94.172 39.288 93.795 39.4483 93.353 39.561C92.911 39.6823 92.4127 39.743 91.858 39.743ZM92.001 33.802C92.2523 33.802 92.4603 33.7153 92.625 33.542C92.7983 33.36 92.885 33.087 92.885 32.723C92.885 32.385 92.7983 32.1293 92.625 31.956C92.4603 31.774 92.2523 31.683 92.001 31.683C91.7497 31.683 91.5373 31.7697 91.364 31.943C91.1993 32.1163 91.117 32.3763 91.117 32.723C91.117 33.087 91.1993 33.36 91.364 33.542C91.5373 33.7153 91.7497 33.802 92.001 33.802ZM92.157 38.547C92.5903 38.547 92.9457 38.469 93.223 38.313C93.5003 38.1657 93.639 37.9793 93.639 37.754C93.639 37.5547 93.5523 37.4203 93.379 37.351C93.2143 37.2817 92.9717 37.247 92.651 37.247H91.988C91.7627 37.247 91.5807 37.2383 91.442 37.221C91.3033 37.2123 91.182 37.195 91.078 37.169C90.844 37.377 90.727 37.5893 90.727 37.806C90.727 38.0487 90.857 38.2307 91.117 38.352C91.377 38.482 91.7237 38.547 92.157 38.547ZM98.2564 37.156C97.927 37.156 97.6497 37.104 97.4244 37C97.199 36.896 97.017 36.753 96.8784 36.571C96.7484 36.3803 96.653 36.155 96.5924 35.895C96.5317 35.6263 96.5014 35.3273 96.5014 34.998V27.887H98.4124V35.076C98.4124 35.2753 98.447 35.414 98.5164 35.492C98.5944 35.57 98.6724 35.609 98.7504 35.609C98.7937 35.609 98.8284 35.609 98.8544 35.609C98.889 35.609 98.9324 35.6003 98.9844 35.583L99.2184 37C99.1144 37.0433 98.98 37.078 98.8154 37.104C98.6594 37.1387 98.473 37.156 98.2564 37.156ZM103.107 37.156C102.648 37.156 102.219 37.0823 101.82 36.935C101.421 36.779 101.075 36.558 100.78 36.272C100.485 35.9773 100.256 35.622 100.091 35.206C99.9264 34.79 99.8441 34.3133 99.8441 33.776C99.8441 33.256 99.9307 32.788 100.104 32.372C100.277 31.9473 100.503 31.592 100.78 31.306C101.066 31.0113 101.391 30.786 101.755 30.63C102.119 30.474 102.496 30.396 102.886 30.396C103.345 30.396 103.744 30.474 104.082 30.63C104.429 30.786 104.715 31.0027 104.94 31.28C105.174 31.5573 105.347 31.8867 105.46 32.268C105.573 32.6407 105.629 33.048 105.629 33.49C105.629 33.6633 105.62 33.828 105.603 33.984C105.586 34.14 105.568 34.257 105.551 34.335H101.69C101.777 34.803 101.967 35.1497 102.262 35.375C102.565 35.5917 102.934 35.7 103.367 35.7C103.826 35.7 104.29 35.557 104.758 35.271L105.395 36.428C105.066 36.6533 104.697 36.831 104.29 36.961C103.891 37.091 103.497 37.156 103.107 37.156ZM101.677 33.074H104.004C104.004 32.71 103.922 32.4153 103.757 32.19C103.592 31.9647 103.315 31.852 102.925 31.852C102.622 31.852 102.353 31.9517 102.119 32.151C101.894 32.3503 101.746 32.658 101.677 33.074ZM109.708 37V28.524H112.62C113.088 28.524 113.526 28.5717 113.933 28.667C114.34 28.7537 114.696 28.9053 114.999 29.122C115.302 29.33 115.541 29.6117 115.714 29.967C115.896 30.3137 115.987 30.7427 115.987 31.254C115.987 31.748 115.896 32.177 115.714 32.541C115.541 32.905 115.302 33.204 114.999 33.438C114.696 33.672 114.345 33.8453 113.946 33.958C113.547 34.0707 113.123 34.127 112.672 34.127H111.619V37H109.708ZM111.619 32.606H112.555C113.595 32.606 114.115 32.1553 114.115 31.254C114.115 30.812 113.976 30.5 113.699 30.318C113.422 30.136 113.023 30.045 112.503 30.045H111.619V32.606ZM119.051 37.156C118.722 37.156 118.445 37.104 118.219 37C117.994 36.896 117.812 36.753 117.673 36.571C117.543 36.3803 117.448 36.155 117.387 35.895C117.327 35.6263 117.296 35.3273 117.296 34.998V27.887H119.207V35.076C119.207 35.2753 119.242 35.414 119.311 35.492C119.389 35.57 119.467 35.609 119.545 35.609C119.589 35.609 119.623 35.609 119.649 35.609C119.684 35.609 119.727 35.6003 119.779 35.583L120.013 37C119.909 37.0433 119.775 37.078 119.61 37.104C119.454 37.1387 119.268 37.156 119.051 37.156ZM122.641 37.156C122.346 37.156 122.078 37.104 121.835 37C121.601 36.9047 121.402 36.7703 121.237 36.597C121.072 36.415 120.942 36.207 120.847 35.973C120.76 35.739 120.717 35.4833 120.717 35.206C120.717 34.53 121.003 34.0013 121.575 33.62C122.147 33.2387 123.07 32.983 124.344 32.853C124.327 32.567 124.24 32.3417 124.084 32.177C123.937 32.0037 123.685 31.917 123.33 31.917C123.053 31.917 122.775 31.969 122.498 32.073C122.229 32.177 121.939 32.32 121.627 32.502L120.938 31.241C121.354 30.9897 121.787 30.786 122.238 30.63C122.697 30.474 123.183 30.396 123.694 30.396C124.526 30.396 125.159 30.6343 125.592 31.111C126.034 31.579 126.255 32.3113 126.255 33.308V37H124.695L124.565 36.337H124.513C124.236 36.5797 123.945 36.779 123.642 36.935C123.339 37.0823 123.005 37.156 122.641 37.156ZM123.291 35.674C123.508 35.674 123.694 35.6263 123.85 35.531C124.006 35.4357 124.171 35.3013 124.344 35.128V33.997C123.668 34.0923 123.2 34.231 122.94 34.413C122.68 34.595 122.55 34.8117 122.55 35.063C122.55 35.271 122.615 35.427 122.745 35.531C122.884 35.6263 123.066 35.674 123.291 35.674ZM128.586 39.522C128.387 39.522 128.218 39.509 128.079 39.483C127.941 39.4657 127.806 39.4353 127.676 39.392L128.014 37.936C128.075 37.9533 128.144 37.9707 128.222 37.988C128.3 38.0053 128.374 38.014 128.443 38.014C128.764 38.014 129.011 37.936 129.184 37.78C129.358 37.624 129.488 37.4203 129.574 37.169L129.665 36.831L127.182 30.552H129.106L130.029 33.321C130.125 33.6157 130.211 33.9147 130.289 34.218C130.367 34.5213 130.45 34.8333 130.536 35.154H130.588C130.658 34.8507 130.727 34.5473 130.796 34.244C130.874 33.932 130.952 33.6243 131.03 33.321L131.81 30.552H133.643L131.407 37.065C131.251 37.4723 131.087 37.8277 130.913 38.131C130.749 38.443 130.554 38.6987 130.328 38.898C130.112 39.106 129.86 39.262 129.574 39.366C129.297 39.47 128.968 39.522 128.586 39.522Z" fill="#242526"/>
</g>
<defs>
<linearGradient id="paint0_linear_37_175" x1="49.6631" y1="19.6311" x2="36.7729" y2="32.8604" gradientUnits="userSpaceOnUse">
<stop stop-color="#1B6CE7"/>
<stop offset="1" stop-color="#003FA6"/>
</linearGradient>
<clipPath id="clip0_37_175">
<rect width="168" height="54" fill="white"/>
</clipPath>
</defs>
</svg>
