<svg width="48" height="48" viewBox="0 0 48 48" fill="none" xmlns="http://www.w3.org/2000/svg">
<path d="M32 8H16C11.5817 8 8 11.5817 8 16V32C8 36.4183 11.5817 40 16 40H32C36.4183 40 40 36.4183 40 32V16C40 11.5817 36.4183 8 32 8Z" stroke="#E1EBF9" stroke-width="2" stroke-linecap="round" stroke-linejoin="round"/>
<path d="M30.4002 22.992C30.5976 24.3236 30.3702 25.6835 29.7502 26.8784C29.1302 28.0733 28.1492 29.0423 26.9468 29.6475C25.7443 30.2527 24.3817 30.4633 23.0526 30.2495C21.7236 30.0356 20.4958 29.4081 19.5439 28.4563C18.592 27.5044 17.9645 26.2766 17.7507 24.9475C17.5368 23.6185 17.7475 22.2558 18.3527 21.0534C18.9579 19.851 19.9269 18.87 21.1217 18.25C22.3166 17.63 23.6766 17.4025 25.0082 17.6C26.3664 17.8014 27.6239 18.4343 28.5949 19.4053C29.5658 20.3762 30.1988 21.6337 30.4002 22.992Z" stroke="#E1EBF9" stroke-width="2" stroke-linecap="round" stroke-linejoin="round"/>
<path d="M32.7998 15.1987H32.8167" stroke="#E1EBF9" stroke-width="2" stroke-linecap="round" stroke-linejoin="round"/>
</svg>
