<svg width="72" height="73" viewBox="0 0 72 73" fill="none" xmlns="http://www.w3.org/2000/svg">
<g clip-path="url(#clip0_80_263)">
<mask id="mask0_80_263" style="mask-type:luminance" maskUnits="userSpaceOnUse" x="0" y="0" width="72" height="73">
<path d="M72 0.5H0V72.5H72V0.5Z" fill="white"/>
</mask>
<g mask="url(#mask0_80_263)">
<path d="M54.9231 0.5H17.0769C7.64559 0.5 0 8.14559 0 17.5769V55.4231C0 64.8544 7.64559 72.5 17.0769 72.5H54.9231C64.3544 72.5 72 64.8544 72 55.4231V17.5769C72 8.14559 64.3544 0.5 54.9231 0.5Z" fill="#FAFCFF"/>
<path d="M36 19.5V52.5" stroke="url(#paint0_linear_80_263)" stroke-width="3" stroke-linecap="round" stroke-linejoin="round"/>
<path d="M43.5 25.5H32.25C30.8576 25.5 29.5223 26.0531 28.5377 27.0377C27.5531 28.0223 27 29.3576 27 30.75C27 32.1424 27.5531 33.4777 28.5377 34.4623C29.5223 35.4469 30.8576 36 32.25 36H39.75C41.1424 36 42.4777 36.5531 43.4623 37.5377C44.4469 38.5223 45 39.8576 45 41.25C45 42.6424 44.4469 43.9777 43.4623 44.9623C42.4777 45.9469 41.1424 46.5 39.75 46.5H27" stroke="url(#paint1_linear_80_263)" stroke-width="3" stroke-linecap="round" stroke-linejoin="round"/>
</g>
</g>
<defs>
<linearGradient id="paint0_linear_80_263" x1="0" y1="0" x2="0" y2="0" gradientUnits="userSpaceOnUse">
<stop stop-color="#1B6CE7"/>
<stop offset="1" stop-color="#003FA6"/>
</linearGradient>
<linearGradient id="paint1_linear_80_263" x1="42.21" y1="28.335" x2="28.3169" y2="42.0614" gradientUnits="userSpaceOnUse">
<stop stop-color="#1B6CE7"/>
<stop offset="1" stop-color="#003FA6"/>
</linearGradient>
<clipPath id="clip0_80_263">
<rect width="72" height="72" fill="white" transform="translate(0 0.5)"/>
</clipPath>
</defs>
</svg>
