<svg width="72" height="73" viewBox="0 0 72 73" fill="none" xmlns="http://www.w3.org/2000/svg">
<g clip-path="url(#clip0_80_278)">
<mask id="mask0_80_278" style="mask-type:luminance" maskUnits="userSpaceOnUse" x="0" y="0" width="72" height="73">
<path d="M72 0.5H0V72.5H72V0.5Z" fill="white"/>
</mask>
<g mask="url(#mask0_80_278)">
<path d="M54.9231 0.5H17.0769C7.64559 0.5 0 8.14559 0 17.5769V55.4231C0 64.8544 7.64559 72.5 17.0769 72.5H54.9231C64.3544 72.5 72 64.8544 72 55.4231V17.5769C72 8.14559 64.3544 0.5 54.9231 0.5Z" fill="white"/>
<path d="M35.9999 41.8639C38.4098 41.8639 40.3635 39.9103 40.3635 37.5003C40.3635 35.0903 38.4098 33.1367 35.9999 33.1367C33.5899 33.1367 31.6362 35.0903 31.6362 37.5003C31.6362 39.9103 33.5899 41.8639 35.9999 41.8639Z" stroke="url(#paint0_linear_80_278)" stroke-width="3" stroke-linecap="round" stroke-linejoin="round"/>
<path d="M46.7636 41.8636C46.57 42.3024 46.5123 42.789 46.5978 43.2609C46.6834 43.7327 46.9083 44.1681 47.2436 44.5109L47.3309 44.5982C47.6014 44.8684 47.816 45.1892 47.9624 45.5424C48.1088 45.8955 48.1841 46.2741 48.1841 46.6564C48.1841 47.0387 48.1088 47.4172 47.9624 47.7704C47.816 48.1235 47.6014 48.4444 47.3309 48.7145C47.0607 48.985 46.7399 49.1996 46.3867 49.346C46.0336 49.4924 45.655 49.5677 45.2727 49.5677C44.8904 49.5677 44.5119 49.4924 44.1587 49.346C43.8056 49.1996 43.4847 48.985 43.2145 48.7145L43.1273 48.6273C42.7845 48.2919 42.3491 48.067 41.8772 47.9814C41.4054 47.8959 40.9187 47.9537 40.48 48.1473C40.0498 48.3317 39.6829 48.6378 39.4244 49.0281C39.166 49.4183 39.0273 49.8756 39.0255 50.3436V50.5909C39.0255 51.3624 38.719 52.1024 38.1734 52.6479C37.6278 53.1935 36.8879 53.5 36.1164 53.5C35.3448 53.5 34.6049 53.1935 34.0593 52.6479C33.5138 52.1024 33.2073 51.3624 33.2073 50.5909V50.46C33.196 49.9786 33.0402 49.5116 32.76 49.1199C32.4799 48.7282 32.0883 48.4299 31.6364 48.2636C31.1976 48.07 30.711 48.0123 30.2391 48.0978C29.7673 48.1834 29.3319 48.4083 28.9891 48.7436L28.9018 48.8309C28.6316 49.1014 28.3108 49.316 27.9576 49.4624C27.6045 49.6088 27.2259 49.6841 26.8436 49.6841C26.4613 49.6841 26.0828 49.6088 25.7296 49.4624C25.3765 49.316 25.0556 49.1014 24.7855 48.8309C24.515 48.5607 24.3004 48.2399 24.154 47.8867C24.0076 47.5336 23.9323 47.155 23.9323 46.7727C23.9323 46.3904 24.0076 46.0119 24.154 45.6587C24.3004 45.3056 24.515 44.9847 24.7855 44.7145L24.8727 44.6273C25.2081 44.2845 25.433 43.8491 25.5186 43.3772C25.6041 42.9054 25.5463 42.4187 25.3527 41.98C25.1683 41.5498 24.8622 41.1829 24.4719 40.9244C24.0817 40.666 23.6244 40.5273 23.1564 40.5255H22.9091C22.1376 40.5255 21.3976 40.219 20.8521 39.6734C20.3065 39.1278 20 38.3879 20 37.6164C20 36.8448 20.3065 36.1049 20.8521 35.5593C21.3976 35.0138 22.1376 34.7073 22.9091 34.7073H23.04C23.5214 34.696 23.9884 34.5402 24.3801 34.26C24.7718 33.9799 25.0701 33.5883 25.2364 33.1364C25.43 32.6976 25.4877 32.211 25.4022 31.7391C25.3166 31.2673 25.0917 30.8319 24.7564 30.4891L24.6691 30.4018C24.3986 30.1316 24.184 29.8108 24.0376 29.4576C23.8912 29.1045 23.8159 28.7259 23.8159 28.3436C23.8159 27.9613 23.8912 27.5828 24.0376 27.2296C24.184 26.8765 24.3986 26.5556 24.6691 26.2855C24.9393 26.015 25.2601 25.8004 25.6133 25.654C25.9664 25.5076 26.345 25.4323 26.7273 25.4323C27.1096 25.4323 27.4881 25.5076 27.8413 25.654C28.1944 25.8004 28.5153 26.015 28.7855 26.2855L28.8727 26.3727C29.2155 26.7081 29.6509 26.933 30.1228 27.0186C30.5946 27.1041 31.0813 27.0463 31.52 26.8527H31.6364C32.0666 26.6683 32.4335 26.3622 32.6919 25.9719C32.9504 25.5817 33.089 25.1244 33.0909 24.6564V24.4091C33.0909 23.6376 33.3974 22.8976 33.943 22.3521C34.4885 21.8065 35.2285 21.5 36 21.5C36.7715 21.5 37.5115 21.8065 38.057 22.3521C38.6026 22.8976 38.9091 23.6376 38.9091 24.4091V24.54C38.911 25.0081 39.0496 25.4653 39.3081 25.8556C39.5665 26.2458 39.9334 26.552 40.3636 26.7364C40.8024 26.93 41.289 26.9877 41.7609 26.9022C42.2327 26.8166 42.6681 26.5917 43.0109 26.2564L43.0982 26.1691C43.3684 25.8986 43.6892 25.684 44.0424 25.5376C44.3955 25.3912 44.7741 25.3159 45.1564 25.3159C45.5387 25.3159 45.9172 25.3912 46.2704 25.5376C46.6235 25.684 46.9444 25.8986 47.2145 26.1691C47.485 26.4393 47.6996 26.7601 47.846 27.1133C47.9924 27.4664 48.0677 27.845 48.0677 28.2273C48.0677 28.6096 47.9924 28.9881 47.846 29.3413C47.6996 29.6944 47.485 30.0153 47.2145 30.2855L47.1273 30.3727C46.7919 30.7155 46.567 31.1509 46.4814 31.6228C46.3959 32.0946 46.4537 32.5813 46.6473 33.02V33.1364C46.8317 33.5666 47.1378 33.9335 47.5281 34.1919C47.9183 34.4504 48.3756 34.589 48.8436 34.5909H49.0909C49.8624 34.5909 50.6024 34.8974 51.1479 35.443C51.6935 35.9885 52 36.7285 52 37.5C52 38.2715 51.6935 39.0115 51.1479 39.557C50.6024 40.1026 49.8624 40.4091 49.0909 40.4091H48.96C48.4919 40.411 48.0347 40.5496 47.6444 40.8081C47.2542 41.0665 46.948 41.4334 46.7636 41.8636Z" stroke="url(#paint1_linear_80_278)" stroke-width="3" stroke-linecap="round" stroke-linejoin="round"/>
</g>
</g>
<defs>
<linearGradient id="paint0_linear_80_278" x1="39.0108" y1="34.3149" x2="33.2944" y2="40.9039" gradientUnits="userSpaceOnUse">
<stop stop-color="#1B6CE7"/>
<stop offset="1" stop-color="#003FA6"/>
</linearGradient>
<linearGradient id="paint1_linear_80_278" x1="47.04" y1="25.82" x2="26.08" y2="49.98" gradientUnits="userSpaceOnUse">
<stop stop-color="#1B6CE7"/>
<stop offset="1" stop-color="#003FA6"/>
</linearGradient>
<clipPath id="clip0_80_278">
<rect width="72" height="72" fill="white" transform="translate(0 0.5)"/>
</clipPath>
</defs>
</svg>
