<svg width="72" height="73" viewBox="0 0 72 73" fill="none" xmlns="http://www.w3.org/2000/svg">
<g clip-path="url(#clip0_80_65)">
<mask id="mask0_80_65" style="mask-type:luminance" maskUnits="userSpaceOnUse" x="0" y="0" width="72" height="73">
<path d="M72 0.5H0V72.5H72V0.5Z" fill="white"/>
</mask>
<g mask="url(#mask0_80_65)">
<path d="M54.9231 0.5H17.0769C7.64559 0.5 0 8.14559 0 17.5769V55.4231C0 64.8544 7.64559 72.5 17.0769 72.5H54.9231C64.3544 72.5 72 64.8544 72 55.4231V17.5769C72 8.14559 64.3544 0.5 54.9231 0.5Z" fill="#FAFCFF"/>
<path d="M52.0028 24.9971V33.9979H43.002" stroke="url(#paint0_linear_80_65)" stroke-width="3.00026" stroke-linecap="round" stroke-linejoin="round"/>
<path d="M19 48.9988V39.998H28.0008" stroke="url(#paint1_linear_80_65)" stroke-width="3.00026" stroke-linecap="round" stroke-linejoin="round"/>
<path d="M22.7653 32.4972C23.5261 30.3472 24.8192 28.425 26.5239 26.9099C28.2285 25.3948 30.2892 24.3362 32.5136 23.8329C34.738 23.3296 37.0537 23.398 39.2446 24.0317C41.4354 24.6654 43.43 25.8437 45.0423 27.4568L52.0029 33.9974M19 39.9979L25.9606 46.5385C27.5729 48.1515 29.5675 49.3299 31.7583 49.9636C33.9492 50.5973 36.2649 50.6657 38.4893 50.1624C40.7137 49.6591 42.7744 48.6005 44.479 47.0854C46.1837 45.5703 47.4767 43.648 48.2376 41.498" stroke="url(#paint2_linear_80_65)" stroke-width="3.00026" stroke-linecap="round" stroke-linejoin="round"/>
</g>
</g>
<defs>
<linearGradient id="paint0_linear_80_65" x1="50.6077" y1="26.2122" x2="44.7121" y2="33.0078" gradientUnits="userSpaceOnUse">
<stop stop-color="#1B6CE7"/>
<stop offset="1" stop-color="#003FA6"/>
</linearGradient>
<linearGradient id="paint1_linear_80_65" x1="26.6057" y1="41.2131" x2="20.7101" y2="48.0087" gradientUnits="userSpaceOnUse">
<stop stop-color="#1B6CE7"/>
<stop offset="1" stop-color="#003FA6"/>
</linearGradient>
<linearGradient id="paint2_linear_80_65" x1="46.8874" y1="27.1444" x2="30.0284" y2="50.9021" gradientUnits="userSpaceOnUse">
<stop stop-color="#1B6CE7"/>
<stop offset="1" stop-color="#003FA6"/>
</linearGradient>
<clipPath id="clip0_80_65">
<rect width="72" height="72" fill="white" transform="translate(0 0.5)"/>
</clipPath>
</defs>
</svg>
