<svg width="72" height="73" viewBox="0 0 72 73" fill="none" xmlns="http://www.w3.org/2000/svg">
<g clip-path="url(#clip0_80_74)">
<mask id="mask0_80_74" style="mask-type:luminance" maskUnits="userSpaceOnUse" x="0" y="0" width="72" height="73">
<path d="M72 0.5H0V72.5H72V0.5Z" fill="white"/>
</mask>
<g mask="url(#mask0_80_74)">
<path d="M54.9231 0.5H17.0769C7.64559 0.5 0 8.14559 0 17.5769V55.4231C0 64.8544 7.64559 72.5 17.0769 72.5H54.9231C64.3544 72.5 72 64.8544 72 55.4231V17.5769C72 8.14559 64.3544 0.5 54.9231 0.5Z" fill="#FAFCFF"/>
<path d="M36 52.5C44.8366 52.5 52 45.3366 52 36.5C52 27.6634 44.8366 20.5 36 20.5C27.1634 20.5 20 27.6634 20 36.5C20 45.3366 27.1634 52.5 36 52.5Z" stroke="url(#paint0_linear_80_74)" stroke-width="3" stroke-linecap="round" stroke-linejoin="round"/>
<path d="M36 26.8994V36.4994L42.4 39.6994" stroke="url(#paint1_linear_80_74)" stroke-width="3" stroke-linecap="round" stroke-linejoin="round"/>
</g>
</g>
<defs>
<linearGradient id="paint0_linear_80_74" x1="47.04" y1="24.82" x2="26.08" y2="48.98" gradientUnits="userSpaceOnUse">
<stop stop-color="#1B6CE7"/>
<stop offset="1" stop-color="#003FA6"/>
</linearGradient>
<linearGradient id="paint1_linear_80_74" x1="41.408" y1="28.6274" x2="34.0803" y2="32.8506" gradientUnits="userSpaceOnUse">
<stop stop-color="#1B6CE7"/>
<stop offset="1" stop-color="#003FA6"/>
</linearGradient>
<clipPath id="clip0_80_74">
<rect width="72" height="72" fill="white" transform="translate(0 0.5)"/>
</clipPath>
</defs>
</svg>
