<svg width="73" height="54" viewBox="0 0 73 54" fill="none" xmlns="http://www.w3.org/2000/svg">
<path d="M40.6001 50.5305V21.5251C40.6001 18.383 42.0343 17.6577 43.9444 17.6577C43.9444 17.6577 53.7375 17.6577 55.6495 17.6577C57.5615 17.6577 59.7104 17.8996 59.7104 20.5582C59.7104 23.2169 59.7104 22.4917 59.7104 23.9422C59.7104 25.3926 58.7559 26.8427 56.3661 26.8427C53.9764 26.8427 50.8719 26.8427 50.8719 26.8427C50.8719 26.8427 50.8719 14.6752 50.8719 12.5818C50.8719 10.4884 51.6243 9.19782 54.694 9.19782C57.7636 9.19782 56.605 9.1977 60.666 9.19782C64.7269 9.19794 69.7434 10.9963 69.7434 15.724C69.7434 20.4518 69.7434 24.6673 69.7434 24.6673C69.2657 27.5678 67.9876 28.7299 65.4436 29.7432C70.2221 30.7102 72.1322 32.4022 72.1322 35.3026C72.1322 35.3026 72.1331 36.9944 72.1331 44.2459C72.1331 51.4974 65.2047 52.464 62.577 52.464C59.9493 52.464 60.9048 52.464 60.9048 52.464C56.605 52.464 42.5121 52.464 42.5121 52.464C41.5565 52.464 40.6001 51.4974 40.6001 50.5305ZM51.1108 43.7624V34.3357C51.1108 34.3357 56.6041 34.3357 58.7549 34.3357C60.9058 34.3357 62.0992 35.7862 62.0992 37.478C62.0992 39.1698 62.0992 41.1036 62.0992 41.1036C62.0992 43.2792 60.4281 44.2459 58.0383 44.2459H51.1108V43.7624Z" stroke="url(#paint0_linear_37_259)" stroke-width="1.5"/>
<path d="M1 29.5219V35.8064C1 41.124 7.01776 44.2663 11.3505 44.2663C15.6833 44.2663 17.8563 44.2663 22.4232 44.2663C26.9901 44.2663 32.533 40.4559 32.533 35.8064V26.8631C32.2923 22.754 28.6817 20.0244 22.4232 18.6449C14.6605 16.9339 12.2032 15.6849 11.832 12.8438V4.62567C11.9181 1.82558 12.9352 1.14092 15.924 1H22.6639C27.519 1.42252 31.4088 4.32699 31.8109 9.21818V13.569C31.8787 15.1374 31.5675 15.5591 30.3667 15.5027H23.3861C22.2081 15.5299 21.886 15.1006 21.9418 13.569V11.3936C21.6122 9.11447 20.4175 8.69725 17.3683 8.73475H5.57349C2.82409 8.80982 2.15116 9.79987 2.20355 12.8438V16.2278C2.39794 20.6827 5.06635 22.2826 9.42486 23.9625C19.353 27.3004 22.4232 28.7968 22.4232 30.9722V33.1476C22.4232 35.0813 20.979 36.2898 18.8126 36.2898C18.8126 36.2898 18.8126 36.2898 14.9612 36.2898C11.1098 36.2898 11.3505 33.1476 11.3505 33.1476V29.5219C11.3505 28.0716 10.3877 27.3465 9.42486 27.3465H3.16639C1.72213 27.3465 1 28.3133 1 29.5219Z" stroke="url(#paint1_linear_37_259)" stroke-width="1.5"/>
<defs>
<linearGradient id="paint0_linear_37_259" x1="48.2707" y1="44.0552" x2="67.2392" y2="21.7749" gradientUnits="userSpaceOnUse">
<stop stop-color="#1B6CE7"/>
<stop offset="1" stop-color="#003FA6"/>
</linearGradient>
<linearGradient id="paint1_linear_37_259" x1="26.2912" y1="10.6348" x2="6.11846" y2="32.0119" gradientUnits="userSpaceOnUse">
<stop stop-color="#003FA6"/>
<stop offset="1" stop-color="#1B6CE7"/>
</linearGradient>
</defs>
</svg>
