<svg width="75" height="47" viewBox="0 0 75 47" fill="none" xmlns="http://www.w3.org/2000/svg">
<path d="M41.6001 43.5305V14.5251C41.6001 11.383 43.0343 10.6577 44.9444 10.6577C44.9444 10.6577 54.7375 10.6577 56.6495 10.6577C58.5615 10.6577 60.7104 10.8996 60.7104 13.5582C60.7104 16.2169 60.7104 15.4917 60.7104 16.9422C60.7104 18.3926 59.7559 19.8427 57.3661 19.8427C54.9764 19.8427 51.8719 19.8427 51.8719 19.8427C51.8719 19.8427 51.8719 7.67517 51.8719 5.58177C51.8719 3.48837 52.6243 2.19782 55.694 2.19782C58.7636 2.19782 57.605 2.1977 61.666 2.19782C65.7269 2.19794 70.7434 3.99625 70.7434 8.72401C70.7434 13.4518 70.7434 17.6673 70.7434 17.6673C70.2657 20.5678 68.9876 21.7299 66.4436 22.7432C71.2221 23.7102 73.1322 25.4022 73.1322 28.3026C73.1322 28.3026 73.1331 29.9944 73.1331 37.2459C73.1331 44.4974 66.2047 45.464 63.577 45.464C60.9493 45.464 61.9048 45.464 61.9048 45.464C57.605 45.464 43.5121 45.464 43.5121 45.464C42.5565 45.464 41.6001 44.4974 41.6001 43.5305ZM52.1108 36.7624V27.3357C52.1108 27.3357 57.6041 27.3357 59.7549 27.3357C61.9058 27.3357 63.0992 28.7862 63.0992 30.478C63.0992 32.1698 63.0992 34.1036 63.0992 34.1036C63.0992 36.2792 61.4281 37.2459 59.0383 37.2459H52.1108V36.7624Z" stroke="#E1EBF9" stroke-width="2.45"/>
<path d="M2 30.5219V36.8064C2 42.124 8.01776 45.2663 12.3505 45.2663C16.6833 45.2663 18.8563 45.2663 23.4232 45.2663C27.9901 45.2663 33.533 41.4559 33.533 36.8064V27.8631C33.2923 23.754 29.6817 21.0244 23.4232 19.6449C15.6605 17.9339 13.2032 16.6849 12.832 13.8438V5.62567C12.9181 2.82558 13.9352 2.14092 16.924 2H23.6639C28.519 2.42252 32.4088 5.32699 32.8109 10.2182V14.569C32.8787 16.1374 32.5675 16.5591 31.3667 16.5027H24.3861C23.2081 16.5299 22.886 16.1006 22.9418 14.569V12.3936C22.6122 10.1145 21.4175 9.69725 18.3683 9.73475H6.57349C3.82409 9.80982 3.15116 10.7999 3.20355 13.8438V17.2278C3.39794 21.6827 6.06635 23.2826 10.4249 24.9625C20.353 28.3004 23.4232 29.7968 23.4232 31.9722V34.1476C23.4232 36.0813 21.979 37.2898 19.8126 37.2898C19.8126 37.2898 19.8126 37.2898 15.9612 37.2898C12.1098 37.2898 12.3505 34.1476 12.3505 34.1476V30.5219C12.3505 29.0716 11.3877 28.3465 10.4249 28.3465H4.16639C2.72213 28.3465 2 29.3133 2 30.5219Z" stroke="#E1EBF9" stroke-width="2.45"/>
</svg>
