<svg viewBox="0 0 74 46" fill="none" xmlns="http://www.w3.org/2000/svg">
<g id="logosb" clip-path="url(#clip0_80_46)">
<path id="s-letter" d="M1 30.0219V36.3064C1 41.624 7.01776 44.7663 11.3505 44.7663C15.6833 44.7663 17.8563 44.7663 22.4232 44.7663C26.9901 44.7663 32.533 40.9559 32.533 36.3064V27.3631C32.2923 23.254 28.6817 20.5244 22.4232 19.1449C14.6605 17.4339 12.2032 16.1849 11.832 13.3438V5.12567C11.9181 2.32558 12.9352 1.64092 15.924 1.5H22.6639C27.519 1.92252 31.4088 4.82699 31.8109 9.71818V14.069C31.8787 15.6374 31.5675 16.0591 30.3667 16.0027H23.3861C22.2081 16.0299 21.886 15.6006 21.9418 14.069V11.8936C21.6122 9.61447 20.4175 9.19725 17.3683 9.23475H5.57349C2.82409 9.30982 2.15116 10.2999 2.20355 13.3438V16.7278C2.39794 21.1827 5.06635 22.7826 9.42486 24.4625C19.353 27.8004 22.4232 29.2968 22.4232 31.4722V33.6476C22.4232 35.5813 20.979 36.7898 18.8126 36.7898C18.8126 36.7898 18.8126 36.7898 14.9612 36.7898C11.1098 36.7898 11.3505 33.6476 11.3505 33.6476V30.0219C11.3505 28.5716 10.3877 27.8465 9.42486 27.8465H3.16639C1.72213 27.8465 1 28.8133 1 30.0219Z" stroke="#003FA6" stroke-width="1.5" stroke-linejoin="round"/>
<path id="b-letter" d="M40.5332 42.8327V13.8273C40.5332 10.6852 41.9674 9.95992 43.8775 9.95992C43.8775 9.95992 53.6706 9.95992 55.5826 9.95992C57.4946 9.95992 59.6435 10.2018 59.6435 12.8604C59.6435 15.5191 59.6435 14.7939 59.6435 16.2444C59.6435 17.6948 58.689 19.1449 56.2992 19.1449C53.9095 19.1449 50.805 19.1449 50.805 19.1449C50.805 19.1449 50.805 6.9774 50.805 4.884C50.805 2.7906 51.5574 1.50005 54.6271 1.50005C57.6967 1.50005 56.5381 1.49993 60.5991 1.50005C64.66 1.50017 69.6765 3.29848 69.6765 8.02624C69.6765 12.754 69.6765 16.9695 69.6765 16.9695C69.1988 19.87 67.9207 21.0321 65.3767 22.0454C70.1552 23.0124 72.0653 24.7044 72.0653 27.6048C72.0653 27.6048 72.0662 29.2966 72.0662 36.5481C72.0662 43.7996 65.1378 44.7662 62.5101 44.7662C59.8824 44.7662 60.8379 44.7662 60.8379 44.7662C56.5381 44.7662 42.4452 44.7662 42.4452 44.7662C41.4896 44.7662 40.5332 43.7996 40.5332 42.8327ZM51.0439 36.0646V26.6379C51.0439 26.6379 56.5372 26.6379 58.688 26.6379C60.8389 26.6379 62.0323 28.0884 62.0323 29.7802C62.0323 31.472 62.0323 33.4058 62.0323 33.4058C62.0323 35.5814 60.3612 36.5481 57.9714 36.5481H51.0439V36.0646Z" stroke="#003FA6" stroke-width="1.5" stroke-linejoin="round"/>
</g>
<defs>
<clipPath id="clip0_80_46">
<rect width="73.066" height="45.2663" fill="white" transform="translate(0 0.5)"/>
</clipPath>
</defs>
</svg>
