<svg width="75" height="55" viewBox="0 0 75 55" fill="none" xmlns="http://www.w3.org/2000/svg">
<path d="M41.6001 51.5305V22.5251C41.6001 19.383 43.0343 18.6577 44.9444 18.6577C44.9444 18.6577 54.7375 18.6577 56.6495 18.6577C58.5615 18.6577 60.7104 18.8996 60.7104 21.5582C60.7104 24.2169 60.7104 23.4917 60.7104 24.9422C60.7104 26.3926 59.7559 27.8427 57.3661 27.8427C54.9764 27.8427 51.8719 27.8427 51.8719 27.8427C51.8719 27.8427 51.8719 15.6752 51.8719 13.5818C51.8719 11.4884 52.6243 10.1978 55.694 10.1978C58.7636 10.1978 57.605 10.1977 61.666 10.1978C65.7269 10.1979 70.7434 11.9963 70.7434 16.724C70.7434 21.4518 70.7434 25.6673 70.7434 25.6673C70.2657 28.5678 68.9876 29.7299 66.4436 30.7432C71.2221 31.7102 73.1322 33.4022 73.1322 36.3026C73.1322 36.3026 73.1331 37.9944 73.1331 45.2459C73.1331 52.4974 66.2047 53.464 63.577 53.464C60.9493 53.464 61.9048 53.464 61.9048 53.464C57.605 53.464 43.5121 53.464 43.5121 53.464C42.5565 53.464 41.6001 52.4974 41.6001 51.5305ZM52.1108 44.7624V35.3357C52.1108 35.3357 57.6041 35.3357 59.7549 35.3357C61.9058 35.3357 63.0992 36.7862 63.0992 38.478C63.0992 40.1698 63.0992 42.1036 63.0992 42.1036C63.0992 44.2792 61.4281 45.2459 59.0383 45.2459H52.1108V44.7624Z" stroke="#E1EBF9" stroke-width="2.45"/>
<path d="M2 30.5219V36.8064C2 42.124 8.01776 45.2663 12.3505 45.2663C16.6833 45.2663 18.8563 45.2663 23.4232 45.2663C27.9901 45.2663 33.533 41.4559 33.533 36.8064V27.8631C33.2923 23.754 29.6817 21.0244 23.4232 19.6449C15.6605 17.9339 13.2032 16.6849 12.832 13.8438V5.62567C12.9181 2.82558 13.9352 2.14092 16.924 2H23.6639C28.519 2.42252 32.4088 5.32699 32.8109 10.2182V14.569C32.8787 16.1374 32.5675 16.5591 31.3667 16.5027H24.3861C23.2081 16.5299 22.886 16.1006 22.9418 14.569V12.3936C22.6122 10.1145 21.4175 9.69725 18.3683 9.73475H6.57349C3.82409 9.80982 3.15116 10.7999 3.20355 13.8438V17.2278C3.39794 21.6827 6.06635 23.2826 10.4249 24.9625C20.353 28.3004 23.4232 29.7968 23.4232 31.9722V34.1476C23.4232 36.0813 21.979 37.2898 19.8126 37.2898C19.8126 37.2898 19.8126 37.2898 15.9612 37.2898C12.1098 37.2898 12.3505 34.1476 12.3505 34.1476V30.5219C12.3505 29.0716 11.3877 28.3465 10.4249 28.3465H4.16639C2.72213 28.3465 2 29.3133 2 30.5219Z" stroke="#E1EBF9" stroke-width="2.45"/>
</svg>
