<svg width="722" height="458" viewBox="0 0 722 458" fill="none" xmlns="http://www.w3.org/2000/svg">
<g clip-path="url(#clip0_33_77)">
<g filter="url(#filter0_i_33_77)">
<path d="M697 458H25C11.1929 458 0 446.807 0 433V25C0 11.1929 11.1929 0 25 0H697C710.807 0 722 11.1929 722 25V433C722 446.807 710.807 458 697 458Z" fill="url(#paint0_linear_33_77)"/>
</g>
<path d="M722 425H0V317.656H722V425Z" fill="#D6D6D6"/>
<path d="M129.555 232H75.8828C47.2287 232 24 208.771 24 180.117V180.117C24 151.463 47.2287 128.234 75.8828 128.234H129.555C158.209 128.234 181.438 151.463 181.438 180.117V180.117C181.438 208.771 158.209 232 129.555 232Z" fill="url(#paint1_linear_33_77)"/>
<path d="M74.4759 255.296C72.4839 255.296 70.6239 255.428 68.8959 255.692V259.868C69.7359 259.748 70.6479 259.652 71.6319 259.58C72.6399 259.508 73.5759 259.472 74.4399 259.472C76.8399 259.472 78.5679 259.916 79.6239 260.804C80.7039 261.668 81.2439 263.072 81.2439 265.016V266.744C80.5719 265.472 79.6479 264.5 78.4719 263.828C77.3199 263.18 75.9879 262.856 74.4759 262.856C72.6759 262.856 71.1039 263.288 69.7599 264.152C68.4399 265.04 67.4079 266.216 66.6639 267.68C65.9199 269.168 65.5479 270.836 65.5479 272.684V273.44C65.5479 275.288 65.9319 276.944 66.6999 278.408C67.4919 279.872 68.5719 281.024 69.9399 281.864C71.3319 282.728 72.9399 283.16 74.7639 283.16C76.4679 283.16 77.9319 282.764 79.1559 281.972C80.4039 281.18 81.3519 280.04 81.9999 278.552V282.548H85.9599V265.304C85.9599 261.728 85.0359 259.172 83.1879 257.636C81.3399 256.076 78.4359 255.296 74.4759 255.296ZM75.9159 267.14C76.8759 267.14 77.7519 267.356 78.5439 267.788C79.3359 268.22 79.9719 268.844 80.4519 269.66C80.9319 270.476 81.1719 271.46 81.1719 272.612V273.872C81.1719 274.976 80.9199 275.912 80.4159 276.68C79.9359 277.448 79.2879 278.024 78.4719 278.408C77.6799 278.816 76.8279 279.02 75.9159 279.02C74.3319 279.02 73.0359 278.468 72.0279 277.364C71.0439 276.284 70.5519 274.844 70.5519 273.044C70.5519 271.22 71.0439 269.78 72.0279 268.724C73.0359 267.668 74.3319 267.14 75.9159 267.14ZM100.814 262.316C98.5101 262.316 96.5661 262.784 94.9821 263.72C93.3981 264.68 92.1861 265.928 91.3461 267.464C90.5301 269 90.1221 270.632 90.1221 272.36V273.116C90.1221 274.916 90.5421 276.584 91.3821 278.12C92.2461 279.656 93.4701 280.892 95.0541 281.828C96.6621 282.764 98.5821 283.232 100.814 283.232C103.022 283.232 104.918 282.764 106.502 281.828C108.11 280.892 109.334 279.656 110.174 278.12C111.038 276.584 111.47 274.916 111.47 273.116V272.36C111.47 270.632 111.05 269 110.21 267.464C109.394 265.928 108.194 264.68 106.61 263.72C105.026 262.784 103.094 262.316 100.814 262.316ZM100.814 266.6C102.638 266.6 104.03 267.176 104.99 268.328C105.974 269.504 106.466 270.98 106.466 272.756C106.466 274.532 105.962 276.008 104.954 277.184C103.946 278.36 102.566 278.948 100.814 278.948C99.0381 278.948 97.6461 278.36 96.6381 277.184C95.6301 276.008 95.1261 274.532 95.1261 272.756C95.1261 270.98 95.6061 269.504 96.5661 268.328C97.5501 267.176 98.9661 266.6 100.814 266.6ZM116.104 263V285.536H113.656V289.28H121.108V263H116.104ZM134.921 262.352C133.097 262.352 131.477 262.784 130.061 263.648C128.645 264.536 127.529 265.736 126.713 267.248C125.921 268.76 125.525 270.464 125.525 272.36V273.116C125.525 274.988 125.909 276.68 126.677 278.192C127.445 279.704 128.513 280.904 129.881 281.792C131.273 282.704 132.905 283.16 134.777 283.16C136.169 283.16 137.417 282.872 138.521 282.296C139.649 281.744 140.573 280.904 141.293 279.776V289.28H146.297V263H142.337V267.104C141.665 265.52 140.669 264.332 139.349 263.54C138.053 262.748 136.577 262.352 134.921 262.352ZM136.037 266.564C137.021 266.564 137.921 266.78 138.737 267.212C139.553 267.668 140.201 268.316 140.681 269.156C141.185 269.996 141.437 271.004 141.437 272.18V273.62C141.437 274.748 141.173 275.708 140.645 276.5C140.141 277.292 139.481 277.892 138.665 278.3C137.849 278.732 136.973 278.948 136.037 278.948C134.405 278.948 133.073 278.372 132.041 277.22C131.033 276.092 130.529 274.592 130.529 272.72C130.529 270.848 131.045 269.348 132.077 268.22C133.109 267.116 134.429 266.564 136.037 266.564Z" fill="#F1F7FF"/>
<path d="M26.54 36V39.936H27.14L27.896 37.836C27.944 37.7 27.99 37.562 28.034 37.422C28.082 37.286 28.13 37.15 28.178 37.014H28.202C28.25 37.15 28.294 37.286 28.334 37.422C28.378 37.562 28.424 37.7 28.472 37.836L29.216 39.936H29.822V36H29.354V38.166C29.354 38.342 29.362 38.536 29.378 38.748C29.394 38.96 29.408 39.154 29.42 39.33H29.396L29.084 38.436L28.34 36.396H28.01L27.266 38.436L26.954 39.33H26.93C26.942 39.154 26.954 38.96 26.966 38.748C26.982 38.536 26.99 38.342 26.99 38.166V36H26.54ZM31.4994 36V39.936H33.7674V39.516H31.9974V38.28H33.4914V37.854H31.9974V36.426H33.8274V36H31.4994ZM35.2634 36V39.936H35.8634L36.6194 37.836C36.6674 37.7 36.7134 37.562 36.7574 37.422C36.8054 37.286 36.8534 37.15 36.9014 37.014H36.9254C36.9734 37.15 37.0174 37.286 37.0574 37.422C37.1014 37.562 37.1474 37.7 37.1954 37.836L37.9394 39.936H38.5454V36H38.0774V38.166C38.0774 38.342 38.0854 38.536 38.1014 38.748C38.1174 38.96 38.1314 39.154 38.1434 39.33H38.1194L37.8074 38.436L37.0634 36.396H36.7334L35.9894 38.436L35.6774 39.33H35.6534C35.6654 39.154 35.6774 38.96 35.6894 38.748C35.7054 38.536 35.7134 38.342 35.7134 38.166V36H35.2634ZM40.2228 36V39.936H41.3928C41.5928 39.936 41.7748 39.918 41.9388 39.882C42.1068 39.846 42.2488 39.79 42.3648 39.714C42.4848 39.638 42.5768 39.538 42.6408 39.414C42.7088 39.294 42.7428 39.148 42.7428 38.976C42.7428 38.78 42.6928 38.602 42.5928 38.442C42.4968 38.286 42.3548 38.178 42.1668 38.118V38.094C42.4068 38.05 42.6007 37.95 42.7488 37.794C42.8968 37.638 42.9708 37.424 42.9708 37.152C42.9708 36.96 42.9348 36.792 42.8628 36.648C42.7908 36.504 42.6888 36.384 42.5568 36.288C42.4248 36.192 42.2668 36.12 42.0828 36.072C41.8988 36.024 41.6968 36 41.4768 36H40.2228ZM40.7208 38.262H41.3028C41.6388 38.262 41.8808 38.32 42.0288 38.436C42.1768 38.552 42.2508 38.71 42.2508 38.91C42.2508 39.138 42.1728 39.3 42.0168 39.396C41.8648 39.492 41.6348 39.54 41.3268 39.54H40.7208V38.262ZM40.7208 36.396H41.4048C41.7448 36.396 42.0088 36.458 42.1968 36.582C42.3848 36.71 42.4788 36.906 42.4788 37.17C42.4788 37.414 42.3868 37.592 42.2028 37.704C42.0188 37.82 41.7528 37.878 41.4048 37.878H40.7208V36.396ZM44.3502 36V39.936H46.6182V39.516H44.8482V38.28H46.3422V37.854H44.8482V36.426H46.6782V36H44.3502ZM48.1142 36V39.936H49.3442C49.5442 39.936 49.7282 39.916 49.8962 39.876C50.0682 39.84 50.2142 39.778 50.3342 39.69C50.4582 39.602 50.5542 39.488 50.6222 39.348C50.6902 39.208 50.7242 39.036 50.7242 38.832C50.7242 38.524 50.6442 38.278 50.4842 38.094C50.3242 37.91 50.1082 37.784 49.8362 37.716L50.8382 36H50.2742L49.3262 37.662H48.6122V36H48.1142ZM48.6122 38.07H49.2722C49.5802 38.07 49.8162 38.132 49.9802 38.256C50.1442 38.384 50.2262 38.576 50.2262 38.832C50.2262 39.092 50.1442 39.274 49.9802 39.378C49.8162 39.482 49.5802 39.534 49.2722 39.534H48.6122V38.07ZM27.632 27.928C27.356 27.928 27.1 27.98 26.864 28.084C26.628 28.188 26.424 28.33 26.252 28.51L26.552 28.858C26.692 28.71 26.856 28.59 27.044 28.498C27.236 28.41 27.434 28.366 27.638 28.366C27.898 28.366 28.1 28.424 28.244 28.54C28.388 28.66 28.46 28.816 28.46 29.008C28.46 29.108 28.442 29.192 28.406 29.26C28.374 29.332 28.328 29.392 28.268 29.44C28.212 29.492 28.144 29.538 28.064 29.578C27.984 29.618 27.898 29.66 27.806 29.704L27.242 29.95C27.15 29.99 27.056 30.038 26.96 30.094C26.864 30.15 26.778 30.218 26.702 30.298C26.626 30.378 26.564 30.472 26.516 30.58C26.468 30.692 26.444 30.82 26.444 30.964C26.444 31.112 26.474 31.25 26.534 31.378C26.598 31.506 26.684 31.616 26.792 31.708C26.904 31.804 27.034 31.878 27.182 31.93C27.334 31.982 27.5 32.008 27.68 32.008C27.916 32.008 28.134 31.962 28.334 31.87C28.534 31.782 28.704 31.666 28.844 31.522L28.574 31.198C28.454 31.314 28.32 31.404 28.172 31.468C28.028 31.536 27.864 31.57 27.68 31.57C27.46 31.57 27.282 31.518 27.146 31.414C27.014 31.314 26.948 31.174 26.948 30.994C26.948 30.898 26.966 30.816 27.002 30.748C27.042 30.684 27.094 30.626 27.158 30.574C27.222 30.526 27.292 30.482 27.368 30.442C27.444 30.406 27.522 30.372 27.602 30.34L28.16 30.1C28.272 30.052 28.378 29.996 28.478 29.932C28.578 29.872 28.664 29.8 28.736 29.716C28.808 29.636 28.864 29.54 28.904 29.428C28.948 29.32 28.97 29.194 28.97 29.05C28.97 28.894 28.938 28.748 28.874 28.612C28.814 28.476 28.726 28.356 28.61 28.252C28.494 28.152 28.354 28.072 28.19 28.012C28.026 27.956 27.84 27.928 27.632 27.928ZM30.3451 28V31.936H30.8431V28H30.3451ZM32.5212 28V31.936H33.0372L34.4592 29.464L34.8852 28.648H34.9093C34.8972 28.848 34.8832 29.054 34.8673 29.266C34.8552 29.482 34.8492 29.694 34.8492 29.902V31.936H35.3233V28H34.8072L33.3792 30.478L32.9532 31.288H32.9292C32.9452 31.088 32.9592 30.884 32.9712 30.676C32.9872 30.472 32.9952 30.266 32.9952 30.058V28H32.5212ZM38.494 27.928C38.246 27.928 38.018 27.974 37.81 28.066C37.602 28.158 37.42 28.29 37.264 28.462C37.112 28.638 36.992 28.852 36.904 29.104C36.82 29.36 36.778 29.648 36.778 29.968C36.778 30.284 36.822 30.568 36.91 30.82C36.998 31.072 37.12 31.286 37.276 31.462C37.432 31.638 37.616 31.772 37.828 31.864C38.04 31.96 38.272 32.008 38.524 32.008C38.764 32.008 38.974 31.958 39.154 31.858C39.338 31.762 39.488 31.65 39.604 31.522L39.334 31.198C39.23 31.31 39.112 31.4 38.98 31.468C38.848 31.536 38.698 31.57 38.53 31.57C38.342 31.57 38.172 31.532 38.02 31.456C37.868 31.384 37.738 31.278 37.63 31.138C37.522 31.002 37.438 30.836 37.378 30.64C37.322 30.444 37.294 30.224 37.294 29.98C37.294 29.732 37.322 29.508 37.378 29.308C37.438 29.112 37.52 28.944 37.624 28.804C37.728 28.664 37.854 28.556 38.002 28.48C38.154 28.404 38.324 28.366 38.512 28.366C38.704 28.366 38.872 28.404 39.016 28.48C39.16 28.56 39.296 28.67 39.424 28.81L39.7 28.498C39.544 28.318 39.368 28.178 39.172 28.078C38.976 27.978 38.75 27.928 38.494 27.928ZM41.0337 28V31.936H43.3017V31.516H41.5317V30.28H43.0257V29.854H41.5317V28.426H43.3617V28H41.0337Z" fill="#F1F7FF"/>
<path d="M139.26 36L138 39.936H138.534L139.164 37.812C139.236 37.576 139.298 37.358 139.35 37.158C139.406 36.958 139.472 36.742 139.548 36.51H139.572C139.644 36.742 139.708 36.958 139.764 37.158C139.82 37.358 139.882 37.576 139.95 37.812L140.58 39.936H141.09L139.842 36H139.26ZM142.824 38.202L142.638 37.602H143.82L143.634 38.202C143.562 38.422 143.494 38.64 143.43 38.856C143.366 39.076 143.302 39.3 143.238 39.528H143.214C143.154 39.3 143.092 39.076 143.028 38.856C142.964 38.64 142.896 38.422 142.824 38.202ZM141.624 36L142.956 39.936H143.52L144.852 36H144.318L143.946 37.2H142.512L142.134 36H141.624ZM146.01 36V39.936H146.508V36.426H148.23V36H146.01ZM149.528 36V39.936H150.026V36H149.528ZM151.704 36V39.936H152.688C153.296 39.936 153.758 39.768 154.074 39.432C154.39 39.096 154.548 38.614 154.548 37.986C154.548 37.674 154.508 37.394 154.428 37.146C154.348 36.902 154.23 36.694 154.074 36.522C153.918 36.354 153.726 36.224 153.498 36.132C153.27 36.044 153.008 36 152.712 36H151.704ZM152.202 36.408H152.652C153.112 36.408 153.456 36.546 153.684 36.822C153.916 37.098 154.032 37.486 154.032 37.986C154.032 38.486 153.916 38.868 153.684 39.132C153.456 39.396 153.112 39.528 152.652 39.528H152.202V36.408ZM139.356 28V31.516H138.168V31.936H141.048V31.516H139.86V28H139.356ZM142.357 28V31.936H142.855V30.286H144.685V31.936H145.189V28H144.685V29.854H142.855V28H142.357ZM146.871 28V31.936H148.101C148.301 31.936 148.485 31.916 148.653 31.876C148.825 31.84 148.971 31.778 149.091 31.69C149.215 31.602 149.311 31.488 149.379 31.348C149.447 31.208 149.481 31.036 149.481 30.832C149.481 30.524 149.401 30.278 149.241 30.094C149.081 29.91 148.865 29.784 148.593 29.716L149.595 28H149.031L148.083 29.662H147.369V28H146.871ZM147.369 30.07H148.029C148.337 30.07 148.573 30.132 148.737 30.256C148.901 30.384 148.983 30.576 148.983 30.832C148.983 31.092 148.901 31.274 148.737 31.378C148.573 31.482 148.337 31.534 148.029 31.534H147.369V30.07ZM152.285 27.928C152.085 27.928 151.897 27.956 151.721 28.012C151.549 28.072 151.399 28.168 151.271 28.3C151.147 28.436 151.049 28.612 150.977 28.828C150.905 29.044 150.869 29.31 150.869 29.626V31.936H151.367V29.614C151.367 29.378 151.391 29.18 151.439 29.02C151.487 28.86 151.551 28.732 151.631 28.636C151.715 28.54 151.813 28.47 151.925 28.426C152.037 28.386 152.157 28.366 152.285 28.366C152.417 28.366 152.539 28.386 152.651 28.426C152.763 28.47 152.861 28.54 152.945 28.636C153.029 28.732 153.095 28.86 153.143 29.02C153.191 29.18 153.215 29.378 153.215 29.614V31.936H153.695V29.626C153.695 29.31 153.659 29.044 153.587 28.828C153.515 28.612 153.415 28.436 153.287 28.3C153.163 28.168 153.015 28.072 152.843 28.012C152.671 27.956 152.485 27.928 152.285 27.928Z" fill="#F1F7FF"/>
<path d="M241.632 35.928C241.356 35.928 241.1 35.98 240.864 36.084C240.628 36.188 240.424 36.33 240.252 36.51L240.552 36.858C240.692 36.71 240.856 36.59 241.044 36.498C241.236 36.41 241.434 36.366 241.638 36.366C241.898 36.366 242.1 36.424 242.244 36.54C242.388 36.66 242.46 36.816 242.46 37.008C242.46 37.108 242.442 37.192 242.406 37.26C242.374 37.332 242.328 37.392 242.268 37.44C242.212 37.492 242.144 37.538 242.064 37.578C241.984 37.618 241.898 37.66 241.806 37.704L241.242 37.95C241.15 37.99 241.056 38.038 240.96 38.094C240.864 38.15 240.778 38.218 240.702 38.298C240.626 38.378 240.564 38.472 240.516 38.58C240.468 38.692 240.444 38.82 240.444 38.964C240.444 39.112 240.474 39.25 240.534 39.378C240.598 39.506 240.684 39.616 240.792 39.708C240.904 39.804 241.034 39.878 241.182 39.93C241.334 39.982 241.5 40.008 241.68 40.008C241.916 40.008 242.134 39.962 242.334 39.87C242.534 39.782 242.704 39.666 242.844 39.522L242.574 39.198C242.454 39.314 242.32 39.404 242.172 39.468C242.028 39.536 241.864 39.57 241.68 39.57C241.46 39.57 241.282 39.518 241.146 39.414C241.014 39.314 240.948 39.174 240.948 38.994C240.948 38.898 240.966 38.816 241.002 38.748C241.042 38.684 241.094 38.626 241.158 38.574C241.222 38.526 241.292 38.482 241.368 38.442C241.444 38.406 241.522 38.372 241.602 38.34L242.16 38.1C242.272 38.052 242.378 37.996 242.478 37.932C242.578 37.872 242.664 37.8 242.736 37.716C242.808 37.636 242.864 37.54 242.904 37.428C242.948 37.32 242.97 37.194 242.97 37.05C242.97 36.894 242.938 36.748 242.874 36.612C242.814 36.476 242.726 36.356 242.61 36.252C242.494 36.152 242.354 36.072 242.19 36.012C242.026 35.956 241.84 35.928 241.632 35.928ZM244.345 36V39.936H246.613V39.516H244.843V38.28H246.337V37.854H244.843V36.426H246.673V36H244.345ZM249.597 35.928C249.349 35.928 249.121 35.974 248.913 36.066C248.705 36.158 248.523 36.29 248.367 36.462C248.215 36.638 248.095 36.852 248.007 37.104C247.923 37.36 247.881 37.648 247.881 37.968C247.881 38.284 247.925 38.568 248.013 38.82C248.101 39.072 248.223 39.286 248.379 39.462C248.535 39.638 248.719 39.772 248.931 39.864C249.143 39.96 249.375 40.008 249.627 40.008C249.867 40.008 250.077 39.958 250.257 39.858C250.441 39.762 250.591 39.65 250.707 39.522L250.437 39.198C250.333 39.31 250.215 39.4 250.083 39.468C249.951 39.536 249.801 39.57 249.633 39.57C249.445 39.57 249.275 39.532 249.123 39.456C248.971 39.384 248.841 39.278 248.733 39.138C248.625 39.002 248.541 38.836 248.481 38.64C248.425 38.444 248.397 38.224 248.397 37.98C248.397 37.732 248.425 37.508 248.481 37.308C248.541 37.112 248.623 36.944 248.727 36.804C248.831 36.664 248.957 36.556 249.105 36.48C249.257 36.404 249.427 36.366 249.615 36.366C249.807 36.366 249.975 36.404 250.119 36.48C250.263 36.56 250.399 36.67 250.527 36.81L250.803 36.498C250.647 36.318 250.471 36.178 250.275 36.078C250.079 35.978 249.853 35.928 249.597 35.928ZM253.453 35.928C253.253 35.928 253.065 35.956 252.889 36.012C252.717 36.072 252.567 36.168 252.439 36.3C252.315 36.436 252.217 36.612 252.145 36.828C252.073 37.044 252.037 37.31 252.037 37.626V39.936H252.535V37.614C252.535 37.378 252.559 37.18 252.607 37.02C252.655 36.86 252.719 36.732 252.799 36.636C252.883 36.54 252.981 36.47 253.093 36.426C253.205 36.386 253.325 36.366 253.453 36.366C253.585 36.366 253.707 36.386 253.819 36.426C253.931 36.47 254.029 36.54 254.113 36.636C254.197 36.732 254.263 36.86 254.311 37.02C254.359 37.18 254.383 37.378 254.383 37.614V39.936H254.863V37.626C254.863 37.31 254.827 37.044 254.755 36.828C254.683 36.612 254.583 36.436 254.455 36.3C254.331 36.168 254.183 36.072 254.011 36.012C253.839 35.956 253.653 35.928 253.453 35.928ZM256.522 36V39.936H257.752C257.952 39.936 258.136 39.916 258.304 39.876C258.476 39.84 258.622 39.778 258.742 39.69C258.866 39.602 258.962 39.488 259.03 39.348C259.098 39.208 259.132 39.036 259.132 38.832C259.132 38.524 259.052 38.278 258.892 38.094C258.732 37.91 258.516 37.784 258.244 37.716L259.246 36H258.682L257.734 37.662H257.02V36H256.522ZM257.02 38.07H257.68C257.988 38.07 258.224 38.132 258.388 38.256C258.552 38.384 258.634 38.576 258.634 38.832C258.634 39.092 258.552 39.274 258.388 39.378C258.224 39.482 257.988 39.534 257.68 39.534H257.02V38.07ZM260.538 36V39.936H261.036V36H260.538ZM263.53 36V39.516H262.342V39.936H265.222V39.516H264.034V36H263.53ZM267.085 36V37.524L265.903 39.936H266.437L266.947 38.826C267.011 38.682 267.073 38.54 267.133 38.4C267.193 38.26 267.257 38.116 267.325 37.968H267.349C267.417 38.116 267.485 38.26 267.553 38.4C267.621 38.54 267.685 38.682 267.745 38.826L268.249 39.936H268.771L267.589 37.524V36H267.085ZM242.028 27.928C241.78 27.928 241.552 27.974 241.344 28.066C241.136 28.158 240.954 28.29 240.798 28.462C240.646 28.638 240.526 28.852 240.438 29.104C240.354 29.36 240.312 29.648 240.312 29.968C240.312 30.284 240.356 30.568 240.444 30.82C240.532 31.072 240.654 31.286 240.81 31.462C240.966 31.638 241.15 31.772 241.362 31.864C241.574 31.96 241.806 32.008 242.058 32.008C242.298 32.008 242.508 31.958 242.688 31.858C242.872 31.762 243.022 31.65 243.138 31.522L242.868 31.198C242.764 31.31 242.646 31.4 242.514 31.468C242.382 31.536 242.232 31.57 242.064 31.57C241.876 31.57 241.706 31.532 241.554 31.456C241.402 31.384 241.272 31.278 241.164 31.138C241.056 31.002 240.972 30.836 240.912 30.64C240.856 30.444 240.828 30.224 240.828 29.98C240.828 29.732 240.856 29.508 240.912 29.308C240.972 29.112 241.054 28.944 241.158 28.804C241.262 28.664 241.388 28.556 241.536 28.48C241.688 28.404 241.858 28.366 242.046 28.366C242.238 28.366 242.406 28.404 242.55 28.48C242.694 28.56 242.83 28.67 242.958 28.81L243.234 28.498C243.078 28.318 242.902 28.178 242.706 28.078C242.51 27.978 242.284 27.928 242.028 27.928ZM245.844 27.928C245.596 27.928 245.368 27.976 245.16 28.072C244.956 28.168 244.78 28.304 244.632 28.48C244.484 28.66 244.368 28.876 244.284 29.128C244.204 29.384 244.164 29.67 244.164 29.986C244.164 30.302 244.204 30.584 244.284 30.832C244.368 31.084 244.484 31.296 244.632 31.468C244.78 31.644 244.956 31.778 245.16 31.87C245.368 31.962 245.596 32.008 245.844 32.008C246.092 32.008 246.318 31.96 246.522 31.864C246.73 31.772 246.908 31.638 247.056 31.462C247.208 31.29 247.324 31.078 247.404 30.826C247.488 30.578 247.53 30.298 247.53 29.986C247.53 29.67 247.488 29.384 247.404 29.128C247.324 28.876 247.208 28.66 247.056 28.48C246.908 28.304 246.73 28.168 246.522 28.072C246.318 27.976 246.092 27.928 245.844 27.928ZM245.844 28.366C246.02 28.366 246.178 28.404 246.318 28.48C246.462 28.556 246.584 28.664 246.684 28.804C246.788 28.948 246.868 29.118 246.924 29.314C246.98 29.514 247.008 29.738 247.008 29.986C247.008 30.23 246.98 30.45 246.924 30.646C246.868 30.842 246.788 31.008 246.684 31.144C246.584 31.28 246.462 31.384 246.318 31.456C246.178 31.532 246.02 31.57 245.844 31.57C245.668 31.57 245.508 31.532 245.364 31.456C245.224 31.384 245.102 31.28 244.998 31.144C244.898 31.008 244.82 30.842 244.764 30.646C244.708 30.45 244.68 30.23 244.68 29.986C244.68 29.738 244.708 29.514 244.764 29.314C244.82 29.118 244.898 28.948 244.998 28.804C245.102 28.664 245.224 28.556 245.364 28.48C245.508 28.404 245.668 28.366 245.844 28.366ZM248.976 28V31.936H249.96C250.568 31.936 251.03 31.768 251.346 31.432C251.662 31.096 251.82 30.614 251.82 29.986C251.82 29.674 251.78 29.394 251.7 29.146C251.62 28.902 251.502 28.694 251.346 28.522C251.19 28.354 250.998 28.224 250.77 28.132C250.542 28.044 250.28 28 249.984 28H248.976ZM249.474 28.408H249.924C250.384 28.408 250.728 28.546 250.956 28.822C251.188 29.098 251.304 29.486 251.304 29.986C251.304 30.486 251.188 30.868 250.956 31.132C250.728 31.396 250.384 31.528 249.924 31.528H249.474V28.408ZM253.268 28V31.936H255.536V31.516H253.766V30.28H255.26V29.854H253.766V28.426H255.596V28H253.268Z" fill="#F1F7FF"/>
<path d="M322 270C322 269.47 321.789 268.961 321.414 268.586C321.039 268.211 320.53 268 320 268H308L304 264V280C304 280.53 304.211 281.039 304.586 281.414C304.961 281.789 305.47 282 306 282H320C320.53 282 321.039 281.789 321.414 281.414C321.789 281.039 322 280.53 322 280V270Z" stroke="#F1F7FF" stroke-linecap="round" stroke-linejoin="round"/>
<path d="M313 222C318.523 222 323 226.477 323 232C323 237.523 318.523 242 313 242C307.477 242 303 237.523 303 232C303 226.477 307.477 222 313 222Z" stroke="#F1F7FF" stroke-linecap="round" stroke-linejoin="round"/>
<path d="M310.09 235C310.325 235.668 310.789 236.232 311.4 236.591C312.011 236.95 312.729 237.081 313.427 236.961C314.125 236.841 314.759 236.478 315.215 235.936C315.671 235.394 315.921 234.708 315.92 234C315.92 232 312.92 231 312.92 231" stroke="#F1F7FF" stroke-linecap="round" stroke-linejoin="round"/>
<path d="M313 227H313.01" stroke="#F1F7FF" stroke-linecap="round" stroke-linejoin="round"/>
<path d="M125.5 148C142.897 148 157 162.103 157 179.5C157 196.897 142.897 211 125.5 211C108.103 211 94 196.897 94 179.5C94 162.103 108.103 148 125.5 148Z" fill="#D9D9D9"/>
<path fill-rule="evenodd" clip-rule="evenodd" d="M75.8828 232C47.2287 232 24 208.771 24 180.117C24 151.463 47.2287 128.234 75.8828 128.234H91.19C123.446 168.059 126.039 190.773 91 232H75.8828Z" fill="url(#paint2_linear_33_77)"/>
<text transform="matrix(1 0 0 -1 24 105)" fill="#F1F7FF" xml:space="preserve" style="white-space: pre" font-family="Sora" font-size="40" font-weight="300" letter-spacing="0em"><tspan x="0" y="38.6">5232 6779 3135 8893</tspan></text>
<text transform="matrix(1 0 0 -1 284 44)" fill="#F1F7FF" xml:space="preserve" style="white-space: pre" font-family="Sora" font-size="18" letter-spacing="0em"><tspan x="0" y="17.62">488</tspan></text>
<text transform="matrix(1 0 0 -1 170 44)" fill="#F1F7FF" xml:space="preserve" style="white-space: pre" font-family="Sora" font-size="18" letter-spacing="0em"><tspan x="0" y="17.62">01/30</tspan></text>
<text transform="matrix(1 0 0 -1 67 44)" fill="#F1F7FF" xml:space="preserve" style="white-space: pre" font-family="Sora" font-size="18" letter-spacing="0em"><tspan x="0" y="17.62">04/22</tspan></text>
<text transform="matrix(1 0 0 -1 336 287)" fill="#F1F7FF" xml:space="preserve" style="white-space: pre" font-family="Source Sans Pro" font-size="10" letter-spacing="0em"><tspan x="0" y="10.055">Having Issues?&#10;</tspan><tspan x="0" y="23.055">Our App could help you.</tspan></text>
<text transform="matrix(1 0 0 -1 336 245)" fill="#F1F7FF" xml:space="preserve" style="white-space: pre" font-family="Source Sans Pro" font-size="10" letter-spacing="0em"><tspan x="0" y="10.055">Contact us:&#10;</tspan><tspan x="0" y="23.055">415 555 2671</tspan></text>
</g>
<defs>
<filter id="filter0_i_33_77" x="0" y="0" width="725" height="461" filterUnits="userSpaceOnUse" color-interpolation-filters="sRGB">
<feFlood flood-opacity="0" result="BackgroundImageFix"/>
<feBlend mode="normal" in="SourceGraphic" in2="BackgroundImageFix" result="shape"/>
<feColorMatrix in="SourceAlpha" type="matrix" values="0 0 0 0 0 0 0 0 0 0 0 0 0 0 0 0 0 0 127 0" result="hardAlpha"/>
<feOffset dx="3" dy="3"/>
<feGaussianBlur stdDeviation="3"/>
<feComposite in2="hardAlpha" operator="arithmetic" k2="-1" k3="1"/>
<feColorMatrix type="matrix" values="0 0 0 0 1 0 0 0 0 1 0 0 0 0 1 0 0 0 0.25 0"/>
<feBlend mode="normal" in2="shape" result="effect1_innerShadow_33_77"/>
</filter>
<linearGradient id="paint0_linear_33_77" x1="610.09" y1="396.17" x2="354.096" y2="-68.995" gradientUnits="userSpaceOnUse">
<stop stop-color="#1B6CE7"/>
<stop offset="1" stop-color="#003FA6"/>
</linearGradient>
<linearGradient id="paint1_linear_33_77" x1="107" y1="128" x2="150.5" y2="226" gradientUnits="userSpaceOnUse">
<stop stop-color="#F1F7FF"/>
<stop offset="0.0001" stop-color="#F1F7FF"/>
<stop offset="1" stop-color="#E6E6E7"/>
</linearGradient>
<linearGradient id="paint2_linear_33_77" x1="95.5" y1="227" x2="47" y2="140.5" gradientUnits="userSpaceOnUse">
<stop stop-color="#F5F5F5"/>
<stop offset="1" stop-color="#D6D6D6"/>
</linearGradient>
<clipPath id="clip0_33_77">
<rect width="722" height="458" fill="white"/>
</clipPath>
</defs>
</svg>
