<svg width="722" height="458" viewBox="0 0 722 458" fill="none" xmlns="http://www.w3.org/2000/svg">
<g clip-path="url(#clip0_12_2)">
<g filter="url(#filter0_i_12_2)">
<path d="M697 0H25C11.1929 0 0 11.1929 0 25V433C0 446.807 11.1929 458 25 458H697C710.807 458 722 446.807 722 433V25C722 11.1929 710.807 0 697 0Z" fill="url(#paint0_linear_12_2)"/>
</g>
<path d="M581.889 132.248C607.156 132.248 627.64 111.764 627.64 86.4971C627.64 61.2298 607.156 40.7466 581.889 40.7466C556.622 40.7466 536.139 61.2298 536.139 86.4971C536.139 111.764 556.622 132.248 581.889 132.248Z" fill="#E71924"/>
<path d="M637.647 132.248C662.914 132.248 683.398 111.764 683.398 86.4971C683.398 61.2298 662.914 40.7466 637.647 40.7466C612.38 40.7466 591.896 61.2298 591.896 86.4971C591.896 111.764 612.38 132.248 637.647 132.248Z" fill="#F99F19"/>
<path fill-rule="evenodd" clip-rule="evenodd" d="M609.768 122.595C620.636 114.23 627.64 101.092 627.64 86.3172C627.64 71.5427 620.636 58.404 609.768 50.0396C598.9 58.404 591.896 71.5427 591.896 86.3172C591.896 101.092 598.9 114.23 609.768 122.595Z" fill="#F26520"/>
<path d="M172.279 156.195H86.4971C83.1413 156.195 80.4209 158.915 80.4209 162.271V219.459C80.4209 222.815 83.1413 225.536 86.4971 225.536H172.279C175.635 225.536 178.356 222.815 178.356 219.459V162.271C178.356 158.915 175.635 156.195 172.279 156.195Z" fill="url(#paint1_linear_12_2)" stroke="#211F21" stroke-width="2.14455"/>
<path d="M80.7783 178.713H110.087" stroke="#211F21" stroke-width="2" stroke-linecap="round"/>
<path d="M80.7783 200.873H109.445" stroke="#211F21" stroke-width="2" stroke-linecap="round"/>
<path d="M149.404 200.873H177.998" stroke="#211F21" stroke-width="2" stroke-linecap="round"/>
<path d="M148.975 179.428H177.998" stroke="#211F21" stroke-width="2" stroke-linecap="round"/>
<path d="M129.388 168.706C130.572 168.706 131.532 167.745 131.532 166.561C131.532 165.377 130.572 164.417 129.388 164.417C128.203 164.417 127.243 165.377 127.243 166.561C127.243 167.745 128.203 168.706 129.388 168.706Z" fill="#211F21"/>
<path d="M231.053 205.824C236.325 192.59 236.926 185.119 231.053 171.645C230.43 170.215 231.053 169.024 231.768 168.786C232.483 168.547 233.589 168.786 234.27 170.215C241.188 184.73 240.767 192.87 234.627 207.387C233.912 208.817 232.575 208.998 231.768 208.46C230.824 207.831 230.608 206.941 231.053 205.824Z" fill="#F1F7FF"/>
<path d="M223.547 172.717C222.832 173.075 222.375 174.43 223.19 175.934C227.999 185.94 227.801 191.662 223.19 202.026C222.686 203.071 222.998 204.226 223.905 204.528C224.977 204.886 225.913 204.125 226.406 203.098C231.701 192.084 231.84 185.756 226.406 174.147C225.905 173.075 224.619 172.181 223.547 172.717Z" fill="#F1F7FF"/>
<path d="M216.399 177.364C215.326 177.721 215.136 178.908 215.684 180.223C218.53 187.063 218.979 190.898 215.684 197.737C215.041 198.929 214.83 200.193 216.041 200.596C217.252 201 218.126 200.363 218.543 199.524C222.766 191.149 221.82 186.454 218.543 178.079C218.263 177.364 217.471 177.006 216.399 177.364Z" fill="#F1F7FF"/>
<path d="M208.893 180.223C207.82 180.938 207.668 182.022 208.535 183.797C210.344 187.564 210.303 189.68 208.535 193.448C207.713 195.11 207.463 197.022 208.893 197.38C210.322 197.737 210.957 197.229 211.752 195.235C213.578 189.987 213.756 187.02 211.752 181.653C211.291 180.261 210.322 179.508 208.893 180.223Z" fill="#F1F7FF"/>
<path d="M145.115 170.849C142.372 161.508 137.251 156.91 129.03 156.91C119.023 156.91 116.194 164.53 110.087 178.355C113.998 187.507 114.039 192.437 110.087 200.873C116.494 219.254 121.24 224.915 129.388 224.821C140.111 224.821 143.163 215.733 149.046 200.873C145.952 192.497 145.622 187.875 148.5 179.5" stroke="#211F21" stroke-width="2" stroke-linecap="round"/>
<path d="M136.762 394.253V346.085C136.762 340.867 139.143 339.663 142.315 339.663C142.315 339.663 158.578 339.663 161.754 339.663C164.929 339.663 168.497 340.064 168.497 344.479C168.497 348.895 168.497 347.69 168.497 350.099C168.497 352.508 166.912 354.916 162.944 354.916C158.975 354.916 153.82 354.916 153.82 354.916C153.82 354.916 153.82 334.71 153.82 331.233C153.82 327.757 155.069 325.614 160.167 325.614C165.264 325.614 163.34 325.614 170.084 325.614C176.828 325.614 185.159 328.6 185.159 336.451C185.159 344.303 185.159 351.303 185.159 351.303C184.365 356.12 182.243 358.05 178.018 359.733C185.954 361.338 189.126 364.148 189.126 368.965C189.126 368.965 189.127 371.774 189.127 383.816C189.127 395.859 177.621 397.464 173.258 397.464C168.894 397.464 170.481 397.464 170.481 397.464C163.34 397.464 139.937 397.464 139.937 397.464C138.35 397.464 136.762 395.859 136.762 394.253ZM154.216 383.014V367.359C154.216 367.359 163.339 367.359 166.911 367.359C170.482 367.359 172.464 369.768 172.464 372.577C172.464 375.387 172.464 378.598 172.464 378.598C172.464 382.211 169.689 383.816 165.721 383.816H154.216V383.014Z" stroke="#F1F7FF" stroke-width="2.4356"/>
<path d="M225.16 363V345.48H229.816L234.208 355.944H234.64L239.008 345.48H243.736V363H240.352V348.048L240.784 348.096L236.056 359.424H232.576L227.824 348.096L228.28 348.048V363H225.16ZM246.33 363L252.306 345.48H257.874L264.018 363H260.514L255.306 347.808L256.53 348.336H253.53L254.778 347.808L249.738 363H246.33ZM250.506 358.344L251.586 355.464H258.69L259.746 358.344H250.506ZM266.621 363V345.36H270.029V363H266.621ZM277.325 363L271.949 355.368H275.765L281.309 363H277.325ZM269.021 357.144V354.384H273.485C274.109 354.384 274.645 354.256 275.093 354C275.557 353.744 275.917 353.384 276.173 352.92C276.429 352.456 276.557 351.928 276.557 351.336C276.557 350.728 276.429 350.192 276.173 349.728C275.917 349.264 275.557 348.904 275.093 348.648C274.645 348.392 274.109 348.264 273.485 348.264H269.021V345.36H273.125C274.533 345.36 275.749 345.568 276.773 345.984C277.813 346.4 278.613 347.032 279.173 347.88C279.733 348.728 280.013 349.792 280.013 351.072V351.456C280.013 352.752 279.725 353.816 279.149 354.648C278.589 355.48 277.797 356.104 276.773 356.52C275.749 356.936 274.533 357.144 273.125 357.144H269.021ZM291.556 363.456C289.972 363.456 288.612 363.176 287.476 362.616C286.34 362.056 285.412 361.328 284.692 360.432C283.988 359.536 283.468 358.56 283.132 357.504C282.796 356.448 282.628 355.432 282.628 354.456V353.928C282.628 352.84 282.796 351.768 283.132 350.712C283.484 349.656 284.02 348.696 284.74 347.832C285.46 346.968 286.372 346.28 287.476 345.768C288.596 345.24 289.916 344.976 291.436 344.976C293.02 344.976 294.396 345.264 295.564 345.84C296.748 346.4 297.692 347.2 298.396 348.24C299.1 349.264 299.524 350.464 299.668 351.84H296.236C296.108 351.04 295.82 350.368 295.372 349.824C294.94 349.264 294.388 348.848 293.716 348.576C293.044 348.288 292.284 348.144 291.436 348.144C290.572 348.144 289.804 348.296 289.132 348.6C288.46 348.888 287.9 349.304 287.452 349.848C287.004 350.392 286.66 351.032 286.42 351.768C286.196 352.504 286.084 353.32 286.084 354.216C286.084 355.08 286.196 355.88 286.42 356.616C286.66 357.352 287.012 358 287.476 358.56C287.94 359.104 288.508 359.528 289.18 359.832C289.868 360.136 290.66 360.288 291.556 360.288C292.868 360.288 293.972 359.968 294.868 359.328C295.78 358.672 296.332 357.76 296.524 356.592H299.956C299.796 357.84 299.372 358.984 298.684 360.024C297.996 361.064 297.052 361.896 295.852 362.52C294.652 363.144 293.22 363.456 291.556 363.456ZM311.064 363.456C309.48 363.456 308.104 363.176 306.936 362.616C305.784 362.056 304.824 361.328 304.056 360.432C303.304 359.52 302.736 358.544 302.352 357.504C301.984 356.448 301.8 355.432 301.8 354.456V353.928C301.8 352.856 301.992 351.792 302.376 350.736C302.76 349.664 303.336 348.696 304.104 347.832C304.888 346.968 305.856 346.28 307.008 345.768C308.16 345.24 309.512 344.976 311.064 344.976C312.6 344.976 313.944 345.24 315.096 345.768C316.248 346.28 317.208 346.968 317.976 347.832C318.76 348.696 319.344 349.664 319.728 350.736C320.112 351.792 320.304 352.856 320.304 353.928V354.456C320.304 355.432 320.112 356.448 319.728 357.504C319.36 358.544 318.792 359.52 318.024 360.432C317.272 361.328 316.312 362.056 315.144 362.616C313.992 363.176 312.632 363.456 311.064 363.456ZM311.064 360.288C311.96 360.288 312.76 360.128 313.464 359.808C314.184 359.488 314.792 359.048 315.288 358.488C315.8 357.912 316.184 357.264 316.44 356.544C316.712 355.808 316.848 355.032 316.848 354.216C316.848 353.336 316.712 352.528 316.44 351.792C316.184 351.056 315.8 350.416 315.288 349.872C314.792 349.328 314.184 348.904 313.464 348.6C312.744 348.296 311.944 348.144 311.064 348.144C310.168 348.144 309.36 348.296 308.64 348.6C307.92 348.904 307.304 349.328 306.792 349.872C306.296 350.416 305.912 351.056 305.64 351.792C305.384 352.528 305.256 353.336 305.256 354.216C305.256 355.032 305.384 355.808 305.64 356.544C305.912 357.264 306.296 357.912 306.792 358.488C307.304 359.048 307.92 359.488 308.64 359.808C309.36 360.128 310.168 360.288 311.064 360.288ZM329.48 363.456C327.928 363.456 326.616 363.208 325.544 362.712C324.488 362.216 323.68 361.536 323.12 360.672C322.56 359.792 322.28 358.8 322.28 357.696H325.616C325.616 358.16 325.744 358.616 326 359.064C326.256 359.496 326.664 359.848 327.224 360.12C327.8 360.392 328.552 360.528 329.48 360.528C330.312 360.528 331.008 360.408 331.568 360.168C332.128 359.928 332.544 359.616 332.816 359.232C333.088 358.832 333.224 358.384 333.224 357.888C333.224 357.264 332.96 356.768 332.432 356.4C331.904 356.016 331.088 355.776 329.984 355.68L328.448 355.56C326.768 355.416 325.424 354.896 324.416 354C323.424 353.088 322.928 351.888 322.928 350.4C322.928 349.28 323.192 348.32 323.72 347.52C324.248 346.704 324.984 346.08 325.928 345.648C326.888 345.2 328.008 344.976 329.288 344.976C330.616 344.976 331.76 345.208 332.72 345.672C333.68 346.136 334.424 346.792 334.952 347.64C335.48 348.472 335.744 349.456 335.744 350.592H332.408C332.408 350.112 332.288 349.672 332.048 349.272C331.824 348.856 331.48 348.528 331.016 348.288C330.568 348.032 329.992 347.904 329.288 347.904C328.616 347.904 328.056 348.016 327.608 348.24C327.16 348.464 326.824 348.768 326.6 349.152C326.376 349.536 326.264 349.952 326.264 350.4C326.264 350.944 326.464 351.424 326.864 351.84C327.264 352.24 327.896 352.472 328.76 352.536L330.296 352.68C331.544 352.776 332.64 353.04 333.584 353.472C334.528 353.904 335.256 354.488 335.768 355.224C336.296 355.96 336.56 356.848 336.56 357.888C336.56 358.992 336.272 359.968 335.696 360.816C335.12 361.648 334.296 362.296 333.224 362.76C332.168 363.224 330.92 363.456 329.48 363.456ZM352.751 363.456C351.167 363.456 349.807 363.176 348.671 362.616C347.535 362.056 346.607 361.328 345.887 360.432C345.183 359.536 344.663 358.56 344.327 357.504C343.991 356.448 343.823 355.432 343.823 354.456V353.928C343.823 352.84 343.991 351.768 344.327 350.712C344.679 349.656 345.215 348.696 345.935 347.832C346.655 346.968 347.567 346.28 348.671 345.768C349.791 345.24 351.111 344.976 352.631 344.976C354.215 344.976 355.591 345.264 356.759 345.84C357.943 346.4 358.887 347.2 359.591 348.24C360.295 349.264 360.719 350.464 360.863 351.84H357.431C357.303 351.04 357.015 350.368 356.567 349.824C356.135 349.264 355.583 348.848 354.911 348.576C354.239 348.288 353.479 348.144 352.631 348.144C351.767 348.144 350.999 348.296 350.327 348.6C349.655 348.888 349.095 349.304 348.647 349.848C348.199 350.392 347.855 351.032 347.615 351.768C347.391 352.504 347.279 353.32 347.279 354.216C347.279 355.08 347.391 355.88 347.615 356.616C347.855 357.352 348.207 358 348.671 358.56C349.135 359.104 349.703 359.528 350.375 359.832C351.063 360.136 351.855 360.288 352.751 360.288C354.063 360.288 355.167 359.968 356.063 359.328C356.975 358.672 357.527 357.76 357.719 356.592H361.151C360.991 357.84 360.567 358.984 359.879 360.024C359.191 361.064 358.247 361.896 357.047 362.52C355.847 363.144 354.415 363.456 352.751 363.456ZM362.135 363L368.111 345.48H373.679L379.823 363H376.319L371.111 347.808L372.335 348.336H369.335L370.583 347.808L365.543 363H362.135ZM366.311 358.344L367.391 355.464H374.495L375.551 358.344H366.311ZM382.426 363V345.36H385.834V363H382.426ZM393.13 363L387.754 355.368H391.57L397.114 363H393.13ZM384.826 357.144V354.384H389.29C389.914 354.384 390.45 354.256 390.898 354C391.362 353.744 391.722 353.384 391.978 352.92C392.234 352.456 392.362 351.928 392.362 351.336C392.362 350.728 392.234 350.192 391.978 349.728C391.722 349.264 391.362 348.904 390.898 348.648C390.45 348.392 389.914 348.264 389.29 348.264H384.826V345.36H388.93C390.338 345.36 391.554 345.568 392.578 345.984C393.618 346.4 394.418 347.032 394.978 347.88C395.538 348.728 395.818 349.792 395.818 351.072V351.456C395.818 352.752 395.53 353.816 394.954 354.648C394.394 355.48 393.602 356.104 392.578 356.52C391.554 356.936 390.338 357.144 388.93 357.144H384.826ZM403.33 363L397.738 345.48H401.266L405.898 360.648L404.89 360.168H407.482L406.45 360.648L410.722 345.48H414.13L408.946 363H403.33ZM414.026 363L420.002 345.48H425.57L431.714 363H428.21L423.002 347.808L424.226 348.336H421.226L422.474 347.808L417.434 363H414.026ZM418.202 358.344L419.282 355.464H426.386L427.442 358.344H418.202ZM434.316 363V345.48H437.724V363H434.316ZM437.244 363V360H444.804V363H437.244ZM459.078 363V345.48H462.486V363H459.078ZM447.582 363V345.48H450.99V363H447.582ZM450.366 355.728V352.728H459.702V355.728H450.366ZM475.033 363.456C473.449 363.456 472.073 363.176 470.905 362.616C469.753 362.056 468.793 361.328 468.025 360.432C467.273 359.52 466.705 358.544 466.321 357.504C465.953 356.448 465.769 355.432 465.769 354.456V353.928C465.769 352.856 465.961 351.792 466.345 350.736C466.729 349.664 467.305 348.696 468.073 347.832C468.857 346.968 469.825 346.28 470.977 345.768C472.129 345.24 473.481 344.976 475.033 344.976C476.569 344.976 477.913 345.24 479.065 345.768C480.217 346.28 481.177 346.968 481.945 347.832C482.729 348.696 483.313 349.664 483.697 350.736C484.081 351.792 484.273 352.856 484.273 353.928V354.456C484.273 355.432 484.081 356.448 483.697 357.504C483.329 358.544 482.761 359.52 481.993 360.432C481.241 361.328 480.281 362.056 479.113 362.616C477.961 363.176 476.601 363.456 475.033 363.456ZM475.033 360.288C475.929 360.288 476.729 360.128 477.433 359.808C478.153 359.488 478.761 359.048 479.257 358.488C479.769 357.912 480.153 357.264 480.409 356.544C480.681 355.808 480.817 355.032 480.817 354.216C480.817 353.336 480.681 352.528 480.409 351.792C480.153 351.056 479.769 350.416 479.257 349.872C478.761 349.328 478.153 348.904 477.433 348.6C476.713 348.296 475.913 348.144 475.033 348.144C474.137 348.144 473.329 348.296 472.609 348.6C471.889 348.904 471.273 349.328 470.761 349.872C470.265 350.416 469.881 351.056 469.609 351.792C469.353 352.528 469.225 353.336 469.225 354.216C469.225 355.032 469.353 355.808 469.609 356.544C469.881 357.264 470.265 357.912 470.761 358.488C471.273 359.048 471.889 359.488 472.609 359.808C473.329 360.128 474.137 360.288 475.033 360.288Z" fill="#F1F7FF"/>
<path d="M71 359.365V369.801C71 378.632 80.9934 383.85 88.1887 383.85C95.3839 383.85 98.9925 383.85 106.577 383.85C114.161 383.85 123.365 377.523 123.365 369.801V354.95C122.966 348.126 116.97 343.593 106.577 341.302C93.6853 338.461 89.6046 336.387 88.9882 331.669V318.021C89.1312 313.371 90.8202 312.234 95.7837 312H106.976C115.039 312.702 121.499 317.525 122.166 325.648V332.873C122.279 335.477 121.762 336.178 119.768 336.084H108.176C106.219 336.129 105.684 335.416 105.777 332.873V329.26C105.23 325.475 103.246 324.782 98.1821 324.845H78.595C74.0292 324.969 72.9117 326.614 72.9987 331.669V337.288C73.3215 344.686 77.7528 347.343 84.9908 350.133C101.478 355.676 106.577 358.161 106.577 361.773V365.386C106.577 368.597 104.178 370.604 100.581 370.604C100.581 370.604 100.581 370.604 94.1847 370.604C87.7889 370.604 88.1887 365.386 88.1887 365.386V359.365C88.1887 356.957 86.5897 355.752 84.9908 355.752H74.5976C72.1992 355.752 71 357.358 71 359.365Z" stroke="#F1F7FF" stroke-width="2.4356"/>
</g>
<defs>
<filter id="filter0_i_12_2" x="0" y="0" width="725" height="461" filterUnits="userSpaceOnUse" color-interpolation-filters="sRGB">
<feFlood flood-opacity="0" result="BackgroundImageFix"/>
<feBlend mode="normal" in="SourceGraphic" in2="BackgroundImageFix" result="shape"/>
<feColorMatrix in="SourceAlpha" type="matrix" values="0 0 0 0 0 0 0 0 0 0 0 0 0 0 0 0 0 0 127 0" result="hardAlpha"/>
<feOffset dx="3" dy="3"/>
<feGaussianBlur stdDeviation="3"/>
<feComposite in2="hardAlpha" operator="arithmetic" k2="-1" k3="1"/>
<feColorMatrix type="matrix" values="0 0 0 0 1 0 0 0 0 1 0 0 0 0 1 0 0 0 0.25 0"/>
<feBlend mode="normal" in2="shape" result="effect1_innerShadow_12_2"/>
</filter>
<linearGradient id="paint0_linear_12_2" x1="610.09" y1="61.83" x2="354.096" y2="526.995" gradientUnits="userSpaceOnUse">
<stop stop-color="#1B6CE7"/>
<stop offset="1" stop-color="#003FA6"/>
</linearGradient>
<linearGradient id="paint1_linear_12_2" x1="171" y1="165" x2="87" y2="221" gradientUnits="userSpaceOnUse">
<stop stop-color="#F4F4F4"/>
<stop offset="1" stop-color="#D6D6D6"/>
</linearGradient>
<clipPath id="clip0_12_2">
<rect width="722" height="458" fill="white"/>
</clipPath>
</defs>
</svg>
