<svg width="123" height="123" viewBox="0 0 123 123" fill="none" xmlns="http://www.w3.org/2000/svg">
<path d="M46.592 61.503C38.3704 61.503 31.6818 54.8144 31.6818 46.5931C31.6818 43.5055 29.1786 41.0022 26.0909 41.0022C23.0032 41.0022 20.5 43.5055 20.5 46.5931C20.5 60.9804 32.2048 72.6848 46.592 72.6848C49.6797 72.6848 52.1829 70.1816 52.1829 67.0939C52.1829 64.0062 49.6797 61.503 46.592 61.503Z" fill="url(#paint0_linear_328_81)"/>
<path d="M121.362 113.456L83.2408 75.3345C89.4676 67.4118 93.1859 57.4287 93.1859 46.5931C93.1859 20.9014 72.2845 0 46.5928 0C20.9014 0 0 20.9014 0 46.5928C0 72.2841 20.9014 93.1855 46.5928 93.1855C57.428 93.1855 67.4115 89.4676 75.3341 83.2408L113.456 121.362C114.547 122.454 115.978 123 117.409 123C118.84 123 120.271 122.454 121.362 121.362C123.546 119.179 123.546 115.639 121.362 113.456ZM11.1818 46.5928C11.1818 27.0671 27.0671 11.1818 46.5928 11.1818C66.1185 11.1818 82.0041 27.0671 82.0041 46.5928C82.0041 66.1185 66.1185 82.0037 46.5928 82.0037C27.0671 82.0037 11.1818 66.1185 11.1818 46.5928Z" fill="url(#paint1_linear_328_81)"/>
<defs>
<linearGradient id="paint0_linear_328_81" x1="48.9632" y1="71.2681" x2="24.3641" y2="45.7672" gradientUnits="userSpaceOnUse">
<stop stop-color="#003FA6"/>
<stop offset="1" stop-color="#1A6BE6"/>
</linearGradient>
<linearGradient id="paint1_linear_328_81" x1="110.5" y1="117.5" x2="15" y2="18.5" gradientUnits="userSpaceOnUse">
<stop stop-color="#003FA6"/>
<stop offset="1" stop-color="#1A6BE6"/>
</linearGradient>
</defs>
</svg>
