<svg width="722" height="458" viewBox="0 0 722 458" fill="none" xmlns="http://www.w3.org/2000/svg">
<g clip-path="url(#clip0_12_2)">
<g filter="url(#filter0_i_12_2)">
<path d="M697 0H25C11.1929 0 0 11.1929 0 25V433C0 446.807 11.1929 458 25 458H697C710.807 458 722 446.807 722 433V25C722 11.1929 710.807 0 697 0Z" fill="url(#paint0_linear_12_2)"/>
</g>
<path d="M581.889 132.248C607.156 132.248 627.64 111.764 627.64 86.4971C627.64 61.2298 607.156 40.7466 581.889 40.7466C556.622 40.7466 536.139 61.2298 536.139 86.4971C536.139 111.764 556.622 132.248 581.889 132.248Z" fill="#E71924"/>
<path d="M637.647 132.248C662.914 132.248 683.398 111.764 683.398 86.4971C683.398 61.2298 662.914 40.7466 637.647 40.7466C612.38 40.7466 591.896 61.2298 591.896 86.4971C591.896 111.764 612.38 132.248 637.647 132.248Z" fill="#F99F19"/>
<path fill-rule="evenodd" clip-rule="evenodd" d="M609.768 122.595C620.636 114.23 627.64 101.092 627.64 86.3172C627.64 71.5427 620.636 58.404 609.768 50.0396C598.9 58.404 591.897 71.5427 591.897 86.3172C591.897 101.092 598.9 114.23 609.768 122.595Z" fill="#F26520"/>
<path d="M172.279 156.195H86.4971C83.1413 156.195 80.4209 158.915 80.4209 162.271V219.459C80.4209 222.815 83.1413 225.536 86.4971 225.536H172.279C175.635 225.536 178.356 222.815 178.356 219.459V162.271C178.356 158.915 175.635 156.195 172.279 156.195Z" fill="url(#paint1_linear_12_2)" stroke="#211F21" stroke-width="2.14455"/>
<path d="M80.7783 178.713H110.087" stroke="#211F21" stroke-width="2" stroke-linecap="round"/>
<path d="M80.7783 200.873H109.445" stroke="#211F21" stroke-width="2" stroke-linecap="round"/>
<path d="M149.404 200.873H177.998" stroke="#211F21" stroke-width="2" stroke-linecap="round"/>
<path d="M148.975 179.428H177.998" stroke="#211F21" stroke-width="2" stroke-linecap="round"/>
<path d="M129.388 168.706C130.573 168.706 131.533 167.745 131.533 166.561C131.533 165.377 130.573 164.417 129.388 164.417C128.204 164.417 127.244 165.377 127.244 166.561C127.244 167.745 128.204 168.706 129.388 168.706Z" fill="#211F21"/>
<path d="M231.053 205.824C236.325 192.59 236.926 185.119 231.053 171.645C230.43 170.215 231.053 169.024 231.768 168.786C232.483 168.547 233.589 168.786 234.27 170.215C241.188 184.73 240.767 192.87 234.627 207.387C233.912 208.817 232.575 208.998 231.768 208.46C230.824 207.831 230.608 206.941 231.053 205.824Z" fill="#F1F7FF"/>
<path d="M223.547 172.717C222.832 173.075 222.375 174.43 223.19 175.934C227.999 185.94 227.801 191.662 223.19 202.026C222.686 203.071 222.998 204.226 223.905 204.528C224.977 204.886 225.913 204.125 226.406 203.098C231.701 192.084 231.84 185.756 226.406 174.147C225.905 173.075 224.619 172.181 223.547 172.717Z" fill="#F1F7FF"/>
<path d="M216.399 177.364C215.326 177.721 215.136 178.908 215.684 180.223C218.53 187.063 218.979 190.898 215.684 197.737C215.041 198.929 214.83 200.193 216.041 200.596C217.252 201 218.126 200.363 218.543 199.524C222.766 191.149 221.82 186.454 218.543 178.079C218.263 177.364 217.471 177.006 216.399 177.364Z" fill="#F1F7FF"/>
<path d="M208.893 180.223C207.82 180.938 207.668 182.022 208.535 183.797C210.344 187.564 210.303 189.68 208.535 193.448C207.713 195.11 207.463 197.022 208.893 197.38C210.322 197.737 210.957 197.229 211.752 195.235C213.578 189.987 213.756 187.02 211.752 181.653C211.291 180.261 210.322 179.508 208.893 180.223Z" fill="#F1F7FF"/>
<path d="M145.115 170.849C142.372 161.508 137.251 156.91 129.03 156.91C119.023 156.91 116.194 164.53 110.087 178.355C113.998 187.507 114.039 192.437 110.087 200.873C116.494 219.254 121.24 224.915 129.388 224.821C140.111 224.821 143.163 215.733 149.046 200.873C145.952 192.497 145.622 187.875 148.5 179.5" stroke="#211F21" stroke-width="2" stroke-linecap="round"/>
<path d="M136.762 394.253V346.085C136.762 340.867 139.143 339.663 142.315 339.663C142.315 339.663 158.578 339.663 161.754 339.663C164.929 339.663 168.497 340.064 168.497 344.479C168.497 348.895 168.497 347.69 168.497 350.099C168.497 352.508 166.912 354.916 162.944 354.916C158.975 354.916 153.82 354.916 153.82 354.916C153.82 354.916 153.82 334.71 153.82 331.233C153.82 327.757 155.069 325.614 160.167 325.614C165.264 325.614 163.34 325.614 170.084 325.614C176.828 325.614 185.159 328.6 185.159 336.451C185.159 344.303 185.159 351.303 185.159 351.303C184.365 356.12 182.243 358.05 178.018 359.733C185.954 361.338 189.126 364.148 189.126 368.965C189.126 368.965 189.127 371.774 189.127 383.816C189.127 395.859 177.621 397.464 173.258 397.464C168.894 397.464 170.481 397.464 170.481 397.464C163.34 397.464 139.937 397.464 139.937 397.464C138.35 397.464 136.762 395.859 136.762 394.253ZM154.216 383.014V367.359C154.216 367.359 163.339 367.359 166.911 367.359C170.482 367.359 172.464 369.768 172.464 372.577C172.464 375.387 172.464 378.598 172.464 378.598C172.464 382.211 169.689 383.816 165.721 383.816H154.216V383.014Z" stroke="#F1F7FF" stroke-width="2.4356"/>
<text fill="#F1F7FF" xml:space="preserve" style="white-space: pre" font-family="Sora" font-size="24" font-weight="600" letter-spacing="0em"><tspan x="223" y="363.16">MARCOS CARVALHO</tspan></text>
<path d="M71 359.365V369.801C71 378.632 80.9934 383.85 88.1887 383.85C95.3839 383.85 98.9925 383.85 106.577 383.85C114.161 383.85 123.365 377.523 123.365 369.801V354.95C122.966 348.126 116.97 343.593 106.577 341.302C93.6853 338.461 89.6046 336.387 88.9882 331.669V318.021C89.1312 313.371 90.8202 312.234 95.7837 312H106.976C115.039 312.702 121.499 317.525 122.166 325.648V332.873C122.279 335.477 121.762 336.178 119.768 336.084H108.176C106.219 336.129 105.684 335.416 105.777 332.873V329.26C105.23 325.475 103.246 324.782 98.1821 324.845H78.595C74.0292 324.969 72.9117 326.614 72.9987 331.669V337.288C73.3215 344.686 77.7528 347.343 84.9908 350.133C101.478 355.676 106.577 358.161 106.577 361.773V365.386C106.577 368.597 104.178 370.604 100.581 370.604C100.581 370.604 100.581 370.604 94.1847 370.604C87.7889 370.604 88.1887 365.386 88.1887 365.386V359.365C88.1887 356.957 86.5897 355.752 84.9908 355.752H74.5976C72.1992 355.752 71 357.358 71 359.365Z" stroke="#F1F7FF" stroke-width="2.4356"/>
</g>
<defs>
<filter id="filter0_i_12_2" x="0" y="0" width="725" height="461" filterUnits="userSpaceOnUse" color-interpolation-filters="sRGB">
<feFlood flood-opacity="0" result="BackgroundImageFix"/>
<feBlend mode="normal" in="SourceGraphic" in2="BackgroundImageFix" result="shape"/>
<feColorMatrix in="SourceAlpha" type="matrix" values="0 0 0 0 0 0 0 0 0 0 0 0 0 0 0 0 0 0 127 0" result="hardAlpha"/>
<feOffset dx="3" dy="3"/>
<feGaussianBlur stdDeviation="3"/>
<feComposite in2="hardAlpha" operator="arithmetic" k2="-1" k3="1"/>
<feColorMatrix type="matrix" values="0 0 0 0 1 0 0 0 0 1 0 0 0 0 1 0 0 0 0.25 0"/>
<feBlend mode="normal" in2="shape" result="effect1_innerShadow_12_2"/>
</filter>
<linearGradient id="paint0_linear_12_2" x1="610.09" y1="61.83" x2="354.096" y2="526.995" gradientUnits="userSpaceOnUse">
<stop stop-color="#1B6CE7"/>
<stop offset="1" stop-color="#003FA6"/>
</linearGradient>
<linearGradient id="paint1_linear_12_2" x1="171" y1="165" x2="87" y2="221" gradientUnits="userSpaceOnUse">
<stop stop-color="#F4F4F4"/>
<stop offset="1" stop-color="#D6D6D6"/>
</linearGradient>
<clipPath id="clip0_12_2">
<rect width="722" height="458" fill="white"/>
</clipPath>
</defs>
</svg>
