<svg width="722" height="458" viewBox="0 0 722 458" fill="none" xmlns="http://www.w3.org/2000/svg">
<g clip-path="url(#clip0_33_77)">
<g filter="url(#filter0_i_33_77)">
<path d="M697 458H25C11.1929 458 0 446.807 0 433V25C0 11.1929 11.1929 0 25 0H697C710.807 0 722 11.1929 722 25V433C722 446.807 710.807 458 697 458Z" fill="url(#paint0_linear_33_77)"/>
</g>
<path d="M722 425H0V317.656H722V425Z" fill="#D6D6D6"/>
<path d="M129.555 232H75.8828C47.2287 232 24 208.771 24 180.117V180.117C24 151.463 47.2287 128.234 75.8828 128.234H129.555C158.209 128.234 181.438 151.463 181.438 180.117V180.117C181.438 208.771 158.209 232 129.555 232Z" fill="url(#paint1_linear_33_77)"/>
<path d="M74.4759 255.296C72.4839 255.296 70.6239 255.428 68.8959 255.692V259.868C69.7359 259.748 70.6479 259.652 71.6319 259.58C72.6399 259.508 73.5759 259.472 74.4399 259.472C76.8399 259.472 78.5679 259.916 79.6239 260.804C80.7039 261.668 81.2439 263.072 81.2439 265.016V266.744C80.5719 265.472 79.6479 264.5 78.4719 263.828C77.3199 263.18 75.9879 262.856 74.4759 262.856C72.6759 262.856 71.1039 263.288 69.7599 264.152C68.4399 265.04 67.4079 266.216 66.6639 267.68C65.9199 269.168 65.5479 270.836 65.5479 272.684V273.44C65.5479 275.288 65.9319 276.944 66.6999 278.408C67.4919 279.872 68.5719 281.024 69.9399 281.864C71.3319 282.728 72.9399 283.16 74.7639 283.16C76.4679 283.16 77.9319 282.764 79.1559 281.972C80.4039 281.18 81.3519 280.04 81.9999 278.552V282.548H85.9599V265.304C85.9599 261.728 85.0359 259.172 83.1879 257.636C81.3399 256.076 78.4359 255.296 74.4759 255.296ZM75.9159 267.14C76.8759 267.14 77.7519 267.356 78.5439 267.788C79.3359 268.22 79.9719 268.844 80.4519 269.66C80.9319 270.476 81.1719 271.46 81.1719 272.612V273.872C81.1719 274.976 80.9199 275.912 80.4159 276.68C79.9359 277.448 79.2879 278.024 78.4719 278.408C77.6799 278.816 76.8279 279.02 75.9159 279.02C74.3319 279.02 73.0359 278.468 72.0279 277.364C71.0439 276.284 70.5519 274.844 70.5519 273.044C70.5519 271.22 71.0439 269.78 72.0279 268.724C73.0359 267.668 74.3319 267.14 75.9159 267.14ZM100.814 262.316C98.5101 262.316 96.5661 262.784 94.9821 263.72C93.3981 264.68 92.1861 265.928 91.3461 267.464C90.5301 269 90.1221 270.632 90.1221 272.36V273.116C90.1221 274.916 90.5421 276.584 91.3821 278.12C92.2461 279.656 93.4701 280.892 95.0541 281.828C96.6621 282.764 98.5821 283.232 100.814 283.232C103.022 283.232 104.918 282.764 106.502 281.828C108.11 280.892 109.334 279.656 110.174 278.12C111.038 276.584 111.47 274.916 111.47 273.116V272.36C111.47 270.632 111.05 269 110.21 267.464C109.394 265.928 108.194 264.68 106.61 263.72C105.026 262.784 103.094 262.316 100.814 262.316ZM100.814 266.6C102.638 266.6 104.03 267.176 104.99 268.328C105.974 269.504 106.466 270.98 106.466 272.756C106.466 274.532 105.962 276.008 104.954 277.184C103.946 278.36 102.566 278.948 100.814 278.948C99.0381 278.948 97.6461 278.36 96.6381 277.184C95.6301 276.008 95.1261 274.532 95.1261 272.756C95.1261 270.98 95.6061 269.504 96.5661 268.328C97.5501 267.176 98.9661 266.6 100.814 266.6ZM116.104 263V285.536H113.656V289.28H121.108V263H116.104ZM134.921 262.352C133.097 262.352 131.477 262.784 130.061 263.648C128.645 264.536 127.529 265.736 126.713 267.248C125.921 268.76 125.525 270.464 125.525 272.36V273.116C125.525 274.988 125.909 276.68 126.677 278.192C127.445 279.704 128.513 280.904 129.881 281.792C131.273 282.704 132.905 283.16 134.777 283.16C136.169 283.16 137.417 282.872 138.521 282.296C139.649 281.744 140.573 280.904 141.293 279.776V289.28H146.297V263H142.337V267.104C141.665 265.52 140.669 264.332 139.349 263.54C138.053 262.748 136.577 262.352 134.921 262.352ZM136.037 266.564C137.021 266.564 137.921 266.78 138.737 267.212C139.553 267.668 140.201 268.316 140.681 269.156C141.185 269.996 141.437 271.004 141.437 272.18V273.62C141.437 274.748 141.173 275.708 140.645 276.5C140.141 277.292 139.481 277.892 138.665 278.3C137.849 278.732 136.973 278.948 136.037 278.948C134.405 278.948 133.073 278.372 132.041 277.22C131.033 276.092 130.529 274.592 130.529 272.72C130.529 270.848 131.045 269.348 132.077 268.22C133.109 267.116 134.429 266.564 136.037 266.564Z" fill="#F1F7FF"/>
<path d="M26.54 36V39.936H27.14L27.896 37.836C27.944 37.7 27.99 37.562 28.034 37.422C28.082 37.286 28.13 37.15 28.178 37.014H28.202C28.25 37.15 28.294 37.286 28.334 37.422C28.378 37.562 28.424 37.7 28.472 37.836L29.216 39.936H29.822V36H29.354V38.166C29.354 38.342 29.362 38.536 29.378 38.748C29.394 38.96 29.408 39.154 29.42 39.33H29.396L29.084 38.436L28.34 36.396H28.01L27.266 38.436L26.954 39.33H26.93C26.942 39.154 26.954 38.96 26.966 38.748C26.982 38.536 26.99 38.342 26.99 38.166V36H26.54ZM31.4994 36V39.936H33.7674V39.516H31.9974V38.28H33.4914V37.854H31.9974V36.426H33.8274V36H31.4994ZM35.2634 36V39.936H35.8634L36.6194 37.836C36.6674 37.7 36.7134 37.562 36.7574 37.422C36.8054 37.286 36.8534 37.15 36.9014 37.014H36.9254C36.9734 37.15 37.0174 37.286 37.0574 37.422C37.1014 37.562 37.1474 37.7 37.1954 37.836L37.9394 39.936H38.5454V36H38.0774V38.166C38.0774 38.342 38.0854 38.536 38.1014 38.748C38.1174 38.96 38.1314 39.154 38.1434 39.33H38.1194L37.8074 38.436L37.0634 36.396H36.7334L35.9894 38.436L35.6774 39.33H35.6534C35.6654 39.154 35.6774 38.96 35.6894 38.748C35.7054 38.536 35.7134 38.342 35.7134 38.166V36H35.2634ZM40.2228 36V39.936H41.3928C41.5928 39.936 41.7748 39.918 41.9388 39.882C42.1068 39.846 42.2488 39.79 42.3648 39.714C42.4848 39.638 42.5768 39.538 42.6408 39.414C42.7088 39.294 42.7428 39.148 42.7428 38.976C42.7428 38.78 42.6928 38.602 42.5928 38.442C42.4968 38.286 42.3548 38.178 42.1668 38.118V38.094C42.4068 38.05 42.6007 37.95 42.7488 37.794C42.8968 37.638 42.9708 37.424 42.9708 37.152C42.9708 36.96 42.9348 36.792 42.8628 36.648C42.7908 36.504 42.6888 36.384 42.5568 36.288C42.4248 36.192 42.2668 36.12 42.0828 36.072C41.8988 36.024 41.6968 36 41.4768 36H40.2228ZM40.7208 38.262H41.3028C41.6388 38.262 41.8808 38.32 42.0288 38.436C42.1768 38.552 42.2508 38.71 42.2508 38.91C42.2508 39.138 42.1728 39.3 42.0168 39.396C41.8648 39.492 41.6348 39.54 41.3268 39.54H40.7208V38.262ZM40.7208 36.396H41.4048C41.7448 36.396 42.0088 36.458 42.1968 36.582C42.3848 36.71 42.4788 36.906 42.4788 37.17C42.4788 37.414 42.3868 37.592 42.2028 37.704C42.0188 37.82 41.7528 37.878 41.4048 37.878H40.7208V36.396ZM44.3502 36V39.936H46.6182V39.516H44.8482V38.28H46.3422V37.854H44.8482V36.426H46.6782V36H44.3502ZM48.1142 36V39.936H49.3442C49.5442 39.936 49.7282 39.916 49.8962 39.876C50.0682 39.84 50.2142 39.778 50.3342 39.69C50.4582 39.602 50.5542 39.488 50.6222 39.348C50.6902 39.208 50.7242 39.036 50.7242 38.832C50.7242 38.524 50.6442 38.278 50.4842 38.094C50.3242 37.91 50.1082 37.784 49.8362 37.716L50.8382 36H50.2742L49.3262 37.662H48.6122V36H48.1142ZM48.6122 38.07H49.2722C49.5802 38.07 49.8162 38.132 49.9802 38.256C50.1442 38.384 50.2262 38.576 50.2262 38.832C50.2262 39.092 50.1442 39.274 49.9802 39.378C49.8162 39.482 49.5802 39.534 49.2722 39.534H48.6122V38.07ZM27.632 27.928C27.356 27.928 27.1 27.98 26.864 28.084C26.628 28.188 26.424 28.33 26.252 28.51L26.552 28.858C26.692 28.71 26.856 28.59 27.044 28.498C27.236 28.41 27.434 28.366 27.638 28.366C27.898 28.366 28.1 28.424 28.244 28.54C28.388 28.66 28.46 28.816 28.46 29.008C28.46 29.108 28.442 29.192 28.406 29.26C28.374 29.332 28.328 29.392 28.268 29.44C28.212 29.492 28.144 29.538 28.064 29.578C27.984 29.618 27.898 29.66 27.806 29.704L27.242 29.95C27.15 29.99 27.056 30.038 26.96 30.094C26.864 30.15 26.778 30.218 26.702 30.298C26.626 30.378 26.564 30.472 26.516 30.58C26.468 30.692 26.444 30.82 26.444 30.964C26.444 31.112 26.474 31.25 26.534 31.378C26.598 31.506 26.684 31.616 26.792 31.708C26.904 31.804 27.034 31.878 27.182 31.93C27.334 31.982 27.5 32.008 27.68 32.008C27.916 32.008 28.134 31.962 28.334 31.87C28.534 31.782 28.704 31.666 28.844 31.522L28.574 31.198C28.454 31.314 28.32 31.404 28.172 31.468C28.028 31.536 27.864 31.57 27.68 31.57C27.46 31.57 27.282 31.518 27.146 31.414C27.014 31.314 26.948 31.174 26.948 30.994C26.948 30.898 26.966 30.816 27.002 30.748C27.042 30.684 27.094 30.626 27.158 30.574C27.222 30.526 27.292 30.482 27.368 30.442C27.444 30.406 27.522 30.372 27.602 30.34L28.16 30.1C28.272 30.052 28.378 29.996 28.478 29.932C28.578 29.872 28.664 29.8 28.736 29.716C28.808 29.636 28.864 29.54 28.904 29.428C28.948 29.32 28.97 29.194 28.97 29.05C28.97 28.894 28.938 28.748 28.874 28.612C28.814 28.476 28.726 28.356 28.61 28.252C28.494 28.152 28.354 28.072 28.19 28.012C28.026 27.956 27.84 27.928 27.632 27.928ZM30.3451 28V31.936H30.8431V28H30.3451ZM32.5212 28V31.936H33.0372L34.4592 29.464L34.8852 28.648H34.9093C34.8972 28.848 34.8832 29.054 34.8673 29.266C34.8552 29.482 34.8492 29.694 34.8492 29.902V31.936H35.3233V28H34.8072L33.3792 30.478L32.9532 31.288H32.9292C32.9452 31.088 32.9592 30.884 32.9712 30.676C32.9872 30.472 32.9952 30.266 32.9952 30.058V28H32.5212ZM38.494 27.928C38.246 27.928 38.018 27.974 37.81 28.066C37.602 28.158 37.42 28.29 37.264 28.462C37.112 28.638 36.992 28.852 36.904 29.104C36.82 29.36 36.778 29.648 36.778 29.968C36.778 30.284 36.822 30.568 36.91 30.82C36.998 31.072 37.12 31.286 37.276 31.462C37.432 31.638 37.616 31.772 37.828 31.864C38.04 31.96 38.272 32.008 38.524 32.008C38.764 32.008 38.974 31.958 39.154 31.858C39.338 31.762 39.488 31.65 39.604 31.522L39.334 31.198C39.23 31.31 39.112 31.4 38.98 31.468C38.848 31.536 38.698 31.57 38.53 31.57C38.342 31.57 38.172 31.532 38.02 31.456C37.868 31.384 37.738 31.278 37.63 31.138C37.522 31.002 37.438 30.836 37.378 30.64C37.322 30.444 37.294 30.224 37.294 29.98C37.294 29.732 37.322 29.508 37.378 29.308C37.438 29.112 37.52 28.944 37.624 28.804C37.728 28.664 37.854 28.556 38.002 28.48C38.154 28.404 38.324 28.366 38.512 28.366C38.704 28.366 38.872 28.404 39.016 28.48C39.16 28.56 39.296 28.67 39.424 28.81L39.7 28.498C39.544 28.318 39.368 28.178 39.172 28.078C38.976 27.978 38.75 27.928 38.494 27.928ZM41.0337 28V31.936H43.3017V31.516H41.5317V30.28H43.0257V29.854H41.5317V28.426H43.3617V28H41.0337Z" fill="#F1F7FF"/>
<path d="M139.26 36L138 39.936H138.534L139.164 37.812C139.236 37.576 139.298 37.358 139.35 37.158C139.406 36.958 139.472 36.742 139.548 36.51H139.572C139.644 36.742 139.708 36.958 139.764 37.158C139.82 37.358 139.882 37.576 139.95 37.812L140.58 39.936H141.09L139.842 36H139.26ZM142.824 38.202L142.638 37.602H143.82L143.634 38.202C143.562 38.422 143.494 38.64 143.43 38.856C143.366 39.076 143.302 39.3 143.238 39.528H143.214C143.154 39.3 143.092 39.076 143.028 38.856C142.964 38.64 142.896 38.422 142.824 38.202ZM141.624 36L142.956 39.936H143.52L144.852 36H144.318L143.946 37.2H142.512L142.134 36H141.624ZM146.01 36V39.936H146.508V36.426H148.23V36H146.01ZM149.528 36V39.936H150.026V36H149.528ZM151.704 36V39.936H152.688C153.296 39.936 153.758 39.768 154.074 39.432C154.39 39.096 154.548 38.614 154.548 37.986C154.548 37.674 154.508 37.394 154.428 37.146C154.348 36.902 154.23 36.694 154.074 36.522C153.918 36.354 153.726 36.224 153.498 36.132C153.27 36.044 153.008 36 152.712 36H151.704ZM152.202 36.408H152.652C153.112 36.408 153.456 36.546 153.684 36.822C153.916 37.098 154.032 37.486 154.032 37.986C154.032 38.486 153.916 38.868 153.684 39.132C153.456 39.396 153.112 39.528 152.652 39.528H152.202V36.408ZM139.356 28V31.516H138.168V31.936H141.048V31.516H139.86V28H139.356ZM142.357 28V31.936H142.855V30.286H144.685V31.936H145.189V28H144.685V29.854H142.855V28H142.357ZM146.871 28V31.936H148.101C148.301 31.936 148.485 31.916 148.653 31.876C148.825 31.84 148.971 31.778 149.091 31.69C149.215 31.602 149.311 31.488 149.379 31.348C149.447 31.208 149.481 31.036 149.481 30.832C149.481 30.524 149.401 30.278 149.241 30.094C149.081 29.91 148.865 29.784 148.593 29.716L149.595 28H149.031L148.083 29.662H147.369V28H146.871ZM147.369 30.07H148.029C148.337 30.07 148.573 30.132 148.737 30.256C148.901 30.384 148.983 30.576 148.983 30.832C148.983 31.092 148.901 31.274 148.737 31.378C148.573 31.482 148.337 31.534 148.029 31.534H147.369V30.07ZM152.285 27.928C152.085 27.928 151.897 27.956 151.721 28.012C151.549 28.072 151.399 28.168 151.271 28.3C151.147 28.436 151.049 28.612 150.977 28.828C150.905 29.044 150.869 29.31 150.869 29.626V31.936H151.367V29.614C151.367 29.378 151.391 29.18 151.439 29.02C151.487 28.86 151.551 28.732 151.631 28.636C151.715 28.54 151.813 28.47 151.925 28.426C152.037 28.386 152.157 28.366 152.285 28.366C152.417 28.366 152.539 28.386 152.651 28.426C152.763 28.47 152.861 28.54 152.945 28.636C153.029 28.732 153.095 28.86 153.143 29.02C153.191 29.18 153.215 29.378 153.215 29.614V31.936H153.695V29.626C153.695 29.31 153.659 29.044 153.587 28.828C153.515 28.612 153.415 28.436 153.287 28.3C153.163 28.168 153.015 28.072 152.843 28.012C152.671 27.956 152.485 27.928 152.285 27.928Z" fill="#F1F7FF"/>
<path d="M241.632 35.928C241.356 35.928 241.1 35.98 240.864 36.084C240.628 36.188 240.424 36.33 240.252 36.51L240.552 36.858C240.692 36.71 240.856 36.59 241.044 36.498C241.236 36.41 241.434 36.366 241.638 36.366C241.898 36.366 242.1 36.424 242.244 36.54C242.388 36.66 242.46 36.816 242.46 37.008C242.46 37.108 242.442 37.192 242.406 37.26C242.374 37.332 242.328 37.392 242.268 37.44C242.212 37.492 242.144 37.538 242.064 37.578C241.984 37.618 241.898 37.66 241.806 37.704L241.242 37.95C241.15 37.99 241.056 38.038 240.96 38.094C240.864 38.15 240.778 38.218 240.702 38.298C240.626 38.378 240.564 38.472 240.516 38.58C240.468 38.692 240.444 38.82 240.444 38.964C240.444 39.112 240.474 39.25 240.534 39.378C240.598 39.506 240.684 39.616 240.792 39.708C240.904 39.804 241.034 39.878 241.182 39.93C241.334 39.982 241.5 40.008 241.68 40.008C241.916 40.008 242.134 39.962 242.334 39.87C242.534 39.782 242.704 39.666 242.844 39.522L242.574 39.198C242.454 39.314 242.32 39.404 242.172 39.468C242.028 39.536 241.864 39.57 241.68 39.57C241.46 39.57 241.282 39.518 241.146 39.414C241.014 39.314 240.948 39.174 240.948 38.994C240.948 38.898 240.966 38.816 241.002 38.748C241.042 38.684 241.094 38.626 241.158 38.574C241.222 38.526 241.292 38.482 241.368 38.442C241.444 38.406 241.522 38.372 241.602 38.34L242.16 38.1C242.272 38.052 242.378 37.996 242.478 37.932C242.578 37.872 242.664 37.8 242.736 37.716C242.808 37.636 242.864 37.54 242.904 37.428C242.948 37.32 242.97 37.194 242.97 37.05C242.97 36.894 242.938 36.748 242.874 36.612C242.814 36.476 242.726 36.356 242.61 36.252C242.494 36.152 242.354 36.072 242.19 36.012C242.026 35.956 241.84 35.928 241.632 35.928ZM244.345 36V39.936H246.613V39.516H244.843V38.28H246.337V37.854H244.843V36.426H246.673V36H244.345ZM249.597 35.928C249.349 35.928 249.121 35.974 248.913 36.066C248.705 36.158 248.523 36.29 248.367 36.462C248.215 36.638 248.095 36.852 248.007 37.104C247.923 37.36 247.881 37.648 247.881 37.968C247.881 38.284 247.925 38.568 248.013 38.82C248.101 39.072 248.223 39.286 248.379 39.462C248.535 39.638 248.719 39.772 248.931 39.864C249.143 39.96 249.375 40.008 249.627 40.008C249.867 40.008 250.077 39.958 250.257 39.858C250.441 39.762 250.591 39.65 250.707 39.522L250.437 39.198C250.333 39.31 250.215 39.4 250.083 39.468C249.951 39.536 249.801 39.57 249.633 39.57C249.445 39.57 249.275 39.532 249.123 39.456C248.971 39.384 248.841 39.278 248.733 39.138C248.625 39.002 248.541 38.836 248.481 38.64C248.425 38.444 248.397 38.224 248.397 37.98C248.397 37.732 248.425 37.508 248.481 37.308C248.541 37.112 248.623 36.944 248.727 36.804C248.831 36.664 248.957 36.556 249.105 36.48C249.257 36.404 249.427 36.366 249.615 36.366C249.807 36.366 249.975 36.404 250.119 36.48C250.263 36.56 250.399 36.67 250.527 36.81L250.803 36.498C250.647 36.318 250.471 36.178 250.275 36.078C250.079 35.978 249.853 35.928 249.597 35.928ZM253.453 35.928C253.253 35.928 253.065 35.956 252.889 36.012C252.717 36.072 252.567 36.168 252.439 36.3C252.315 36.436 252.217 36.612 252.145 36.828C252.073 37.044 252.037 37.31 252.037 37.626V39.936H252.535V37.614C252.535 37.378 252.559 37.18 252.607 37.02C252.655 36.86 252.719 36.732 252.799 36.636C252.883 36.54 252.981 36.47 253.093 36.426C253.205 36.386 253.325 36.366 253.453 36.366C253.585 36.366 253.707 36.386 253.819 36.426C253.931 36.47 254.029 36.54 254.113 36.636C254.197 36.732 254.263 36.86 254.311 37.02C254.359 37.18 254.383 37.378 254.383 37.614V39.936H254.863V37.626C254.863 37.31 254.827 37.044 254.755 36.828C254.683 36.612 254.583 36.436 254.455 36.3C254.331 36.168 254.183 36.072 254.011 36.012C253.839 35.956 253.653 35.928 253.453 35.928ZM256.522 36V39.936H257.752C257.952 39.936 258.136 39.916 258.304 39.876C258.476 39.84 258.622 39.778 258.742 39.69C258.866 39.602 258.962 39.488 259.03 39.348C259.098 39.208 259.132 39.036 259.132 38.832C259.132 38.524 259.052 38.278 258.892 38.094C258.732 37.91 258.516 37.784 258.244 37.716L259.246 36H258.682L257.734 37.662H257.02V36H256.522ZM257.02 38.07H257.68C257.988 38.07 258.224 38.132 258.388 38.256C258.552 38.384 258.634 38.576 258.634 38.832C258.634 39.092 258.552 39.274 258.388 39.378C258.224 39.482 257.988 39.534 257.68 39.534H257.02V38.07ZM260.538 36V39.936H261.036V36H260.538ZM263.53 36V39.516H262.342V39.936H265.222V39.516H264.034V36H263.53ZM267.085 36V37.524L265.903 39.936H266.437L266.947 38.826C267.011 38.682 267.073 38.54 267.133 38.4C267.193 38.26 267.257 38.116 267.325 37.968H267.349C267.417 38.116 267.485 38.26 267.553 38.4C267.621 38.54 267.685 38.682 267.745 38.826L268.249 39.936H268.771L267.589 37.524V36H267.085ZM242.028 27.928C241.78 27.928 241.552 27.974 241.344 28.066C241.136 28.158 240.954 28.29 240.798 28.462C240.646 28.638 240.526 28.852 240.438 29.104C240.354 29.36 240.312 29.648 240.312 29.968C240.312 30.284 240.356 30.568 240.444 30.82C240.532 31.072 240.654 31.286 240.81 31.462C240.966 31.638 241.15 31.772 241.362 31.864C241.574 31.96 241.806 32.008 242.058 32.008C242.298 32.008 242.508 31.958 242.688 31.858C242.872 31.762 243.022 31.65 243.138 31.522L242.868 31.198C242.764 31.31 242.646 31.4 242.514 31.468C242.382 31.536 242.232 31.57 242.064 31.57C241.876 31.57 241.706 31.532 241.554 31.456C241.402 31.384 241.272 31.278 241.164 31.138C241.056 31.002 240.972 30.836 240.912 30.64C240.856 30.444 240.828 30.224 240.828 29.98C240.828 29.732 240.856 29.508 240.912 29.308C240.972 29.112 241.054 28.944 241.158 28.804C241.262 28.664 241.388 28.556 241.536 28.48C241.688 28.404 241.858 28.366 242.046 28.366C242.238 28.366 242.406 28.404 242.55 28.48C242.694 28.56 242.83 28.67 242.958 28.81L243.234 28.498C243.078 28.318 242.902 28.178 242.706 28.078C242.51 27.978 242.284 27.928 242.028 27.928ZM245.844 27.928C245.596 27.928 245.368 27.976 245.16 28.072C244.956 28.168 244.78 28.304 244.632 28.48C244.484 28.66 244.368 28.876 244.284 29.128C244.204 29.384 244.164 29.67 244.164 29.986C244.164 30.302 244.204 30.584 244.284 30.832C244.368 31.084 244.484 31.296 244.632 31.468C244.78 31.644 244.956 31.778 245.16 31.87C245.368 31.962 245.596 32.008 245.844 32.008C246.092 32.008 246.318 31.96 246.522 31.864C246.73 31.772 246.908 31.638 247.056 31.462C247.208 31.29 247.324 31.078 247.404 30.826C247.488 30.578 247.53 30.298 247.53 29.986C247.53 29.67 247.488 29.384 247.404 29.128C247.324 28.876 247.208 28.66 247.056 28.48C246.908 28.304 246.73 28.168 246.522 28.072C246.318 27.976 246.092 27.928 245.844 27.928ZM245.844 28.366C246.02 28.366 246.178 28.404 246.318 28.48C246.462 28.556 246.584 28.664 246.684 28.804C246.788 28.948 246.868 29.118 246.924 29.314C246.98 29.514 247.008 29.738 247.008 29.986C247.008 30.23 246.98 30.45 246.924 30.646C246.868 30.842 246.788 31.008 246.684 31.144C246.584 31.28 246.462 31.384 246.318 31.456C246.178 31.532 246.02 31.57 245.844 31.57C245.668 31.57 245.508 31.532 245.364 31.456C245.224 31.384 245.102 31.28 244.998 31.144C244.898 31.008 244.82 30.842 244.764 30.646C244.708 30.45 244.68 30.23 244.68 29.986C244.68 29.738 244.708 29.514 244.764 29.314C244.82 29.118 244.898 28.948 244.998 28.804C245.102 28.664 245.224 28.556 245.364 28.48C245.508 28.404 245.668 28.366 245.844 28.366ZM248.976 28V31.936H249.96C250.568 31.936 251.03 31.768 251.346 31.432C251.662 31.096 251.82 30.614 251.82 29.986C251.82 29.674 251.78 29.394 251.7 29.146C251.62 28.902 251.502 28.694 251.346 28.522C251.19 28.354 250.998 28.224 250.77 28.132C250.542 28.044 250.28 28 249.984 28H248.976ZM249.474 28.408H249.924C250.384 28.408 250.728 28.546 250.956 28.822C251.188 29.098 251.304 29.486 251.304 29.986C251.304 30.486 251.188 30.868 250.956 31.132C250.728 31.396 250.384 31.528 249.924 31.528H249.474V28.408ZM253.268 28V31.936H255.536V31.516H253.766V30.28H255.26V29.854H253.766V28.426H255.596V28H253.268Z" fill="#F1F7FF"/>
<path d="M322 270C322 269.47 321.789 268.961 321.414 268.586C321.039 268.211 320.53 268 320 268H308L304 264V280C304 280.53 304.211 281.039 304.586 281.414C304.961 281.789 305.47 282 306 282H320C320.53 282 321.039 281.789 321.414 281.414C321.789 281.039 322 280.53 322 280V270Z" stroke="#F1F7FF" stroke-linecap="round" stroke-linejoin="round"/>
<path d="M313 222C318.523 222 323 226.477 323 232C323 237.523 318.523 242 313 242C307.477 242 303 237.523 303 232C303 226.477 307.477 222 313 222Z" stroke="#F1F7FF" stroke-linecap="round" stroke-linejoin="round"/>
<path d="M310.09 235C310.325 235.668 310.789 236.232 311.4 236.591C312.011 236.95 312.729 237.081 313.427 236.961C314.125 236.841 314.759 236.478 315.215 235.936C315.671 235.394 315.921 234.708 315.92 234C315.92 232 312.92 231 312.92 231" stroke="#F1F7FF" stroke-linecap="round" stroke-linejoin="round"/>
<path d="M313 227H313.01" stroke="#F1F7FF" stroke-linecap="round" stroke-linejoin="round"/>
<path d="M125.5 148C142.897 148 157 162.103 157 179.5C157 196.897 142.897 211 125.5 211C108.103 211 94 196.897 94 179.5C94 162.103 108.103 148 125.5 148Z" fill="#D9D9D9"/>
<path fill-rule="evenodd" clip-rule="evenodd" d="M75.8828 232C47.2287 232 24 208.771 24 180.117C24 151.463 47.2287 128.234 75.8828 128.234H91.19C123.446 168.059 126.039 190.773 91 232H75.8828Z" fill="url(#paint2_linear_33_77)"/>
<path d="M36.52 65.32C34.3067 65.32 32.4533 65.76 30.96 66.64C29.4667 67.5467 28.3333 68.7333 27.56 70.2C26.7867 71.6667 26.4 73.24 26.4 74.92H29.32C29.32 73.5867 29.6 72.4 30.16 71.36C30.7467 70.32 31.5733 69.4933 32.64 68.88C33.7067 68.2667 35 67.96 36.52 67.96C38.04 67.96 39.3333 68.2533 40.4 68.84C41.4667 69.4533 42.28 70.28 42.84 71.32C43.4267 72.3867 43.72 73.5867 43.72 74.92C43.72 76.2267 43.44 77.4133 42.88 78.48C42.32 79.5467 41.4933 80.3867 40.4 81C39.3333 81.64 38.04 81.96 36.52 81.96C35.4533 81.96 34.4 81.7733 33.36 81.4C32.32 81.0533 31.4533 80.5333 30.76 79.84H28L29.52 95.2H44.04V92.6H31.16L32 93.64L30.8 81.64L29.88 81.84C30.7067 82.6667 31.68 83.32 32.8 83.8C33.92 84.28 35.2 84.52 36.64 84.52C38.8267 84.52 40.6667 84.0667 42.16 83.16C43.6533 82.2533 44.7733 81.08 45.52 79.64C46.2933 78.2267 46.68 76.7333 46.68 75.16V74.64C46.68 73.0667 46.2933 71.56 45.52 70.12C44.7467 68.7067 43.6 67.5467 42.08 66.64C40.5867 65.76 38.7333 65.32 36.52 65.32ZM51.9275 66V70.44C51.9275 71.5867 52.0875 72.56 52.4075 73.36C52.7275 74.16 53.2875 74.8933 54.0875 75.56C54.8875 76.2267 55.9808 76.8667 57.3675 77.48L63.0875 80.16C64.4742 80.8 65.5808 81.64 66.4075 82.68C67.2342 83.72 67.6475 85.08 67.6475 86.76C67.6475 88.8133 67.0608 90.4133 65.8875 91.56C64.7408 92.7333 63.1542 93.32 61.1275 93.32C59.1275 93.32 57.5275 92.7333 56.3275 91.56C55.1542 90.4133 54.5675 88.8133 54.5675 86.76H51.6475C51.6475 88.4933 52.0075 90.0533 52.7275 91.44C53.4475 92.8267 54.5142 93.92 55.9275 94.72C57.3408 95.5467 59.0742 95.96 61.1275 95.96C63.2075 95.96 64.9408 95.5467 66.3275 94.72C67.7142 93.92 68.7675 92.84 69.4875 91.48C70.2075 90.1467 70.5675 88.6667 70.5675 87.04V86.48C70.5675 84.4 69.9675 82.6533 68.7675 81.24C67.5942 79.8533 66.0475 78.7067 64.1275 77.8L58.3675 75.12C57.0075 74.5067 56.0875 73.8667 55.6075 73.2C55.1542 72.56 54.9275 71.7333 54.9275 70.72V67.16L54.0475 68.6H71.0475V66H51.9275ZM85.1378 65.32C83.0045 65.32 81.1911 65.7333 79.6978 66.56C78.2311 67.3867 77.1111 68.5067 76.3378 69.92C75.5645 71.3333 75.1778 72.88 75.1778 74.56H78.0978C78.0978 72.5333 78.7245 70.92 79.9778 69.72C81.2311 68.5467 82.9511 67.96 85.1378 67.96C86.5511 67.96 87.7778 68.2267 88.8178 68.76C89.8845 69.2933 90.6978 70.0533 91.2578 71.04C91.8445 72.0267 92.1378 73.1733 92.1378 74.48C92.1378 76.48 91.5111 78.0933 90.2578 79.32C89.0045 80.5467 87.3111 81.16 85.1778 81.16C84.3245 81.16 83.5911 81.0533 82.9778 80.84C82.3645 80.6533 81.8178 80.4133 81.3378 80.12L79.6978 82.92L91.3378 91.96L91.0178 92.6H76.3378V95.2H93.8178V90.88L83.4978 82.84L81.5378 82.8C82.0178 83.0133 82.5645 83.1867 83.1778 83.32C83.7911 83.48 84.4978 83.56 85.2978 83.56C87.3511 83.56 89.0978 83.16 90.5378 82.36C92.0045 81.56 93.1245 80.4933 93.8978 79.16C94.6711 77.8267 95.0578 76.36 95.0578 74.76V74.2C95.0578 72.6533 94.6711 71.2 93.8978 69.84C93.1245 68.48 92.0045 67.3867 90.5378 66.56C89.0711 65.7333 87.2711 65.32 85.1378 65.32ZM100.873 66V70.44C100.873 71.5867 101.033 72.56 101.353 73.36C101.673 74.16 102.233 74.8933 103.033 75.56C103.833 76.2267 104.926 76.8667 106.313 77.48L112.033 80.16C113.419 80.8 114.526 81.64 115.353 82.68C116.179 83.72 116.593 85.08 116.593 86.76C116.593 88.8133 116.006 90.4133 114.833 91.56C113.686 92.7333 112.099 93.32 110.073 93.32C108.073 93.32 106.473 92.7333 105.273 91.56C104.099 90.4133 103.513 88.8133 103.513 86.76H100.593C100.593 88.4933 100.953 90.0533 101.673 91.44C102.393 92.8267 103.459 93.92 104.873 94.72C106.286 95.5467 108.019 95.96 110.073 95.96C112.153 95.96 113.886 95.5467 115.273 94.72C116.659 93.92 117.713 92.84 118.433 91.48C119.153 90.1467 119.513 88.6667 119.513 87.04V86.48C119.513 84.4 118.913 82.6533 117.713 81.24C116.539 79.8533 114.993 78.7067 113.073 77.8L107.313 75.12C105.953 74.5067 105.033 73.8667 104.553 73.2C104.099 72.56 103.873 71.7333 103.873 70.72V67.16L102.993 68.6H119.993V66H100.873ZM145.339 65.24C143.392 65.24 141.739 65.5733 140.379 66.24C139.019 66.9333 137.912 67.8933 137.059 69.12C136.232 70.3467 135.619 71.8 135.219 73.48C134.819 75.1867 134.619 77.04 134.619 79.04V80.72C134.619 85.4667 135.726 89.0933 137.939 91.6C140.152 94.1333 143.459 95.4 147.859 95.4C148.766 95.4 149.579 95.3733 150.299 95.32C151.019 95.2667 151.792 95.1867 152.619 95.08V92.48C151.792 92.6133 150.992 92.7067 150.219 92.76C149.446 92.8133 148.606 92.84 147.699 92.84C145.192 92.84 143.179 92.3467 141.659 91.36C140.139 90.4 139.032 89 138.339 87.16C137.672 85.32 137.339 83.0933 137.339 80.48V77.64L136.539 75.28C136.566 77.3067 136.952 79.0267 137.699 80.44C138.472 81.8533 139.552 82.9333 140.939 83.68C142.326 84.4267 143.952 84.8 145.819 84.8C147.899 84.8 149.659 84.3733 151.099 83.52C152.539 82.6667 153.619 81.5067 154.339 80.04C155.086 78.5733 155.459 76.9333 155.459 75.12C155.459 73.28 155.072 71.6133 154.299 70.12C153.552 68.6267 152.432 67.44 150.939 66.56C149.446 65.68 147.579 65.24 145.339 65.24ZM145.339 67.88C146.939 67.88 148.272 68.2 149.339 68.84C150.432 69.48 151.246 70.3467 151.779 71.44C152.312 72.5333 152.579 73.76 152.579 75.12C152.579 76.48 152.312 77.6933 151.779 78.76C151.272 79.8533 150.486 80.7067 149.419 81.32C148.379 81.96 147.086 82.28 145.539 82.28C144.019 82.28 142.686 81.9867 141.539 81.4C140.419 80.8133 139.539 79.9733 138.899 78.88C138.286 77.8133 137.979 76.5467 137.979 75.08C137.979 73.8267 138.246 72.6533 138.779 71.56C139.312 70.4667 140.126 69.5733 141.219 68.88C142.312 68.2133 143.686 67.88 145.339 67.88ZM163.751 66L176.071 92.2L175.831 92.6H159.831V95.2H178.751V91.48L166.871 66H163.751ZM159.831 87.72V95.2H162.391V87.72H159.831ZM186.368 66L198.688 92.2L198.448 92.6H182.448V95.2H201.368V91.48L189.488 66H186.368ZM182.448 87.72V95.2H185.008V87.72H182.448ZM215.305 95.96C217.252 95.96 218.905 95.6133 220.265 94.92C221.625 94.2533 222.719 93.3067 223.545 92.08C224.399 90.8533 225.025 89.3867 225.425 87.68C225.825 86 226.025 84.16 226.025 82.16V80.48C226.025 75.7333 224.919 72.0933 222.705 69.56C220.492 67.0533 217.185 65.8 212.785 65.8C211.879 65.8 211.065 65.8267 210.345 65.88C209.625 65.9333 208.852 66.0133 208.025 66.12V68.72C208.852 68.5867 209.652 68.4933 210.425 68.44C211.199 68.3867 212.039 68.36 212.945 68.36C215.452 68.36 217.465 68.84 218.985 69.8C220.505 70.7867 221.599 72.2 222.265 74.04C222.959 75.88 223.305 78.1067 223.305 80.72V83.56L224.105 85.92C224.079 83.8933 223.679 82.1733 222.905 80.76C222.159 79.3467 221.092 78.2667 219.705 77.52C218.319 76.7733 216.692 76.4 214.825 76.4C212.745 76.4 210.985 76.8267 209.545 77.68C208.105 78.5333 207.012 79.6933 206.265 81.16C205.545 82.6267 205.185 84.2667 205.185 86.08C205.185 87.92 205.559 89.5867 206.305 91.08C207.079 92.5733 208.212 93.76 209.705 94.64C211.199 95.52 213.065 95.96 215.305 95.96ZM215.305 93.32C213.705 93.32 212.359 93 211.265 92.36C210.199 91.72 209.399 90.8533 208.865 89.76C208.332 88.6667 208.065 87.44 208.065 86.08C208.065 84.72 208.319 83.4933 208.825 82.4C209.359 81.3333 210.145 80.48 211.185 79.84C212.252 79.2267 213.559 78.92 215.105 78.92C216.625 78.92 217.945 79.2133 219.065 79.8C220.212 80.3867 221.092 81.2133 221.705 82.28C222.345 83.3733 222.665 84.6533 222.665 86.12C222.665 87.3733 222.399 88.5467 221.865 89.64C221.332 90.7333 220.519 91.6133 219.425 92.28C218.332 92.9733 216.959 93.32 215.305 93.32ZM250.333 65.32C248.2 65.32 246.386 65.7333 244.893 66.56C243.426 67.3867 242.306 68.5067 241.533 69.92C240.76 71.3333 240.373 72.88 240.373 74.56H243.293C243.293 72.5333 243.92 70.92 245.173 69.72C246.426 68.5467 248.146 67.96 250.333 67.96C251.746 67.96 252.973 68.2267 254.013 68.76C255.08 69.2933 255.893 70.0533 256.453 71.04C257.04 72.0267 257.333 73.1733 257.333 74.48C257.333 76.48 256.706 78.0933 255.453 79.32C254.2 80.5467 252.506 81.16 250.373 81.16C249.52 81.16 248.786 81.0533 248.173 80.84C247.56 80.6533 247.013 80.4133 246.533 80.12L244.893 82.92L256.533 91.96L256.213 92.6H241.533V95.2H259.013V90.88L248.693 82.84L246.733 82.8C247.213 83.0133 247.76 83.1867 248.373 83.32C248.986 83.48 249.693 83.56 250.493 83.56C252.546 83.56 254.293 83.16 255.733 82.36C257.2 81.56 258.32 80.4933 259.093 79.16C259.866 77.8267 260.253 76.36 260.253 74.76V74.2C260.253 72.6533 259.866 71.2 259.093 69.84C258.32 68.48 257.2 67.3867 255.733 66.56C254.266 65.7333 252.466 65.32 250.333 65.32ZM271.308 66V93.64L272.628 92.6H264.668V95.2H274.308V66H271.308ZM291.349 65.32C289.215 65.32 287.402 65.7333 285.909 66.56C284.442 67.3867 283.322 68.5067 282.549 69.92C281.775 71.3333 281.389 72.88 281.389 74.56H284.309C284.309 72.5333 284.935 70.92 286.189 69.72C287.442 68.5467 289.162 67.96 291.349 67.96C292.762 67.96 293.989 68.2267 295.029 68.76C296.095 69.2933 296.909 70.0533 297.469 71.04C298.055 72.0267 298.349 73.1733 298.349 74.48C298.349 76.48 297.722 78.0933 296.469 79.32C295.215 80.5467 293.522 81.16 291.389 81.16C290.535 81.16 289.802 81.0533 289.189 80.84C288.575 80.6533 288.029 80.4133 287.549 80.12L285.909 82.92L297.549 91.96L297.229 92.6H282.549V95.2H300.029V90.88L289.709 82.84L287.749 82.8C288.229 83.0133 288.775 83.1867 289.389 83.32C290.002 83.48 290.709 83.56 291.509 83.56C293.562 83.56 295.309 83.16 296.749 82.36C298.215 81.56 299.335 80.4933 300.109 79.16C300.882 77.8267 301.269 76.36 301.269 74.76V74.2C301.269 72.6533 300.882 71.2 300.109 69.84C299.335 68.48 298.215 67.3867 296.749 66.56C295.282 65.7333 293.482 65.32 291.349 65.32ZM316.364 65.32C314.15 65.32 312.297 65.76 310.804 66.64C309.31 67.5467 308.177 68.7333 307.404 70.2C306.63 71.6667 306.244 73.24 306.244 74.92H309.164C309.164 73.5867 309.444 72.4 310.004 71.36C310.59 70.32 311.417 69.4933 312.484 68.88C313.55 68.2667 314.844 67.96 316.364 67.96C317.884 67.96 319.177 68.2533 320.244 68.84C321.31 69.4533 322.124 70.28 322.684 71.32C323.27 72.3867 323.564 73.5867 323.564 74.92C323.564 76.2267 323.284 77.4133 322.724 78.48C322.164 79.5467 321.337 80.3867 320.244 81C319.177 81.64 317.884 81.96 316.364 81.96C315.297 81.96 314.244 81.7733 313.204 81.4C312.164 81.0533 311.297 80.5333 310.604 79.84H307.844L309.364 95.2H323.884V92.6H311.004L311.844 93.64L310.644 81.64L309.724 81.84C310.55 82.6667 311.524 83.32 312.644 83.8C313.764 84.28 315.044 84.52 316.484 84.52C318.67 84.52 320.51 84.0667 322.004 83.16C323.497 82.2533 324.617 81.08 325.364 79.64C326.137 78.2267 326.524 76.7333 326.524 75.16V74.64C326.524 73.0667 326.137 71.56 325.364 70.12C324.59 68.7067 323.444 67.5467 321.924 66.64C320.43 65.76 318.577 65.32 316.364 65.32ZM350.427 65.32C348.347 65.32 346.521 65.6933 344.947 66.44C343.374 67.2133 342.147 68.2533 341.267 69.56C340.414 70.8667 339.987 72.36 339.987 74.04C339.987 75.2933 340.241 76.4133 340.747 77.4C341.281 78.4133 341.974 79.2533 342.827 79.92C343.681 80.6133 344.614 81.12 345.627 81.44V81.84C344.801 82.16 344.041 82.6 343.347 83.16C342.654 83.7467 342.081 84.4533 341.627 85.28C341.201 86.1067 340.987 87.08 340.987 88.2C340.987 89.8 341.401 91.1733 342.227 92.32C343.081 93.4667 344.214 94.3467 345.627 94.96C347.067 95.6 348.667 95.92 350.427 95.92C352.241 95.92 353.854 95.6 355.267 94.96C356.681 94.3467 357.801 93.4667 358.627 92.32C359.454 91.1733 359.867 89.8 359.867 88.2C359.867 87.08 359.654 86.1067 359.227 85.28C358.827 84.4533 358.267 83.7467 357.547 83.16C356.854 82.6 356.094 82.16 355.267 81.84V81.44C356.307 81.12 357.254 80.6133 358.107 79.92C358.961 79.2267 359.641 78.3867 360.147 77.4C360.654 76.4133 360.907 75.2933 360.907 74.04C360.907 72.36 360.467 70.8667 359.587 69.56C358.734 68.2533 357.521 67.2133 355.947 66.44C354.401 65.6933 352.561 65.32 350.427 65.32ZM350.427 67.88C352.027 67.88 353.387 68.1467 354.507 68.68C355.627 69.2133 356.481 69.9467 357.067 70.88C357.681 71.84 357.987 72.9333 357.987 74.16C357.987 75.3867 357.694 76.4667 357.107 77.4C356.521 78.3333 355.667 79.0667 354.547 79.6C353.427 80.1333 352.054 80.4 350.427 80.4C348.854 80.4 347.507 80.1333 346.387 79.6C345.267 79.0667 344.414 78.3333 343.827 77.4C343.241 76.4667 342.947 75.3867 342.947 74.16C342.947 72.9333 343.241 71.84 343.827 70.88C344.414 69.9467 345.267 69.2133 346.387 68.68C347.507 68.1467 348.854 67.88 350.427 67.88ZM350.427 82.8C352.401 82.8 353.974 83.24 355.147 84.12C356.347 85.0267 356.947 86.3467 356.947 88.08C356.947 89.8133 356.347 91.12 355.147 92C353.974 92.88 352.401 93.32 350.427 93.32C348.481 93.32 346.907 92.88 345.707 92C344.534 91.12 343.947 89.8133 343.947 88.08C343.947 86.3467 344.547 85.0267 345.747 84.12C346.947 83.24 348.507 82.8 350.427 82.8ZM375.583 65.32C373.503 65.32 371.677 65.6933 370.103 66.44C368.53 67.2133 367.303 68.2533 366.423 69.56C365.57 70.8667 365.143 72.36 365.143 74.04C365.143 75.2933 365.397 76.4133 365.903 77.4C366.437 78.4133 367.13 79.2533 367.983 79.92C368.837 80.6133 369.77 81.12 370.783 81.44V81.84C369.957 82.16 369.197 82.6 368.503 83.16C367.81 83.7467 367.237 84.4533 366.783 85.28C366.357 86.1067 366.143 87.08 366.143 88.2C366.143 89.8 366.557 91.1733 367.383 92.32C368.237 93.4667 369.37 94.3467 370.783 94.96C372.223 95.6 373.823 95.92 375.583 95.92C377.397 95.92 379.01 95.6 380.423 94.96C381.837 94.3467 382.957 93.4667 383.783 92.32C384.61 91.1733 385.023 89.8 385.023 88.2C385.023 87.08 384.81 86.1067 384.383 85.28C383.983 84.4533 383.423 83.7467 382.703 83.16C382.01 82.6 381.25 82.16 380.423 81.84V81.44C381.463 81.12 382.41 80.6133 383.263 79.92C384.117 79.2267 384.797 78.3867 385.303 77.4C385.81 76.4133 386.063 75.2933 386.063 74.04C386.063 72.36 385.623 70.8667 384.743 69.56C383.89 68.2533 382.677 67.2133 381.103 66.44C379.557 65.6933 377.717 65.32 375.583 65.32ZM375.583 67.88C377.183 67.88 378.543 68.1467 379.663 68.68C380.783 69.2133 381.637 69.9467 382.223 70.88C382.837 71.84 383.143 72.9333 383.143 74.16C383.143 75.3867 382.85 76.4667 382.263 77.4C381.677 78.3333 380.823 79.0667 379.703 79.6C378.583 80.1333 377.21 80.4 375.583 80.4C374.01 80.4 372.663 80.1333 371.543 79.6C370.423 79.0667 369.57 78.3333 368.983 77.4C368.397 76.4667 368.103 75.3867 368.103 74.16C368.103 72.9333 368.397 71.84 368.983 70.88C369.57 69.9467 370.423 69.2133 371.543 68.68C372.663 68.1467 374.01 67.88 375.583 67.88ZM375.583 82.8C377.557 82.8 379.13 83.24 380.303 84.12C381.503 85.0267 382.103 86.3467 382.103 88.08C382.103 89.8133 381.503 91.12 380.303 92C379.13 92.88 377.557 93.32 375.583 93.32C373.637 93.32 372.063 92.88 370.863 92C369.69 91.12 369.103 89.8133 369.103 88.08C369.103 86.3467 369.703 85.0267 370.903 84.12C372.103 83.24 373.663 82.8 375.583 82.8ZM400.54 95.96C402.486 95.96 404.14 95.6133 405.5 94.92C406.86 94.2533 407.953 93.3067 408.78 92.08C409.633 90.8533 410.26 89.3867 410.66 87.68C411.06 86 411.26 84.16 411.26 82.16V80.48C411.26 75.7333 410.153 72.0933 407.94 69.56C405.726 67.0533 402.42 65.8 398.02 65.8C397.113 65.8 396.3 65.8267 395.58 65.88C394.86 65.9333 394.086 66.0133 393.26 66.12V68.72C394.086 68.5867 394.886 68.4933 395.66 68.44C396.433 68.3867 397.273 68.36 398.18 68.36C400.686 68.36 402.7 68.84 404.22 69.8C405.74 70.7867 406.833 72.2 407.5 74.04C408.193 75.88 408.54 78.1067 408.54 80.72V83.56L409.34 85.92C409.313 83.8933 408.913 82.1733 408.14 80.76C407.393 79.3467 406.326 78.2667 404.94 77.52C403.553 76.7733 401.926 76.4 400.06 76.4C397.98 76.4 396.22 76.8267 394.78 77.68C393.34 78.5333 392.246 79.6933 391.5 81.16C390.78 82.6267 390.42 84.2667 390.42 86.08C390.42 87.92 390.793 89.5867 391.54 91.08C392.313 92.5733 393.446 93.76 394.94 94.64C396.433 95.52 398.3 95.96 400.54 95.96ZM400.54 93.32C398.94 93.32 397.593 93 396.5 92.36C395.433 91.72 394.633 90.8533 394.1 89.76C393.566 88.6667 393.3 87.44 393.3 86.08C393.3 84.72 393.553 83.4933 394.06 82.4C394.593 81.3333 395.38 80.48 396.42 79.84C397.486 79.2267 398.793 78.92 400.34 78.92C401.86 78.92 403.18 79.2133 404.3 79.8C405.446 80.3867 406.326 81.2133 406.94 82.28C407.58 83.3733 407.9 84.6533 407.9 86.12C407.9 87.3733 407.633 88.5467 407.1 89.64C406.566 90.7333 405.753 91.6133 404.66 92.28C403.566 92.9733 402.193 93.32 400.54 93.32ZM426.232 65.32C424.098 65.32 422.285 65.7333 420.792 66.56C419.325 67.3867 418.205 68.5067 417.432 69.92C416.658 71.3333 416.272 72.88 416.272 74.56H419.192C419.192 72.5333 419.818 70.92 421.072 69.72C422.325 68.5467 424.045 67.96 426.232 67.96C427.645 67.96 428.872 68.2267 429.912 68.76C430.978 69.2933 431.792 70.0533 432.352 71.04C432.938 72.0267 433.232 73.1733 433.232 74.48C433.232 76.48 432.605 78.0933 431.352 79.32C430.098 80.5467 428.405 81.16 426.272 81.16C425.418 81.16 424.685 81.0533 424.072 80.84C423.458 80.6533 422.912 80.4133 422.432 80.12L420.792 82.92L432.432 91.96L432.112 92.6H417.432V95.2H434.912V90.88L424.592 82.84L422.632 82.8C423.112 83.0133 423.658 83.1867 424.272 83.32C424.885 83.48 425.592 83.56 426.392 83.56C428.445 83.56 430.192 83.16 431.632 82.36C433.098 81.56 434.218 80.4933 434.992 79.16C435.765 77.8267 436.152 76.36 436.152 74.76V74.2C436.152 72.6533 435.765 71.2 434.992 69.84C434.218 68.48 433.098 67.3867 431.632 66.56C430.165 65.7333 428.365 65.32 426.232 65.32Z" fill="#F1F7FF"/>
<path d="M284.864 29.114V31.238L290.318 39.464L291.524 38.51L286.43 30.806L286.592 30.482H295.088V29.114H284.864ZM291.722 26V35.306H293.342V26H291.722ZM301.273 25.676C300.337 25.676 299.503 25.844 298.771 26.18C298.051 26.516 297.481 26.984 297.061 27.584C296.653 28.184 296.449 28.88 296.449 29.672C296.449 30.2 296.551 30.674 296.755 31.094C296.959 31.526 297.241 31.898 297.601 32.21C297.961 32.522 298.369 32.762 298.825 32.93V33.11C298.465 33.266 298.135 33.476 297.835 33.74C297.547 34.004 297.313 34.316 297.133 34.676C296.965 35.036 296.881 35.444 296.881 35.9C296.881 36.656 297.079 37.298 297.475 37.826C297.883 38.354 298.417 38.756 299.077 39.032C299.749 39.32 300.481 39.464 301.273 39.464C302.077 39.464 302.809 39.32 303.469 39.032C304.141 38.756 304.675 38.354 305.071 37.826C305.467 37.298 305.665 36.656 305.665 35.9C305.665 35.444 305.581 35.036 305.413 34.676C305.245 34.316 305.011 34.004 304.711 33.74C304.423 33.476 304.093 33.266 303.721 33.11V32.93C304.189 32.762 304.603 32.516 304.963 32.192C305.323 31.88 305.605 31.508 305.809 31.076C306.013 30.656 306.115 30.188 306.115 29.672C306.115 28.88 305.905 28.184 305.485 27.584C305.077 26.984 304.507 26.516 303.775 26.18C303.055 25.844 302.221 25.676 301.273 25.676ZM301.273 27.152C301.933 27.152 302.497 27.254 302.965 27.458C303.433 27.674 303.793 27.974 304.045 28.358C304.297 28.754 304.423 29.216 304.423 29.744C304.423 30.272 304.297 30.728 304.045 31.112C303.805 31.496 303.451 31.79 302.983 31.994C302.515 32.21 301.945 32.318 301.273 32.318C300.613 32.318 300.049 32.21 299.581 31.994C299.113 31.79 298.753 31.496 298.501 31.112C298.261 30.728 298.141 30.272 298.141 29.744C298.141 29.216 298.261 28.754 298.501 28.358C298.753 27.974 299.113 27.674 299.581 27.458C300.049 27.254 300.613 27.152 301.273 27.152ZM301.273 33.686C302.089 33.686 302.743 33.86 303.235 34.208C303.727 34.568 303.973 35.114 303.973 35.846C303.973 36.59 303.721 37.13 303.217 37.466C302.725 37.814 302.077 37.988 301.273 37.988C300.469 37.988 299.815 37.814 299.311 37.466C298.819 37.118 298.573 36.578 298.573 35.846C298.573 35.114 298.819 34.568 299.311 34.208C299.815 33.86 300.469 33.686 301.273 33.686ZM312.734 25.676C311.798 25.676 310.964 25.844 310.232 26.18C309.512 26.516 308.942 26.984 308.522 27.584C308.114 28.184 307.91 28.88 307.91 29.672C307.91 30.2 308.012 30.674 308.216 31.094C308.42 31.526 308.702 31.898 309.062 32.21C309.422 32.522 309.83 32.762 310.286 32.93V33.11C309.926 33.266 309.596 33.476 309.296 33.74C309.008 34.004 308.774 34.316 308.594 34.676C308.426 35.036 308.342 35.444 308.342 35.9C308.342 36.656 308.54 37.298 308.936 37.826C309.344 38.354 309.878 38.756 310.538 39.032C311.21 39.32 311.942 39.464 312.734 39.464C313.538 39.464 314.27 39.32 314.93 39.032C315.602 38.756 316.136 38.354 316.532 37.826C316.928 37.298 317.126 36.656 317.126 35.9C317.126 35.444 317.042 35.036 316.874 34.676C316.706 34.316 316.472 34.004 316.172 33.74C315.884 33.476 315.554 33.266 315.182 33.11V32.93C315.65 32.762 316.064 32.516 316.424 32.192C316.784 31.88 317.066 31.508 317.27 31.076C317.474 30.656 317.576 30.188 317.576 29.672C317.576 28.88 317.366 28.184 316.946 27.584C316.538 26.984 315.968 26.516 315.236 26.18C314.516 25.844 313.682 25.676 312.734 25.676ZM312.734 27.152C313.394 27.152 313.958 27.254 314.426 27.458C314.894 27.674 315.254 27.974 315.506 28.358C315.758 28.754 315.884 29.216 315.884 29.744C315.884 30.272 315.758 30.728 315.506 31.112C315.266 31.496 314.912 31.79 314.444 31.994C313.976 32.21 313.406 32.318 312.734 32.318C312.074 32.318 311.51 32.21 311.042 31.994C310.574 31.79 310.214 31.496 309.962 31.112C309.722 30.728 309.602 30.272 309.602 29.744C309.602 29.216 309.722 28.754 309.962 28.358C310.214 27.974 310.574 27.674 311.042 27.458C311.51 27.254 312.074 27.152 312.734 27.152ZM312.734 33.686C313.55 33.686 314.204 33.86 314.696 34.208C315.188 34.568 315.434 35.114 315.434 35.846C315.434 36.59 315.182 37.13 314.678 37.466C314.186 37.814 313.538 37.988 312.734 37.988C311.93 37.988 311.276 37.814 310.772 37.466C310.28 37.118 310.034 36.578 310.034 35.846C310.034 35.114 310.28 34.568 310.772 34.208C311.276 33.86 311.93 33.686 312.734 33.686Z" fill="#F1F7FF"/>
<path d="M176.696 25.676C175.712 25.676 174.872 25.844 174.176 26.18C173.492 26.528 172.934 26.996 172.502 27.584C172.082 28.172 171.776 28.85 171.584 29.618C171.392 30.398 171.296 31.22 171.296 32.084V33.056C171.296 34.268 171.482 35.36 171.854 36.332C172.238 37.304 172.826 38.072 173.618 38.636C174.422 39.212 175.448 39.5 176.696 39.5C177.944 39.5 178.964 39.212 179.756 38.636C180.548 38.072 181.13 37.304 181.502 36.332C181.886 35.36 182.078 34.268 182.078 33.056V32.084C182.078 31.22 181.982 30.398 181.79 29.618C181.598 28.85 181.286 28.172 180.854 27.584C180.434 26.996 179.882 26.528 179.198 26.18C178.514 25.844 177.68 25.676 176.696 25.676ZM176.696 27.26C177.944 27.26 178.856 27.68 179.432 28.52C180.02 29.372 180.314 30.716 180.314 32.552C180.314 34.472 180.014 35.846 179.414 36.674C178.826 37.502 177.92 37.916 176.696 37.916C175.46 37.916 174.542 37.502 173.942 36.674C173.354 35.846 173.06 34.484 173.06 32.588C173.06 30.74 173.354 29.39 173.942 28.538C174.53 27.686 175.448 27.26 176.696 27.26ZM187.049 26V38.276L187.841 37.664H184.133V39.14H188.777V26H187.049ZM191.386 24.92L195.058 40.04H196.678L193.006 24.92H191.386ZM202.505 25.676C201.521 25.676 200.687 25.868 200.003 26.252C199.319 26.636 198.797 27.146 198.437 27.782C198.089 28.418 197.915 29.108 197.915 29.852H199.607C199.607 29.036 199.865 28.388 200.381 27.908C200.909 27.428 201.617 27.188 202.505 27.188C203.093 27.188 203.603 27.296 204.035 27.512C204.467 27.728 204.803 28.034 205.043 28.43C205.283 28.838 205.403 29.312 205.403 29.852C205.403 30.668 205.139 31.328 204.611 31.832C204.095 32.336 203.399 32.588 202.523 32.588C202.151 32.588 201.827 32.54 201.551 32.444C201.287 32.36 201.053 32.252 200.849 32.12L199.985 33.668L205.007 37.34L204.827 37.664H198.437V39.14H206.447V36.746L202.289 33.722L201.029 33.668C201.233 33.74 201.455 33.8 201.695 33.848C201.947 33.896 202.241 33.92 202.577 33.92C203.537 33.92 204.353 33.74 205.025 33.38C205.697 33.02 206.207 32.54 206.555 31.94C206.915 31.34 207.095 30.686 207.095 29.978V29.726C207.095 29.03 206.915 28.37 206.555 27.746C206.207 27.134 205.691 26.636 205.007 26.252C204.335 25.868 203.501 25.676 202.505 25.676ZM214.876 25.676C213.892 25.676 213.052 25.844 212.356 26.18C211.672 26.528 211.114 26.996 210.682 27.584C210.262 28.172 209.956 28.85 209.764 29.618C209.572 30.398 209.476 31.22 209.476 32.084V33.056C209.476 34.268 209.662 35.36 210.034 36.332C210.418 37.304 211.006 38.072 211.798 38.636C212.602 39.212 213.628 39.5 214.876 39.5C216.124 39.5 217.144 39.212 217.936 38.636C218.728 38.072 219.31 37.304 219.682 36.332C220.066 35.36 220.258 34.268 220.258 33.056V32.084C220.258 31.22 220.162 30.398 219.97 29.618C219.778 28.85 219.466 28.172 219.034 27.584C218.614 26.996 218.062 26.528 217.378 26.18C216.694 25.844 215.86 25.676 214.876 25.676ZM214.876 27.26C216.124 27.26 217.036 27.68 217.612 28.52C218.2 29.372 218.494 30.716 218.494 32.552C218.494 34.472 218.194 35.846 217.594 36.674C217.006 37.502 216.1 37.916 214.876 37.916C213.64 37.916 212.722 37.502 212.122 36.674C211.534 35.846 211.24 34.484 211.24 32.588C211.24 30.74 211.534 29.39 212.122 28.538C212.71 27.686 213.628 27.26 214.876 27.26Z" fill="#F1F7FF"/>
<path d="M73.696 25.676C72.712 25.676 71.872 25.844 71.176 26.18C70.492 26.528 69.934 26.996 69.502 27.584C69.082 28.172 68.776 28.85 68.584 29.618C68.392 30.398 68.296 31.22 68.296 32.084V33.056C68.296 34.268 68.482 35.36 68.854 36.332C69.238 37.304 69.826 38.072 70.618 38.636C71.422 39.212 72.448 39.5 73.696 39.5C74.944 39.5 75.964 39.212 76.756 38.636C77.548 38.072 78.13 37.304 78.502 36.332C78.886 35.36 79.078 34.268 79.078 33.056V32.084C79.078 31.22 78.982 30.398 78.79 29.618C78.598 28.85 78.286 28.172 77.854 27.584C77.434 26.996 76.882 26.528 76.198 26.18C75.514 25.844 74.68 25.676 73.696 25.676ZM73.696 27.26C74.944 27.26 75.856 27.68 76.432 28.52C77.02 29.372 77.314 30.716 77.314 32.552C77.314 34.472 77.014 35.846 76.414 36.674C75.826 37.502 74.92 37.916 73.696 37.916C72.46 37.916 71.542 37.502 70.942 36.674C70.354 35.846 70.06 34.484 70.06 32.588C70.06 30.74 70.354 29.39 70.942 28.538C71.53 27.686 72.448 27.26 73.696 27.26ZM81.241 29.114V31.238L86.695 39.464L87.901 38.51L82.807 30.806L82.969 30.482H91.465V29.114H81.241ZM88.099 26V35.306H89.719V26H88.099ZM92.3758 24.92L96.0478 40.04H97.6678L93.9958 24.92H92.3758ZM99.4813 26V28.16C99.4813 28.688 99.5533 29.138 99.6973 29.51C99.8533 29.882 100.117 30.218 100.489 30.518C100.861 30.83 101.365 31.13 102.001 31.418L104.467 32.552C105.067 32.828 105.541 33.182 105.889 33.614C106.237 34.058 106.411 34.628 106.411 35.324C106.411 36.164 106.177 36.818 105.709 37.286C105.241 37.754 104.581 37.988 103.729 37.988C102.889 37.988 102.229 37.754 101.749 37.286C101.269 36.818 101.029 36.164 101.029 35.324H99.3373C99.3373 36.08 99.4933 36.776 99.8053 37.412C100.129 38.048 100.615 38.552 101.263 38.924C101.911 39.308 102.733 39.5 103.729 39.5C104.725 39.5 105.541 39.308 106.177 38.924C106.825 38.552 107.305 38.06 107.617 37.448C107.941 36.836 108.103 36.17 108.103 35.45V35.198C108.103 34.25 107.827 33.452 107.275 32.804C106.735 32.156 106.003 31.622 105.079 31.202L102.613 30.068C102.061 29.816 101.689 29.564 101.497 29.312C101.305 29.06 101.209 28.724 101.209 28.304V26.648L100.741 27.476H108.265V26H99.4813ZM110.608 26V28.16C110.608 28.688 110.68 29.138 110.824 29.51C110.98 29.882 111.244 30.218 111.616 30.518C111.988 30.83 112.492 31.13 113.128 31.418L115.594 32.552C116.194 32.828 116.668 33.182 117.016 33.614C117.364 34.058 117.538 34.628 117.538 35.324C117.538 36.164 117.304 36.818 116.836 37.286C116.368 37.754 115.708 37.988 114.856 37.988C114.016 37.988 113.356 37.754 112.876 37.286C112.396 36.818 112.156 36.164 112.156 35.324H110.464C110.464 36.08 110.62 36.776 110.932 37.412C111.256 38.048 111.742 38.552 112.39 38.924C113.038 39.308 113.86 39.5 114.856 39.5C115.852 39.5 116.668 39.308 117.304 38.924C117.952 38.552 118.432 38.06 118.744 37.448C119.068 36.836 119.23 36.17 119.23 35.45V35.198C119.23 34.25 118.954 33.452 118.402 32.804C117.862 32.156 117.13 31.622 116.206 31.202L113.74 30.068C113.188 29.816 112.816 29.564 112.624 29.312C112.432 29.06 112.336 28.724 112.336 28.304V26.648L111.868 27.476H119.392V26H110.608Z" fill="#F1F7FF"/>
<path d="M336.9 277V283.56H337.73V280.81H340.78V283.56H341.62V277H340.78V280.09H337.73V277H336.9ZM344.463 276.88C344.057 276.88 343.717 277 343.443 277.24C343.177 277.487 343.043 277.827 343.043 278.26C343.043 278.793 343.28 279.2 343.753 279.48C344.233 279.767 344.99 279.967 346.023 280.08C346.023 280.287 345.993 280.483 345.933 280.67C345.88 280.857 345.78 281.007 345.633 281.12C345.493 281.24 345.29 281.3 345.023 281.3C344.743 281.3 344.48 281.247 344.233 281.14C343.987 281.033 343.767 280.913 343.573 280.78L343.253 281.35C343.48 281.497 343.757 281.637 344.083 281.77C344.417 281.91 344.777 281.98 345.163 281.98C345.757 281.98 346.187 281.797 346.453 281.43C346.72 281.07 346.853 280.587 346.853 279.98V277H346.173L346.103 277.58H346.073C345.847 277.393 345.597 277.23 345.323 277.09C345.057 276.95 344.77 276.88 344.463 276.88ZM344.703 277.54C344.937 277.54 345.157 277.597 345.363 277.71C345.57 277.823 345.79 277.983 346.023 278.19V279.54C345.217 279.44 344.65 279.29 344.323 279.09C344.003 278.89 343.843 278.633 343.843 278.32C343.843 278.047 343.927 277.847 344.093 277.72C344.26 277.6 344.463 277.54 344.703 277.54ZM349.433 277L347.683 281.86H348.533L349.453 279.1C349.526 278.86 349.599 278.62 349.673 278.38C349.753 278.14 349.829 277.903 349.903 277.67H349.943C350.016 277.903 350.089 278.14 350.163 278.38C350.243 278.62 350.316 278.86 350.383 279.1L351.303 281.86H352.113L350.393 277H349.433ZM353.05 277V281.86H353.87V277H353.05ZM353.47 282.86C353.31 282.86 353.177 282.907 353.07 283C352.97 283.1 352.92 283.233 352.92 283.4C352.92 283.56 352.97 283.69 353.07 283.79C353.177 283.89 353.31 283.94 353.47 283.94C353.63 283.94 353.76 283.89 353.86 283.79C353.967 283.69 354.02 283.56 354.02 283.4C354.02 283.233 353.967 283.1 353.86 283C353.76 282.907 353.63 282.86 353.47 282.86ZM355.511 277V281.86H356.191L356.261 281.16H356.291C356.525 281.393 356.771 281.587 357.031 281.74C357.291 281.9 357.588 281.98 357.921 281.98C358.435 281.98 358.808 281.817 359.041 281.49C359.281 281.17 359.401 280.7 359.401 280.08V277H358.581V279.97C358.581 280.423 358.508 280.753 358.361 280.96C358.215 281.167 357.981 281.27 357.661 281.27C357.415 281.27 357.191 281.207 356.991 281.08C356.798 280.953 356.578 280.767 356.331 280.52V277H355.511ZM362.62 274.76C362.027 274.76 361.543 274.873 361.17 275.1C360.797 275.327 360.61 275.65 360.61 276.07C360.61 276.277 360.673 276.477 360.8 276.67C360.927 276.857 361.1 277.023 361.32 277.17V277.21C361.2 277.283 361.097 277.387 361.01 277.52C360.93 277.653 360.89 277.813 360.89 278C360.89 278.207 360.947 278.387 361.06 278.54C361.173 278.693 361.293 278.813 361.42 278.9V278.94C361.26 279.073 361.113 279.253 360.98 279.48C360.853 279.707 360.79 279.963 360.79 280.25C360.79 280.603 360.873 280.91 361.04 281.17C361.207 281.43 361.43 281.63 361.71 281.77C361.99 281.91 362.293 281.98 362.62 281.98C362.753 281.98 362.88 281.967 363 281.94C363.12 281.92 363.223 281.893 363.31 281.86H365V281.23H364C364.113 281.123 364.207 280.98 364.28 280.8C364.36 280.627 364.4 280.437 364.4 280.23C364.4 279.883 364.32 279.583 364.16 279.33C364 279.077 363.787 278.88 363.52 278.74C363.253 278.607 362.953 278.54 362.62 278.54C362.36 278.54 362.117 278.597 361.89 278.71C361.803 278.637 361.73 278.553 361.67 278.46C361.61 278.373 361.58 278.263 361.58 278.13C361.58 277.977 361.64 277.85 361.76 277.75C361.887 277.65 362.113 277.6 362.44 277.6H363.38C363.947 277.6 364.37 277.507 364.65 277.32C364.937 277.14 365.08 276.847 365.08 276.44C365.08 276.14 364.98 275.863 364.78 275.61C364.58 275.357 364.297 275.153 363.93 275C363.563 274.84 363.127 274.76 362.62 274.76ZM362.62 279.09C362.9 279.09 363.14 279.193 363.34 279.4C363.547 279.613 363.65 279.897 363.65 280.25C363.65 280.603 363.55 280.88 363.35 281.08C363.15 281.28 362.907 281.38 362.62 281.38C362.333 281.38 362.09 281.28 361.89 281.08C361.69 280.88 361.59 280.603 361.59 280.25C361.59 279.897 361.69 279.613 361.89 279.4C362.097 279.193 362.34 279.09 362.62 279.09ZM362.74 275.33C363.207 275.33 363.58 275.433 363.86 275.64C364.14 275.84 364.28 276.067 364.28 276.32C364.28 276.547 364.193 276.703 364.02 276.79C363.853 276.877 363.613 276.92 363.3 276.92H362.46C362.367 276.92 362.263 276.927 362.15 276.94C362.043 276.953 361.937 276.973 361.83 277C361.657 276.873 361.53 276.74 361.45 276.6C361.37 276.46 361.33 276.32 361.33 276.18C361.33 275.92 361.453 275.713 361.7 275.56C361.953 275.407 362.3 275.33 362.74 275.33ZM368.101 277V283.56H368.931V277H368.101ZM371.918 276.88C371.571 276.88 371.241 276.943 370.928 277.07C370.615 277.203 370.341 277.363 370.108 277.55L370.518 278.1C370.731 277.933 370.951 277.793 371.178 277.68C371.405 277.573 371.661 277.52 371.948 277.52C372.268 277.52 372.508 277.593 372.668 277.74C372.828 277.893 372.908 278.073 372.908 278.28C372.908 278.447 372.851 278.587 372.738 278.7C372.631 278.813 372.491 278.907 372.318 278.98C372.151 279.06 371.978 279.133 371.798 279.2C371.571 279.287 371.348 279.383 371.128 279.49C370.908 279.603 370.728 279.747 370.588 279.92C370.448 280.1 370.378 280.327 370.378 280.6C370.378 280.993 370.525 281.32 370.818 281.58C371.118 281.847 371.531 281.98 372.058 281.98C372.358 281.98 372.638 281.927 372.898 281.82C373.158 281.713 373.381 281.583 373.568 281.43L373.168 280.91C373.001 281.037 372.828 281.14 372.648 281.22C372.468 281.3 372.271 281.34 372.058 281.34C371.751 281.34 371.525 281.27 371.378 281.13C371.238 280.99 371.168 280.827 371.168 280.64C371.168 280.487 371.218 280.36 371.318 280.26C371.418 280.167 371.548 280.083 371.708 280.01C371.868 279.943 372.038 279.873 372.218 279.8C372.451 279.713 372.681 279.613 372.908 279.5C373.135 279.393 373.321 279.247 373.468 279.06C373.621 278.88 373.698 278.637 373.698 278.33C373.698 278.07 373.628 277.83 373.488 277.61C373.355 277.39 373.155 277.213 372.888 277.08C372.628 276.947 372.305 276.88 371.918 276.88ZM376.108 276.88C375.761 276.88 375.431 276.943 375.118 277.07C374.804 277.203 374.531 277.363 374.298 277.55L374.708 278.1C374.921 277.933 375.141 277.793 375.368 277.68C375.594 277.573 375.851 277.52 376.138 277.52C376.458 277.52 376.698 277.593 376.858 277.74C377.018 277.893 377.098 278.073 377.098 278.28C377.098 278.447 377.041 278.587 376.928 278.7C376.821 278.813 376.681 278.907 376.508 278.98C376.341 279.06 376.168 279.133 375.988 279.2C375.761 279.287 375.538 279.383 375.318 279.49C375.098 279.603 374.918 279.747 374.778 279.92C374.638 280.1 374.568 280.327 374.568 280.6C374.568 280.993 374.714 281.32 375.008 281.58C375.308 281.847 375.721 281.98 376.248 281.98C376.548 281.98 376.828 281.927 377.088 281.82C377.348 281.713 377.571 281.583 377.758 281.43L377.358 280.91C377.191 281.037 377.018 281.14 376.838 281.22C376.658 281.3 376.461 281.34 376.248 281.34C375.941 281.34 375.714 281.27 375.568 281.13C375.428 280.99 375.358 280.827 375.358 280.64C375.358 280.487 375.408 280.36 375.508 280.26C375.608 280.167 375.738 280.083 375.898 280.01C376.058 279.943 376.228 279.873 376.408 279.8C376.641 279.713 376.871 279.613 377.098 279.5C377.324 279.393 377.511 279.247 377.658 279.06C377.811 278.88 377.888 278.637 377.888 278.33C377.888 278.07 377.818 277.83 377.678 277.61C377.544 277.39 377.344 277.213 377.078 277.08C376.818 276.947 376.494 276.88 376.108 276.88ZM380.447 276.88C379.934 276.88 379.557 277.04 379.317 277.36C379.077 277.687 378.957 278.16 378.957 278.78V281.86H379.787V278.89C379.787 278.437 379.857 278.107 379.997 277.9C380.144 277.693 380.377 277.59 380.697 277.59C380.95 277.59 381.174 277.653 381.367 277.78C381.567 277.913 381.78 278.123 382.007 278.41V281.86H382.827V277H382.147L382.077 277.76H382.047C381.82 277.493 381.58 277.28 381.327 277.12C381.074 276.96 380.78 276.88 380.447 276.88ZM386.436 276.88C386.003 276.88 385.61 276.98 385.256 277.18C384.903 277.387 384.623 277.68 384.416 278.06C384.21 278.44 384.106 278.893 384.106 279.42C384.106 279.953 384.21 280.41 384.416 280.79C384.63 281.17 384.903 281.463 385.236 281.67C385.57 281.877 385.92 281.98 386.286 281.98C386.906 281.98 387.383 281.773 387.716 281.36C388.056 280.947 388.226 280.393 388.226 279.7C388.226 279.613 388.223 279.527 388.216 279.44C388.216 279.36 388.21 279.29 388.196 279.23H384.916C384.95 278.717 385.11 278.307 385.396 278C385.69 277.693 386.07 277.54 386.536 277.54C386.77 277.54 386.983 277.573 387.176 277.64C387.376 277.713 387.566 277.807 387.746 277.92L388.036 277.38C387.83 277.247 387.593 277.13 387.326 277.03C387.066 276.93 386.77 276.88 386.436 276.88ZM384.906 279.82H387.506C387.506 280.313 387.4 280.687 387.186 280.94C386.98 281.2 386.686 281.33 386.306 281.33C385.966 281.33 385.66 281.197 385.386 280.93C385.12 280.67 384.96 280.3 384.906 279.82ZM390.697 276.88C390.351 276.88 390.021 276.943 389.707 277.07C389.394 277.203 389.121 277.363 388.887 277.55L389.297 278.1C389.511 277.933 389.731 277.793 389.957 277.68C390.184 277.573 390.441 277.52 390.727 277.52C391.047 277.52 391.287 277.593 391.447 277.74C391.607 277.893 391.687 278.073 391.687 278.28C391.687 278.447 391.631 278.587 391.517 278.7C391.411 278.813 391.271 278.907 391.097 278.98C390.931 279.06 390.757 279.133 390.577 279.2C390.351 279.287 390.127 279.383 389.907 279.49C389.687 279.603 389.507 279.747 389.367 279.92C389.227 280.1 389.157 280.327 389.157 280.6C389.157 280.993 389.304 281.32 389.597 281.58C389.897 281.847 390.311 281.98 390.837 281.98C391.137 281.98 391.417 281.927 391.677 281.82C391.937 281.713 392.161 281.583 392.347 281.43L391.947 280.91C391.781 281.037 391.607 281.14 391.427 281.22C391.247 281.3 391.051 281.34 390.837 281.34C390.531 281.34 390.304 281.27 390.157 281.13C390.017 280.99 389.947 280.827 389.947 280.64C389.947 280.487 389.997 280.36 390.097 280.26C390.197 280.167 390.327 280.083 390.487 280.01C390.647 279.943 390.817 279.873 390.997 279.8C391.231 279.713 391.461 279.613 391.687 279.5C391.914 279.393 392.101 279.247 392.247 279.06C392.401 278.88 392.477 278.637 392.477 278.33C392.477 278.07 392.407 277.83 392.267 277.61C392.134 277.39 391.934 277.213 391.667 277.08C391.407 276.947 391.084 276.88 390.697 276.88ZM394.289 278.98C394.243 279.293 394.259 279.57 394.339 279.81C394.419 280.05 394.529 280.27 394.669 280.47C394.816 280.67 394.963 280.86 395.109 281.04C395.263 281.22 395.393 281.4 395.499 281.58C395.606 281.76 395.659 281.957 395.659 282.17C395.659 282.437 395.576 282.663 395.409 282.85C395.249 283.043 395.009 283.14 394.689 283.14C394.469 283.14 394.259 283.087 394.059 282.98C393.866 282.88 393.693 282.74 393.539 282.56L393.069 282.99C393.283 283.23 393.529 283.427 393.809 283.58C394.096 283.74 394.423 283.82 394.789 283.82C395.296 283.82 395.699 283.677 395.999 283.39C396.306 283.103 396.459 282.713 396.459 282.22C396.459 281.96 396.406 281.723 396.299 281.51C396.193 281.303 396.059 281.107 395.899 280.92C395.746 280.733 395.596 280.543 395.449 280.35C395.303 280.157 395.183 279.95 395.089 279.73C395.003 279.51 394.976 279.26 395.009 278.98H394.289ZM394.669 276.88C394.503 276.88 394.363 276.937 394.249 277.05C394.136 277.17 394.079 277.32 394.079 277.5C394.079 277.693 394.136 277.847 394.249 277.96C394.363 278.08 394.503 278.14 394.669 278.14C394.836 278.14 394.976 278.08 395.089 277.96C395.209 277.847 395.269 277.693 395.269 277.5C395.269 277.32 395.209 277.17 395.089 277.05C394.976 276.937 394.836 276.88 394.669 276.88ZM339.32 263.88C338.773 263.88 338.287 264.02 337.86 264.3C337.44 264.58 337.11 264.977 336.87 265.49C336.637 266.003 336.52 266.61 336.52 267.31C336.52 268.01 336.637 268.61 336.87 269.11C337.11 269.617 337.44 270.003 337.86 270.27C338.287 270.543 338.773 270.68 339.32 270.68C339.873 270.68 340.36 270.543 340.78 270.27C341.2 270.003 341.53 269.617 341.77 269.11C342.01 268.61 342.13 268.01 342.13 267.31C342.13 266.61 342.01 266.003 341.77 265.49C341.53 264.977 341.2 264.58 340.78 264.3C340.36 264.02 339.873 263.88 339.32 263.88ZM339.32 264.61C339.713 264.61 340.053 264.72 340.34 264.94C340.633 265.167 340.86 265.48 341.02 265.88C341.18 266.287 341.26 266.763 341.26 267.31C341.26 268.123 341.083 268.767 340.73 269.24C340.377 269.713 339.907 269.95 339.32 269.95C338.733 269.95 338.263 269.713 337.91 269.24C337.557 268.767 337.38 268.123 337.38 267.31C337.38 266.763 337.46 266.287 337.62 265.88C337.78 265.48 338.007 265.167 338.3 264.94C338.593 264.72 338.933 264.61 339.32 264.61ZM344.881 263.88C344.367 263.88 343.991 264.04 343.751 264.36C343.511 264.687 343.391 265.16 343.391 265.78V268.86H344.221V265.89C344.221 265.437 344.291 265.107 344.431 264.9C344.577 264.693 344.811 264.59 345.131 264.59C345.384 264.59 345.607 264.653 345.801 264.78C346.001 264.913 346.214 265.123 346.441 265.41V268.86H347.261V264H346.581L346.511 264.76H346.481C346.254 264.493 346.014 264.28 345.761 264.12C345.507 263.96 345.214 263.88 344.881 263.88ZM348.9 264V268.86H349.58L349.65 267.98H349.68C349.847 268.287 350.05 268.53 350.29 268.71C350.53 268.89 350.787 268.98 351.06 268.98C351.253 268.98 351.427 268.947 351.58 268.88L351.42 268.16C351.34 268.187 351.267 268.207 351.2 268.22C351.133 268.233 351.05 268.24 350.95 268.24C350.743 268.24 350.527 268.157 350.3 267.99C350.08 267.823 349.887 267.533 349.72 267.12V264H348.9ZM355.579 267.67L355.269 266.67H357.239L356.929 267.67C356.809 268.037 356.695 268.4 356.589 268.76C356.482 269.127 356.375 269.5 356.269 269.88H356.229C356.129 269.5 356.025 269.127 355.919 268.76C355.812 268.4 355.699 268.037 355.579 267.67ZM353.579 264L355.799 270.56H356.739L358.959 264H358.069L357.449 266H355.059L354.429 264H353.579ZM359.808 261.95V268.86H360.488L360.558 268.3H360.588C360.808 268.487 361.048 268.647 361.308 268.78C361.575 268.913 361.852 268.98 362.138 268.98C362.765 268.98 363.242 268.753 363.568 268.3C363.895 267.853 364.058 267.253 364.058 266.5C364.058 265.953 363.958 265.483 363.758 265.09C363.565 264.697 363.308 264.397 362.988 264.19C362.675 263.983 362.332 263.88 361.958 263.88C361.732 263.88 361.505 263.93 361.278 264.03C361.058 264.13 360.835 264.267 360.608 264.44L360.628 263.59V261.95H359.808ZM361.818 264.57C362.218 264.57 362.548 264.74 362.808 265.08C363.075 265.427 363.208 265.9 363.208 266.5C363.208 267.033 363.108 267.463 362.908 267.79C362.715 268.123 362.388 268.29 361.928 268.29C361.722 268.29 361.512 268.233 361.298 268.12C361.092 268.007 360.868 267.843 360.628 267.63V265.08C360.848 264.893 361.062 264.76 361.268 264.68C361.475 264.607 361.658 264.57 361.818 264.57ZM365.355 261.95V268.86H366.035L366.105 268.3H366.135C366.355 268.487 366.595 268.647 366.855 268.78C367.122 268.913 367.398 268.98 367.685 268.98C368.312 268.98 368.788 268.753 369.115 268.3C369.442 267.853 369.605 267.253 369.605 266.5C369.605 265.953 369.505 265.483 369.305 265.09C369.112 264.697 368.855 264.397 368.535 264.19C368.222 263.983 367.878 263.88 367.505 263.88C367.278 263.88 367.052 263.93 366.825 264.03C366.605 264.13 366.382 264.267 366.155 264.44L366.175 263.59V261.95H365.355ZM367.365 264.57C367.765 264.57 368.095 264.74 368.355 265.08C368.622 265.427 368.755 265.9 368.755 266.5C368.755 267.033 368.655 267.463 368.455 267.79C368.262 268.123 367.935 268.29 367.475 268.29C367.268 268.29 367.058 268.233 366.845 268.12C366.638 268.007 366.415 267.843 366.175 267.63V265.08C366.395 264.893 366.608 264.76 366.815 264.68C367.022 264.607 367.205 264.57 367.365 264.57ZM374.824 263.88C374.397 263.88 374.011 263.98 373.664 264.18C373.317 264.38 373.044 264.67 372.844 265.05C372.644 265.43 372.544 265.887 372.544 266.42C372.544 266.967 372.651 267.43 372.864 267.81C373.084 268.19 373.371 268.48 373.724 268.68C374.084 268.88 374.471 268.98 374.884 268.98C375.204 268.98 375.477 268.923 375.704 268.81C375.937 268.697 376.137 268.563 376.304 268.41L375.884 267.87C375.744 267.997 375.594 268.1 375.434 268.18C375.281 268.26 375.107 268.3 374.914 268.3C374.621 268.3 374.357 268.22 374.124 268.06C373.897 267.907 373.717 267.687 373.584 267.4C373.457 267.12 373.394 266.793 373.394 266.42C373.394 265.867 373.531 265.417 373.804 265.07C374.084 264.73 374.447 264.56 374.894 264.56C375.121 264.56 375.331 264.607 375.524 264.7C375.717 264.8 375.887 264.917 376.034 265.05L376.394 264.5C376.174 264.307 375.931 264.153 375.664 264.04C375.397 263.933 375.117 263.88 374.824 263.88ZM379.14 263.88C378.746 263.88 378.376 263.98 378.03 264.18C377.69 264.38 377.413 264.67 377.2 265.05C376.993 265.43 376.89 265.887 376.89 266.42C376.89 266.967 376.993 267.43 377.2 267.81C377.413 268.19 377.69 268.48 378.03 268.68C378.376 268.88 378.746 268.98 379.14 268.98C379.54 268.98 379.91 268.88 380.25 268.68C380.59 268.48 380.863 268.19 381.07 267.81C381.283 267.43 381.39 266.967 381.39 266.42C381.39 265.887 381.283 265.43 381.07 265.05C380.863 264.67 380.59 264.38 380.25 264.18C379.91 263.98 379.54 263.88 379.14 263.88ZM379.14 264.56C379.56 264.56 379.896 264.73 380.15 265.07C380.41 265.417 380.54 265.867 380.54 266.42C380.54 266.98 380.41 267.433 380.15 267.78C379.896 268.127 379.56 268.3 379.14 268.3C378.726 268.3 378.39 268.127 378.13 267.78C377.87 267.433 377.74 266.98 377.74 266.42C377.74 265.867 377.87 265.417 378.13 265.07C378.39 264.73 378.726 264.56 379.14 264.56ZM384.09 263.88C383.576 263.88 383.2 264.04 382.96 264.36C382.72 264.687 382.6 265.16 382.6 265.78V268.86H383.43V265.89C383.43 265.437 383.5 265.107 383.64 264.9C383.786 264.693 384.02 264.59 384.34 264.59C384.593 264.59 384.816 264.653 385.01 264.78C385.21 264.913 385.423 265.123 385.65 265.41V268.86H386.47V264H385.79L385.72 264.76H385.69C385.463 264.493 385.223 264.28 384.97 264.12C384.716 263.96 384.423 263.88 384.09 263.88ZM388.979 263.88C388.672 263.88 388.449 263.973 388.309 264.16C388.176 264.353 388.109 264.627 388.109 264.98V271.12H388.929V264.92C388.929 264.793 388.952 264.7 388.999 264.64C389.046 264.587 389.099 264.56 389.159 264.56C389.186 264.56 389.209 264.56 389.229 264.56C389.256 264.567 389.292 264.573 389.339 264.58L389.449 263.96C389.396 263.933 389.332 263.913 389.259 263.9C389.186 263.887 389.092 263.88 388.979 263.88ZM392.318 263.88C391.711 263.88 391.225 264.1 390.858 264.54C390.491 264.987 390.308 265.613 390.308 266.42C390.308 266.947 390.405 267.4 390.598 267.78C390.798 268.167 391.058 268.463 391.378 268.67C391.705 268.877 392.051 268.98 392.418 268.98C392.698 268.98 392.941 268.93 393.148 268.83C393.355 268.73 393.565 268.593 393.778 268.42L393.738 269.25V271.12H394.568V264H393.888L393.818 264.57H393.788C393.601 264.383 393.381 264.22 393.128 264.08C392.875 263.947 392.605 263.88 392.318 263.88ZM392.498 264.57C392.925 264.57 393.338 264.793 393.738 265.24V267.78C393.531 267.967 393.331 268.097 393.138 268.17C392.951 268.25 392.758 268.29 392.558 268.29C392.298 268.29 392.061 268.21 391.848 268.05C391.641 267.897 391.475 267.68 391.348 267.4C391.221 267.127 391.158 266.803 391.158 266.43C391.158 265.85 391.275 265.393 391.508 265.06C391.741 264.733 392.071 264.57 392.498 264.57ZM398.207 264V271.12H399.027V269.18L398.997 268.18C399.23 268.4 399.473 268.587 399.727 268.74C399.987 268.9 400.283 268.98 400.617 268.98C401.13 268.98 401.503 268.817 401.737 268.49C401.977 268.17 402.097 267.7 402.097 267.08V264H401.277V266.97C401.277 267.423 401.203 267.753 401.057 267.96C400.91 268.167 400.677 268.27 400.357 268.27C400.11 268.27 399.887 268.207 399.687 268.08C399.493 267.953 399.273 267.767 399.027 267.52V264H398.207ZM405.616 263.88C405.183 263.88 404.79 263.98 404.436 264.18C404.083 264.387 403.803 264.68 403.596 265.06C403.39 265.44 403.286 265.893 403.286 266.42C403.286 266.953 403.39 267.41 403.596 267.79C403.81 268.17 404.083 268.463 404.416 268.67C404.75 268.877 405.1 268.98 405.466 268.98C406.086 268.98 406.563 268.773 406.896 268.36C407.236 267.947 407.406 267.393 407.406 266.7C407.406 266.613 407.403 266.527 407.396 266.44C407.396 266.36 407.39 266.29 407.376 266.23H404.096C404.13 265.717 404.29 265.307 404.576 265C404.87 264.693 405.25 264.54 405.716 264.54C405.95 264.54 406.163 264.573 406.356 264.64C406.556 264.713 406.746 264.807 406.926 264.92L407.216 264.38C407.01 264.247 406.773 264.13 406.506 264.03C406.246 263.93 405.95 263.88 405.616 263.88ZM404.086 266.82H406.686C406.686 267.313 406.58 267.687 406.366 267.94C406.16 268.2 405.866 268.33 405.486 268.33C405.146 268.33 404.84 268.197 404.566 267.93C404.3 267.67 404.14 267.3 404.086 266.82ZM409.477 263.88C409.17 263.88 408.947 263.973 408.807 264.16C408.674 264.353 408.607 264.627 408.607 264.98V271.12H409.427V264.92C409.427 264.793 409.45 264.7 409.497 264.64C409.544 264.587 409.597 264.56 409.657 264.56C409.684 264.56 409.707 264.56 409.727 264.56C409.754 264.567 409.79 264.573 409.837 264.58L409.947 263.96C409.894 263.933 409.83 263.913 409.757 263.9C409.684 263.887 409.59 263.88 409.477 263.88ZM411.156 261.95V268.86H411.836L411.906 268.3H411.936C412.156 268.487 412.396 268.647 412.656 268.78C412.923 268.913 413.199 268.98 413.486 268.98C414.113 268.98 414.589 268.753 414.916 268.3C415.243 267.853 415.406 267.253 415.406 266.5C415.406 265.953 415.306 265.483 415.106 265.09C414.913 264.697 414.656 264.397 414.336 264.19C414.023 263.983 413.679 263.88 413.306 263.88C413.079 263.88 412.853 263.93 412.626 264.03C412.406 264.13 412.183 264.267 411.956 264.44L411.976 263.59V261.95H411.156ZM413.166 264.57C413.566 264.57 413.896 264.74 414.156 265.08C414.423 265.427 414.556 265.9 414.556 266.5C414.556 267.033 414.456 267.463 414.256 267.79C414.063 268.123 413.736 268.29 413.276 268.29C413.069 268.29 412.859 268.233 412.646 268.12C412.439 268.007 412.216 267.843 411.976 267.63V265.08C412.196 264.893 412.409 264.76 412.616 264.68C412.823 264.607 413.006 264.57 413.166 264.57ZM418.785 261.91C418.678 261.91 418.575 261.92 418.475 261.94C418.381 261.96 418.295 261.983 418.215 262.01L418.375 262.66C418.428 262.647 418.488 262.633 418.555 262.62C418.621 262.6 418.685 262.59 418.745 262.59C419.018 262.59 419.245 262.69 419.425 262.89C419.605 263.083 419.745 263.33 419.845 263.63L419.955 263.99L418.005 268.86H418.855L419.845 266.17C419.918 265.963 419.995 265.74 420.075 265.5C420.161 265.26 420.241 265.027 420.315 264.8H420.355C420.428 265.02 420.498 265.25 420.565 265.49C420.631 265.73 420.698 265.957 420.765 266.17L421.635 268.86H422.435L420.605 263.6C420.491 263.28 420.355 262.993 420.195 262.74C420.041 262.487 419.848 262.287 419.615 262.14C419.388 261.987 419.111 261.91 418.785 261.91ZM425.224 263.88C424.83 263.88 424.46 263.98 424.114 264.18C423.774 264.38 423.497 264.67 423.284 265.05C423.077 265.43 422.974 265.887 422.974 266.42C422.974 266.967 423.077 267.43 423.284 267.81C423.497 268.19 423.774 268.48 424.114 268.68C424.46 268.88 424.83 268.98 425.224 268.98C425.624 268.98 425.994 268.88 426.334 268.68C426.674 268.48 426.947 268.19 427.154 267.81C427.367 267.43 427.474 266.967 427.474 266.42C427.474 265.887 427.367 265.43 427.154 265.05C426.947 264.67 426.674 264.38 426.334 264.18C425.994 263.98 425.624 263.88 425.224 263.88ZM425.224 264.56C425.644 264.56 425.98 264.73 426.234 265.07C426.494 265.417 426.624 265.867 426.624 266.42C426.624 266.98 426.494 267.433 426.234 267.78C425.98 268.127 425.644 268.3 425.224 268.3C424.81 268.3 424.474 268.127 424.214 267.78C423.954 267.433 423.824 266.98 423.824 266.42C423.824 265.867 423.954 265.417 424.214 265.07C424.474 264.73 424.81 264.56 425.224 264.56ZM430.174 263.88C429.66 263.88 429.284 264.04 429.044 264.36C428.804 264.687 428.684 265.16 428.684 265.78V268.86H429.514V265.89C429.514 265.437 429.584 265.107 429.724 264.9C429.87 264.693 430.104 264.59 430.424 264.59C430.677 264.59 430.9 264.653 431.094 264.78C431.294 264.913 431.507 265.123 431.734 265.41V268.86H432.554V264H431.874L431.804 264.76H431.774C431.547 264.493 431.307 264.28 431.054 264.12C430.8 263.96 430.507 263.88 430.174 263.88ZM434.623 263.88C434.456 263.88 434.313 263.937 434.193 264.05C434.08 264.17 434.023 264.32 434.023 264.5C434.023 264.693 434.08 264.847 434.193 264.96C434.313 265.08 434.456 265.14 434.623 265.14C434.783 265.14 434.92 265.08 435.033 264.96C435.153 264.847 435.213 264.693 435.213 264.5C435.213 264.32 435.153 264.17 435.033 264.05C434.92 263.937 434.783 263.88 434.623 263.88Z" fill="#F1F7FF"/>
<path d="M339.38 234.88C338.833 234.88 338.343 235.013 337.91 235.28C337.483 235.553 337.143 235.943 336.89 236.45C336.643 236.957 336.52 237.567 336.52 238.28C336.52 238.987 336.647 239.593 336.9 240.1C337.153 240.607 337.5 240.997 337.94 241.27C338.38 241.543 338.877 241.68 339.43 241.68C339.83 241.68 340.183 241.597 340.49 241.43C340.797 241.27 341.043 241.083 341.23 240.87L340.78 240.33C340.607 240.517 340.41 240.667 340.19 240.78C339.97 240.893 339.72 240.95 339.44 240.95C339.027 240.95 338.663 240.84 338.35 240.62C338.043 240.407 337.803 240.103 337.63 239.71C337.463 239.317 337.38 238.847 337.38 238.3C337.38 237.753 337.463 237.277 337.63 236.87C337.797 236.47 338.03 236.16 338.33 235.94C338.637 235.72 338.997 235.61 339.41 235.61C339.723 235.61 340.003 235.677 340.25 235.81C340.497 235.943 340.723 236.123 340.93 236.35L341.39 235.83C341.13 235.53 340.837 235.297 340.51 235.13C340.183 234.963 339.807 234.88 339.38 234.88ZM344.423 234.88C344.03 234.88 343.66 234.98 343.313 235.18C342.973 235.38 342.696 235.67 342.483 236.05C342.276 236.43 342.173 236.887 342.173 237.42C342.173 237.967 342.276 238.43 342.483 238.81C342.696 239.19 342.973 239.48 343.313 239.68C343.66 239.88 344.03 239.98 344.423 239.98C344.823 239.98 345.193 239.88 345.533 239.68C345.873 239.48 346.146 239.19 346.353 238.81C346.566 238.43 346.673 237.967 346.673 237.42C346.673 236.887 346.566 236.43 346.353 236.05C346.146 235.67 345.873 235.38 345.533 235.18C345.193 234.98 344.823 234.88 344.423 234.88ZM344.423 235.56C344.843 235.56 345.18 235.73 345.433 236.07C345.693 236.417 345.823 236.867 345.823 237.42C345.823 237.98 345.693 238.433 345.433 238.78C345.18 239.127 344.843 239.3 344.423 239.3C344.01 239.3 343.673 239.127 343.413 238.78C343.153 238.433 343.023 237.98 343.023 237.42C343.023 236.867 343.153 236.417 343.413 236.07C343.673 235.73 344.01 235.56 344.423 235.56ZM347.953 235V239.86H348.633L348.703 239.16H348.733C348.966 239.393 349.213 239.587 349.473 239.74C349.733 239.9 350.029 239.98 350.363 239.98C350.876 239.98 351.249 239.817 351.483 239.49C351.723 239.17 351.843 238.7 351.843 238.08V235H351.023V237.97C351.023 238.423 350.949 238.753 350.803 238.96C350.656 239.167 350.423 239.27 350.103 239.27C349.856 239.27 349.633 239.207 349.433 239.08C349.239 238.953 349.019 238.767 348.773 238.52V235H347.953ZM354.952 234.88C354.432 234.88 354.068 235.03 353.862 235.33C353.662 235.63 353.562 236.02 353.562 236.5V239.19H352.842V239.81L353.602 239.86L353.702 241.22H354.392V239.86H355.702V239.19H354.392V236.49C354.392 236.19 354.445 235.957 354.552 235.79C354.665 235.63 354.862 235.55 355.142 235.55C355.228 235.55 355.322 235.563 355.422 235.59C355.522 235.623 355.612 235.653 355.692 235.68L355.852 235.06C355.718 235.013 355.572 234.973 355.412 234.94C355.258 234.9 355.105 234.88 354.952 234.88ZM357.706 234.88C357.299 234.88 356.959 235 356.686 235.24C356.419 235.487 356.286 235.827 356.286 236.26C356.286 236.793 356.522 237.2 356.996 237.48C357.476 237.767 358.232 237.967 359.266 238.08C359.266 238.287 359.236 238.483 359.176 238.67C359.122 238.857 359.022 239.007 358.876 239.12C358.736 239.24 358.532 239.3 358.266 239.3C357.986 239.3 357.722 239.247 357.476 239.14C357.229 239.033 357.009 238.913 356.816 238.78L356.496 239.35C356.722 239.497 356.999 239.637 357.326 239.77C357.659 239.91 358.019 239.98 358.406 239.98C358.999 239.98 359.429 239.797 359.696 239.43C359.962 239.07 360.096 238.587 360.096 237.98V235H359.416L359.346 235.58H359.316C359.089 235.393 358.839 235.23 358.566 235.09C358.299 234.95 358.012 234.88 357.706 234.88ZM357.946 235.54C358.179 235.54 358.399 235.597 358.606 235.71C358.812 235.823 359.032 235.983 359.266 236.19V237.54C358.459 237.44 357.892 237.29 357.566 237.09C357.246 236.89 357.086 236.633 357.086 236.32C357.086 236.047 357.169 235.847 357.336 235.72C357.502 235.6 357.706 235.54 357.946 235.54ZM363.545 234.88C363.118 234.88 362.731 234.98 362.385 235.18C362.038 235.38 361.765 235.67 361.565 236.05C361.365 236.43 361.265 236.887 361.265 237.42C361.265 237.967 361.371 238.43 361.585 238.81C361.805 239.19 362.091 239.48 362.445 239.68C362.805 239.88 363.191 239.98 363.605 239.98C363.925 239.98 364.198 239.923 364.425 239.81C364.658 239.697 364.858 239.563 365.025 239.41L364.605 238.87C364.465 238.997 364.315 239.1 364.155 239.18C364.001 239.26 363.828 239.3 363.635 239.3C363.341 239.3 363.078 239.22 362.845 239.06C362.618 238.907 362.438 238.687 362.305 238.4C362.178 238.12 362.115 237.793 362.115 237.42C362.115 236.867 362.251 236.417 362.525 236.07C362.805 235.73 363.168 235.56 363.615 235.56C363.841 235.56 364.051 235.607 364.245 235.7C364.438 235.8 364.608 235.917 364.755 236.05L365.115 235.5C364.895 235.307 364.651 235.153 364.385 235.04C364.118 234.933 363.838 234.88 363.545 234.88ZM367.618 234.88C367.098 234.88 366.734 235.03 366.528 235.33C366.328 235.63 366.228 236.02 366.228 236.5V239.19H365.508V239.81L366.268 239.86L366.368 241.22H367.058V239.86H368.368V239.19H367.058V236.49C367.058 236.19 367.111 235.957 367.218 235.79C367.331 235.63 367.528 235.55 367.808 235.55C367.894 235.55 367.988 235.563 368.088 235.59C368.188 235.623 368.278 235.653 368.358 235.68L368.518 235.06C368.384 235.013 368.238 234.973 368.078 234.94C367.924 234.9 367.771 234.88 367.618 234.88ZM372.888 234.88C372.375 234.88 371.998 235.04 371.758 235.36C371.518 235.687 371.398 236.16 371.398 236.78V239.86H372.228V236.89C372.228 236.437 372.298 236.107 372.438 235.9C372.585 235.693 372.818 235.59 373.138 235.59C373.392 235.59 373.615 235.653 373.808 235.78C374.008 235.913 374.222 236.123 374.448 236.41V239.86H375.268V235H374.588L374.518 235.76H374.488C374.262 235.493 374.022 235.28 373.768 235.12C373.515 234.96 373.222 234.88 372.888 234.88ZM378.178 234.88C377.831 234.88 377.501 234.943 377.188 235.07C376.875 235.203 376.601 235.363 376.368 235.55L376.778 236.1C376.991 235.933 377.211 235.793 377.438 235.68C377.665 235.573 377.921 235.52 378.208 235.52C378.528 235.52 378.768 235.593 378.928 235.74C379.088 235.893 379.168 236.073 379.168 236.28C379.168 236.447 379.111 236.587 378.998 236.7C378.891 236.813 378.751 236.907 378.578 236.98C378.411 237.06 378.238 237.133 378.058 237.2C377.831 237.287 377.608 237.383 377.388 237.49C377.168 237.603 376.988 237.747 376.848 237.92C376.708 238.1 376.638 238.327 376.638 238.6C376.638 238.993 376.785 239.32 377.078 239.58C377.378 239.847 377.791 239.98 378.318 239.98C378.618 239.98 378.898 239.927 379.158 239.82C379.418 239.713 379.641 239.583 379.828 239.43L379.428 238.91C379.261 239.037 379.088 239.14 378.908 239.22C378.728 239.3 378.531 239.34 378.318 239.34C378.011 239.34 377.785 239.27 377.638 239.13C377.498 238.99 377.428 238.827 377.428 238.64C377.428 238.487 377.478 238.36 377.578 238.26C377.678 238.167 377.808 238.083 377.968 238.01C378.128 237.943 378.298 237.873 378.478 237.8C378.711 237.713 378.941 237.613 379.168 237.5C379.395 237.393 379.581 237.247 379.728 237.06C379.881 236.88 379.958 236.637 379.958 236.33C379.958 236.07 379.888 235.83 379.748 235.61C379.615 235.39 379.415 235.213 379.148 235.08C378.888 234.947 378.565 234.88 378.178 234.88ZM381.527 238.49C381.361 238.49 381.217 238.547 381.097 238.66C380.984 238.78 380.927 238.93 380.927 239.11C380.927 239.303 380.984 239.457 381.097 239.57C381.217 239.69 381.361 239.75 381.527 239.75C381.687 239.75 381.824 239.69 381.937 239.57C382.057 239.457 382.117 239.303 382.117 239.11C382.117 238.93 382.057 238.78 381.937 238.66C381.824 238.547 381.687 238.49 381.527 238.49ZM381.527 234.88C381.361 234.88 381.217 234.937 381.097 235.05C380.984 235.17 380.927 235.32 380.927 235.5C380.927 235.693 380.984 235.847 381.097 235.96C381.217 236.08 381.361 236.14 381.527 236.14C381.687 236.14 381.824 236.08 381.937 235.96C382.057 235.847 382.117 235.693 382.117 235.5C382.117 235.32 382.057 235.17 381.937 235.05C381.824 234.937 381.687 234.88 381.527 234.88ZM337.04 224.42H339.04V226.27C339.04 226.443 339.047 226.65 339.06 226.89C339.073 227.13 339.083 227.333 339.09 227.5H339.05C338.97 227.347 338.887 227.197 338.8 227.05C338.713 226.903 338.623 226.753 338.53 226.6L337.04 224.42ZM339.04 222V223.76H336.17V224.3L338.9 228.38H339.82V224.42H340.69V223.76H339.82V222H339.04ZM341.761 222V222.68H343.221V227.38H342.061V227.91C342.354 227.963 342.607 228.027 342.821 228.1C343.041 228.18 343.237 228.273 343.411 228.38H344.041V222.68H345.361V222H341.761ZM348.281 221.88C347.775 221.88 347.355 221.97 347.021 222.15C346.688 222.33 346.411 222.53 346.191 222.75L346.591 223.29C346.785 223.103 347.008 222.933 347.261 222.78C347.515 222.633 347.828 222.56 348.201 222.56C348.595 222.56 348.925 222.69 349.191 222.95C349.465 223.217 349.601 223.573 349.601 224.02C349.601 224.46 349.478 224.803 349.231 225.05C348.985 225.297 348.655 225.42 348.241 225.42C348.021 225.42 347.831 225.387 347.671 225.32C347.518 225.253 347.345 225.157 347.151 225.03L346.711 225.31L346.921 228.38H350.111V227.67H347.641L347.471 225.78C347.625 225.86 347.778 225.923 347.931 225.97C348.085 226.017 348.258 226.04 348.451 226.04C348.818 226.04 349.148 225.967 349.441 225.82C349.741 225.68 349.981 225.463 350.161 225.17C350.341 224.877 350.431 224.5 350.431 224.04C350.431 223.58 350.328 223.187 350.121 222.86C349.921 222.54 349.658 222.297 349.331 222.13C349.005 221.963 348.655 221.88 348.281 221.88ZM355.254 221.88C354.747 221.88 354.327 221.97 353.994 222.15C353.661 222.33 353.384 222.53 353.164 222.75L353.564 223.29C353.757 223.103 353.981 222.933 354.234 222.78C354.487 222.633 354.801 222.56 355.174 222.56C355.567 222.56 355.897 222.69 356.164 222.95C356.437 223.217 356.574 223.573 356.574 224.02C356.574 224.46 356.451 224.803 356.204 225.05C355.957 225.297 355.627 225.42 355.214 225.42C354.994 225.42 354.804 225.387 354.644 225.32C354.491 225.253 354.317 225.157 354.124 225.03L353.684 225.31L353.894 228.38H357.084V227.67H354.614L354.444 225.78C354.597 225.86 354.751 225.923 354.904 225.97C355.057 226.017 355.231 226.04 355.424 226.04C355.791 226.04 356.121 225.967 356.414 225.82C356.714 225.68 356.954 225.463 357.134 225.17C357.314 224.877 357.404 224.5 357.404 224.04C357.404 223.58 357.301 223.187 357.094 222.86C356.894 222.54 356.631 222.297 356.304 222.13C355.977 221.963 355.627 221.88 355.254 221.88ZM360.225 221.88C359.718 221.88 359.298 221.97 358.965 222.15C358.631 222.33 358.355 222.53 358.135 222.75L358.535 223.29C358.728 223.103 358.951 222.933 359.205 222.78C359.458 222.633 359.771 222.56 360.145 222.56C360.538 222.56 360.868 222.69 361.135 222.95C361.408 223.217 361.545 223.573 361.545 224.02C361.545 224.46 361.421 224.803 361.175 225.05C360.928 225.297 360.598 225.42 360.185 225.42C359.965 225.42 359.775 225.387 359.615 225.32C359.461 225.253 359.288 225.157 359.095 225.03L358.655 225.31L358.865 228.38H362.055V227.67H359.585L359.415 225.78C359.568 225.86 359.721 225.923 359.875 225.97C360.028 226.017 360.201 226.04 360.395 226.04C360.761 226.04 361.091 225.967 361.385 225.82C361.685 225.68 361.925 225.463 362.105 225.17C362.285 224.877 362.375 224.5 362.375 224.04C362.375 223.58 362.271 223.187 362.065 222.86C361.865 222.54 361.601 222.297 361.275 222.13C360.948 221.963 360.598 221.88 360.225 221.88ZM365.195 221.88C364.689 221.88 364.269 221.97 363.935 222.15C363.602 222.33 363.325 222.53 363.105 222.75L363.505 223.29C363.699 223.103 363.922 222.933 364.175 222.78C364.429 222.633 364.742 222.56 365.115 222.56C365.509 222.56 365.839 222.69 366.105 222.95C366.379 223.217 366.515 223.573 366.515 224.02C366.515 224.46 366.392 224.803 366.145 225.05C365.899 225.297 365.569 225.42 365.155 225.42C364.935 225.42 364.745 225.387 364.585 225.32C364.432 225.253 364.259 225.157 364.065 225.03L363.625 225.31L363.835 228.38H367.025V227.67H364.555L364.385 225.78C364.539 225.86 364.692 225.923 364.845 225.97C364.999 226.017 365.172 226.04 365.365 226.04C365.732 226.04 366.062 225.967 366.355 225.82C366.655 225.68 366.895 225.463 367.075 225.17C367.255 224.877 367.345 224.5 367.345 224.04C367.345 223.58 367.242 223.187 367.035 222.86C366.835 222.54 366.572 222.297 366.245 222.13C365.919 221.963 365.569 221.88 365.195 221.88ZM370.228 222V222.49C370.868 223.13 371.411 223.69 371.858 224.17C372.305 224.657 372.645 225.093 372.878 225.48C373.111 225.873 373.228 226.24 373.228 226.58C373.228 226.947 373.128 227.247 372.928 227.48C372.728 227.713 372.425 227.83 372.018 227.83C371.751 227.83 371.505 227.753 371.278 227.6C371.051 227.453 370.845 227.273 370.658 227.06L370.188 227.53C370.455 227.823 370.738 228.057 371.038 228.23C371.345 228.41 371.705 228.5 372.118 228.5C372.711 228.5 373.178 228.327 373.518 227.98C373.858 227.64 374.028 227.187 374.028 226.62C374.028 226.22 373.915 225.813 373.688 225.4C373.468 224.993 373.161 224.563 372.768 224.11C372.381 223.663 371.935 223.177 371.428 222.65C371.601 222.663 371.781 222.677 371.968 222.69C372.155 222.703 372.331 222.71 372.498 222.71H374.348V222H370.228ZM377.409 225.28C377.202 225.28 376.979 225.213 376.739 225.08C376.499 224.947 376.279 224.733 376.079 224.44C376.132 223.82 376.275 223.347 376.509 223.02C376.749 222.693 377.072 222.53 377.479 222.53C377.792 222.53 378.055 222.657 378.269 222.91C378.482 223.17 378.589 223.51 378.589 223.93C378.589 224.343 378.489 224.67 378.289 224.91C378.095 225.157 377.802 225.28 377.409 225.28ZM377.479 221.88C377.065 221.88 376.692 221.993 376.359 222.22C376.025 222.447 375.762 222.787 375.569 223.24C375.375 223.7 375.279 224.27 375.279 224.95C375.279 225.803 375.392 226.49 375.619 227.01C375.852 227.53 376.152 227.907 376.519 228.14C376.892 228.38 377.289 228.5 377.709 228.5C378.055 228.5 378.352 228.433 378.599 228.3C378.852 228.173 379.069 228.013 379.249 227.82L378.789 227.31C378.662 227.463 378.505 227.583 378.319 227.67C378.132 227.763 377.939 227.81 377.739 227.81C377.439 227.81 377.165 227.723 376.919 227.55C376.672 227.383 376.469 227.1 376.309 226.7C376.155 226.307 376.072 225.773 376.059 225.1C376.259 225.347 376.492 225.54 376.759 225.68C377.025 225.827 377.289 225.9 377.549 225.9C378.102 225.9 378.542 225.733 378.869 225.4C379.202 225.073 379.369 224.583 379.369 223.93C379.369 223.523 379.282 223.167 379.109 222.86C378.935 222.553 378.705 222.313 378.419 222.14C378.139 221.967 377.825 221.88 377.479 221.88ZM381.54 222C381.58 222.8 381.663 223.517 381.79 224.15C381.923 224.79 382.116 225.39 382.37 225.95C382.63 226.517 382.97 227.09 383.39 227.67H380.21V228.38H384.32V227.87C383.94 227.39 383.63 226.927 383.39 226.48C383.15 226.04 382.963 225.593 382.83 225.14C382.696 224.693 382.596 224.213 382.53 223.7C382.463 223.187 382.416 222.62 382.39 222H381.54ZM385.53 222V222.68H386.99V227.38H385.83V227.91C386.124 227.963 386.377 228.027 386.59 228.1C386.81 228.18 387.007 228.273 387.18 228.38H387.81V222.68H389.13V222H385.53Z" fill="#F1F7FF"/>
</g>
<defs>
<filter id="filter0_i_33_77" x="0" y="0" width="725" height="461" filterUnits="userSpaceOnUse" color-interpolation-filters="sRGB">
<feFlood flood-opacity="0" result="BackgroundImageFix"/>
<feBlend mode="normal" in="SourceGraphic" in2="BackgroundImageFix" result="shape"/>
<feColorMatrix in="SourceAlpha" type="matrix" values="0 0 0 0 0 0 0 0 0 0 0 0 0 0 0 0 0 0 127 0" result="hardAlpha"/>
<feOffset dx="3" dy="3"/>
<feGaussianBlur stdDeviation="3"/>
<feComposite in2="hardAlpha" operator="arithmetic" k2="-1" k3="1"/>
<feColorMatrix type="matrix" values="0 0 0 0 1 0 0 0 0 1 0 0 0 0 1 0 0 0 0.25 0"/>
<feBlend mode="normal" in2="shape" result="effect1_innerShadow_33_77"/>
</filter>
<linearGradient id="paint0_linear_33_77" x1="610.09" y1="396.17" x2="354.096" y2="-68.995" gradientUnits="userSpaceOnUse">
<stop stop-color="#1B6CE7"/>
<stop offset="1" stop-color="#003FA6"/>
</linearGradient>
<linearGradient id="paint1_linear_33_77" x1="107" y1="128" x2="150.5" y2="226" gradientUnits="userSpaceOnUse">
<stop stop-color="#F1F7FF"/>
<stop offset="0.0001" stop-color="#F1F7FF"/>
<stop offset="1" stop-color="#E6E6E7"/>
</linearGradient>
<linearGradient id="paint2_linear_33_77" x1="95.5" y1="227" x2="47" y2="140.5" gradientUnits="userSpaceOnUse">
<stop stop-color="#F5F5F5"/>
<stop offset="1" stop-color="#D6D6D6"/>
</linearGradient>
<clipPath id="clip0_33_77">
<rect width="722" height="458" fill="white"/>
</clipPath>
</defs>
</svg>
