<svg width="455" height="372" viewBox="0 0 455 372" fill="none" xmlns="http://www.w3.org/2000/svg">
<g id="cd">
<path id="Vector 66" d="M372.5 300C376.138 332.339 378.551 349.117 383.581 362.092C384.269 363.868 386.455 364.453 387.967 363.296C395.072 357.86 399.731 352.994 406.391 344.158C407.313 342.935 409.005 342.586 410.332 343.35C420.779 349.361 426.762 352.288 432.644 354.022C434.556 354.585 436.369 353.018 436.212 351.03C434.701 331.961 431.5 316.168 421 280.5" stroke="#2A2B2D" stroke-width="6" stroke-linecap="round"/>
<path id="Vector 64" d="M363.502 210C345.733 212.024 335.649 219.599 335.502 234C335.353 248.529 345.428 259.403 363.502 258.5M411.5 234C411.5 214.77 392.882 210.948 385.481 210.188C383.833 210.019 382.5 211.343 382.5 213V255.448C382.5 257.125 383.864 258.456 385.529 258.254C392.961 257.355 411.5 253.189 411.5 234Z" stroke="url(#paint0_linear_236_13)" stroke-width="6" stroke-linecap="round"/>
<path id="Vector 60" d="M317.5 315H6C4.34315 315 3 313.657 3 312V5.99999C3 4.34314 4.34315 3 6 3H448.5C450.157 3 451.5 4.34315 451.5 6V312C451.5 313.657 450.157 315 448.5 315H431.5" stroke="#2A2B2D" stroke-width="6" stroke-linecap="round"/>
<path id="Vector 61" d="M324.5 278.5H70.3512C68.7536 278.5 67.4393 277.239 67.3365 275.645C66.0397 255.534 62.0072 246.087 41.2751 243.761C39.7178 243.587 38.5 242.29 38.5 240.723V72.8167C38.5 71.2332 39.7428 69.9286 41.3194 69.78C61.3342 67.8934 66.0088 59.9346 66.9041 37.9327C66.9703 36.3068 68.2976 35 69.9247 35H382.66C384.253 35 385.565 36.2538 385.676 37.8432C387.155 59.0263 391.913 68.2531 412.253 70.7163C413.799 70.9034 415 72.1947 415 73.751V183.5" stroke="#2A2B2D" stroke-width="6" stroke-linecap="round"/>
<path id="Vector 62" d="M96.5 83H356.5M96.5 128.5H356.5M96.5 173.5H227M96.5 218.5H227" stroke="url(#paint1_linear_236_13)" stroke-width="6" stroke-linecap="round"/>
<path id="Vector 63" d="M309.001 233C308.3 269.03 331.003 298.5 374.001 298.5C417 298.5 439.001 265.5 439.001 233C439.001 200.5 409.352 170 374.001 170C338.651 170 309.689 197.656 309.001 233Z" stroke="#2A2B2D" stroke-width="6" stroke-linecap="round"/>
<path id="Vector 65" d="M329.5 284C320.213 306.237 316.16 322.093 311.152 352.495C310.825 354.482 312.517 356.229 314.502 355.886C322.127 354.567 328.288 352.532 338.268 348.02C339.568 347.433 341.11 347.832 341.957 348.98C349.278 358.903 353.502 364.199 357.503 367.941C358.951 369.296 361.248 368.686 361.975 366.842C369.555 347.615 372.446 332.722 372.5 299" stroke="#2A2B2D" stroke-width="6" stroke-linecap="round"/>
</g>
<defs>
<linearGradient id="paint0_linear_236_13" x1="399.72" y1="216.555" x2="372.48" y2="265.704" gradientUnits="userSpaceOnUse">
<stop stop-color="#1B6CE7"/>
<stop offset="1" stop-color="#003FA6"/>
</linearGradient>
<linearGradient id="paint1_linear_236_13" x1="316.2" y1="101.292" x2="248.893" y2="250.161" gradientUnits="userSpaceOnUse">
<stop stop-color="#1B6CE7"/>
<stop offset="1" stop-color="#003FA6"/>
</linearGradient>
</defs>
</svg>
