<svg width="497" height="401" viewBox="0 0 497 401" fill="none" xmlns="http://www.w3.org/2000/svg">
<g id="money-svg-wrapper">
<g id="money-svg-2">
<path id="Vector 46" d="M385.483 4.60495L485.481 179.541C485.618 179.781 485.535 180.086 485.295 180.223L106.34 396.845C104.901 397.667 103.069 397.168 102.247 395.729L3.48881 222.964C2.66656 221.525 3.16607 219.693 4.6045 218.871L381.389 3.48925C382.828 2.667 384.661 3.16652 385.483 4.60495Z" fill="#F6FAFF" stroke="#2A2B2D" stroke-width="6"/>
<path id="Vector 47" d="M124.727 184.184L45.2896 229.593C43.8511 230.415 43.3516 232.248 44.1739 233.687L113.652 355.23C114.474 356.669 116.307 357.168 117.745 356.346L226.266 294.312M261.898 105.774L369.984 43.9881C371.423 43.1659 373.256 43.6654 374.078 45.1038L443.556 166.647C444.378 168.086 443.878 169.918 442.44 170.741L363.437 215.901M137.749 176.74L154.679 167.063" stroke="#2A2B2D" stroke-width="6" stroke-linecap="round"/>
<path id="Vector 48" d="M96.71 284.285L120.151 270.886" stroke="#0055D6" stroke-width="6" stroke-linecap="round"/>
<path id="Vector 49" d="M390.585 116.298L368.013 129.201" stroke="#0055D6" stroke-width="6" stroke-linecap="round"/>
<path id="Ellipse 179" d="M158.536 248.368C163.059 256.279 160.311 266.359 152.4 270.881C144.489 275.403 134.409 272.656 129.887 264.745C125.364 256.833 128.112 246.754 136.023 242.231C143.934 237.709 154.014 240.456 158.536 248.368ZM134.761 261.959C137.744 267.178 144.394 268.991 149.614 266.007C154.833 263.023 156.646 256.373 153.662 251.154C150.679 245.934 144.029 244.122 138.809 247.106C133.59 250.089 131.777 256.739 134.761 261.959Z" fill="url(#paint0_linear_233_35)"/>
<path id="Ellipse 180" d="M353.874 136.708C358.397 144.619 355.649 154.698 347.738 159.221C339.826 163.743 329.747 160.996 325.225 153.085C320.702 145.173 323.45 135.094 331.361 130.571C339.272 126.049 349.352 128.796 353.874 136.708ZM330.095 150.3C333.08 155.522 339.732 157.335 344.954 154.35C350.175 151.366 351.988 144.713 349.004 139.492C346.019 134.27 339.366 132.457 334.145 135.442C328.923 138.426 327.11 145.079 330.095 150.3Z" fill="url(#paint1_linear_233_35)"/>
<path id="Ellipse 181" d="M310.465 161.519C331.707 198.679 318.803 246.022 281.643 267.263C244.484 288.505 197.141 275.601 175.899 238.441C154.658 201.282 167.562 153.939 204.722 132.697C241.881 111.456 289.224 124.36 310.465 161.519ZM180.66 235.72C199.302 268.333 246.31 281.145 278.922 262.503C311.535 243.861 324.347 196.853 305.705 164.24C287.063 131.628 240.055 118.815 207.443 137.458C174.83 156.1 162.018 203.108 180.66 235.72Z" fill="url(#paint2_linear_233_35)"/>
<path id="Vector 50" d="M251.052 168.413C240.908 163.141 233.46 162.59 225.066 168.293C215.699 174.658 211.423 188.761 216.76 196.078C222.097 203.395 227.223 204.049 237.661 201.409C255.928 197.573 264.206 195.45 270.655 202.706C277.104 209.962 275.173 220.848 266.071 228.939C256.066 237.255 246.413 237.873 235.683 230.184" stroke="#0055D6" stroke-width="6" stroke-linecap="round"/>
<path id="Vector 52" d="M261.544 232.104L267.996 243.39" stroke="#0055D6" stroke-width="6" stroke-linecap="round"/>
<path id="Vector 51" d="M225.069 168.294L218.617 157.008" stroke="#0055D6" stroke-width="6" stroke-linecap="round"/>
<path id="Vector 53" d="M349.546 223.843L333.919 232.775" stroke="#2A2B2D" stroke-width="6" stroke-linecap="round"/>
</g>
<g id="money-svg">
<path id="Vector 46_2" d="M494 174V375.5C494 375.776 493.776 376 493.5 376H57C55.3431 376 54 374.657 54 373V174C54 172.343 55.3431 171 57 171H491C492.657 171 494 172.343 494 174Z" fill="#F6FAFF" stroke="#2A2B2D" stroke-width="6"/>
<path id="Vector 47_2" d="M178.5 200.5H87C85.3431 200.5 84 201.843 84 203.5V343.5C84 345.157 85.3431 346.5 87 346.5H212M336.5 200.5H461C462.657 200.5 464 201.843 464 203.5V343.5C464 345.157 462.657 346.5 461 346.5H370M193.5 200.5H213" stroke="#2A2B2D" stroke-width="6" stroke-linecap="round"/>
<path id="Vector 48_2" d="M104.5 273.5H131.5" stroke="#0055D6" stroke-width="6" stroke-linecap="round"/>
<path id="Vector 49_2" d="M443 273.5H417" stroke="#0055D6" stroke-width="6" stroke-linecap="round"/>
<path id="Ellipse 179_2" d="M176 273C176 282.113 168.613 289.5 159.5 289.5C150.387 289.5 143 282.113 143 273C143 263.887 150.387 256.5 159.5 256.5C168.613 256.5 176 263.887 176 273ZM148.614 273C148.614 279.012 153.488 283.886 159.5 283.886C165.512 283.886 170.386 279.012 170.386 273C170.386 266.988 165.512 262.114 159.5 262.114C153.488 262.114 148.614 266.988 148.614 273Z" fill="url(#paint3_linear_233_35)"/>
<path id="Ellipse 180_2" d="M401 273C401 282.113 393.613 289.5 384.5 289.5C375.387 289.5 368 282.113 368 273C368 263.887 375.387 256.5 384.5 256.5C393.613 256.5 401 263.887 401 273ZM373.61 273C373.61 279.014 378.486 283.89 384.5 283.89C390.514 283.89 395.39 279.014 395.39 273C395.39 266.986 390.514 262.11 384.5 262.11C378.486 262.11 373.61 266.986 373.61 273Z" fill="url(#paint4_linear_233_35)"/>
<path id="Ellipse 181_2" d="M351 273C351 315.802 316.302 350.5 273.5 350.5C230.698 350.5 196 315.802 196 273C196 230.198 230.698 195.5 273.5 195.5C316.302 195.5 351 230.198 351 273ZM201.483 273C201.483 310.565 235.935 345.017 273.5 345.017C311.065 345.017 345.517 310.565 345.517 273C345.517 235.435 311.065 200.983 273.5 200.983C235.935 200.983 201.483 235.435 201.483 273Z" fill="url(#paint5_linear_233_35)"/>
<path id="Vector 50_2" d="M295.998 249.499C289.808 239.888 283.615 235.713 273.498 236.499C262.207 237.377 251.496 247.499 252.498 256.499C253.5 265.5 257.625 268.611 267.998 271.5C285.76 277.235 294 279.5 295.998 289C297.996 298.5 290.918 306.992 279 309.5C266.187 311.754 257.5 307.5 252 295.5" stroke="#0055D6" stroke-width="6" stroke-linecap="round"/>
<path id="Vector 52_2" d="M273.5 310V323" stroke="#0055D6" stroke-width="6" stroke-linecap="round"/>
<path id="Vector 51_2" d="M273.5 236.5V223.5" stroke="#0055D6" stroke-width="6" stroke-linecap="round"/>
<path id="Vector 53_2" d="M354 346.5H336" stroke="#2A2B2D" stroke-width="6" stroke-linecap="round"/>
</g>
</g>
<defs>
<linearGradient id="paint0_linear_233_35" x1="148.118" y1="240.449" x2="141.717" y2="272.806" gradientUnits="userSpaceOnUse">
<stop stop-color="#1B6CE7"/>
<stop offset="1" stop-color="#003FA6"/>
</linearGradient>
<linearGradient id="paint1_linear_233_35" x1="343.456" y1="128.789" x2="337.055" y2="161.146" gradientUnits="userSpaceOnUse">
<stop stop-color="#1B6CE7"/>
<stop offset="1" stop-color="#003FA6"/>
</linearGradient>
<linearGradient id="paint2_linear_233_35" x1="261.531" y1="124.326" x2="231.467" y2="276.307" gradientUnits="userSpaceOnUse">
<stop stop-color="#1B6CE7"/>
<stop offset="1" stop-color="#003FA6"/>
</linearGradient>
<linearGradient id="paint3_linear_233_35" x1="170.885" y1="260.955" x2="149.27" y2="285.87" gradientUnits="userSpaceOnUse">
<stop stop-color="#1B6CE7"/>
<stop offset="1" stop-color="#003FA6"/>
</linearGradient>
<linearGradient id="paint4_linear_233_35" x1="395.885" y1="260.955" x2="374.27" y2="285.87" gradientUnits="userSpaceOnUse">
<stop stop-color="#1B6CE7"/>
<stop offset="1" stop-color="#003FA6"/>
</linearGradient>
<linearGradient id="paint5_linear_233_35" x1="326.975" y1="216.425" x2="225.45" y2="333.45" gradientUnits="userSpaceOnUse">
<stop stop-color="#1B6CE7"/>
<stop offset="1" stop-color="#003FA6"/>
</linearGradient>
</defs>
</svg>
