<svg width="467" height="459" viewBox="0 0 467 459" fill="none" xmlns="http://www.w3.org/2000/svg">
<g id="pig-svg">
<path id="tail" d="M18.5005 247.199L16.8799 249.723L17.0266 249.817L17.1833 249.894L18.5005 247.199ZM37.5 263.699L34.8608 262.273L37.5 263.699ZM3.17487 278.704C1.52083 278.608 0.101678 279.87 0.00510097 281.524C-0.0914767 283.178 1.17109 284.598 2.82513 284.694L3.17487 278.704ZM58.4236 254.229C38.7613 251.428 29.9072 249.434 19.8178 244.503L17.1833 249.894C28.1709 255.264 37.8211 257.354 57.5774 260.169L58.4236 254.229ZM20.1212 244.674C16.7503 242.51 15.0369 239.967 14.4198 237.623C13.8031 235.281 14.2091 232.887 15.5315 230.809L10.4695 227.588C8.29174 231.01 7.55539 235.118 8.6176 239.151C9.67942 243.183 12.4661 246.89 16.8799 249.723L20.1212 244.674ZM15.5315 230.809C16.9234 228.622 19.435 226.532 22.4557 225.802C25.3225 225.108 28.9822 225.553 33.0666 228.993L36.9318 224.404C31.517 219.844 25.9275 218.788 21.0448 219.97C16.316 221.114 12.5779 224.275 10.4695 227.588L15.5315 230.809ZM33.0666 228.993C37.0066 232.312 39.1249 237.486 39.397 243.556C39.6691 249.623 38.0684 256.338 34.8608 262.273L40.1392 265.125C43.8175 258.32 45.716 250.534 45.391 243.287C45.0661 236.041 42.491 229.086 36.9318 224.404L33.0666 228.993ZM34.8608 262.273C28.3013 274.409 16.3051 279.471 3.17487 278.704L2.82513 284.694C17.7706 285.567 32.2477 279.727 40.1392 265.125L34.8608 262.273Z" fill="url(#paint0_linear_234_48)"/>
<path id="body" d="M422.999 236.699L420.188 237.747L420.224 237.842L420.266 237.935L422.999 236.699ZM433.999 245.699L432.925 248.5L433.006 248.531L433.089 248.558L433.999 245.699ZM463.499 268.699L460.504 268.543L460.499 268.621V268.699H463.499ZM463.499 301.699L466.495 301.857L466.499 301.778V301.699H463.499ZM449.999 318.699L450.852 321.576L450.989 321.535L451.123 321.481L449.999 318.699ZM409.499 336.199L412.072 337.743L412.162 337.593L412.233 337.434L409.499 336.199ZM358.999 385.199L357.427 382.644L357.342 382.697L357.26 382.755L358.999 385.199ZM347.999 398.199L350.941 398.788L350.977 398.607L350.991 398.423L347.999 398.199ZM326.999 454.699V457.699H327.171L327.341 457.68L326.999 454.699ZM296.999 454.699L296.729 457.687L296.864 457.699H296.999V454.699ZM286.999 444.699L289.994 444.513L289.985 444.369L289.962 444.225L286.999 444.699ZM195.499 423.699L198.465 424.151L198.479 424.063L198.487 423.974L195.499 423.699ZM179.499 455.699V458.699H179.661L179.821 458.682L179.499 455.699ZM138.999 443.699L136.068 444.335L136.099 444.478L136.144 444.618L138.999 443.699ZM130.001 402.199L127.068 402.826L127.069 402.835L130.001 402.199ZM122.001 389.199L120.216 391.61L120.322 391.689L120.436 391.758L122.001 389.199ZM58.0014 262.699L55.0089 262.487L58.0014 262.699ZM123.799 158.101C125.125 157.108 125.396 155.228 124.403 153.902C123.41 152.575 121.53 152.305 120.204 153.297L123.799 158.101ZM149.761 455.66L150.268 452.703L149.761 455.66ZM192.041 446.427L189.075 445.975L192.041 446.427ZM191.907 446.962L189.08 445.958L191.907 446.962ZM203.756 414.731L204.126 411.754L203.756 414.731ZM203.242 414.712L203.076 411.717L203.242 414.712ZM283.041 419.962L286.004 419.488L283.041 419.962ZM282.91 419.447L280.084 420.453L282.91 419.447ZM274.33 412.712L274.465 409.715L274.33 412.712ZM273.673 412.761L273.119 409.812L273.673 412.761ZM338.543 445.484L335.601 444.895L338.543 445.484ZM338.424 445.908L341.243 446.936L338.424 445.908ZM387.78 183.717C401.416 198.714 412.639 217.485 420.188 237.747L425.811 235.652C418.015 214.73 406.41 195.287 392.22 179.681L387.78 183.717ZM420.266 237.935C421.51 240.688 422.99 242.777 425.161 244.491C427.246 246.137 429.808 247.305 432.925 248.5L435.073 242.898C432.053 241.74 430.212 240.834 428.879 239.782C427.632 238.797 426.682 237.563 425.733 235.464L420.266 237.935ZM433.089 248.558C444.146 252.081 451.202 254.89 455.444 258.019C457.497 259.534 458.768 261.04 459.526 262.63C460.282 264.217 460.631 266.104 460.504 268.543L466.495 268.856C466.662 265.662 466.222 262.734 464.942 260.049C463.663 257.366 461.649 255.141 459.006 253.191C453.854 249.39 445.865 246.331 434.91 242.841L433.089 248.558ZM460.499 268.699V301.699H466.499V268.699H460.499ZM460.504 301.542C460.281 305.784 459.547 308.262 458.073 310.159C456.546 312.124 453.901 313.888 448.876 315.917L451.123 321.481C456.416 319.343 460.286 317.091 462.811 313.84C465.39 310.52 466.247 306.582 466.495 301.857L460.504 301.542ZM449.147 315.823C438.011 319.122 428.514 321.755 421.461 324.457C417.918 325.813 414.831 327.245 412.373 328.878C409.917 330.509 407.892 332.471 406.766 334.964L412.233 337.434C412.727 336.343 413.764 335.157 415.693 333.876C417.619 332.596 420.239 331.349 423.607 330.06C430.373 327.468 439.507 324.936 450.852 321.576L449.147 315.823ZM406.927 334.656C400.609 345.186 394.947 353.013 387.573 360.262C380.181 367.528 370.964 374.316 357.427 382.644L360.572 387.754C374.29 379.314 383.931 372.255 391.779 364.541C399.645 356.809 405.606 348.52 412.072 337.743L406.927 334.656ZM357.26 382.755C349.987 387.931 345.485 391.605 345.008 397.975L350.991 398.423C351.227 395.273 353.044 393.12 360.739 387.643L357.26 382.755ZM345.058 397.611L335.601 444.895L341.484 446.072L350.941 398.788L345.058 397.611ZM335.605 444.881C334.574 447.711 333.646 449.08 332.573 449.91C331.485 450.752 329.84 451.354 326.658 451.719L327.341 457.68C330.888 457.274 333.853 456.505 336.244 454.656C338.65 452.795 340.07 450.154 341.243 446.936L335.605 444.881ZM326.999 451.699H296.999V457.699H326.999V451.699ZM297.27 451.711C293.949 451.411 292.538 451.021 291.727 450.337C291.065 449.779 290.241 448.496 289.994 444.513L284.005 444.885C284.279 449.301 285.253 452.727 287.859 454.924C290.317 456.996 293.645 457.408 296.729 457.687L297.27 451.711ZM289.962 444.225L286.004 419.488L280.079 420.436L284.037 445.173L289.962 444.225ZM285.737 418.44C284.88 416.034 283.832 413.749 281.899 412.129C279.894 410.448 277.393 409.846 274.465 409.715L274.195 415.709C276.524 415.813 277.487 416.259 278.045 416.727C278.676 417.256 279.289 418.219 280.084 420.453L285.737 418.44ZM273.119 409.812C246.766 414.767 231.658 415.177 204.126 411.754L203.386 417.708C231.508 421.205 247.24 420.783 274.227 415.709L273.119 409.812ZM203.076 411.717C200.23 411.875 197.418 412.47 195.398 414.743C193.506 416.87 192.835 419.916 192.512 423.424L198.487 423.974C198.797 420.604 199.373 419.302 199.882 418.729C200.263 418.3 201.005 417.841 203.409 417.708L203.076 411.717ZM192.534 423.248L189.075 445.975L195.007 446.878L198.465 424.151L192.534 423.248ZM189.08 445.958C188.163 448.541 187.374 449.816 186.262 450.663C185.095 451.55 183.144 452.289 179.178 452.717L179.821 458.682C184.131 458.217 187.412 457.326 189.894 455.438C192.431 453.508 193.707 450.861 194.735 447.965L189.08 445.958ZM179.499 452.699H150.238V458.699H179.499V452.699ZM150.268 452.703C147.764 452.274 146.429 451.534 145.384 450.34C144.194 448.98 143.136 446.761 141.855 442.781L136.144 444.618C137.45 448.681 138.807 451.935 140.869 454.291C143.074 456.811 145.827 458.03 149.255 458.617L150.268 452.703ZM141.931 443.064L132.933 401.564L127.069 402.835L136.068 444.335L141.931 443.064ZM132.935 401.573C132.157 397.928 131.252 395.005 129.766 392.565C128.232 390.048 126.212 388.258 123.567 386.64L120.436 391.758C122.511 393.028 123.734 394.197 124.642 395.687C125.597 397.255 126.333 399.387 127.068 402.826L132.935 401.573ZM123.787 386.788C84.5405 357.719 57.1782 316.818 60.9939 262.911L55.0089 262.487C51.0065 319.032 79.8623 361.72 120.216 391.61L123.787 386.788ZM60.9939 262.911C62.6917 238.924 67.3812 221.086 77.0133 205.144C86.6755 189.152 101.46 174.82 123.799 158.101L120.204 153.297C97.6231 170.197 82.1262 185.08 71.8779 202.041C61.5994 219.053 56.7488 237.906 55.0089 262.487L60.9939 262.911ZM150.238 452.699C150.238 452.699 150.239 452.699 150.243 452.699C150.247 452.7 150.255 452.701 150.268 452.703L149.255 458.617C149.592 458.674 149.924 458.699 150.238 458.699V452.699ZM189.075 445.975C189.075 445.975 189.075 445.974 189.076 445.972C189.076 445.97 189.077 445.966 189.08 445.958L194.735 447.965C194.862 447.605 194.952 447.239 195.007 446.878L189.075 445.975ZM204.126 411.754C203.797 411.713 203.441 411.697 203.076 411.717L203.409 417.708C203.401 417.708 203.395 417.708 203.391 417.708C203.387 417.708 203.385 417.708 203.384 417.708C203.383 417.708 203.384 417.708 203.386 417.708L204.126 411.754ZM286.004 419.488C285.948 419.14 285.86 418.787 285.737 418.44L280.084 420.453C280.081 420.445 280.08 420.44 280.08 420.438C280.079 420.437 280.079 420.436 280.079 420.436L286.004 419.488ZM274.465 409.715C273.993 409.694 273.537 409.734 273.119 409.812L274.227 415.709C274.23 415.709 274.231 415.709 274.229 415.709C274.227 415.709 274.216 415.71 274.195 415.709L274.465 409.715ZM335.601 444.895C335.601 444.894 335.601 444.894 335.601 444.893C335.602 444.891 335.603 444.888 335.605 444.881L341.243 446.936C341.347 446.649 341.427 446.359 341.484 446.072L335.601 444.895Z" fill="#2A2B2D"/>
<path id="ear" d="M287 133.699L310.5 140.698M310.5 140.698C342.208 125.131 358.751 118.693 384 115.198C390.194 114.7 393.217 128.807 393.481 130.103C393.495 130.174 393.505 130.236 393.513 130.307C397.538 163.864 392.722 178.434 382.089 202.994C382.03 203.129 381.96 203.264 381.882 203.389C375.103 214.242 369.621 217.176 357.5 217.699C333.504 217.593 319.953 208.471 310.5 189.199C300.636 169.089 309.569 138.048 310.5 140.698Z" stroke="#2A2B2D" stroke-width="6"/>
<path id="eye" d="M350.5 239.699C351.637 252.501 354 257.699 364 259.699C374 261.699 383.252 254.972 384 239.699" stroke="url(#paint1_linear_234_48)" stroke-width="6" stroke-linecap="round"/>
<g id="coin">
<path id="coin_2" d="M297.998 93.1984C293.525 134.642 279.21 150.921 242.998 173.698M179.501 172.699C107.5 138.699 106.5 48.1984 174.498 10.1984C217.188 -8.38121 271 10.1988 290.5 52.1984" stroke="url(#paint2_linear_234_48)" stroke-width="6" stroke-linecap="round"/>
<path id="Vector 57" d="M212 46L212 38" stroke="#1C6DE7" stroke-width="6" stroke-linecap="round"/>
<path id="Vector 59" d="M212 126L212 118" stroke="#0242AA" stroke-width="6" stroke-linecap="round"/>
<path id="Vector 58" d="M233.002 51.1999C223.502 44.1994 203.5 44.1986 196.002 51.1999C188.834 57.892 189.502 73.1996 201.502 75.6991C219.777 81.5802 224 83.6992 229.5 89.6992C235 95.6992 233.002 111.699 221 116.199C209.418 120.542 197.438 116.201 188 106.699" stroke="url(#paint3_linear_234_48)" stroke-width="6" stroke-linecap="round"/>
</g>
<path id="hole" d="M149.5 180.698C197.144 166.61 223.856 167.335 271.5 180.698" stroke="#2A2B2D" stroke-width="6" stroke-linecap="round"/>
</g>
<defs>
<linearGradient id="paint0_linear_234_48" x1="49.4754" y1="230.523" x2="10.3599" y2="272.373" gradientUnits="userSpaceOnUse">
<stop stop-color="#1B6CE7"/>
<stop offset="1" stop-color="#003FA6"/>
</linearGradient>
<linearGradient id="paint1_linear_234_48" x1="378.807" y1="242.446" x2="367.706" y2="263.517" gradientUnits="userSpaceOnUse">
<stop stop-color="#1B6CE7"/>
<stop offset="1" stop-color="#003FA6"/>
</linearGradient>
<linearGradient id="paint2_linear_234_48" x1="271.102" y1="26.0443" x2="159.568" y2="156.733" gradientUnits="userSpaceOnUse">
<stop stop-color="#1B6CE7"/>
<stop offset="1" stop-color="#003FA6"/>
</linearGradient>
<linearGradient id="paint3_linear_234_48" x1="226.026" y1="55.6609" x2="180.867" y2="88.2237" gradientUnits="userSpaceOnUse">
<stop stop-color="#1B6CE7"/>
<stop offset="1" stop-color="#003FA6"/>
</linearGradient>
</defs>
</svg>
