<svg width="47" height="47" viewBox="0 0 47 47" fill="none" xmlns="http://www.w3.org/2000/svg">
<g id="arrow-wrapper">
<path id="arrow-1" d="M13.5007 14.3511C20.4173 6.01771 37.7507 8.85097 38.9173 22.5178C39.0007 23.3511 40.584 23.5177 40.584 22.4344C40.584 7.01754 22.7528 -1.39803 9.91732 10.3512C9.69751 10.5421 9.5799 10.6047 9.41732 10.4345L7.91732 8.93439C7.33398 8.3512 7.16732 8.83357 7.16732 9.3335L6.83398 15.851C6.83401 16.4344 7.25056 16.7677 7.66732 16.7677L14.7507 16.7677C15.2507 16.6844 15.4173 16.2677 15.084 15.9344L13.5007 14.3511Z" fill="white" stroke="white" stroke-linecap="round"/>
<path id="arrow-2" d="M33.2493 32.2783C26.3327 40.6117 8.99935 37.7784 7.83268 24.1116C7.74935 23.2783 6.16602 23.1117 6.16602 24.195C6.16602 39.6119 23.9972 48.0274 36.8327 36.2782C37.0525 36.0873 37.1701 36.0247 37.3327 36.1949L38.8327 37.695C39.416 38.2782 39.666 37.8333 39.666 37.3333L39.916 30.7784C39.916 30.195 39.4994 29.8617 39.0827 29.8617L31.9993 29.8617C31.4993 29.945 31.3327 30.3617 31.666 30.695L33.2493 32.2783Z" fill="white" stroke="white" stroke-linecap="round"/>
</g>
</svg>
