<svg width="330" height="330" viewBox="0 0 330 330" fill="none" xmlns="http://www.w3.org/2000/svg">
<g id="transfer-icon" filter="url(#filter0_d_120_81)">
<circle id="Ellipse 465" cx="175" cy="155" r="150" fill="white"/>
<path id="arrow-1" d="M116 101.106C157.5 51.1053 261.5 68.1048 268.5 150.106C269 155.106 278.5 156.105 278.5 149.605C278.5 57.1043 171.513 6.61086 94.5 77.1063C93.1812 78.2514 92.4755 78.6271 91.5 77.6063L82.5 68.6054C79 65.1063 78 68.0004 78 71L76 110.105C76.0002 113.605 78.4994 115.605 81 115.605L123.5 115.605C126.5 115.105 127.5 112.605 125.5 110.605L116 101.106Z" fill="#003FA6" stroke="#003FA6" stroke-linecap="round"/>
<path id="arrow-2" d="M234.5 208.67C193 258.67 89 241.671 82 159.67C81.5 154.67 72 153.67 72 160.17C72 252.671 178.987 303.165 256 232.669C257.319 231.524 258.025 231.148 259 232.169L268 241.17C271.5 244.669 273 242 273 239L274.5 199.67C274.5 196.17 272.001 194.17 269.5 194.17L227 194.17C224 194.67 223 197.17 225 199.17L234.5 208.67Z" fill="#003FA6" stroke="#003FA6" stroke-linecap="round"/>
<g id="money">
<path d="M168.5 104.605L167 110.605V111.605L164 112.605L156.5 115.605L149 122.105L144.5 132.605L145.5 142.605L150 150.105L157 156.105L167.5 160.105L175.5 163.105L180.5 166.605L184 171.605L184.5 176.105L182.5 179.605L179 181.605L173 183.105H164.5L155.5 181.105L149 181.605L146 184.605V189.105L150 193.605L158 197.105L165.5 199.105L167 200.105L168 205.605L170 210.605L174 212.105L178.5 210.105L181 203.605L182 198.105L186.5 197.105L194.5 192.605L200 187.105L204.5 179.105L205.5 173.105L204 164.605L200.5 158.605L194 152.105L184.5 147.105L178.5 145.105L172.5 142.605L167.5 138.605L165.5 135.105L165 132.605L166 129.605L169 127.105L174.5 125.605L180.5 125.105L187 126.105L194 127.105L198.5 126.105L200.5 123.105L199.5 118.105L195.5 114.605L191 112.105L182 109.105L181.5 106.605L181 103.605L178.5 99.1055L175.5 98.1055L172 98.6055L170 101.105L168.5 104.605Z" fill="#003FA6"/>
<path d="M182.29 109.103C182.29 109.103 200.79 113.103 200.79 121.603C200.79 130.103 189.29 126.603 182.29 125.603C160.79 123.603 158.79 139.603 182.291 145.604C218.203 158.805 208.79 191.603 182.29 198.603M182.29 109.105C181.151 109.222 182.79 97.603 174.79 97.6055C166.79 97.6079 168.68 110.864 165.79 111.605M165.79 199.602C169.294 201.687 165.29 212.602 173.79 212.602C182.29 212.602 181.346 198.849 182.29 198.602M165.79 199.603C165.79 199.603 144.179 196.103 145.29 186.103C146.401 176.103 162.29 182.603 165.79 182.603C189.79 185.103 190.79 166.603 165.79 160.103C134.29 151.603 139.291 116.603 165.791 111.603M167 110.605L168.5 104.605L170 101.105L172 98.6055L175.5 98.1055L178.5 99.1055L181 103.605L181.5 106.605L182 109.105L191 112.105L195.5 114.605L199.5 118.105L200.5 123.105L198.5 126.105L194 127.105L187 126.105L180.5 125.105L174.5 125.605L169 127.105L166 129.605L165 132.605L165.5 135.105L167.5 138.605L172.5 142.605L178.5 145.105L184.5 147.105L194 152.105L200.5 158.605L204 164.605L205.5 173.105L204.5 179.105L200 187.105L194.5 192.605L186.5 197.105L182 198.105L181 203.605L178.5 210.105L174 212.105L170 210.605L168 205.605L167 200.105L165.5 199.105L158 197.105L150 193.605L146 189.105V184.605L149 181.605L155.5 181.105L164.5 183.105H173L179 181.605L182.5 179.605L184.5 176.105L184 171.605L180.5 166.605L175.5 163.105L167.5 160.105L157 156.105L150 150.105L145.5 142.605L144.5 132.605L149 122.105L156.5 115.605L164 112.605L167 111.605V110.605Z" stroke="#003FA6" stroke-linecap="round"/>
</g>
</g>
<defs>
<filter id="filter0_d_120_81" x="0" y="0" width="330" height="330" filterUnits="userSpaceOnUse" color-interpolation-filters="sRGB">
<feFlood flood-opacity="0" result="BackgroundImageFix"/>
<feColorMatrix in="SourceAlpha" type="matrix" values="0 0 0 0 0 0 0 0 0 0 0 0 0 0 0 0 0 0 127 0" result="hardAlpha"/>
<feOffset dx="-10" dy="10"/>
<feGaussianBlur stdDeviation="7.5"/>
<feComposite in2="hardAlpha" operator="out"/>
<feColorMatrix type="matrix" values="0 0 0 0 0 0 0 0 0 0 0 0 0 0 0 0 0 0 0.25 0"/>
<feBlend mode="normal" in2="BackgroundImageFix" result="effect1_dropShadow_120_81"/>
<feBlend mode="normal" in="SourceGraphic" in2="effect1_dropShadow_120_81" result="shape"/>
</filter>
</defs>
</svg>
