<svg width="50" height="50" viewBox="0 0 50 50" fill="none" xmlns="http://www.w3.org/2000/svg">
<g id="transfer-icon">
<path id="circle" d="M50 25C50 11.1929 38.8071 0 25 0C11.1929 0 0 11.1929 0 25C0 38.8071 11.1929 50 25 50C38.8071 50 50 38.8071 50 25Z" fill="url(#paint0_linear_120_81)"/>
<g id="arrow-wrapper">
<path id="arrow-1" d="M15.1686 16.0176C22.0853 7.68421 39.4186 10.5175 40.5853 24.1843C40.6686 25.0176 42.252 25.1842 42.252 24.1009C42.252 8.68405 24.4208 0.268477 11.5853 12.0177C11.3655 12.2086 11.2479 12.2712 11.0853 12.101L9.58529 10.6009C9.00195 10.0177 8.83529 10.5001 8.83529 11L8.50195 17.5175C8.50198 18.1009 8.91853 18.4342 9.33529 18.4342L16.4186 18.4342C16.9186 18.3509 17.0853 17.9342 16.752 17.6009L15.1686 16.0176Z" fill="white" stroke="white" stroke-linecap="round"/>
<path id="arrow-2" d="M34.9173 33.9448C28.0007 42.2782 10.6673 39.4449 9.50065 25.7781C9.41732 24.9448 7.83398 24.7782 7.83398 25.8615C7.83398 41.2784 25.6652 49.6939 38.5007 37.9447C38.7205 37.7538 38.8381 37.6912 39.0007 37.8614L40.5007 39.3615C41.084 39.9447 41.334 39.4998 41.334 38.9998L41.584 32.4449C41.584 31.8615 41.1674 31.5282 40.7507 31.5282L33.6673 31.5282C33.1673 31.6115 33.0006 32.0282 33.334 32.3615L34.9173 33.9448Z" fill="white" stroke="white" stroke-linecap="round"/>
</g>
<g id="money">
<path d="M23.9173 16.6007L23.6673 17.6007V17.7674L23.1673 17.9341L21.9173 18.4341L20.6673 19.5174L19.9173 21.2674L20.084 22.9341L20.834 24.1841L22.0007 25.1841L23.7507 25.8507L25.084 26.3507L25.9173 26.9341L26.5007 27.7674L26.584 28.5174L26.2507 29.1007L25.6673 29.4341L24.6673 29.6841H23.2507L21.7507 29.3507L20.6673 29.4341L20.1673 29.9341V30.6841L20.834 31.4341L22.1673 32.0174L23.4173 32.3507L23.6673 32.5174L23.834 33.4341L24.1673 34.2674L24.834 34.5174L25.584 34.1841L26.0007 33.1007L26.1673 32.1841L26.9173 32.0174L28.2507 31.2674L29.1673 30.3507L29.9173 29.0174L30.084 28.0174L29.834 26.6007L29.2507 25.6007L28.1673 24.5174L26.584 23.6841L25.584 23.3507L24.584 22.9341L23.7507 22.2674L23.4173 21.6841L23.334 21.2674L23.5007 20.7674L24.0007 20.3507L24.9173 20.1007L25.9173 20.0174L27.0007 20.1841L28.1673 20.3507L28.9173 20.1841L29.2507 19.6841L29.084 18.8507L28.4173 18.2674L27.6673 17.8507L26.1673 17.3507L26.084 16.9341L26.0007 16.4341L25.584 15.6841L25.084 15.5174L24.5007 15.6007L24.1673 16.0174L23.9173 16.6007Z" fill="white"/>
<path d="M26.2157 17.3503C26.2157 17.3503 29.299 18.017 29.299 19.4337C29.299 20.8503 27.3824 20.267 26.2157 20.1003C22.6323 19.767 22.299 22.4337 26.2158 23.4338C32.2011 25.634 30.6324 31.1003 26.2157 32.267M26.2157 17.3508C26.0259 17.3702 26.299 15.4337 24.9657 15.4341C23.6324 15.4345 23.9473 17.6439 23.4657 17.7674M23.4657 32.4334C24.0496 32.781 23.3824 34.6001 24.799 34.6001C26.2157 34.6001 26.0583 32.308 26.2157 32.2668M23.4657 32.4336C23.4657 32.4336 19.8638 31.8503 20.049 30.1836C20.2342 28.517 22.8823 29.6003 23.4657 29.6003C27.4657 30.017 27.6324 26.9337 23.4657 25.8503C18.2156 24.4337 19.0491 18.6003 23.4658 17.767M23.6673 17.6007L23.9173 16.6007L24.1673 16.0174L24.5007 15.6007L25.084 15.5174L25.584 15.6841L26.0007 16.4341L26.084 16.9341L26.1673 17.3507L27.6673 17.8507L28.4173 18.2674L29.084 18.8507L29.2507 19.6841L28.9173 20.1841L28.1673 20.3507L27.0007 20.1841L25.9173 20.0174L24.9173 20.1007L24.0007 20.3507L23.5007 20.7674L23.334 21.2674L23.4173 21.6841L23.7507 22.2674L24.584 22.9341L25.584 23.3507L26.584 23.6841L28.1673 24.5174L29.2507 25.6007L29.834 26.6007L30.084 28.0174L29.9173 29.0174L29.1673 30.3507L28.2507 31.2674L26.9173 32.0174L26.1673 32.1841L26.0007 33.1007L25.584 34.1841L24.834 34.5174L24.1673 34.2674L23.834 33.4341L23.6673 32.5174L23.4173 32.3507L22.1673 32.0174L20.834 31.4341L20.1673 30.6841V29.9341L20.6673 29.4341L21.7507 29.3507L23.2507 29.6841H24.6673L25.6673 29.4341L26.2507 29.1007L26.584 28.5174L26.5007 27.7674L25.9173 26.9341L25.084 26.3507L23.7507 25.8507L22.0007 25.1841L20.834 24.1841L20.084 22.9341L19.9173 21.2674L20.6673 19.5174L21.9173 18.4341L23.1673 17.9341L23.6673 17.7674V17.6007Z" stroke="white" stroke-linecap="round"/>
</g>
</g>
<defs>
<linearGradient id="paint0_linear_120_81" x1="26.8333" y1="8.83333" x2="1.9137" y2="32.2929" gradientUnits="userSpaceOnUse">
<stop stop-color="#1B6CE7"/>
<stop offset="0.0001" stop-color="#1A6BE6"/>
<stop offset="1" stop-color="#003FA6"/>
</linearGradient>
</defs>
</svg>
