<svg viewBox="0 0 1560 572" fill="none" xmlns="http://www.w3.org/2000/svg">
<g id="404-error">
<g id="coin" clip-path="url(#clip0_356_142)">
<g id="Clip path group">
<mask id="mask0_356_142" style="mask-type:luminance" maskUnits="userSpaceOnUse" x="419" y="-75" width="722" height="722">
<g id="clip0_183_2956">
<path id="Vector" d="M812.558 -74.5725L419.43 253.444L747.443 646.568L1140.57 318.551L812.558 -74.5725Z" fill="white"/>
</g>
</mask>
<g mask="url(#mask0_356_142)">
<g id="coin1">
<path id="Vector_2" d="M615.994 89.4355C670.268 44.1507 737.772 25.1513 803.021 31.0419C868.268 36.9302 931.278 67.7144 976.566 121.991C1021.85 176.265 1040.85 243.77 1034.96 309.019C1029.06 374.266 998.28 437.275 944.006 482.559C889.733 527.844 822.229 546.844 756.982 540.956C691.732 535.065 628.722 504.281 583.438 450.007C538.15 395.73 519.15 328.225 525.044 262.979C530.933 197.733 561.717 134.723 615.994 89.4355Z" fill="#ECCA43"/>
<path id="Vector_2_2" d="M940.799 478.716C1047.23 389.909 1061.53 231.633 972.719 125.198C883.912 18.7628 725.637 4.47275 619.201 93.2799C512.766 182.087 498.474 340.362 587.281 446.797C676.088 553.232 834.364 567.523 940.799 478.716Z" fill="#F7E259"/>
<path id="Vector_3" fill-rule="evenodd" clip-rule="evenodd" d="M947.743 99.1545C957.936 108.008 964.069 114.835 972.718 125.202C1061.52 231.633 1047.23 389.909 940.799 478.715C834.364 567.521 676.086 553.231 587.282 446.8C573.279 430.016 571.772 425.88 566.133 417.561L758.09 257.397L947.743 99.1545Z" fill="#F8D548"/>
<path id="Vector_4" d="M653.743 134.677C695.523 99.8167 747.491 85.1881 797.724 89.7229C847.954 94.2561 896.461 117.957 931.321 159.737C966.182 201.518 980.811 253.485 976.275 303.717C971.739 353.95 948.039 402.458 906.259 437.318C864.478 472.179 812.51 486.807 762.28 482.27C712.048 477.734 663.541 454.034 628.681 412.253C593.82 370.472 579.191 318.505 583.729 268.275C588.262 218.045 611.962 169.538 653.743 134.677Z" fill="#D7925B"/>
<path id="Vector_5" d="M903.051 433.472C984.5 365.514 995.435 244.395 927.477 162.946C859.518 81.4974 738.399 70.5618 656.951 138.521C575.502 206.48 564.566 327.598 632.525 409.047C700.484 490.496 821.602 501.431 903.051 433.472Z" fill="#EDA140"/>
<path id="Vector_6" d="M826.723 373.358C824.461 374.989 822.973 375.864 821.19 376.921L811.343 382.998L805.155 386.617C803.136 387.771 801.081 388.884 799.025 389.947C797.013 390.991 794.977 391.992 792.92 392.945L790.39 394.114L762.048 360.146L772.306 352.913L779.707 347.447L787.382 341.6L795.073 335.579L802.477 329.641L809.274 324.026C811.332 322.309 813.075 320.732 814.501 319.307C815.971 317.842 817.216 316.434 818.239 315.096C819.17 313.879 819.888 312.701 820.396 311.58C820.832 310.62 821.089 309.692 821.167 308.824C821.236 308.092 821.141 307.354 820.891 306.663C820.597 305.848 820.086 305.003 819.371 304.146L817.498 301.901C816.003 300.11 814.337 299.282 812.513 299.428C811.379 299.516 810.267 299.791 809.222 300.24C808.142 300.689 807.072 301.364 806.014 302.247L796.102 310.517C788.636 316.747 781.314 321.435 774.161 324.571C766.867 327.769 759.767 329.334 752.875 329.277C745.813 329.198 738.845 327.115 731.98 323.015C725.296 319.026 718.702 313.14 712.214 305.364L707.064 299.193C701.057 291.993 696.868 284.735 694.495 277.433C692.084 270.008 691.573 262.569 692.964 255.142C693.978 249.771 695.218 245.03 697.43 240.285C699.298 236.279 701.84 232.324 705.498 228.069L692.925 213.001L724.251 186.864L736.316 201.324C741.843 197.414 746.464 194.786 752.299 191.472L755.315 189.735C757.837 188.289 760.383 186.884 762.927 185.524C765.31 184.244 767.633 183.047 769.869 181.945L772.436 180.685L800.815 214.698L797.57 216.955C794.331 219.209 791.122 221.505 787.942 223.84C784.376 226.455 780.835 229.104 777.32 231.788C773.804 234.469 770.312 237.186 766.849 239.935C763.879 242.295 760.766 244.831 757.516 247.543C755.807 248.968 754.273 250.35 752.922 251.671C751.506 253.053 750.271 254.379 749.229 255.628C748.282 256.758 747.547 257.896 747.031 259.001C746.578 259.981 746.301 260.965 746.213 261.935C746.14 262.749 746.268 263.612 746.601 264.477C746.992 265.494 747.66 266.576 748.603 267.706L750.163 269.576C751.167 270.779 752.191 271.652 753.217 272.179C754.154 272.665 755.198 272.911 756.254 272.894C757.401 272.88 758.684 272.545 760.077 271.896C761.631 271.167 763.338 270.039 765.171 268.509L777.515 258.21C782.05 254.426 786.627 251.36 791.217 249.012C795.862 246.641 800.504 245.043 805.118 244.214C814.385 242.552 823.187 243.475 831.498 246.981C835.59 248.706 839.491 250.976 843.171 253.791C846.835 256.591 850.26 259.889 853.422 263.678L858.571 269.849C863.652 275.939 867.637 281.823 870.521 287.472C873.462 293.234 875.226 298.763 875.823 304.034C876.419 309.311 876.071 314.452 874.789 319.423C873.508 324.389 871.301 329.185 868.185 333.774L867.38 334.942C864.344 339.426 862.148 342.674 857.92 347.067L871.526 363.373L840.2 389.51L826.723 373.358Z" fill="#C26A34"/>
<path id="Vector_7" d="M817.974 372.568C815.712 374.199 814.223 375.074 812.441 376.132L802.594 382.207L796.405 385.827C794.386 386.98 792.343 388.09 790.277 389.157C788.264 390.202 786.228 391.201 784.171 392.156L781.64 393.324L753.298 359.356L763.558 352.124L770.959 346.657L778.633 340.811L786.324 334.789L793.727 328.851L800.525 323.235C802.582 321.519 804.326 319.941 805.752 318.518C807.221 317.052 808.467 315.645 809.49 314.305C810.421 313.088 811.138 311.911 811.646 310.79C812.083 309.829 812.339 308.902 812.418 308.033C812.487 307.301 812.392 306.563 812.142 305.873C811.848 305.059 811.338 304.213 810.622 303.356L808.749 301.111C807.255 299.32 805.587 298.492 803.764 298.637C802.63 298.726 801.517 299.001 800.472 299.45C799.393 299.899 798.322 300.574 797.264 301.457L787.352 309.727C779.886 315.957 772.565 320.644 765.412 323.782C758.118 326.98 751.018 328.545 744.125 328.487C737.064 328.409 730.096 326.324 723.231 322.224C716.547 318.236 709.953 312.35 703.465 304.575L698.316 298.403C692.308 291.202 688.119 283.945 685.745 276.644C683.335 269.219 682.824 261.778 684.215 254.353C685.229 248.981 686.468 244.24 688.68 239.495C690.55 235.489 693.091 231.534 696.749 227.279L684.176 212.211L715.502 186.074L727.566 200.534C733.095 196.623 737.714 193.996 743.549 190.682L746.566 188.945C749.088 187.498 751.634 186.093 754.179 184.734C756.561 183.454 758.885 182.257 761.12 181.155L763.686 179.895L792.066 213.909L788.821 216.164C785.583 218.42 782.373 220.715 779.192 223.05C775.71 225.605 772.161 228.254 768.571 230.999C764.821 233.865 761.311 236.587 758.099 239.145C755.13 241.505 752.018 244.041 748.767 246.753C747.058 248.179 745.523 249.56 744.174 250.881C742.876 252.137 741.643 253.459 740.479 254.839C739.533 255.969 738.798 257.105 738.282 258.21C737.829 259.19 737.552 260.174 737.464 261.145C737.391 261.959 737.519 262.822 737.851 263.687C738.243 264.705 738.911 265.785 739.854 266.915L741.415 268.786C742.418 269.988 743.442 270.862 744.467 271.389C745.405 271.876 746.449 272.121 747.506 272.104C748.652 272.089 749.934 271.755 751.328 271.106C752.881 270.377 754.588 269.249 756.422 267.718L768.765 257.42C773.301 253.635 777.877 250.57 782.468 248.222C787.113 245.852 791.754 244.253 796.369 243.423C805.635 241.762 814.438 242.685 822.748 246.191C826.84 247.916 830.741 250.186 834.421 253.001C838.086 255.802 841.511 259.098 844.673 262.888L849.822 269.059C854.903 275.149 858.887 281.033 861.772 286.681C864.713 292.444 866.478 297.973 867.074 303.245C867.67 308.522 867.321 313.662 866.039 318.633C864.759 323.599 862.552 328.395 859.436 332.985L858.632 334.152C855.595 338.637 853.4 341.884 849.171 346.277L862.777 362.584L831.452 388.721L817.974 372.568Z" fill="#F3DC6B"/>
</g>
</g>
</g>
</g>
<g id="4">
<path id="Subtract" fill-rule="evenodd" clip-rule="evenodd" d="M371 333.5V0H209L0 344V434.741H247.5V571.5H371V435H436.753V333.812H371V333.5ZM127 334C182.682 244.508 212.352 195.001 249.5 113.5H253C248.238 189.715 247.016 238.158 247.5 334H127Z" fill="#242526"/>
</g>
<g id="4_2">
<path id="Subtract_2" fill-rule="evenodd" clip-rule="evenodd" d="M1494 333.5V0H1332L1123 344V434.741H1370.5V571.5H1494V435H1559.75V333.812H1494V333.5ZM1250 334C1305.68 244.508 1335.35 195.001 1372.5 113.5H1376C1371.24 189.715 1370.02 238.158 1370.5 334H1250Z" fill="#242526"/>
</g>
</g>
<defs>
<clipPath id="clip0_356_142">
<rect width="512" height="512" fill="white" transform="translate(524 30)"/>
</clipPath>
</defs>
</svg>
