<svg width="571" height="472" viewBox="0 0 571 472" fill="none" xmlns="http://www.w3.org/2000/svg">
<g filter="url(#filter0_f_376_166)">
<circle cx="251.5" cy="212.5" r="121.5" fill="#B9D0F1"/>
</g>
<path d="M209.998 265.499C208.498 266.998 196.495 279.998 194.998 280.999C193.5 282 192.052 281.382 193.998 279C199.311 273.868 202.395 270.635 207.998 264.499C210.498 262.5 211.498 264 209.998 265.499Z" fill="#1E1D1D" stroke="#0B0A0A"/>
<path d="M204.264 253.359C202.143 253.36 184.464 254.076 182.697 253.726C180.93 253.376 180.343 251.916 183.402 251.605C190.789 251.729 195.255 251.621 203.555 251.238C206.737 251.591 206.384 253.359 204.264 253.359Z" fill="#1E1D1D" stroke="#0B0A0A"/>
<path d="M223.656 270.911C223.596 273.03 223.808 290.723 223.408 292.479C223.008 294.235 221.531 294.781 221.308 291.714C221.642 284.334 221.661 279.867 221.516 271.558C221.958 268.388 223.716 268.791 223.656 270.911Z" fill="#1E1D1D" stroke="#0B0A0A"/>
<path d="M332.245 182.571C330.125 182.529 312.435 182.887 310.675 182.501C308.916 182.116 308.358 180.644 311.423 180.395C318.806 180.668 323.273 180.651 331.58 180.436C334.753 180.853 334.365 182.614 332.245 182.571Z" fill="#1E1D1D" stroke="#0B0A0A"/>
<path d="M322.132 153.17C320.614 154.65 308.454 167.503 306.944 168.486C305.435 169.468 303.995 168.833 305.969 166.475C311.345 161.408 314.467 158.213 320.145 152.146C322.669 150.177 323.651 151.689 322.132 153.17Z" fill="#1E1D1D" stroke="#0B0A0A"/>
<path d="M293.486 141.897C293.461 144.017 293.964 161.704 293.593 163.466C293.222 165.229 291.755 165.799 291.481 162.736C291.693 155.351 291.639 150.884 291.357 142.58C291.747 139.403 293.511 139.776 293.486 141.897Z" fill="#1E1D1D" stroke="#0B0A0A"/>
<path d="M253.002 228.501C252.002 227.001 243.66 218.47 237.002 212.001C236.566 211.256 235.094 213.168 232.502 216.501C231.235 217.586 231.394 218.105 232.002 219.001C234.834 222.321 239.531 226.63 247.502 234.001C249.002 235.501 254.002 230.001 253.002 228.501Z" fill="#1C2341" stroke="#101630"/>
<path d="M274.959 207.16C273.959 205.66 265.617 197.129 258.959 190.66C258.523 189.916 257.051 191.827 254.459 195.16C253.192 196.245 253.351 196.764 253.959 197.66C256.791 200.98 261.488 205.289 269.459 212.66C270.959 214.16 275.959 208.66 274.959 207.16Z" fill="#1C2341" stroke="#101630"/>
<path fill-rule="evenodd" clip-rule="evenodd" d="M184.953 147.965C186.224 148.86 187.587 149.821 188.999 151C190.756 150.011 191.6 149.215 193 147.5C187.758 141.48 185.294 139.238 181.5 136.5C172.256 127.647 168.43 123.757 162.5 117.5C145.618 101.96 137.899 93.7977 127 80C122.679 75.4085 119.203 69.5547 117.567 63.1445C120.077 65.4147 122.857 67.8302 126 70.5C140.823 81.1712 148.757 83.6822 162.5 84C175.996 83.4995 181.2 78.4758 190.466 69.5327L190.5 69.5C195.156 63.9983 196.673 60.0987 196.5 51C196.249 41.7237 193.897 37.9495 188.5 32.0001C171 14.9999 156.997 12.5001 141.499 19.5001C128.222 25.4965 114.944 38.4646 112.667 52.1177C111.684 50.9295 110.817 49.7446 110 48.5C86.7297 19.9322 81.1794 13.3018 80 12.5C69.2317 3.03437 65.2731 1.02138 60.5 1C55.1307 1.85601 50.6576 6.66373 43.8232 14.0093C43.0783 14.81 42.3053 15.6408 41.5 16.5C34.2023 22.9226 29.4682 23.6473 20.5 22.5C13.8349 21.8297 9.32026 19.4544 1 14.5V19.5C14.3465 27.5366 21.8182 28.5642 35 25.5C41.6237 23.4595 46.2687 18.5536 55 8.00001C58.2104 4.90444 60.1021 3.77644 64 5.50001C73.8054 11.0343 81.6222 20.2065 96.5 39C101.614 46.6496 106.179 52.2159 112.425 58.3234C112.446 58.549 112.471 58.7746 112.499 59.0001C114.199 72.606 120.849 80.1803 130.583 91.2683C132.296 93.2195 134.105 95.2794 135.999 97.5001C149.344 111.006 159.1 120.714 177.499 139C178.723 143.576 181.498 145.531 184.953 147.965ZM116.5 55.0008C117.144 48.4055 117.605 45.548 119 45.0008C126.083 36.3646 129.872 32.3835 136 27.5008C141.117 24.0014 144.897 22.4036 154 20.5008C160.786 19.3437 163.917 19.8635 169 22.5008C172.016 24.0071 174.986 26.4086 183 33.5C188.609 39.088 190.874 42.4142 192 49C192.388 52.5544 191.937 55.5348 189 64C184.026 72.9165 179.43 76.5356 166.5 79.5C155.319 79.9235 149.457 78.9705 140 74C133.477 70.2771 129.609 67.6881 119 58.5C117.01 56.8793 116.213 56.053 116.5 55.0008Z" fill="#23294D"/>
<path d="M188.999 151L188.678 151.384L188.943 151.605L189.244 151.436L188.999 151ZM184.953 147.965L185.241 147.556L185.241 147.556L184.953 147.965ZM193 147.5L193.387 147.816L193.654 147.49L193.377 147.172L193 147.5ZM181.5 136.5L181.154 136.861L181.179 136.885L181.207 136.905L181.5 136.5ZM162.5 117.5L162.863 117.156L162.851 117.144L162.839 117.132L162.5 117.5ZM127 80L127.392 79.6901L127.379 79.6731L127.364 79.6573L127 80ZM117.567 63.1445L117.902 62.7736L116.672 61.6613L117.082 63.2681L117.567 63.1445ZM126 70.5L125.676 70.8811L125.692 70.8941L125.708 70.9058L126 70.5ZM162.5 84L162.488 84.4999L162.503 84.5002L162.519 84.4997L162.5 84ZM190.466 69.5327L190.119 69.1729L190.119 69.1729L190.466 69.5327ZM190.5 69.5L190.847 69.8598L190.865 69.8423L190.882 69.823L190.5 69.5ZM196.5 51L197 50.9905L197 50.9865L196.5 51ZM188.5 32.0001L188.871 31.6641L188.86 31.6524L188.849 31.6414L188.5 32.0001ZM141.499 19.5001L141.293 19.0444L141.293 19.0444L141.499 19.5001ZM112.667 52.1177L112.281 52.4363L112.979 53.281L113.16 52.2L112.667 52.1177ZM110 48.5L110.418 48.2257L110.404 48.2042L110.388 48.1842L110 48.5ZM80 12.5L79.6699 12.8755L79.6932 12.896L79.7189 12.9135L80 12.5ZM60.5 1L60.5022 0.500005L60.4615 0.499823L60.4213 0.506236L60.5 1ZM43.8232 14.0093L43.4572 13.6688L43.4572 13.6688L43.8232 14.0093ZM41.5 16.5L41.8303 16.8753L41.8484 16.8595L41.8648 16.8419L41.5 16.5ZM20.5 22.5L20.5635 22.0039L20.55 22.0025L20.5 22.5ZM1 14.5L1.25581 14.0704L0.5 13.6203V14.5H1ZM1 19.5H0.5V19.7826L0.742075 19.9283L1 19.5ZM35 25.5L35.1132 25.987L35.1304 25.983L35.1472 25.9778L35 25.5ZM55 8.00001L54.6529 7.64008L54.6327 7.65961L54.6148 7.68129L55 8.00001ZM64 5.50001L64.2458 5.06458L64.2245 5.05259L64.2022 5.04272L64 5.50001ZM96.5 39L96.9157 38.7221L96.9045 38.7054L96.892 38.6897L96.5 39ZM112.425 58.3234L112.923 58.2765L112.905 58.094L112.774 57.9659L112.425 58.3234ZM112.499 59.0001L112.995 58.9381L112.995 58.9381L112.499 59.0001ZM130.583 91.2683L130.959 90.9384L130.959 90.9384L130.583 91.2683ZM135.999 97.5001L135.618 97.8246L135.63 97.8385L135.643 97.8515L135.999 97.5001ZM177.499 139L177.982 138.871L177.947 138.741L177.851 138.645L177.499 139ZM119 45.0008L119.183 45.4663L119.304 45.4187L119.387 45.3179L119 45.0008ZM116.5 55.0008L116.982 55.1324L116.994 55.0916L116.998 55.0494L116.5 55.0008ZM136 27.5008L135.718 27.0881L135.703 27.0984L135.689 27.1098L136 27.5008ZM154 20.5008L153.916 20.0079L153.907 20.0095L153.898 20.0114L154 20.5008ZM169 22.5008L168.77 22.9447L168.777 22.9481L169 22.5008ZM183 33.5L183.353 33.1458L183.343 33.1354L183.331 33.1256L183 33.5ZM192 49L192.497 48.9458L192.496 48.9307L192.493 48.9158L192 49ZM189 64L189.437 64.2436L189.458 64.2053L189.472 64.1639L189 64ZM166.5 79.5L166.519 79.9996L166.566 79.9979L166.612 79.9874L166.5 79.5ZM140 74L139.752 74.4342L139.76 74.4386L139.768 74.4426L140 74ZM119 58.5L119.327 58.122L119.322 58.1171L119.316 58.1123L119 58.5ZM112.425 58.3234L111.927 58.3703L111.944 58.5528L112.075 58.6809L112.425 58.3234ZM112.667 52.1177L113.052 51.7992L112.354 50.9545L112.173 52.0355L112.667 52.1177ZM117.567 63.1445L117.232 63.5153L118.462 64.6277L118.051 63.0208L117.567 63.1445ZM132 69L131.696 69.3971L131.704 69.4032L131.712 69.409L132 69ZM165.5 79.5L165.519 79.9996L165.548 79.9985L165.576 79.9941L165.5 79.5ZM165.886 79.441L165.961 79.9353L165.961 79.9353L165.886 79.441ZM192 53.5L192.494 53.5752L192.499 53.5467L192.5 53.5179L192 53.5ZM171 23.5L171.3 23.1004L171.277 23.0827L171.251 23.0678L171 23.5ZM149 21.5L148.881 21.0145L148.863 21.0187L148.847 21.0241L149 21.5ZM118 46L117.614 45.6824L117.554 45.7558L117.524 45.8461L118 46ZM189.319 150.616C187.89 149.422 186.511 148.451 185.241 147.556L184.665 148.373C185.937 149.27 187.284 150.219 188.678 151.384L189.319 150.616ZM192.613 147.184C191.24 148.865 190.442 149.614 188.754 150.564L189.244 151.436C191.07 150.408 191.959 149.565 193.387 147.816L192.613 147.184ZM181.207 136.905C184.961 139.614 187.397 141.826 192.623 147.828L193.377 147.172C188.119 141.133 185.627 138.862 181.793 136.095L181.207 136.905ZM162.137 117.844C168.073 124.108 171.905 128.004 181.154 136.861L181.846 136.139C172.607 127.291 168.787 123.407 162.863 117.156L162.137 117.844ZM126.608 80.3099C137.527 94.1333 145.265 102.315 162.161 117.868L162.839 117.132C145.97 101.605 138.271 93.462 127.392 79.6901L126.608 80.3099ZM117.082 63.2681C118.742 69.7697 122.263 75.6969 126.636 80.3427L127.364 79.6573C123.094 75.12 119.664 69.3397 118.051 63.0208L117.082 63.2681ZM126.324 70.119C123.183 67.4511 120.407 65.0392 117.902 62.7736L117.232 63.5153C119.747 65.7902 122.531 68.2093 125.676 70.8811L126.324 70.119ZM162.512 83.5002C155.67 83.3419 150.31 82.6386 144.824 80.6621C139.333 78.6835 133.687 75.4181 126.292 70.0942L125.708 70.9058C133.136 76.2532 138.868 79.5789 144.485 81.6029C150.109 83.6292 155.587 84.3403 162.488 84.4999L162.512 83.5002ZM190.119 69.1729C185.474 73.6557 181.901 77.1009 177.816 79.5012C173.753 81.8886 169.162 83.2526 162.481 83.5004L162.519 84.4997C169.334 84.2469 174.093 82.8488 178.323 80.3634C182.53 77.891 186.192 74.3528 190.813 69.8924L190.119 69.1729ZM190.153 69.1402L190.119 69.1729L190.813 69.8925L190.847 69.8598L190.153 69.1402ZM196 51.0095C196.086 55.534 195.75 58.7181 194.837 61.4398C193.926 64.1558 192.426 66.4504 190.118 69.177L190.882 69.823C193.23 67.0479 194.817 64.6419 195.785 61.758C196.751 58.8797 197.087 55.5647 197 50.9905L196 51.0095ZM188.13 32.336C190.822 35.3033 192.715 37.6868 193.975 40.4594C195.232 43.2255 195.876 46.4163 196 51.0136L197 50.9865C196.873 46.3074 196.216 42.973 194.885 40.0456C193.557 37.1246 191.576 34.6462 188.871 31.6641L188.13 32.336ZM141.705 19.9557C149.376 16.4907 156.636 15.3931 164.13 17.2356C171.637 19.0814 179.437 23.8922 188.152 32.3587L188.849 31.6414C180.064 23.1078 172.113 18.1686 164.368 16.2645C156.61 14.357 149.12 15.5095 141.293 19.0444L141.705 19.9557ZM113.16 52.2C114.278 45.4989 118.104 38.9291 123.325 33.2769C128.544 27.6276 135.128 22.9262 141.705 19.9557L141.293 19.0444C134.593 22.0704 127.9 26.8513 122.591 32.5984C117.285 38.3426 113.333 45.0834 112.173 52.0355L113.16 52.2ZM109.582 48.7743C110.408 50.0334 111.287 51.2332 112.281 52.4363L113.052 51.7992C112.082 50.6258 111.225 49.4557 110.418 48.2257L109.582 48.7743ZM79.7189 12.9135C79.8231 12.9843 80.0099 13.1454 80.3176 13.4568C80.6188 13.7617 81.0167 14.1907 81.539 14.7782C82.5833 15.9527 84.1107 17.7444 86.3319 20.408C90.7735 25.7342 97.9769 34.5315 109.612 48.8158L110.388 48.1842C98.7528 33.9007 91.5459 25.0989 87.0999 19.7676C84.8774 17.1024 83.3417 15.3007 82.2863 14.1137C81.7589 13.5205 81.3478 13.0767 81.0289 12.7539C80.7164 12.4377 80.4718 12.2161 80.2811 12.0865L79.7189 12.9135ZM60.4978 1.49999C65.061 1.52044 68.889 3.39883 79.6699 12.8755L80.3301 12.1245C69.5744 2.66991 65.4851 0.522328 60.5022 0.500005L60.4978 1.49999ZM44.1893 14.3499C47.6137 10.6694 50.4178 7.65672 53.0332 5.45347C55.6441 3.25395 58.0217 1.90143 60.5787 1.49376L60.4213 0.506236C57.609 0.954584 55.0654 2.43393 52.3889 4.68868C49.7168 6.93969 46.8671 10.0037 43.4572 13.6688L44.1893 14.3499ZM41.8648 16.8419C42.6708 15.982 43.4444 15.1505 44.1893 14.3499L43.4572 13.6688C42.7121 14.4695 41.9397 15.2997 41.1352 16.1581L41.8648 16.8419ZM20.4366 22.996C24.9372 23.5717 28.4407 23.688 31.7528 22.8225C35.0725 21.955 38.1487 20.1155 41.8303 16.8753L41.1697 16.1247C37.5535 19.3072 34.6138 21.0413 31.5 21.855C28.3786 22.6706 25.031 22.5756 20.5634 22.004L20.4366 22.996ZM0.744186 14.9296C9.06451 19.8841 13.6638 22.315 20.45 22.9975L20.55 22.0025C14.006 21.3444 9.57601 19.0248 1.25581 14.0704L0.744186 14.9296ZM1.5 19.5V14.5H0.5V19.5H1.5ZM34.8868 25.013C28.3271 26.5378 23.237 27.0327 18.1453 26.1698C13.0498 25.3064 7.90732 23.0756 1.25792 19.0717L0.742075 19.9283C7.4392 23.961 12.7058 26.2623 17.9782 27.1558C23.2544 28.0499 28.4911 27.5264 35.1132 25.987L34.8868 25.013ZM54.6148 7.68129C45.8636 18.259 41.3094 23.0331 34.8528 25.0222L35.1472 25.9778C41.938 23.8859 46.6739 18.8483 55.3852 8.31874L54.6148 7.68129ZM64.2022 5.04272C62.1862 4.15129 60.6045 3.96204 59.0842 4.46846C57.6029 4.96187 56.2545 6.09578 54.6529 7.64008L55.3471 8.35994C56.9559 6.80866 58.1585 5.83079 59.4002 5.41721C60.6028 5.01663 61.9159 5.12516 63.7978 5.9573L64.2022 5.04272ZM96.892 38.6897C82.0309 19.9172 74.1533 10.6566 64.2458 5.06458L63.7542 5.93544C73.4575 11.4121 81.2135 20.4958 96.108 39.3104L96.892 38.6897ZM112.774 57.9659C106.556 51.8845 102.012 46.3454 96.9157 38.7221L96.0843 39.2779C101.216 46.9539 105.803 52.5473 112.075 58.6809L112.774 57.9659ZM112.995 58.9381C112.967 58.7177 112.943 58.4971 112.923 58.2765L111.927 58.3703C111.949 58.601 111.974 58.8315 112.003 59.0621L112.995 58.9381ZM130.959 90.9384C121.216 79.841 114.673 72.3727 112.995 58.9381L112.003 59.0621C113.724 72.8392 120.481 80.5197 130.208 91.5982L130.959 90.9384ZM136.379 97.1757C134.483 94.9518 132.672 92.8893 130.959 90.9384L130.208 91.5982C131.921 93.5496 133.727 95.607 135.618 97.8246L136.379 97.1757ZM177.851 138.645C159.452 120.359 149.698 110.653 136.355 97.1487L135.643 97.8515C148.99 111.36 158.747 121.068 177.146 139.355L177.851 138.645ZM185.241 147.556C181.783 145.119 179.155 143.255 177.982 138.871L177.016 139.129C178.292 143.896 181.214 145.942 184.665 148.373L185.241 147.556ZM118.818 44.5353C118.328 44.7273 117.961 45.1097 117.675 45.6234C117.392 46.1311 117.171 46.7982 116.981 47.6206C116.603 49.2648 116.324 51.661 116.002 54.9522L116.998 55.0494C117.32 51.7453 117.594 49.4151 117.956 47.845C118.136 47.0601 118.332 46.498 118.548 46.11C118.761 45.7279 118.974 45.548 119.183 45.4663L118.818 44.5353ZM135.689 27.1098C129.522 32.0231 125.708 36.0338 118.614 44.6837L119.387 45.3179C126.458 36.6954 130.222 32.7439 136.312 27.8918L135.689 27.1098ZM153.898 20.0114C144.749 21.9236 140.904 23.5418 135.718 27.0881L136.282 27.9135C141.331 24.4609 145.044 22.8835 154.102 20.9902L153.898 20.0114ZM169.23 22.057C166.663 20.7251 164.552 19.9086 162.207 19.5827C159.867 19.2574 157.33 19.4258 153.916 20.0079L154.084 20.9937C157.456 20.4187 159.877 20.2684 162.07 20.5731C164.257 20.8772 166.254 21.6392 168.77 22.9446L169.23 22.057ZM183.331 33.1256C175.333 26.0479 172.311 23.5953 169.224 22.0535L168.777 22.9481C171.722 24.4189 174.639 26.7693 182.669 33.8745L183.331 33.1256ZM192.493 48.9158C191.922 45.577 191.057 43.0371 189.61 40.6191C188.169 38.2108 186.164 35.9468 183.353 33.1458L182.647 33.8542C185.445 36.6413 187.377 38.8343 188.752 41.1326C190.122 43.4211 190.952 45.8373 191.507 49.0842L192.493 48.9158ZM189.472 64.1639C192.414 55.6868 192.898 52.6171 192.497 48.9458L191.503 49.0542C191.878 52.4917 191.461 55.3828 188.528 63.8361L189.472 64.1639ZM166.612 79.9874C173.101 78.4997 177.557 76.8358 181.022 74.3906C184.495 71.9399 186.932 68.734 189.437 64.2436L188.563 63.7564C186.094 68.1825 183.746 71.2444 180.445 73.5735C177.137 75.908 172.83 77.5359 166.388 79.0126L166.612 79.9874ZM139.768 74.4426C144.524 76.9423 148.4 78.4443 152.506 79.2631C156.608 80.0811 160.914 80.212 166.519 79.9996L166.481 79.0004C160.905 79.2116 156.69 79.0778 152.702 78.2824C148.717 77.488 144.934 76.0282 140.233 73.5574L139.768 74.4426ZM118.673 58.878C129.3 68.0814 133.194 70.6913 139.752 74.4342L140.248 73.5658C133.76 69.8629 129.919 67.2947 119.327 58.122L118.673 58.878ZM116.018 54.8692C115.822 55.5877 116.022 56.2153 116.499 56.8403C116.952 57.4357 117.697 58.0831 118.684 58.8877L119.316 58.1123C118.314 57.2961 117.664 56.72 117.294 56.2341C116.946 55.7777 116.891 55.4661 116.982 55.1324L116.018 54.8692ZM112.923 58.2765C112.732 56.2529 112.823 54.2207 113.16 52.2L112.173 52.0355C111.823 54.1351 111.728 56.2543 111.927 58.3703L112.923 58.2765ZM117.902 62.7736C116.058 61.1059 114.361 59.5179 112.774 57.9659L112.075 58.6809C113.673 60.2435 115.38 61.8406 117.232 63.5153L117.902 62.7736ZM112.281 52.4363C113.415 53.8081 114.698 55.1813 116.223 56.6492L116.916 55.9288C115.414 54.483 114.158 53.1375 113.052 51.7992L112.281 52.4363ZM116.223 56.6492C119.72 60.0165 124.501 63.8918 131.696 69.3971L132.304 68.6029C125.11 63.0986 120.369 59.2532 116.916 55.9288L116.223 56.6492ZM131.712 69.409C137.888 73.752 142.831 76.545 147.997 78.1773C153.167 79.8108 158.526 80.2709 165.519 79.9996L165.481 79.0004C158.552 79.2692 153.319 78.8099 148.299 77.2237C143.274 75.6363 138.428 72.9093 132.288 68.591L131.712 69.409ZM165.576 79.9941C165.698 79.9753 165.827 79.9558 165.961 79.9353L165.811 78.9467C165.676 78.9671 165.547 78.9868 165.424 79.0059L165.576 79.9941ZM165.961 79.9353C168.906 79.4869 174.677 78.6121 180.142 74.9835C185.629 71.3405 190.763 64.9531 192.494 53.5752L191.506 53.4248C189.815 64.533 184.833 70.6684 179.589 74.1504C174.323 77.6469 168.747 78.4996 165.811 78.9467L165.961 79.9353ZM192.5 53.5179C192.699 47.9459 191.564 43.4477 188.265 38.7735C184.987 34.1294 179.583 29.3274 171.3 23.1004L170.7 23.8996C178.975 30.1212 184.267 34.844 187.448 39.3502C190.607 43.8263 191.693 48.1038 191.5 53.4821L192.5 53.5179ZM171.251 23.0678C167.952 21.1479 165.117 19.939 161.704 19.5677C158.303 19.1977 154.371 19.6643 148.881 21.0145L149.119 21.9855C154.567 20.6459 158.366 20.2105 161.596 20.5618C164.814 20.912 167.511 22.0479 170.749 23.9322L171.251 23.0678ZM148.847 21.0241C143.843 22.6373 139.797 24.2058 135.11 27.6883C130.438 31.1601 125.148 36.5196 117.614 45.6824L118.386 46.3176C125.905 37.1735 131.133 31.8892 135.707 28.4909C140.266 25.1032 144.193 23.5751 149.153 21.9759L148.847 21.0241ZM117.524 45.8461C116.39 49.3525 115.948 52.8705 116.07 56.3067L117.069 56.2713C116.951 52.9461 117.379 49.5446 118.476 46.1539L117.524 45.8461ZM116.07 56.3067C116.154 58.6772 116.506 61.0078 117.082 63.2681L118.051 63.0208C117.491 60.8256 117.15 58.5661 117.069 56.2713L116.07 56.3067Z" fill="#181D3A"/>
<path d="M188.498 151.501C183.663 154.914 184.267 156.747 185.998 160.001C191.538 152.472 194.738 149.52 200.5 145.001C197.996 142.682 196.726 143.699 194.5 146.501C192.29 148.621 191.022 149.719 188.498 151.501Z" fill="#181D3A" stroke="#0C0F24"/>
<path d="M180.509 169.999C175 183.5 193.481 194.257 208.509 210.499C229.237 190.734 238.065 181.477 253 165.5C233.766 144.784 230.123 141.426 228.007 140.499C207.308 130.54 186.017 156.499 180.509 169.999Z" fill="#2E4183" stroke="#1B2D6A"/>
<path d="M263.82 178.859C254.428 188.626 230.14 212.717 220.82 222.359C211.5 232 200.458 222.225 208.32 210.859C225.517 194.185 235.336 183.631 252.5 166C262.581 157.585 273.212 169.091 263.82 178.859Z" fill="url(#paint0_radial_376_166)" stroke="#0D1A3A"/>
<path d="M113.494 50.5C112.069 57.8266 113.282 61.2469 113.494 60.5C115.557 63.0948 118.087 68.5971 116.496 60.5C116.496 57.5 115.47 58.1049 116.496 50L113.494 50.5Z" fill="#23294C"/>
<path fill-rule="evenodd" clip-rule="evenodd" d="M326.998 285C328.387 286.154 329.157 287.074 330.498 289.5C334.087 294.508 336.407 296.997 341.498 300.5C351.707 309.924 358.426 316.578 371.498 330C386.931 344.764 394.133 352.344 399.998 362.5C401.559 365.641 402.746 368.672 403.591 371.55C395.985 364.639 389.326 359.704 375.998 354C366.422 351.084 353.998 350.5 344.498 355C334.851 361.033 330.588 365.225 326.998 375.5C323.751 386.954 328.496 399 334.998 405.5C341.5 412 346.335 416.649 357.5 419C365.477 420.023 378 420.5 389.5 411C390.853 409.842 392.151 408.752 393.39 407.711C401.541 400.866 407.148 396.157 409 388.5C409.175 386.972 409.321 385.522 409.425 384.127C410.837 385.757 412.355 387.541 413.998 389.5C421.366 399.012 426.169 404.912 435.998 416.5C443.853 425.609 448.075 429.823 454.998 434C459.759 436.885 467.998 435 472.998 427C483.897 414.911 493.498 408 504.998 415C513.243 419.08 519.223 423.701 533.998 439C544.608 449.81 551.289 456.973 563.998 471H569.498C568.067 469.339 566.669 467.716 565.304 466.13C542.808 440.005 528.975 423.939 514.998 415C501.94 407.732 494.609 404.917 481.498 413C480.583 413.857 479.738 414.634 478.939 415.37C474.967 419.028 472.094 421.674 466.998 428C459.802 434.126 453.809 428.986 442.498 417C425.888 397.298 418.803 388.674 410.498 378C410.322 377.834 410.147 377.669 409.973 377.505C409.81 377.351 409.647 377.197 409.485 377.045C408.975 370.305 406.538 363.833 399.998 354C395.903 347.933 387.625 338.893 346 297.5C340.717 290.164 337.883 287.574 333 285L329.5 282L326.5 284.5L326.998 285ZM345.999 359.501C352.175 356.403 355.799 355.563 362.499 356.001C368.06 356.399 371.092 357.413 376.499 359.5C383.068 361.997 386.398 363.626 391.499 367C396.079 370.052 398.622 372.153 402.999 377C405.459 379.676 405.688 381.617 404.999 385.5C404.043 391.916 400.821 395.535 394.499 402L394.218 402.256C387.867 408.046 384.219 411.373 372.499 415C361.094 417.059 355.013 414.895 344.499 407.5C336.593 401.427 333.01 397.62 330.499 389C329.48 379.2 330.275 375.364 333.499 370.5C337.886 364.979 340.444 362.146 345.999 359.501Z" fill="#23294D"/>
<path d="M330.498 289.5L330.061 289.742L330.075 289.767L330.092 289.791L330.498 289.5ZM326.998 285L326.644 285.353L326.661 285.37L326.679 285.384L326.998 285ZM341.498 300.5L341.837 300.133L341.811 300.108L341.782 300.088L341.498 300.5ZM371.498 330L371.14 330.349L371.146 330.355L371.153 330.361L371.498 330ZM399.998 362.5L400.446 362.277L400.439 362.263L400.431 362.25L399.998 362.5ZM403.591 371.55L403.255 371.92L404.573 373.117L404.071 371.409L403.591 371.55ZM375.998 354L376.195 353.54L376.17 353.53L376.144 353.522L375.998 354ZM344.498 355L344.284 354.548L344.258 354.561L344.233 354.576L344.498 355ZM326.998 375.5L326.526 375.335L326.521 375.349L326.517 375.364L326.998 375.5ZM357.5 419L357.397 419.489L357.416 419.493L357.436 419.496L357.5 419ZM389.5 411L389.818 411.386L389.825 411.38L389.5 411ZM393.39 407.711L393.069 407.328L393.069 407.328L393.39 407.711ZM409 388.5L409.486 388.618L409.493 388.588L409.497 388.557L409 388.5ZM409.425 384.127L409.803 383.8L409.016 382.891L408.926 384.09L409.425 384.127ZM413.998 389.5L414.393 389.194L414.388 389.186L414.381 389.179L413.998 389.5ZM435.998 416.5L435.617 416.823L435.62 416.827L435.998 416.5ZM454.998 434L455.257 433.572L455.257 433.572L454.998 434ZM472.998 427L472.627 426.665L472.597 426.698L472.574 426.735L472.998 427ZM504.998 415L504.738 415.427L504.757 415.438L504.776 415.448L504.998 415ZM533.998 439L533.639 439.347L533.641 439.35L533.998 439ZM563.998 471L563.628 471.336L563.777 471.5H563.998V471ZM569.498 471V471.5H570.589L569.877 470.674L569.498 471ZM565.304 466.13L564.925 466.457L564.925 466.457L565.304 466.13ZM514.998 415L515.268 414.579L515.255 414.571L515.241 414.563L514.998 415ZM481.498 413L481.236 412.574L481.193 412.601L481.157 412.635L481.498 413ZM478.939 415.37L478.6 415.003L478.6 415.003L478.939 415.37ZM466.998 428L467.322 428.381L467.358 428.35L467.388 428.314L466.998 428ZM442.498 417L442.116 417.322L442.125 417.333L442.135 417.343L442.498 417ZM410.498 378L410.893 377.693L410.869 377.663L410.841 377.636L410.498 378ZM409.973 377.505L410.316 377.141L410.316 377.141L409.973 377.505ZM409.485 377.045L408.987 377.083L409.001 377.276L409.142 377.409L409.485 377.045ZM399.998 354L400.415 353.723L400.413 353.72L399.998 354ZM346 297.5L345.594 297.792L345.618 297.826L345.647 297.855L346 297.5ZM333 285L332.675 285.38L332.717 285.416L332.767 285.442L333 285ZM329.5 282L329.825 281.62L329.505 281.345L329.18 281.616L329.5 282ZM326.5 284.5L326.18 284.116L325.76 284.466L326.146 284.853L326.5 284.5ZM362.499 356.001L362.534 355.502L362.531 355.502L362.499 356.001ZM345.999 359.501L346.214 359.952L346.223 359.948L345.999 359.501ZM376.499 359.5L376.319 359.966L376.321 359.967L376.499 359.5ZM391.499 367L391.776 366.584L391.775 366.583L391.499 367ZM402.999 377L402.628 377.335L402.631 377.338L402.999 377ZM404.999 385.5L404.506 385.413L404.504 385.426L404.999 385.5ZM394.499 402L394.836 402.369L394.846 402.36L394.856 402.35L394.499 402ZM394.218 402.256L393.881 401.886L393.881 401.886L394.218 402.256ZM372.499 415L372.588 415.492L372.617 415.487L372.646 415.478L372.499 415ZM344.499 407.5L344.194 407.897L344.202 407.903L344.211 407.909L344.499 407.5ZM330.499 389L330.001 389.052L330.006 389.097L330.019 389.14L330.499 389ZM333.499 370.5L333.107 370.189L333.094 370.206L333.082 370.224L333.499 370.5ZM403.591 371.55L403.928 371.18L402.61 369.983L403.112 371.691L403.591 371.55ZM409.425 384.127L409.047 384.455L409.835 385.363L409.924 384.164L409.425 384.127ZM409.485 377.045L409.984 377.007L409.969 376.814L409.828 376.681L409.485 377.045ZM409.43 376.993L409.087 377.357L409.087 377.357L409.43 376.993ZM330.936 289.258C329.573 286.793 328.766 285.819 327.318 284.616L326.679 285.384C328.008 286.489 328.741 287.356 330.061 289.742L330.936 289.258ZM341.782 300.088C336.746 296.623 334.466 294.179 330.905 289.209L330.092 289.791C333.707 294.837 336.067 297.37 341.215 300.912L341.782 300.088ZM371.856 329.651C358.78 316.226 352.055 309.565 341.837 300.133L341.159 300.867C351.359 310.283 358.071 316.93 371.14 330.349L371.856 329.651ZM400.431 362.25C394.526 352.024 387.274 344.401 371.844 329.639L371.153 330.361C386.588 345.128 393.74 352.663 399.565 362.75L400.431 362.25ZM404.071 371.409C403.217 368.501 402.019 365.442 400.446 362.277L399.55 362.723C401.1 365.839 402.275 368.843 403.112 371.691L404.071 371.409ZM375.802 354.46C389.072 360.139 395.685 365.042 403.255 371.92L403.928 371.18C396.286 364.236 389.58 359.269 376.195 353.54L375.802 354.46ZM344.712 355.452C354.062 351.023 366.348 351.584 375.853 354.478L376.144 353.522C366.496 350.584 353.934 349.977 344.284 354.548L344.712 355.452ZM327.47 375.665C329.251 370.568 331.186 367.014 333.852 363.99C336.523 360.959 339.951 358.434 344.763 355.424L344.233 354.576C339.398 357.6 335.871 360.187 333.101 363.329C330.326 366.477 328.335 370.157 326.526 375.335L327.47 375.665ZM335.352 405.146C328.956 398.752 324.29 386.888 327.479 375.636L326.517 375.364C323.213 387.021 328.037 399.248 334.645 405.854L335.352 405.146ZM357.603 418.511C352.076 417.347 348.136 415.62 344.777 413.389C341.407 411.152 338.606 408.4 335.352 405.146L334.645 405.854C337.892 409.1 340.759 411.922 344.224 414.222C347.699 416.529 351.759 418.302 357.397 419.489L357.603 418.511ZM389.182 410.615C377.843 419.981 365.497 419.521 357.564 418.504L357.436 419.496C365.458 420.525 378.156 421.019 389.818 411.385L389.182 410.615ZM393.069 407.328C391.829 408.369 390.53 409.461 389.175 410.62L389.825 411.38C391.176 410.224 392.472 409.135 393.712 408.094L393.069 407.328ZM408.514 388.382C406.707 395.85 401.252 400.455 393.069 407.328L393.712 408.094C401.829 401.277 407.588 396.464 409.486 388.618L408.514 388.382ZM408.926 384.09C408.823 385.476 408.677 386.919 408.503 388.443L409.497 388.557C409.672 387.025 409.819 385.568 409.924 384.164L408.926 384.09ZM414.381 389.179C412.737 387.218 411.217 385.432 409.803 383.8L409.047 384.455C410.457 386.082 411.974 387.864 413.615 389.821L414.381 389.179ZM436.38 416.177C426.554 404.593 421.756 398.699 414.393 389.194L413.603 389.806C420.976 399.325 425.784 405.231 435.617 416.823L436.38 416.177ZM455.257 433.572C448.403 429.437 444.223 425.273 436.377 416.173L435.62 416.827C443.483 425.946 447.747 430.209 454.74 434.428L455.257 433.572ZM472.574 426.735C467.671 434.58 459.714 436.273 455.257 433.572L454.739 434.428C459.805 437.497 468.325 435.42 473.422 427.265L472.574 426.735ZM505.258 414.573C499.363 410.985 493.913 410.956 488.566 413.386C483.265 415.796 478.081 420.616 472.627 426.665L473.37 427.335C478.814 421.295 483.881 416.615 488.98 414.297C494.033 412 499.133 412.015 504.738 415.427L505.258 414.573ZM534.358 438.653C519.572 423.343 513.544 418.671 505.22 414.552L504.776 415.448C512.942 419.488 518.873 424.058 533.639 439.347L534.358 438.653ZM564.369 470.664C551.656 456.635 544.971 449.466 534.355 438.65L533.641 439.35C544.245 450.154 550.921 457.312 563.628 471.336L564.369 470.664ZM569.498 470.5H563.998V471.5H569.498V470.5ZM564.925 466.457C566.29 468.043 567.688 469.666 569.119 471.326L569.877 470.674C568.446 469.013 567.048 467.39 565.683 465.804L564.925 466.457ZM514.729 415.421C528.628 424.311 542.406 440.304 564.925 466.457L565.683 465.804C543.209 439.705 529.321 423.568 515.268 414.579L514.729 415.421ZM481.761 413.426C488.254 409.422 493.252 408.155 498.209 408.74C503.202 409.329 508.218 411.799 514.755 415.437L515.241 414.563C508.72 410.934 503.542 408.362 498.327 407.747C493.076 407.128 487.853 408.495 481.236 412.574L481.761 413.426ZM479.278 415.738C480.077 415.002 480.922 414.223 481.84 413.365L481.157 412.635C480.243 413.49 479.4 414.266 478.6 415.003L479.278 415.738ZM467.388 428.314C472.461 422.015 475.314 419.388 479.278 415.738L478.6 415.003C474.62 418.668 471.726 421.333 466.609 427.686L467.388 428.314ZM442.135 417.343C447.774 423.32 452.158 427.67 456.057 429.734C458.023 430.775 459.901 431.255 461.779 431.048C463.657 430.842 465.471 429.957 467.322 428.381L466.674 427.619C464.927 429.107 463.294 429.876 461.67 430.054C460.047 430.233 458.371 429.827 456.525 428.85C452.801 426.879 448.533 422.666 442.862 416.657L442.135 417.343ZM410.104 378.307C418.415 388.989 425.505 397.619 442.116 417.322L442.88 416.678C426.272 396.977 419.191 388.359 410.893 377.693L410.104 378.307ZM409.63 377.869C409.804 378.033 409.979 378.198 410.155 378.364L410.841 377.636C410.665 377.47 410.49 377.305 410.316 377.141L409.63 377.869ZM409.142 377.409C409.304 377.561 409.466 377.715 409.63 377.869L410.316 377.141C410.153 376.987 409.99 376.834 409.828 376.681L409.142 377.409ZM399.582 354.277C406.096 364.071 408.485 370.46 408.987 377.083L409.984 377.007C409.465 370.149 406.98 363.594 400.415 353.723L399.582 354.277ZM345.647 297.855C387.293 339.269 395.523 348.264 399.584 354.28L400.413 353.72C396.282 347.602 387.956 338.518 346.353 297.145L345.647 297.855ZM332.767 285.442C337.556 287.967 340.336 290.492 345.594 297.792L346.406 297.208C341.097 289.837 338.209 287.181 333.233 284.558L332.767 285.442ZM329.175 282.38L332.675 285.38L333.325 284.62L329.825 281.62L329.175 282.38ZM326.82 284.884L329.82 282.384L329.18 281.616L326.18 284.116L326.82 284.884ZM327.352 284.647L326.854 284.147L326.146 284.853L326.644 285.353L327.352 284.647ZM362.531 355.502C359.154 355.281 356.523 355.38 353.947 355.936C351.373 356.491 348.88 357.496 345.774 359.054L346.223 359.948C349.294 358.407 351.701 357.443 354.158 356.913C356.613 356.384 359.143 356.282 362.466 356.5L362.531 355.502ZM376.679 359.034C371.254 356.939 368.168 355.905 362.534 355.502L362.463 356.499C367.952 356.893 370.931 357.886 376.319 359.966L376.679 359.034ZM391.775 366.583C386.637 363.184 383.272 361.54 376.676 359.033L376.321 359.967C382.863 362.455 386.16 364.067 391.223 367.417L391.775 366.583ZM403.37 376.665C398.965 371.787 396.391 369.659 391.776 366.584L391.221 367.416C395.768 370.445 398.279 372.52 402.628 377.335L403.37 376.665ZM405.491 385.587C405.838 383.633 405.969 382.097 405.669 380.693C405.365 379.272 404.634 378.04 403.367 376.662L402.631 377.338C403.824 378.636 404.437 379.712 404.691 380.902C404.948 382.107 404.849 383.484 404.506 385.413L405.491 385.587ZM394.856 402.35C401.17 395.893 404.511 392.169 405.493 385.574L404.504 385.426C403.575 391.663 400.471 395.177 394.141 401.65L394.856 402.35ZM394.555 402.625L394.836 402.369L394.162 401.631L393.881 401.886L394.555 402.625ZM372.646 415.478C378.535 413.655 382.421 411.901 385.64 409.861C388.854 407.825 391.385 405.516 394.555 402.625L393.881 401.886C390.701 404.786 388.232 407.035 385.105 409.017C381.982 410.995 378.183 412.717 372.351 414.522L372.646 415.478ZM344.211 407.909C349.48 411.615 353.685 414.045 358.028 415.277C362.384 416.512 366.837 416.531 372.588 415.492L372.41 414.508C366.756 415.529 362.466 415.496 358.301 414.315C354.124 413.13 350.031 410.78 344.786 407.091L344.211 407.909ZM330.019 389.14C331.288 393.497 332.837 396.665 335.083 399.515C337.321 402.355 340.235 404.856 344.194 407.897L344.803 407.103C340.856 404.071 338.025 401.633 335.868 398.896C333.718 396.169 332.22 393.123 330.979 388.86L330.019 389.14ZM333.082 370.224C331.442 372.697 330.404 374.937 329.915 377.815C329.429 380.676 329.49 384.139 330.001 389.052L330.996 388.948C330.488 384.06 330.438 380.706 330.9 377.983C331.36 375.277 332.331 373.167 333.915 370.776L333.082 370.224ZM345.784 359.049C340.123 361.745 337.507 364.653 333.107 370.189L333.89 370.811C338.265 365.306 340.765 362.547 346.214 359.952L345.784 359.049ZM403.112 371.691C403.901 374.379 404.388 376.926 404.603 379.298L405.599 379.208C405.378 376.765 404.877 374.153 404.071 371.409L403.112 371.691ZM404.603 379.298C404.654 379.864 404.69 380.421 404.71 380.966L405.71 380.928C405.688 380.365 405.652 379.791 405.599 379.208L404.603 379.298ZM401.613 393.182C401.456 393.372 401.299 393.562 401.141 393.751L401.911 394.39C402.069 394.2 402.226 394.009 402.384 393.818L401.613 393.182ZM387.221 364.922C387.242 364.931 387.262 364.941 387.282 364.951L387.715 364.049C387.695 364.04 387.674 364.03 387.654 364.02L387.221 364.922ZM402.457 377.147C403.18 377.907 403.937 378.719 404.731 379.59L405.47 378.916C404.671 378.041 403.91 377.223 403.182 376.458L402.457 377.147ZM404.731 379.59C406.055 381.04 407.485 382.652 409.047 384.455L409.803 383.8C408.237 381.992 406.8 380.374 405.47 378.916L404.731 379.59ZM409.828 376.681L409.773 376.629L409.087 377.357L409.142 377.409L409.828 376.681ZM409.773 376.629C407.698 374.672 405.785 372.867 403.928 371.18L403.255 371.92C405.104 373.6 407.01 375.398 409.087 377.357L409.773 376.629ZM409.924 384.164C410.11 381.663 410.159 379.323 409.984 377.007L408.987 377.083C409.157 379.333 409.11 381.621 408.926 384.09L409.924 384.164Z" fill="#181D3A"/>
<path d="M331.318 280.637C336.019 277.043 335.346 275.234 333.492 272.048C328.242 279.783 325.157 282.855 319.572 287.59C322.162 289.811 323.393 288.747 325.51 285.862C327.638 283.659 328.863 282.514 331.318 280.637Z" fill="#181D3A" stroke="#0C0F24"/>
<path d="M337.993 263.941C343.604 250.483 325.205 239.586 310.301 223.23C289.423 242.838 280.526 252.028 265.47 267.891C284.547 288.753 288.164 292.138 290.273 293.08C310.896 303.197 332.383 277.4 337.993 263.941Z" fill="#2E4183" stroke="#1B2D6A"/>
<path d="M254.752 254.451C264.218 244.755 288.688 220.849 298.081 211.278C307.474 201.707 318.442 211.566 310.493 222.872C293.171 239.415 283.272 249.894 265.975 267.395C255.83 275.734 245.286 264.147 254.752 254.451Z" fill="url(#paint1_radial_376_166)" stroke="#0D1A3A"/>
<path d="M408.618 386.426C409.764 378.422 408.69 374.18 408.5 375C406.023 371.931 402.03 364.39 404.784 375.781C405.306 380.179 406.533 379.899 405.37 387.136L408.618 386.426Z" fill="#23294C"/>
<defs>
<filter id="filter0_f_376_166" x="128" y="89" width="247" height="247" filterUnits="userSpaceOnUse" color-interpolation-filters="sRGB">
<feFlood flood-opacity="0" result="BackgroundImageFix"/>
<feBlend mode="normal" in="SourceGraphic" in2="BackgroundImageFix" result="shape"/>
<feGaussianBlur stdDeviation="1" result="effect1_foregroundBlur_376_166"/>
</filter>
<radialGradient id="paint0_radial_376_166" cx="0" cy="0" r="1" gradientUnits="userSpaceOnUse" gradientTransform="translate(188 217) rotate(-29.0064) scale(115.486 112.952)">
<stop stop-color="#16264E"/>
<stop offset="1" stop-color="#16264E"/>
</radialGradient>
<radialGradient id="paint1_radial_376_166" cx="0" cy="0" r="1" gradientUnits="userSpaceOnUse" gradientTransform="translate(330.859 216.885) rotate(151.428) scale(115.486 112.952)">
<stop stop-color="#16264E"/>
<stop offset="1" stop-color="#16264E"/>
</radialGradient>
</defs>
</svg>
